<?xml version="1.0" encoding="utf-8"?>
<!-- Generator: Adobe Illustrator 26.0.3, SVG Export Plug-In . SVG Version: 6.00 Build 0)  -->
<svg version="1.1" id="Livello_1" xmlns="http://www.w3.org/2000/svg" xmlns:xlink="http://www.w3.org/1999/xlink" x="0px" y="0px"
	 viewBox="0 0 720 720" style="enable-background:new 0 0 720 720;" xml:space="preserve">
<style type="text/css">
	.st0{fill:#020203;}
	.st1{fill:#F9E4CF;}
	.st2{fill:#A6A5AD;}
	.st3{fill:#F29DC0;}
</style>
<g id="_x32__00000084518973849684402190000017580909245505944979_">
	<path id="black_00000130619667560068884860000013060513826739360695_" class="st0" d="M677.8911133,532.4941406
		c-24.0007324-32.6009827-60.7018433-33.2010193-84.5025635-17.0004883
		c-16.7005005,11.4003296-28.6008301,39.4011841-24.5007324,57.7017212
		c2.4000854,10.800354,10.0003052,17.8005371,21.3005981,19.6005859c10.4003906,1.6000366,20.2006226-3.000061,26.3008423-12.300354
		c2.9000854-4.5001221,7.3001709-11.300354,10.7003174-11.5003662c1.9000854-0.0999756,4.1000977,2.000061,5.7001953,3.8001099
		c4.1000977,4.7001953,6.7001953,15.8004761,3.5001221,27.1008301c-2.5001221,8.9002686-9.4003296,20.8005981-28.2009277,26.9008179
		c-21.2006226,6.9002686-45.3013306-0.5999756-71.7022095-22.4006958
		c12.7004395-33.1009521,15.5004883-72.4022217,7.5002441-108.2033081
		c-13.0003662-58.3017883-28.6008301-88.5027161-34.1010437-98.0029907
		c21.3006897-16.8005066,36.1011047-35.6011047,44.8014221-57.2017822
		c8.4002686,4.1001587,16.4005127,8.8002625,23.7006836,14.5004578c0.7000732,0.6000366,1.6000366,0.8000183,2.4001465,0.8000183
		c1.2000122,0,2.3000488-0.5000305,3.1000366-1.500061c1.3000488-1.7000427,1.000061-4.2001343-0.7000122-5.5001526
		c-7.9002686-6.1001892-16.7005005-11.300354-25.8007812-15.7005005c3.000061-9.2002869,5.0001221-18.8005676,6.0001831-29.1008911
		c19.5006104,5.5001526,29.4009399,11.1003418,29.6008911,11.2003479c0.5999756,0.4000244,1.2999878,0.5000305,2.000061,0.5000305
		c1.2999878,0,2.6000366-0.7000427,3.4000854-1.9000549c1.1000366-1.9000549,0.500061-4.3001404-1.4000244-5.400177
		c-0.9000854-0.5-11.7003784-6.8002014-33.0010376-12.6003723c0.0999756-2.8000793,0.2000122-5.6001892,0.2000122-8.5002747
		c0-8.1002502-0.5999756-16.9005127-1.9000854-26.5007935c28.2009277,2.4000549,47.1014404,8.9002686,47.5014648,9.1002808
		c2.000061,0.7000122,4.3001099-0.3000183,5.0001831-2.4000854c0.7000122-2.000061-0.2999878-4.3001099-2.4001465-5.0001526
		c-0.7000122-0.2999878-17.6004639-6.2001953-43.8012695-9.0002594c-2.4001465-0.3000183-4.9002075-0.5000153-7.5002441-0.7000275
		c-4.2001343-26.0007935-12.6004028-56.9017487-25.3007812-92.3028259
		c-0.5999756-1.6000519-1.0999756-3.1000977-1.3000488-3.8001099c0.1000366-9.0002747,0.9000854-97.0029678-19.6005249-130.4039764
		c-0.8000488-1.8000546-4.4001465-8.8002682-13.0004272-12.4003792c-8.6002502-3.6001101-19.1005859-2.9000883-31.4009399,2.3000698
		c-37.8011475,16.0004921-63.2019348,52.7016106-69.8021545,62.9019279
		c-55.2016907-11.9003677-94.3028564-7.600235-106.103241-5.8001862
		c-2.5000916-6.7001953-9.2002869-22.6006851-23.2007141-44.1013412
		C256.8782349,7.1780934,239.9777222-3.022218,224.07724,0.7778981
		c-19.0005798,4.6001406-33.5010223,30.0009155-43.2013092,75.8023224
		c-3.700119,17.3005295-5.900177,34.4010468-7.3002319,46.8014297
		c-22.3006897,1.7000504-43.0013123,12.5003815-58.7017899,31.000946
		c-16.7005081,19.5005951-25.900795,45.3013916-25.900795,72.6022186
		c-10.1003036-1.2000427-16.9005127-1.6000671-17.6005325-1.6000671c-2.1000671-0.1000061-3.9001236,1.5000458-4.0001221,3.6001282
		c-0.1000061,2.1000671,1.5000458,3.9001007,3.6001053,4.0001221c0.2000046,0,7.4002304,0.3999939,18.30056,1.8000488
		c0.6000137,9.7003021,2.4000702,19.200592,5.3001633,28.2008514c-22.3006897,2.2001038-34.3010483,6.6002197-35.2010765,7.0002136
		c-2.000061,0.7000427-3.0000916,2.9000854-2.2000694,4.9001465c0.6000175,1.500061,2.000061,2.5000916,3.6001091,2.5000916
		c0.400013,0,0.9000282-0.1000061,1.3000374-0.2000122c0.2000084-0.1000366,12.4003754-4.5001526,35.2010803-6.6002197
		c3.7001038,9.2002869,8.5002594,17.8005371,14.5004425,25.5007629
		c-14.1004333,4.6001587-29.6009064,11.5003662-44.7013626,21.8006592
		c-1.7000504,1.2000732-2.2000656,3.6001282-1.0000305,5.3001709c0.7000122,1.1000366,1.9000549,1.7000427,3.2000885,1.7000427
		c0.7000198,0,1.5000458-0.2000122,2.1000671-0.7000122c15.500473-10.5003357,31.4009628-17.3005371,45.8013916-21.7006836
		c4.6001434,5.1001587,9.7002945,9.6003113,15.0004578,13.4003906
		c5.2001648,15.9004822,13.6004181,31.8009644,24.7007599,46.6014404L42.4716873,349.4885559
		c-4.6001396-0.7000427-9.1002769,0.5-12.5003815,3.4000854c-3.3001003,2.8000793-5.3001614,6.8002014-5.4001637,11.300354
		c0,0.1000061,0,0.2000122,0,0.3999939l12.1003704,235.9072266c-0.2000084,9.0003052,6.7002029,17.2005615,15.8004799,18.7006226
		c0.1000023,0,0.1000023,0,0.2000084,0l25.2007713,3.2000732c4.9001541,26.100769,14.9004593,52.8016357,36.1010971,59.2018433
		c3.1000977,0.9000244,6.4001999,1.4000244,10.0003128,1.4000244c0.5000153,0,0.9000244,0,1.4000397,0
		c13.800415-0.5,18.9005737-7.5001831,22.3006744-12.1003418l0.6000214-0.7999878
		c0.5000153-0.7000122,1.1000519-1.6000366,1.6000671-2.500061c10.8003235-4.7001953,34.0010376-10.5003052,74.3022614-2.3000488
		c15.5004883,3.2000732,30.3009338,8.4002686,44.201355,15.7004395C274.5788269,701.5994263,285.6791382,720,306.9797974,720l0,0
		c1.2000427,0,2.4000854-0.0999756,3.7001343-0.2000122c11.7003784-1.1000366,21.100647-6.5001831,28.2008667-15.9005127
		c21.6006775-8.8002319,37.5011597-10.1002808,55.8016968-11.5003662
		c16.1004944-1.2999878,34.3010254-2.7000732,59.3017883-9.7003174
		c18.5005798-5.2001343,33.3010254-13.7004395,45.201416-23.9007568
		c16.70047,11.300354,34.7010193,19.3005981,53.7016296,23.8007202c14.0004272,3.3001099,26.600769,4.8001709,38.1011353,4.8001709
		c47.5014648,0,73.4022827-24.5007935,83.5025635-36.9011841
		C697.6917114,621.796875,705.3919678,569.7952881,677.8911133,532.4941406z M122.0741196,292.6868286
		c-5.7001724-6.8002014-10.5003204-14.6004639-14.3004379-23.100708c5.6001663-0.2999878,11.7003555-0.3999939,18.2005615-0.2999878
		c-0.2000046,2.2000732-0.3000183,4.3001099-0.3000183,6.400177c-0.0999985,5.2001648,0.1000061,10.5003357,0.8000336,15.8004761
		C125.0742111,291.8867798,123.5741653,292.2868042,122.0741196,292.6868286z M126.7742691,261.5858765
		c-8.0002441-0.2000122-15.3004761,0-22.0006714,0.3999939c-2.8000946-8.2002411-4.7001419-16.9004974-5.5001678-26.0007782
		c9.3002853,1.4000244,20.1006088,3.3000946,31.1009598,6.0001831
		C128.9743347,248.5854797,127.6742859,255.1856689,126.7742691,261.5858765z M171.8756409,141.282196
		c-3.900116,6.9002075-27.6008606,49.7015076-39.5012054,93.3028564
		c-12.0003738-2.9000854-23.6007233-4.9001465-33.4010315-6.4001923c0-0.1999969,0-0.3000183,0-0.5000153
		c-0.1999969-25.2007599,8.2002487-49.0014954,23.5007248-66.9020386
		c13.5004196-15.8004913,31.1009445-25.4007721,50.0015335-27.3008423
		C172.1756439,137.1820679,171.975647,139.8821411,171.8756409,141.282196z"/>
	<g id="beige_00000019646702086078088090000001734856596172568225_">
		<path class="st1" d="M81.372879,566.0951538c-0.0999985,2.7000732-0.0999985,5.5001831,0,8.3002319
			c0.6000137,12.5003662,1.8000565,38.6011353,8.1002426,61.2019043
			c7.2002182,25.9008179,18.8005829,39.0011597,34.4010544,39.0011597c0.4000168,0,0.7000198,0,1.1000366,0
			c9.800293-0.4000244,12.9003906-4.6000977,15.9004822-8.7002563l0.6000214-0.7999878
			c3.1000977-4.2001953,7.1002197-15.6004639,8.6002655-29.3009033c2.4000702-21.7006836,5.8001862-60.7019043,1.9000549-79.102417
			c-4.6001434-22.2006836-17.400528-33.401001-37.8011627-33.401001h-0.2000046
			c-1.5000458,0-2.9000854,0.0999756-4.3001328,0.2999878c-6.1001816,1-11.7003555,3.9001465-16.2004929,8.7002563
			c-4.6001358,4.9001465-8.0002441,11.5003662-10.0003052,19.3005981
			C83.3729401,551.5947266,81.2728806,559.3950195,81.372879,566.0951538"/>
		<path class="st1" d="M169.9755859,286.4866333c2.1000671,0.1000061,3.7001038,1.9000549,3.6001129,4.0001221
			c-0.1000061,2.1000671-1.9000549,3.7001343-4.0001221,3.6000977c-0.3000031,0-14.0004272-0.6000061-33.7010193,3.3001099
			c0.6000214,3.4000854,1.4000244,6.7002258,2.4000549,10.1003113
			c12.2003784,8.6002808,26.5008087,13.6004333,41.8012848,13.6004333h0.5000153
			c44.501358-0.3000183,80.5024567-42.7013245,80.1024628-94.5028992
			c-0.4000244-51.0015564-36.0011139-92.6028442-79.7024384-93.4028473
			c-0.3000183,3.5001068-0.5000153,6.7001953-0.7000122,9.5002899c0,0.7000122-0.2000122,1.3000336-0.6000366,1.8000488
			c-0.3000031,0.6000366-26.5008087,46.4014282-39.1011963,92.1028137
			c8.8002777,2.4000702,17.700531,5.3001556,26.1007996,8.8002625c1.9000549,0.8000336,2.9000854,3.0000916,2.1000824,5.0001526
			c-0.6000366,1.5000458-2.000061,2.4000702-3.5001221,2.4000702c-0.5000153,0-1.0000305-0.1000061-1.5000458-0.3000031
			c-8.0002441-3.3001099-16.5005035-6.1002045-25.100769-8.4002533c-1.5000458,6.0001831-2.6000824,12.000351-3.4001007,17.8005219
			c8.9002686,0.4000244,18.6005859,1.3000488,28.9008789,2.6000977c2.1000671,0.2999878,3.6001282,2.2000732,3.3001099,4.3001099
			c-0.3000183,2.1000671-2.2000732,3.6001282-4.3001404,3.3000793c-10.3003082-1.4000244-19.9006042-2.2000732-28.8008728-2.6000671
			c-0.2000122,2.2000732-0.3000183,4.3001099-0.4000092,6.400177c-0.1000061,4.5001526,0.1000061,9.2002869,0.6000214,13.800415
			C154.775116,285.8865967,168.8755493,286.4866333,169.9755859,286.4866333z M207.176712,210.9843292
			c12.0003662-0.1000214,21.8006744,12.3003693,21.9006653,27.5008392
			c0.1000061,15.3004608-9.600296,27.8008423-21.6006622,27.8008423
			c-12.0003662,0.1000061-21.8006744-12.3003845-21.9006653-27.5008545
			C185.5760651,223.5847168,195.1763458,211.0843353,207.176712,210.9843292z"/>
		<path class="st1" d="M464.3845825,310.1873779c1.5000305,0.1000061,19.5005798,1.1000366,42.7013245,6.3001709
			c5.2001038-6.2001953,9.6003113-13.0003967,13.3003845-20.4006348c-14.6004333-1.6000366-31.500946-2.500061-50.5015259-2.000061
			c-2.2000732,0-4.0001221-1.6000366-4.0001221-3.8000793c-0.1000061-2.2001038,1.6000671-4.0001221,3.8001099-4.0001221
			c20.600647-0.6000366,38.6011963,0.3999939,54.1016235,2.3000488c3.6000977-8.7002869,6.0001831-18.1005554,7.3002319-27.9008484
			c-18.4005737,0.9000244-38.7012024,4.1001282-59.401825,11.3003235c-0.3999939,0.2000427-0.9000244,0.2000427-1.3000183,0.2000427
			c-1.6000671,0-3.1000977-1.0000305-3.7001343-2.6000977c-0.7000427-2.000061,0.3999939-4.3001099,2.4000549-5.0001526
			c22.100708-7.8002319,43.7013855-11.0003357,62.7019348-11.8003693c0.0999756-2.3000641,0.2000122-4.6001434,0.2000122-7.0002136
			c-0.4000244-57.0017395-43.2013245-103.3031616-95.5028992-103.3031616h-0.6000366
			c-52.601593,0.4000092-95.1029053,47.3014526-94.7028809,104.6032104
			c0.4000244,57.0017548,43.201355,103.3031769,95.5029297,103.3031769h0.6000366
			c24.5007324-0.2000122,46.8014221-10.4003296,63.6019287-27.2008362
			c-20.9006348-4.3001404-36.6011047-5.3001709-36.901123-5.3001709c-2.2000732-0.1000061-3.8000793-2.000061-3.7001038-4.1001282
			S462.1845398,309.9873352,464.3845825,310.1873779z M408.2828674,280.786438
			c-13.7004395,0.1000061-25.0007629-13.5003967-25.1007996-30.4009247
			c-0.1000061-16.8005066,10.9003296-30.6009369,24.600769-30.7009277
			c13.7004395-0.1000061,24.9007568,13.500412,25.100769,30.4009247
			C432.9836121,266.8860168,421.9832764,280.6864624,408.2828674,280.786438z"/>
		<path class="st1" d="M534.1867065,289.9867249c7.9002686,1.2000732,15.1004639,2.6000977,21.600647,4.2001648
			c0.0999756-2.1000977,0.0999756-4.2001648,0.0999756-6.4002075c0-8.2002563-0.7000122-17.200531-2.000061-27.000824
			c-4.0001221-0.2000122-8.2002563-0.2999878-12.5003662-0.2999878
			C540.1868896,270.7861328,537.7868042,280.6864624,534.1867065,289.9867249z"/>
		<path class="st1" d="M555.1873779,302.1871338c-7.1002197-1.7000732-15.2005005-3.3001099-24.2007446-4.7001648
			c-3.6000977,7.8002319-8.0002441,15.0004578-13.1004028,21.6006775
			c10.2003174,2.7000732,21.100647,6.2001953,31.7009888,10.800293
			C552.4873047,321.1877136,554.3873291,311.8873901,555.1873779,302.1871338z"/>
		<path class="st1" d="M158.8752441,632.4971924c-0.2000122,1.500061-0.3000183,2.9001465-0.5000153,4.2001343
			c-0.8000336,7.2002563-2.3000793,14.4005127-4.2001343,20.4006958c13.7004242-4.1001587,36.8011322-7.1002197,71.6021881,0
			c13.800415,2.8000488,27.1008301,7.2001953,39.8012085,13.2003784c-2.000061-8.8002319-3.2001343-17.5005493-4.1001282-24.9007568
			L158.8752441,632.4971924z"/>
		<path class="st1" d="M197.6764221,123.181633L197.6764221,123.181633
			c5.4001617-4.9001465,11.300354-9.3002853,17.5005341-13.2004013c3.1001129-1.9000549,6.3002014-3.8001175,9.6003113-5.4001617
			c1.6000519-0.8000259,3.3000946-1.6000519,5.0001526-2.4000778c0.8000183-0.4000092,1.7000427-0.7000198,2.6000824-1.100029
			c0.4000092-0.2000046,0.9000244-0.4000168,1.3000336-0.5000153c0.1000214-0.2000046,0.1000214-0.3000107,0.1000214-0.5000153
			c0-0.4000168-0.1000214-1.0000305-0.5000153-1.8000565c-0.2000122-0.4000168-0.4000092-0.8000336-0.7000275-1.2000351
			l-1.0000305-1.6000519c-0.1999969-0.3000107-0.4000092-0.7000122-0.7000122-1.4000397
			c-0.1000061-0.4000168-0.3000183-0.900032-0.3000183-1.9000626c0-0.2000046,0.1000061-0.6000137,0.1000061-0.8000259
			c0.1000214-0.3000107,0.2000122-0.6000137,0.4000092-0.900032c0.2000122-0.3000107,0.4000092-0.6000137,0.6000214-0.8000259
			c0.1000214-0.0999985,0.2000122-0.2000046,0.3000183-0.3000107c0.1000061-0.0999985,0.1999969-0.2000046,0.3000183-0.2000046
			c0.8000183-0.6000137,1.4000244-0.7000198,1.8000488-0.8000259c0.4000092-0.0999985,0.7000275-0.0999985,1.0000305-0.0999985
			c0.5000153,0,1.0000305,0,1.4000397,0c2.7000885,0.1999969,5.3001709,0.8000259,7.8002472,1.5000458
			c0.6000214,0.1999969,1.1000366,0.3000107,1.7000427,0.5000153c-0.3000031-1.6000519-0.6000214-3.2000961-1.0000305-4.8001556
			c-0.8000183-3.5001068-1.9000549-7.0002136-3.0000916-10.5003204c-2.200058-7.0002136-4.9001465-13.900425-7.8002472-20.6006241
			c-1.5000458-3.3001022-3.0000916-6.7002068-4.8001404-9.8003006c-0.9000244-1.6000481-1.8000641-3.1000938-2.7000885-4.5001373
			c-0.9000092-1.4000435-2.000061-2.8000832-3.0000916-3.8001137c-0.1999969-0.2000084-0.5000153-0.4000168-0.7000122-0.6000175
			c-0.3000183-0.2000084-0.5000153-0.3000107-0.8000336-0.5000153c-0.5000153-0.3000107-1.0000305-0.400013-1.4000244-0.5000153
			c-0.9000244-0.1000023-1.8000641,0.1000023-3.0000916,0.8000221c-2.3000793,1.4000435-4.6001587,4.2001305-6.4001923,6.9002113
			l-0.1000061,0.2000084c-0.8000336,1.2000389-2.5000763,1.5000458-3.700119,0.7000237
			c-1.0000305-0.7000237-1.4000397-1.9000626-1.0000305-3.0000916c0.4000092-1.1000328,0.7000275-2.000061,1.2000427-2.9000931
			c0.5000153-0.9000282,1.0000305-1.8000526,1.6000519-2.7000809c1.2000275-1.8000565,2.6000824-3.5001087,4.6001434-4.9001503
			c1.0000305-0.7000217,2.200058-1.3000393,3.5001068-1.7000523s2.8000946-0.6000195,4.200119-0.400013
			c1.4000397,0.2000065,2.7000885,0.6000195,3.900116,1.2000389c0.6000214,0.3000069,1.1000366,0.6000175,1.6000519,1.0000305
			c0.6000366,0.4000111,1.1000519,0.8000221,1.5000458,1.200037c1.700058,1.6000481,2.9000854,3.3000984,4.1001434,4.9001503
			c1.1000366,1.7000542,2.1000671,3.3001022,3.1000977,5.0001526c1.9000549,3.4001045,3.6001129,6.800209,5.2001495,10.3003159
			c3.1001129,7.0002136,5.8001862,14.1004333,8.1002655,21.40065c1.2000275,3.6001053,2.200058,7.3002243,3.0000916,11.1003418
			c0.3999939,1.9000549,0.8000183,3.8001175,1.1000366,5.8001785c0.3000031,2.000061,0.5000153,4.0001221,0.3000031,6.4001923
			c-0.1000061,2.000061-1.8000488,3.5001068-3.8001099,3.4001083c-0.5000153,0-0.9000244-0.0999985-1.3000488-0.3000107h-0.1000061
			c-0.9000244-0.4000168-2.000061-0.900032-3.0000916-1.3000412c-1.0000305-0.4000168-2.1000671-0.8000336-3.2000885-1.1000366
			c-0.7000275-0.2000046-1.4000397-0.4000092-2.000061-0.5000153c0.5000153,1.2000351,0.9000092,2.6000824,0.8000183,4.2001266
			c0,2.000061-0.8000183,3.9001236-1.8000488,5.4001694c-0.5000153,0.7000122-1.1000519,1.100029-1.8000641,1.3000412
			c-0.7000122,0.2000046-1.5000458,0.5000153-2.3000793,0.9000244c-0.8000183,0.3000183-1.6000519,0.6000214-2.4000702,1.0000305
			c-1.6000519,0.7000198-3.1000977,1.4000473-4.6001434,2.2000656c-3.1000977,1.6000519-6.1001892,3.3001099-9.0002747,5.1001587
			c-5.2001495,3.2000961-10.1003113,6.9002075-14.7004395,10.9003296
			c14.9004517,4.8001404,28.5008698,13.800415,39.7012024,26.7008209
			c14.1004181,16.2005005,23.1006927,36.8011322,25.8007965,59.1018219
			c4.400116-2.3000793,10.5003357-4.8001556,17.5005493-6.1002045c12.300354-2.3000641,29.8008728-1.4000244,46.3013916,14.4004364
			c10.6003418-50.401535,52.3015747-88.3027039,102.1031189-88.6027069h0.7000427
			c28.1008606,0,54.6016846,11.800354,74.5022583,33.3010101c19.8006287,21.40065,30.9009705,49.8015289,31.1009216,80.1024475
			c0,2.3000641,0,4.5001373-0.0999756,6.8002014c3.7001343,0,7.2002563,0.1000214,10.7003784,0.2000122
			c-4.2001953-25.100769-12.4004517-54.9016724-24.600769-89.0027161c-1.8000488-5.0001526-2.000061-5.5001678-1.8000488-6.5001984
			c0.0999756-6.2001953,1.000061-95.2029114-18.5005493-126.4038696c-0.1000061-0.2000065-0.2999878-0.5000153-0.3999939-0.7000217
			s-2.3000488-5.600172-8.8002625-8.2002506c-6.400177-2.6000805-14.70047-1.8000546-24.7007751,2.4000721
			c-40.6012268,17.2005234-67.1020508,61.6018867-67.4020386,62.0018959
			c-0.9000244,1.6000519-2.8000793,2.4000778-4.5001526,2.000061
			c-64.9019775-14.5004425-108.7033386-5.900177-109.1033325-5.8001785
			c-2.1000671,0.4000168-4.2001343-0.8000259-4.8001404-2.9000931c-0.1000061-0.1999969-5.7001648-18.3005562-23.4006958-45.5013885
			c-5.8001709-9.0002747-21.3006592-29.400898-38.5011902-25.3007717
			c-26.8008118,6.4001951-39.6012115,72.9022369-44.1013489,114.2034836
			c5.0001526,0.1000061,9.9002991,0.7000198,14.8004608,1.8000565
			C196.776413,124.2816772,197.1764069,123.6816483,197.6764221,123.181633z M441.6838989,101.1809616l0.1000061-0.3000107
			c0.2999878-1.3000412,0.6000366-2.5000763,1.0000305-3.6001053c0.4000244-1.1000366,0.8000183-2.1000671,1.3000183-3.1000977
			c0.9000244-2.000061,1.9000549-3.900116,2.9000854-5.8001785c2.1000671-3.8001175,4.2001648-7.4002304,6.6002197-10.9003372
			c4.6001587-7.1002121,9.6003113-13.900425,14.9004517-20.4006233c2.7001038-3.3000984,5.5001526-6.5001984,8.5002441-9.5002899
			c1.500061-1.5000458,3.1001282-3.0000916,4.7001648-4.5001373c1.7000732-1.5000458,3.400116-2.9000893,5.6001892-4.1001244
			c0.6000061-0.3000069,1.2000427-0.6000175,1.8000488-0.9000282c0.2000122-0.1000023,0.2999878-0.1000023,0.6000061-0.2000084
			l0.2999878-0.0999985l0.2000427-0.1000023c0.3999939-0.1000023,0.7000122-0.2000084,1.0000305-0.2000084
			c1.3000183-0.3000069,2.8000488-0.400013,4.2001343-0.2000046c1.5000305,0.2000046,2.9000854,0.6000137,4.2001343,1.3000374
			c1.3000183,0.7000237,2.4000549,1.6000481,3.3000793,2.5000763c1.9000549,1.9000587,3.1000977,4.1001244,4.0001221,6.2001915
			c0.4000244,1.100029,0.8000183,2.2000656,1.1000366,3.3000984s0.5000305,2.2000694,0.6000366,3.4001045
			c0.2000122,1.5000458-0.9000244,2.800087-2.4000549,2.9000931c-1.2000732,0.0999985-2.3000793-0.6000175-2.8000793-1.7000542
			l-0.1000061-0.2000084c-1.3000488-3.4001045-3.1000977-7.0002136-5.3001709-9.0002747
			c-1.1000366-1.0000305-2.2000732-1.6000481-3.4000854-1.7000504c-0.6000366-0.1000023-1.3000183,0-2.000061,0.0999985
			c-0.2000122,0-0.3999939,0.1000023-0.5,0.1000023l-0.2000427,0.1000023l0,0l-0.2000122,0.1000023
			c-0.2999878,0.1000023-0.6000061,0.3000069-1.0000305,0.5000153c-1.4000244,0.8000221-2.9000854,2.000061-4.400116,3.3000984
			c-1.4000549,1.3000412-2.9000854,2.7000847-4.2001343,4.1001244c-2.8000793,2.9000893-5.400177,6.0001831-8.0002747,9.2002831
			c-5.1001587,6.3001938-10.0003052,13.0003967-14.5004272,19.8006058c-2.2000732,3.4001007-4.400116,6.9002075-6.400177,10.4003143
			c-0.2000427,0.4000168-0.4000244,0.8000336-0.7000427,1.2000351c1.5000305-0.7000198,3.0000916-1.3000412,4.6001282-1.8000565
			c1.8000488-0.6000137,3.6001282-1.0000305,5.8001709-1.100029c1.1000366,0,2.2000732,0,3.400116,0.3000107l0.2999878,0.0999985
			l0.5,0.1000061c0.3000183,0.0999985,0.6000366,0.1999969,0.9000244,0.3000107
			c0.7000427,0.3000107,1.500061,0.6000137,2.3000793,1.5000458c0.3999939,0.4000092,0.7999878,1.0000305,1.1000366,1.7000504
			c0.2999878,0.7000122,0.2999878,1.3000412,0.2999878,1.9000549c0,1.1000366-0.2999878,1.8000565-0.5,2.4000778
			c-0.4000244,1.2000351-0.9000244,1.9000549-1.2000732,2.7000809c-0.7000122,1.4000397-1.3000183,2.6000748-1.4000244,3.7001038
			c-0.1000061,0.5000153-0.1000061,1.0000305-0.1000061,1.5000458c3.6000977,1.4000473,7.0002136,2.9000931,10.5003052,4.5001373
			c4.0001221,1.9000626,8.0002441,3.8001251,11.9003601,6.0001907c3.900116,2.1000595,7.7002563,4.5001373,11.4003601,7.0002136
			c3.7001038,2.6000748,7.3002014,5.4001617,10.5003052,8.9002686c1.4000244,1.4000397,1.2999878,3.700119-0.2000122,5.1001587
			c-1.4000549,1.4000397-3.7001648,1.3000488-5.1001892-0.1999969l0,0l0,0
			c-2.7001038-2.9000854-5.900177-5.5001678-9.4002686-7.900238c-3.400116-2.4000702-7.1002502-4.6001358-10.8003235-6.6001968
			c-3.7001343-2.1000671-7.5002441-4.0001221-11.4003601-5.8001785c-3.900116-1.8000641-7.8002319-3.5001068-11.7003479-5.0001526
			c-1.0000305-0.4000168-1.7000732-1.1000366-2.1000977-2.0000687l0,0
			c-0.8999939-2.1000595-1.1000366-4.7001343-0.7000122-6.9002075c0.3999939-2.2000656,1.3000183-4.0001221,2.1000671-5.600174
			c0.1000061-0.1999969,0.2000122-0.4000092,0.2999878-0.6000137c-0.2000122,0-0.5,0-0.8000183,0
			c-1.2000427,0.0999985-2.500061,0.4000168-3.900116,0.8000259c-1.4000244,0.4000168-2.8000488,1.0000305-4.2001343,1.7000504
			c-2.8000793,1.3000412-5.6001587,2.9000931-8.1002502,4.6001358c-1.5000305,1.2000351-3.7001343,1.0000305-4.9001465-0.5000153
			C441.6838989,103.2810364,441.4838867,102.1809921,441.6838989,101.1809616z"/>
		<path class="st1" d="M350.2810974,596.7960815c-4.2001648-30.5009155-20.100647-49.4014893-41.6012878-49.4014893
			c-0.2000122,0-0.4000244,0-0.6000366,0c-12.8003845,0.2000122-22.8006897,4.5001221-29.8009033,12.6003418
			c-15.9004822,18.9005737-12.6003723,54.0016479-10.4002991,68.302063
			c0.3999939,2.4000854,0.7000427,5.5001831,1.1000366,9.1002808c2.8000793,24.100708,8.6002808,74.2022705,38.0011597,74.2022705
			l0,0c0.9000244,0,1.9000549,0,2.8000793-0.0999756c9.5002747-0.9000854,17.0005188-5.3001709,22.8006897-13.2004395
			l0.1000061-0.0999756c3.2001038-4.4001465,5.8001709-9.9003296,8.0002441-16.5004883
			c2.4000549-7.4002686,4.5001221-15.7005005,6.2001953-24.0007324
			C350.0810852,641.9974976,353.281189,618.8967896,350.2810974,596.7960815z"/>
		<path class="st1" d="M535.8867798,497.8930969c-15.4005127-69.1021423-34.8010254-98.2030029-35.0010681-98.5030212
			c-1.3000183-1.8000488-0.7999878-4.3001099,0.9000244-5.7001953
			c21.7006531-16.5004883,36.6011047-34.901062,45.2013855-56.4017029
			c-11.6003418-5.0001526-23.600708-8.7002869-34.7011108-11.4003601
			c-19.0005493,21.2006836-45.6013794,34.5010681-75.0022583,34.7010803h-0.7000427
			c-28.1008606,0-54.6016846-11.800354-74.6022949-33.3009949c-19.8005981-21.4006653-30.9009399-49.8015137-31.1009521-80.1024628
			c0-4.6001434,0.2000122-9.2002716,0.7000427-13.6004181l-0.1000061,0.1000061
			c-12.0003662-14.4004364-26.2008362-20.1006165-42.3013-17.1005249
			c-8.400238,1.6000519-15.1004639,5.1001587-18.6005554,7.3002167c0,0.9000244,0,1.8000641,0,2.7000885
			c0.3999939,57.4017334-40.1012421,104.4031677-90.2027588,104.703186h-0.5000153
			c-12.8003998,0-25.2007751-3.0000916-36.60112-8.7002869c5.8001862,14.1004333,14.2004395,28.1008606,24.9007568,41.0012512
			l203.0061951,22.7007141c0.1000366,0,0.1000366,0,0.2000427,0c9.1002808,1.4000244,16.1004944,9.6002808,15.8004456,18.8005676
			l4.5001526,89.8027344c4.6001587-14.9004517,10.8003235-31.5009766,18.8005676-47.0014343
			c1.0000305-1.9000549,3.4000854-2.7001038,5.3001404-1.7000732s2.7001038,3.4000854,1.7000732,5.3001404
			c-12.3003845,23.5007324-20.1006165,49.9015198-24.5007629,68.4021301l3.3001099,65.6019897
			c5.2001648-1.2000732,7.8002014-7.3002319,8.3002319-9.9003296c0.2999878-2.000061,2.2000732-3.4001465,4.2001343-3.2001343
			s3.6001282,1.9000854,3.6001282,3.9001465c0,2.1000366,0.8000183,8.2002563,4.1001282,11.1003418
			c1.8000488,1.5,4.2001343,2.000061,7.4002075,1.5c3.0000916-0.5,5.7001953-3.000061,7.1002197-6.6001587
			c1.6000671-4.2001343,0.9000244-8.5002441-1.7000427-11.6003418c-1.4000549-1.6000366-1.2000732-4.1000977,0.3999939-5.5001831
			c0.2999878-0.2999878,29.5009155-25.8007202,51.9015808-65.0019531c1.1000366-1.9000549,3.5001221-2.5000916,5.3001404-1.500061
			c1.9000549,1.1000366,2.5000916,3.5001221,1.500061,5.3001709c-19.4006042,34.0010376-43.2013245,57.50177-51.0015564,64.8019409
			c0.9000244,1.7000732,1.5000305,3.5001221,1.9000549,5.5001831l38.5011597,5.5001831
			c1.6000671,0.2000122,3.0000916,1.4000854,3.400116,3.000061c0.3999939,1.6000366-0.1000061,3.3001099-1.4000549,4.4002075
			l-86.1026306,70.5021362c-0.5000305,0.4000244-1.1000366,0.7000122-1.8000488,0.7999878
			c-2.4000549,1.4000854-5.0001526,2.1000366-7.900238,2.1000366c-0.9000244,0-1.8000488-0.0999756-2.7000732-0.2000122
			l-25.8007812-3.2000732c-0.1000061,0.7000122-0.3000183,1.4000244-0.4000244,2.1000366
			c-1.8000183,8.7002563-4.0001221,17.3004761-6.5001831,24.9007568c-1.0000305,3.0001221-2.000061,5.7001953-3.2001038,8.3002319
			c18.2005615-6.1001587,33.0010071-7.3001709,48.5014648-8.5002441
			c15.7005005-1.2000732,33.5010376-2.6000366,57.7017822-9.4003296
			C531.9866333,652.1978149,549.1871948,557.7949219,535.8867798,497.8930969z M330.3804932,301.1871033
			c-3.6001282,6.7001953-10.8003235,10.9003296-18.700592,10.9003296c-0.2999878,0-0.6000366,0-1.0000305,0
			c-7.1002197-0.3000183-13.6004333-4.0001221-17.4005432-9.4002991c-3.1000977,3.8001099-8.3002319,7.5002441-15.0004578,7.5002441
			c-0.2999878,0-0.5,0-0.7999878,0c-11.4003601-0.5000305-18.0005493-7.8002319-18.0005493-20.100647
			c0-1.9000244,1.5000305-3.4000854,3.5000916-3.4000854l0,0c1.9000549,0,3.4000854,1.6000671,3.4000854,3.5001221
			c0,8.5002441,3.7001343,12.800354,11.4003601,13.2004089c6.8002014,0.2999878,10.9003296-5.5001831,11.7003784-7.5002441
			c0.1000061-0.2999878,0.2999878-0.6000061,0.6000061-0.9000244c0-0.2999878,0-0.5,0.1000061-0.7999878
			c0.3000183-8.4002686,0.6000366-13.300415,0.7000427-15.8004761c-4.400116-3.6001282-9.9002991-11.800354-11.3003235-15.0004578
			c-0.5000305-1.1000366-2.000061-4.6001587,0-7.2002258c1.2000427-1.4000549,3.4000854-2.7000885,11.6003418-2.7000885
			c3.1000977,0,18.700592,0.1999969,21.5006714,4.8001556c1.0000305,1.7000427,0.9000244,3.7001038-0.5000305,6.1001892
			c-1.9000549,3.4000854-9.3002625,11.5003357-14.5004272,14.5004272c-0.1000061,2.5000916-0.4000244,7.400238-0.7000427,15.8004761
			c1.3000183,5.7001953,7.3002014,10.300293,13.9004211,10.6003418c5.6001892,0.2000122,10.9003296-2.6000977,13.3003845-7.2002563
			c0,0,0-0.1000061,0.1000061-0.1000061c0,0,1.2000732-2.2000732,1.4000549-5.6001587
			c0.1000061-1.9000549,1.8000488-3.400116,3.7001343-3.2001038c1.9000244,0.1000061,3.3000793,1.8000183,3.2001038,3.7001038
			C332.2805176,297.3869629,330.6805115,300.5870667,330.3804932,301.1871033z"/>
		<path class="st1" d="M671.190918,537.4943237c-20.9006958-28.3008728-52.5015869-29.0009155-73.0022583-15.1004639
			c-14.0004272,9.6002808-24.4007568,33.8010254-21.0006104,49.0015259
			c1.7000732,7.5001831,6.5001831,11.9003906,14.4004517,13.1003418c7.1002197,1.1000366,13.7004395-2.000061,18.0005493-8.6002197
			s9.6002808-14.8004761,17.2005615-15.3004761c4.3001099-0.2999878,8.6002197,2.000061,12.6003418,6.7002563
			c6.7001953,7.8001709,8.8002319,22.100647,5.2001953,34.8010254
			c-4.3001709,15.4005127-16.3005371,27.0007935-33.7010498,32.6009521
			c-23.2007446,7.5002441-49.9015503-0.2000122-77.7023926-22.3006592
			c-6.0001831,13.300415-14.8004761,27.9008789-27.7008667,40.7012939
			c15.4005127,10.1002808,31.901001,17.3004761,49.3015137,21.5006104
			c67.5020142,16.1004639,101.6030884-15.1004028,113.1033936-29.3008423
			C689.1914673,618.9967651,696.1916504,571.4953613,671.190918,537.4943237z"/>
	</g>
	<g id="gray_00000097471293583647217740000001068789438194490768_">
		<path class="st2" d="M378.881958,405.2902527c0-0.1000061,0-0.2000122,0-0.4000244
			c0.2000122-4.900116-3.8001099-9.6002808-8.6002502-10.4002991l-204.5062714-22.9006958c0,0,0,0-0.1000061,0
			L41.4716568,357.7887878c0,0-0.1000023,0-0.2000046,0c-2.3000717-0.2999878-4.4001389,0.2000122-5.9001846,1.500061
			c-1.4000435,1.2000427-2.3000679,3.0000916-2.400074,5.0001526L45.0717659,600.196167c0,0.0999756,0,0.2000122,0,0.4000244
			c-0.2000084,4.8001709,3.8001137,9.5003052,8.7002678,10.300293l22.7006912,2.8001099
			c-2.3000717-15.6004639-3.0000916-30.2009277-3.4001007-38.9012451
			c-1.0000305-20.3005981,4.1001205-37.5010986,14.3004379-48.2014771
			c7.2002182-7.6002197,16.4005051-11.6003418,26.6008072-11.6003418h0.3000183
			c24.6007614,0,40.5012283,13.800415,46.0013962,40.0012207c0.4000092,1.8000488,0.7000275,3.8001099,1.0000305,6.0001831
			c0.2000122,1.4000854,0.3000183,2.9001465,0.4000092,4.5001831c0.2000122,2.3000488,0.3000183,4.8001099,0.4000092,7.4002075
			c0.5000153,15.9005127-0.8000336,35.5010986-2.3000793,51.3015747l100.8030853,12.7003784
			c-0.3000183-2.8000488-0.6000366-5.3001099-0.9000244-7.2001953c-2.9000854-19.1005859-5.2001648-54.3016357,12.300354-75.0023193
			c8.6002808-10.1002808,20.7006531-15.4004517,36.0010986-15.6004639c0.2999878,0,0.5000305,0,0.8000183,0
			c25.6007996,0,45.1013794,22.2007446,49.9015198,56.7017822c2.6000977,18.7005615,0.9000244,38.0011597-1.500061,53.2015991
			l25.4007874,3.2001343c0.1000061,0,0.1000061,0,0.2000122,0c2.2000732,0.4000244,4.3001099-0.0999756,5.8001709-1.4000854
			c1.5000305-1.2000122,2.4000549-3.000061,2.500061-5.2001343L378.881958,405.2902527z M251.2780762,514.6936035
			c0,1.4000854-0.9000244,2.6000977-2.2000732,3.2001343c-0.3999939,0.2000122-0.8000183,0.2000122-1.3000336,0.2000122
			c-0.9000244,0-1.8000641-0.4000244-2.5000763-1.000061l-12.1003876-12.2003479
			c-5.4001465,5.5001526-17.4005127,15.6004333-33.6010132,15.6004333c-2.4000702,0-4.8001404-0.2000122-7.1002197-0.5999756
			c-25.8007965-4.6000977-34.8010712-27.3008423-35.2010803-28.3008728
			c-0.6000214-1.4000244-0.1000061-3.1000977,1.1000519-4.0001221c0.8000183-0.6000061,19.700592-14.8004456,40.2012177-13.1004028
			c16.2005005,1.3000183,29.9009094,14.1004333,35.2010803,19.8005981l12.6003876-9.1002808
			c1.1000366-0.8000183,2.5000763-0.9000244,3.7001038-0.2000122c1.2000427,0.6000061,1.9000549,1.8000183,1.9000549,3.2001038
			L251.2780762,514.6936035z"/>
		<polygon class="st2" points="244.7778778,494.9930115 244.4778595,506.3933411 237.9776611,499.893158 		"/>
		<path class="st2" d="M197.9764404,481.4925842c-13.9004211-1.1000366-27.5008392,6.5002136-33.0010071,10.1003113
			c3.0000916,5.7001953,11.4003448,18.3005676,28.7008667,21.4006348
			c17.1005402,3.1000977,30.1009369-8.3002319,35.2010803-13.7004089
			C223.9772339,493.992981,211.7768707,482.5926208,197.9764404,481.4925842z M182.1759491,500.6931763
			c-2.6000824,0-4.5001373-2.500061-4.5001373-5.7001648c0-3.3001099,1.9000549-5.7001953,4.5001373-5.7001953
			c2.6000977,0,4.5001373,2.500061,4.5001373,5.7001953C186.6760864,498.1931152,184.7760468,500.6931763,182.1759491,500.6931763z"
			/>
		<polygon class="st2" points="397.1825256,604.0963135 416.7831116,606.6964111 398.08255,622.5968628 		"/>
		<path class="st2" d="M438.283783,584.9957275c0.2999878-0.7999878,0.5-1.5999756,0.7000122-2.4000854l28.1008606,4.0001221
			l-68.0020752,55.7017212l-0.6000061-12.0003662l27.500824-23.5007324c0.9000244-0.7999878,1.3000488-2.000061,0.9000244-3.2000732
			c-0.2999878-1.2000732-1.3000183-2.000061-2.500061-2.2000732l-27.5008545-3.7001343l-0.2000122-4.4001465
			c4.3001099-0.6000366,7.8002319-2.9001465,10.4002991-5.8001709c1.0000305,2.1000366,2.4000854,4.1000977,4.3001404,5.7001953
			c2.000061,1.7000122,5.4001465,3.6000366,10.300293,3.6000366c1.1000366,0,2.2000732-0.0999756,3.4000854-0.2999878
			C430.8835449,595.696106,435.8836975,591.2959595,438.283783,584.9957275z"/>
	</g>
	<g id="pink_00000047059923880665503530000008313907064298429613_">
		<g>
			<path class="st3" d="M298.9795227,564.5950928c4.4001465,0,8.3002319,3.9001465,8.2002563,10.7003784
				c-0.1000061,6.7001953-2.8000488,10.5003052-8.0002441,10.6002808
				c-5.5001526,0.0999756-8.2002563-3.9001465-8.1002502-10.7003784
				C291.1792908,568.4952393,294.5794067,564.5950928,298.9795227,564.5950928z"/>
			<path class="st3" d="M269.8786316,589.1959229c-0.8000183-6.7002563,2.1000671-11.0003662,6.6002197-11.6003418
				c4.400116-0.6000366,8.7002563,2.7000732,9.4002686,9.4002686c0.7000427,6.7002563-1.5000305,10.800354-6.6002197,11.6003418
				C273.8787537,599.3962402,270.6786804,595.8961182,269.8786316,589.1959229z"/>
			<path class="st3" d="M319.5801697,621.296875c-2.7001038,5.7001343-8.8002625,6.2001953-12.6004028,4.9001465
				c-4.2001343-1.6000366-5.5001526-1.8000488-7.1002197-1.8000488c-1.7000732,0-2.9000854,0.4000244-7.1002197,2.1000366
				c-3.8001099,1.500061-9.9002991,1.3000488-12.6004028-4.3001099
				c-3.1000977-6.2001953,5.2001953-26.5007935,19.5006104-26.3007812
				C313.9799805,596.0960693,322.5802612,615.0966187,319.5801697,621.296875z"/>
			<path class="st3" d="M321.3802185,596.196106c-5.5001831,0.0999756-8.2002869-3.9001465-8.1002808-10.6002808
				c0.1000366-6.8002319,3.400116-10.6003418,7.900238-10.6003418c4.5001526,0,8.3002625,3.9001465,8.1002502,10.7003784
				C329.3804626,592.3959961,326.5803833,596.196106,321.3802185,596.196106z"/>
		</g>
		<g>
			<path class="st3" d="M106.7736588,540.3944092c4.1001205-0.0999756,7.3002243,3.3001099,7.7002335,9.4003296
				c0.4000092,6.1001587-1.9000626,9.800293-6.9002151,9.9003296c-4.7001419,0.0999756-7.4002304-3.3001099-7.7002335-9.300293
				C99.3734283,544.194519,102.6735229,540.5943604,106.7736588,540.3944092z"/>
			<path class="st3" d="M126.2742538,591.8959961c-2.3000717,5.1000977-7.8002396,5.5001831-11.3003464,4.2001343
				c-3.9001236-1.4000854-5.0001602-1.7000732-6.6002045-1.7000732c-1.5000458,0-2.6000748,0.2999878-6.4001999,1.9000854
				c-3.4001007,1.3000488-8.9002686,1.1000366-11.7003479-4.0001221
				c-2.9000931-5.5001831,4.1001205-22.9006958,17.1005173-23.600708
				C120.4740753,568.0952148,128.8743286,586.1958008,126.2742538,591.8959961z"/>
			<path class="st3" d="M134.2744904,561.6950684c-0.3999939,6.1001587-3.2000885,9.4002686-8.2002411,8.8002319
				c-4.7001419-0.5999756-6.9002151-4.2001343-6.5001984-10.300293c0.4000168-6.0001831,4.2001266-9.2003174,8.2002487-8.8002319
				C131.8744202,551.7947388,134.6744995,555.5948486,134.2744904,561.6950684z"/>
			<path class="st3" d="M86.9730453,550.6947021c-1.3000412,0.0999756-2.5000763,0.5-3.5001068,1.2000732l-0.1999969,0.4000244
				c-0.5000153,1.9000854-2.000061,8.3002319-1.9000626,13.800415c0,0.0999756,0,0.0999756,0,0.2000122l0,0
				c1.3000412,2.4000854,3.4001083,3.7001343,6.3001938,3.6000977c5.0001526-0.0999756,7.3002243-3.7001343,6.9002151-9.800293
				C94.2732773,553.994812,90.9731674,550.5946655,86.9730453,550.6947021z"/>
		</g>
		<path class="st3" d="M305.8797302,261.6858826c-2.8000793-0.7000427-8.5002441-1.5000305-14.5004272-1.5000305
			c-2.7001038,0-4.3001404,0.2000122-5.400177,0.2999878c1.500061,3.3000793,6.4002075,9.7003174,8.9002686,12.0003662
			C297.77948,270.5861511,303.6796875,264.8859558,305.8797302,261.6858826z"/>
		<path class="st3" d="M196.6763916,124.881691c0.2000122-0.6000137,0.5000153-1.2000351,1.0000305-1.7000504l0,0
			c5.4001617-4.9001465,11.300354-9.3002853,17.5005341-13.2004013c3.1001129-1.9000549,6.3002014-3.8001175,9.6003113-5.4001617
			c1.6000519-0.8000259,3.3000946-1.6000519,5.0001526-2.4000778c0.8000183-0.4000092,1.7000427-0.7000198,2.6000824-1.100029
			c0.4000092-0.2000046,0.9000244-0.4000168,1.3000336-0.5000153c0.1000214-0.2000046,0.1000214-0.3000107,0.1000214-0.5000153
			c0-0.4000168-0.1000214-1.0000305-0.5000153-1.8000565c-0.2000122-0.4000168-0.4000092-0.8000336-0.7000275-1.2000351
			l-1.0000305-1.6000519c-0.1999969-0.3000107-0.4000092-0.7000122-0.7000122-1.4000397
			c-0.1000061-0.4000168-0.3000183-0.900032-0.3000183-1.9000626c0-0.2000046,0.1000061-0.6000137,0.1000061-0.8000259
			c0.1000214-0.3000107,0.2000122-0.6000137,0.4000092-0.900032c0.2000122-0.3000107,0.4000092-0.6000137,0.6000214-0.8000259
			c0.1000214-0.0999985,0.2000122-0.2000046,0.3000183-0.3000107c0.1000061-0.0999985,0.1999969-0.2000046,0.3000183-0.2000046
			c0.8000183-0.6000137,1.4000244-0.7000198,1.8000488-0.8000259c0.4000092-0.0999985,0.7000275-0.0999985,1.0000305-0.0999985
			c0.5000153,0,1.0000305,0,1.4000397,0c2.7000885,0.1999969,5.3001709,0.8000259,7.8002472,1.5000458
			c0.6000214,0.1999969,1.1000366,0.3000107,1.7000427,0.5000153c-0.3000031-1.6000519-0.6000214-3.2000961-1.0000305-4.8001556
			c-0.8000183-3.5001068-1.9000549-7.0002136-3.0000916-10.5003204c-2.200058-7.0002136-4.9001465-13.900425-7.8002472-20.6006241
			c-1.5000458-3.3001022-3.0000916-6.7002068-4.8001404-9.8003006c-0.9000244-1.6000481-1.8000641-3.1000938-2.7000885-4.5001373
			c-0.9000092-1.4000435-2.000061-2.8000832-3.0000916-3.8001137c-0.1999969-0.2000084-0.5000153-0.4000168-0.7000122-0.6000175
			c-0.3000183-0.2000084-0.5000153-0.3000107-0.8000336-0.5000153c-0.5000153-0.3000107-1.0000305-0.400013-1.4000244-0.5000153
			c-0.9000244-0.1000023-1.8000641,0.1000023-3.0000916,0.8000221c-2.3000793,1.4000435-4.6001587,4.2001305-6.4001923,6.9002113
			l-0.1000061,0.2000084c-0.8000336,1.2000389-2.5000763,1.5000458-3.700119,0.7000237
			c-0.7000122-0.5000153-1.1000366-1.2000389-1.1000366-2.000061
			c-14.500473,41.8012772-14.6004791,82.7025299-14.6004791,82.7025299
			C193.4763031,124.2816772,195.076355,124.5816803,196.6763916,124.881691z"/>
		<path class="st3" d="M506.2858582,56.9796143c-1.2000427,0.1000023-2.3000793-0.6000137-2.8000793-1.7000504l-0.1000061-0.2000084
			c-1.3000183-3.4001045-3.1000977-7.0002136-5.3001404-9.0002747c-1.1000671-1.0000305-2.2001038-1.6000481-3.400116-1.7000542
			c-0.6000061-0.0999985-1.3000183,0-2.000061,0.1000023c-0.2000122,0-0.3999939,0.1000023-0.5,0.1000023l-0.2000427,0.1000023l0,0
			l-0.2000122,0.1000023c-0.2999878,0.0999985-0.6000061,0.3000069-1.0000305,0.5000153
			c-1.4000244,0.8000221-2.9000854,2.000061-4.400116,3.3000984c-1.4000549,1.3000374-2.9000854,2.7000847-4.2001343,4.1001244
			c-2.8000793,2.9000893-5.400177,6.0001831-8.0002441,9.2002831c-5.1001892,6.30019-10.0003052,13.0004005-14.5004578,19.800602
			c-2.2000732,3.4001083-4.400116,6.9002151-6.400177,10.400322c-0.2000427,0.4000092-0.4000244,0.8000259-0.7000427,1.2000351
			c1.5000305-0.7000198,3.0000916-1.3000488,4.6001587-1.8000641c1.8000183-0.6000137,3.6000977-1.0000305,5.8001404-1.100029
			c1.1000366,0,2.2001038,0,3.400116,0.3000107l0.2999878,0.1000061l0.5000305,0.0999985
			c0.2999878,0.0999985,0.6000061,0.2000046,0.8999939,0.3000107c0.7000427,0.3000107,1.500061,0.6000214,2.3000793,1.5000458
			c0.3999939,0.4000168,0.8000183,1.0000305,1.1000366,1.7000504c0.2999878,0.7000198,0.2999878,1.3000412,0.2999878,1.9000626
			c0,1.100029-0.2999878,1.8000565-0.5,2.4000702c-0.4000244,1.2000351-0.9000244,1.9000626-1.2000732,2.7000809
			c-0.7000122,1.4000473-1.3000183,2.6000748-1.4000244,3.7001114c-0.1000061,0.5000153-0.1000061,1.0000305-0.1000061,1.5000458
			c3.6001282,1.4000397,7.0002136,2.9000854,10.5003052,4.5001373c4.0001526,1.9000626,8.0002747,3.8001175,11.9003601,6.0001831
			c3.900116,2.1000595,7.7002563,4.5001373,11.4003601,7.0002136c3.7001343,2.6000748,7.3002014,5.4001617,10.5003357,8.9002686
			c0.2999878,0.4000092,0.5999756,0.8000336,0.7999878,1.2000427c0.7999878-63.401947-5.3001404-80.1024475-5.3001404-80.1024475
			C508.7859192,55.4795685,507.6859131,56.7796097,506.2858582,56.9796143z"/>
	</g>
</g>
</svg>
