<svg version="1.2" xmlns="http://www.w3.org/2000/svg" viewBox="0 0 3600 3600" width="3600" height="3600">
	<title>darkgrey2-svg</title>
	<style>
		.s0 { fill: #250c00 } 
		.s1 { fill: none;stroke: #c39c8c;stroke-width: 3.3 } 
		.s2 { fill: none;stroke: #58413d;stroke-width: 3.3 } 
		.s3 { fill: none;stroke: #c3bfbc;stroke-width: 3.3 } 
		.s4 { fill: none;stroke: #945e50;stroke-width: 3.3 } 
		.s5 { fill: none;stroke: #948180;stroke-width: 3.3 } 
		.s6 { fill: none;stroke: #ffdccf;stroke-width: 3.3 } 
		.s7 { fill: none;stroke: #fcecdf;stroke-width: 3.3 } 
		.s8 { fill: none;stroke: #c7b4a2;stroke-width: 3.3 } 
		.s9 { fill: none;stroke: #bfa594;stroke-width: 3.3 } 
		.s10 { fill: none;stroke: #8d7f78;stroke-width: 3.3 } 
		.s11 { fill: none;stroke: #75635d;stroke-width: 3.3 } 
		.s12 { fill: none;stroke: #cac7c3;stroke-width: 3.3 } 
		.s13 { fill: none;stroke: #f99d84;stroke-width: 3.3 } 
		.s14 { fill: none;stroke: #7d726b;stroke-width: 3.3 } 
		.s15 { fill: #ffffff } 
		.s16 { fill: #867f78 } 
		.s17 { fill: #ffb99f } 
		.s18 { fill: #64554f } 
		.s19 { fill: #f8d9be } 
		.s20 { fill: #958e86 } 
		.s21 { fill: #f38168 } 
		.s22 { fill: #85706a } 
	</style>
	<g id="Layer">
		<path id="Layer" class="s0" d="m2615.3 3127.7l-6-1.6-6.3-0.8-6.4-0.2-6.8 0.4-7 1.1-7.4 1.6-7.5 2.4-7.8 3-2.7 1.4-2.2 1.8-1.7 1.8-1.3 2.1-4.8 8.2-4.9 8.1-5.1 7.9-5.4 7.6-5.5 7.5-5.8 7.3-5.9 7.2-6.3 7-6.3 6.8-6.7 6.6-6.8 6.6-7 6.2-7.2 6.2-7.4 5.9-7.5 5.6-7.7 5.6-8 5.2-8.1 5.1-8.4 4.9-8.4 4.8-8.6 4.5-8.8 4.2-9 4.1-9.1 3.8-9.3 3.7-9.4 3.4-9.7 3.3-9.7 3-9.8 2.6-10 2.6-10.1 2.3-10.3 2.1-10.3 1.8-10.4 1.7-10.6 1.3-10.6 1.3-10.7 0.8-10.8 0.7-10.8 0.5-10.9 0.2-3.1-0.2-3.2-0.6-3.4-1.3-3.3-2-2.6-1.5-2.6-0.6h-1.7l-1.8 0.4-1.8 0.7-1.9 1-3.4 1.7-3.6 1.2-3.1 0.3-3.4-0.1-79.2-9.8-2.1-0.1h-2l-1.9 0.3-1.9 0.5-1.9 0.7-1.8 1-1.6 1.4-1.6 1.4-7.5 7.4-7.4 7.2-7.7 6.8-7.7 6.7-7.8 6.3-7.9 6.1-8 5.9-8.1 5.6-8.2 5.3-8.3 5-8.4 4.9-8.5 4.6-8.6 4.3-8.6 4.1-8.8 3.7-8.9 3.6-13.1 4.7-13.2 4.1-13.4 3.6-13.5 3-14 2.5-14 1.9-14.1 1.5-14.5 0.8-14.6 0.5-14.9-0.2-15-0.7-15.2-1.2-15.5-1.8-15.6-2.3-15.9-2.9-16-3.4-9.6-2.4-9.2-2.9-9.3-3.5-8.9-4-8.9-4.5-8.6-4.9-8.3-5.5-8-6-7.8-6.3-7.5-6.8-7.1-7.3-6.8-7.5-6.3-7.9-5.9-8.4-5.5-8.6-5-8.7-1-1.6-0.9-1.1-1-0.7-1-0.3-1 0.2-1 0.7-1 1-1 1.5-4.5 7.4-4.8 7-5 6.7-5.3 6.4-5.6 6.3-5.8 5.9-6.3 5.9-6.4 5.4-6.8 5.3-7 5.2-7.4 4.9-7.5 4.5-7.9 4.5-8.2 4.1-8.4 3.9-8.7 3.7-8.9 3.4-9.1 3.1-9.6 3-9.7 2.7-9.8 2.3-10.2 2.3-10.4 1.8-10.5 1.6-10.7 1.4-10.9 1.1-11 0.7-11.3 0.6-11.2 0.2-11.4-0.1-11.3-0.2-11.6-0.7-11.5-0.9-11.3-1.1-18.5-2.5-18-3.4-8.8-1.9-8.8-2.2-8.6-2.3-8.4-2.6-8.4-2.8-8.2-3-8.1-3.2-8.2-3.3-7.9-3.6-7.7-3.9-7.6-3.9-7.6-4.2-10.3-6.3-10.2-6.5-9.9-7-9.6-7.4-9.4-7.8-9.2-8.1-9-8.6-8.7-8.9-3.3-3-3.5-2.5-3.9-2-4-1.6-4.4-1.1-4.3-0.5-4.4 0.2-4.3 0.6-14.7 3-14.6 2.7-14.4 2.1-14.5 1.8-14.5 1.4-14.4 0.9-14.4 0.6-14.2 0.1-16.2-0.2-15.6-0.6-15-0.8-14.5-1.1-14-1.3-13.7-1.7-13.2-2-13-2.2-12.7-2.6-12.4-2.9-12.2-3.2-11.9-3.5-11.8-3.9-11.5-4.2-11.3-4.5-11.3-4.9-13-6.2-12.7-6.7-12.7-7.3-12.4-7.8-13.2-8.9-12.4-9.4-11.8-9.8-11.2-10.4-10.4-10.6-9.7-11.3-9.1-11.6-8.4-12-6.8-10.9-6.2-11.1-5.7-11.6-5.2-11.8-3.5-10.2-3.1-10-2.8-10.1-2.3-10-2.1-9.8-1.7-9.8-1.3-9.8-1-9.5-0.6-9.6-0.3-9.5 0.1-9.3 0.5-9.4 0.7-9.1 1.1-9.2 1.6-9 1.9-9 1.9-7.6 2.1-7.6 2.3-7.4 2.7-7.5 2.9-7.5 3.2-7.2 3.5-7.3 3.7-7.2 4-7.2 4.1-7 4.5-7 4.7-7 5-6.9 5.3-6.9 5.5-6.8 5.8-6.7 4.2-4.3 5.2-4.4 5.7-4.3 6.6-4.2 7.4-4.4 8.1-4.2 8.8-4.1 9.7-4.3 2.3-1.3 2.1-1.7 1.7-2 1.3-2.3 5.5-12.5 4.6-12.2 3.9-12.1 3.2-12.1 12.1-49.9 12.6-48.9 13-47.6 13.4-46.5 13.8-45.5 14.3-44.1 14.7-43.1 15-41.9 0.2-0.5 0.5-2.3v-2.4l-0.5-2.3-0.9-2.2-1.3-1.9-1.8-1.7-2-1.2-2.2-0.9-18.7-5-18.4-5.4-18.2-5.5-18.2-6-17.8-6.3-17.7-6.5-17.4-6.9-17.3-7.3-17-7.4-16.9-7.8-16.7-8.2-16.5-8.4-16.2-8.8-16.1-9.1-15.9-9.4-15.7-9.7-18.5-12-18.2-12.3-17.9-12.9-17.6-13.4-27.8-22-28.6-23.8-29.3-25.4-30.2-27.2-10.4-10-6-6.2-6-6.5-5.7-6.5-5.7-6.8-5.5-7-5.4-7.3-10.7-15.5-10.2-16.1-10.5-18-11-20.3-14.8-28.5-6.6-12.7-1.1-1.8-1.3-1.6-1.4-1.2-1.6-0.9-1.7-0.7-1.9-0.2h-2l-2.2 0.4-13.7 3.7-13.1 4.1-12.7 4.6-12 5.1-11.7 5.5-11.1 6-10.5 6.4-10 6.9-2.8 1.9-2.8 1.7-2.7 1.2-2.6 1-2.6 0.7-2.6 0.4h-2.4l-2.5-0.2-2.3-0.6-2.3-0.8-2.3-1.2-2.2-1.4-2.2-1.8-2.1-2.1-2-2.3-2-2.7-1-1.7-0.8-1.8-1.6-5.5-0.6-5.4 0.1-5.1 0.9-4.8 1-2.9 1.3-2.7 1.7-2.7 1.9-2.7 2.2-2.4 2.5-2.5 2.9-2.3 3.3-2.2 22.1-14.5 21.9-13.9 21.5-13.4 21.2-12.8 3.6-2.5 3-2.8 2.3-3 1.4-3.3 0.9-3.5v-3.8l-0.6-4.1-1.4-4.4-6.5-17.4-2.9-8.7-2.5-8.6-2.3-8.6-2.2-8.3-1.7-8.5-1.6-8.2-1.3-8.2-1.1-8.3-0.8-8-0.6-8.1-0.3-7.9v-7.9l0.2-7.8 0.4-7.8v-3.3l-0.4-2.9-0.9-2.2-1.4-1.8-1.8-1.2-2.4-0.7-2.8-0.1-3.3 0.3-123.4 22-5.1 0.6-4.7-0.2-4.3-0.9-3.8-1.7-3.4-2.4-2.8-3.3-2.6-4-2-4.6-0.6-2-0.3-2.3v-2.2l0.3-2.4 0.6-2.7 0.8-2.8 2.4-5.9 2.1-3.3 2.7-2.9 3.1-2.5 3.6-1.6 16.5-5.6 14.6-4.5 15-4.1 15-3.7 15-3.2 15.4-2.8 15.3-2.4 15.5-2 15.7-1.6 2.1-0.3 1.9-0.8 1.8-1.1 1.5-1.4 1.3-1.8 0.8-1.9 0.6-2 0.1-2.1-0.3-16.8-0.1-16.6 0.3-16.6 0.6-16.3 0.8-16.2 1.3-15.9 1.5-15.8 1.8-15.6 2.1-15.4 2.5-15.2 2.8-15 3.1-14.8 3.3-14.6 3.7-14.4 4-14.3 4.3-13.9 3.1-10.3 3.3-11.3 7.9-30 6.9-26.3 5.4-19.3 5.6-17.2 5.9-15.9 16-39 16.6-38.2 17-37.3 17.6-36.4 1.1-3.1 0.5-3-0.5-3.2-1.2-3.1-14.6-28.2-13-26.5-11.5-25.2-10.2-24.3-9-23.7-4.1-11.6-3.8-11.4-3.5-11.4-3.2-11.1-2.9-11.2-2.7-10.9-5.3-24.2-4.7-24.2-4.2-24.1-3.7-24.1-3-23.9-2.5-23.9-2-23.8-1.5-23.7-0.9-23.7-0.3-23.6 0.2-23.5 0.8-23.4 1.2-23.4 1.9-23.2 2.5-23.2 2.8-23.1 3.6-22.7 4-22.7 4.5-22.7 5.1-22.5 3.2-11.6 5.6-17 7.7-22.7 10-28.2 5.2-13.4 5.9-12.8 6.3-12.1 7.1-11.4 7.5-10.7 8.1-10 8.7-9.3 4.7-4.4 4.7-4.2 4.9-4.2 5.1-3.9 5.2-3.7 5.4-3.6 5.5-3.5 5.7-3.2 5.9-3.1 6-2.9 12.5-5.3 13.1-4.7 13.8-4 14.4-3.2 15.1-2.7 15.7-2 16.6-1.4 17.2-0.7h18.2l19 0.5 20 1.1 21.4 1.9 17.1 1.9 17.2 2 17.2 2.5 17.2 2.6 17.3 2.9 17.3 3.3 17.3 3.4 17.3 3.7 17.4 4 17.3 4.2 17.4 4.6 17.3 4.8 17.5 5.1 17.4 5.3 17.3 5.6 17.4 5.8 17.4 6.1 17.3 6.3 17.4 6.7 17.2 6.8 17.3 7.2 17.2 7.4 17.2 7.7 17.1 7.8 17 8.1 17.1 8.3 16.9 8.6 16.8 8.8 16.8 9.1 16.7 9.3 16.7 9.5 16.5 9.7 2.6 1.2 2.8 0.6h2.9l2.9-0.7 14.1-5.4 18.8-8 15-6.5 10.9-4.4 10.2-3.8 9.6-3.1 26-7.7 26.4-7 26.7-6.5 27-5.8 27.3-5.2 27.7-4.7 28.1-4 28.2-3.4 28.8-2.9 28.9-2.3 29.4-1.6 29.6-1 29.9-0.5 30.4 0.1 30.6 0.8 30.9 1.3 27.2 1.7 26.8 2.1 26.3 2.5 25.9 2.9 25.4 3.3 25 3.8 24.5 4.1 24.2 4.6 23.6 5 23.2 5.4 22.8 5.8 22.3 6.4 21.9 6.6 21.5 7.1 20.9 7.5 20.6 7.9 2.1 0.8 2.1 0.5 2.2 0.2h2l2-0.4 1.9-0.4 3.8-1.7 32.2-17.4 33.4-17.4 34.6-17.5 35.7-17.3 25.3-11.7 25.4-11.3 25.7-10.5 25.8-10.1 19.4-7.1 19.3-6.8 19.5-6.4 19.7-6.1 19.7-5.9 19.9-5.5 20-5.2 20.1-5 20.2-4.6 20.3-4.3 20.5-4 20.6-3.7 20.6-3.4 20.8-3.1 20.9-2.8 21-2.4 23-2.1 11.2-0.7 11.1-0.4 10.9-0.3 10.9 0.2 10.7 0.2 10.5 0.4 10.4 0.8 10.3 0.9 10.1 1.2 9.9 1.5 9.9 1.6 9.7 1.9 9.5 2.1 9.4 2.4 10.3 3 9.6 3.3 9.4 3.7 9 4.1 8.6 4.6 8.2 4.9 7.8 5.3 7.5 5.8 6 5.1 5.8 5.5 5.5 5.8 5.3 6 5.2 6.3 4.8 6.7 4.6 7 4.6 7.5 4.4 7.8 4.1 8.1 4 8.5 3.8 9.1 3.7 9.3 3.6 9.9 3.5 10.6 3.4 11.1 6.5 22.8 6 22.7 5.3 22.6 4.9 22.7 4.3 22.6 3.8 22.5 3.3 22.5 2.6 22.5 2.3 22.3 1.5 22.4 1.1 22.3 0.6 22.2v22.3l-0.6 22.1-1 22.1-1.6 22.1-2.2 21.8-2.6 21.8-3.3 21.9-3.6 21.8-4.4 21.7-4.8 21.6-5.3 21.6-5.9 21.5-6.3 21.5-7.1 21.5-7.4 21.5-8 21.4-8.5 21.2-9.1 21.4-9.6 21.2-10.1 21.2-1.6 3.8-1.1 3.7-0.4 3.7 0.1 3.7 0.8 4 1.4 4 15.9 35.7 14.8 35 13.7 34.5 12.7 34.1 11.5 33.5 10.5 33.3 4.8 16.6 4.7 16.4 4.3 16.3 4.2 16.3 3.7 16.2 3.6 16 3.3 16.1 3.2 16.1 2.9 15.9 2.5 15.9 2.4 16 2 15.8 1.9 15.8 1.5 15.8 1.3 15.5 1.2 15.9 0.7 15.4 0.6 15.7 0.3 15.5 0.1 15.6 0.5 2.2 1.1 1.9 1.7 1.4 2.1 0.8 27 4.7 27.1 5.1 26.8 5.2 26.7 5.7 5.1 1.2 5.1 1.5 5.2 1.8 5 1.9 5 2.2 4.9 2.3 4.9 2.7 4.9 2.9 3.3 2.4 2.7 2.6 2 2.8 1.3 3 0.7 3.3-0.1 3.6-0.8 3.6-1.5 4.1-2.4 4.4-2.9 3.8-3.6 3.3-3.9 2.5-2.3 1.1-2.4 0.9-2.6 0.6-2.6 0.4-2.6 0.2-2.8-0.1-2.8-0.3-2.8-0.6-15.1-3.6-15.1-3.2-15-3-14.9-2.8-14.7-2.5-14.5-2.3-14.6-2-14.4-1.6-3.3-0.1-3 0.3-2.4 0.9-2 1.3-1.4 1.9-0.9 2.3-0.6 2.9v3.4l0.3 7.9-0.3 7.8-0.8 7.6-1.3 7.6-1.2 5.1-1.4 5.2-0.7 3-0.2 2.9 0.1 2.4 0.4 2.3 0.9 3.6 0.5 2.6 0.2 2.4-0.2 3-0.7 2.9-20.2 70.6-0.4 2.4-0.1 2.5 0.3 2.3 0.7 2.5 1 2.1 1.3 2 1.8 1.7 1.9 1.5 97 61.1 1.7 1.1 2.4 2 2.2 2.1 1.9 2.4 1.8 2.5 1.3 2.8 1.2 2.8 0.8 3 0.5 3 0.3 3.1-0.1 3-0.5 3-0.7 3-1 2.9-1.3 2.8-1.5 2.7-1.9 2.4-1.9 2.3-3.4 3.5-3.4 2.7-3.7 1.8-3.7 1h-3.7l-4.1-0.8-4-1.8-4.2-2.6-11-7.4-11.5-6.9-12-6.5-12.5-5.9-13-5.4-13.6-5-14.1-4.6-14.6-4-2-0.2-1.9 0.4-1.6 1.1-1.3 1.5-11.1 18.6-10.7 19.2-10.4 19.8-10.2 20.5-5.2 10-5.7 9.7-6.3 9.1-6.8 8.6-1.9 2.2-13.1 15.4-17.9 21.4-28.4 33.6-11 12.5-10.3 11.4-10.1 10.6-9.8 10-9.6 9.1-9.4 8.6-11.9 10.2-12.3 10-12.3 9.8-12.7 9.6-12.9 9.4-13.2 9.1-13.3 8.9-13.6 8.6-13.8 8.4-14.1 8.1-14.4 8-14.6 7.7-14.8 7.5-15 7.2-15.2 7-15.6 6.8-22.3 9.4-22.2 8.9-22.1 8.5-21.9 8.2-21.8 7.9-21.7 7.3-21.6 7-21.5 6.7-2.4 1.1-0.8 0.8-0.7 0.9-0.3 1-0.1 1.1 0.1 1.3 0.4 1.5 12.5 34.1 11.6 33.1 10.9 31.9 10 31.1 9.1 29.8 8.4 29 7.5 27.8 6.8 26.7 7 28.4 7.2 28.1 7.3 28.1 7.6 27.7 0.6 1.7 0.9 1.6 1.2 1.4 1.4 1.2 1.7 0.9 1.6 0.6 1.8 0.4h1.9l10.1-1 9.9-1.3 9.7-1.7 9.5-2 9.2-2.5 9-2.8 8.7-3.2 8.5-3.6 8.2-3.7 7.8-4.4 7.6-4.4 7.2-5 6.9-5.3 6.6-5.5 6.2-5.8 5.9-6.3 6.6-7.9 6.1-8.3 5.7-8.8 5-9.2 4.5-9.6 4-10 3.5-10.4 3-10.9 4-18.2 3.4-17.8 2.6-17.6 2-17.3 2.1-21 2.4-20.9 2.6-20.8 2.9-20.6 3.1-20.6 3.5-20.4 3.8-20.1 4-20.2 1.9-8.5 2.2-8.6 2.3-8.6 2.7-8.4 2.8-8.4 3.1-8.3 3.3-8.2 3.5-8 3.8-7.8 3.9-7.8 4.1-7.5 4.3-7.4 4.5-7.2 4.7-7.1 4.8-6.8 5.1-6.7 5.1-6.4 5.3-6.3 5.5-5.9 5.6-5.8 5.8-5.4 5.9-5.4 6-5 6.2-4.8 6.2-4.5 6.5-4.4 6.5-4 6.7-3.9 6.7-3.4 6.9-3.3 6.9-3 7-2.8 9.4-3.4 9.6-3 9.5-2.6 9.5-2.4 9.6-2 9.7-1.7 9.7-1.3 9.7-1 14.5-0.9 14.7-0.1 14.7 0.6 14.9 1.4 14.8 2.1 15.1 2.9 15 3.7 15 4.4 11.4 3.9 10.9 4.4 10.4 4.9 9.9 5.2 9.5 5.7 9.1 6.2 8.6 6.7 8.2 7.1 8 7.9 7.6 8.6 7.1 9 6.7 9.5 6.2 10.1 5.7 10.6 5.4 11.2 4.8 11.7 4.4 12.3 4 12.3 3.7 12.4 3.1 12.4 2.8 12.5 2.2 12.5 1.9 12.6 1.4 12.6 1.3 17.4 0.4 17.4-0.4 17.6-1.3 17.6-1.7 17-2.3 17.1-2.6 17-3.1 17-3.6 17.1-4 17.1-4.5 17.1-4.9 17-5.3 17.1-5.8 16.9-6.2 16.8-6.6 16.8-7 16.8-7.5 16.6-7.9 16.6-8.2 16.3-8.7 16.4-9.1 16.1-9.5 16.1-9.8 15.8-10.2 15.6-10.6 15.4-10.9 15.3-11.2 15-11.6 14.7-11.9 14.5-12.2 14.3-12.5 13.9-12.8 13.6-13 13.3-13.4 13.1-13.6 12.6-10.4 9.4-10.6 8.8-10.6 8.4-10.7 8.1-10.7 7.4-11 7.1-10.9 6.7-11 6.2-21.7 11.3-22.5 10.8-23.2 10.3-24.1 9.8-24.8 9.3-25.6 8.8-26.5 8.2z"/>
		<path id="Layer" class="s0" d="m3375.2 771.2l-2-3.2-2.1-3-2.3-2.7-2.5-2.7-2.7-2.6-3-2.3-3-2.2-3.3-2-7.6-4.2-7.5-3.6-7.4-3.3-7.5-2.7-7.5-2.5-7.4-1.9-7.4-1.5-7.3-1-7.3-0.7-7.1-0.2-7.2 0.2-6.9 0.7-7 1.1-6.7 1.5-6.6 2-6.5 2.5-5.1 2.3-5.1 2.6-4.9 2.9-4.9 3.1-4.6 3.4-4.4 3.7-4.4 4-4 4.1-4 4.5-3.7 4.6-3.5 4.8-3.3 5.2-3.1 5.2-2.8 5.5-2.5 5.5-2.3 5.8-2.2 5.9-1.9 5.9-1.5 6.2-1.3 6.3-1 6.3-0.8 6.5-0.6 6.4-0.2 6.5v6.5l0.2 6.7 0.6 6.6 0.8 6.6 1.1 6.6 1.3 6.7 1.6 6.6 1.8 6.7 4.1 12.9 4.3 12.8 4.4 12.4 4.8 12.3 4.9 12 5.3 11.9 5.4 11.6 5.6 11.4 5.9 11.2 6.1 10.9 6.3 10.8 6.6 10.4 6.8 10.4 7 10 7.2 9.9 7.5 9.6 2.6 3 2.5 2.8 2.9 2.5 3 2.4 3.1 2.2 3.4 2 3.4 1.8 3.6 1.4 3.8 1.5 3.9 1.1 4 0.9 4.1 0.6 4.3 0.5 4.4 0.3 8.9-0.2 9.4-1.1 9.5-1.9 15.8-4.3 15.4-4.5 14.9-4.9 14.5-5.2 14.3-5.7 13.7-6 13.3-6.5 12.9-6.7 12.6-7.1 12.2-7.4 11.6-7.9 11.4-8.3 10.9-8.5 10.5-8.9 10.1-9.4 9.7-9.7 5.9-6.5 5.9-7.3 5.8-8 5.5-8.5 5.2-8.7 4.8-8.9 4.4-9.1 3.9-9 3.2-8.8 2.7-8.7 2.1-8.3 1.5-8.1 1-7.9 0.5-7.6-0.1-7.3-0.8-6.9v-0.3l-0.4-4-0.2-4.1 0.3-4.3 0.5-5.8 0.6-5.9 0.2-4.2-0.1-4-0.6-3.9-0.9-3.8-1.3-3.8-6.9-16.6-6.1-13.2-6-11.5-3.1-5.1-3.2-4.8-3.3-4.6-3.3-4.2-3.5-4-3.7-3.8-3.6-3.3-3.8-3.3-4-2.8-4.2-2.7-4.9-2.7-5.3-2.4-5.4-2.2-5.7-1.7-6.8-1.8-6.8-1.6-6.6-1.2-6.4-1-6.3-0.8-6.2-0.4-6.1-0.2-6 0.1-5.8 0.3-5.8 0.6-5.5 0.8-5.5 1.2-5.3 1.3-5.3 1.7-5.1 1.9-5 2.1-5.9 3-5.8 3.3-5.4 3.8-5.5 4.2-5.1 4.6-5 4.9-4.8 5.3-4.7 5.8-0.8 0.8-1 0.7-1.1 0.5-1.2 0.2-1.2-0.1-1.1-0.3-1.1-0.6-0.9-0.7z"/>
	</g>
	<g id="Layer">
		<path id="Layer" fill-rule="evenodd" class="s1" d="m2704.9 1844.8l-39.5-33.8-17.3-14.4-15.5-12.6-13.6-10.6-12.2-9.1-10.3-7.3-8.6-5.5-5.2-2.9-5.5-2.7-5.7-2.6-5.9-2.3-6.2-2.3-6.4-2-6.7-1.9-6.9-1.6-14.7-2.9-15.6-2.1-16.7-1.5-17.6-0.6"/>
		<path id="Layer" fill-rule="evenodd" class="s2" d="m2474.8 1726.1l5.7-12.7 5.1-12.5 4.7-12.6 4.2-12.3 3.7-12.3 3.1-12.2 2.7-12.1 2.2-12.1 1.7-11.9 1.2-11.8 0.7-11.8 0.2-11.5-0.3-11.6-0.8-11.6-1.4-11.3-1.7-11.3-2.7-13-3.3-12.9-4.1-12.7-4.6-12.6-5.5-12.5-6-12.4-6.7-12.2-7.3-12.2-4.9-7.3-5-7.3-5.2-7-5.4-6.8-5.7-6.6-5.8-6.6-5.9-6.2-6.1-6.2-6.2-5.9-6.5-5.7-6.6-5.5-6.7-5.3-6.9-5.2-7-4.7-7.1-4.7-7.4-4.4-7.3-4.2-7.5-3.9-7.6-3.7-7.8-3.4-7.6-3.2-7.9-2.9-7.9-2.7-8.1-2.4-7.9-2.2-8.1-1.8-8.1-1.7-8.1-1.4-8.3-1.1-8.2-0.9-8.2-0.5-8.3-0.3h-3.6l-11.9 0.1-11.8 0.4-11.5 0.8-11.4 1.1-11.1 1.4-10.9 1.8-10.7 2.1-10.3 2.6-10.4 2.8-10 3.2-9.8 3.5-9.6 3.9-9.3 4.2-9.2 4.6-9 4.8-8.7 5.3-8.2 5.3-8 5.7-7.8 5.9-7.7 6.3-7.3 6.6-7.2 6.9-7 7.4-6.8 7.4-6.7 7.9-6.4 8.2-6.2 8.5-6 8.9-5.9 9.1-5.6 9.5-5.4 9.7-5.2 10.1-4.9 10.4-4.5 10.5-4 10.7-3.6 10.8-3.1 11.1-2.6 11.4-2.3 11.6-1.6 11.5-1.2 11.8-0.7 12.1-0.1 12.1 0.2 12.2 0.8 12.4 1.2 12.6 1.8 12.6 2.2 12.8 2.7 13.1 3.2 13.1 3.7 13.2 4.2 13.5"/>
		<path id="Layer" fill-rule="evenodd" class="s3" d="m1955.1 1707.8l-19.8-25.1-19.9-25-20.1-24.7-20.2-24.5-20.5-24.2-20.6-24.1-20.7-23.8-20.8-23.5-21.2-23.3-21.1-23.2-21.4-22.8-21.5-22.7-21.7-22.4-21.8-22.1-22-22.1-22.2-21.7-7.5-7.2-7.8-6.8-7.8-6.7-7.9-6.2-2.7-1.8-2.6-1.5-2.8-1-2.8-0.8-3.8-0.4-3.8 0.3-4 0.9-4 1.4-4.2 2-4.2 2.7-4.5 3.3-4.5 3.9-21.4 20.2-20.7 19.9-20 19.9-19.1 19.7-18.4 19.7-17.7 19.5-16.8 19.5-16 19.2-38.9 47.4-36.7 43.4-69.1 80.9-70.2 82.6"/>
		<path id="Layer" fill-rule="evenodd" class="s2" d="m1179.7 1726.6l3.8-10 3.4-9.9 3.2-10 2.7-9.9 2.6-9.8 2.2-9.8 1.9-9.8 1.6-9.8 1.2-9.7 0.9-9.7 0.7-9.5 0.2-9.7v-9.5l-0.4-9.6-0.6-9.4-0.9-9.5-2.2-14.9-3-14.9-3.7-14.8-4.7-14.6-5.3-14.6-6.2-14.4-7-14.5-7.8-14.2-7.7-13-8.3-12.2-8.8-11.7-9.1-11.1-9.6-10.5-10.1-9.8-10.5-9.2-11-8.6-6.8-4.9-6.9-4.5-7-4.5-7.2-4.1-7.4-4-7.5-3.8-7.7-3.4-7.9-3.4-9-3.5-9.1-3.3-9.1-2.9-8.9-2.6-9-2.5-8.9-2.1-8.9-1.8-8.8-1.4-8.8-1.4-8.8-0.9-8.8-0.6-8.7-0.4-8.7-0.1-8.7 0.3-8.6 0.4-8.7 0.8-14.3 2-14.4 2.7-14.3 3.6-14.2 4.4-14.4 5.3-14.1 5.8-13.6 6.5-13.1 6.9-12.8 7.5-12.2 8.1-11.8 8.6-11.1 9.1-10.8 9.7-10.2 10.2-9.5 10.5-8.9 11-8.4 11.5-7.7 11.8-7.1 12.2-6.4 12.6-3.5 7.6-3.3 7.8-3 7.8-2.8 8-2.5 8-2.3 8.1-2 8.1-1.8 8.4-1.5 8.2-1.3 8.5-1 8.4-0.7 8.5-0.5 8.6-0.2 8.5v8.6l0.2 8.7 0.6 8.6 0.9 8.5 1 8.7 1.3 8.7 1.6 8.6 1.7 8.6 2.1 8.6 2.4 8.7 2.5 8.6 2.9 8.5 3 8.5 3.4 8.3 3.5 8.5 3.8 8.3 4 8.4 4.4 8.2"/>
		<path id="Layer" fill-rule="evenodd" class="s1" d="m670.9 1741.5l-9.9-0.9-9.8-0.4-9.7-0.1-9.6 0.2-9.4 0.7-9.4 1.1-9.2 1.4-9.1 1.9-7.6 2-7.7 2.8-7.9 3.3-8 4.1-8.2 4.7-8.5 5.4-8.6 6.1-8.8 6.7-46.3 36.7-49 38.5"/>
		<path id="Layer" fill-rule="evenodd" class="s1" d="m413.6 2006.8l-4.2-12-3.2-11.9-2.4-11.7-1.6-11.5-0.9-11.4v-11.1l0.8-11 1.7-10.8"/>
		<path id="Layer" fill-rule="evenodd" class="s4" d="m2474.8 1726.1l-29.5 37.4-5.3 6.4-5.4 6.4-5.5 6-5.7 5.9-5.9 5.7-5.9 5.5-6.1 5.3-6.1 5.2-6.4 4.9-6.4 4.7-6.6 4.6-6.7 4.2-6.8 4.3-6.9 3.9-7 3.6-7.1 3.6-12.2 5.4-12.6 4.8-12.8 4.3-13 3.5-13.4 3-13.5 2.4-13.5 1.6-13.8 1.1-13.9 0.4-14.1-0.2-14.1-0.9-14.2-1.5-14.2-2.2-14.3-2.8-14.3-3.4-14.3-4"/>
		<path id="Layer" fill-rule="evenodd" class="s5" d="m1955.1 1707.8l9.2 14.9 9.8 14.4 10.3 13.6 10.8 12.9 11.2 12.3 11.8 11.6 12.3 11 12.8 10.2 9.6 7.1 9.8 6.6 10.1 6.4 10.4 5.9 10.6 5.7 10.9 5.2 11.1 5 11.5 4.6"/>
		<path id="Layer" fill-rule="evenodd" class="s6" d="m2127.3 1855.2l-7.2 21.4-8.1 22.3-2.3 6.7-1.9 6.8-1.5 6.8-1.1 6.7-0.5 5.5-0.3 5.4v5.5l0.3 5.5 0.4 5.5 0.8 5.6 1 5.5 1.2 5.6 1.5 5.5 1.7 5.5 2 5.5 2.3 5.4 2.5 5.6 2.7 5.3 3 5.5 3.2 5.3 3.6 5.4 3.7 5.2 4 5.2 4.1 5.1 8.8 9.7 9.7 9.4 10.3 8.8 10.7 8 11.2 7.3 11.6 6.5 19 9.3 19.2 8.5 19.2 7.5 19.4 6.6 9.7 3 9.8 2.8 9.8 2.5 9.8 2.3 9.8 2.1 9.9 1.9 9.9 1.7 9.9 1.3 11.8 1.5 11.9 1 11.8 0.8 11.9 0.4 12 0.1 11.9-0.1 12-0.6 12.2-0.7 12.1-1.2 12.1-1.4 12.3-1.7 12.2-2.1 12.3-2.3 12.3-2.7 12.4-3 12.3-3.3 9.8-2.9 9.7-3.1 9.5-3.4 9.2-3.5 9-3.7 8.9-4 8.6-4.3 8.4-4.4 8.3-4.6 8-4.9 7.9-5 7.6-5.3 7.4-5.5 7.3-5.6 7-5.9 6.9-6.3 11.3-11.1 10.7-11.8 10.1-12.5 9.6-13.1"/>
		<path id="Layer" fill-rule="evenodd" class="s3" d="m2728.8 1997.5l6.2-2 6.2-1.7 6-1.2 6-0.7 5.8-0.3 5.7 0.1 5.6 0.7 5.6 1 5.9 1.5 5.8 2.2"/>
		<path id="Layer" fill-rule="evenodd" class="s7" d="m2134.9 2359.2l-139.7 16.6-59.7 6.7-52.8 5.6-45.8 4.7-39.1 3.7-32.2 2.7-25.4 1.5-29.3 1.2-29.8 1-30.6 0.6-31.2 0.3-31.9-0.1-32.6-0.4-33.2-0.7-33.9-1.1-34.5-1.3-35.3-1.8-35.9-2-36.6-2.5-37.1-2.6-38-3.2-38.5-3.3-39.3-3.8-12.3-1.5-17.2-2.5-48.4-8.1-16-2.6-16.1-2.1-16-1.7-16-1.2-14.8-0.6"/>
		<path id="Layer" fill-rule="evenodd" class="s3" d="m353.5 2007.2l7-1.6 7.1-1.1 7.3-0.7 7.5-0.3 7.6 0.2 7.7 0.6 7.9 1.1 8 1.4"/>
		<path id="Layer" fill-rule="evenodd" class="s6" d="m413.6 2006.8l11.5 18.5 5.4 7.8 4.9 6.9 4.4 5.9 4.1 4.9 3.8 4 3.5 3.1 14 10.7 14.1 10 14.5 9.5 14.8 8.7 14.9 8 15.2 7.3 15.4 6.7 15.7 6 9 3.1 9.2 2.9 9.2 2.7 9.2 2.6 9.5 2.2 9.3 2 9.6 1.8 9.6 1.6 9.7 1.4 9.8 1.2 9.8 0.9 10 0.8 20 0.7 20.4-0.1 11.4-0.4 11.5-0.7 11.5-0.9 11.4-1.1 11.5-1.3 11.2-1.6 11.3-1.8 11-2.1 10.9-2.2 10.6-2.4 10.5-2.7 10.3-2.8 10.1-3.1 9.8-3.2 9.7-3.5 9.3-3.7 9-3.7 8.8-4.1 8.5-4.1 8.3-4.4 7.9-4.5 7.8-4.6 7.4-4.9 7.2-5.1 6.8-5.1 6.7-5.4 6.2-5.5 6.1-5.8 5.7-5.8 5.4-6 5.1-6.1 4.9-6.3 5.4-7.8 4.8-7.9 4.4-8 3.6-8 3.1-8.2 2.7-8.2 2-8.2 1.5-8.4 0.9-9.9 0.2-9.9-0.6-10-1.3-10.3-2.1-10.2-2.9-10.3-3.7-10.6-4.5-10.6-0.8-2.5-0.4-2.6 0.2-2.6 0.8-2.6 6.3-15.4"/>
		<path id="Layer" fill-rule="evenodd" class="s5" d="m1027.5 1861.5l12.1-5.5 11.7-5.9 11.4-6.2 11.1-6.7 10.8-7 10.3-7.4 10-7.8 9.7-8.3 9.3-8.6 9.1-9.1 8.6-9.3 8.3-9.9 8-10.1 7.7-10.7 7.2-11 6.9-11.4"/>
		<path id="Layer" fill-rule="evenodd" class="s1" d="m2739.7 1906.6l-10.9 90.9"/>
		<path id="Layer" fill-rule="evenodd" class="s4" d="m1027.5 1861.5l-10.7 3.9-10.8 3.4-10.8 3.2-10.9 2.6-11 2.3-10.9 1.9-11.1 1.4-11 1-11 0.7-10.9 0.1-11-0.2-10.9-0.7-10.9-1-10.9-1.5-10.7-1.9-10.6-2.3-13.8-3.7-13.6-4.2-13.2-5-13.2-5.7-12.8-6.2-12.4-6.9-12.2-7.6-11.9-8.2-11.4-8.8-11.2-9.4-10.5-9.9-10.3-10.4-9.6-11-9.4-11.5-8.7-11.9-8.3-12.5"/>
		<path id="Layer" fill-rule="evenodd" class="s8" d="m2094.5 2411.7l-9.5 62.4-1.5 8.5-1.5 7.8-1.8 6.9-1.9 6.1-2 5.4-2.1 4.5-2.4 3.7-2.4 2.9"/>
		<path id="Layer" fill-rule="evenodd" class="s7" d="m2069.4 2519.9l-16.7-1.7-18-1.1-19.2-0.3-20.3 0.3-21.6 0.9-22.9 1.7-23.9 2.2-25.2 3-26 3.1-26.2 2.8-26.9 2.5-27.2 2.1-27.7 1.9-28.2 1.5-28.6 1.3-29 1-29.5 0.5-30 0.3h-30.4l-30.8-0.3-31.4-0.5-31.7-0.9-32.3-1.3-32.6-1.5-20.3-1.2-21.2-1.7-22-2-23.3-2.5-23.9-2.7-26.1-3.5-68.6-9.6-66.4-9.3-25.4-3.4-23.5-2.7-2.1 0.1-1.5 0.6-0.9 1.5-0.3 2v5.3"/>
		<path id="Layer" fill-rule="evenodd" class="s8" d="m1107.6 2508.3l-24.5-34.4"/>
		<path id="Layer" fill-rule="evenodd" class="s9" d="m1083.1 2473.9l-28.9-83.6"/>
		<path id="Layer" fill-rule="evenodd" class="s10" d="m1083.1 2473.9l-57.2-2.3-11.6-0.8-13.2-1.4-15.2-2.2-16.8-2.9-12.4-2.1-12.4-1.7-12.3-1.2-12.3-0.8-12.2-0.4-12.3 0.2-12.1 0.4-12 1"/>
		<path id="Layer" fill-rule="evenodd" class="s11" d="m941.4 2410.6l5.7 2.5 5.6 1.8 5.6 1.1 5.8 0.5 6.8-0.1 6.9-1"/>
		<path id="Layer" fill-rule="evenodd" class="s12" d="m1107.6 2508.3l7.9 15.7 8.1 15.1 8.6 14.6 8.8 14.2 9.1 13.6 9.4 13.1 9.7 12.7 10.1 12.1 10.3 11.7 10.6 11 11 10.7 11.2 10.1 11.6 9.7 11.9 9.1 12.3 8.7 12.5 8.1 10.4 6.3 10.6 5.9 10.7 5.5 11 5.4 11.2 4.9 11.4 4.5 11.5 4.3 11.8 4 10.6 3.1 10.4 2.5 10.1 1.9 10.1 1.5 9.8 0.8 9.8 0.3 9.6-0.3 9.3-0.9 2.9-0.8 1.2-0.6 1-0.7 1.7-2 1-2.7 2.2-9.3"/>
		<path id="Layer" fill-rule="evenodd" class="s10" d="m1454.5 2755.9l-5.4 2.2-2.2 1.3-2 1.3-1.8 1.6-1.5 1.6-1.2 1.7-1 1.9-1 2.8-0.6 3.1v3.3l0.6 3.5 3.7 18.9 4.7 25.8 6.6 34.8 5.4 25.4 2.8 11.5 2.9 11.2 3.1 10.4 3.3 10.2 5.1 16 4.9 16.5 4.4 16.5 4.1 17.1 3.7 17.2 3.5 17.7 3 17.8 2.6 18.3 1.8 15.2 1 15.4 0.4 15.1-0.4 14.9-1.1 14.4-1.8 13.8-2.4 13.2-3.1 12.6-3.8 11.7-4.5 11-2.4 5.2-2.6 5-2.8 4.8-2.9 4.7-3 4.5-3.3 4.2-3.3 4-3.6 3.9-3.6 3.5-3.9 3.5-3.9 3.2-4.1 3-6.9 4.4-7.2 3.8-7.7 3.3-7.9 2.8-7.9 2.2-7.9 1.9-8.1 1.7-8.1 1.2-8.5 1-8.5 0.7-8.5 0.4h-8.7l-8.8-0.2-8.7-0.6-8.9-0.9-8.9-1.1-8.9-1.5-8.8-1.8-9-2-8.8-2.5-8.9-2.6-8.8-3-8.8-3.3-8.5-3.5-8.5-3.8-8.4-4.1-8.2-4.4-8-4.5-7.8-4.8-7.7-5-7.4-5.3-7.2-5.4-6.9-5.6-6.7-5.9-6.3-5.9-6.1-6.1-16.7-17.8-15.9-17.6-15-17.4-14.3-17-13.3-17-12.6-16.7-11.7-16.5-10.9-16.2-2.2-3.3-2.7-3.3-6.3-7.1-8.1-7.8-9.5-8.3-3.6-3.3-3.3-3.5-3.4-3.9-3.1-4.2-2.9-4.6-2.9-4.9-2.6-5.3-2.6-5.5-0.8-1.6-1-1.3-1.1-1.1-1.4-1-2.5-1.8-1.8-1.6-1.5-1.9-1.1-2.1-0.8-2.4-2.2-8.6-1.4-4.1-1.6-4-1.7-3.9-2-3.7-2.1-3.5-2.4-3.5-3.1-3.9-3.3-3.8-3.7-3.6-3.9-3.4"/>
		<path id="Layer" fill-rule="evenodd" class="s10" d="m868.9 2805.3l-0.7-0.5-1-0.2-1.2 0.2-1.5 0.9-0.4 0.6-4 6.8-3.7 6.9-3 6.9-2.6 6.9-2.1 6.9-1.5 7-1.1 6.9-0.6 7-0.1 7.8 0.5 7.8 1.2 7.8 1.6 7.7 1.1 4.5 5.4 22.4 4.7 22.6 4.1 22.7 3.5 22.8 3 23 2.4 23.2 1.8 23.2 1.2 23.5v3l-0.6 4-0.9 3.8-1.4 3.7-2 3.8-2.4 3.5-2.9 3.5-3.2 3.2-3.7 3.1-9.4 7-7.5 5-7.6 4.7-7.8 4.6-8.1 4.2-8.1 3.9-8.3 3.7-8.6 3.4-8.7 3.1-8.9 2.9-9.1 2.7-9.4 2.3-9.4 2.2-9.7 1.7-9.8 1.6-10 1.3-10.2 1"/>
		<path id="Layer" fill-rule="evenodd" class="s7" d="m1645.9 2858.1l-5.8 4-5.6 3.7-5.6 3.3-5.5 2.9-5.3 2.6-5.2 2.2-5.2 1.9-5 1.5-2.6 0.4-2.7-0.1-2.3-0.8-2.3-1.4-7.9-6.3-7.8-6.9-7.8-7.4-7.6-8.2-7.6-8.8-7.5-9.5-7.3-10.1-7.3-10.8"/>
		<path id="Layer" fill-rule="evenodd" class="s10" d="m2413.4 3175.9l-15.9 1.8-15.5 1-15.1 0.3-14.8-0.3-14.5-1.2-14-1.7-13.7-2.5-13.4-3.1-4.6-1.4-4.4-1.6-4.1-1.9-3.7-2.1-3.3-2.4-3.1-2.5-2.8-2.8-2.3-3-2.4-3.6-1.8-3.7-1.5-4.1-1.1-4.3-0.8-4.6-0.3-4.9v-5.1l0.3-5.3 5.7-54.7 6.4-58.7 7.5-62.9 8.2-67.1 0.6-5.5 0.2-5.3-0.1-5.3-0.4-5.4-0.5-4.8-0.8-4.8-1-4.7-1.3-4.8-1-4.5-0.5-4.4 0.1-3.2 0.5-3.2 0.8-3.1 1-3.1 0.7-2.9v-2.8l-0.6-2.7-1.5-2.4-2.3-2.8-2.6-2.2-2.5-1.5-2.8-0.9-2.2-0.3-2.3 0.1-2.4 0.6-2.5 0.9-2.5 1.2-2.6 1.7-2.7 2-2.7 2.4"/>
		<path id="Layer" fill-rule="evenodd" class="s10" d="m2161.5 3013.4l-8.5 7.9-8.3 8-7.9 8.3-7.8 8.6-6.6 8-6.6 8.3-6.3 8.4-6.2 8.7-5.8 8.8-5.5 9-5.5 9.2-5.1 9.5-3.7 6.8-3.6 6.5-3.8 6-3.8 5.5-3.9 5.3-3.9 4.9-4 4.4-4 4.1-19.4 19.3-18.2 19.1-7.9 7.9-8.5 7.7-9 7.1-9.7 6.8-10.1 6.5-10.7 6-11.2 5.7-11.8 5.2-12.4 4.8-12.9 4.3-13.4 4-13.6 3.6-14.3 3-14.5 2.7-14.9 2.1-15.1 1.6-11.6 0.8h-11.1l-10.5-0.8-10-1.4-9.3-2.3-8.8-2.9-4.3-1.8-4.1-2-3.9-2.1-3.8-2.4-5.2-3.5-5-3.8-4.9-3.9-4.6-4.1-4.3-4.3-4.1-4.4-4-4.6-3.7-4.8-4.7-7-4.3-7.1-3.8-7.6-3.4-7.8-2.9-8.2-2.6-8.6-2-8.6-1.6-9.2-1.2-9.4-0.6-9.8-0.3-9.9 0.1-10.4 0.7-10.4 1.1-10.9 1.6-11.2 2-11.3 1.9-10.4 1.6-11.4 3.5-29.6 3.3-28.6 1.6-11.1 1.8-9.9 0.4-1.4 0.7-1.1 1.1-1.1 1.3-0.9 1-0.6 0.8-0.8 0.7-1.1 0.4-1.4 2.6-19.4 1.5-17.9 0.5-2 0.8-1.8 1.3-1.4 1.6-1.3 1.3-0.9 2-1.8 1.6-2.4 1.1-2.9 0.8-3.4 2-10.9 2.3-10.9 3-11.2 3.3-11.3 3.9-11.4 4.4-11.5 4.8-11.7 5.2-11.8 4.1-9.7 3.1-9.3 2.2-8.7 1.4-8.5 0.3-4v-4l-0.1-3.8-0.4-3.8-0.6-3.7-0.9-3.4-1.1-3.5-1.3-3.3-2.1-4.3-2.7-4.2-2.9-3.8-3.5-3.8"/>
		<path id="Layer" fill-rule="evenodd" class="s12" d="m1744.6 2710.1l41.3 39.1 2.1 1.5 2.4 1 2.5 0.4 2.6-0.3 10.7-2.2 10.5-2.4 10.4-2.8 10.1-2.9 10-3.2 9.8-3.5 9.6-3.7 9.5-3.8 9.3-4.2 9-4.3 8.9-4.7 8.8-4.8 8.6-5.1 8.3-5.3 8.3-5.6 8-5.8 9.9-7.7 9.6-8 9.3-8.4 9-8.7 8.7-9.2 8.5-9.5 8.2-9.9 7.9-10.4 7.6-10.6 7.3-11.1 7-11.3 6.8-11.8 6.5-12.3 6.2-12.4 5.9-12.9 5.7-13.4"/>
		<path id="Layer" fill-rule="evenodd" class="s13" d="m2827.3 427.9l-9.9 6.3-9.7 6.4-9.3 6.7-9.3 6.9-8.9 7.2-8.7 7.4-8.4 7.7-8.3 7.7-95.1 93.1-95.7 92.6-5.6 5.5-5.2 5.8-7.3 9.3-7 10.2-7 11.7-9.3 16.8-0.9 1.8"/>
		<path id="Layer" fill-rule="evenodd" class="s13" d="m632.7 732.1l-37.5-42.7-34.3-38.3-31-33.9-27.9-29.4-33.7-34.4-38.9-38.9-44.3-43.1-49.4-47.5"/>
		<path id="Layer" fill-rule="evenodd" class="s14" d="m3051.2 2597.1l-7.2-7.3-7.8-6.9-8.6-6.3-9.1-5.8-9.9-5.3-10.5-4.6-11.1-4.3-11.8-3.6-46.6-13.4-14.7-4.6-9-3.1-43.9-16.9-44.3-16.3-44.7-15.8-45.2-15.3"/>
		<path id="Layer" fill-rule="evenodd" class="s14" d="m3024.4 2670.2l-23.2-6.8-23-7.3-16.6-5.4-16.4-5.8-16.5-5.9-16.4-6.1-16.2-6.4-16.3-6.6-16.1-6.8-16.2-7-15.9-7.3-16-7.4-15.8-7.8-15.8-7.9-15.7-8.2-15.7-8.3-15.6-8.6-15.4-8.8"/>
		<path id="Layer" fill-rule="evenodd" class="s14" d="m2935.8 2818l-230.3-174.2"/>
		<path id="Layer" fill-rule="evenodd" class="s14" d="m2825.7 2936.3l-4.6-0.2-4.5-0.4-4.4-0.8-4.3-1-6.5-2.3-6.5-2.9-6.3-3.9-6.4-4.7-6.3-5.3-6.6-6.5-7.2-7.8-9.9-11.2-3.7-4.1-13.2-15.3-13-15.4-12.5-15.6-12.4-15.7-12.1-15.9-11.9-16.1-11.6-16.1-11.2-16.2"/>
		<path id="Layer" fill-rule="evenodd" class="s11" d="m2621.6 3038l-0.2-7.8-0.8-7.9-1-8.2-1.5-8.5-1.8-8.6-2.4-9.2-6.9-23.3-4.2-14.2-2.7-10-7.5-30.2-7.9-30.2-8.2-30.4-8.4-30.5"/>
	</g>
	<g id="Layer">
		<path id="Layer" class="s15" d="m1955.1 1707.8l9.2 14.9 9.8 14.4 10.3 13.6 10.8 12.9 11.2 12.3 11.8 11.6 12.3 11 12.8 10.2 9.6 7.1 9.8 6.6 10.1 6.4 10.4 5.9 10.6 5.7 10.9 5.2 11.1 5 11.5 4.6-7.2 21.4-8.1 22.3-2.3 6.7-1.9 6.8-1.5 6.8-1.1 6.7-0.5 5.5-0.3 5.4v5.5l0.3 5.5 0.4 5.5 0.8 5.6 1 5.5 1.2 5.6 1.5 5.5 1.7 5.5 2 5.5 2.3 5.4 2.5 5.6 2.7 5.3 3 5.5 3.2 5.3 3.6 5.4 3.7 5.2 4 5.2 4.1 5.1 8.8 9.7 9.7 9.4 10.3 8.8 10.7 8 11.2 7.3 11.6 6.5 19 9.3 19.2 8.5 19.2 7.5 19.4 6.6 9.7 3 9.8 2.8 9.8 2.5 9.8 2.3 9.8 2.1 9.9 1.9 9.9 1.7 9.9 1.3 11.8 1.5 11.9 1 11.8 0.8 11.9 0.4 12 0.1 11.9-0.1 12-0.6 12.2-0.7 12.1-1.2 12.1-1.4 12.3-1.7 12.2-2.1 12.3-2.3 12.3-2.7 12.4-3 12.3-3.3 9.8-2.9 9.7-3.1 9.5-3.4 9.2-3.5 9-3.7 8.9-4 8.6-4.3 8.4-4.4 8.3-4.6 8-4.9 7.9-5 7.6-5.3 7.4-5.5 7.3-5.6 7-5.9 6.9-6.3 11.3-11.1 10.7-11.8 10.1-12.5 9.6-13.1 6.2-2 6.2-1.7 6-1.2 6-0.7 5.8-0.3 5.7 0.1 5.6 0.7 5.6 1 5.9 1.5 5.8 2.2-8.2 12.9-8.2 12.3-8.2 11.9-8.3 11.5-8.2 11-8.4 10.6-8.3 10.1-8.2 9.7-8.5 9.1-8.3 8.8-8.4 8.2-8.4 7.8-8.5 7.4-8.5 6.9-8.4 6.3-8.6 6-18.9 12.6-19 12.1-19.3 11.8-19.3 11.6-19.3 11.1-19.5 10.7-19.6 10.5-19.7 10.1-19.9 9.7-19.9 9.3-20.1 9.1-20.1 8.6-20.3 8.3-20.3 8-20.5 7.6-20.6 7.2-24.2 8-24.6 7.7-25 7.3-25.1 6.8-25.6 6.5-25.7 6.1-26.2 5.7-26.4 5.2-139.7 16.6-59.7 6.7-52.8 5.6-45.8 4.7-39.1 3.7-32.2 2.7-25.4 1.5-29.3 1.2-29.8 1-30.6 0.6-31.2 0.3-31.9-0.1-32.6-0.4-33.2-0.7-33.9-1.1-34.5-1.3-35.3-1.8-35.9-2-36.6-2.5-37.1-2.6-38-3.2-38.5-3.3-39.3-3.8-12.3-1.5-17.2-2.5-48.4-8.1-16-2.6-16.1-2.1-16-1.7-16-1.2-14.8-0.6-34.1-8.1-34.5-8.3-34.8-8.8-35.3-9.1-17.3-4.7-17.5-5-17.4-5.1-17.4-5.5-17.5-5.7-17.5-5.9-35.1-12.5-35-13.5-35.2-14.5-35.3-15.4-35.2-16.5-11.6-5.7-11.6-6-11.6-6.3-11.6-6.8-11.7-7-11.7-7.4-11.8-7.8-11.9-8.1-11.9-8.6-12.1-8.8-12.1-9.2-12.2-9.6-12.5-10.1-12.6-10.5-25.7-22.3-5.6-5.1-9.1-8.6-8.6-8.8-8.5-9-8.2-9.3-8.1-9.5-7.7-9.9-7.5-10.2-7.2-10.3 7-1.6 7.1-1.1 7.3-0.7 7.5-0.3 7.6 0.2 7.7 0.6 7.9 1.1 8 1.4 11.5 18.5 5.4 7.8 4.9 6.9 4.4 5.9 4.1 4.9 3.8 4 3.5 3.1 14 10.7 14.1 10 14.5 9.5 14.8 8.7 14.9 8 15.2 7.3 15.4 6.7 15.7 6 9 3.1 9.2 2.9 9.2 2.7 9.2 2.6 9.5 2.2 9.3 2 9.6 1.8 9.6 1.6 9.7 1.4 9.8 1.2 9.8 0.9 10 0.8 20 0.7 20.4-0.1 11.4-0.4 11.5-0.7 11.5-0.9 11.4-1.1 11.5-1.3 11.2-1.6 11.3-1.8 11-2.1 10.9-2.2 10.6-2.4 10.5-2.7 10.3-2.8 10.1-3.1 9.8-3.2 9.7-3.5 9.3-3.7 9-3.7 8.8-4.1 8.5-4.1 8.3-4.4 7.9-4.5 7.8-4.6 7.4-4.9 7.2-5.1 6.8-5.1 6.7-5.4 6.2-5.5 6.1-5.8 5.7-5.8 5.4-6 5.1-6.1 4.9-6.3 5.4-7.8 4.8-7.9 4.4-8 3.6-8 3.1-8.2 2.7-8.2 2-8.2 1.5-8.4 0.9-9.9 0.2-9.9-0.6-10-1.3-10.3-2.1-10.2-2.9-10.3-3.7-10.6-4.5-10.6-0.8-2.5-0.4-2.6 0.2-2.6 0.8-2.6 6.3-15.4 12.1-5.5 11.7-5.9 11.4-6.2 11.1-6.7 10.8-7 10.3-7.4 10-7.8 9.7-8.3 9.3-8.6 9.1-9.1 8.6-9.3 8.3-9.9 8-10.1 7.7-10.7 7.2-11 6.9-11.4 70.2-82.6 69.1-80.9 36.7-43.4 38.9-47.4 16-19.2 16.8-19.5 17.7-19.5 18.4-19.7 19.1-19.7 20-19.9 20.7-19.9 21.4-20.2 4.5-3.9 4.5-3.3 4.2-2.7 4.2-2 4-1.4 4-0.9 3.8-0.3 3.8 0.4 2.8 0.8 2.8 1 2.6 1.5 2.7 1.8 7.9 6.2 7.8 6.7 7.8 6.8 7.5 7.2 22.2 21.7 22 22.1 21.8 22.1 21.7 22.4 21.5 22.7 21.4 22.8 21.1 23.2 21.2 23.3 20.8 23.5 20.7 23.8 20.6 24.1 20.5 24.2 20.2 24.5 20.1 24.7 19.9 25z"/>
		<path id="Layer" class="s15" d="m2069.4 2519.9l-5.7 13.4-5.9 12.9-6.2 12.4-6.5 12.3-6.8 11.8-7 11.3-7.3 11.1-7.6 10.6-7.9 10.4-8.2 9.9-8.5 9.5-8.7 9.2-9 8.7-9.3 8.4-9.6 8-9.9 7.7-8 5.8-8.3 5.6-8.3 5.3-8.6 5.1-8.8 4.8-8.9 4.7-9 4.3-9.3 4.2-9.5 3.8-9.6 3.7-9.8 3.5-10 3.2-10.1 2.9-10.4 2.8-10.5 2.4-10.7 2.2-2.6 0.3-2.5-0.4-2.4-1-2.1-1.5-41.3-39.1-3.5 0.3-3.5 0.7-4 1-3.8 1.6-3.8 1.8-3.6 2.2-3.6 2.7-3.4 3-3.4 3.4-3.3 3.8-3.2 4.2-3.2 4.6-3.1 4.9-2.9 5.3-2.9 5.8-2.7 6.1-2.8 6.5-2.6 6.9-2.7 6.9-3.3 7.9-8.5 18.8-11.2 22.8-13.7 26.8-5.8 4-5.6 3.7-5.6 3.3-5.5 2.9-5.3 2.6-5.2 2.2-5.2 1.9-5 1.5-2.6 0.4-2.7-0.1-2.3-0.8-2.3-1.4-7.9-6.3-7.8-6.9-7.8-7.4-7.6-8.2-7.6-8.8-7.5-9.5-7.3-10.1-7.3-10.8-54.4-91.7-1.1-1.7-1.3-1.4-1.5-1.4-1.5-1.1-1.7-0.9-1.9-0.8-1.8-0.4-2-0.3-3.9 0.1-3.8 1-3.6 1.8-3.1 2.5-2.6 3.1-0.4 1.6 0.1 2.7 0.5 3.9 1 4.8-2.2 9.3-1 2.7-1.7 2-1 0.7-1.2 0.6-2.9 0.8-9.3 0.9-9.6 0.3-9.8-0.3-9.8-0.8-10.1-1.5-10.1-1.9-10.4-2.5-10.6-3.1-11.8-4-11.5-4.3-11.4-4.5-11.2-4.9-11-5.4-10.7-5.5-10.6-5.9-10.4-6.3-12.5-8.1-12.3-8.7-11.9-9.1-11.6-9.7-11.2-10.1-11-10.7-10.6-11-10.3-11.7-10.1-12.1-9.7-12.7-9.4-13.1-9.1-13.6-8.8-14.2-8.6-14.6-8.1-15.1-7.9-15.7v-5.3l0.3-2 0.9-1.5 1.5-0.6 2.1-0.1 23.5 2.7 25.4 3.4 66.4 9.3 68.6 9.6 26.1 3.5 23.9 2.7 23.3 2.5 22 2 21.2 1.7 20.3 1.2 32.6 1.5 32.3 1.3 31.7 0.9 31.4 0.5 30.8 0.3h30.4l30-0.3 29.5-0.5 29-1 28.6-1.3 28.2-1.5 27.7-1.9 27.2-2.1 26.9-2.5 26.2-2.8 26-3.1 25.2-3 23.9-2.2 22.9-1.7 21.6-0.9 20.3-0.3 19.2 0.3 18 1.1z"/>
	</g>
	<g id="Layer">
		<path id="Layer" class="s16" d="m2704.9 1844.8l-39.5-33.8-17.3-14.4-15.5-12.6-13.6-10.6-12.2-9.1-10.3-7.3-8.6-5.5-5.2-2.9-5.5-2.7-5.7-2.6-5.9-2.3-6.2-2.3-6.4-2-6.7-1.9-6.9-1.6-14.7-2.9-15.6-2.1-16.7-1.5-17.6-0.6 5.7-12.7 5.1-12.5 4.7-12.6 4.2-12.3 3.7-12.3 3.1-12.2 2.7-12.1 2.2-12.1 1.7-11.9 1.2-11.8 0.7-11.8 0.2-11.5-0.3-11.6-0.8-11.6-1.4-11.3-1.7-11.3-2.7-13-3.3-12.9-4.1-12.7-4.6-12.6-5.5-12.5-6-12.4-6.7-12.2-7.3-12.2-4.9-7.3-5-7.3-5.2-7-5.4-6.8-5.7-6.6-5.8-6.6-5.9-6.2-6.1-6.2-6.2-5.9-6.5-5.7-6.6-5.5-6.7-5.3-6.9-5.2-7-4.7-7.1-4.7-7.4-4.4-7.3-4.2-7.5-3.9-7.6-3.7-7.8-3.4-7.6-3.2-7.9-2.9-7.9-2.7-8.1-2.4-7.9-2.2-8.1-1.8-8.1-1.7-8.1-1.4-8.3-1.1-8.2-0.9-8.2-0.5-8.3-0.3h-3.6l-11.9 0.1-11.8 0.4-11.5 0.8-11.4 1.1-11.1 1.4-10.9 1.8-10.7 2.1-10.3 2.6-10.4 2.8-10 3.2-9.8 3.5-9.6 3.9-9.3 4.2-9.2 4.6-9 4.8-8.7 5.3-8.2 5.3-8 5.7-7.8 5.9-7.7 6.3-7.3 6.6-7.2 6.9-7 7.4-6.8 7.4-6.7 7.9-6.4 8.2-6.2 8.5-6 8.9-5.9 9.1-5.6 9.5-5.4 9.7-5.2 10.1-4.9 10.4-4.5 10.5-4 10.7-3.6 10.8-3.1 11.1-2.6 11.4-2.3 11.6-1.6 11.5-1.2 11.8-0.7 12.1-0.1 12.1 0.2 12.2 0.8 12.4 1.2 12.6 1.8 12.6 2.2 12.8 2.7 13.1 3.2 13.1 3.7 13.2 4.2 13.5-19.8-25.1-19.9-25-20.1-24.7-20.2-24.5-20.5-24.2-20.6-24.1-20.7-23.8-20.8-23.5-21.2-23.3-21.1-23.2-21.4-22.8-21.5-22.7-21.7-22.4-21.8-22.1-22-22.1-22.2-21.7-7.5-7.2-7.8-6.8-7.8-6.7-7.9-6.2-2.7-1.8-2.6-1.5-2.8-1-2.8-0.8-3.8-0.4-3.8 0.3-4 0.9-4 1.4-4.2 2-4.2 2.7-4.5 3.3-4.5 3.9-21.4 20.2-20.7 19.9-20 19.9-19.1 19.7-18.4 19.7-17.7 19.5-16.8 19.5-16 19.2-38.9 47.4-36.7 43.4-69.1 80.9-70.2 82.6 3.8-10 3.4-9.9 3.2-10 2.7-9.9 2.6-9.8 2.2-9.8 1.9-9.8 1.6-9.8 1.2-9.7 0.9-9.7 0.7-9.5 0.2-9.7v-9.5l-0.4-9.6-0.6-9.4-0.9-9.5-2.2-14.9-3-14.9-3.7-14.8-4.7-14.6-5.3-14.6-6.2-14.4-7-14.5-7.8-14.2-7.7-13-8.3-12.2-8.8-11.7-9.1-11.1-9.6-10.5-10.1-9.8-10.5-9.2-11-8.6-6.8-4.9-6.9-4.5-7-4.5-7.2-4.1-7.4-4-7.5-3.8-7.7-3.4-7.9-3.4-9-3.5-9.1-3.3-9.1-2.9-8.9-2.6-9-2.5-8.9-2.1-8.9-1.8-8.8-1.4-8.8-1.4-8.8-0.9-8.8-0.6-8.7-0.4-8.7-0.1-8.7 0.3-8.6 0.4-8.7 0.8-14.3 2-14.4 2.7-14.3 3.6-14.2 4.4-14.4 5.3-14.1 5.8-13.6 6.5-13.1 6.9-12.8 7.5-12.2 8.1-11.8 8.6-11.1 9.1-10.8 9.7-10.2 10.2-9.5 10.5-8.9 11-8.4 11.5-7.7 11.8-7.1 12.2-6.4 12.6-3.5 7.6-3.3 7.8-3 7.8-2.8 8-2.5 8-2.3 8.1-2 8.1-1.8 8.4-1.5 8.2-1.3 8.5-1 8.4-0.7 8.5-0.5 8.6-0.2 8.5v8.6l0.2 8.7 0.6 8.6 0.9 8.5 1 8.7 1.3 8.7 1.6 8.6 1.7 8.6 2.1 8.6 2.4 8.7 2.5 8.6 2.9 8.5 3 8.5 3.4 8.3 3.5 8.5 3.8 8.3 4 8.4 4.4 8.2-9.9-0.9-9.8-0.4-9.7-0.1-9.6 0.2-9.4 0.7-9.4 1.1-9.2 1.4-9.1 1.9-7.6 2-7.7 2.8-7.9 3.3-8 4.1-8.2 4.7-8.5 5.4-8.6 6.1-8.8 6.7-46.3 36.7-49 38.5-134.5 16.2-4.1 0.2-3.7-0.4-3.3-1-3-1.4-2.6-2.1-2.2-2.7-1.9-3.1-1.4-3.8-4.7-15.1-4.2-15.3-3.8-15.1-3.3-15.3-2.7-15.3-2.4-15.3-1.8-15.3-1.3-15.5-0.4-6.8 0.1-3 0.5-2.9 1.3-2.8 1.5-2.5 2.1-2.2 2.4-1.8 2.6-1.4 2.9-0.7 10-1.7 9.9-1.3 9.8-0.8 9.7-0.4h9.7l9.6 0.6 9.4 0.9 9.5 1.4 29.6 4.9 29.6 4.6 29.7 4.2 29.7 3.8 28.9 3.3 4.5 0.3 3.7-0.5 1.6-0.4 1.3-0.7 1.1-0.8 0.9-1 0.7-1.1 0.4-1.2 0.2-1.5 0.1-1.6-0.5-3.7-1.5-4.3-1.2-2.8-1.4-2.7-3.2-4.1-3.4-3.7-3.7-3.4-3.9-3.3-4-2.9-6.8-4.2-7.2-3.5-7.8-3.1-8.1-2.2-26.7-5.9-26.2-5.1-25.6-4.4-24.9-3.7-24.5-2.9-23.9-2.1-23.3-1.4-22.8-0.6h-0.5l-2.1-0.4-1.8-0.7-1.7-1.2-1.5-1.3-1.2-1.8-0.8-1.9-0.3-2v-2l14.9-123.7 2.2-16.5 2.5-16.2 2.8-16.1 3-15.6 3.3-15.4 3.6-15.1 3.9-14.8 4.1-14.5 8.3-27.1 8.9-26.8 9.5-26.6 9.9-26.2 10.6-26.1 11-25.7 11.6-25.6 12-25.3 9-17.8 9.1-17.7 9.6-17.6 9.7-17.4 10-17.3 10.4-17.1 10.5-17.1 10.8-16.9 11-16.7 11.4-16.5 11.7-16.6 11.9-16.3 12.1-16.2 12.4-15.9 12.7-16 12.9-15.8 13.2-15.5 13.4-15.5 13.8-15.4 13.9-15.1 14.2-15 14.5-14.8 14.8-14.7 14.9-14.6 15.3-14.4 15.5-14.2 15.8-14.1 16-13.9 16.2-13.8 16.6-13.6 16.7-13.5 17-13.3 2.3-2.3 1.9-2.6 1.4-3.1 0.6-3.2 0.1-3.2-0.6-3.2-1.2-3-1.8-2.7-0.2-0.3-13.7-15.7-13.9-15.4-14.2-15.1-14.3-14.7-14.5-14.4-14.8-14-14.9-13.7-15.2-13.3-15.4-13.1-15.5-12.7-15.8-12.3-16-12-16.3-11.7-16.3-11.4-16.7-11-16.8-10.7-21.3-12.8-21.6-12.3-21.9-11.8-22.3-11.3-14-6.4-13.6-5.6-13.2-4.5-12.9-3.6-12.6-2.7-6.1-0.9-6-0.7-5.9-0.5-5.9-0.2h-5.7l-5.7 0.2-7.1 0.1-3-0.3-2.6-0.5-2.1-0.7-1.8-0.9-1.4-1.1-0.9-1.4-0.7-1.5-0.1-1.8 0.2-2 0.6-2.2 1-2.5 1.5-2.7 4-5.9 0.2-0.2 5.9-7 6.7-6.6 7.2-6 8-5.5 8.7-5 9.2-4.4 9.9-3.9 10.6-3.3 11.2-2.9 11.9-2.2 12.5-1.8 13-1.1 13.7-0.7h14.2l14.5 0.4 15.1 1.2 24.7 2.5 24.7 3.1 24.9 3.9 25 4.5 25.3 5.1 25.4 5.9 25.6 6.5 25.8 7.1 26 7.8 26.3 8.5 26.7 9.3 27 9.9 27.4 10.6 27.9 11.4 28.3 12.2 29.2 13 10.4 4.9 10.2 5.1 10.1 5.3 10 5.6 15 8.9 14.5 9.3 14.3 10 14 10.4 0.6 0.6 0.6 1.3v1.5l-0.5 1.4-1.3 1-15 8.2-14.7 8.5-14.3 8.8-14.2 9-2.4 1.8-2.2 2-1.8 2.2-1.6 2.3-1 2.2-0.8 2.1-0.6 2.3-0.4 2.5-0.1 1.6 0.4 1.4 0.4 1.3 0.8 1.5 1 1.2 1 0.9 1.2 0.5 1.2 0.4 1.5 0.1 1.5-0.4 1.7-0.5 31-12.8 30.7-12.3 30.2-11.5 30.1-10.9 29.6-10.3 29.4-9.7 28.9-9 28.7-8.3 28.4-7.8 27.9-7 27.8-6.5 27.3-5.9 27.1-5.1 26.6-4.6 26.4-3.9 26-3.2 17-1.8 17.9-1.5 18.6-1.4 19.5-1.2 20.1-0.9 21.1-0.8 21.7-0.4 22.6-0.3 22.7 0.1 23.1 0.8 23.6 1.3 24.2 2 24.5 2.7 25 3.2 25.5 3.9 25.8 4.6 26.5 5.1 26.8 5.8 27.3 6.3 27.7 7 28.2 7.7 28.7 8.2 28.9 8.9 29.6 9.6 15.1 4.8 15.7 4.4 16.2 4.3 16.6 4 8.9 2 27.8 7 27.6 7.6 2.5 1 2.5 1.2 2.2 1.8 2.1 2.1 2.1 2.2 2.4 1.9 2.3 1.4 2.6 1 2.4 0.5 2.6 0.2 2.7-0.2 2.7-0.6 2-0.7 1.9-1.2 1.8-1.9 1.4-2.2 0.7-2.4 0.1-2.7-0.5-2.6-1.2-2.3-1.7-1.9-2.1-1.5-57.7-30.8-1.1-0.7-0.8-0.9-0.4-1.1-0.3-1.2v-1.2l0.2-1.1 0.5-1.1 0.8-0.9 0.9-0.8 20.3-12.4 20.3-11.9 20.4-11.7 20.6-11.2 20.7-10.6 20.8-10.4 20.9-9.9 20.9-9.5 21.2-9.1 21.2-8.6 21.4-8.2 21.5-7.8 21.6-7.4 21.7-6.9 21.8-6.6 21.9-6.1 16.7-4.4 16.7-4.1 16.8-3.9 16.9-3.5 16.9-3.5 17.1-3.1 17-2.9 17.1-2.7 9.6-1.2 9.7-1.1 9.7-0.8 9.9-0.5 9.8-0.4h10l10 0.1 10.1 0.5 10.5 0.5 20.9 1.1 14.9 1.4 13.1 1.6 11.4 2.3 5.6 1.4 5.2 1.6 5.1 1.8 4.8 1.9 4.7 2.1 4.4 2.3 4.4 2.6 4.2 2.7 4.9 3.7 4.8 4.1 4.6 4.5 4.3 4.9 4.1 5.2 4 5.7 3.8 6 3.6 6.5 0.9 2.4v1l-0.3 0.9-0.5 0.8-0.9 0.6-1.1 0.5-1.5 0.3-14 2.5-14 3.1-14 3.7-14.1 4.2-14 4.8-14 5.4-14.1 6-14.1 6.6-19.9 10-19.7 10.7-19.7 11.4-19.5 12-19.3 12.6-19.2 13.2-19.2 14-19.2 14.7-19.1 15.4-19.1 16.1-19.4 17-19.4 17.8-19.7 18.9-20.1 19.9-20.5 20.9-21.3 22.4-3.6 4.4-1.5 2.2-1.1 2.3-0.8 2.1-0.6 2.2-0.3 2.1-0.1 2.1 0.3 2.2 0.5 2.1 0.8 2.1 1.1 2.1 1.3 2 1.6 2.1 4.1 4 39.6 35 38.9 35.5 38.3 36.1 37.5 36.7 16.4 16.6 16.3 17 15.9 17.2 15.6 17.5 15.2 17.7 14.9 18 14.6 18.2 14.3 18.4 13.9 18.6 13.4 18.8 13.2 19.1 12.8 19.1 12.2 19.4 12 19.4 11.5 19.7 11.2 19.8 10.7 19.9 10.3 20 9.9 20.1 9.4 20.3 9 20.2 8.6 20.4 8.1 20.5 7.8 20.6 7.3 20.5 6.8 20.7 6.3 20.7 6 20.8 5.5 20.7 5 20.8 4.5 20.7 4.2 20.9 6.1 34.7 5.3 34.9 4.6 34.8 3.9 34.9 2 21.3 1.6 21.4v1.8l-0.2 1.5-0.4 1.3-0.8 1.2-1 0.8-1.2 0.7-1.7 0.5-1.8 0.2-26.4 1.2-26.1 1.8-25.8 2.4-25.5 3.2-25.3 3.6-25 4.4-24.7 4.9-24.4 5.5-4.8 1.4-4.5 1.5-4.5 1.8-4.4 2.1-6.8 3.9-6.5 4.7-6 5.3-5.8 6-2.6 3.4-1.1 2.2-0.9 2.3-1.3 5-0.4 4.3 0.1 1.8 0.4 1.6 0.6 1.4 0.9 1.3 1 1 1.3 0.9 1.6 0.7 1.7 0.4 4.3 0.4 5.1-0.4 76.2-10.9 78.5-11.9 7.7-1 7.6-0.7 7.8-0.4h7.8l7.9 0.3 7.9 0.7 8 0.9 8.1 1.3 4.5 1.1 4 1.7 3.3 2.2 2.6 2.7 1.9 3.2 1.4 3.7 0.5 4.2v4.7l-1.4 16.2-1.9 16.2-2.4 15.8-2.7 15.7-3.4 15.4-3.9 15.3-4.2 15-4.8 14.8-1.6 3.6-1.7 3.1-2.3 2.4-2.5 2-2.8 1.5-3.2 0.9-3.6 0.3-3.9-0.2z"/>
		<path id="Layer" class="s16" d="m2787.6 1997.1l-5.8-2.2-5.9-1.5-5.6-1-5.6-0.7-5.7-0.1-5.8 0.3-6 0.7-6 1.2-6.2 1.7-6.2 2 10.9-90.9 3.5-0.2 10.6-0.5 10.7 0.2 10.7 0.7 10.8 1.2 10.9 1.9 10.8 2.4 10.9 3 10.9 3.4 2.2 1.2 0.8 0.7 0.5 0.9 0.1 0.9-0.1 1-1 2.2z"/>
		<path id="Layer" class="s16" d="m403.8 1915.4l-1.7 10.8-0.8 11v11.1l0.9 11.4 1.6 11.5 2.4 11.7 3.2 11.9 4.2 12-8-1.4-7.9-1.1-7.7-0.6-7.6-0.2-7.5 0.3-7.3 0.7-7.1 1.1-7 1.6-43.8-70.2-1-2.4-0.1-1.1 0.2-0.9 0.5-0.9 0.7-0.6 2.2-1.3 9.2-3.2 9.3-2.8 9.2-2.4 9.2-2 9.4-1.6 9.2-1.3 9.4-0.8 9.3-0.4 8.7-0.2z"/>
	</g>
	<g id="Layer">
		<path id="Layer" class="s0" d="m2474.8 1726.1l-29.5 37.4-5.3 6.4-5.4 6.4-5.5 6-5.7 5.9-5.9 5.7-5.9 5.5-6.1 5.3-6.1 5.2-6.4 4.9-6.4 4.7-6.6 4.6-6.7 4.2-6.8 4.3-6.9 3.9-7 3.6-7.1 3.6-12.2 5.4-12.6 4.8-12.8 4.3-13 3.5-13.4 3-13.5 2.4-13.5 1.6-13.8 1.1-13.9 0.4-14.1-0.2-14.1-0.9-14.2-1.5-14.2-2.2-14.3-2.8-14.3-3.4-14.3-4-11.5-4.6-11.1-5-10.9-5.2-10.6-5.7-10.4-5.9-10.1-6.4-9.8-6.6-9.6-7.1-12.8-10.2-12.3-11-11.8-11.6-11.2-12.3-10.8-12.9-10.3-13.6-9.8-14.4-9.2-14.9-4.2-13.5-3.7-13.2-3.2-13.1-2.7-13.1-2.2-12.8-1.8-12.6-1.2-12.6-0.8-12.4-0.2-12.2 0.1-12.1 0.7-12.1 1.2-11.8 1.6-11.5 2.3-11.6 2.6-11.4 3.1-11.1 3.6-10.8 4-10.7 4.5-10.5 4.9-10.4 5.2-10.1 5.4-9.7 5.6-9.5 5.9-9.1 6-8.9 6.2-8.5 6.4-8.2 6.7-7.9 6.8-7.4 7-7.4 7.2-6.9 7.3-6.6 7.7-6.3 7.8-5.9 8-5.7 8.2-5.3 8.7-5.3 9-4.8 9.2-4.6 9.3-4.2 9.6-3.9 9.8-3.5 10-3.2 10.4-2.8 10.3-2.6 10.7-2.1 10.9-1.8 11.1-1.4 11.4-1.1 11.5-0.8 11.8-0.4 11.9-0.1h3.6l8.3 0.3 8.2 0.5 8.2 0.9 8.3 1.1 8.1 1.4 8.1 1.7 8.1 1.8 7.9 2.2 8.1 2.4 7.9 2.7 7.9 2.9 7.6 3.2 7.8 3.4 7.6 3.7 7.5 3.9 7.3 4.2 7.4 4.4 7.1 4.7 7 4.7 6.9 5.2 6.7 5.3 6.6 5.5 6.5 5.7 6.2 5.9 6.1 6.2 5.9 6.2 5.8 6.6 5.7 6.6 5.4 6.8 5.2 7 5 7.3 4.9 7.3 7.3 12.2 6.7 12.2 6 12.4 5.5 12.5 4.6 12.6 4.1 12.7 3.3 12.9 2.7 13 1.7 11.3 1.4 11.3 0.8 11.6 0.3 11.6-0.2 11.5-0.7 11.8-1.2 11.8-1.7 11.9-2.2 12.1-2.7 12.1-3.1 12.2-3.7 12.3-4.2 12.3-4.7 12.6-5.1 12.5z"/>
		<path id="Layer" class="s0" d="m1179.7 1726.6l-6.9 11.4-7.2 11-7.7 10.7-8 10.1-8.3 9.9-8.6 9.3-9.1 9.1-9.3 8.6-9.7 8.3-10 7.8-10.3 7.4-10.8 7-11.1 6.7-11.4 6.2-11.7 5.9-12.1 5.5-10.7 3.9-10.8 3.4-10.8 3.2-10.9 2.6-11 2.3-10.9 1.9-11.1 1.4-11 1-11 0.7-10.9 0.1-11-0.2-10.9-0.7-10.9-1-10.9-1.5-10.7-1.9-10.6-2.3-13.8-3.7-13.6-4.2-13.2-5-13.2-5.7-12.8-6.2-12.4-6.9-12.2-7.6-11.9-8.2-11.4-8.8-11.2-9.4-10.5-9.9-10.3-10.4-9.6-11-9.4-11.5-8.7-11.9-8.3-12.5-4.4-8.2-4-8.4-3.8-8.3-3.5-8.5-3.4-8.3-3-8.5-2.9-8.5-2.5-8.6-2.4-8.7-2.1-8.6-1.7-8.6-1.6-8.6-1.3-8.7-1-8.7-0.9-8.5-0.6-8.6-0.2-8.7v-8.6l0.2-8.5 0.5-8.6 0.7-8.5 1-8.4 1.3-8.5 1.5-8.2 1.8-8.4 2-8.1 2.3-8.1 2.5-8 2.8-8 3-7.8 3.3-7.8 3.5-7.6 6.4-12.6 7.1-12.2 7.7-11.8 8.4-11.5 8.9-11 9.5-10.5 10.2-10.2 10.8-9.7 11.1-9.1 11.8-8.6 12.2-8.1 12.8-7.5 13.1-6.9 13.6-6.5 14.1-5.8 14.4-5.3 14.2-4.4 14.3-3.6 14.4-2.7 14.3-2 8.7-0.8 8.6-0.4 8.7-0.3 8.7 0.1 8.7 0.4 8.8 0.6 8.8 0.9 8.8 1.4 8.8 1.4 8.9 1.8 8.9 2.1 9 2.5 8.9 2.6 9.1 2.9 9.1 3.3 9 3.5 7.9 3.4 7.7 3.4 7.5 3.8 7.4 4 7.2 4.1 7 4.5 6.9 4.5 6.8 4.9 11 8.6 10.5 9.2 10.1 9.8 9.6 10.5 9.1 11.1 8.8 11.7 8.3 12.2 7.7 13 7.8 14.2 7 14.5 6.2 14.4 5.3 14.6 4.7 14.6 3.7 14.8 3 14.9 2.2 14.9 0.9 9.5 0.6 9.4 0.4 9.6v9.5l-0.2 9.7-0.7 9.5-0.9 9.7-1.2 9.7-1.6 9.8-1.9 9.8-2.2 9.8-2.6 9.8-2.7 9.9-3.2 10-3.4 9.9z"/>
	</g>
	<g id="Layer">
		<path id="Layer" class="s17" d="m335.7 423.9l49.4 47.5 44.3 43.1 38.9 38.9 33.7 34.4 27.9 29.4 31 33.9 34.3 38.3 37.5 42.7-16.1 12.6-16 13-15.8 13.6-15.6 13.8-15.5 14.4-15.4 14.8-15.3 15.4-15.3 15.9-15.1 16.4-15.3 16.9-15.2 17.7-15.5 18.5-15.7 19.3-16.2 20.4-16.8 21.7-17.7 23.5-3.8 5.1-4.3 6.6-4.1 6.9-3.6 7-3.5 7.2-0.9 1.7-0.9 1.2-0.7 0.7-0.9 0.3-0.9-0.3-0.8-0.7-0.9-1.2-0.9-1.7-7.2-16.5-6.8-16.5-6.5-17-6.1-16.9-5.8-17.2-5.4-17.4-5-17.6-4.7-17.7-4.2-17.9-3.9-17.9-3.6-18.3-3.2-18.1-2.8-18.5-2.3-18.4-2.1-18.7-1.6-18.7-1.3-19-0.9-18.8-0.5-19-0.1-19.1 0.2-19.1 0.7-19 1-19.3 1.5-19.1 1.7-19.1 2.3-19.2 2.5-19.1 2.9-19.2 3.4-19.1 3.7-19 4-19 4.5-18.8 1-3.4 1.2-3.2 2.1-4.5 2.6-4.2 3.3-4.3 3.3-3 1.5-1.1 1.7-0.6 1.5-0.5h1.6l1.9 0.3 1.9 0.8 1.9 1.2z"/>
		<path id="Layer" class="s17" d="m2827.3 427.9l4.2 13.4 4 14 3.7 14.8 3.6 15.5 3.3 16.1 3.1 16.9 2.9 17.6 2.7 18.3 3.2 25.7 2.5 25.6 1.6 25.6 1 25.5 0.4 25.5-0.5 25.3-1.1 25.4-1.8 25.3-2.9 27.6-3.6 27.5-4.6 27.4-5.5 27.4-6.2 27.3-7.1 27.3-8 27.1-8.9 27.1-4.5 12.6-4.8 12.6-5.1 12.4-5.3 12.2-0.8 1.5-0.9 1.1-0.8 0.6-1 0.4-0.9-0.1-1-0.6-1-0.9-1.1-1.3-29.9-41.3-26.5-35.5-24.8-32-11.9-14.9-11.9-14.3-12-14.2-11.8-13.5-11.9-13.3-11.8-12.9-12-12.6-12-12.3-12.2-12.1-12.3-11.8-15.3-14.4-15.7-14-16.1-13.8-16.3-13.7 0.9-1.8 9.3-16.8 7-11.7 7-10.2 7.3-9.3 5.2-5.8 5.6-5.5 95.7-92.6 95.1-93.1 8.3-7.7 8.4-7.7 8.7-7.4 8.9-7.2 9.3-6.9 9.3-6.7 9.7-6.4z"/>
		<path id="Layer" class="s17" d="m3373 888.9l-4.4-2.2-3.7-2.9-2.3-2.6-2-2.9-20-31.9-21.1-32.3-2.5-3.5-2.8-3.3-3-2.9-3.2-2.5-3.4-2.2-3.5-1.8-3.7-1.5-3.9-1.1-3-0.5-3.1-0.3-3.1-0.1-3.2 0.2-3.1 0.5-3 0.7-3 0.8-3 1.3-2.9 1.3-2.8 1.6-2.7 1.9-2.6 2-2.6 2.2-2.3 2.4-2.2 2.6-2 2.8-3.6 5.4-3.2 5.6-2.7 5.6-2.3 5.5-1.8 5.6-1.5 5.7-1 5.6-0.5 5.7-0.1 5.1 0.2 5.3 0.6 5.2 1 5.3 1.3 5.3 1.7 5.3 2 5.4 2.4 5.3 50.1 103.9 4.3 8.4 4.9 7.8 5.5 7.4 5.9 6.9 4.8 4.9 2.3 1.8 2.6 1.1 2.6 0.3 2.8-0.4 9.7-2.5 9.9-3 10.1-3.4 10.3-3.8 10.3-4 10.3-4.3 10.1-4.7 9.9-4.8 9.7-5 9.3-5.1 9.2-5.3 8.6-5.5 8.5-5.7 8-5.7 7.8-5.8 7.3-6.1 6.7-5.9 6.4-5.9 5.9-6.1 5.5-6 5.1-6.2 4.7-6.1 4.2-6.3 3.9-6.3 3.5-6.2 3-6.5 2.6-6.3 2.2-6.5 1.7-6.3 1.3-6.6 0.8-6.5 0.4-6.4v-6.4l-0.3-6.4-0.9-6.4-1.2-6.4-1.6-6.5-2.1-6.3-2.5-6.5-2.8-6.4-2.3-4.4-2.4-3.9-2.6-3.5-2.8-3.3-3-2.8-3.2-2.6-3.3-2.2-3.6-1.9-4.4-1.7-4.6-1.2-4.8-0.7-4.9-0.2-5.2 0.3-5.3 0.9-5.4 1.4-5.5 1.7-5.5 2.5-5.6 2.8-5.4 3.3-5.3 3.7-5.1 4.1-4.8 4.4-4.5 4.6-4.1 4.9-5.8 7.8-5.7 7.7-5.5 7.8-5.1 7.9-4.8 7.8-4.5 7.9-4.3 7.9-4 7.9-1.1 1.5-1.7 0.9-1.7 0.3z"/>
		<path id="Layer" class="s17" d="m2474.8 1726.1l17.6 0.6 16.7 1.5 15.6 2.1 14.7 2.9 6.9 1.6 6.7 1.9 6.4 2 6.2 2.3 5.9 2.3 5.7 2.6 5.5 2.7 5.2 2.9 8.6 5.5 10.3 7.3 12.2 9.1 13.6 10.6 15.5 12.6 17.3 14.4 39.5 33.8-12.7 0.3-11.7 0.8-10.7 1.1-9.8 1.6-8.8 1.9-7.9 2.2-6.9 2.7-5.9 3.1-3.1 2.3-2.6 2.9-2 3.4-1.2 3.6-0.4 3.9 0.2 3.9 1.1 3.8 1.8 3.4 0.4 0.6 2.3 2.7 2.6 2.4 3.2 2.3 3.6 2.1 4 1.8 4.7 1.7 5 1.5 5.6 1.3 5.9 1 6.4 1 14.4 1.4 16.5 0.6 21.8 0.3 19 0.2-10.9 90.9-9.6 13.1-10.1 12.5-10.7 11.8-11.3 11.1-6.9 6.3-7 5.9-7.3 5.6-7.4 5.5-7.6 5.3-7.9 5-8 4.9-8.3 4.6-8.4 4.4-8.6 4.3-8.9 4-9 3.7-9.2 3.5-9.5 3.4-9.7 3.1-9.8 2.9-12.3 3.3-12.4 3-12.3 2.7-12.3 2.3-12.2 2.1-12.3 1.7-12.1 1.4-12.1 1.2-12.2 0.7-12 0.6-11.9 0.1-12-0.1-11.9-0.4-11.8-0.8-11.9-1-11.8-1.5-9.9-1.3-9.9-1.7-9.9-1.9-9.8-2.1-9.8-2.3-9.8-2.5-9.8-2.8-9.7-3-19.4-6.6-19.2-7.5-19.2-8.5-19-9.3-11.6-6.5-11.2-7.3-10.7-8-10.3-8.8-9.7-9.4-8.8-9.7-4.1-5.1-4-5.2-3.7-5.2-3.6-5.4-3.2-5.3-3-5.5-2.7-5.3-2.5-5.6-2.3-5.4-2-5.5-1.7-5.5-1.5-5.5-1.2-5.6-1-5.5-0.8-5.6-0.4-5.5-0.3-5.5v-5.5l0.3-5.4 0.5-5.5 1.1-6.7 1.5-6.8 1.9-6.8 2.3-6.7 8.1-22.3 7.2-21.4 14.3 4 14.3 3.4 14.3 2.8 14.2 2.2 14.2 1.5 14.1 0.9 14.1 0.2 13.9-0.4 13.8-1.1 13.5-1.6 13.5-2.4 13.4-3 13-3.5 12.8-4.3 12.6-4.8 12.2-5.4 7.1-3.6 7-3.6 6.9-3.9 6.8-4.3 6.7-4.2 6.6-4.6 6.4-4.7 6.4-4.9 6.1-5.2 6.1-5.3 5.9-5.5 5.9-5.7 5.7-5.9 5.5-6 5.4-6.4 5.3-6.4z"/>
		<path id="Layer" class="s17" d="m670.9 1741.5l8.3 12.5 8.7 11.9 9.4 11.5 9.6 11 10.3 10.4 10.5 9.9 11.2 9.4 11.4 8.8 11.9 8.2 12.2 7.6 12.4 6.9 12.8 6.2 13.2 5.7 13.2 5 13.6 4.2 13.8 3.7 10.6 2.3 10.7 1.9 10.9 1.5 10.9 1 10.9 0.7 11 0.2 10.9-0.1 11-0.7 11-1 11.1-1.4 10.9-1.9 11-2.3 10.9-2.6 10.8-3.2 10.8-3.4 10.7-3.9-6.3 15.4-0.8 2.6-0.2 2.6 0.4 2.6 0.8 2.5 4.5 10.6 3.7 10.6 2.9 10.3 2.1 10.2 1.3 10.3 0.6 10-0.2 9.9-0.9 9.9-1.5 8.4-2 8.2-2.7 8.2-3.1 8.2-3.6 8-4.4 8-4.8 7.9-5.4 7.8-4.9 6.3-5.1 6.1-5.4 6-5.7 5.8-6.1 5.8-6.2 5.5-6.7 5.4-6.8 5.1-7.2 5.1-7.4 4.9-7.8 4.6-7.9 4.5-8.3 4.4-8.5 4.1-8.8 4.1-9 3.7-9.3 3.7-9.7 3.5-9.8 3.2-10.1 3.1-10.3 2.8-10.5 2.7-10.6 2.4-10.9 2.2-11 2.1-11.3 1.8-11.2 1.6-11.5 1.3-11.4 1.1-11.5 0.9-11.5 0.7-11.4 0.4-20.4 0.1-20-0.7-10-0.8-9.8-0.9-9.8-1.2-9.7-1.4-9.6-1.6-9.6-1.8-9.3-2-9.5-2.2-9.2-2.6-9.2-2.7-9.2-2.9-9-3.1-15.7-6-15.4-6.7-15.2-7.3-14.9-8-14.8-8.7-14.5-9.5-14.1-10-14-10.7-3.5-3.1-3.8-4-4.1-4.9-4.4-5.9-4.9-6.9-5.4-7.8-11.5-18.5-4.2-12-3.2-11.9-2.4-11.7-1.6-11.5-0.9-11.4v-11.1l0.8-11 1.7-10.8 40.5-1.1 39.8-0.7 4.9-0.3 4.9-0.9 4.7-1.5 4.3-2 3.9-2.3 3.6-2.9 3.1-3.2 2.6-3.7 1.9-3.8 0.7-2.1 0.6-2.2 0.2-2.3 0.1-2.2-0.2-2.2-0.3-2.2-0.7-2.2-0.9-2.1-1.1-2-1.3-1.8-1.5-1.6-1.7-1.6-1.7-1.3-2-1.1-2-1-2.2-0.7-2.8-0.6-67-8.1 49-38.5 46.3-36.7 8.8-6.7 8.6-6.1 8.5-5.4 8.2-4.7 8-4.1 7.9-3.3 7.7-2.8 7.6-2 9.1-1.9 9.2-1.4 9.4-1.1 9.4-0.7 9.6-0.2 9.7 0.1 9.8 0.4z"/>
	</g>
	<g id="Layer">
		<path id="Layer" class="s18" d="m3051.2 2597.1l-7.2-7.3-7.8-6.9-8.6-6.3-9.1-5.8-9.9-5.3-10.5-4.6-11.1-4.3-11.8-3.6-46.6-13.4-14.7-4.6-9-3.1-43.9-16.9-44.3-16.3-44.7-15.8-45.2-15.3 0.1-8 0.3-8.1 0.7-8.2 1-8.1 1.1-8.1 1.5-8.1 1.7-8 2.1-8.1 2.2-7.7 2.5-7.9 2.7-7.6 3-7.5 3.2-7.4 3.5-7.2 3.7-7 3.7-6.9 4.2-6.4 4.2-6.4 4.4-6.1 4.6-5.9 4.8-5.5 4.9-5.5 5.1-5 5.4-4.9 5.3-4.6 5.6-4.3 5.7-4 5.8-3.8 6-3.5 6.2-3.2 6.1-2.9 6.3-2.5 10.2-3.6 10.3-2.7 10.7-2.1 10.8-1.3 9.8-0.7 9.6-0.4h9.2l9 0.2 8.9 0.7 8.5 0.9 8.3 1.2 8.1 1.6 7.8 1.9 7.6 2.4 7.3 2.5 7.2 2.9 6.8 3.4 6.5 3.5 6.5 3.9 6 4.3 8.2 6.5 7.7 7.1 7.1 7.9 6.7 8.5 6.2 9.1 5.8 9.8 5.3 10.4 4.7 11.1 2 5.5 1.9 5.7 1.6 6.1 1.4 6.2 1.4 6.4 1.1 6.8 1.5 14.4 0.9 15.3 0.1 16.4-0.6 17.5-1.5 18.5-1.6 15.9-2.2 15.7-2.3 15.3-2.8 15.3-3.2 14.8-3.6 14.7-3.9 14.3z"/>
		<path id="Layer" class="s18" d="m941.4 2410.6l7.3-0.6 7.1 0.1 6.9 0.7 6.7 1.6 4.3 1.3 4.1 1.7-6.9 1-6.8 0.1-5.8-0.5-5.6-1.1-5.6-1.8z"/>
		<path id="Layer" class="s18" d="m2721.6 2541.8l15.4 8.8 15.6 8.6 15.7 8.3 15.7 8.2 15.8 7.9 15.8 7.8 16 7.4 15.9 7.3 16.2 7 16.1 6.8 16.3 6.6 16.2 6.4 16.4 6.1 16.5 5.9 16.4 5.8 16.6 5.4 23 7.3 23.2 6.8-8.1 18.9-8 17-8.6 16.8-9.1 16.5-9.8 16.2-10.4 16.1-11 15.6-11.5 15.5-12.1 15.2-230.3-174.2z"/>
		<path id="Layer" class="s18" d="m2650.6 2758.9l11.2 16.2 11.6 16.1 11.9 16.1 12.1 15.9 12.4 15.7 12.5 15.6 13 15.4 13.2 15.3 3.7 4.1 9.9 11.2 7.2 7.8 6.6 6.5 6.3 5.3 6.4 4.7 6.3 3.9 6.5 2.9 6.5 2.3 4.3 1 4.4 0.8 4.5 0.4 4.6 0.2-7.8 8.2-8.5 8-9.5 7.9-10.1 7.7-10.9 7.4-11.6 7.3-12.3 7-13 6.8-13.8 6.5-14.3 6.3-14.8 5.9-15.2 5.4-15.5 5.2-15.7 4.5-15.7 4.1-15.4 3.5-0.2-7.8-0.8-7.9-1-8.2-1.5-8.5-1.8-8.6-2.4-9.2-6.9-23.3-4.2-14.2-2.7-10-7.5-30.2-7.9-30.2-8.2-30.4-8.4-30.5z"/>
	</g>
	<g id="Layer">
		<path id="Layer" class="s19" d="m2134.9 2359.2l-8.5 4.5-7.7 4.5-6.6 4.8-5.5 5-4.6 5.1-1.9 2.6-1.7 2.8-1.3 2.6-1.1 2.8-0.9 2.8-0.7 2.9-0.3 2.9-0.1 3.1 0.1 3 0.4 3.1-9.5 62.4-1.5 8.5-1.5 7.8-1.8 6.9-1.9 6.1-2 5.4-2.1 4.5-2.4 3.7-2.4 2.9-16.7-1.7-18-1.1-19.2-0.3-20.3 0.3-21.6 0.9-22.9 1.7-23.9 2.2-25.2 3-26 3.1-26.2 2.8-26.9 2.5-27.2 2.1-27.7 1.9-28.2 1.5-28.6 1.3-29 1-29.5 0.5-30 0.3h-30.4l-30.8-0.3-31.4-0.5-31.7-0.9-32.3-1.3-32.6-1.5-20.3-1.2-21.2-1.7-22-2-23.3-2.5-23.9-2.7-26.1-3.5-68.6-9.6-66.4-9.3-25.4-3.4-23.5-2.7-2.1 0.1-1.5 0.6-0.9 1.5-0.3 2v5.3l-24.5-34.4-28.9-83.6-0.9-3.7-1.2-3.8-1.7-3.7-2.1-3.6-2.6-3.8-2.9-3.7-3.3-3.7-3.8-3.6 14.8 0.6 16 1.2 16 1.7 16.1 2.1 16 2.6 48.4 8.1 17.2 2.5 12.3 1.5 39.3 3.8 38.5 3.3 38 3.2 37.1 2.6 36.6 2.5 35.9 2 35.3 1.8 34.5 1.3 33.9 1.1 33.2 0.7 32.6 0.4 31.9 0.1 31.2-0.3 30.6-0.6 29.8-1 29.3-1.2 25.4-1.5 32.2-2.7 39.1-3.7 45.8-4.7 52.8-5.6 59.7-6.7z"/>
		<path id="Layer" class="s19" d="m1532 2810.3l7.3 10.8 7.3 10.1 7.5 9.5 7.6 8.8 7.6 8.2 7.8 7.4 7.8 6.9 7.9 6.3 2.3 1.4 2.3 0.8 2.7 0.1 2.6-0.4 5-1.5 5.2-1.9 5.2-2.2 5.3-2.6 5.5-2.9 5.6-3.3 5.6-3.7 5.8-4-44.7 169.6-0.6 0.9-0.8 0.5-1-0.1-0.7-0.5-0.5-0.9-5.4-26.3-6.4-26.5-7-26.9-7.8-27-8.7-27.3-9.3-27.6-10.1-27.7z"/>
	</g>
	<g id="Layer">
		<path id="Layer" class="s20" d="m2094.5 2411.7l16.5 2.6 16.3 1.8 16.1 1.1 16 0.3 15.9-0.3 15.7-1.1 15.6-1.9 15.5-2.7 12-2.5 2.9-0.5 2.9 0.2 2.8 0.6 2.5 1.2 2.5 1.6 2 2 1.6 2.3 1.3 2.7 10.4 30.6 10.2 30.6 9.9 30.8 9.5 30.7 9.3 31 8.9 31 8.7 31.1 8.2 31 13 51 12 51.2 11.4 51.4 10.5 51.7 1.5 6.4 2 6.1 2.3 5.6 2.9 5.4 3.2 4.6 3.4 4.5 4.1 4.3 4.5 4.1 5 4.1 5.7 4 6.5 4.5 9.4 5.8 12.8 8.1 6.7 4.7 6.1 4.8 5.7 5.1 5.2 5.3 4.7 5.5 4.1 5.8 3.8 6 3.2 6.2 3 7.2 2.3 7.5 1.8 7.8 1.2 8 0.6 8.4v8.5l-0.7 8.9-1.2 9.2-1.9 10.1-2.3 10-2.7 9.7-3.1 9.4-3.6 9.3-3.9 9-4.3 8.8-4.7 8.6-4.6 7.2-4.7 7.1-5 7-5.5 6.8-5.7 6.6-6 6.4-6.3 6.3-6.7 6-15.9 1.8-15.5 1-15.1 0.3-14.8-0.3-14.5-1.2-14-1.7-13.7-2.5-13.4-3.1-4.6-1.4-4.4-1.6-4.1-1.9-3.7-2.1-3.3-2.4-3.1-2.5-2.8-2.8-2.3-3-2.4-3.6-1.8-3.7-1.5-4.1-1.1-4.3-0.8-4.6-0.3-4.9v-5.1l0.3-5.3 5.7-54.7 6.4-58.7 7.5-62.9 8.2-67.1 0.6-5.5 0.2-5.3-0.1-5.3-0.4-5.4-0.5-4.8-0.8-4.8-1-4.7-1.3-4.8-1-4.5-0.5-4.4 0.1-3.2 0.5-3.2 0.8-3.1 1-3.1 0.7-2.9v-2.8l-0.6-2.7-1.5-2.4-2.3-2.8-2.6-2.2-2.5-1.5-2.8-0.9-2.2-0.3-2.3 0.1-2.4 0.6-2.5 0.9-2.5 1.2-2.6 1.7-2.7 2-2.7 2.4-5 4.8-3.8 4.1-2.6 3.2-1.3 2.6-19.7 51.5-19.9 50-20.2 48.4-20.5 47-8.5 7.9-8.3 8-7.9 8.3-7.8 8.6-6.6 8-6.6 8.3-6.3 8.4-6.2 8.7-5.8 8.8-5.5 9-5.5 9.2-5.1 9.5-3.7 6.8-3.6 6.5-3.8 6-3.8 5.5-3.9 5.3-3.9 4.9-4 4.4-4 4.1-19.4 19.3-18.2 19.1-7.9 7.9-8.5 7.7-9 7.1-9.7 6.8-10.1 6.5-10.7 6-11.2 5.7-11.8 5.2-12.4 4.8-12.9 4.3-13.4 4-13.6 3.6-14.3 3-14.5 2.7-14.9 2.1-15.1 1.6-11.6 0.8h-11.1l-10.5-0.8-10-1.4-9.3-2.3-8.8-2.9-4.3-1.8-4.1-2-3.9-2.1-3.8-2.4-5.2-3.5-5-3.8-4.9-3.9-4.6-4.1-4.3-4.3-4.1-4.4-4-4.6-3.7-4.8-4.7-7-4.3-7.1-3.8-7.6-3.4-7.8-2.9-8.2-2.6-8.6-2-8.6-1.6-9.2-1.2-9.4-0.6-9.8-0.3-9.9 0.1-10.4 0.7-10.4 1.1-10.9 1.6-11.2 2-11.3 1.9-10.4 1.6-11.4 3.5-29.6 3.3-28.6 1.6-11.1 1.8-9.9 0.4-1.4 0.7-1.1 1.1-1.1 1.3-0.9 1-0.6 0.8-0.8 0.7-1.1 0.4-1.4 2.6-19.4 1.5-17.9 0.5-2 0.8-1.8 1.3-1.4 1.6-1.3 1.3-0.9 2-1.8 1.6-2.4 1.1-2.9 0.8-3.4 2-10.9 2.3-10.9 3-11.2 3.3-11.3 3.9-11.4 4.4-11.5 4.8-11.7 5.2-11.8 4.1-9.7 3.1-9.3 2.2-8.7 1.4-8.5 0.3-4v-4l-0.1-3.8-0.4-3.8-0.6-3.7-0.9-3.4-1.1-3.5-1.3-3.3-2.1-4.3-2.7-4.2-2.9-3.8-3.5-3.8-3-34.1 41.3 39.1 2.1 1.5 2.4 1 2.5 0.4 2.6-0.3 10.7-2.2 10.5-2.4 10.4-2.8 10.1-2.9 10-3.2 9.8-3.5 9.6-3.7 9.5-3.8 9.3-4.2 9-4.3 8.9-4.7 8.8-4.8 8.6-5.1 8.3-5.3 8.3-5.6 8-5.8 9.9-7.7 9.6-8 9.3-8.4 9-8.7 8.7-9.2 8.5-9.5 8.2-9.9 7.9-10.4 7.6-10.6 7.3-11.1 7-11.3 6.8-11.8 6.5-12.3 6.2-12.4 5.9-12.9 5.7-13.4 2.4-2.9 2.4-3.7 2.1-4.5 2-5.4 1.9-6.1 1.8-6.9 1.5-7.8 1.5-8.5z"/>
		<path id="Layer" class="s20" d="m1083.1 2473.9l24.5 34.4 7.9 15.7 8.1 15.1 8.6 14.6 8.8 14.2 9.1 13.6 9.4 13.1 9.7 12.7 10.1 12.1 10.3 11.7 10.6 11 11 10.7 11.2 10.1 11.6 9.7 11.9 9.1 12.3 8.7 12.5 8.1 10.4 6.3 10.6 5.9 10.7 5.5 11 5.4 11.2 4.9 11.4 4.5 11.5 4.3 11.8 4 10.6 3.1 10.4 2.5 10.1 1.9 10.1 1.5 9.8 0.8 9.8 0.3 9.6-0.3 9.3-0.9 2.9-0.8 1.2-0.6 1-0.7 1.7-2 1-2.7 2.2-9.3 3.6 4.3 1.3 2 1.1 2 0.9 2.1 0.6 2 0.2 2 0.1 2-0.2 1.9-0.4 1.8-1.7 3.7-5.4 2.2-2.2 1.3-2 1.3-1.8 1.6-1.5 1.6-1.2 1.7-1 1.9-1 2.8-0.6 3.1v3.3l0.6 3.5 3.7 18.9 4.7 25.8 6.6 34.8 5.4 25.4 2.8 11.5 2.9 11.2 3.1 10.4 3.3 10.2 5.1 16 4.9 16.5 4.4 16.5 4.1 17.1 3.7 17.2 3.5 17.7 3 17.8 2.6 18.3 1.8 15.2 1 15.4 0.4 15.1-0.4 14.9-1.1 14.4-1.8 13.8-2.4 13.2-3.1 12.6-3.8 11.7-4.5 11-2.4 5.2-2.6 5-2.8 4.8-2.9 4.7-3 4.5-3.3 4.2-3.3 4-3.6 3.9-3.6 3.5-3.9 3.5-3.9 3.2-4.1 3-6.9 4.4-7.2 3.8-7.7 3.3-7.9 2.8-7.9 2.2-7.9 1.9-8.1 1.7-8.1 1.2-8.5 1-8.5 0.7-8.5 0.4h-8.7l-8.8-0.2-8.7-0.6-8.9-0.9-8.9-1.1-8.9-1.5-8.8-1.8-9-2-8.8-2.5-8.9-2.6-8.8-3-8.8-3.3-8.5-3.5-8.5-3.8-8.4-4.1-8.2-4.4-8-4.5-7.8-4.8-7.7-5-7.4-5.3-7.2-5.4-6.9-5.6-6.7-5.9-6.3-5.9-6.1-6.1-16.7-17.8-15.9-17.6-15-17.4-14.3-17-13.3-17-12.6-16.7-11.7-16.5-10.9-16.2-2.2-3.3-2.7-3.3-6.3-7.1-8.1-7.8-9.5-8.3-3.6-3.3-3.3-3.5-3.4-3.9-3.1-4.2-2.9-4.6-2.9-4.9-2.6-5.3-2.6-5.5-0.8-1.6-1-1.3-1.1-1.1-1.4-1-2.5-1.8-1.8-1.6-1.5-1.9-1.1-2.1-0.8-2.4-2.2-8.6-1.4-4.1-1.6-4-1.7-3.9-2-3.7-2.1-3.5-2.4-3.5-3.1-3.9-3.3-3.8-3.7-3.6-3.9-3.4-23.5-47.6-24.3-47.8-2.7-4.7-2.8-4.3-3-4-3.2-3.4-3.4-3.2-3.4-2.6-3.7-2.2-3.9-1.8-2.9-1.1-3-0.9-3.1-0.6-3.2-0.4-0.7-0.5-1-0.2-1.2 0.2-1.5 0.9-0.4 0.6-4 6.8-3.7 6.9-3 6.9-2.6 6.9-2.1 6.9-1.5 7-1.1 6.9-0.6 7-0.1 7.8 0.5 7.8 1.2 7.8 1.6 7.7 1.1 4.5 5.4 22.4 4.7 22.6 4.1 22.7 3.5 22.8 3 23 2.4 23.2 1.8 23.2 1.2 23.5v3l-0.6 4-0.9 3.8-1.4 3.7-2 3.8-2.4 3.5-2.9 3.5-3.2 3.2-3.7 3.1-9.4 7-7.5 5-7.6 4.7-7.8 4.6-8.1 4.2-8.1 3.9-8.3 3.7-8.6 3.4-8.7 3.1-8.9 2.9-9.1 2.7-9.4 2.3-9.4 2.2-9.7 1.7-9.8 1.6-10 1.3-10.2 1-8.7-7-8.1-7.2-7.6-7.6-7.1-7.8-6.6-8.1-6.1-8.3-5.6-8.6-5-8.9-3.4-6.9-3.2-7-2.7-7.2-2.6-7.3-2.3-7.5-1.9-7.6-1.8-7.8-1.4-7.9-1-7.9-0.6-7.7-0.2-7.7 0.1-7.6 0.5-7.3 0.9-7.3 1.4-7.3 1.7-7.1 2.9-9.2 3.7-9.2 4.2-8.9 5-8.8 5.8-8.4 6.4-8.4 7.1-8.1 7.8-8 3.4-2.9 3.9-2.6 4.4-2.1 4.5-1.8 4.8-1.2 4.9-0.8 4.8-0.3 4.7 0.3 2.8 0.3h2.6l2.8-0.4 2.7-0.4 2.6-0.8 2.6-0.9 2.6-1.2 2.3-1.3 2.3-1.6 2.2-1.8 1.8-1.9 1.9-2.1 1.6-2.2 1.4-2.4 1.3-2.4 1-2.6 3.5-10.9 3.5-11.3 3.2-11.8 3-12.1 11.6-47.6 12.2-47.4 12.7-47.2 13.3-47.2 13.8-47 14.3-47 14.8-46.9 15.5-46.7 12-1 12.1-0.4 12.3-0.2 12.2 0.4 12.3 0.8 12.3 1.2 12.4 1.7 12.4 2.1 16.8 2.9 15.2 2.2 13.2 1.4 11.6 0.8z"/>
		<path id="Layer" class="s20" d="m2726.8 2467.6l45.2 15.3 44.7 15.8 44.3 16.3 43.9 16.9 9 3.1 14.7 4.6 46.6 13.4 11.8 3.6 11.1 4.3 10.5 4.6 9.9 5.3 9.1 5.8 8.6 6.3 7.8 6.9 7.2 7.3-26.8 73.1-23.2-6.8-23-7.3-16.6-5.4-16.4-5.8-16.5-5.9-16.4-6.1-16.2-6.4-16.3-6.6-16.1-6.8-16.2-7-15.9-7.3-16-7.4-15.8-7.8-15.8-7.9-15.7-8.2-15.7-8.3-15.6-8.6-15.4-8.8z"/>
		<path id="Layer" class="s20" d="m2935.8 2818l-110.1 118.3-4.6-0.2-4.5-0.4-4.4-0.8-4.3-1-6.5-2.3-6.5-2.9-6.3-3.9-6.4-4.7-6.3-5.3-6.6-6.5-7.2-7.8-9.9-11.2-3.7-4.1-13.2-15.3-13-15.4-12.5-15.6-12.4-15.7-12.1-15.9-11.9-16.1-11.6-16.1-11.2-16.2 5.3-7.8 5.1-7.8 4.9-7.9 4.7-8 4.6-8.2 4.2-8.2 4.1-8.3 3.8-8.4 5.2-12.3 4.8-12.6 4.3-12.7 3.9-12.9z"/>
	</g>
	<g id="Layer">
		<path id="Layer" class="s21" d="m2827.3 427.9l-9.9 6.3-9.7 6.4-9.3 6.7-9.3 6.9-8.9 7.2-8.7 7.4-8.4 7.7-8.3 7.7-95.1 93.1-95.7 92.6-5.6 5.5-5.2 5.8-7.3 9.3-7 10.2-7 11.7-9.3 16.8-0.9 1.8-105.4-67.3-1.3-1-1.1-1.1-0.5-1-0.2-1 0.2-1 0.4-1 0.9-1.1 1.3-1 10.5-8.2 11.2-9.5 11.9-10.7 16-14.9 15-14 11.3-10.1 10.4-9 10-8 16.5-12.6 16.6-12.4 16.9-12.2 17-11.9 17.4-11.8 17.5-11.7 17.5-11.4 18-11.2 18.1-11 18.3-10.9 18.5-10.7 18.7-10.5 19-10.2 19.1-10.1 19.3-9.9 19.5-9.7 2.5-0.9 2.4-0.5 2.6 0.3 2.6 0.5 2.2 1.1 2.1 1.7 1.6 1.9 1.2 2.2 0.3 0.8z"/>
		<path id="Layer" class="s21" d="m632.7 732.1l-37.5-42.7-34.3-38.3-31-33.9-27.9-29.4-33.7-34.4-38.9-38.9-44.3-43.1-49.4-47.5 18-2.1 3.7-0.5 3.4-0.9 3.4-1 3.4-1 3.5-0.7 4.7-0.3 4.8 0.4 5 1 5 1.8 20.1 8.7 20.1 9.4 20.2 10.3 20.2 11 20.4 11.8 20.3 12.7 20.6 13.5 20.7 14.3 21 15.2 21 16 21.3 17 21.8 17.9 22 19 22.7 20.2 23.6 21.6 24.6 23.1 0.3 0.4 0.7 1.3 0.1 1.5-0.5 1.5-1.2 1.1z"/>
	</g>
	<g id="Layer">
		<path id="Layer" class="s22" d="m1054.2 2390.3l28.9 83.6-57.2-2.3-11.6-0.8-13.2-1.4-15.2-2.2-16.8-2.9-12.4-2.1-12.4-1.7-12.3-1.2-12.3-0.8-12.2-0.4-12.3 0.2-12.1 0.4-12 1 14.2-54.2 1-2.3 0.7-0.9 0.8-0.7 1-0.3 1-0.2 2.4 0.1 49.2 9.4 5.7 2.5 5.6 1.8 5.6 1.1 5.8 0.5 6.8-0.1 6.9-1 12.9 2.2 6.2 0.8 6 0.6 5.6 0.2h5.5l5-0.2 4.8-0.6 4.3-0.8 4-1 3.8-1.3 3.4-1.6 3-1.6 2.7-2 2.4-2.4 2-2.5 1.9-3.1 1.4-3.7 1-3.8z"/>
		<path id="Layer" class="s22" d="m1747.6 2744.2l3.5 3.8 2.9 3.8 2.7 4.2 2.1 4.3 1.3 3.3 1.1 3.5 0.9 3.4 0.6 3.7 0.4 3.8 0.1 3.8v4l-0.3 4-1.4 8.5-2.2 8.7-3.1 9.3-4.1 9.7-5.2 11.8-4.8 11.7-4.4 11.5-3.9 11.4-3.3 11.3-3 11.2-2.3 10.9-2 10.9-0.8 3.4-1.1 2.9-1.6 2.4-2 1.8-1.3 0.9-1.6 1.3-1.3 1.4-0.8 1.8-0.5 2-1.5 17.9-2.6 19.4-0.4 1.4-0.7 1.1-0.8 0.8-1 0.6-1.3 0.9-1.1 1.1-0.7 1.1-0.4 1.4-1.8 9.9-1.6 11.1-3.3 28.6-3.5 29.6-1.6 11.4-1.9 10.4-2 11.3-1.6 11.2-1.1 10.9-0.7 10.4-0.1 10.4 0.3 9.9 0.6 9.8 1.2 9.4 1.6 9.2 2 8.6 2.6 8.6 2.9 8.2 3.4 7.8 3.8 7.6 4.3 7.1 4.7 7 3.7 4.8 4 4.6 4.1 4.4 4.3 4.3 4.6 4.1 4.9 3.9 5 3.8 5.2 3.5 3.8 2.4 3.9 2.1 4.1 2 4.3 1.8 8.8 2.9 9.3 2.3 10 1.4 10.5 0.8h11.1l11.6-0.8 15.1-1.6 14.9-2.1 14.5-2.7 14.3-3 13.6-3.6 13.4-4 12.9-4.3 12.4-4.8 11.8-5.2 11.2-5.7 10.7-6 10.1-6.5 9.7-6.8 9-7.1 8.5-7.7 7.9-7.9 18.2-19.1 19.4-19.3 4-4.1 4-4.4 3.9-4.9 3.9-5.3 3.8-5.5 3.8-6 3.6-6.5 3.7-6.8 5.1-9.5 5.5-9.2 5.5-9 5.8-8.8 6.2-8.7 6.3-8.4 6.6-8.3 6.6-8 7.8-8.6 7.9-8.3 8.3-8 8.5-7.9-5 14.1-5.1 14-5.6 14-5.6 13.8-6 13.6-6.3 13.5-6.4 13.4-6.8 13.2-6.4 11.9-6.5 11.8-6.7 11.6-7 11.6-7.3 11.4-7.3 11.4-7.7 11.2-7.8 11.1-9 12.1-9.2 11.5-9.5 11.1-9.8 10.4-10 9.8-10.2 9.4-10.5 8.6-10.7 8.3-10.8 7.4-11.1 7-11.4 6.4-11.4 5.8-11.6 5.1-11.9 4.5-11.9 3.8-12.1 3.4-13.9 2.9-14.1 2.2-14.2 1.3-14.5 0.7-14.6-0.2-14.7-1-14.9-1.9-15-2.6-12-2.7-11.5-3.5-10.8-4-10.2-4.7-9.6-5.3-9.1-5.9-8.4-6.6-7.7-7.2-3.7-3.9-3.6-4-3.4-4.4-3.3-4.3-5.9-9.1-5.3-9.9-4.6-10.4-4-11-3.3-11.7-2.6-12.2-2-12.8-1.2-13.4-0.5-13.9 0.1-14.4 0.9-14.8 1.4-15.1 2.2-15.5 2.9-15.8 10-47.9 10.7-47.9 11.3-47.6 11.9-47.5 11.2-42.7 11.7-42.4 12.2-42.2z"/>
		<path id="Layer" class="s22" d="m1454.5 2755.9l15.7 60.9 15.9 61.3 16.4 61.1 16.7 61.3 6 22.5 5.2 21.5 4.7 21 3.9 19.9 3.3 19.2 2.6 18.4 1.9 17.6 1.2 16.8 0.4 12.7-0.2 12.6-0.8 12.4-1.3 12-2 12-2.6 11.3-3.1 11-3.7 10.6-4.1 10.1-4.8 9.5-5.2 9-5.8 8.5-6.2 7.9-6.7 7.3-7.2 6.7-7.7 6.1-5.2 3.7-5.5 3.3-5.6 3.2-5.9 2.8-5.9 2.7-6.2 2.3-6.2 2-6.6 1.8-12.5 2.9-12.2 2.6-12.1 2.1-12 1.7-12 1.2-11.6 0.8-11.6 0.4h-11.4l-11.2-0.4-11.1-0.8-11.1-1.2-10.8-1.7-10.6-2.1-10.6-2.6-10.4-2.9-10.2-3.3-8.8-3.2-8.8-3.6-8.6-3.9-8.4-4.2-8.4-4.6-8.2-4.9-8.1-5.1-8.1-5.5-7.9-5.8-7.8-6.1-7.7-6.4-7.6-6.8-7.4-7-7.5-7.5-7.2-7.7-7.2-8-10-11.9-9.9-12.5-9.7-12.9-9.4-13.3-9.4-13.8-9.2-14.3-9-14.8-8.8-15.2-8.6-15.7-9.7-18.6-10.9-21.5-12-24.3-13-27.3-14.3-30.2-31.9-69.1 3.9 3.4 3.7 3.6 3.3 3.8 3.1 3.9 2.4 3.5 2.1 3.5 2 3.7 1.7 3.9 1.6 4 1.4 4.1 2.2 8.6 0.8 2.4 1.1 2.1 1.5 1.9 1.8 1.6 2.5 1.8 1.4 1 1.1 1.1 1 1.3 0.8 1.6 2.6 5.5 2.6 5.3 2.9 4.9 2.9 4.6 3.1 4.2 3.4 3.9 3.3 3.5 3.6 3.3 9.5 8.3 8.1 7.8 6.3 7.1 2.7 3.3 2.2 3.3 10.9 16.2 11.7 16.5 12.6 16.7 13.3 17 14.3 17 15 17.4 15.9 17.6 16.7 17.8 6.1 6.1 6.3 5.9 6.7 5.9 6.9 5.6 7.2 5.4 7.4 5.3 7.7 5 7.8 4.8 8 4.5 8.2 4.4 8.4 4.1 8.5 3.8 8.5 3.5 8.8 3.3 8.8 3 8.9 2.6 8.8 2.5 9 2 8.8 1.8 8.9 1.5 8.9 1.1 8.9 0.9 8.7 0.6 8.8 0.2h8.7l8.5-0.4 8.5-0.7 8.5-1 8.1-1.2 8.1-1.7 7.9-1.9 7.9-2.2 7.9-2.8 7.7-3.3 7.2-3.8 6.9-4.4 4.1-3 3.9-3.2 3.9-3.5 3.6-3.5 3.6-3.9 3.3-4 3.3-4.2 3-4.5 2.9-4.7 2.8-4.8 2.6-5 2.4-5.2 4.5-11 3.8-11.7 3.1-12.6 2.4-13.2 1.8-13.8 1.1-14.4 0.4-14.9-0.4-15.1-1-15.4-1.8-15.2-2.6-18.3-3-17.8-3.5-17.7-3.7-17.2-4.1-17.1-4.4-16.5-4.9-16.5-5.1-16-3.3-10.2-3.1-10.4-2.9-11.2-2.8-11.5-5.4-25.4-6.6-34.8-4.7-25.8-3.7-18.9-0.6-3.5v-3.3l0.6-3.1 1-2.8 1-1.9 1.2-1.7 1.5-1.6 1.8-1.6 2-1.3 2.2-1.3z"/>
		<path id="Layer" class="s22" d="m2413.4 3175.9l-12.1 8.5-12.5 8.1-12.5 7.3-12.8 6.7-12.8 6-13.1 5.4-13.2 4.8-13.5 4.3-9.7 2.5-9.8 2.4-9.8 1.8-10 1.7-10 1.2-10.1 1-10.3 0.7-10.2 0.3-10.5 0.2-10.4-0.4-10.6-0.5-10.7-1-10.8-1.3-10.8-1.5-11-1.9-11-2.2-2-0.6-1.6-0.8-1.2-0.9-0.7-1.1-0.3-1.3 0.2-1.5 0.6-1.6 1-1.8 11.9-18.8 11.2-18.9 10.7-19.3 10.1-19.4 9.6-19.7 8.9-19.8 8.4-20 7.7-20.3 6.5-18.2 6-18.4 3-10.2 2.7-10.5 2.5-11.1 2.3-11.6 2.1-11.9 1.9-13.1 4.4-34.4 3.5-28.2 3.1-20.6 3.3-18.5 3.8-17.1 1.4-4.7 1.6-4.8 2.1-4.7 2.4-4.6 2.1-4.2 1-3.7 0.2-1.6v-1.6l-0.3-1.4-0.6-1.4-1-1.4-1.5-1.4-1.9-1.1-2.4-0.8-2.6-0.6-3.3-0.5-3.5-0.1h-4l2.7-2.4 2.7-2 2.6-1.7 2.5-1.2 2.5-0.9 2.4-0.6 2.3-0.1 2.2 0.3 2.8 0.9 2.5 1.5 2.6 2.2 2.3 2.8 1.5 2.4 0.6 2.7v2.8l-0.7 2.9-1 3.1-0.8 3.1-0.5 3.2-0.1 3.2 0.5 4.4 1 4.5 1.3 4.8 1 4.7 0.8 4.8 0.5 4.8 0.4 5.4 0.1 5.3-0.2 5.3-0.6 5.5-8.2 67.1-7.5 62.9-6.4 58.7-5.7 54.7-0.3 5.3v5.1l0.3 4.9 0.8 4.6 1.1 4.3 1.5 4.1 1.8 3.7 2.4 3.6 2.3 3 2.8 2.8 3.1 2.5 3.3 2.4 3.7 2.1 4.1 1.9 4.4 1.6 4.6 1.4 13.4 3.1 13.7 2.5 14 1.7 14.5 1.2 14.8 0.3 15.1-0.3 15.5-1z"/>
		<path id="Layer" class="s22" d="m868.9 2805.3l-0.7 2.5-0.4 2.6-0.2 5.6 0.6 6 1.6 6.3 4.4 15 1.8 6.7 6.3 30.3 6.7 28.9 6.9 27.9 7.1 26.9 7.6 26 7.9 25.3 8.3 24.5 8.7 23.9 9.2 23.1 9.5 22.6 9.9 22.1 10.5 21.3 10.9 20.8 11.4 20.4 11.7 19.7 12.3 19.3 0.4 0.7 0.1 1.7-0.5 1.6-1.1 1.1-1.6 0.5-20.8 1.7-21 0.9-21.2 0.3-21.2-0.4-21.5-1.2-21.6-1.8-21.7-2.6-21.9-3.2-10.9-2-10.6-2.2-10.2-2.5-10.1-2.8-9.6-3.1-9.5-3.3-9.1-3.7-8.8-3.9-8.6-4.2-8.3-4.5-7.9-4.6-7.7-5-7.5-5.4-7-5.6-6.8-5.9-6.5-6.1 10.2-1 10-1.3 9.8-1.6 9.7-1.7 9.4-2.2 9.4-2.3 9.1-2.7 8.9-2.9 8.7-3.1 8.6-3.4 8.3-3.7 8.1-3.9 8.1-4.2 7.8-4.6 7.6-4.7 7.5-5 9.4-7 3.7-3.1 3.2-3.2 2.9-3.5 2.4-3.5 2-3.8 1.4-3.7 0.9-3.8 0.6-4v-3l-1.2-23.5-1.8-23.2-2.4-23.2-3-23-3.5-22.8-4.1-22.7-4.7-22.6-5.4-22.4-1.1-4.5-1.6-7.7-1.2-7.8-0.5-7.8 0.1-7.8 0.6-7 1.1-6.9 1.5-7 2.1-6.9 2.6-6.9 3-6.9 3.7-6.9 4-6.8 0.4-0.6 1.5-0.9 1.2-0.2 1 0.2z"/>
		<path id="Layer" class="s22" d="m2568.1 2819l8.4 30.5 8.2 30.4 7.9 30.2 7.5 30.2 2.7 10 4.2 14.2 6.9 23.3 2.4 9.2 1.8 8.6 1.5 8.5 1 8.2 0.8 7.9 0.2 7.8-36.1 11.6-2.7 0.6-2.5 0.1-2.1-0.2-1.8-0.8-1.5-1.3-1.2-1.7-0.9-2.2-0.7-2.7-3.5-17.4-4.1-17.2-4.8-16.6-5.5-16.1-6.3-15.8-7-15.3-7.6-14.9-8.4-14.3-5.8-9.1-6.1-9-6.5-8.6-6.6-8.5-7-8.3-7.3-8.2-7.5-8-7.9-7.8-1.8-1.9-1.1-1.6-0.6-1.5 0.1-1.3 0.7-1.1 1.2-1 1.9-0.8 2.4-0.6z"/>
	</g>
	<g id="Layer">
		<path id="Layer" class="s15" d="m2160.2 1592.4c-49.4 0-89.3-39.9-89.3-89.3 0-49.3 39.9-89.2 89.3-89.2 49.4 0 89.3 39.9 89.3 89.2 0 49.4-39.9 89.3-89.3 89.3z"/>
		<path id="Layer" class="s15" d="m1023.6 1591.4c-43.7 24.4-98.3 9.7-122.1-33-23.8-42.6-7.8-96.9 35.9-121.3 43.7-24.4 98.2-9.6 122.1 33 23.8 42.7 7.8 96.9-35.9 121.3z"/>
	</g>
	<g id="Layer">
		<path id="Layer" class="s0" d="m2119 1144.1c-44.9 0-81.2-31.2-81.2-69.9 0-38.6 36.3-69.9 81.2-69.9 44.9 0 81.3 31.3 81.3 69.9 0 38.7-36.4 69.9-81.3 69.9z"/>
		<path id="Layer" class="s0" d="m1024.1 1145.7c-44.4 3.4-82.6-24-85.4-61.4-2.9-37.4 30.6-70.4 75-73.8 44.4-3.4 82.5 24.1 85.4 61.4 2.9 37.4-30.6 70.4-75 73.8z"/>
		<path id="Layer" class="s0" d="m1551.2 1725.5l0.6-1.4 0.3-1.6v-1.7l-0.2-1.5-0.6-1.5-0.7-1.4-1-1.2-1.2-1.1-5.2-3.6-15.1-10.9-11.3-9-4.9-4.5-4.5-4.3-3.9-4.3-3.6-4.1-3.1-4.2-2.7-4.1-2.3-4.3-1.7-4-1.3-4-0.8-4-0.5-3.9 0.2-4 0.3-2.8 0.7-2.6 1.7-5.4 1.7-3.5 1.9-3.5 2.1-3.3 2.4-3 4-4.6 4.6-4.2 5-3.7 5.6-3.3 6.1-2.8 6.5-2.5 6.9-1.9 7.3-1.5 7.9-1 8.3-0.6h8.4l8.7 0.6 8.8 0.9 8.8 1.4 8.6 2 8.3 2.4 4.2 1.5 4.2 1.8 4 2.2 3.7 2.4 3.6 2.6 3.5 3 3.1 3.2 2.9 3.2 2.4 3.4 2.1 3.6 1.8 3.6 1.5 3.6 1 3.7 0.6 3.8 0.2 3.5-0.1 3.8-0.4 2.9-0.7 2.9-0.8 2.8-1.1 2.8-1.4 2.7-1.6 2.7-3.9 5.3-7.4 8.4-6 6.4-6.3 6.2-6.4 6-6.6 5.9-1.5 1.6-1.5 1.7-1.2 1.9-0.9 2-0.7 2.2-0.3 2.2-0.1 2.2 0.1 2.2 1.8 9.6 2.4 9 1.6 4.2 1.6 4.2 1.9 3.9 2 3.6 2.3 3.6 2.3 3.3 2.6 3.2 2.6 2.8 2.9 2.7 2.9 2.5 3.1 2.2 3.3 1.9 3.6 2 4 1.7 4.1 1.3 4.2 1 4.3 0.8 4.5 0.4 4.5 0.2 4.8-0.1 5.9-0.4 5.7-0.9 5.2-1.1 5-1.5 4.8-1.7 4.5-2.2 4.2-2.5 3.9-2.7 3.2-2.8 3-3 2.8-3.2 2.7-3.5 2.4-3.9 2.3-4 2.1-4.3 1.9-4.8 1.7-4.8 1.6-5.3 2.9-11.7 2.4-13.6 2.4-17.5 0.8-3.2 1.4-2.9 2-2.5 2.7-2.1 2.9-1.5 3.2-0.7h3.3l3.3 0.7 2.7 1.3 3.3 2.2 2.9 2.4 2.5 2.6 2.4 2.9 2.2 3.5 1.8 4 1.4 4.3 0.9 4.5 0.9 6.8 0.6 6.7 0.3 6.7-0.1 6.5-0.2 6.4-0.7 6.2-0.9 6.1-1.3 6-1.5 5.9-1.9 5.8-2.1 5.5-2.4 5.3-2.7 5.1-3 5-3.2 4.8-3.6 4.6-3.9 4.4-4.3 4.4-4.5 4-4.9 3.8-5 3.4-5.3 3.3-5.5 3-5.8 2.6-6 2.3-6.1 2.1-6.4 1.6-6.5 1.5-6.7 1.1-6.9 0.9-7 0.4-7.1 0.3-9-0.3-8.8-0.7-8.5-1.3-8.1-1.7-7.8-2.4-7.5-2.8-7.2-3.2-6.9-3.9-7.3-4.8-6.9-5.4-6.6-6.2-6.1-6.7-1.5-1.4-1.7-1-1.8-0.6-1.9-0.2-2 0.3-1.8 0.6-1.7 1.1-1.3 1.4-1 1.5-3.9 6.9-2.1 3.3-2.4 3-2.3 2.8-2.7 2.5-2.7 2.4-2.8 2.2-3.3 2.2-3.4 1.9-3.7 1.8-3.8 1.4-5.7 1.9-5.6 1.6-5.8 1.4-5.8 1.2-5.8 0.9-5.8 0.7-5.8 0.6-5.8 0.2h-5.9l-5.7-0.2-5.7-0.5-5.7-0.7-5.6-1-5.5-1.1-5.5-1.4-5.3-1.6-5.2-1.8-5.2-2.1-5-2.2-4.8-2.6-4.6-2.6-4.6-2.8-4.3-3.1-4.2-3.3-3.9-3.4-3.7-3.6-3.6-3.6-3.3-4-3.2-4-2.8-4.3-2.6-4.3-2.5-4.5-2.1-4.5-1.9-4.7-1.6-4.8-1.5-4.9-1.1-4.9-1-5.1-0.7-5.1-0.4-5.3-0.1-5.3 0.1-5.3 0.2-5.5 0.7-5.4 0.8-5.6 1.1-5.6 1.3-5.7 1.6-5.6 1.1-2.8 1.5-2.5 2.2-2.2 2.3-1.8 2.7-1.3 2.9-0.8 2.9-0.2 3 0.2 3.7 1 3.5 1.6 3.6 2.3 3.2 3.1 2.9 3.8 2.5 4.6 2.3 5.1 1.9 6 1.7 6.9 2.1 9.6 1.6 7.7 1.3 5.1 2.5 6.8 3.1 6.4 3.8 5.7 2.2 2.8 2.4 2.4 2.7 2.7 3 2.4 3.3 2.3 3.3 2.1 3.6 1.8 3.6 1.5 3.8 1.3 3.9 1.1 4 0.7 4.1 0.6 4.2 0.2 4.2 0.1 4.2-0.2 4.2-0.5 4.3-0.7 4.2-1 4.8-1.5 4.7-1.6 4.5-2 4.5-2.1 6.1-3.8 5.8-4.1 5.6-4.8 5.2-5.4 4.9-5.9 4.7-6.4 4.3-6.9z"/>
	</g>
</svg>