<svg version="1.2" xmlns="http://www.w3.org/2000/svg" viewBox="0 0 3600 3600" width="3600" height="3600">
	<title>darkgrey1-svg</title>
	<style>
		.s0 { fill: #250c00 } 
		.s1 { fill: none;stroke: #746b65;stroke-width: 3.3 } 
		.s2 { fill: none;stroke: #bdb9b6;stroke-width: 3.3 } 
		.s3 { fill: none;stroke: #bd9587;stroke-width: 3.3 } 
		.s4 { fill: none;stroke: #533b37;stroke-width: 3.3 } 
		.s5 { fill: none;stroke: #955d51;stroke-width: 3.3 } 
		.s6 { fill: none;stroke: #958180;stroke-width: 3.3 } 
		.s7 { fill: none;stroke: #ffdbd0;stroke-width: 3.3 } 
		.s8 { fill: none;stroke: #fcecdf;stroke-width: 3.3 } 
		.s9 { fill: none;stroke: #ae7f73;stroke-width: 3.3 } 
		.s10 { fill: none;stroke: #442623;stroke-width: 3.3 } 
		.s11 { fill: none;stroke: #baa696;stroke-width: 3.3 } 
		.s12 { fill: none;stroke: #ab9181;stroke-width: 3.3 } 
		.s13 { fill: none;stroke: #a76558;stroke-width: 3.3 } 
		.s14 { fill: none;stroke: #f89c87;stroke-width: 3.3 } 
		.s15 { fill: none;stroke: #655550;stroke-width: 3.3 } 
		.s16 { fill: #ffffff } 
		.s17 { fill: #7b736d } 
		.s18 { fill: #ffb6a1 } 
		.s19 { fill: #f9d9be } 
		.s20 { fill: #6d625c } 
		.s21 { fill: #f1826c } 
		.s22 { fill: #5d4844 } 
	</style>
	<path id="Layer" class="s0" d="m2797.5 3179.8l-3.7 12.3-3.9 12.1-4.4 11.7-4.6 11.3-4.8 10.8-5.1 10.6-5.5 10.1-5.9 9.8-6 9.5-6.3 8.9-6.7 8.7-7 8.3-7.3 7.9-7.5 7.5-7.9 7.1-8.2 6.8-1.2 1-6.8 5.1-7 5-7.4 4.9-7.8 4.5-8.2 4.6-8.4 4.5-8.6 4.3-9.1 4.2-18.9 7.8-19.9 7.3-21 6.5-21.7 5.9-22.6 5.1-23.1 4.2-23.2 3.4-23.3 2.5-23.1 1.5-22.9 0.6-22-0.2-21.5-1.3h-2.3l-2.4 0.2-2.3 0.6-2.1 0.8-2.1 1.2-1.8 1.4-1.8 1.7-1.4 1.7-8.6 12.3-9 11.9-9 11.2-9.2 10.8-9.6 10.5-9.5 9.8-10 9.4-10.1 9-10.2 8.5-10.4 7.9-10.7 7.6-10.9 7.1-11.1 6.5-11.2 6.1-11.5 5.6-11.6 5.1-12.8 5.1-13 4.5-13.2 3.8-13.4 3.5-13.7 2.8-13.9 2.3-14.1 1.6-14.5 1.2-14.5 0.6-14.9 0.2-15.1-0.6-15.3-1-15.4-1.5-15.8-2.2-16-2.7-16.2-3.1-7.8-2-7.6-2.1-7.3-2.6-7.1-2.8-6.9-3.3-6.6-3.4-6.6-4-6.1-4.2-6-4.6-5.7-4.8-5.5-5.4-5.2-5.5-5.1-6-4.7-6.2-4.5-6.7-4.2-6.9-4.1-7.4-3.7-7.5-3.6-7.9-3.2-8.2-2.9-8.6-2.8-8.8-2.4-9.1-2.2-9.6-0.5-1.7-0.6-1.4-0.9-1.3-1.2-0.9-1.1-0.5-1.6-0.4-1.5-0.1-1.8 0.2-12.1 2.1-12.1 1.7-12.1 1.5-12.3 1-12.4 0.6-12.3 0.3h-12.5l-12.5-0.4-2.1 0.1-1.9 0.3-1.9 0.6-1.8 1-1.5 1.2-1.4 1.4-1.3 1.5-0.9 1.8-8 17.5-7.3 14.5-7.1 12.8-7.3 11.4-7.7 10.4-7.9 9.4-8.4 8.4-8.9 7.8-9.8 7-10.5 6.4-11.1 5.6-12 4.9-16.2 5.6-16.3 4.8-16.2 4.1-16.2 3.3-16.2 2.6-16.2 1.8-16.2 1-16.2 0.2-14.2-0.3-14-0.9-14.2-1.7-14-2-14.2-2.8-14-3.4-14.1-3.8-14.1-4.4-12.6-4.6-12.3-5.1-11.8-5.8-11.6-6.4-8.3-4.9-8.2-5.4-7.9-5.6-7.8-5.9-7.6-6.2-7.4-6.5-7.3-6.9-7.1-7.2-6.9-7.5-6.7-7.8-6.6-8-6.4-8.4-6.1-8.8-6-9-5.9-9.3-5.6-9.7-1.8-2.6-2.1-2.5-2.4-2-2.7-1.8-4.1-2-4.1-1.8-4.2-1.3-4.2-1-4.7-0.7-4.7-0.2-26.6-0.6-25.7-1.4-24.8-2.5-24.1-3.2-23-4-11.2-2.3-11-2.7-10.7-2.7-10.6-3.1-10.2-3.1-10.2-3.6-9.8-3.6-9.6-3.8-9.4-4.1-9.2-4.3-8.9-4.5-8.7-4.8-8.4-4.9-8.3-5.2-8-5.4-7.8-5.6-7.5-5.7-7.4-6-7.1-6.3-6.8-6.4-6.5-6.6-6.6-6.9-9.5-11.2-8.9-11.7-8.5-12.3-7.7-12.7-7.3-13.3-6.7-13.8-6.1-14.4-5.5-14.8-6.8-19.6-6.3-19.9-5.5-20.1-4.7-20.1-3.8-19.8-3.2-19.9-2.4-20-1.7-20.2-1-20.4-0.4-20.5 0.4-20.7 1.1-20.8 4.4-59.3 1.5-15.2 2.3-14.6 2.9-13.9 3.7-13.4 2.2-7.6 2.2-8 4.4-21.3 3.2-14.9 2.7-11 2.7-9.8 3.2-9.2 10.9-28.3 11.4-28 12-27.5 12.3-27.1 13.1-26.6 13.5-26.3 13.9-25.8 14.5-25.3 1.2-2.5 0.6-2 0.1-1.8-0.3-1.5-1.1-1.3-1.5-1-2-0.7-2.7-0.3-12-0.9-4.3-0.5-4.4-0.9-4.2-1.1-4.2-1.4-23.7-8.9-23.1-8.9-22.5-9.1-21.8-9-21-9.1-20.6-9.2-19.7-9.2-19.2-9.3-18.6-9.3-17.7-9.3-17.2-9.3-16.6-9.4-15.8-9.6-15.3-9.5-14.6-9.6-13.9-9.6-15.3-11.1-15.1-11.4-14.6-11.4-14.4-11.8-14.2-12-13.8-12.1-13.5-12.5-13.3-12.6-12.8-12.8-12.7-13.1-12.3-13.3-12-13.5-11.9-13.6-11.4-14.1-11.2-14.1-10.8-14.3-17-23.8-16.2-24.3-15.3-24.9-14.7-25.4-13.9-26-13-26.7-12.4-27.1-11.4-27.7-1.7-3.2-2.2-2.9-2.6-2.5-3.1-1.9-3.3-1.4-3.6-0.7h-3.7l-3.6 0.5-9.3 2.7-9 3-8.8 3.6-8.7 3.9-9.6 5.1-9.2 5.7-8.9 6.2-8.7 6.9-6 4.5-2.9 1.7-3 1.4-3.1 1.2-3.1 0.8-2.9 0.6-3.1 0.1h-3.3l-3.2-0.5-3.2-0.8-3.3-1.1-3.3-1.4-3.2-1.8-3.3-2.2-3.3-2.5-3.6-3.3-2.8-3.6-1.9-3.6-1-3.8-0.3-3.8 0.7-4.1 1.5-4.2 2.4-4.3 1.2-1.8 6.5-8.7 7.1-8 8.2-7.8 9-7.3 9.8-6.9 11.4-7 12.8-7.1 17.9-9.4 17.3-8.9 12.3-6.7 1.7-1.1 1.3-1.2 1-1.3 0.8-1.4 0.5-1.7 0.2-1.6v-1.8l-0.4-1.9-5.2-22.7-4.8-23-4.4-23-3.8-23.1-3.4-23.3-3-23.3-2.4-23.5-2-23.6-0.3-2.2-0.6-1.8-0.8-1.5-1.2-1.3-1.2-0.9-1.7-0.6-1.8-0.4h-2.1l-15.5 0.9-15.5 1.5-15.7 2-15.8 2.4-16 2.9-16.2 3.5-16.2 3.9-16.3 4.5-6.5 1.4-6.1 0.5-5.9-0.7-2.7-0.5-2.7-0.9-2.5-1.1-2.6-1.4-4.6-3.4-4.3-4.5-4-5.5-1.1-2.2-1-2.3-0.5-2-0.8-5.2 0.1-4.8 0.8-4.3 1.5-4.1 2.3-3.5 3.1-3.2 3.8-2.8 4.5-2.5 9-3.9 9.1-3.8 9.2-3.5 9.3-3.3 14.4-4.5 14.7-3.9 14.9-3.2 15-2.8 15.3-2.1 15.5-1.5 15.7-0.9 15.8-0.4 1.8-0.2 1.6-0.5 1.6-0.8 1.2-1.1 1.2-1.3 0.8-1.6 0.5-1.6 0.2-1.8 1-32.5 1.8-32.3 2.7-32.1 3.5-32.1 4.3-31.7 5.1-31.5 5.9-31.4 6.8-31.3 4.3-17.4 4.3-17.4 4.7-17.5 5-17.2 5.3-17.2 5.5-17.2 5.8-17.1 6-17.1 6.3-17 6.5-16.9 6.9-17 7.1-16.7 7.4-16.9 7.5-16.7 7.9-16.5 8.1-16.6 0.8-1.8 0.4-1.9 0.3-1.9-0.2-2.1-0.5-1.9-0.6-1.8-1-1.6-1.3-1.6-7.5-8.3-7.4-8.8-7.3-9.4-7-10-6.8-10.4-6.6-11.1-6.5-11.7-6.3-12.2-6.1-12.8-5.9-13.3-5.8-14-5.7-14.7-5.4-15.3-5.5-16.2-5.5-17-5.5-18.4-6.8-23.8-6.2-23.7-5.6-23.8-5.2-23.7-4.8-23.7-4.2-23.7-3.8-23.6-3.2-23.8-2.7-23.6-2.3-23.6-1.6-23.6-1.2-23.6-0.7-23.4-0.3-23.5 0.4-23.6 0.8-23.5 0.8-18.2 1.3-18.4 1.7-18.4 1.9-18.2 2.2-18.4 2.4-18.2 2.8-18.2 3.2-18.3 3.4-18.2 3.7-18.3 4.1-18.2 4.3-18.1 4.6-18.3 5-18.1 5.2-18.2 5.7-18.1 3.3-9.9 3.9-9.9 4.5-10 5-10.2 5.5-10.3 5.9-10.4 6.7-10.6 7.1-10.8 4.7-6.3 5-6.2 5.4-5.9 5.6-5.7 6.1-5.4 6.4-5.1 6.7-5 7.2-4.7 7.5-4.5 7.8-4.2 8-4 8.6-3.7 8.8-3.4 9.3-3.3 9.4-3 9.9-2.6 10.3-2.6 10.6-2.2 10.8-1.9 11.2-1.8 11.5-1.4 11.8-1.1 12.1-0.9 12.4-0.6 12.6-0.6h12.9l13.1 0.2 13.3 0.4 13.5 0.6 13.6 1 13.7 1.3 13.6 1.4 38.4 5 38.3 6 36.5 6.6 36.2 7.5 36.2 8.4 36 9.4 36 10 35.7 11.1 35.6 11.9 35.3 12.7 35.4 13.7 35 14.5 35 15.5 34.8 16.3 34.7 17.2 34.6 18 34.4 19 34.2 19.8 3.2 1.5 3.3 0.7h3.5l3.4-0.9 25.8-9.6 26-8.9 26.1-8.6 26.3-8 26.5-7.7 26.8-7 26.9-6.5 27-6.1 27.3-5.6 27.3-5.1 27.4-4.5 27.5-4.1 27.8-3.5 28-3.2 27.9-2.6 28.1-2 28.2-1.6 28.3-1 28.3-0.6h28.5l28.5 0.5 28.5 0.9 28.7 1.5 28.5 1.9 28.7 2.6 28.7 2.9 28.8 3.5 28.8 4 28.6 4.5 28.7 5 28.7 5.5 28.5 6 18.9 4.3 18.8 4.7 18.6 5.1 18.4 5.5 18.2 6 18.1 6.2 17.9 6.8 17.7 7.2 4.6 1.4 4.6 0.2 4.4-0.5 4.5-1.7 29.9-14.1 28.7-14 27.4-13.8 26.3-13.5 24.1-12.4 24.2-12 24.2-11.5 24.5-11 24.4-10.5 24.6-10.1 24.8-9.6 24.7-9.2 24.9-8.7 24.9-8.1 25.1-7.8 25.1-7.3 25.3-6.7 25.4-6.4 25.3-5.9 25.6-5.5 30.4-5.7 30.7-5.2 30.7-4.5 31-3.9 31-3.2 31.1-2.6 31.4-1.8 31.4-1.2 14.3-0.2 15.3 0.7 16.2 1.1 17.1 1.9 18 2.4 18.8 3.1 19.9 3.7 20.8 4.3 11.8 3.1 11.3 3.7 11 4.6 10.4 5.4 6.3 3.8 6.1 3.9 5.9 4.4 5.8 4.7 5.7 4.8 5.3 5.3 5.4 5.6 5.1 5.7 4.8 6.3 4.9 6.4 4.6 6.7 4.4 7 4.2 7.4 4.1 7.7 4 7.9 3.7 8.3 5.5 12.9 5.2 13 5.1 13.4 4.8 13.5 9.1 27.5 8.4 28.6 7.5 29.2 6.8 30 6 30.6 5 31 4.2 31.6 3.2 31.9 2.4 32.3 1.5 32.4 0.7 32.7-0.4 32.6-1.2 32.6-2.1 32.4-3 32-3.8 31.7-4.8 31.5-5.5 30.9-6.5 30.4-7.2 29.8-8.1 29.2-8.8 28.5-9.7 27.5-10.4 26.8-5.5 13.2-5.6 12.8-5.8 12.7-6 12.3-6.2 12.3-6.3 11.8-6.5 11.7-6.8 11.4-6.9 11.1-7 11-7.1 10.6-7.4 10.5-1.8 3.1-0.8 3.4 0.1 3.3 1.2 3.3 14.5 31.9 13.8 32.8 13 33.1 12.4 33.8 11.3 34 10.5 34.1 9.4 34.1 8.6 34.1 7.5 33.6 6.4 33.3 5.5 32.9 4.3 32.6 3.3 31.9 1.2 15.7 1 15.6 0.6 15.4 0.5 15.3 0.2 15-0.2 14.9 0.2 1.8 0.2 1.6 0.7 1.4 0.7 1 1.2 0.9 1.3 0.6 1.5 0.5 1.8 0.1 15.8 0.2 19.4 0.1 7.2 0.4 6.7 0.6 6.1 0.9 5.7 1.3 5.1 1.5 4.8 1.9 1.2 0.5 3.9 1.3 4.2 0.7 4.4 0.3h6.4 6.1l4.5 0.3 4.2 0.6 3.8 1.1 14.3 4.9 14.2 5.3 14 5.6 13.8 5.8 2.8 1.7 2.2 2 1.6 2.8 0.9 3.5 0.4 6.5-0.5 6.5-1.4 6.4-2.4 5.8-3.1 5.1-3.7 4.4-2 1.8-2.3 1.6-2.3 1.3-2.5 1.1-3.9 1.2-4.1 0.5-4.2-0.1-4.5-0.7-4.8-1-16-3.3-16-3.1-16.2-2.5-16.2-2.2-16.2-1.9-16.5-1.5-16.3-1.3-16.6-0.8-2.8 0.3-2 1-1.6 1.9-0.7 2.6-1.8 11.5-1.4 11.6-1.2 11.7-0.7 11.7-0.5 11.9-0.3 12v12.1l0.4 12.1v5l-0.3 5.4-0.5 5.4-0.9 5.9-2.5 12.8-4.6 17.2-3.2 12.1-2.2 8.9-1.5 7.9-1.2 7.4-0.1 2.7 0.4 2.7 0.8 2.6 1.2 2.4 1.7 2.1 1.9 1.8 2.3 1.6 2.4 1 15.2 5.6 14.6 6 13.7 6.5 13 7.1 12.4 7.4 11.6 8.1 10.9 8.5 10.2 9 4 4.4 3.2 4.5 2.1 4.7 0.5 2.3 0.4 2.4 0.1 2.3-0.1 2.4-1.2 5-2.1 5-3.2 5.1-4.4 5.2-4.8 4.5-3.1 2.3-3.3 2.2-4.2 2-4.5 1.4-4.7 0.6-4.7-0.1-4.6-0.8-4.5-1.5-4.2-2.3-3.7-2.8-9.8-8.3-9.9-7.5-10.1-6.9-10.2-6.1-10.5-5.4-10.4-4.7-10.8-4-10.7-3.3-1.6-0.2h-1.7l-1.7 0.2-1.5 0.7-1.5 0.7-1.3 1.2-1 1.3-0.8 1.5-17.6 41.7-17.2 41.6-5.5 12.9-6.2 12.9-6.8 13.2-7.7 13.5-8.1 13.8-9.3 14.9-10.7 16.2-14.8 22.1-20.4 30.6-6.4 9.6-6.8 9.2-6.9 9-7 8.7-7.4 8.4-7.5 8.3-7.8 7.9-8 7.8-24.8 22.7-23.3 21.1-22.1 19.1-20.8 17.3-19.4 15.6-18.1 13.8-16.8 11.8-15.5 10.2-25.1 15.5-25.4 15-25.5 14.8-25.6 14.4-25.9 14.1-26 13.6-26.2 13.3-26.3 13-13.4 6-14.1 5.2-15.2 4.7-16.1 4-5.1 1.5-3.9 1.9-1.7 1.2-1.3 1.3-1.1 1.2-0.8 1.6-0.5 1.5-0.2 1.8v1.8l0.2 1.9 1.4 4.2 2.4 4.7 46.9 76.8 2.4 3.6 2.7 2.8 2.9 2 3.2 1.4 3.3 0.8 3.6-0.1 3.7-0.7 3.9-1.4 11.9-5.1 11.7-5.3 11.5-5.6 11.2-5.7 11.1-5.9 11-6.2 10.7-6.4 10.6-6.6 10.5-6.9 10.3-7 10.3-7.4 10.1-7.5 10.1-7.9 9.8-8.1 9.8-8.4 9.7-8.6 9.7-9 9.7-9.3 19-19.4 19.1-20.8 19-22.3 20.6-24.4 18.9-21.5 18.1-19.7 17.5-17.9 17.3-16.9 17.1-15.3 16.8-14.2 17-12.8 16.8-11.8 16.9-10.6 8.3-4.8 8.5-4.6 8.3-4.2 8.6-4 8.2-3.7 8.5-3.3 8.4-3 8.5-2.8 8.3-2.5 8.6-2.3 8.3-1.8 8.5-1.6 15.3-2.3 15.2-1.8 14.9-1 14.7-0.4 14.4 0.3 14.2 0.9 13.7 1.4 13.7 2.1 13.2 2.8 12.9 3.5 12.5 4.1 12.2 4.7 11.8 5.2 11.5 6 11 6.5 10.6 7.2 6.5 4.8 6.3 5.2 6.3 5.4 6.1 5.7 5.9 5.8 5.6 6.1 5.5 6.4 5.3 6.6 5.1 6.9 4.9 7 4.7 7.3 4.6 7.5 4.2 7.8 4.2 8 3.8 8.1 3.7 8.4 4.2 10.7 3.9 10.8 3.4 11 3 11.2 2.5 11.4 2 11.5 1.7 11.6 1.3 11.7 0.7 12 0.3 11.9-0.1 12.1-0.5 12.2-1.1 12.3-1.4 12.3-1.9 12.4-2.3 12.5-2.6 12.5-3.2 12.5-3.7 12.6-4.1 12.5-4.5 12.5-4.8 12.5-5.4 12.4-5.6 12.3-6.1 12.2-6.5 12-6.9 12-7.2 11.7-7.6 11.5-7.8 11.4-8.3 10.9-8.4 10.9-13.8 16.3-14.8 16.2-15.7 16.3-16.8 16.2-17.9 16.1-18.8 16.2-19.9 16.1-21 16-16.2 11.8-16.2 11.3-16.5 10.9-16.8 10.4-19.5 11.5-19.7 11-20.2 10.5-20.5 9.9-21 9.3-21.3 9.1-21.8 8.4-22.3 8-22.7 7.7-23.2 7.1-24 6.7-24.5 6.3-25.1 5.9-25.9 5.6-26.8 5.1-27.6 4.9-3.1 0.3-3.2-0.1-3-0.4-3-0.5-5.5-0.1-77.1 4.5-1.9-0.2-1.8-0.5-1.7-1.3-1.4-1.7-1.2-1.4-1.1-0.9-1.3-0.8-0.9-0.3-0.7 0.2-0.3 0.6v1l0.2 3.1 0.7 3.9 0.9 4 1.1 4 1.5 3.8 1.2 3.6 0.5 3.5-0.3 3.3-0.7 3.2z"/>
	<g id="Layer">
		<path id="Layer" fill-rule="evenodd" class="s1" d="m2661 535.8l-20.5-4.7-18.8-4.9-16.7-5.2-14.9-5.2-13.1-5.6-5.9-3-5.4-2.8-4.8-3-4.5-3-3.9-3-3.5-3.2-15.4-14.6-15.9-13.7-16.2-13-16.6-12.4-16.9-11.7-17.3-11-17.6-10.2-18-9.6-7.3-3.6"/>
		<path id="Layer" fill-rule="evenodd" class="s2" d="m2911.2 2298.8l43.3-89.9"/>
		<path id="Layer" fill-rule="evenodd" class="s3" d="m2954.5 2208.9l18.3-28.5 14.4-23.4 10.6-18.4 3.8-7.3 2.8-6 4.9-11.6 4.6-12.2 4-12.3 3.5-12.3 2.8-11.9 2.3-11.7 1.6-11.4 0.9-10.8 0.4-10.2-0.2-9.9-1.1-9.1-1.5-8.8-2-8.2-2.8-7.5-3.5-7.2-3.9-6.5-9.3-12.7-10-12-10.6-11.4-11.1-10.4-8.8-7.6-9.3-7.1-9.6-6.6-10-6.4-10.5-6-11-5.6-11.4-5.4-12.2-5.1-12.2-4.6-13-4.4-13.8-4.3-14.5-4-15.5-4-16.9-3.9-42.3-9"/>
		<path id="Layer" fill-rule="evenodd" class="s4" d="m2762.4 1833.2l13.1-15.8 6.1-8 5.7-8.1 5.6-8.1 5.3-8.3 5.1-8.3 4.7-8.4 4.6-8.4 4.2-8.6 3.9-8.7 3.7-8.6 3.5-8.7 3.2-8.9 2.9-8.8 2.7-9.1 2.9-11.4 2.6-11.4 2.1-11.6 1.7-11.9 1.3-11.9 0.9-11.8 0.5-12.2v-12.2l-0.4-12-0.6-11.9-0.9-11.6-1.3-11.4-1.7-11.4-1.8-11.1-2.3-11-2.5-10.8-2.8-10.6-3.2-10.5-3.4-10.2-3.7-10-4.3-10-4.3-9.7-4.7-9.5-5.1-9.5-4.9-8.3-5.1-8.3-5.3-8-5.6-7.9-5.9-7.8-6.1-7.6-6.4-7.6-6.6-7.4-7.1-7.2-7.1-7.1-7.4-6.8-7.6-6.9-8.1-6.7-8.1-6.5-8.6-6.2-8.7-6.3-9.3-6.1-9.3-5.7-9.4-5.4-9.5-4.8-9.7-4.4-9.7-3.9-9.8-3.5-9.8-3-18.9-5-18.7-4.1-18.7-3.2-18.3-2.4-18.3-1.4-17.8-0.8-17.8 0.3-17.3 1-17.1 1.9-16.8 2.8-16.5 3.7-16.2 4.5-15.7 5.3-15.2 6.2-14.9 7-14.4 7.8-11.6 7.1-11.4 7.7-10.9 8.2-10.7 8.9-10.4 9.3-9.9 9.9-9.5 10.3-9.2 10.9-8.6 11.3-8.4 12-8 12.4-7.4 12.9-7.1 13.3-6.6 13.7-6.3 14.2-5.7 14.7-6.4 18.3-5.5 18.7-4.4 18.6-3.5 18.9-1.5 10.8-1.3 11-1 10.9-0.5 11-0.4 11.1v11.1l0.4 11.2 0.6 11.3 0.9 11.2 1.3 11.3 1.5 11.4 1.9 11.3 2.2 11.5 2.5 11.5 2.8 11.6 3.2 11.6"/>
		<path id="Layer" fill-rule="evenodd" class="s2" d="m2199.1 1734.1l-11.4-19-10.5-18.6-9.7-18.1-8.7-17.6-7.9-17.3-6.9-16.7-6.1-16.3-5.1-15.8-13-43.4-19.1-63.8-14.1-45.8-13.1-40.8-12.4-37-12.5-35.4-12.4-33.3-12.6-31.7-12.7-29.9-13.7-30-14-28.7-14.4-27.7-15.2-26.8-15.6-25.9-16.4-25.1-17-24.4-17.7-23.8-9.9-12.4-10.5-12.2-10.8-11.6-10.7-10.9-10.6-9.8-10.3-8.8-10.2-7.8-9.8-6.8-9.6-5.6-9.2-4.6-8.8-3.5-8.5-2.5-8.3-1.4-4-0.2h-3.8l-3.8 0.2-3.8 0.6-3.6 0.7-3.6 1-3.7 1.4-3.7 1.8-7.1 4.1-7.4 4.6-7.6 5.1-7.5 5.7-7.8 6.2-7.7 6.6-8 7.1-8 7.7-8 8.3-8.2 8.5-8 9-7.9 9.3-7.8 9.5-7.5 9.7-7.3 9.7-6.9 9.7-12.4 18.4-12 18.9-11.6 19-11.1 19.5-10.8 19.8-10.5 20-9.9 20.5-9.6 20.8-9.3 21.1-8.8 21.4-8.4 21.8-8.1 22.2-7.6 22.5-7.3 22.8-6.9 23.1-6.5 23.5-9.7 37.6-10.3 43.4-11.2 48.9-12 54.6-2.3 10.1-2.6 10-2.8 9.8-3 9.4-3.3 9.3-3.5 9.2-3.7 8.9-3.9 8.7-4.3 8.4-4.4 8.3-4.6 8.2-5 7.9-5.1 7.7-5.3 7.5-5.5 7.3-5.9 7"/>
		<path id="Layer" fill-rule="evenodd" class="s4" d="m1347.8 1707.1l2.3-15.7 1.8-15.6 1.3-15.3 0.7-15 0.3-14.8-0.1-14.7-0.8-14.4-1.2-14.3-1.6-13.9-2.2-13.8-2.7-13.6-3.2-13.3-3.7-13.1-4-12.9-4.8-12.8-5.1-12.5-4.7-10.2-5-10.1-5.3-9.9-5.8-9.7-5.9-9.7-6.4-9.4-6.8-9.4-7-9.1-7.4-9.1-7.8-8.8-8-8.8-8.6-8.5-8.6-8.5-9.2-8.3-9.5-8-9.8-8-10.4-7.9-10.5-7.3-10.7-6.6-11-6-11-5.4-11.2-4.7-11.3-4.2-11.5-3.5-14.1-3.7-14-3.2-13.8-2.6-13.5-2.2-13.5-1.8-13.3-1.3-13.1-0.7-12.9-0.3-12.9 0.1-12.6 0.8-12.5 1.2-12.4 1.6-12.1 2.2-12 2.5-11.8 3.2-11.8 3.6-13.9 5-13.8 5.7-13.5 6.5-13.4 7.2-13 7.9-12.9 8.5-12.5 9.3-12.3 10.1-8.2 7.1-7.8 7.4-7.5 7.6-7.3 7.8-6.9 7.9-6.7 8.1-6.3 8.4-6.1 8.6-5.5 8.5-5.4 8.7-4.9 8.8-4.8 9.1-4.4 9.3-4.1 9.4-4 9.6-3.5 9.8-5.6 17.1-4.9 17-4.1 16.9-3.4 17-2.6 16.8-1.9 16.9-1.1 16.6-0.3 16.4 0.4 16.2 1.2 16.2 2 15.8 2.7 15.7 3.4 15.3 4.2 15.2 5 14.8 5.7 14.5 6.9 15.2 7.8 15 8.6 14.5 9.5 14.2 10.2 13.5 11.1 13.2 11.8 12.9 12.7 12.4"/>
		<path id="Layer" fill-rule="evenodd" class="s3" d="m795.7 1855.3l-16.7 1.8-16.7 1.9-16.6 2.3-16.6 2.4-13.4 2.4-13.1 3-12.8 3.4-12.6 4-12.1 4.6-12 5.1-11.5 5.5-11.3 6.1-10.5 6.4-10.2 6.7-9.8 7.3-9.7 7.8-9.3 8.1-9.1 8.7-8.8 9.2-8.5 9.7-9.2 11.6-8 11.6-7.1 11.6-3 5.9-2.7 5.8-2.4 5.9-2.2 6-1.9 5.9-1.7 6-1.2 5.8-1.1 6-0.7 6-0.5 6-0.2 10 0.7 10 1.4 10.1 2.3 10.1 2.9 10.1 3.8 10.2 4.6 10.2 5.4 10.3 16.4 30 13.4 25.3 10.5 20.6 7.4 16.2"/>
		<path id="Layer" fill-rule="evenodd" class="s2" d="m581.3 2228.9l0.1 33.8"/>
		<path id="Layer" fill-rule="evenodd" class="s5" d="m2762.4 1833.2l-25 15.3-26.5 16.6-9.7 6-9.7 5.6-9.7 5.4-9.8 5.1-9.8 4.7-9.8 4.5-10 4.2-9.9 3.9-10 3.6-10.1 3.3-10 3-10.1 2.8-10.2 2.4-10.2 2-10.2 1.9-10.2 1.6-9.9 1.1-9.7 0.9-9.8 0.7-9.9 0.3-9.9 0.2-9.9-0.2-10-0.3-10-0.7-10-1-10.1-1.2-10.2-1.5-10-1.6-20.4-4.3-20.6-5.3"/>
		<path id="Layer" fill-rule="evenodd" class="s6" d="m2199.1 1734.1l7.1 13.4 7.1 12.8 7.5 12.3 7.7 11.9 7.8 11.4 8.1 10.8 8.3 10.5 8.6 9.9 8.9 9.4 8.9 9 9.3 8.4 9.6 8 9.7 7.6 10.1 7.1 10.2 6.6 10.6 6.3 12.6 6.6 12.9 5.9 13.2 5.3 13.8 4.9"/>
		<path id="Layer" fill-rule="evenodd" class="s7" d="m2391.1 1912.2l18.4 18 1.9 2.3 0.9 2.4v2.7l-1 2.9-4.9 10-4.3 9.8-4 9.7-3.4 9.4-2.9 9.5-2.6 9.3-2 9.1-1.7 9-1.1 8.9-0.8 8.7-0.1 8.7 0.1 8.4 0.8 8.3 1.1 8.3 1.5 8 2.1 7.9 2.4 7.5 2.9 7.6 3.3 7.2 3.7 7.2 4.3 7.1 4.5 6.9 5 6.8 5.5 6.7 5.9 6.5 6.4 6.4 6.7 6.4 7.2 6.1 7.6 6.1 8 5.9 8.5 5.9 8.9 5.6 9.3 5.5 9.7 4.9 10.1 4.6 10.4 4.2 10.8 3.7 11.1 3.4 11.4 2.9 11.8 2.4 28.7 5 28.3 4.3 28 3.7 28 2.8 27.4 2.3 27.3 1.6 27.1 0.8 26.6 0.2 9.1-0.3 9.4-0.6 10-1 10.2-1.4 10.7-1.8 10.9-2.3 11.5-2.6 11.9-2.9 20.5-5.2 20.9-5.1 21.6-4.9 21.9-4.7"/>
		<path id="Layer" fill-rule="evenodd" class="s8" d="m2707.7 2404.4l-22.1 6.8-22 6.5-22.1 6.3-22.1 6-22.1 5.7-22.1 5.4-22.1 5.1-22.1 4.9-22 4.6-22.1 4.4-22.1 4-22 3.7-22.2 3.6-22.1 3.2-22.1 3.1-22 2.6-70.4 8.3-67.1 8.2-61 7.4-50.4 5.7-39.8 4.2-29.3 2.6-30.8 2-31 1.8-31.2 1.6-31.7 1.2-31.8 1-32.3 0.7-32.5 0.5-32.8 0.1-33.2-0.1-33.4-0.4-33.8-0.6-34.1-0.9-34.4-1.2-34.7-1.5-70.3-3.7-31.3-2-31.6-2.7-31.9-3.1-32.3-3.5-32.5-4.3-32.8-4.5-33.1-5.2-33.6-5.6-13.2-1.8-14.7-0.8-16.2-0.3-17.6 0.6-12.8 0.3-13.4-0.6-14.1-1.7-14.8-2.6-35.5-6.7-35.3-6.3-35.5-5.6-35.3-5"/>
		<path id="Layer" fill-rule="evenodd" class="s7" d="m581.3 2228.9v-1.9l0.4-1.8 0.5-1.6 0.9-1.6 0.9-1.1 1.2-1.2 3.1-1.6 4.1-1 4.8-0.6 4.6 0.2 4.5 0.6 3.8 1 3.7 1.4 19.8 8.3 19.9 7.6 20 6.7 20 5.9 20.2 5.2 20.3 4.2 20.3 3.6 20.4 2.7 12.9 1.4 13 0.9 12.9 0.6 13 0.4h13l13.1-0.3 13.2-0.6 13.1-0.9 13.1-1.1 13.2-1.7 13.2-1.8 13.4-2.3 13.3-2.4 13.4-2.8 13.4-3.2 13.4-3.4 9.7-2.9 9.9-3 10-3.5 9.8-3.5 9.8-4 9.7-4.2 9.6-4.3 9.3-4.6 9-4.9 8.7-4.8 8.7-5.1 8.2-5.4 7.9-5.3 7.6-5.5 7.3-5.8 7-5.7 6.4-5.7 6.1-5.9 5.9-6 5.5-6.1 4.9-6 4.8-6.3 4.3-6.2 3.9-6.5 3.6-6.4 3.3-6.5 2.8-6.5 2.5-6.7 2.1-6.6 1.7-6.7 1.3-6.7 1-6.9 0.6-8v-8.2l-0.4-8.3-1-8.3-2-11.6-2.7-11.6-3.3-11.8-4-11.9-4.4-12.1-5.3-12.1-5.7-12.3-6.4-12.3-1.3-2.7-0.9-2.8-0.5-2.8-0.2-3.1 0.2-2.9 0.5-3.2 0.6-2.1 0.9-1.6 0.8-1.6 1.3-1.1 1.4-0.8 1.6-0.5 1.7-0.4h2l3-0.1 2.9-0.8 2.7-1.5 2.4-1.9 1.7-1.9 3.1-4.2 2.1-5"/>
		<path id="Layer" fill-rule="evenodd" class="s6" d="m1179 1903l10.2-5.7 10-5.9 9.6-6.3 9.4-6.5 9.2-6.7 8.9-7 8.7-7.4 8.4-7.6 7.5-7.2 7.3-7.4 7-7.7 6.9-7.9 6.6-8.2 6.5-8.2 6.2-8.7 6.1-8.8 5.7-9.1 5.6-9.2 5.4-9.5 5.1-9.7 5-10 4.7-10.2 4.5-10.4 4.3-10.6"/>
		<path id="Layer" fill-rule="evenodd" class="s9" d="m939.2 1922.8l4.2 2 4.6 1.8 4.9 1.5 4.9 1.2 5.3 0.7 5.2 0.4h5.5l5.6-0.4 5.9-0.7"/>
		<path id="Layer" fill-rule="evenodd" class="s5" d="m1179 1903l-17.2 6.9-17.3 6-17.3 5.1-17.3 4.2-17.3 3.3-17.4 2.4-17.3 1.6-17.4 0.7-13.8-0.1-13.7-0.8-13.9-1.2-13.8-1.8"/>
		<path id="Layer" fill-rule="evenodd" class="s10" d="m985.3 1929.3l-9.3-2.8-9.3-2.2-9.2-1.3-9.3-0.5-9 0.3"/>
		<path id="Layer" fill-rule="evenodd" class="s5" d="m939.2 1922.8l-10.9-2.4-11-2.9-10.6-3-10.6-3.5-10.3-3.8-10.2-4.1-10.1-4.4-9.8-4.8-15.7-8.4-15.2-9.2-14.8-10-14.3-11"/>
		<path id="Layer" fill-rule="evenodd" class="s1" d="m1066.9 411.3l-8.4 1.7-8.4 1.9-8.2 2-8.2 2.5-8 2.6-7.9 2.8-7.8 3.2-7.6 3.3-8.1 3.9-7.9 4.2-7.9 4.4-7.6 4.8-6 4.2-6.2 5.2-6.5 6.4-8.6 9-7.2 7.7-5.3 5.3-6.9 6.9-7 7.7-7.1 8.3-7.2 9-5 6-5.6 5.8-6.3 5.3-6.7 5.1-7.4 4.8-8.1 4.3-8.5 3.9-9.2 3.7"/>
		<path id="Layer" fill-rule="evenodd" class="s8" d="m2653.6 2683.2l-7.1-1.2-7.3-1.6-7.4-2-7.4-2.3-5.6-2.3-6.1-3.1-6.5-4.2-7.2-5.2-4.3-3.1-4.5-2.8-4.4-2.6-4.5-2-4.5-1.8-4.6-1.4-4.5-0.9-4.6-0.7-4.6-0.3-4.6 0.1-43.5 2.2-44.5 1.7-45.6 1.3-46.5 0.9-28.9 0.6-30.1 0.9-31.3 1.4-33.2 1.8-71.6 4.6-97.8 7.3-86.1 6.5-25.3 1.7-26.1 1.2-27.2 1.2-28.2 0.9-29.1 0.5-30.1 0.4-31.1 0.1-32-0.3-67.2-1.1-71.1-2.2-74.9-3.2-78.9-4.2-44.5-2.3-62-2.5-72.5-3-53.1-2.9-24.6-1.7-23.3-1.9-22.1-2.1-21.4-2.3-7.8-0.8-8.5-0.5-19.2-0.3-21.9 0.7-24.8 1.6-27.5 2.7-30.3 3.6-33.1 4.6-36 5.5"/>
		<path id="Layer" fill-rule="evenodd" class="s8" d="m2691.5 2762.4l-1.5 8.6-1 8.7-0.4 8.6v8.6l0.7 10.1 1.6 10.1 2.1 10.1 3 9.9 2.2 7 1.9 7.1 1.5 6.7 1.3 6.5 0.9 6.5 0.5 6.3 0.2 6.1v6l0.2 3.2 0.7 2.9 0.9 2.2 1.2 2.2 2.3 4 1.6 4.8 4 16.2 3 16.3 2.3 16.3 1.6 16.5 0.6 11.3 0.1 11.4-0.1 11.5-0.6 11.3-0.9 11.5-1.3 11.5-1.8 11.5-2 11.6-2.5 11.4-2.9 11.6-3.2 11.7-3.6 11.6-3.9 11.7-4.5 11.6-4.7 11.7-5.1 11.8-1.7 3.2-2 3.3-2.3 3.3-2.8 3.4-6.8 7.1-10 9.4-10 9.1-6.5 6.8-2.2 2.2-2.4 1.8-2.4 1.4-2.6 1-0.7 0.3-22 7.4-15.9 4.8-14.7 3.7-13.4 2.6-6.6 0.9-6.4 0.6-6.4 0.3-6.2 0.1-6-0.3-6.1-0.5-5.9-0.7-6-1.2-6.5-1.5-2.9-1.3-1.2-0.8-0.9-1-0.7-1.1-0.5-1.4-0.4-3.2 0.4-9.7 0.7-9.7 1.9-16.6 3-16.3 3.8-16.4 4.8-16.2 1.3-4.7 0.9-4.9 0.5-5.4 0.4-7.4 0.4-7.9 0.6-5.8 1.2-5.1 1.5-4.8 2.8-7.8 1.9-6.2 1.7-6.4 1.4-6.5 1.1-6.5 19.7-130 1.8-13.7 0.9-11.8v-10.2l-0.4-4.5-0.5-3.9-1.1-5.1-1.2-4.8-1.7-4.2-1.8-3.8-2-3.3-2.4-3.1-2.7-2.5-2.8-2.1-4.4-2.1-4.7-1.4-5.2-0.7-5.6 0.1"/>
		<path id="Layer" fill-rule="evenodd" class="s2" d="m2521 2846.9l-6.3-0.8-5.5-0.7-4.8-0.1-4.1 0.1-3.6 0.7-2.8 1-2.1 1.4-1.4 1.8-0.7 1.5-0.2 1.8v1.9l0.5 2.2"/>
		<path id="Layer" fill-rule="evenodd" class="s8" d="m2371.6 3184.2l-14.5 23.5-15 23.1-15.3 22.7-15.7 22.2-16 21.7-16.4 21.3-16.8 20.8-17.2 20.4-2.8 2.8-3.1 2.1-3.1 1.6-3.3 1.1-4.6 1.4-4.3 1.9-3.8 2.2-3.6 2.7-3.1 2.8-2.6 3.1-1.7 2-4 4.2-4.4 4-5 3.5-5.3 3.5-5.9 3-6.4 3-7.5 2.9-10.4 3.8-9.8 3.6-4.4 1.5-4.9 1.4-4.8 1.1-5.3 0.7-11.3 0.8-15.6 0.1h-11.5l-8.4 0.3-7.6 0.7-7 1.1-13.6 2-14.9 1.3-16.4 0.5-22.9-0.1-22.1-0.2-3.3-0.2-3-0.9-3-1.6-2.5-2.2-45.2-47.8"/>
		<path id="Layer" fill-rule="evenodd" class="s8" d="m1892.6 3086.9l-3.3 5.2-3.7 4.7-4.2 4.2-4.5 3.6-4.4 2.8-4.8 2.4-5.1 2-5.3 1.5-5.8 1-6 0.5-6.3 0.2-6.7-0.3-16.6-1.5-16.5-2.1-16.4-2.4-16.4-2.8-21.7-4.5-4.2-1.1-4.2-1.4-4.4-1.9-4.4-2.2-4.5-2.6-4.6-3-9.4-7-10-8.5-10.2-10-10.4-11.5-11-12.9"/>
		<path id="Layer" fill-rule="evenodd" class="s8" d="m1653.6 3338.4l-4.2 12.2-5.2 11.6-5.7 10.8-6.6 10.3-3 3.9-3.1 3.5-3.4 3.2-3.5 3-3.9 2.6-3.9 2.5-4.4 2.1-4.5 1.9-4.8 1.8-5.1 1.4-9.4 2.3-9.2 2.1-8.7 1.5-8.4 1.4-8.1 0.9-7.8 0.6-7.4 0.3-7-0.1-139.2-5.1-2.7-0.3-2.7-0.5-3.3-1-3.2-1.4-96.9-52.2"/>
		<path id="Layer" fill-rule="evenodd" class="s8" d="m1045.2 2867.4l-3.2 5.2-3 5.3-2.7 5.4-2.4 5.4-2.2 5.4-1.9 5.7-1.7 5.6-1.4 5.6-1.5 8.4-0.9 8.5-0.4 8.7 0.3 8.8 0.9 8.8 1.2 9.1 2.1 9.2 2.5 9.3 4.1 14.8 5 21.4 5.9 28.1 6.7 34.5 3.6 17.6 3.8 17.6 4.2 17.4 4.6 17.2 2.6 9.7 2 9.7 1.8 9.6 1.4 9.7 1 9.5 0.7 9.6 0.3 9.6-0.1 9.5-0.2 1.8-0.7 1.7-0.9 1.4-1.2 1.3-1.4 0.8-1.7 0.7-1.8 0.2-1.6-0.1-1.2-0.2-14.3-4.5-19.6-5.5-19-5.3-13.7-4.3-12.2-4.4-10.7-4.5-10.2-5.1-9.5-5.6-8.7-6.3-8.1-6.7-2.8-2.7-5-5.1-4.6-5.4-4.2-5.6-4-5.7-3.9-6.6-3.5-6.9-3-7.2-2.7-7.4-4.6-13.4-5-13.2-5.3-12.9-5.8-12.6-2.6-6.4-1.4-4.5-1.1-4.7-0.7-4.9-0.5-4.9-0.2-5.3v-5.7l1.1-14.8 0.8-11 0.3-8.1-0.1-7.4-0.7-6.9-1.1-9.6-0.8-9.3-0.5-8.8-0.2-8.5 0.1-8.2 0.5-7.8 0.8-7.4 1-7 2.5-16.6 1.8-17.8 1.5-17.4 2.2-18.9 2.8-20.9 4.1-28.7 4.5-31.5 2.9-23.2"/>
		<path id="Layer" fill-rule="evenodd" class="s11" d="m2516.9 2852.2l4.1-5.3"/>
		<path id="Layer" fill-rule="evenodd" class="s12" d="m858.7 2985l8.5-72 0.6-1.9 0.9-1.4 1.4-1.1 1.4-0.8 1.1-0.6 0.8-0.9 0.8-1.3 0.4-1.5 10.4-101.3"/>
		<path id="Layer" fill-rule="evenodd" class="s13" d="m428.7 261.9l-20.1-7.5-19.8-8-19.1-8.3-18.7-8.7-5.2-2.2-5.3-1.5-6.5-1-6.8-0.3-7.4 0.7-8.9 1.5"/>
		<path id="Layer" fill-rule="evenodd" class="s14" d="m697.1 599.3l-50.5-50-50.8-49.3-50.7-48.9-51.1-48.2-9.5-8.8-10.1-8.7-10.7-8.9-11.4-9.1-24.7-18.6-34.3-24.6-23-16.3-16.7-12.2-4.6-3.7-4.1-4-3.8-4.4-3.4-4.7-3.2-5.1-2.8-5.5-2.6-5.8-2.2-6.3-1.7-6.6-1.3-3.2-0.9-1.3-1-0.9-1.3-0.8-1.4-0.6-3.2-0.4h-14.2"/>
		<path id="Layer" fill-rule="evenodd" class="s14" d="m3233 243.4l-71.3 59.5-70.8 58.7-70.5 58-70.1 57.3-12.6 10.7-13.1 12-13.7 13.1-14.3 14.6-14.6 15.7-15.2 16.9-15.8 18.1-16.2 19.6"/>
		<path id="Layer" fill-rule="evenodd" class="s15" d="m3496.2 2513.1l-23.1 20.4-23.4 20.1-23.6 19.3-23.8 19.1-24.3 18.6-24.6 18-24.7 17.6-25.1 17.1-32.3 21.8-33.1 22.4-24.5 16-22.4 13.9-20.9 12.1-20.7 11-20 9.4-9.8 4.3-9.7 4-9.9 3.7-9.5 3.3-2.6 0.6-2.6 0.2-2.7-0.3-2.6-0.6-2.3-1.2-2.1-1.5-2-1.9-1.5-2.2-5.9-10.7-5.6-11.5-5.3-12.1-5.1-13-1.7-4.3-6.7-17.1-7.3-17-7.8-16.7-8.4-16.5-8.8-16.3-9.3-16.2-10-15.9-10.3-15.7"/>
	</g>
	<g id="Layer">
		<path id="Layer" class="s16" d="m2199.1 1734.1l7.1 13.4 7.1 12.8 7.5 12.3 7.7 11.9 7.8 11.4 8.1 10.8 8.3 10.5 8.6 9.9 8.9 9.4 8.9 9 9.3 8.4 9.6 8 9.7 7.6 10.1 7.1 10.2 6.6 10.6 6.3 12.6 6.6 12.9 5.9 13.2 5.3 13.8 4.9 18.4 18 1.9 2.3 0.9 2.4v2.7l-1 2.9-4.9 10-4.3 9.8-4 9.7-3.4 9.4-2.9 9.5-2.6 9.3-2 9.1-1.7 9-1.1 8.9-0.8 8.7-0.1 8.7 0.1 8.4 0.8 8.3 1.1 8.3 1.5 8 2.1 7.9 2.4 7.5 2.9 7.6 3.3 7.2 3.7 7.2 4.3 7.1 4.5 6.9 5 6.8 5.5 6.7 5.9 6.5 6.4 6.4 6.7 6.4 7.2 6.1 7.6 6.1 8 5.9 8.5 5.9 8.9 5.6 9.3 5.5 9.7 4.9 10.1 4.6 10.4 4.2 10.8 3.7 11.1 3.4 11.4 2.9 11.8 2.4 28.7 5 28.3 4.3 28 3.7 28 2.8 27.4 2.3 27.3 1.6 27.1 0.8 26.6 0.2 9.1-0.3 9.4-0.6 10-1 10.2-1.4 10.7-1.8 10.9-2.3 11.5-2.6 11.9-2.9 20.5-5.2 20.9-5.1 21.6-4.9 21.9-4.7-43.3 89.9-59.8 35.6-23.3 13.4-18.5 10.3-23.7 12.4-24.9 11.7-26.1 11.4-27.2 10.8-22.1 6.8-22 6.5-22.1 6.3-22.1 6-22.1 5.7-22.1 5.4-22.1 5.1-22.1 4.9-22 4.6-22.1 4.4-22.1 4-22 3.7-22.2 3.6-22.1 3.2-22.1 3.1-22 2.6-70.4 8.3-67.1 8.2-61 7.4-50.4 5.7-39.8 4.2-29.3 2.6-30.8 2-31 1.8-31.2 1.6-31.7 1.2-31.8 1-32.3 0.7-32.5 0.5-32.8 0.1-33.2-0.1-33.4-0.4-33.8-0.6-34.1-0.9-34.4-1.2-34.7-1.5-70.3-3.7-31.3-2-31.6-2.7-31.9-3.1-32.3-3.5-32.5-4.3-32.8-4.5-33.1-5.2-33.6-5.6-13.2-1.8-14.7-0.8-16.2-0.3-17.6 0.6-12.8 0.3-13.4-0.6-14.1-1.7-14.8-2.6-35.5-6.7-35.3-6.3-35.5-5.6-35.3-5-23.7-5.6-23.5-6.1-23.1-6.5-22.8-7-22.5-7.4-22.2-7.9-21.9-8.4-21.6-8.8-21.3-9.3-21-9.7-20.7-10.2-20.4-10.6-20-11.1-19.8-11.6-19.5-12-19.2-12.4-16.9-11.6-16.7-11.9-16.5-12.3-16.2-12.7-0.1-33.8v-1.9l0.4-1.8 0.5-1.6 0.9-1.6 0.9-1.1 1.2-1.2 3.1-1.6 4.1-1 4.8-0.6 4.6 0.2 4.5 0.6 3.8 1 3.7 1.4 19.8 8.3 19.9 7.6 20 6.7 20 5.9 20.2 5.2 20.3 4.2 20.3 3.6 20.4 2.7 12.9 1.4 13 0.9 12.9 0.6 13 0.4h13l13.1-0.3 13.2-0.6 13.1-0.9 13.1-1.1 13.2-1.7 13.2-1.8 13.4-2.3 13.3-2.4 13.4-2.8 13.4-3.2 13.4-3.4 9.7-2.9 9.9-3 10-3.5 9.8-3.5 9.8-4 9.7-4.2 9.6-4.3 9.3-4.6 9-4.9 8.7-4.8 8.7-5.1 8.2-5.4 7.9-5.3 7.6-5.5 7.3-5.8 7-5.7 6.4-5.7 6.1-5.9 5.9-6 5.5-6.1 4.9-6 4.8-6.3 4.3-6.2 3.9-6.5 3.6-6.4 3.3-6.5 2.8-6.5 2.5-6.7 2.1-6.6 1.7-6.7 1.3-6.7 1-6.9 0.6-8v-8.2l-0.4-8.3-1-8.3-2-11.6-2.7-11.6-3.3-11.8-4-11.9-4.4-12.1-5.3-12.1-5.7-12.3-6.4-12.3-1.3-2.7-0.9-2.8-0.5-2.8-0.2-3.1 0.2-2.9 0.5-3.2 0.6-2.1 0.9-1.6 0.8-1.6 1.3-1.1 1.4-0.8 1.6-0.5 1.7-0.4h2l3-0.1 2.9-0.8 2.7-1.5 2.4-1.9 1.7-1.9 3.1-4.2 2.1-5 10.2-5.7 10-5.9 9.6-6.3 9.4-6.5 9.2-6.7 8.9-7 8.7-7.4 8.4-7.6 7.5-7.2 7.3-7.4 7-7.7 6.9-7.9 6.6-8.2 6.5-8.2 6.2-8.7 6.1-8.8 5.7-9.1 5.6-9.2 5.4-9.5 5.1-9.7 5-10 4.7-10.2 4.5-10.4 4.3-10.6 5.9-7 5.5-7.3 5.3-7.5 5.1-7.7 5-7.9 4.6-8.2 4.4-8.3 4.3-8.4 3.9-8.7 3.7-8.9 3.5-9.2 3.3-9.3 3-9.4 2.8-9.8 2.6-10 2.3-10.1 12-54.6 11.2-48.9 10.3-43.4 9.7-37.6 6.5-23.5 6.9-23.1 7.3-22.8 7.6-22.5 8.1-22.2 8.4-21.8 8.8-21.4 9.3-21.1 9.6-20.8 9.9-20.5 10.5-20 10.8-19.8 11.1-19.5 11.6-19 12-18.9 12.4-18.4 6.9-9.7 7.3-9.7 7.5-9.7 7.8-9.5 7.9-9.3 8-9 8.2-8.5 8-8.3 8-7.7 8-7.1 7.7-6.6 7.8-6.2 7.5-5.7 7.6-5.1 7.4-4.6 7.1-4.1 3.7-1.8 3.7-1.4 3.6-1 3.6-0.7 3.8-0.6 3.8-0.2h3.8l4 0.2 8.3 1.4 8.5 2.5 8.8 3.5 9.2 4.6 9.6 5.6 9.9 6.8 10.1 7.8 10.3 8.9 10.6 9.7 10.7 10.9 10.8 11.6 10.5 12.2 9.9 12.4 17.7 23.8 17 24.4 16.4 25.1 15.6 25.9 15.2 26.8 14.4 27.7 14 28.7 13.7 30 12.7 29.9 12.6 31.7 12.4 33.3 12.5 35.4 12.4 37 13.1 40.8 14.1 45.8 19.1 63.8 13 43.4 5.1 15.8 6.1 16.3 6.9 16.7 7.9 17.3 8.7 17.6 9.7 18.1 10.5 18.6z"/>
		<path id="Layer" class="s16" d="m2653.6 2683.2l37.9 79.2-1.5 8.6-1 8.7-0.4 8.6v8.6l0.7 10.1 1.6 10.1 2.1 10.1 3 9.9 2.2 7 1.9 7.1 1.5 6.7 1.3 6.5 0.9 6.5 0.5 6.3 0.2 6.1v6l0.2 3.2 0.7 2.9 0.9 2.2 1.2 2.2 2.3 4 1.6 4.8 4 16.2 3 16.3 2.3 16.3 1.6 16.5 0.6 11.3 0.1 11.4-0.1 11.5-0.6 11.3-0.9 11.5-1.3 11.5-1.8 11.5-2 11.6-2.5 11.4-2.9 11.6-3.2 11.7-3.6 11.6-3.9 11.7-4.5 11.6-4.7 11.7-5.1 11.8-1.7 3.2-2 3.3-2.3 3.3-2.8 3.4-6.8 7.1-10 9.4-10 9.1-6.5 6.8-2.2 2.2-2.4 1.8-2.4 1.4-2.6 1-0.7 0.3-22 7.4-15.9 4.8-14.7 3.7-13.4 2.6-6.6 0.9-6.4 0.6-6.4 0.3-6.2 0.1-6-0.3-6.1-0.5-5.9-0.7-6-1.2-6.5-1.5-2.9-1.3-1.2-0.8-0.9-1-0.7-1.1-0.5-1.4-0.4-3.2 0.4-9.7 0.7-9.7 1.9-16.6 3-16.3 3.8-16.4 4.8-16.2 1.3-4.7 0.9-4.9 0.5-5.4 0.4-7.4 0.4-7.9 0.6-5.8 1.2-5.1 1.5-4.8 2.8-7.8 1.9-6.2 1.7-6.4 1.4-6.5 1.1-6.5 19.7-130 1.8-13.7 0.9-11.8v-10.2l-0.4-4.5-0.5-3.9-1.1-5.1-1.2-4.8-1.7-4.2-1.8-3.8-2-3.3-2.4-3.1-2.7-2.5-2.8-2.1-4.4-2.1-4.7-1.4-5.2-0.7-5.6 0.1-6.3-0.8-5.5-0.7-4.8-0.1-4.1 0.1-3.6 0.7-2.8 1-2.1 1.4-1.4 1.8-0.7 1.5-0.2 1.8v1.9l0.5 2.2-118.4 326.5-14.5 23.5-15 23.1-15.3 22.7-15.7 22.2-16 21.7-16.4 21.3-16.8 20.8-17.2 20.4-2.8 2.8-3.1 2.1-3.1 1.6-3.3 1.1-4.6 1.4-4.3 1.9-3.8 2.2-3.6 2.7-3.1 2.8-2.6 3.1-1.7 2-4 4.2-4.4 4-5 3.5-5.3 3.5-5.9 3-6.4 3-7.5 2.9-10.4 3.8-9.8 3.6-4.4 1.5-4.9 1.4-4.8 1.1-5.3 0.7-11.3 0.8-15.6 0.1h-11.5l-8.4 0.3-7.6 0.7-7 1.1-13.6 2-14.9 1.3-16.4 0.5-22.9-0.1-22.1-0.2-3.3-0.2-3-0.9-3-1.6-2.5-2.2-45.2-47.8-1.4-8-1-7.9-0.6-7.8-0.3-7.5 0.1-7.5 0.4-7.3 0.9-7.3 1.3-7 10.1-47.3 10.7-47.3 11.1-47.4 11.7-47.3 12.4-47.3 12.7-47.5 13.4-47.3 13.9-47.3 0.2-0.4 0.5-3.1-0.1-3.2-0.8-3-1.4-2.8-1.8-2.4-2.4-2.2-2.7-1.5-2.9-1.1-5.1-0.7-4.9 0.2-4.7 1.2-4.7 1.9-4.6 2.7-4.4 3.4-4.2 4.2-3.7 4.9-3.2 5.2-19.5 36.7-18.8 37-18.3 37.5-17.6 37.8-3.3 5.2-3.7 4.7-4.2 4.2-4.5 3.6-4.4 2.8-4.8 2.4-5.1 2-5.3 1.5-5.8 1-6 0.5-6.3 0.2-6.7-0.3-16.6-1.5-16.5-2.1-16.4-2.4-16.4-2.8-21.7-4.5-4.2-1.1-4.2-1.4-4.4-1.9-4.4-2.2-4.5-2.6-4.6-3-9.4-7-10-8.5-10.2-10-10.4-11.5-11-12.9-23.6-48.8-25.5-52.1-1.9-3.6-2.1-3.2-2.1-2.9-2.2-2.7-2.4-2.1-2.6-2.1-2.7-1.6-2.8-1.3-3.9-1.4-4.1-0.6-4.3-0.3-4.6 0.4-1.3 0.2-3.7 1.2-3.2 1.9-2.9 2.4-2.2 3.1-1.7 3.4-0.9 3.7v3.9l0.7 3.6 11.3 38.4 21 71.6 7.6 27.4 6.6 25.3 6.2 24.5 5.2 23.2 4.7 22.2 4 21.5 3 16.2 4.4 21.9 4.1 19.6 2.6 14.4 2.2 13.2 1.5 12.1 1.2 12 0.6 11.7 0.1 11.5-0.3 11.3-4.2 12.2-5.2 11.6-5.7 10.8-6.6 10.3-3 3.9-3.1 3.5-3.4 3.2-3.5 3-3.9 2.6-3.9 2.5-4.4 2.1-4.5 1.9-4.8 1.8-5.1 1.4-9.4 2.3-9.2 2.1-8.7 1.5-8.4 1.4-8.1 0.9-7.8 0.6-7.4 0.3-7-0.1-139.2-5.1-2.7-0.3-2.7-0.5-3.3-1-3.2-1.4-96.9-52.2-10.7-15.6-10.5-16-9.9-16.9-9.6-17.3-9.3-18-8.8-18.6-8.6-19.2-8-19.9-19.3-49.8-18.7-50.2-18.3-50.2-17.8-50.5-18.4-53.7-17.7-53.9-3.1-8.8-3.2-7.9-3.3-7.1-3.4-6.2-3.6-5.6-3.3-4.7-3.3-4.1-3.1-3.2-2.9-2.3-2.8-1.5-2.7-0.8h-2.6l-1.5 0.4-1.4 0.8-1.3 1-1.3 1.3-2.5 3.4-2.2 4.8-3.2 5.2-3 5.3-2.7 5.4-2.4 5.4-2.2 5.4-1.9 5.7-1.7 5.6-1.4 5.6-1.5 8.4-0.9 8.5-0.4 8.7 0.3 8.8 0.9 8.8 1.2 9.1 2.1 9.2 2.5 9.3 4.1 14.8 5 21.4 5.9 28.1 6.7 34.5 3.6 17.6 3.8 17.6 4.2 17.4 4.6 17.2 2.6 9.7 2 9.7 1.8 9.6 1.4 9.7 1 9.5 0.7 9.6 0.3 9.6-0.1 9.5-0.2 1.8-0.7 1.7-0.9 1.4-1.2 1.3-1.4 0.8-1.7 0.7-1.8 0.2-1.6-0.1-1.2-0.2-14.3-4.5-19.6-5.5-19-5.3-13.7-4.3-12.2-4.4-10.7-4.5-10.2-5.1-9.5-5.6-8.7-6.3-8.1-6.7-2.8-2.7-5-5.1-4.6-5.4-4.2-5.6-4-5.7-3.9-6.6-3.5-6.9-3-7.2-2.7-7.4-4.6-13.4-5-13.2-5.3-12.9-5.8-12.6-2.6-6.4-1.4-4.5-1.1-4.7-0.7-4.9-0.5-4.9-0.2-5.3v-5.7l1.1-14.8 0.8-11 0.3-8.1-0.1-7.4-0.7-6.9-1.1-9.6-0.8-9.3-0.5-8.8-0.2-8.5 0.1-8.2 0.5-7.8 0.8-7.4 1-7 2.5-16.6 1.8-17.8 1.5-17.4 2.2-18.9 2.8-20.9 4.1-28.7 4.5-31.5 2.9-23.2 36.6-83.4 36-5.5 33.1-4.6 30.3-3.6 27.5-2.7 24.8-1.6 21.9-0.7 19.2 0.3 8.5 0.5 7.8 0.8 21.4 2.3 22.1 2.1 23.3 1.9 24.6 1.7 53.1 2.9 72.5 3 62 2.5 44.5 2.3 78.9 4.2 74.9 3.2 71.1 2.2 67.2 1.1 32 0.3 31.1-0.1 30.1-0.4 29.1-0.5 28.2-0.9 27.2-1.2 26.1-1.2 25.3-1.7 86.1-6.5 97.8-7.3 71.6-4.6 33.2-1.8 31.3-1.4 30.1-0.9 28.9-0.6 46.5-0.9 45.6-1.3 44.5-1.7 43.5-2.2 4.6-0.1 4.6 0.3 4.6 0.7 4.5 0.9 4.6 1.4 4.5 1.8 4.5 2 4.4 2.6 4.5 2.8 4.3 3.1 7.2 5.2 6.5 4.2 6.1 3.1 5.6 2.3 7.4 2.3 7.4 2 7.3 1.6z"/>
	</g>
	<g id="Layer">
		<path id="Layer" class="s17" d="m2407.8 392.4l7.3 3.6 18 9.6 17.6 10.2 17.3 11 16.9 11.7 16.6 12.4 16.2 13 15.9 13.7 15.4 14.6 3.5 3.2 3.9 3 4.5 3 4.8 3 5.4 2.8 5.9 3 13.1 5.6 14.9 5.2 16.7 5.2 18.8 4.9 20.5 4.7 38 33.1 18.7 16.7 18.1 16.5 18 16.8 17.4 16.7 17.3 16.8 16.9 17 16.6 16.9 16.3 17 16 17.1 15.7 17.1 15.4 17.3 15.1 17.3 14.8 17.3 14.5 17.6 14.2 17.5 13.9 17.7 13.6 17.6 13.4 18 13 17.9 12.8 18.1 12.5 18.1 12.1 18.2 12 18.3 11.6 18.5 11.3 18.6 11.1 18.6 10.9 18.8 10.4 18.8 10.4 19.1 9.9 19.1 0.4 0.8 10.6 21.1 10.2 21.5 9.7 21.6 9.3 22 8.9 22 8.5 22.4 8 22.6 7.5 22.7 7.2 22.9 6.7 23.2 6.3 23.5 5.8 23.6 5.5 23.9 5 24.1 4.6 24.3 4.1 24.5 4.9 32.9 4.6 32.8 4.3 32.8 3.6 32.8 0.2 1.8-0.3 1.6-0.4 1.3-0.7 1.3-0.9 0.9-1.2 0.6-1.5 0.5-1.7 0.4-6.2 0.8-39 5.3-28.4 4.5-25.3 4.8-23.1 5.4-11.3 2.9-10.8 3.2-10.3 3.5-10.1 3.5-9.8 3.9-9.5 4-9.3 4.4-8.9 4.4-3.2 2.2-2.8 2.7-2.2 3.2-1.6 3.5-0.8 3.9-0.1 3.8 0.6 3.8 1.3 3.7 1.8 3.2 1.9 2.7 2.3 2.2 2.5 1.7 3.4 1.6 3.6 0.9 4.1 0.4 4.5-0.4 43.4-5.8 44.2-4.9 45.2-4.3 46-3.5h1.9l1.7 0.2 1.4 0.5 1.2 0.8 0.9 1 0.6 1.4 0.4 1.6 0.1 1.9-0.1 19.7-1 20.1-1.7 20.1-2.4 20.4-3.2 20.7-4 20.8-4.7 21-5.5 21.2-1.1 2.8-1.9 2.1-2.5 1.2-3 0.6-18.4-0.2-18.5-0.7-18.5-1.6-18.7-2.3-17.3-2-16.9-1.5-16.7-0.8-16.5-0.3-16.2 0.5-15.9 1.1-15.6 1.6-15.4 2.5-3.6 1-3.2 1.8-2.7 2.5-2.1 3.1-1.3 3.4-0.7 3.6 0.4 3.7 1 3.6 2.2 3.4 3.8 4.2 4.4 3.5 3.7 2.3 3.8 1.7 4.1 1.6 4.5 1 20.5 3.8 20.9 3.6 21.1 3.3 21.4 3.1 43.4 5.6 44.5 4.6 2.1 0.4 1.8 0.5 1.4 0.9 0.9 1.1 0.5 1.3v1.5l-0.2 1.9-0.8 2.1-7.5 16.8-7.7 16.7-8 16.5-8.3 16.2-8.5 15.8-8.8 15.8-9.2 15.4-9.3 15.2-9.6 15.1-10 14.6-10.2 14.6-10.4 14.3-10.7 14-11 13.8-11.2 13.5-11.5 13.3-16.5 17.9-16.8 17.7-17.3 17-18 16.6-18.4 16.2-19 15.7-19.4 15.3-20 14.8 43.3-89.9 18.3-28.5 14.4-23.4 10.6-18.4 3.8-7.3 2.8-6 4.9-11.6 4.6-12.2 4-12.3 3.5-12.3 2.8-11.9 2.3-11.7 1.6-11.4 0.9-10.8 0.4-10.2-0.2-9.9-1.1-9.1-1.5-8.8-2-8.2-2.8-7.5-3.5-7.2-3.9-6.5-9.3-12.7-10-12-10.6-11.4-11.1-10.4-8.8-7.6-9.3-7.1-9.6-6.6-10-6.4-10.5-6-11-5.6-11.4-5.4-12.2-5.1-12.2-4.6-13-4.4-13.8-4.3-14.5-4-15.5-4-16.9-3.9-42.3-9 13.1-15.8 6.1-8 5.7-8.1 5.6-8.1 5.3-8.3 5.1-8.3 4.7-8.4 4.6-8.4 4.2-8.6 3.9-8.7 3.7-8.6 3.5-8.7 3.2-8.9 2.9-8.8 2.7-9.1 2.9-11.4 2.6-11.4 2.1-11.6 1.7-11.9 1.3-11.9 0.9-11.8 0.5-12.2v-12.2l-0.4-12-0.6-11.9-0.9-11.6-1.3-11.4-1.7-11.4-1.8-11.1-2.3-11-2.5-10.8-2.8-10.6-3.2-10.5-3.4-10.2-3.7-10-4.3-10-4.3-9.7-4.7-9.5-5.1-9.5-4.9-8.3-5.1-8.3-5.3-8-5.6-7.9-5.9-7.8-6.1-7.6-6.4-7.6-6.6-7.4-7.1-7.2-7.1-7.1-7.4-6.8-7.6-6.9-8.1-6.7-8.1-6.5-8.6-6.2-8.7-6.3-9.3-6.1-9.3-5.7-9.4-5.4-9.5-4.8-9.7-4.4-9.7-3.9-9.8-3.5-9.8-3-18.9-5-18.7-4.1-18.7-3.2-18.3-2.4-18.3-1.4-17.8-0.8-17.8 0.3-17.3 1-17.1 1.9-16.8 2.8-16.5 3.7-16.2 4.5-15.7 5.3-15.2 6.2-14.9 7-14.4 7.8-11.6 7.1-11.4 7.7-10.9 8.2-10.7 8.9-10.4 9.3-9.9 9.9-9.5 10.3-9.2 10.9-8.6 11.3-8.4 12-8 12.4-7.4 12.9-7.1 13.3-6.6 13.7-6.3 14.2-5.7 14.7-6.4 18.3-5.5 18.7-4.4 18.6-3.5 18.9-1.5 10.8-1.3 11-1 10.9-0.5 11-0.4 11.1v11.1l0.4 11.2 0.6 11.3 0.9 11.2 1.3 11.3 1.5 11.4 1.9 11.3 2.2 11.5 2.5 11.5 2.8 11.6 3.2 11.6-11.4-19-10.5-18.6-9.7-18.1-8.7-17.6-7.9-17.3-6.9-16.7-6.1-16.3-5.1-15.8-13-43.4-19.1-63.8-14.1-45.8-13.1-40.8-12.4-37-12.5-35.4-12.4-33.3-12.6-31.7-12.7-29.9-13.7-30-14-28.7-14.4-27.7-15.2-26.8-15.6-25.9-16.4-25.1-17-24.4-17.7-23.8-9.9-12.4-10.5-12.2-10.8-11.6-10.7-10.9-10.6-9.8-10.3-8.8-10.2-7.8-9.8-6.8-9.6-5.6-9.2-4.6-8.8-3.5-8.5-2.5-8.3-1.4-4-0.2h-3.8l-3.8 0.2-3.8 0.6-3.6 0.7-3.6 1-3.7 1.4-3.7 1.8-7.1 4.1-7.4 4.6-7.6 5.1-7.5 5.7-7.8 6.2-7.7 6.6-8 7.1-8 7.7-8 8.3-8.2 8.5-8 9-7.9 9.3-7.8 9.5-7.5 9.7-7.3 9.7-6.9 9.7-12.4 18.4-12 18.9-11.6 19-11.1 19.5-10.8 19.8-10.5 20-9.9 20.5-9.6 20.8-9.3 21.1-8.8 21.4-8.4 21.8-8.1 22.2-7.6 22.5-7.3 22.8-6.9 23.1-6.5 23.5-9.7 37.6-10.3 43.4-11.2 48.9-12 54.6-2.3 10.1-2.6 10-2.8 9.8-3 9.4-3.3 9.3-3.5 9.2-3.7 8.9-3.9 8.7-4.3 8.4-4.4 8.3-4.6 8.2-5 7.9-5.1 7.7-5.3 7.5-5.5 7.3-5.9 7 2.3-15.7 1.8-15.6 1.3-15.3 0.7-15 0.3-14.8-0.1-14.7-0.8-14.4-1.2-14.3-1.6-13.9-2.2-13.8-2.7-13.6-3.2-13.3-3.7-13.1-4-12.9-4.8-12.8-5.1-12.5-4.7-10.2-5-10.1-5.3-9.9-5.8-9.7-5.9-9.7-6.4-9.4-6.8-9.4-7-9.1-7.4-9.1-7.8-8.8-8-8.8-8.6-8.5-8.6-8.5-9.2-8.3-9.5-8-9.8-8-10.4-7.9-10.5-7.3-10.7-6.6-11-6-11-5.4-11.2-4.7-11.3-4.2-11.5-3.5-14.1-3.7-14-3.2-13.8-2.6-13.5-2.2-13.5-1.8-13.3-1.3-13.1-0.7-12.9-0.3-12.9 0.1-12.6 0.8-12.5 1.2-12.4 1.6-12.1 2.2-12 2.5-11.8 3.2-11.8 3.6-13.9 5-13.8 5.7-13.5 6.5-13.4 7.2-13 7.9-12.9 8.5-12.5 9.3-12.3 10.1-8.2 7.1-7.8 7.4-7.5 7.6-7.3 7.8-6.9 7.9-6.7 8.1-6.3 8.4-6.1 8.6-5.5 8.5-5.4 8.7-4.9 8.8-4.8 9.1-4.4 9.3-4.1 9.4-4 9.6-3.5 9.8-5.6 17.1-4.9 17-4.1 16.9-3.4 17-2.6 16.8-1.9 16.9-1.1 16.6-0.3 16.4 0.4 16.2 1.2 16.2 2 15.8 2.7 15.7 3.4 15.3 4.2 15.2 5 14.8 5.7 14.5 6.9 15.2 7.8 15 8.6 14.5 9.5 14.2 10.2 13.5 11.1 13.2 11.8 12.9 12.7 12.4-16.7 1.8-16.7 1.9-16.6 2.3-16.6 2.4-13.4 2.4-13.1 3-12.8 3.4-12.6 4-12.1 4.6-12 5.1-11.5 5.5-11.3 6.1-10.5 6.4-10.2 6.7-9.8 7.3-9.7 7.8-9.3 8.1-9.1 8.7-8.8 9.2-8.5 9.7-9.2 11.6-8 11.6-7.1 11.6-3 5.9-2.7 5.8-2.4 5.9-2.2 6-1.9 5.9-1.7 6-1.2 5.8-1.1 6-0.7 6-0.5 6-0.2 10 0.7 10 1.4 10.1 2.3 10.1 2.9 10.1 3.8 10.2 4.6 10.2 5.4 10.3 16.4 30 13.4 25.3 10.5 20.6 7.4 16.2 0.1 33.8-13.2-12.1-18.3-17.9-23.3-23.6-28.5-29.4-12.5-13.3-12-13.5-11.8-13.8-11.4-13.9-11.1-14.1-10.8-14.5-10.5-14.6-10.1-14.8-10.8-17-10.6-17.2-10.1-17.5-9.7-17.7-9.1-18.1-9-18.3-8.3-18.6-8-18.9-0.9-2.7-0.4-2.3 0.1-1.9 0.8-1.6 1.2-1.3 1.7-1 2.2-0.7 2.8-0.2 24-1.3 24-1.5 24-1.9 23.9-2.1 28.7-2.8 28.7-3.3 6.3-1.1 5.9-1.7 5.3-2.3 5.1-2.8 4.5-3.3 3.9-3.8 3.9-4.4 3.3-4.8 0.4-0.7 0.5-1.5 0.2-1.7-0.1-1.6-0.4-1.5-0.7-1.6-1.1-1.3-1.2-1-1.6-0.7-13.1-4.6-9.2-2.7-9.3-2.4-9.4-1.9-9.7-1.6-9.9-1.3-10-0.8-10.4-0.6-10.7-0.1-10.6 0.3-10.9 0.5-11.6 0.7-12.2 1.2-26.4 3.4-36.5 5.7-5.4 0.8-1.8 0.2-1.9-0.3-1.8-0.5-1.6-0.9-1.5-1.1-1.1-1.6-0.9-1.5-0.7-1.8-4.8-20.1-4.5-20.6-4.1-20.8-3.8-21-3.4-21.4-3.2-21.7-2.8-22-2.4-22.2-0.2-1.9 0.3-1.5 0.5-1.3 0.6-1 1-0.6 1.3-0.4 1.7-0.2 1.8 0.2 213.2 34.4 3.4 0.3 3.3-0.4 3.2-0.9 2.9-1.4 2.7-2 2.3-2.5 1.9-2.7 1.3-3 0.7-2.7 0.5-2.7 0.2-2.6-0.2-2.6-0.5-3.1-1-3-1.4-3-1.8-2.9-2.3-2.9-2.7-2.7-3-2.8-3.6-2.7-3.9-2.7-4.4-2.6-9.9-5-11.6-4.9-13.3-4.7-15.1-4.5-16.5-4.2-18.1-3.9-19.8-3.7-21.1-3.5-22.5-3.3-23.9-2.9-26.9-2.9-8.9-0.9-2.6-0.5-2.4-1.1-2.3-1.4-1.8-1.8-1.5-2.1-1.2-2.4-0.6-2.6-0.1-2.6 1.6-34.4 2.7-34.2 3.6-33.9 4.4-33.7 5.5-33.4 6.5-33.3 7.3-32.9 8.4-32.7 8.2-28.5 8.8-28.5 9.7-28.3 10.3-27.9 11.2-28 11.9-27.5 12.5-27.5 13.4-27.3 9.3-18.1 9.6-18.1 9.9-18 10.2-17.9 10.6-18.2 10.8-17.8 11.1-17.9 11.4-17.8 11.7-17.9 12.2-17.7 12.2-17.8 12.6-17.6 12.9-17.6 13.2-17.4 13.5-17.5 13.6-17.4 14.2-17.3 14.3-17.2 14.5-17.3 14.9-17 15.1-17.1 15.4-16.9 31.5-33.5 32.7-33.2 33.5-32.6 34.5-32.3 35.3-31.7 9.2-3.7 8.5-3.9 8.1-4.3 7.4-4.8 6.7-5.1 6.3-5.3 5.6-5.8 5-6 7.2-9 7.1-8.3 7-7.7 6.9-6.9 5.3-5.3 7.2-7.7 8.6-9 6.5-6.4 6.2-5.2 6-4.2 7.6-4.8 7.9-4.4 7.9-4.2 8.1-3.9 7.6-3.3 7.8-3.2 7.9-2.8 8-2.6 8.2-2.5 8.2-2 8.4-1.9 8.4-1.7 26.4-12.4 26.5-11.8 26.7-11.6 26.8-11.1 26.9-10.9 27.1-10.3 27.1-10 27.3-9.6 24.6-8.3 30.9-9.9 31.1-9 31.4-8.4 31.4-7.7 31.9-6.9 31.9-6.2 32.1-5.5 32.2-4.7 32.5-4 32.5-3.3 32.7-2.6 32.8-1.7 33-1.2 33-0.2 33.1 0.3 33.1 1.2 33.3 1.9 33.2 2.6 33.3 3.3 33.3 4.1 33.3 4.8 33.1 5.6 33.3 6.3 33.2 7 33 7.6 33 8.4 32.9 9.2 32.6 9.9 32.7 10.5 32.4 11.3 32.1 12 32 12.6 15.1 6.5 14.8 7.1 14.8 7.8z"/>
		<path id="Layer" class="s17" d="m2521 2846.9l-4.1 5.3-4.2-0.3h-4l-3.7 0.3-3.4 0.6-3.3 0.8-3 1.1-2.8 1.3-2.5 1.7-0.5-2.2v-1.9l0.2-1.8 0.7-1.5 1.4-1.8 2.1-1.4 2.8-1 3.6-0.7 4.1-0.1 4.8 0.1 5.5 0.7z"/>
	</g>
	<g id="Layer">
		<path id="Layer" class="s0" d="m2762.4 1833.2l-25 15.3-26.5 16.6-9.7 6-9.7 5.6-9.7 5.4-9.8 5.1-9.8 4.7-9.8 4.5-10 4.2-9.9 3.9-10 3.6-10.1 3.3-10 3-10.1 2.8-10.2 2.4-10.2 2-10.2 1.9-10.2 1.6-9.9 1.1-9.7 0.9-9.8 0.7-9.9 0.3-9.9 0.2-9.9-0.2-10-0.3-10-0.7-10-1-10.1-1.2-10.2-1.5-10-1.6-20.4-4.3-20.6-5.3-13.8-4.9-13.2-5.3-12.9-5.9-12.6-6.6-10.6-6.3-10.2-6.6-10.1-7.1-9.7-7.6-9.6-8-9.3-8.4-8.9-9-8.9-9.4-8.6-9.9-8.3-10.5-8.1-10.8-7.8-11.4-7.7-11.9-7.5-12.3-7.1-12.8-7.1-13.4-3.2-11.6-2.8-11.6-2.5-11.5-2.2-11.5-1.9-11.3-1.5-11.4-1.3-11.3-0.9-11.2-0.6-11.3-0.4-11.2v-11.1l0.4-11.1 0.5-11 1-10.9 1.3-11 1.5-10.8 3.5-18.9 4.4-18.6 5.5-18.7 6.4-18.3 5.7-14.7 6.3-14.2 6.6-13.7 7.1-13.3 7.4-12.9 8-12.4 8.4-12 8.6-11.3 9.2-10.9 9.5-10.3 9.9-9.9 10.4-9.3 10.7-8.9 10.9-8.2 11.4-7.7 11.6-7.1 14.4-7.8 14.9-7 15.2-6.2 15.7-5.3 16.2-4.5 16.5-3.7 16.8-2.8 17.1-1.9 17.3-1 17.8-0.3 17.8 0.8 18.3 1.4 18.3 2.4 18.7 3.2 18.7 4.1 18.9 5 9.8 3 9.8 3.5 9.7 3.9 9.7 4.4 9.5 4.8 9.4 5.4 9.3 5.7 9.3 6.1 8.7 6.3 8.6 6.2 8.1 6.5 8.1 6.7 7.6 6.9 7.4 6.8 7.1 7.1 7.1 7.2 6.6 7.4 6.4 7.6 6.1 7.6 5.9 7.8 5.6 7.9 5.3 8 5.1 8.3 4.9 8.3 5.1 9.5 4.7 9.5 4.3 9.7 4.3 10 3.7 10 3.4 10.2 3.2 10.5 2.8 10.6 2.5 10.8 2.3 11 1.8 11.1 1.7 11.4 1.3 11.4 0.9 11.6 0.6 11.9 0.4 12v12.2l-0.5 12.2-0.9 11.8-1.3 11.9-1.7 11.9-2.1 11.6-2.6 11.4-2.9 11.4-2.7 9.1-2.9 8.8-3.2 8.9-3.5 8.7-3.7 8.6-3.9 8.7-4.2 8.6-4.6 8.4-4.7 8.4-5.1 8.3-5.3 8.3-5.6 8.1-5.7 8.1-6.1 8z"/>
		<path id="Layer" class="s0" d="m1347.8 1707.1l-4.3 10.6-4.5 10.4-4.7 10.2-5 10-5.1 9.7-5.4 9.5-5.6 9.2-5.7 9.1-6.1 8.8-6.2 8.7-6.5 8.2-6.6 8.2-6.9 7.9-7 7.7-7.3 7.4-7.5 7.2-8.4 7.6-8.7 7.4-8.9 7-9.2 6.7-9.4 6.5-9.6 6.3-10 5.9-10.2 5.7-17.2 6.9-17.3 6-17.3 5.1-17.3 4.2-17.3 3.3-17.4 2.4-17.3 1.6-17.4 0.7-13.8-0.1-13.7-0.8-13.9-1.2-13.8-1.8-9.3-2.8-9.3-2.2-9.2-1.3-9.3-0.5-9 0.3-10.9-2.4-11-2.9-10.6-3-10.6-3.5-10.3-3.8-10.2-4.1-10.1-4.4-9.8-4.8-15.7-8.4-15.2-9.2-14.8-10-14.3-11-12.7-12.4-11.8-12.9-11.1-13.2-10.2-13.5-9.5-14.2-8.6-14.5-7.8-15-6.9-15.2-5.7-14.5-5-14.8-4.2-15.2-3.4-15.3-2.7-15.7-2-15.8-1.2-16.2-0.4-16.2 0.3-16.4 1.1-16.6 1.9-16.9 2.6-16.8 3.4-17 4.1-16.9 4.9-17 5.6-17.1 3.5-9.8 4-9.6 4.1-9.4 4.4-9.3 4.8-9.1 4.9-8.8 5.4-8.7 5.5-8.5 6.1-8.6 6.3-8.4 6.7-8.1 6.9-7.9 7.3-7.8 7.5-7.6 7.8-7.4 8.2-7.1 12.3-10.1 12.5-9.3 12.9-8.5 13-7.9 13.4-7.2 13.5-6.5 13.8-5.7 13.9-5 11.8-3.6 11.8-3.2 12-2.5 12.1-2.2 12.4-1.6 12.5-1.2 12.6-0.8 12.9-0.1 12.9 0.3 13.1 0.7 13.3 1.3 13.5 1.8 13.5 2.2 13.8 2.6 14 3.2 14.1 3.7 11.5 3.5 11.3 4.2 11.2 4.7 11 5.4 11 6 10.7 6.6 10.5 7.3 10.4 7.9 9.8 8 9.5 8 9.2 8.3 8.6 8.5 8.6 8.5 8 8.8 7.8 8.8 7.4 9.1 7 9.1 6.8 9.4 6.4 9.4 5.9 9.7 5.8 9.7 5.3 9.9 5 10.1 4.7 10.2 5.1 12.5 4.8 12.8 4 12.9 3.7 13.1 3.2 13.3 2.7 13.6 2.2 13.8 1.6 13.9 1.2 14.3 0.8 14.4 0.1 14.7-0.3 14.8-0.7 15-1.3 15.3-1.8 15.6z"/>
	</g>
	<g id="Layer">
		<path id="Layer" class="s18" d="m301.9 242.4h14.2l3.2 0.4 1.4 0.6 1.3 0.8 1 0.9 0.9 1.3 1.3 3.2 1.7 6.6 2.2 6.3 2.6 5.8 2.8 5.5 3.2 5.1 3.4 4.7 3.8 4.4 4.1 4 4.6 3.7 16.7 12.2 23 16.3 34.3 24.6 24.7 18.6 11.4 9.1 10.7 8.9 10.1 8.7 9.5 8.8 51.1 48.2 50.7 48.9 50.8 49.3 50.5 50-15.3 14.8-15 13.9-14.7 13.1-14.4 11.9-17 14.2-15.3 13.8-13.5 13.5-6.1 6.6-5.7 6.7-16.5 18.8-23 25-26.5 28.9-9.9 11.2-8.6 10.6-8.3 10.4-7.7 10.4-7 10.2-6.5 10.3-4.3 6.9-4.8 6.6-4.8 6.3-5.2 6-9.1 10.3-8.8 10.5-8.4 10.8-8.2 11-11.7 16.8-10.8 17.2-10.4 17.9-9.5 18.2-0.9 1.1-1.3 0.6-1.4-0.1-1.2-0.7-0.5-0.7-7.6-15.1-7.4-15-7.2-15.3-6.7-15.5-9.1-21.9-8.4-22.3-7.8-22.6-7.3-22.8-6.5-23.1-6-23.4-5.3-23.6-4.7-23.8-3.7-21.6-3.4-21.7-2.8-21.8-2.4-22.1-2-22.1-1.6-22.2-1.1-22.6-0.6-22.6-0.4-22.7 0.2-23 0.7-22.9 1-23.2 1.4-23.5 1.9-23.5 2.3-23.6 2.8-23.8 2.3-17.1 2.7-16.9 3-16.8 3.5-16.6 3.8-16.6 4.1-16.3 4.6-16.2z"/>
		<path id="Layer" class="s18" d="m3233 243.4l5.9 18.3 5.3 17.2 4.8 16.2 4 15.1 3.5 14.1 2.9 13 2.3 12.1 1.8 11 4.8 39.3 3.9 39.6 2.8 39.6 1.9 39.9 0.5 18.3 0.1 18.2-0.2 18.1-0.4 18-0.9 17.9-1.2 17.8-1.4 17.8-1.7 17.7-2.2 17.6-2.3 17.5-2.8 17.3-3.1 17.4-3.3 17.2-3.7 17.2-4.1 17.1-4.3 17-6.6 23.8-7.3 23.6-7.9 23.5-8.7 23.2-9.2 23.1-9.8 23-10.5 22.8-11.1 22.6-1.4 1.6-1.7 0.8-2.2-0.1-1.8-0.9-0.8-1-12.6-20.6-13-20.4-13.3-20.1-13.5-20.1-14.8-21-15.2-20.9-15.5-20.6-16-20.4-16.2-20-16.7-19.9-16.8-19.6-17.4-19.4-17.7-19.2-18-18.8-18.4-18.7-18.7-18.5-19-18.1-19.4-18-19.8-17.6-20.1-17.4 16.2-19.6 15.8-18.1 15.2-16.9 14.6-15.7 14.3-14.6 13.7-13.1 13.1-12 12.6-10.7 70.1-57.3 70.5-58 70.8-58.7z"/>
		<path id="Layer" class="s18" d="m2762.4 1833.2l42.3 9 16.9 3.9 15.5 4 14.5 4 13.8 4.3 13 4.4 12.2 4.6 12.2 5.1 11.4 5.4 11 5.6 10.5 6 10 6.4 9.6 6.6 9.3 7.1 8.8 7.6 11.1 10.4 10.6 11.4 10 12 9.3 12.7 3.9 6.5 3.5 7.2 2.8 7.5 2 8.2 1.5 8.8 1.1 9.1 0.2 9.9-0.4 10.2-0.9 10.8-1.6 11.4-2.3 11.7-2.8 11.9-3.5 12.3-4 12.3-4.6 12.2-4.9 11.6-2.8 6-3.8 7.3-10.6 18.4-14.4 23.4-18.3 28.5-21.9 4.7-21.6 4.9-20.9 5.1-20.5 5.2-11.9 2.9-11.5 2.6-10.9 2.3-10.7 1.8-10.2 1.4-10 1-9.4 0.6-9.1 0.3-26.6-0.2-27.1-0.8-27.3-1.6-27.4-2.3-28-2.8-28-3.7-28.3-4.3-28.7-5-11.8-2.4-11.4-2.9-11.1-3.4-10.8-3.7-10.4-4.2-10.1-4.6-9.7-4.9-9.3-5.5-8.9-5.6-8.5-5.9-8-5.9-7.6-6.1-7.2-6.1-6.7-6.4-6.4-6.4-5.9-6.5-5.5-6.7-5-6.8-4.5-6.9-4.3-7.1-3.7-7.2-3.3-7.2-2.9-7.6-2.4-7.5-2.1-7.9-1.5-8-1.1-8.3-0.8-8.3-0.1-8.4 0.1-8.7 0.8-8.7 1.1-8.9 1.7-9 2-9.1 2.6-9.3 2.9-9.5 3.4-9.4 4-9.7 4.3-9.8 4.9-10 1-2.9v-2.7l-0.9-2.4-1.9-2.3-18.4-18 20.6 5.3 20.4 4.3 10 1.6 10.2 1.5 10.1 1.2 10 1 10 0.7 10 0.3 9.9 0.2 9.9-0.2 9.9-0.3 9.8-0.7 9.7-0.9 9.9-1.1 10.2-1.6 10.2-1.9 10.2-2 10.2-2.4 10.1-2.8 10-3 10.1-3.3 10-3.6 9.9-3.9 10-4.2 9.8-4.5 9.8-4.7 9.8-5.1 9.7-5.4 9.7-5.6 9.7-6 26.5-16.6z"/>
		<path id="Layer" class="s18" d="m795.7 1855.3l14.3 11 14.8 10 15.2 9.2 15.7 8.4 9.8 4.8 10.1 4.4 10.2 4.1 10.3 3.8 10.6 3.5 10.6 3 11 2.9 10.9 2.4 4.2 2 4.6 1.8 4.9 1.5 4.9 1.2 5.3 0.7 5.2 0.4h5.5l5.6-0.4 5.9-0.7 13.8 1.8 13.9 1.2 13.7 0.8 13.8 0.1 17.4-0.7 17.3-1.6 17.4-2.4 17.3-3.3 17.3-4.2 17.3-5.1 17.3-6 17.2-6.9-2.1 5-3.1 4.2-1.7 1.9-2.4 1.9-2.7 1.5-2.9 0.8-3 0.1h-2l-1.7 0.4-1.6 0.5-1.4 0.8-1.3 1.1-0.8 1.6-0.9 1.6-0.6 2.1-0.5 3.2-0.2 2.9 0.2 3.1 0.5 2.8 0.9 2.8 1.3 2.7 6.4 12.3 5.7 12.3 5.3 12.1 4.4 12.1 4 11.9 3.3 11.8 2.7 11.6 2 11.6 1 8.3 0.4 8.3v8.2l-0.6 8-1 6.9-1.3 6.7-1.7 6.7-2.1 6.6-2.5 6.7-2.8 6.5-3.3 6.5-3.6 6.4-3.9 6.5-4.3 6.2-4.8 6.3-4.9 6-5.5 6.1-5.9 6-6.1 5.9-6.4 5.7-7 5.7-7.3 5.8-7.6 5.5-7.9 5.3-8.2 5.4-8.7 5.1-8.7 4.8-9 4.9-9.3 4.6-9.6 4.3-9.7 4.2-9.8 4-9.8 3.5-10 3.5-9.9 3-9.7 2.9-13.4 3.4-13.4 3.2-13.4 2.8-13.3 2.4-13.4 2.3-13.2 1.8-13.2 1.7-13.1 1.1-13.1 0.9-13.2 0.6-13.1 0.3h-13l-13-0.4-12.9-0.6-13-0.9-12.9-1.4-20.4-2.7-20.3-3.6-20.3-4.2-20.2-5.2-20-5.9-20-6.7-19.9-7.6-19.8-8.3-3.7-1.4-3.8-1-4.5-0.6-4.6-0.2-4.8 0.6-4.1 1-3.1 1.6-1.2 1.2-0.9 1.1-0.9 1.6-0.5 1.6-0.4 1.8v1.9l-7.4-16.2-10.5-20.6-13.4-25.3-16.4-30-5.4-10.3-4.6-10.2-3.8-10.2-2.9-10.1-2.3-10.1-1.4-10.1-0.7-10 0.2-10 0.5-6 0.7-6 1.1-6 1.2-5.8 1.7-6 1.9-5.9 2.2-6 2.4-5.9 2.7-5.8 3-5.9 7.1-11.6 8-11.6 9.2-11.6 8.5-9.7 8.8-9.2 9.1-8.7 9.3-8.1 9.7-7.8 9.8-7.3 10.2-6.7 10.5-6.4 11.3-6.1 11.5-5.5 12-5.1 12.1-4.6 12.6-4 12.8-3.4 13.1-3 13.4-2.4 16.6-2.4 16.6-2.3 16.7-1.9z"/>
	</g>
	<g id="Layer">
		<path id="Layer" class="s19" d="m2707.7 2404.4l-34.2 15.7-31.1 13.9-28.2 12.2-25.2 10.3-22.2 8.5-19.3 6.8-16.3 5.1-13.3 3.2-11.5 2.4-11.5 2.7-11.3 2.9-11.1 3.3-11.1 3.5-11.1 3.7-10.8 3.9-10.9 4.2-19.6 8.5-19.3 9.3-2.3 1.4-2 1.6-1.7 2-1.5 2.1-1.2 2.4-0.7 2.5-0.4 2.6v2.6l0.5 4.3 1.1 3.7 1.6 3.1 2.1 2.4 2.7 1.8 3.1 1.3 3.6 0.5 4 0.1 17.8-0.5 23.3-0.1 29.5-0.3 11.2-0.5 10.2-0.9 10.1-1.1 9.7-1.7 9.3-1.9 9.2-2.4 9.3-3.1 9.3-3.4 3.2-1 3.3-0.6h3.5l3.3 0.4 3.2 1 3 1.6 2.8 1.9 2.4 2.3 10 11.2 9.4 11.6 9.5 12.6 8.9 13.1 8.6 13.4 8 13.7 7.5 14.2 7 14.5 6.5 15 6 15.3-7.1-1.2-7.3-1.6-7.4-2-7.4-2.3-5.6-2.3-6.1-3.1-6.5-4.2-7.2-5.2-4.3-3.1-4.5-2.8-4.4-2.6-4.5-2-4.5-1.8-4.6-1.4-4.5-0.9-4.6-0.7-4.6-0.3-4.6 0.1-43.5 2.2-44.5 1.7-45.6 1.3-46.5 0.9-28.9 0.6-30.1 0.9-31.3 1.4-33.2 1.8-71.6 4.6-97.8 7.3-86.1 6.5-25.3 1.7-26.1 1.2-27.2 1.2-28.2 0.9-29.1 0.5-30.1 0.4-31.1 0.1-32-0.3-67.2-1.1-71.1-2.2-74.9-3.2-78.9-4.2-44.5-2.3-62-2.5-72.5-3-53.1-2.9-24.6-1.7-23.3-1.9-22.1-2.1-21.4-2.3-7.8-0.8-8.5-0.5-19.2-0.3-21.9 0.7-24.8 1.6-27.5 2.7-30.3 3.6-33.1 4.6-36 5.5 67-120.3 1.1-1.8 1.3-1.5 1.4-1.2 1.7-0.9 1.6-0.6 1.9-0.3h1.9l2.2 0.4 7.7 2 10.3 3.2 10 3.2 7.4 1.9 6.8 1.3 6.4 0.7 36.1 1.4 36 0.6 6-0.4 5.1-1.1 2.2-0.9 1.9-1.2 1.6-1.3 1.6-1.4 1.1-1.7 1-1.8 0.8-2.2 0.5-2.3 0.4-5.1-0.7-6-1.2-7-1.2-5.2-1.8-4.6-2.4-4.1-2.8-3.5-3.6-3-4-2.4-4.8-1.8-5.3-1.3-22.1-4-21-4.4-19.8-4.7-18.8-5.1-17.6-5.5-16.4-5.9-15.5-6.1-14.1-6.7 35.3 5 35.5 5.6 35.3 6.3 35.5 6.7 14.8 2.6 14.1 1.7 13.4 0.6 12.8-0.3 17.6-0.6 16.2 0.3 14.7 0.8 13.2 1.8 33.6 5.6 33.1 5.2 32.8 4.5 32.5 4.3 32.3 3.5 31.9 3.1 31.6 2.7 31.3 2 70.3 3.7 34.7 1.5 34.4 1.2 34.1 0.9 33.8 0.6 33.4 0.4 33.2 0.1 32.8-0.1 32.5-0.5 32.3-0.7 31.8-1 31.7-1.2 31.2-1.6 31-1.8 30.8-2 29.3-2.6 39.8-4.2 50.4-5.7 61-7.4 67.1-8.2 70.4-8.3 22-2.6 22.1-3.1 22.1-3.2 22.2-3.6 22-3.7 22.1-4 22.1-4.4 22-4.6 22.1-4.9 22.1-5.1 22.1-5.4 22.1-5.7 22.1-6 22.1-6.3 22-6.5z"/>
		<path id="Layer" class="s19" d="m904.4 2751.8l-2.9 23.2-4.5 31.5-4.1 28.7-2.8 20.9-2.2 18.9-1.5 17.4-1.8 17.8-2.5 16.6-1 7-0.8 7.4-0.5 7.8-0.1 8.2 0.2 8.5 0.5 8.8 0.8 9.3 1.1 9.6 0.7 6.9 0.1 7.4-0.3 8.1-0.8 11-1.1 14.8v5.7l0.2 5.3 0.5 4.9 0.7 4.9 1.1 4.7 1.4 4.5 2.6 6.4 5.8 12.6 5.3 12.9 5 13.2 4.6 13.4 2.7 7.4 3 7.2 3.5 6.9 3.9 6.6 4 5.7 4.2 5.6 4.6 5.4 5 5.1 2.8 2.7 8.1 6.7 8.7 6.3 9.5 5.6 10.2 5.1 10.7 4.5 12.2 4.4 13.7 4.3 19 5.3 19.6 5.5 14.3 4.5 1.2 0.2 1.6 0.1 1.8-0.2 1.7-0.7 1.4-0.8 1.2-1.3 0.9-1.4 0.7-1.7 0.2-1.8 0.1-9.5-0.3-9.6-0.7-9.6-1-9.5-1.4-9.7-1.8-9.6-2-9.7-2.6-9.7-4.6-17.2-4.2-17.4-3.8-17.6-3.6-17.6-6.7-34.5-5.9-28.1-5-21.4-4.1-14.8-2.5-9.3-2.1-9.2-1.2-9.1-0.9-8.8-0.3-8.8 0.4-8.7 0.9-8.5 1.5-8.4 1.4-5.6 1.7-5.6 1.9-5.7 2.2-5.4 2.4-5.4 2.7-5.4 3-5.3 3.2-5.2 0.2 12.1 0.3 11.8 0.7 11.9 1 11.6 1.3 11.4 1.5 11.2 1.8 11.1 2.2 11 12.3 60 3.7 18.8 2.1 11.2 3.2 19.5 3.5 19.5 4 19.4 4.4 19.3 5.9 23.2 6.4 23.1 7.1 23 7.7 22.8 8.2 22.7 8.9 22.5 9.3 22.4 10.1 22.2 0.5 1.5 0.1 1.7-0.1 1.6-0.7 1.7-0.8 1.3-1.3 1.1-1.4 0.9-1.7 0.4-1.9 0.1-42.1-4.2-43-5-7.9-1.1-7.6-1.3-7.6-1.8-7.4-1.9-7.4-2.3-7.1-2.5-7-2.8-6.9-3.2-7.9-4.1-7.8-4.5-7.5-4.8-7.3-5.4-7.1-5.6-6.9-6.1-6.8-6.5-6.5-6.8-6.2-7.2-6-7.7-5.9-8-5.6-8.3-5.4-8.7-5.2-9.2-4.9-9.4-4.7-10-4.6-10.2-4.2-10.7-4.1-11-3.7-11.3-3.4-11.6-3.3-12-2.8-12.1-2.7-12.4-2.4-12.8-2.1-12.8-1.8-13.1-1.5-13.2-1.1-13.2-0.8-13.2-0.5-13.3-0.3-13.1 8.5-72 0.6-1.9 0.9-1.4 1.4-1.1 1.4-0.8 1.1-0.6 0.8-0.9 0.8-1.3 0.4-1.5 10.4-101.3z"/>
		<path id="Layer" class="s19" d="m2691.5 2762.4l7.5 19.4 6.8 19.5 6.1 19.6 5.5 19.7 4.9 19.7 4.2 19.9 3.5 19.9 2.8 20.1 1.7 13.9 1.3 14 1 14 0.6 14.1 0.4 14v14.2l-0.2 14.1-0.7 14.3-1.4 19.6-2.1 19.3-3.1 18.8-3.7 18.3-4.5 17.8-5.2 17.1-5.9 16.4-6.6 15.8-7.4 15.1-8 14.4-8.6 13.5-9.4 12.8-10 12.1-10.6 11.2-11.3 10.5-11.9 9.7-7.4 5.3-7.8 5.3-7.9 4.7-8.4 4.4-8.9 4.1-9.3 3.8-10 3.6-10.3 3.2-11.1 3.1-11.5 2.5-11.8 2.4-12.5 2.1-13.2 1.9-13.8 1.5-14.4 1.4-15.4 1.2-36.5 1.8-2.2-0.2-2-0.6-1.9-1.1-1.5-1.4-1.3-1.8-0.8-2.1-0.2-2.1 0.1-2.2 0.6-2.1 9.8-23.3 9.5-23.5 8.8-23.3 8.4-23.4 7.8-23.4 7.4-23.4 6.9-23.4 6.4-23.4 5.7-23.5 5.3-23.3 4.9-23.5 4.3-23.4 3.9-23.5 3.3-23.4 2.8-23.4 2.3-23.5 1.1-10.7 1.4-10.6 1.8-10.6 2.2-10.4 3.3-13.1 3.7-12.8 0.9-3.6 0.1-3.6-0.2-3-0.9-3.2-1.8-5.5 4.1-5.3 5.6-0.1 5.2 0.7 4.7 1.4 4.4 2.1 2.8 2.1 2.7 2.5 2.4 3.1 2 3.3 1.8 3.8 1.7 4.2 1.2 4.8 1.1 5.1 0.5 3.9 0.4 4.5v10.2l-0.9 11.8-1.8 13.7-19.7 130-1.1 6.5-1.4 6.5-1.7 6.4-1.9 6.2-2.8 7.8-1.5 4.8-1.2 5.1-0.6 5.8-0.4 7.9-0.4 7.4-0.5 5.4-0.9 4.9-1.3 4.7-4.8 16.2-3.8 16.4-3 16.3-1.9 16.6-0.7 9.7-0.4 9.7 0.4 3.2 0.5 1.4 0.7 1.1 0.9 1 1.2 0.8 2.9 1.3 6.5 1.5 6 1.2 5.9 0.7 6.1 0.5 6 0.3 6.2-0.1 6.4-0.3 6.4-0.6 6.6-0.9 13.4-2.6 14.7-3.7 15.9-4.8 22-7.4 0.7-0.3 2.6-1 2.4-1.4 2.4-1.8 2.2-2.2 6.5-6.8 10-9.1 10-9.4 6.8-7.1 2.8-3.4 2.3-3.3 2-3.3 1.7-3.2 5.1-11.8 4.7-11.7 4.5-11.6 3.9-11.7 3.6-11.6 3.2-11.7 2.9-11.6 2.5-11.4 2-11.6 1.8-11.5 1.3-11.5 0.9-11.5 0.6-11.3 0.1-11.5-0.1-11.4-0.6-11.3-1.6-16.5-2.3-16.3-3-16.3-4-16.2-1.6-4.8-2.3-4-1.2-2.2-0.9-2.2-0.7-2.9-0.2-3.2v-6l-0.2-6.1-0.5-6.3-0.9-6.5-1.3-6.5-1.5-6.7-1.9-7.1-2.2-7-3-9.9-2.1-10.1-1.6-10.1-0.7-10.1v-8.6l0.4-8.6 1-8.7z"/>
		<path id="Layer" class="s19" d="m1667.6 3039.3l11 12.9 10.4 11.5 10.2 10 10 8.5 9.4 7 4.6 3 4.5 2.6 4.4 2.2 4.4 1.9 4.2 1.4 4.2 1.1 21.7 4.5 16.4 2.8 16.4 2.4 16.5 2.1 16.6 1.5 6.7 0.3 6.3-0.2 6-0.5 5.8-1 5.3-1.5 5.1-2 4.8-2.4 4.4-2.8 4.5-3.6 4.2-4.2 3.7-4.7 3.3-5.2-1.4 10.4-1.9 10.4-1.8 8.4-1.9 8.3-2.3 8.3-2.6 8.3-8.2 26.4-7.8 26.1-5.3 19.3-4.7 19.1-4.2 19-3.6 19-3.1 19-2.6 18.9-2.2 18.9-1.5 18.8-0.6 2.4-1.6 2-2 1.4-2.4 0.5-73.2 3.2-3.2-0.1-3.1-0.8-2.8-1.2-2.6-1.8-2.1-2.3-1.8-2.6-1.3-2.9-0.6-3.1-2.7-20-2.9-19.9-3.2-19.6-3.5-19.6-3.7-19.4-3.8-19.2-4.2-19-4.5-18.9-4.6-18.8-4.9-18.6-5.1-18.3-5.4-18.3-5.7-18.1-5.9-17.9-6.1-17.7z"/>
		<path id="Layer" class="s19" d="m2371.6 3184.2l-9.1 25.3-9.5 24.7-10.4 24.4-10.8 24-11.5 23.6-12 23.2-12.7 22.7-13.3 22.3-6.1 9.6-6.7 9.4-6.8 9.1-7.4 8.9-7.8 8.5-8.3 8.5-8.6 8.3-9 7.9-9.5 7.6-9.8 7.5-10.2 7.2-10.7 7-11 6.8-11.4 6.5-12 6.3-12.3 6-7.9 3.5-7.8 2.8-7.5 2-7.4 1.6-7.3 0.7h-7.1l-6.9-0.5-6.8-1.3-4-1.1-4.1-1.4-4-1.7-3.9-1.9 0.4-1.4-0.2-1.1-0.6-1-1.2-0.9-1.6-0.7-2.3-0.5-6.3-0.5-8.3 0.3-10.3 1.1-10.5 1.9-10.5 2.8-10.9 3.7-6.9-1.9-6.5-2.5-6.6-3.5-6.5-4.1-6-4.7-5.7-5.5-5.4-6.1-5-6.8-4.6-7.4-4.2-8-3.9-8.8-3.5-9.3-3-9.8-2.6-10.4-2-10.7-1.6-10.8-1-11-0.4-11 45.2 47.8 2.5 2.2 3 1.6 3 0.9 3.3 0.2 22.1 0.2 22.9 0.1 16.4-0.5 14.9-1.3 13.6-2 7-1.1 7.6-0.7 8.4-0.3h11.5l15.6-0.1 11.3-0.8 5.3-0.7 4.8-1.1 4.9-1.4 4.4-1.5 9.8-3.6 10.4-3.8 7.5-2.9 6.4-3 5.9-3 5.3-3.5 5-3.5 4.4-4 4-4.2 1.7-2 2.6-3.1 3.1-2.8 3.6-2.7 3.8-2.2 4.3-1.9 4.6-1.4 3.3-1.1 3.1-1.6 3.1-2.1 2.8-2.8 17.2-20.4 16.8-20.8 16.4-21.3 16-21.7 15.7-22.2 15.3-22.7 15-23.1z"/>
		<path id="Layer" class="s19" d="m1653.6 3338.4l0.2 8.2 0.1 8-0.2 7.8-0.5 7.5-0.8 7.4-1 7.3-1.3 7-1.5 6.9-1.8 6.8-2 6.5-2.3 6.2-2.6 6.2-2.9 6-3.1 5.7-3.3 5.6-3.7 5.4-6.9 8.9-7.6 8.3-8.6 7.9-9.3 7.3-10.1 6.6-10.8 6.1-11.6 5.6-12.5 5-3.5 1-3.7 0.4h-3.9l-4.2-0.5-4.5-1.1-4.7-1.7-5-2-5.2-2.7-6.3-3-5.8-2-5.8-1.1-5.6-0.2-4.7 0.5-4.7 1.4-5 1.9-6.5 3.2-6.4 3.2-4.7 1.8-4.5 1.2-4.3 0.3-3.7-0.3-3.7-0.8-10-3.1-9.5-3.4-9.5-3.8-9.2-4.1-9-4.5-8.7-4.7-8.5-5.1-8.3-5.5-7.2-5-6.7-5.2-6.8-5.5-6.5-5.7-6.4-6.1-6.1-6.3-6.1-6.5-5.8-6.8-5.7-7-5.5-7.2-5.3-7.6-5.1-7.8-5-7.9-4.9-8.3-4.6-8.5-4.4-8.8 96.9 52.2 3.2 1.4 3.3 1 2.7 0.5 2.7 0.3 139.2 5.1 7 0.1 7.4-0.3 7.8-0.6 8.1-0.9 8.4-1.4 8.7-1.5 9.2-2.1 9.4-2.3 5.1-1.4 4.8-1.8 4.5-1.9 4.4-2.1 3.9-2.5 3.9-2.6 3.5-3 3.4-3.2 3.1-3.5 3-3.9 6.6-10.3 5.7-10.8 5.2-11.6z"/>
	</g>
	<g id="Layer">
		<path id="Layer" class="s20" d="m2661 535.8l-20.5-4.7-18.8-4.9-16.7-5.2-14.9-5.2-13.1-5.6-5.9-3-5.4-2.8-4.8-3-4.5-3-3.9-3-3.5-3.2-15.4-14.6-15.9-13.7-16.2-13-16.6-12.4-16.9-11.7-17.3-11-17.6-10.2-18-9.6-7.3-3.6 4.7 0.9 4.6 0.5 4.6 0.2 4.5-0.3 0.6-0.1 3-0.8 1.1-0.6 1-0.8 0.9-1.1 0.7-1.3 0.6-3.1-0.1-3.7-0.8-3.4-1.5-3.5-2.3-3.1-3.1-3-3.8-2.7-27.3-16.8-26.9-17.2-2.7-2.2-2-2.7-1.6-3-0.7-3.3-0.2-3.5 0.8-3.3 1.4-3.2 2-2.7 2.2-1.9 13.7-9.7 13.7-9.4 13.8-8.9 14-8.7 14.1-8.2 14.3-7.9 14.3-7.4 14.4-7.1 24.7-11.5 24.9-11 25.1-10.6 25.3-10.1 24.5-9.3 24.7-8.8 25-8.4 25-8 25.3-7.5 25.5-7.2 25.6-6.7 25.7-6.3 26-5.9 26-5.3 26.3-5 26.5-4.5 26.6-4 26.7-3.7 27-3.2 27.1-2.8 20.6-1.6 19.9-0.5 19.5 0.4 19 1.3 18.4 2.1 17.9 3.2 17.5 4.1 8.6 2.4 8.4 2.6 3 1 8.7 3.7 8.4 4.3 8.1 5.3 7.8 6.1 7.5 6.9 7.1 7.6 6.9 8.6 6.6 9.3 0.9 1.7 0.5 1.4 0.3 1.2-0.3 1.2-0.6 1-1 0.9-1.4 0.8-1.8 0.5-29.1 7.5-27.3 8-13 4.1-12.5 4.4-12 4.3-11.6 4.6-24.2 10.1-24 10.6-23.7 11-23.5 11.5-23.2 12-22.9 12.4-22.5 12.9-22.4 13.4-26.7 16.8-26.3 17.6-26 18.3-25.6 18.8-25 19.7-24.7 20.3-24.2 20.9-23.9 21.7-10.5 10.3-9.3 10.2-7.9 10.1-6.6 10.1-2.9 4.9-2.6 4.9-2.3 5-1.9 4.9-1.5 4.9-1.3 4.8-1 4.9z"/>
		<path id="Layer" class="s20" d="m1066.9 411.3l-8.4 1.7-8.4 1.9-8.2 2-8.2 2.5-8 2.6-7.9 2.8-7.8 3.2-7.6 3.3-8.1 3.9-7.9 4.2-7.9 4.4-7.6 4.8-6 4.2-6.2 5.2-6.5 6.4-8.6 9-7.2 7.7-5.3 5.3-6.9 6.9-7 7.7-7.1 8.3-7.2 9-5 6-5.6 5.8-6.3 5.3-6.7 5.1-7.4 4.8-8.1 4.3-8.5 3.9-9.2 3.7 3.7-4.3 2.9-4.5 2.1-4.4 1.5-4.9 0.6-3.8 0.2-3.7-0.3-3.8-0.6-4-1-3.9-1.6-4.4-1.9-4-2.3-4.5-2.7-4.2-3-4.5-7.4-9.4-9.1-9.8-12.2-12-0.5-0.6-21.2-19.8-21.4-19.4-21.6-18.8-21.9-18.2-22.2-17.6-22.5-17.1-22.7-16.5-22.8-15.9-23.2-15.3-23.5-14.8-23.6-14.2-24-13.6-24.2-13.1-24.4-12.3-24.7-11.9-25-11.3-28.1-11.9-28.3-11.2-28.7-10.5-29.1-9.7-1.9-0.9-1.7-1.3-1.4-1.5-0.9-1.9-0.5-2-0.1-2.1 0.4-2 0.9-1.9 1.2-1.7 6.2-6 6.6-5.5 7-5.2 7.5-4.8 8.1-4.5 8.5-4 8.8-3.7 9.5-3.3 9.9-2.9 10.5-2.7 10.7-2.2 11.3-1.7 11.8-1.6 12.2-1 12.8-0.8 13.2-0.2h13.4l13.9 0.4 14.5 0.7 14.8 1.2 15.4 1.5 15.8 1.8 16.3 2.3 16.9 2.5 17.1 3 17.3 3.2 36.9 7.6 39.4 9.1 49 12.2 18.1 4.6 18.6 4.9 18.6 5.3 18.8 5.6 18.6 6.1 18.8 6.4 18.7 6.9 18.8 7.3 18.9 7.6 18.7 8.1 18.9 8.4 18.9 8.8 19 9.3 18.8 9.6 19.1 10.1 19 10.3 19 10.8 16.4 10 16 10.9 15.5 11.7 15.2 12.6 1.9 2.2 0.4 1v0.9l-0.3 1-0.6 0.8-2.3 1.6-39.5 19.9-41.5 20.3-2.9 1.5-2.7 1.8-2.4 2-2.2 2.2-2.5 3.3-2.2 3.6-1.5 3.5-0.7 3.1-0.1 2.8 0.8 2.6 1 1.7 1.4 1.5 1.9 1.4 2.3 1.1 2.7 0.9 3.2 0.8z"/>
		<path id="Layer" class="s20" d="m3496.2 2513.1l-23.1 20.4-23.4 20.1-23.6 19.3-23.8 19.1-24.3 18.6-24.6 18-24.7 17.6-25.1 17.1-32.3 21.8-33.1 22.4-24.5 16-22.4 13.9-20.9 12.1-20.7 11-20 9.4-9.8 4.3-9.7 4-9.9 3.7-9.5 3.3-2.6 0.6-2.6 0.2-2.7-0.3-2.6-0.6-2.3-1.2-2.1-1.5-2-1.9-1.5-2.2-5.9-10.7-5.6-11.5-5.3-12.1-5.1-13-1.7-4.3-6.7-17.1-7.3-17-7.8-16.7-8.4-16.5-8.8-16.3-9.3-16.2-10-15.9-10.3-15.7 18.5-15.7 15.9-13.5 11.4-10.2 10.1-9.7 8.6-9.5 18.5-21 18.5-20.8 18.8-20.7 19-20.3 19-20 19.1-19.8 19.4-19.5 19.5-19.2 8.4-7.8 8.7-7.2 9.3-6.6 9.6-6 10.1-5.5 10.3-5 10.9-4.2 10.9-3.7 11.2-2.9 11.4-2.4 11.6-1.7 11.6-1 11.8-0.3 11.8 0.3 11.8 1.1 11.6 1.7 13.7 2.8 13 3.7 12.3 4.3 11.5 5.2 10.7 5.7 5 3.2 4.8 3.4 4.7 3.5 4.5 3.8 4.2 3.8 4.1 4.2 5.6 6.2 5.1 6.6 4.7 7 4.4 7.4 3.8 7.8 3.6 8 3 8.6 2.7 8.9 2.4 9.2 1.8 9.7 1.5 10.1 1.2 10.3 0.6 10.8 0.4 11.3-0.1 11.4z"/>
	</g>
	<g id="Layer">
		<path id="Layer" class="s21" d="m3233 243.4l-71.3 59.5-70.8 58.7-70.5 58-70.1 57.3-12.6 10.7-13.1 12-13.7 13.1-14.3 14.6-14.6 15.7-15.2 16.9-15.8 18.1-16.2 19.6-12.9-10.4-13.4-9.9-13.9-9.7-14.7-9.3-15.2-9-15.7-8.6-16.3-8.5-16.9-8-1.6-0.9-1.1-0.9-0.8-0.9-0.4-1v-1.1l0.4-1.2 0.8-1.3 1.1-1.2 18.5-18.3 19.2-17.8 19.9-17.4 20.6-17 21.2-16.4 21.9-16 22.7-15.4 23.4-15 34.8-21.5 35-20.8 34.8-20 34.9-19.4 35-18.7 35.1-18 34.9-17.4 35.1-16.5 9.4-3.9 11.9-3.7 14-3.4 16.4-3.5 2.9-0.1 2.9 0.6 2.7 1.5 2 2.1 4.8 7.2 1.7 3.2 1.5 3.1 1 2.8 0.6 2.7 0.1 2.5z"/>
		<path id="Layer" class="s21" d="m428.7 261.9l28.2 13.4 26.7 13.3 25.2 13.4 23.8 13.3 22.3 13.2 20.8 13.3 19.4 13.3 17.8 13.2 44.4 34.6 44.8 35.8 45.4 37.2 45.9 38.5 2.2 2.3 1.7 2.7 1 3 0.4 3.1-0.4 3.2-0.9 2.9-1.7 2.8-2.1 2.3-1.7 1.3-94.8 61.3-50.5-50-50.8-49.3-50.7-48.9-51.1-48.2-9.5-8.8-10.1-8.7-10.7-8.9-11.4-9.1-24.7-18.6-34.3-24.6-23-16.3-16.7-12.2-4.6-3.7-4.1-4-3.8-4.4-3.4-4.7-3.2-5.1-2.8-5.5-2.6-5.8-2.2-6.3-1.7-6.6-1.3-3.2-0.9-1.3-1-0.9-1.3-0.8-1.4-0.6-3.2-0.4h-14.2l1.9-4.4 2.2-4.2 2.3-3.7 2.6-3.5 8.9-1.5 7.4-0.7 6.8 0.3 6.5 1 5.3 1.5 5.2 2.2 18.7 8.7 19.1 8.3 19.8 8z"/>
	</g>
	<g id="Layer">
		<path id="Layer" class="s22" d="m428.7 261.9l-20.1-7.5-19.8-8-19.1-8.3-18.7-8.7-5.2-2.2-5.3-1.5-6.5-1-6.8-0.3-7.4 0.7-8.9 1.5-0.4-2.3 0.2-2.3 1.1-2.8 2-2.7 0.1-0.1 1.7-1.3 1.9-1 2.3-0.6 2.7-0.3 10.2-0.2 9.7 0.3 9.4 1.1 9.1 1.6 8.6 2.2 8.5 2.9 7.9 3.5 7.6 4.1 5 3.1 4.8 3.5 4.6 3.7 4.6 3.9 4.2 4.4 4.2 4.6 4 4.8z"/>
		<path id="Layer" class="s22" d="m939.2 1922.8l9-0.3 9.3 0.5 9.2 1.3 9.3 2.2 9.3 2.8-5.9 0.7-5.6 0.4h-5.5l-5.2-0.4-5.3-0.7-4.9-1.2-4.9-1.5-4.6-1.8z"/>
		<path id="Layer" class="s22" d="m3496.2 2513.1l-1.6 15.7-2.1 15.6-3.1 15.4-3.7 15.1-3.2 11.3-3.6 11.1-4 11.1-4.5 11-4.8 10.8-5.4 10.7-5.6 10.6-6.1 10.6-6.5 10.3-6.9 10.4-7.3 10.2-7.7 10.1-8.1 9.9-8.6 9.8-8.9 9.7-9.3 9.7-12.5 12.4-12.8 12-12.9 11.6-13 11.2-13.2 10.9-13.3 10.5-13.5 10.1-13.8 9.8-13.8 9.5-14 8.9-14.2 8.7-14.4 8.3-14.4 7.9-14.7 7.5-14.9 7.3-14.9 6.7-12.5 5.4-12.8 5.1-12.7 4.9-12.9 4.5-30.7 10.3-31.4 9.3-31.7 8.5-32.1 7.8-32.7 7-32.9 6.1-33.5 5.4-34 4.5h-0.2l-4.7 0.1-4.6-0.9-4.2-1.8-4-2.5-3.3-3.4-2.5-3.8-1.8-4.3-0.9-4.6-4.2-43.5-2.1-17.5-2-15.9-2.3-15.3-2.6-14.7-2.6-13.9-3-13.4-3.3-13.3-3.4-12.6-3.9-12.3-4-11.7-4.5-11.5-4.6-10.9-5.1-10.6-5.2-10.2-0.9-2.2-0.5-2.3 0.1-2.3 0.4-2.3 1-2.2 1.4-1.9 1.7-1.5 2-1.3 0.6-0.2 34.5-13.8 34.2-14.3 12.6-5.6 12.2-6 12.1-6.3 11.8-6.7 11.6-6.9 11.2-7.4 11.1-7.7 10.7-8 9.5-7.5 9.2-7.8 8.9-8 8.8-8.3 10.3 15.7 10 15.9 9.3 16.2 8.8 16.3 8.4 16.5 7.8 16.7 7.3 17 6.7 17.1 1.7 4.3 5.1 13 5.3 12.1 5.6 11.5 5.9 10.7 1.5 2.2 2 1.9 2.1 1.5 2.3 1.2 2.6 0.6 2.7 0.3 2.6-0.2 2.6-0.6 9.5-3.3 9.9-3.7 9.7-4 9.8-4.3 20-9.4 20.7-11 20.9-12.1 22.4-13.9 24.5-16 33.1-22.4 32.3-21.8 25.1-17.1 24.7-17.6 24.6-18 24.3-18.6 23.8-19.1 23.6-19.3 23.4-20.1z"/>
		<path id="Layer" class="s19" d="m885 2802.2l-10.4 101.3-0.4 1.5-0.8 1.3-0.8 0.9-1.1 0.6-1.4 0.8-1.4 1.1-0.9 1.4-0.6 1.9-8.5 72-1.5-13.6-1-13.3-0.5-13.4 0.1-13.6 0.9-16.2 1.7-16.2 2.4-16 3.2-16.2 4-16.1 4.9-16.1 5.6-16.1z"/>
	</g>
	<g id="Layer">
		<path id="Layer" class="s16" d="m2442.6 1531.5c-45.7 42.5-108.9 48.4-141.5 13.4-32.5-35-21.9-97.7 23.7-140.1 45.7-42.5 109-48.4 141.5-13.4 32.6 35 22 97.7-23.7 140.1z"/>
	</g>
	<g id="Layer copy 2">
		<path id="Layer" class="s16" d="m951.6 1535.5c-45.7 42.5-108.9 48.4-141.5 13.4-32.5-35-21.9-97.7 23.7-140.1 45.7-42.5 109-48.4 141.5-13.4 32.6 35 22 97.7-23.7 140.1z"/>
	</g>
	<g id="Layer">
		<path id="Layer" class="s0" d="m1902.2 1815.6l-4.6 18.3-2.6 8.6-2.6 8.2-2.9 7.8-3.1 7.5-3.2 7.3-3.5 6.9-3.7 6.5-3.8 6.2-4.1 6-4.3 5.6-4.5 5.4-4.7 5.1-4.9 4.8-5.1 4.5-6.6 5.1-6.9 4.7-7.2 4.4-7.7 3.9-7.9 3.6-8.4 3.2-8.7 2.7-9.1 2.4-7.7 1.5-7.7 0.8-7.6 0.2-7.6-0.6-4.6-0.6-4.4-0.9-4.6-1.3-4.5-1.4-8.8-3.7-8.5-4.7-8.3-5.6-8.2-6.7-7.9-7.6-7.4-8.5-7.3-9.5-6.7-10.4-6.3-10.9-5.6-11.6-5-12.1-4.2-12.4-3.4-12.4-2.6-12.1-0.7-2.9-1.3-2.7-1.7-2.4-2-2.2-2.4-1.8-2.6-1.4-2.9-0.9-3-0.4-8.6-0.7-8.3-1.2-7.8-1.7-7.5-2.2-7-2.7-6.8-3.2-6.3-3.8-5.8-4.3-3.7-3-3.5-3.3-3.3-3.6-3.2-3.8-2.9-4-2.8-4.3-2.7-4.4-2.4-4.7-4.4-10.1-3.6-10.8-3-11.9-2.2-12.7-0.2-3.8 0.1-3.9 1-4.6 1.7-4.4 2.6-4.1 3-3.8 3.7-3.4 4.1-2.9 4.6-2.2 4.8-1.6 2.7-0.5 2.6-0.2 2.1 0.4 2.2 0.8 1.8 1.1 1.8 1.7 1.4 2 1.3 2.5 17.8 41.6 1.7 3.1 2.1 3 2.5 2.3 2.8 2 1.1 0.7 6.8 3.5 7.4 2.8 7.6 1.9 8.2 1.1 8.5 0.1 9-0.6 9-1.6 9.2-2.3 9.6-3.3 9.5-4.1 9.2-4.7 9-5.5 8.4-6.1 7.6-6.5 6.8-6.8 5.7-7 1.8-2.5 1.4-2.8 1.2-3 0.7-3 0.5-3.1 0.2-3.1-0.2-3.1-0.6-3.1-0.8-3.1-1.1-2.8-1.5-2.8-1.7-2.5-2-2.5-2.3-2.1-2.5-1.9-2.6-1.7-3.9-1.7-10.2-4.2-9.4-4.7-8.3-5.3-3.7-2.7-3.4-3-3.1-3-2.9-3.1-2.6-3.2-2.2-3.3-1.9-3.3-1.6-3.6-1.2-3.4-1-3.6-0.6-3.9-0.4-4.3 0.1-4 0.5-4.4 0.8-4.2 1.3-4.4 1.5-4.4 2-4.6 2.6-4.6 3.2-4.2 3.7-4.1 4.3-3.8 5.1-3.7 5.5-3.3 6.1-3.2 6.5-2.7 7.2-2.5 7.5-2.2 7.9-1.9 8.2-1.4 8.6-1.2 8.7-0.7 8.8-0.4h8.8l8.7 0.5 8.5 0.8 8.3 1.1 8.2 1.6 7.6 1.7 7.3 2.2 6.9 2.6 6.5 2.8 5.7 3 5.4 3.5 4.7 3.5 4.2 4 3.5 4 3 4.3 2.3 4.5 1.7 4.7 0.8 3.3 0.5 3.3 0.2 3.2v3.4l-0.4 3.6-0.5 3.6-2 7.3-2.2 5.2-3.2 5.2-3.8 5.2-4.8 5.1-5.7 5.3-6.5 5.2-7.7 5.7-10.9 7.6-11 7.5-7.3 5.6-1.7 1.5-1.3 1.7-0.9 1.7-0.6 1.7-0.1 2 0.1 1.7 0.4 2.1 0.9 2 4.8 9.3 5.2 8.6 5.7 7.9 5.9 7.1 6.4 6.4 6.7 5.6 7.1 4.9 7.4 4.1 4.3 2 4.5 1.8 4.6 1.5 4.6 1.3 9.8 1.9 10.1 0.9 10.7 0.1 11.1-1 11.6-1.8 12-2.8 8-2.7 3.7-1.6 3.6-1.8 3.3-2.1 3.1-2.1 2.9-2.4 2.7-2.6 2.9-3.3 2.6-3.6 2.3-3.9 2-4.1 1.8-4.5 1.5-4.6 1.2-5 0.9-5.2 0.9-3.9 1.2-3.1 1.7-2.6 2.2-1.6 2.5-1 3-0.4 3.3 0.4 3.8 1.1 4.3 1.9 3.9 2.2 3.3 2.7 2.8 3 1.8 2.3 1.4 2.6 1.1 2.7 1 2.9 0.7 3.1 0.5 3.3 0.2 7.1-0.3 7.2-0.9 6.9-1.3 6.6-1.7 6.4-2 6.1-2.4 5.7-3 5.6-3.2 5.3-3.1 4.3-3.4 4.1-3.7 3.9-3.9 3.7-4.3 3.6-4.6 3.3-5 3.1-5.1 2.9-5.6 2.7-5.6 2.6-6.2 2.3-6.2 2-6.6 1.9-6.9 1.7-14.6 2.6-2.4 0.6-2.2 0.7-1.9 1-1.6 1.4-1.4 1.6-1.2 1.8-0.9 2.1z"/>
	</g>
	<path id="Layer" class="s21" d="m1833.2 1872.1l-33.5 29-3.7 2.8-3.8 2.4-3.9 2.1-4.2 1.6-4.5 1.3-4.5 0.9-4.4 0.5h-4.6l-4.5-0.5-4.5-0.8-4.3-1.3-4.3-1.6-4-2.1-3.8-2.4-3.7-2.8-3.3-3.2-30.5-31.5-2.3-2.5-2.2-3-2-2.9-1.7-3.1-1.5-3.3-1.3-3.3-1-3.4-0.8-3.5-0.6-6.6 0.1-6.6 1.2-6.7 2-6.4 2.9-6 3.7-5.6 4.5-4.9 5.1-4.4 30.6-22.4 5.4-3.5 5.7-2.7 6-1.9 6.3-1 4.6-0.2 4.4 0.1 4.5 0.6 4.4 1 4.3 1.4 4.2 1.8 3.9 2.2 3.7 2.6 33.4 25.1 4.1 3.4 3.7 3.9 3.2 4.3 2.7 4.6 2.3 4.8 1.5 5.1 1.2 5.4 0.3 5.2v5.4l-0.7 5.3-1.3 5.3-1.9 4.9-2.4 4.9-3 4.5-3.4 4z"/>
</svg>