<svg version="1.2" xmlns="http://www.w3.org/2000/svg" viewBox="0 0 3600 3600" width="3600" height="3600">
	<title>flores-svg</title>
	<style>
		.s0 { fill: none;stroke: #553d35;stroke-width: 3.3 } 
		.s1 { fill: #250c00 } 
		.s2 { fill: #807569 } 
		.s3 { fill: none;stroke: #a3e6f4;stroke-width: 3.3 } 
		.s4 { fill: none;stroke: #6d7a7f;stroke-width: 3.3 } 
		.s5 { fill: none;stroke: #607076;stroke-width: 3.3 } 
		.s6 { fill: none;stroke: #e48773;stroke-width: 3.3 } 
		.s7 { fill: none;stroke: #c0bab4;stroke-width: 3.3 } 
		.s8 { fill: none;stroke: #fcece0;stroke-width: 3.3 } 
		.s9 { fill: none;stroke: #ffd3c7;stroke-width: 3.3 } 
		.s10 { fill: none;stroke: #958280;stroke-width: 3.3 } 
		.s11 { fill: none;stroke: #b59887;stroke-width: 3.3 } 
		.s12 { fill: none;stroke: #bda795;stroke-width: 3.3 } 
		.s13 { fill: none;stroke: #945548;stroke-width: 3.3 } 
		.s14 { fill: none;stroke: #79665b;stroke-width: 3.3 } 
		.s15 { fill: none;stroke: #b8aba6;stroke-width: 3.3 } 
		.s16 { fill: #ffffff } 
		.s17 { fill: #2a0401 } 
		.s18 { fill: #fea68e } 
		.s19 { fill: #b0f0fd } 
		.s20 { fill: #96dbea } 
		.s21 { fill: #f9d9c0 } 
		.s22 { fill: #ca6857 } 
		.s23 { fill: #71574d } 
		.s24 { fill: #f3ca9c } 
		.s25 { fill: #ee8e74 } 
	</style>
	<g id="Layer">
		<path id="Layer" fill-rule="evenodd" class="s0" d="m2854.2 2917.9l3 91.4"/>
	</g>
	<g id="Layer">
		<path id="Layer" class="s1" d="m2854.2 2917.9l3 91.4 0.2 11.8-0.1 11.7-0.4 11.9-0.6 12-1.1 12.1-1.4 12.1-1.6 12.2-1.9 12.5-2.3 12.4-2.7 12.6-2.9 12.8-3.4 12.7-3.5 12.9-3.9 13-4.2 13.2-4.6 13.1-6.5 17.4-7.2 16.9-7.8 16.3-8.4 15.9-9.1 15.3-9.7 14.8-10.3 14.2-11 13.7-8.5 9.8-8.8 9.6-9.2 9.3-9.4 8.9-10 8.7-10.1 8.4-10.6 8-10.8 8-11.2 7.5-11.6 7.2-11.9 6.9-12.2 6.8-12.7 6.4-12.8 6.1-13.3 5.9-13.7 5.4-14.5 5.5-14.7 5.4-14.6 5-15 4.7-15 4.4-15.2 4.1-15.3 4-15.4 3.7-15.6 3.3-15.7 3.1-15.8 2.9-15.9 2.5-16.1 2.3-16.3 2.1-16.4 1.6-16.4 1.6-13.5 1.5-12 2.3-5.6 1.5-5.4 1.7-5.1 1.9-5.1 2.2-8.9 4.6-8.7 5.6-8.7 6.6-8.9 8-6.1 5.4-6.4 5-7.5 5.2-8 4.6-8.6 4.2-9.2 3.8-9.7 3.5-10.6 3.2-11.9 3-14.7 3.2-18.1 3.4-18 3-18.1 2.1-17.9 1.6-18 0.9-17.7 0.1-17.8-0.4-17.8-1-14.8-1.4-14.8-1.9-14.6-2.3-14.7-2.8-14.7-3.2-14.6-3.7-14.6-4.2-14.5-4.6-7.8-2.8-7.5-3.2-7.2-3.4-6.9-3.7-6.5-4.3-6.1-4.4-5.9-4.7-5.6-5.1-4-4.2-4-4.5-3.8-4.7-3.5-4.9-3.4-5-3.1-5.3-2.9-5.5-2.8-5.6-1-1.8-1.4-1.7-2.3-1.7-2.6-1.2-2.8-0.5-2.9 0.1-2.7 0.9-2.6 1.6-1.9 2-1.5 2.4-4.5 9.1-5.1 8.6-5.6 8-6.1 7.5-4.7 4.8-4.7 4.6-5.3 4.4-5.3 4-5.8 3.9-6 3.8-6.3 3.4-6.7 3.4-6.9 2.9-7.2 2.9-7.8 2.8-8.3 2.6-18 4.8-21.1 4.7-10.1 2-10.7 1.7-22.9 3-23.7 2-24.2 1.2-23.9 0.2-23.1-0.7-22.4-1.7-10.9-1.2-10.5-1.4-19.7-3.3-9.4-2-8.9-2.2-8.9-2.4-8.2-2.6-8.1-2.6-7.6-3.1-7.3-3.1-7-3.4-6.5-3.4-6.3-3.9-5.7-3.8-5.5-4.1-5.1-4.2-4.7-4.5-6.5-6.1-6.8-5.5-6.9-4.7-7.1-4.2-6.5-3-6.8-2.9-7.2-2.3-7.7-2-8-1.5-8.8-1.4-10.1-1.3-14.2-1.3-14.1-1.4-20.6-2.4-21-3.1-21.3-3.8-21.7-4.3-22.1-5-22.3-5.6-22.8-6.3-23.1-6.8-16.3-5.3-15.8-5.7-15.6-6-15-6.4-14.6-6.8-14.3-7.2-13.7-7.5-13.4-7.8-12.9-8.3-12.5-8.7-12.1-9-11.8-9.4-11.2-9.8-10.8-10.1-10.5-10.4-9.9-11-11.6-13.6-10.9-14.3-10.3-14.8-9.7-15.3-9.2-16-8.4-16.3-7.8-17.1-7.3-17.4-5.7-16.8-5.2-16.7-4.8-16.8-4.3-16.7-3.8-16.8-3.5-16.8-2.8-16.9-2.4-16.9-1.8-15.1-1.4-15.1-1-15.3-0.8-15.2-0.2-15.4 0.1-15.4 0.4-15.6 0.8-15.7 1.1-15.7 1.5-15.9 1.9-16 2.3-16 2.7-16.4 3-16.4 3.4-16.7 3.7-16.7 6.6-27.4 7.2-27.3 7.5-27 8-26.6 8.4-26.3 9-26.1 9.3-25.8 9.8-25.5 10.3-25.3 10.6-25 11.3-24.6 11.6-24.3 11.9-24.3 12.5-23.8 12.9-23.5 13.4-23.3 1-2.2 0.6-2.4v-2.4l-0.4-2.5-1.1-2.1-1.4-2.1-1.7-1.6-2.1-1.3-1.1-0.4-25-8.7-25.2-9.2-25.5-9.6-25.6-10.1-26-10.6-26.2-11.1-26.5-11.6-26.7-12-19.2-9.1-19.1-9.5-19.6-10.4-19.2-10.5-19-11.3-18.8-11.6-18.6-12-18.4-12.5-17.9-13-18-13.4-17.6-13.7-17.4-14.3-17.2-14.8-17-15.2-16.7-15.6-16.5-16-16.2-16.6-16.1-17-10.7-12-10.9-12.5-10.8-13.2-11.2-14.3-11.3-14.8-12.1-16.5-30.7-43.5-23.6-33.5-0.3-0.3-1-1-1.1-0.9-1.3-0.5-1.4-0.2h-1.5l-1.5 0.3-1.2 0.6-1.2 0.9-21.7 19.1-21.4 18.6-21.2 17.9-20.9 17.2-5.6 3.9-2.8 1.6-2.7 1.1-2.6 0.9-2.7 0.5-2.7 0.3-2.6-0.2-2.9-0.3-2.8-1.1-2.8-1.2-2.8-1.8-2.8-2.2-2.7-2.5-2.7-3-2.5-3.4-2.7-4.4-1.9-4.2-1-4.2-0.3-4.2 0.4-4.2 1.3-4.1 2.1-4.2 2.8-4.1 9.4-11.3 10.2-11.1 11.2-11.1 12.2-11.2 13.2-11.3 14.9-11.7 16.7-12.6 23.1-16.9 1.5-1.1 1.5-1.3 1.2-1.4 0.8-1.4 0.5-1.4v-1.5l-0.3-1.7-0.5-1.6-1-1.7-8.2-13.4-3.4-6.4-3.1-6.2-2.8-6.1-2.3-6-1.9-5.9-1.5-5.7-6.7-26.3-7.1-26.2-8-26-8.6-26-1.8-4.3-2.1-3.5-2.6-2.5-2.9-1.9-3.2-0.9-3.7-0.3-4 0.7-4.3 1.5-108.5 44.1-3 0.9-3 0.4-2.8-0.1-2.9-0.7-4.2-1.5-3.8-2-3.3-2.5-2.8-2.8-1.7-2-1.4-2.3-1.3-2.4-0.8-2.6-1.4-5.7-0.7-6.4 0.1-3.4 0.9-3.2 1.4-3.2 2.2-3 1.8-2 4.6-4.8 4.8-4.8 5.1-4.3 5.5-4.3 5.8-4 6.1-3.8 6.4-3.7 6.7-3.5 6.9-3.2 7.3-3 15.9-5.9 18.1-5.6 25.3-6.8 25-6.8 1.9-0.7 1.5-0.9 1.4-1 1.1-1.3 0.7-1.4 0.5-1.6 0.3-1.8v-1.9l-1.4-19.5-1.2-19.4-0.7-19.5-0.7-19.4-0.2-19.4v-19.3l0.2-19.2 0.5-19.3 0.9-19 1.1-19.1 1.4-19 1.6-18.9 1.9-18.9 2.3-18.7 2.4-18.8 2.9-18.7 3-18.5 3.3-18.5 3.6-18.4 4-18.4 4-18.2 4.5-18.1 4.6-18.1 5.1-18 5.1-17.9 5.6-17.7 5.7-17.6 6-17.6 6.4-17.5 6.6-17.3 6.8-17.2 7.2-17.3 6.6-15.1 1.1-3.5 0.2-3.4-0.4-1.8-0.5-1.7-1.9-3.4-7.3-9.8-7-10.1-8.7-13-8.3-13.4-7.9-13.7-7.7-13.7-7.1-14.2-6.9-14.4-6.4-14.5-6.1-15-8-21-7.4-21-7.2-21.3-6.5-21.5-5.2-18.1-4.8-18.2-4.5-18.4-4.2-18.5-3.8-18.6-3.5-18.6-3.2-18.8-2.8-18.9-2.5-19-2.2-19-1.8-19.1-1.5-19.3-1.2-19.3-0.7-19.6-0.5-19.5-0.2-19.6 0.3-17.2 0.9-18.9 1.3-20.9 2.3-28.6 2.4-30.4 1.4-22.2 1.4-15.8 2.3-17.6 3.4-19.4 4.5-21.1 5.5-23 6.5-24.7 7.6-26.6 8.6-28.3 4.7-13.7 5.4-13.2 5.8-12.5 6.6-11.7 7.2-11.1 7.8-10.5 8.3-9.8 9-9.1 9.3-8.1 9.9-7.7 10.4-6.9 11.1-6.3 11.5-5.8 12.2-5.1 12.9-4.6 13.4-3.9 14-3.5 14.6-2.6 15.4-2.3 16-1.6 16.7-1 17.3-0.5 18.1 0.1 19 0.7 18.9 1.1 18.7 1.4 18.9 1.8 19 2.2 18.9 2.4 19 2.8 18.9 3.2 19 3.4 19 4 19.1 4.1 19 4.6 19.2 4.8 19.1 5.2 19.1 5.5 19.2 5.9 19.2 6.2 11.2 3.9 11.1 4.2 10.9 4.3 10.7 4.6 10.3 4.8 10.4 5.1 10 5.4 9.9 5.6 2.8 1.3 2.8 0.5 2.8-0.1 2.9-0.9 6.8-3.1 7.2-3.8 8.2-4.7 11-6.7 13.7-8.4 9.5-4.9 14-6 13.9-5 13.8-4 13.5-2.8 6.8-1 6.6-0.8 6.8-0.5 6.5-0.2h6.6l6.5 0.4 6.5 0.5 6.5 0.7 12 2.3 11.9 3.2 11.7 4.1 11.7 5.1 11.5 6 11.2 6.9 11.3 7.8 11.1 8.8 6 5.3 6.1 5.8 6.1 6.5 6.2 6.8 6.3 7.4 6.6 8.5 16.9 22.2 4.2 5.6 2.1 2.3 2.5 1.2 2.6 0.4 3.1-0.4 12.5-3 12.9-2.3 13.1-1.3 13.5-0.4 8.2-0.2 8.3-0.8 8.4-1.3 8.8-1.9 8.8-2.4 9.6-3.1 10.4-3.7 14.2-5.4 16.6-6.3 12.4-4.3 11.4-3.5 10.7-2.5 29.8-6 29.7-5.8 29.4-5.3 29.4-5 29.1-4.8 29-4.5 28.9-4.1 28.7-3.8 11.1-1.3 11.2-0.9 11.3-0.5 11.5-0.1 11.5 0.1 11.7 0.5 11.8 0.9 11.8 1.3 15.5 1.6 24.6 2.2 24.7 1.4 24.8 0.9 24.7 0.1 24.9-0.3 24.9-1.2 25-1.8 25.1-2.4 13.6-1.3 13.4-1 13-0.5 12.8-0.3 12.4 0.3 11.9 0.5 11.8 0.9 11.5 1.3 49.7 6.9 51.5 8 53 9 54.7 10.1 11.1 2.3 10.8 2.4 10.7 2.8 10.6 3.1 10.5 3.2 10.2 3.6 10.1 3.7 9.8 4 8 3.2 8 3 8.3 2.5 8.2 2.2 8.7 1.9 8.8 1.5 8.8 1.2 8.9 0.9 8.9 0.4 9.1 0.1 9.2-0.3 9.3-0.6 2.4 0.1 2.3 0.7 2 1.2 1.8 1.7 1.4 1.5 1.4 1 1.4 0.8 1.6 0.5h1.9l1.9-0.4 2.9-1.4 2.2-1.6 1.8-2.2 14.1-19.3 12.9-16.4 11.6-13.4 5.4-5.6 5-4.9 11.6-10 11.8-9.2 12-7.9 12.1-7 6.3-3.1 6.1-2.8 6.3-2.6 6.2-2.3 6.4-2 6.4-1.8 6.3-1.4 6.5-1.3 10.6-1.4 10.6-0.6 10.9-0.1 10.8 0.7 11.1 1.3 11.1 2.1 11.2 2.8 11.4 3.4 9.8 3.7 10.6 5 11.5 6.1 15.3 9.1 17.9 10.5 7.1 3.7 6.5 3.2 3.2 1.2 3.1 0.2 3.2-0.5 3.2-1.4 11-6.1 11.1-5.7 11.3-5.7 11.6-5.2 11.8-5 12-4.6 12.1-4.4 12.4-4.1 22.8-7 22.7-6.6 22.4-6.2 22.2-5.6 22.1-5.2 21.8-4.7 21.7-4.2 21.4-3.7 21.3-3.2 21.1-2.8 20.8-2.3 20.6-1.8 20.4-1.4 20.3-0.9 20-0.4 19.9 0.1 13.7 0.4 13.1 0.9 12.9 1.2 12.4 1.5 11.8 2 11.5 2.3 11.1 2.8 10.8 3.1 10.2 3.6 10 3.9 9.6 4.4 9.3 4.7 8.6 5.1 8.6 5.6 8 5.9 7.8 6.3 5.4 4.9 5.1 5.1 4.9 5.2 4.8 5.5 4.6 5.6 4.4 6 4.2 6.1 4.1 6.4 3.8 6.6 3.7 6.8 3.6 7 3.3 7.3 6.1 15.2 5.5 16.2 7.7 25.7 6.7 24.8 6 23.7 5.1 22.8 4.2 22 3.5 20.9 2.7 20 1.8 19 3.1 37.2 2.6 29.6 1.5 21.6 1 19.5 0.3 17.6-0.1 18.1-0.4 18-0.7 18-1 17.8-1.2 17.8-1.6 17.7-1.8 17.7-2.1 17.5-2.3 17.6-2.7 17.4-2.9 17.3-3.4 17.3-3.4 17.1-3.8 17.1-4.1 17.1-4.3 17-6.5 23.2-7.1 23.1-7.6 22.9-8.1 22.9-8.1 21.1-8.8 20.6-9.2 19.9-9.8 19.2-10.5 18.5-10.9 17.9-11.5 17.2-12 16.5-1.7 2.8-0.7 2.9 0.1 2.9 0.9 3.1 11.2 26.4 10.6 26.4 9.9 26.7 9.2 26.7 8.7 27.1 8 27 7.4 27.3 6.7 27.4 4.3 18.9 4 19.1 3.5 19.2 3.5 19.1 2.9 19.3 2.8 19.2 2.4 19.4 2.2 19.5 1.8 19.5 1.5 19.7 1.2 19.6 0.9 19.8 0.6 19.8 0.2 19.9v20l-0.2 20-1.3 41.7-2 41.2 0.2 3.2 0.5 1.4 0.7 1.3 0.9 1 1.1 1 3.1 1.4 28 7.8 23.5 6.5 17 5.2 15 5.4 13.3 5.7 6.4 3.1 6.1 3.3 5.9 3.5 5.4 3.7 5.4 3.8 5 3.9 4.8 4.3 4.7 4.4 2.7 2.8 2.7 3.5 2.2 3.7 1.5 4 0.8 4.4 0.1 4.3-0.7 4.4-1.2 4.2-1.9 3.9-2.3 3.3-2.6 3.1-2.8 2.6-3.2 2.2-3.2 1.8-3.3 1.3-3.4 0.8-3.5 0.2-3-0.1-3-0.6-2.9-0.9-2.9-1.3-14.4-7.3-14.3-6.7-14.3-6.3-14.3-5.7-14.2-5.3-14.1-4.7-14.2-4.3-14-3.7-1.7-0.3h-1.6l-1.7 0.4-1.6 0.8-1.4 0.9-1.2 1.3-1 1.4-0.6 1.5-9 27.4-8.5 27.9-7.9 28.5-7.6 28.8-1.5 5.2-1.8 5.5-2.1 5.6-2.6 5.8-6.4 12.1-8.5 14.5-0.8 1.6-0.4 1.5-0.1 1.7 0.1 1.6 0.5 1.5 0.8 1.6 1.2 1.2 1.2 1.1 14.6 9.8 14.1 10.2 13.7 10.6 13.4 10.8 13 11.2 12.7 11.6 12.3 11.9 11.8 12.3 5 5.3 4.4 5.5 1.7 2.7 1.4 2.8 1.1 2.7 0.7 2.6 0.4 2.7v2.7l-0.2 2.5-0.6 2.7-1 2.7-1.2 2.7-1.6 2.5-1.9 2.6-4.8 5.2-3.4 3.1-4.3 3.4-4.2 2.6-4.3 1.5-4.4 0.6-4.4-0.3-4.4-1.4-4.3-2.3-4.5-3.4-86.6-73.8-0.2-0.3-1.4-0.7-1.4-0.5-1.6-0.3-1.6 0.1-1.4 0.4-1.4 0.7-1.3 1-1 1.1-17.1 24.5-33.8 48-13.3 18-12.4 16.3-12.3 15.7-12 14.6-12 13.9-12 13.3-14.9 15.7-15.3 15.4-15.6 15.1-15.9 14.6-22.6 19.8-23.2 19.1-23.9 18.5-24.5 17.9-25.3 17.2-26.1 16.7-26.7 16.2-27.7 15.6-28.6 15.2-29.5 14.8-30.6 14.2-31.6 13.9-32.9 13.8-34.4 13.4-36 13.4-37.9 13.3-2.5 1.1-2.3 1.8-2 2-1.4 2.6-0.7 2.7-0.3 2.8 0.3 2.8 0.9 2.7 0.6 1.1 10.5 18.4 10.2 18.3 9.9 18.5 9.6 18.7 9.3 18.6 9.1 18.7 8.8 18.9 8.5 18.9 8.2 19 7.9 19.1 7.5 19.3 7.4 19.2 7 19.4 6.8 19.4 6.5 19.7 6.1 19.5 6.9 23.2 6.5 23.2 6.1 23.3 5.7 23.6 5.4 23.6 4.9 23.8 4.5 23.8z"/>
	</g>
	<path id="Layer" class="s2" d="m2854.2 2917.9l2.3 7.8 1.8 7.6 1.5 7.8 1.2 7.6 0.8 7.7 0.5 7.7v7.5l-0.3 7.6-0.6 7.6-1.1 7.5-1.4 7.5-1.7 7.5z"/>
	<g id="Layer">
		<path id="Layer" fill-rule="evenodd" class="s3" d="m2487.8 350.8l-2.2 28.3-3 26.5-0.7 3.6-1 3.4-1.4 3.1-1.8 3-5.7 8.3-4.5 5.6-4.5 5-4.6 4.2-2.5 2.1-16.3 11.7-16.5 11-16.8 10.3-17 9.6-17.3 8.6-17.5 8.1-17.9 7.2-17.9 6.7-15 4.7-4 1-4 0.4-3.7-0.3-3.6-0.9-3.3-1.5-3.2-2.2-2.9-2.9-2.7-3.4-2.2-2.5-2.4-1.6-2.8-0.6-3.2 0.1-3.2 0.4h-3l-2.8-0.5-2.7-0.9-2.8-1.7"/>
		<path id="Layer" fill-rule="evenodd" class="s4" d="m2251.2 504.7l-3.5-9.7-3.7-9.4-3.9-9.1-4.1-8.5-4.3-8.3-4.6-7.9-4.7-7.6-5-7.1-5.2-6.8-5.4-6.3-5.7-6.2-5.8-5.6-6.1-5.3-6.3-4.9-6.5-4.6-6.7-4-6.3-3.5-6.5-3.2-6.6-2.8-6.8-2.5-7-2.3-7.1-1.9-7.4-1.7-7.5-1.3-11.8-1.5-11.5-0.8-11.3-0.2-11.1 0.5-11 1.1-10.7 1.7-10.4 2.4-10.3 2.9-8.4 3.1-8.1 3.4-8.2 3.9-7.9 4.3-7.8 4.7-7.6 5.3-7.4 5.6-7.4 6.1-9.3 8.7-4.4 4.6-4.1 4.7-3.8 4.7-3.6 5-3.4 5.1-3.2 5.2-3.7 6.8-3.3 7.1-3.1 7.3-2.5 7.5-2.3 7.8-1.9 7.9-1.4 8.3-1.2 8.3-0.7 8.6-0.4 8.8v9.1l0.4 9.3 0.7 9.4 1.2 9.7 1.4 10 1.9 10.1"/>
		<path id="Layer" fill-rule="evenodd" class="s3" d="m1916.9 590.7l-12.1-3.3-12.1-3.1-12.2-2.7-12.2-2.4-19.4-3.3-19.6-2.7-19.7-1.9-19.8-1.3-4.8-0.1-4.7 0.2-4.9 0.7-4.9 0.7-4.9 1.2-5 1.5-4.9 1.8-5 2-12.4 5.4-10.6 4.1-8.6 2.9-7.1 1.8-8 1-3.4 0.1-3.1-0.2-2.7-0.5-2.1-0.9-2-1.2-1.4-1.4-1-1.7-0.7-2-0.3-2.1v-2.6"/>
		<path id="Layer" fill-rule="evenodd" class="s4" d="m1687.3 580.7l2.2-9.2 1.8-9 1.1-9.1 0.6-8.8 0.3-8.9-0.3-8.7-0.7-8.7-1.3-8.5-1.7-7.8-2.1-7.8-2.4-7.7-3-7.7-3.4-7.5-3.7-7.5-4.2-7.4-4.8-7.3-7-9.8-7.6-9.5-8.1-8.5-8.6-8.2-9-7.4-9.5-6.7-9.8-6.2-10.2-5.2-6.6-2.9-6.6-2.7-6.7-2.4-6.8-2.2-6.9-1.8-7-1.5-7.2-1.3-7.1-0.9-7.1-0.6-7.3-0.4h-7.1l-7.3 0.3-7.3 0.5-7.1 0.9-7.3 1-7.1 1.5-7.1 1.7-7 2-6.9 2.3-6.7 2.6-6.7 2.8-6.6 3.2-6.4 3.3-6.2 3.7-6.1 3.8-5.9 4.1-5.7 4.3-5.5 4.6-5.3 4.9-5.2 4.9-4.8 5.3-4.6 5.3-7.4 9.6-6.5 9.9-5.9 10.6-5.2 10.9-4.5 11.3-3.7 11.6-2.9 12.1-2.2 12.4"/>
		<path id="Layer" fill-rule="evenodd" class="s3" d="m1348.4 522.3l-10.4 2.7-10.4 1.8-10.3 0.9-10.3 0.1-6.5-0.5-7.4-1.4-7.3-2.2-7.2-3.1-7.1-3.9-10.6-6.3-10.8-5.8-11.3-5.6-11.3-5.1-13.4-6.2-13.3-6.6-13.1-7.3-13.3-7.9-13.1-8.5-13-9.2-13-9.7-13-10.3-0.3-0.2-1.9-0.8-3.8-0.7-1.3-0.4-0.9-0.6-0.6-0.9-0.4-1-8.9-41.1"/>
		<path id="Layer" fill-rule="evenodd" class="s5" d="m1348.4 522.3l-0.1 6.8 0.1 6.7 0.4 6.9 0.6 6.8 1.1 7.1 1.2 7 1.6 7 1.9 7.1 2 6.8 2.4 6.9 2.7 6.7 2.9 6.5 3.4 6.5 3.4 6.4 3.7 6.2 4 6 4.2 5.9 4.4 5.7 4.8 5.5 4.8 5.3 5.1 5.1 5.2 4.9 5.5 4.6 5.8 4.4 5.7 4.3 5.9 3.8 6.1 3.7 6.2 3.4 6.4 3.1 6.5 2.8 6.5 2.5 6.7 2.3 6.6 2 6.9 1.6 6.7 1.4 6.9 1 8.3 0.9 8.4 0.5h8.4l8.5-0.3 13-1.4 12.5-2 12-2.8 11.6-3.4 11.1-4.1 10.4-4.8 10.1-5.5 9.7-6.3 5.4-3.9 5.3-4.2 5.1-4.5 5-4.7 4.7-5 4.6-5.2 4.5-5.5 4.2-5.7 4.1-5.9 3.9-6.3 3.7-6.3 3.6-6.8 3.4-6.9 3.2-7.1 6-15.1"/>
		<path id="Layer" fill-rule="evenodd" class="s5" d="m1916.9 590.7l3.7 8.1 3.8 7.8 4.2 7.5 4.4 7.3 4.7 7 4.8 6.8 5.3 6.5 5.3 6.2 5.6 5.9 5.9 5.6 6 5.2 6.2 5 6.7 4.7 6.6 4.4 6.9 4.1 7 3.7 6.9 3.1 7 2.8 7.1 2.6 7.2 2.3 7.4 1.9 7.4 1.5 7.5 1.3 7.5 1 7.7 0.5 7.6 0.3h7.7l7.6-0.4 7.8-0.7 7.6-1.1 7.6-1.4 7.5-1.8 7.4-2 7.3-2.4 7.3-2.7 7.1-2.9 6.9-3.3 6.8-3.6 6.6-3.8 6.4-4.3 6.1-4.3 6-4.7 5.7-4.9 5.5-5.2 5.2-5.3 5-5.7 4.7-5.8 4.5-6.1 4.5-6.7 4-6.9 3.9-7 3.4-7.2 3.1-7.4 2.6-7.7 2.5-7.7 2-8 1.7-8 1.4-8.2 0.9-8.4 0.6-8.6 0.3-8.5v-8.7l-0.5-8.8-0.8-8.9"/>
		<path id="Layer" fill-rule="evenodd" class="s6" d="m3339.8 216.1l-10.2 4.7-10.1 5.1-9.3 5.1-9.1 5.6-8.9 5.9-8.7 6.3-8.4 6.7-8.3 7-8.1 7.3-7.9 7.7-38 38.9-37.3 39.5-36.6 39.6-36 40.1"/>
		<path id="Layer" fill-rule="evenodd" class="s6" d="m497.4 436.5l-1.6-6.5-2.7-6.3-3.5-6.4-4.4-6.2-5.4-6.1-6.2-6.3-7.7-6.7-10.7-9-14-11.7-5-4.6-4.2-4.3-24.1-25.7-24.6-25.1-23.8-23.2-24.2-22.8-24.6-22.5-25-21.9-2.3-1.6-2.4-0.9-2.6-0.1-2.8 0.7-16.6 5.6"/>
		<path id="Layer" fill-rule="evenodd" class="s7" d="m860.2 953.5l0.3 3.7 0.8 3.5 0.9 3 1.2 2.8 0.8 1.6 0.9 1.1 1.1 0.9 1.1 0.4h1.2l1.1-0.3 1.3-0.7 1.4-1 1.8-1.8 1.4-2.1 1.2-2.9 0.8-3.3v-3.6l-0.5-3.9"/>
		<path id="Layer" fill-rule="evenodd" class="s8" d="m954.4 914.8l-3.6 6.2-4 5.5-4.6 4.6-5.1 3.7-3.6 2-3.8 1.6-1.4 0.7-0.7 0.9 0.2 1.2 0.7 1.2 0.3 0.6-0.1 0.6-1.3 2.7-0.1 0.9 0.2 0.7 0.6 0.5 0.9 0.3 3.1-0.3 6.8-1.6 6.1-2.3 5.7-3 5.4-3.4 2.8-2.4 5.2-4.1 5.4-3.4 5.5-2.6 5.7-1.9 4.7-1 4.9-0.5h4.9l5.1 0.3 5.1 0.9 5.4 1.4 5.4 1.8 5.6 2.3 2.3 1.3 2 1.4 2.2 2.4 1.8 2.8 5.2 9.3 5.7 8.8 6.3 8.2 6.7 7.5 3 2.6 3.2 2 3 1.3 3.3 0.9 4.5 1 4.3 1.2 4.2 1.5 4.1 1.8 4.1 2 3.8 2.3 3.9 2.6 3.5 2.9 6.4 4.8 7 4.3 7.7 3.4 8.1 2.9 20.2 5.6 20.1 4.6 19.9 3.7 19.8 2.8 19.8 1.8 19.5 0.9h19.5l19.3-1 4.8-0.3 7.4-0.2 7.4 0.1 7.5 0.5 7.4 0.9 7.6 1.3 7.5 1.5 7.5 1.9 7.5 2.3 23.1 7.9 22.7 8.5 22.2 8.9 21.8 9.4 8.6 3.7 8.6 3.3 8.8 3.1 9 2.8 9.2 2.6 9.4 2.3 9.4 2 9.9 1.7 9.9 1.5 10.2 1.1 10.5 1 10.8 0.8 11 0.4 11.3 0.3 24.3-0.3 11.7-0.6 11.5-1.6 11.3-2 11.1-2.8 7.2-2.3 7-2.6 10.4-3.8 10.6-3.4 10.7-3.1 10.8-2.8 16.4-3.4 3.7-1.1 3.5-1.4 3.3-1.9 2.9-2.3 8-6.7 8.3-6.3 8.7-5.7 8.8-5.3 7.4-3.7 7.7-3.4 7.7-3.1 7.9-2.6 3.1-0.7h3.2l2.8 0.5 2.8 1.1 15.3 7.2 14.7 7.3 13.9 7.4 13.2 7.4 13.3 7.1 13.7 6.4 13.7 5.4 14.1 4.4 15.6 4.2 15.5 3.7 15.3 3.1 15 2.6 14.8 1.9 14.7 1.4 14.3 0.7 14.3 0.3 13.9-0.4 13.7-0.9 13.6-1.4 13.2-2 13-2.7 12.9-3.2 12.8-3.7 12.4-4.3 17.8-7.1 17.9-7.7 17.7-8.6 17.9-9.3h0.1l8-4.1 8-3.7 8.3-3.2 8.7-2.9 8.8-2.5 9.1-2.3 9.3-1.8 9.5-1.6 9.7-1 10.1-0.7 10.5-0.5 10.8-0.2 11.2 0.3 11.8 0.6 12.3 0.9 12.9 1.3 6.9 0.5 7 0.1 7.3-0.4 7.3-0.7 7.5-1.3 7.5-1.7 7.8-2.1 7.9-2.6 39.8-13.8 13.3-4.3 11.3-3.9 11.2-4.4 11.7-5 11.6-5.3 11.8-5.9 12.3-6.5 12.7-7.3 13.7-8 2.8-1.4 3-1 3.2-0.6h3.2l15.3 1.1 6.1 0.8 5.5 1.1 5.3 1.4 4.7 1.7 4.4 2 4.1 2.3 8.1 4.9 8.1 4.4 8.3 4.2 8.4 3.9 10.1 3.9 10.2 3.7 10.5 3.1 10.7 2.6 10.8 2.3 11.1 1.7 11.2 1.3 11.5 0.9 2.6 0.4 2.4 0.7 2.4 1.5 2.3 2.1 2.6 2.3 2.8 1.8 2.8 1.1 3.2 0.7 9.5 0.8 9.6 0.6 9.4 0.1 9.6-0.3 13.1-0.9 13-1.6 13.2-2.3 13-3.1 13-3.7 13-4.4 13-5.1 12.9-5.9 9.3-5.1 12.5-7.7 15.7-10.4 18.8-13 10.9-8.2 10.2-8.3 9.5-8.8 8.8-8.9 9-9.6 9.2-9.2 9.3-8.8 9.3-8.4 2.6-1.9 2.7-1.7 3-1.2 3.1-0.8 8.7-2.2 9.3-2.9 9.8-3.9 10.6-4.8 2.6-1.1 3-0.8 2.9-0.5 3.2-0.2 3.3 0.1 3.5 0.4 7.4 1.5"/>
		<path id="Layer" fill-rule="evenodd" class="s9" d="m3004.6 1788.7l-19.5-5.6-19.7-5-19.6-4.3-19.6-3.6-19.7-3-19.6-2.3-19.7-1.6-19.7-1-23.4-0.2-6.6 0.3-7.8 1.3-8.7 1.9-9.8 2.7-5.1 1.4-4.8 1.2-4.8 0.6-4.3 0.4h-4.2l-4-0.3-3.8-0.7-3.4-1.1"/>
		<path id="Layer" fill-rule="evenodd" class="s10" d="m2756.8 1769.8l13.4-8.6 12.6-9 12.2-9.1 11.7-9.4 10.9-9.5 10.4-9.7 9.8-10 9.3-10.2 8.5-10.3 8.1-10.6 7.5-10.8 6.9-11 6.2-11.2 5.8-11.5 5.1-11.6 4.6-11.9 3.3-9.8 2.9-9.9 2.4-10.2 2.2-10.2 1.7-10.5 1.2-10.6 1.1-10.7 0.5-10.8 0.1-11-0.3-11.1-0.6-11.2-1-11.5-1.6-11.5-1.7-11.7-2.2-11.8-2.7-12-2.8-11.3-3.2-11.2-3.5-11.1-3.7-10.7-4.1-10.5-4.5-10.3-4.7-10-5.1-9.8-5.2-9.6-5.7-9.2-5.8-8.9-6.3-8.7-6.5-8.4-6.9-8.3-7-7.7-7.3-7.6-7.2-6.9-7.4-6.6-7.7-6.4-7.9-6.1-8.1-5.9-8.6-5.6-8.5-5.2-9-5.1-15.1-7.8-15.9-7-16.4-6.5-17.1-5.6-17.6-5-17.9-4.1-18.1-3.3-18.3-2.5-18.3-1.7-18.1-0.8-18.1 0.2-17.6 0.9-17.2 1.8-16.7 2.6-16.2 3.5-15.6 4.3-9.6 3.1-9.3 3.4-9.3 3.7-9 4-9.1 4.2-8.8 4.4-8.7 4.9-8.5 5.1-14 9.3-13.8 10.1-13 10.7-12.5 11.5-11.9 12.2-11.3 13-10.7 13.5-10 14.1-9.2 14.8-8.5 15.1-7.8 15.9-7 16-6.1 16.5-5.4 16.8-4.5 17.1-3.7 17.4-2.6 17.4-2 17.5-0.8 17.5v17.5l0.7 17.2 1.8 17.2 2.7 16.8 3.6 16.7 4.3 16.2 5.2 16 6.1 15.4 6.9 15.1 7.8 14.5 8.6 13.9 9.3 13.4 10 12.8 6.8 7.9 7 7.5 7.4 7.4 7.7 7 7.9 6.8 8.3 6.5 8.4 6.2 8.7 6 9 5.6 9.3 5.5 9.5 5.1 9.8 4.7 9.9 4.6 10.2 4.2 10.5 3.9 10.7 3.7 17.4 5.1 10.7 2.5 10.8 2.3 11 1.9 10.9 1.7 11.1 1.1 11.3 0.9 11.2 0.5 11.3 0.2 11.5-0.2 11.6-0.5 11.6-0.9 11.8-1.3 11.8-1.6 12-1.9 12-2.3 12.1-2.7"/>
		<path id="Layer" fill-rule="evenodd" class="s9" d="m2665.3 1808.1l-8.9 7.5-8.5 7.7-8 7.5-7.4 7.5-6.7 7.6-6.4 7.4-5.7 7.5-5.3 7.4-4.8 7.4-4.1 7.5-3.7 7.4-3.2 7.3-2.5 7.4-2.1 7.2-1.5 7.4-1 7.3-0.7 10.7v10.6l0.9 10.6 1.6 10.3 2.4 10.5 3.3 10.6 4 10 4.8 10.1 5.6 9.8 6.5 9.6 7 9.1 8 8.9 8.6 8.7 9.2 8 10 7.8 10.3 7.2 11.1 6.8 11.5 6.3 12 5.7 12.2 5.1 16.1 5.9 16.2 5.2 16 4.3 16.2 3.7 16.2 3.1 16.2 2.3 16.4 1.5 16.2 0.8 18.1 0.1 18.1-0.9 18.1-1.6 18.1-2.7 18.2-3.5 18.3-4.3 18.2-5.4 18.3-6.1 7.9-3 7.7-3.6 8-4 7.9-4.3 7.9-4.8 7.9-5.4 8-5.7 7.9-6.3 9.7-7.9 8.7-7.5 7.6-7.2 6.9-6.7 5.9-6.3 4.8-5.8 4-5.5 3.1-5.1 5.6-11.5 4.6-11.4 3.7-11.2 2.8-11.1 1.8-10.8 0.8-10.9v-10.7l-0.8-10.6-1.2-6.6-1.4-6.5-1.9-6.5-2.2-6.4-2.5-6.4-3-6.3-3.3-6.3-3.6-6.2-4-6.2-4.5-6.1-4.7-6.1-5.2-6-5.5-6-5.9-5.9-6.2-5.8-6.7-5.9"/>
		<path id="Layer" fill-rule="evenodd" class="s8" d="m2358.7 2389.8l-31.1 4.9-31.3 4.6-31.1 4.3-31.2 4-31.3 3.8-31.1 3.4-31.3 3.2-31.2 3-31.1 2.5-31.3 2.4-31.2 2.1-31.3 1.9-31.2 1.5-31.3 1.3-31.2 0.9-31.3 0.8-37.6 0.5h-37.7l-37.8-0.3-37.8-0.8-37.7-1.1-37.8-1.5-37.7-1.9-37.8-2.3-32.6-2.6-36.9-3.4-41.1-4.8-45.4-5.6-77.8-9.8-78-9.4"/>
		<path id="Layer" fill-rule="evenodd" class="s9" d="m539.4 1831.3l-7.2 7-6.6 7-6.2 7.2-5.9 7-5.4 7-4.8 7.2-4.5 7-3.9 7.1-3.6 7.2-3.1 7-2.5 7.1-2.2 7.2-1.8 7.1-1.2 7.1-0.8 7.2-0.4 7.1 0.1 7.9 0.5 5.8 0.8 5.6 1 5.9 1.4 5.7 1.7 5.7 2 5.9 2.5 5.7 2.5 5.8 2.9 5.8 3.4 5.8 3.4 5.7 3.8 5.6 4.2 5.8 4.4 5.6 9.5 11 10.9 10.8 11.7 10.3 12.5 9.9 13.3 9.1 13.8 8.3 13.9 7.3 13.9 6.2 6.8 2.7 6.9 2.4 12.4 3.9 12.9 3.3 13.3 3.1 13.5 2.5 13.7 2 14.1 1.7 14 1.3 14.3 0.6 14 0.4 14.2-0.3 14.1-0.6 13.8-1.1 13.8-1.6 13.4-2 13.2-2.6 12.9-2.9 12.4-3.3 12-3.7 11.9-4.1 11.2-4.5 10.9-4.9 10.5-5.3 10.2-5.7 9.7-6 9.2-6.2 8.8-6.8 8.3-7.1 7.9-7.4 7.3-7.8 7-8.1 6.3-8.4 6-8.8 3.7-6 3.6-6.2 3.5-6.8 3-6.7 2.7-6.8 2.2-6.6 1.7-6.9 1.5-6.7 0.8-6.7 0.6-6.8 0.2-6.4-0.2-6.5-0.7-6.3-0.9-6.5-1.4-6.5-1.6-6.7-2.1-6.5-2.5-6.7-2.8-6.9-3.2-6.9-3.6-7-3.9-7.2-4.5-7.4-4.9-7.5-11.2-16.2-3.2-3.8-4.1-4-4.9-4.2-5.9-4.3-5.5-4.2-4.6-4.6-3.8-4.9-3.1-5.1"/>
		<path id="Layer" fill-rule="evenodd" class="s10" d="m939.2 1808.2l26.8 4.9 22.3 3.4 18 2.2 7.3 0.6 6.1 0.3h12.3l12.1-0.4 12.1-0.8 12.1-1.1 12-1.7 12-1.9 11.7-2.4 11.8-2.8 11.6-3.2 11.3-3.6 11.4-3.9 11.1-4.4 10.8-4.7 10.6-5.1 10.5-5.5 10.2-5.7 9.8-6.1 9.7-6.5 9.3-6.8 9-7 8.8-7.4 8.5-7.8 8-7.9 7.8-8.3 7.2-8.4 7.1-8.8 6.6-8.9 6.2-9.4 5.9-9.4 5.5-9.7 5-9.8 4.7-10.1 5.7-14.4 5.1-14.8 4.2-15.2 3.4-15.4 2.5-15.7 1.5-15.8 0.9-16.1-0.1-16.3-0.5-10.3-0.6-10.4-1.1-10.2-1.1-10.2-1.5-10-1.8-10.1-1.9-9.8-2.3-9.9-2.6-9.8-2.7-9.6-3-9.5-3.2-9.5-3.5-9.1-3.8-9.1-3.9-9.1-4.1-8.8-4.5-8.5-4.6-8.5-5-8.3-4.9-8.2-5.4-7.9-5.5-7.8-5.7-7.5-6-7.4-6.1-7.1-6.3-6.9-6.6-6.8-6.6-6.6-7.1-6.3-7.1-6.1-7.1-5.9-7.6-5.6-12-8.4-12.6-7.9-12.9-7.1-13.4-6.7-13.6-6-14-5.3-14.3-4.9-14.8-4.1-8.9-2.1-9.1-1.8-9.4-1.7-9.5-1.2-9.7-1.2-9.8-0.8-9.8-0.6-10.1-0.3h-10.1l-10.2 0.3-10.2 0.5-10.2 0.8-10.2 1-10.1 1.4-10.2 1.5-10 1.8-10 2.2-9.8 2.3-9.7 2.5-9.6 2.8-9.4 3.1-9.3 3.3-9.1 3.5-8.9 3.7-8.7 3.9-8.4 4.1-8.1 4.3-8.1 4.6-7.6 4.7-7.4 4.9-7.2 5.1-6.9 5.2-12.6 10.6-12 10.8-11.3 11.4-10.5 11.7-9.9 12.1-9.1 12.5-8.5 12.9-7.7 13.2-5.2 9.9-4.7 10.1-4.5 10.3-4.1 10.5-3.7 10.7-3.3 11-2.9 11.1-2.6 11.3-2.2 11.6-1.7 11.8-1.4 11.8-1.1 12.3-0.7 12.3-0.3 12.5 0.1 12.8 0.4 13 0.9 13.3 1.4 12.7 2.1 12.5 2.4 12.1 3 11.9 3.5 11.6 4.1 11.4 4.6 10.9 4.6 9.7 4.9 9.3 5.5 9.3 5.9 9.2 6.4 8.9 6.8 9 7.3 8.6 7.9 8.7 8.3 8.6 8.8 8.5 9.5 8.6 10 8.5 10.7 8.7 11.4 8.7 12.2 8.9 13.2 9.2"/>
		<path id="Layer" fill-rule="evenodd" class="s9" d="m844.5 1770l-16.5-2.3-16.4-1.9-16.4-1.3-16.4-0.9-16.2-0.4-16.3 0.1-16.2 0.5-16.2 1.1-14.7 1.4-14.7 1.7-14.5 2.2-14.7 2.6-14.5 2.9-14.4 3.3-14.6 3.8-14.4 4.1"/>
		<path id="Layer" fill-rule="evenodd" class="s11" d="m2333.7 2417l-0.1 0.8-1.7 12-1 12-0.5 12.1 0.1 12.2 0.8 12.3 1.3 12.3 1.9 12.5 2.5 12.7"/>
		<path id="Layer" fill-rule="evenodd" class="s12" d="m2337 2515.9l1.4 7.7 0.4 7.1-0.2 3.3-0.4 3-0.8 3-0.9 2.8"/>
		<path id="Layer" fill-rule="evenodd" class="s8" d="m2336.5 2542.8l-34.7 3.9-34.7 3.7-34.8 3.6-34.7 3.2-34.7 2.8-34.7 2.7-34.8 2.4-34.7 2.2-34.7 1.7-34.7 1.7-34.7 1.3-34.7 1-34.8 0.9-34.7 0.5-34.7 0.3h-34.7l-64.2-0.8-64.3-1.7-64.4-2.5-64.3-3.5-64.3-4.3-64.3-5.4-64.3-6.1-64.2-7.1"/>
		<path id="Layer" fill-rule="evenodd" class="s12" d="m1266.7 2543.3l-1.7-17.9"/>
		<path id="Layer" fill-rule="evenodd" class="s11" d="m1265 2525.4l3.3-14.5 2.6-14.4 1.6-14.3 0.8-14 0.1-14-0.9-13.6-1.6-13.5-2.5-13.3-0.7-3.4"/>
		<path id="Layer" fill-rule="evenodd" class="s13" d="m2756.8 1769.8l-91.5 38.3"/>
		<path id="Layer" fill-rule="evenodd" class="s13" d="m939.2 1808.2l-94.7-38.2"/>
		<path id="Layer" fill-rule="evenodd" class="s14" d="m2606.7 2495.4l-64.3 8.6-64.3 8.2-64.3 7.9-64.3 7.5h-0.6l-1.4-0.1-1.5-0.5-1.5-0.9-1.5-1.3-2.9-3.7-3.1-5.2"/>
		<path id="Layer" fill-rule="evenodd" class="s7" d="m1266.7 2543.3l-4.6 10.2-4.9 9.9-5 9.9-5.2 9.4-5.3 9.4-5.7 9.1-5.7 8.9-6 8.7-6.2 8.4-6.4 8.3-6.5 7.9-6.8 7.9-6.9 7.5-7.1 7.4-7.4 7.2-7.5 6.9-8.2 7.1-8.3 6.8-8.5 6.6-8.8 6.4-9.1 6.1-9.2 5.9-9.4 5.6-9.7 5.3-9.8 5.1-10.1 5-10.2 4.6-10.6 4.5-10.7 4.2-11 3.9-11.1 3.7-11.3 3.5-17.4 4.6-16.9 3.4-16.9 2.6-16.4 1.4-8.2 0.3h-8l-7.9-0.1-7.9-0.5-7.9-0.6-7.8-1.1-7.7-1.1-7.6-1.5"/>
		<path id="Layer" fill-rule="evenodd" class="s14" d="m1265 2525.4l-8.8 1.2-8.8 0.7-12.8 0.5-12.7-0.3-12.9-1.1-12.9-1.9-42.6-7.1-14.5-2.2-9.8-1.1-17.1-1.7-17-2.2-16.7-2.5-16.6-3.1-16.3-3.3-16.1-3.8-15.9-4.2-15.7-4.7"/>
		<path id="Layer" fill-rule="evenodd" class="s8" d="m2737.1 3164l-4.3 1.8-3.8 2.3-3.7 3.5-3.1 4.2-2.5 5-1.9 5.7-1.2 3.3-1.4 2.9-1.8 2.3-2.2 1.8-2.4 1.3-2.8 0.8-3.2 0.2-3.4-0.2h-3.5l-1.4 0.3-1.2 0.7-1.3 0.8-1 1.1-1.7 3.1-2.2 5.3-2.4 5.1-2.7 4.7-2.8 4.5-3.2 4.1-3.3 3.8-3.7 3.5-3.8 3.1-2.9 2.1-29.2 19.1-30 19-9.3 5.4-9.2 4.6-9.2 3.8-9 2.9-9.1 2.3-9.1 1.6-9 0.6-8.9-0.1-6-0.5-5.9-0.8-5.9-1.2-5.8-1.5-5.9-1.9-5.9-2.2-5.8-2.5-5.8-3-2.3-1.5-1.8-1.8-1.5-2.5-1-2.8-3.1-15.2-2.3-15.3-1.4-15.2-0.6-15.3 0.1-11.2 0.5-11.2 1-11.3 1.5-11.2 1.9-11.3 2.3-11.3 2.8-11.3 3.2-11.2 1-4.4 0.6-4.4 0.3-3.4-0.2-3.4-0.1-4.1 0.5-3.9 0.8-4.2 1.4-4.4 2.3-5.9 3.3-8.9 1.8-7.2 7.3-43.8 5.6-35.5 3.9-27.1 2.3-18.8 0.5-7.4 0.2-7.2-0.4-6.9-0.8-6.8-1.3-6.7-1.5-6.8-1.9-6.8-2.4-6.7-2.8-6.8-3.2-6.7"/>
		<path id="Layer" fill-rule="evenodd" class="s15" d="m1688.6 3486.7l13.1-57.5 0.3-2.5-0.2-2.7-0.7-2.4-1.3-2.3-1.7-2.1-2.1-1.5-2.3-1.2-2.6-0.5-1.2-0.1-6.9-0.2-2.2 0.1-2.2 0.5-2 0.8-1.9 1.1-1.7 1.4-1.5 1.8-1.2 1.8-0.7 2-2.1 7.5-1.4 8-0.7 8.2-0.4 8.6 0.4 9 0.7 9.4 1.4 9.8 2.1 10.1"/>
		<path id="Layer" fill-rule="evenodd" class="s8" d="m1104.4 2871.3l-2.9 6.1-2.7 6.3-2.3 6.2-2 6.3-1.7 6-1.3 5.9-1.1 6.1-0.9 6-0.9 12.7-0.1 13.3 0.9 13.5 1.7 14.9 2.7 16.4 4.5 22.4 3.7 18.9 2.4 13.8 6.8 38.5 3.5 19 4 18.7 5.7 28 3.9 22.4 1.4 10.4 1 10 0.8 9.5 0.3 9.1 0.2 9.2-0.3 8.8-0.5 8.7-0.9 8.4-1.3 8.3-1.6 7.9-1.9 8.1-2.3 7.6-1.2 2.8-1.5 2.7-2.3 2.8-2.9 2.6-7.1 4.5-3.5 2-3.5 1.6-3.7 1.3-3.5 1.1-3.6 0.8-3.7 0.5-6.1 0.5-6 0.2-5.5-0.2-5.4-0.4-10.8-1.6-11.1-2.6-11.4-3.7-11.3-4.6-12.4-5.8-13.4-7.2-18.3-10.6-18.2-10.3-13.3-6.9-22.1-10.2-8-3.9-8.5-4.9-8.6-5.7-9-6.6"/>
		<path id="Layer" fill-rule="evenodd" class="s7" d="m2719.9 2774.9l-20.9 1.4-20.7 0.3-10-0.2-10.1-0.5-10.1-0.6-9.8-1-9.8-1.3-9.7-1.4-9.7-1.8-9.6-1.9-9.4-2.3-9.5-2.4-9.3-2.8-9.2-3-13.6-5.1-13.5-5.5-13.3-6.1-13-6.7-12.9-7.3-12.7-7.8-12.5-8.4-12.3-9.1-10.8-8.5-10.5-8.8-9.9-9.2-9.7-9.3-9.3-9.7-8.8-9.9-8.6-10.4-8-10.4-6.9-9.6-6.5-9.7-6.3-9.9-5.8-10.2-5.6-10.5-5.4-10.6-5-10.8-4.7-11.1"/>
	</g>
	<g id="Layer">
		<path id="Layer" class="s16" d="m860.2 953.5l0.3 3.7 0.8 3.5 0.9 3 1.2 2.8 0.8 1.6 0.9 1.1 1.1 0.9 1.1 0.4h1.2l1.1-0.3 1.3-0.7 1.4-1 1.8-1.8 1.4-2.1 1.2-2.9 0.8-3.3v-3.6l-0.5-3.9 9.7-2 9.8-2.6 9.7-3.3 9.7-4.3 9.7-4.8 9.6-5.6 9.7-6.4 9.5-7.1-3.6 6.2-4 5.5-4.6 4.6-5.1 3.7-3.6 2-3.8 1.6-1.4 0.7-0.7 0.9 0.2 1.2 0.7 1.2 0.3 0.6-0.1 0.6-1.3 2.7-0.1 0.9 0.2 0.7 0.6 0.5 0.9 0.3 3.1-0.3 6.8-1.6 6.1-2.3 5.7-3 5.4-3.4 2.8-2.4 5.2-4.1 5.4-3.4 5.5-2.6 5.7-1.9 4.7-1 4.9-0.5h4.9l5.1 0.3 5.1 0.9 5.4 1.4 5.4 1.8 5.6 2.3 2.3 1.3 2 1.4 2.2 2.4 1.8 2.8 5.2 9.3 5.7 8.8 6.3 8.2 6.7 7.5 3 2.6 3.2 2 3 1.3 3.3 0.9 4.5 1 4.3 1.2 4.2 1.5 4.1 1.8 4.1 2 3.8 2.3 3.9 2.6 3.5 2.9 6.4 4.8 7 4.3 7.7 3.4 8.1 2.9 20.2 5.6 20.1 4.6 19.9 3.7 19.8 2.8 19.8 1.8 19.5 0.9h19.5l19.3-1 4.8-0.3 7.4-0.2 7.4 0.1 7.5 0.5 7.4 0.9 7.6 1.3 7.5 1.5 7.5 1.9 7.5 2.3 23.1 7.9 22.7 8.5 22.2 8.9 21.8 9.4 8.6 3.7 8.6 3.3 8.8 3.1 9 2.8 9.2 2.6 9.4 2.3 9.4 2 9.9 1.7 9.9 1.5 10.2 1.1 10.5 1 10.8 0.8 11 0.4 11.3 0.3 24.3-0.3 11.7-0.6 11.5-1.6 11.3-2 11.1-2.8 7.2-2.3 7-2.6 10.4-3.8 10.6-3.4 10.7-3.1 10.8-2.8 16.4-3.4 3.7-1.1 3.5-1.4 3.3-1.9 2.9-2.3 8-6.7 8.3-6.3 8.7-5.7 8.8-5.3 7.4-3.7 7.7-3.4 7.7-3.1 7.9-2.6 3.1-0.7h3.2l2.8 0.5 2.8 1.1 15.3 7.2 14.7 7.3 13.9 7.4 13.2 7.4 13.3 7.1 13.7 6.4 13.7 5.4 14.1 4.4 15.6 4.2 15.5 3.7 15.3 3.1 15 2.6 14.8 1.9 14.7 1.4 14.3 0.7 14.3 0.3 13.9-0.4 13.7-0.9 13.6-1.4 13.2-2 13-2.7 12.9-3.2 12.8-3.7 12.4-4.3 17.8-7.1 17.9-7.7 17.7-8.6 17.9-9.3h0.1l8-4.1 8-3.7 8.3-3.2 8.7-2.9 8.8-2.5 9.1-2.3 9.3-1.8 9.5-1.6 9.7-1 10.1-0.7 10.5-0.5 10.8-0.2 11.2 0.3 11.8 0.6 12.3 0.9 12.9 1.3 6.9 0.5 7 0.1 7.3-0.4 7.3-0.7 7.5-1.3 7.5-1.7 7.8-2.1 7.9-2.6 39.8-13.8 13.3-4.3 11.3-3.9 11.2-4.4 11.7-5 11.6-5.3 11.8-5.9 12.3-6.5 12.7-7.3 13.7-8 2.8-1.4 3-1 3.2-0.6h3.2l15.3 1.1 6.1 0.8 5.5 1.1 5.3 1.4 4.7 1.7 4.4 2 4.1 2.3 8.1 4.9 8.1 4.4 8.3 4.2 8.4 3.9 10.1 3.9 10.2 3.7 10.5 3.1 10.7 2.6 10.8 2.3 11.1 1.7 11.2 1.3 11.5 0.9 2.6 0.4 2.4 0.7 2.4 1.5 2.3 2.1 2.6 2.3 2.8 1.8 2.8 1.1 3.2 0.7 9.5 0.8 9.6 0.6 9.4 0.1 9.6-0.3 13.1-0.9 13-1.6 13.2-2.3 13-3.1 13-3.7 13-4.4 13-5.1 12.9-5.9 9.3-5.1 12.5-7.7 15.7-10.4 18.8-13 10.9-8.2 10.2-8.3 9.5-8.8 8.8-8.9 9-9.6 9.2-9.2 9.3-8.8 9.3-8.4 2.6-1.9 2.7-1.7 3-1.2 3.1-0.8 8.7-2.2 9.3-2.9 9.8-3.9 10.6-4.8 2.6-1.1 3-0.8 2.9-0.5 3.2-0.2 3.3 0.1 3.5 0.4 7.4 1.5 15.3 26 14.4 25.8 13.9 25.6 13.1 25.3 12.5 25.2 11.8 25 11.2 24.9 10.4 24.9 10 24.7 9.3 24.8 8.7 24.7 8.1 24.9 7.6 24.7 7 24.9 6.4 24.9 5.7 25.1 4.3 20.3 4 20.4 3.6 20.5 3.1 20.5 2.8 20.8 2.5 20.8 2.1 21.2 1.8 21.2 1.4 21.3 1 21.5 0.8 21.8 0.4 22v22l-0.4 22.4-0.8 22.5-1 22.9-0.2 2.6-0.7 2.1-0.9 1.5-1.1 0.9-1.4 0.4-1.8-0.1-2-0.8-2.3-1.3-2.7-1.5-2.9-1.3-3.1-0.9-3.6-0.6-3.7-0.5-3.9-0.2-9 0.6-43.1 5.3-41.5 5.9-40.2 6.6-38.5 7.2-7.4 1.9-6.8 2.8-2.9 1.6-3 1.8-2.6 2.1-2.5 2.3-2.3 2.4-2.1 2.5-1.9 3-1.7 2.9-2.9 6.6-2.1 7.4-0.2 3 0.5 2.8 1.1 2.6 1.9 2.7 2.6 2.6 3.3 2.7 4 2.5 4.7 2.4 5.3 2.6 2.3 0.7 2.3 0.6 2.3 0.2 2.4-0.1 185.6-23.2 2.3-0.2 2.1 0.3 1.6 0.5 1.3 0.9 0.9 1.3 0.6 1.6 0.3 1.9v2.3l-1 10.5-1.3 10.2-1.5 10.1-1.8 9.8-2.1 9.7-2.3 9.6-2.4 9.3-2.7 9.2-3 9-3.2 8.8-3.5 8.7-3.5 8.4-4 8.3-4.1 8.2-4.4 7.9-4.6 7.7-2.1 2.5-1.1 0.9-1.2 0.5-1.4 0.4-1.4 0.1-3.2-0.7-29-9.8-28.4-9-27.5-8.3-26.7-7.4-26-6.8-25.1-5.9-24.5-5.2-23.6-4.3-6.4-0.7-5.7 0.2-5.5 1.1-4.8 2.1-3 1.6-2.7 2.2-2.5 2.4-2.3 2.8-2.2 3.2-1.9 3.4-1.8 4-1.5 4.2-19.5-5.6-19.7-5-19.6-4.3-19.6-3.6-19.7-3-19.6-2.3-19.7-1.6-19.7-1-23.4-0.2-6.6 0.3-7.8 1.3-8.7 1.9-9.8 2.7-5.1 1.4-4.8 1.2-4.8 0.6-4.3 0.4h-4.2l-4-0.3-3.8-0.7-3.4-1.1 13.4-8.6 12.6-9 12.2-9.1 11.7-9.4 10.9-9.5 10.4-9.7 9.8-10 9.3-10.2 8.5-10.3 8.1-10.6 7.5-10.8 6.9-11 6.2-11.2 5.8-11.5 5.1-11.6 4.6-11.9 3.3-9.8 2.9-9.9 2.4-10.2 2.2-10.2 1.7-10.5 1.2-10.6 1.1-10.7 0.5-10.8 0.1-11-0.3-11.1-0.6-11.2-1-11.5-1.6-11.5-1.7-11.7-2.2-11.8-2.7-12-2.8-11.3-3.2-11.2-3.5-11.1-3.7-10.7-4.1-10.5-4.5-10.3-4.7-10-5.1-9.8-5.2-9.6-5.7-9.2-5.8-8.9-6.3-8.7-6.5-8.4-6.9-8.3-7-7.7-7.3-7.6-7.2-6.9-7.4-6.6-7.7-6.4-7.9-6.1-8.1-5.9-8.6-5.6-8.5-5.2-9-5.1-15.1-7.8-15.9-7-16.4-6.5-17.1-5.6-17.6-5-17.9-4.1-18.1-3.3-18.3-2.5-18.3-1.7-18.1-0.8-18.1 0.2-17.6 0.9-17.2 1.8-16.7 2.6-16.2 3.5-15.6 4.3-9.6 3.1-9.3 3.4-9.3 3.7-9 4-9.1 4.2-8.8 4.4-8.7 4.9-8.5 5.1-14 9.3-13.8 10.1-13 10.7-12.5 11.5-11.9 12.2-11.3 13-10.7 13.5-10 14.1-9.2 14.8-8.5 15.1-7.8 15.9-7 16-6.1 16.5-5.4 16.8-4.5 17.1-3.7 17.4-2.6 17.4-2 17.5-0.8 17.5v17.5l0.7 17.2 1.8 17.2 2.7 16.8 3.6 16.7 4.3 16.2 5.2 16 6.1 15.4 6.9 15.1 7.8 14.5 8.6 13.9 9.3 13.4 10 12.8 6.8 7.9 7 7.5 7.4 7.4 7.7 7 7.9 6.8 8.3 6.5 8.4 6.2 8.7 6 9 5.6 9.3 5.5 9.5 5.1 9.8 4.7 9.9 4.6 10.2 4.2 10.5 3.9 10.7 3.7 17.4 5.1 10.7 2.5 10.8 2.3 11 1.9 10.9 1.7 11.1 1.1 11.3 0.9 11.2 0.5 11.3 0.2 11.5-0.2 11.6-0.5 11.6-0.9 11.8-1.3 11.8-1.6 12-1.9 12-2.3 12.1-2.7-8.9 7.5-8.5 7.7-8 7.5-7.4 7.5-6.7 7.6-6.4 7.4-5.7 7.5-5.3 7.4-4.8 7.4-4.1 7.5-3.7 7.4-3.2 7.3-2.5 7.4-2.1 7.2-1.5 7.4-1 7.3-0.7 10.7v10.6l0.9 10.6 1.6 10.3 2.4 10.5 3.3 10.6 4 10 4.8 10.1 5.6 9.8 6.5 9.6 7 9.1 8 8.9 8.6 8.7 9.2 8 10 7.8 10.3 7.2 11.1 6.8 11.5 6.3 12 5.7 12.2 5.1 16.1 5.9 16.2 5.2 16 4.3 16.2 3.7 16.2 3.1 16.2 2.3 16.4 1.5 16.2 0.8 18.1 0.1 18.1-0.9 18.1-1.6 18.1-2.7 18.2-3.5 18.3-4.3 18.2-5.4 18.3-6.1 7.9-3 7.7-3.6 8-4 7.9-4.3 7.9-4.8 7.9-5.4 8-5.7 7.9-6.3 9.7-7.9 8.7-7.5 7.6-7.2 6.9-6.7 5.9-6.3 4.8-5.8 4-5.5 3.1-5.1 5.6-11.5 4.6-11.4 3.7-11.2 2.8-11.1 1.8-10.8 0.8-10.9v-10.7l-0.8-10.6-1.2-6.6-1.4-6.5-1.9-6.5-2.2-6.4-2.5-6.4-3-6.3-3.3-6.3-3.6-6.2-4-6.2-4.5-6.1-4.7-6.1-5.2-6-5.5-6-5.9-5.9-6.2-5.8-6.7-5.9 165.4 45.8 1.3 0.4 2.1 1.1 1.7 1.5 1.5 1.8 0.8 2.2 0.6 2.3 0.1 2.3-0.5 2.3-0.9 2.2-9.3 16.3-9.9 16.2-10.3 15.9-10.7 15.6-11.3 15.7-11.7 15.2-12.2 15.1-12.6 14.8-13.2 14.6-13.6 14.4-14 14.1-14.5 13.9-14.9 13.7-15.4 13.5-15.8 13.1-16.2 12.9-16.7 12.7-17.1 12.3-17.5 12.1-18 11.9-18.2 11.5-18.8 11.2-18.8 10.9-19.4 10.5-19.8 10.2-20 10-20.3 9.6-20.7 9.1-20.8 8.8-21.1 8.6-21.3 8-21.6 7.8-73.5 25.1-58.9 19.4-24.1 7.5-20.4 6.2-16.7 4.6-13.1 3.1-150.3 32.4-31.1 4.9-31.3 4.6-31.1 4.3-31.2 4-31.3 3.8-31.1 3.4-31.3 3.2-31.2 3-31.1 2.5-31.3 2.4-31.2 2.1-31.3 1.9-31.2 1.5-31.3 1.3-31.2 0.9-31.3 0.8-37.6 0.5h-37.7l-37.8-0.3-37.8-0.8-37.7-1.1-37.8-1.5-37.7-1.9-37.8-2.3-32.6-2.6-36.9-3.4-41.1-4.8-45.4-5.6-77.8-9.8-78-9.4-41.3-8.7-41.9-9.4-42.3-10.5-42.8-11.2-43.1-12.1-43.6-13.1-44-13.9-44.5-14.7-18.6-6.6-18.6-6.7-18.4-7.2-18.1-7.2-18-7.7-17.7-7.8-17.6-8.1-17.4-8.3-17.1-8.6-16.9-8.9-16.6-9-16.5-9.4-16-9.4-16-9.8-15.5-10-15.5-10.2-14.9-10.4-14.9-10.6-14.4-10.9-14.3-11-13.9-11.3-13.7-11.5-13.2-11.6-13.1-11.8-12.7-12-12.4-12.3-12.1-12.3-11.9-12.7-11.4-12.7-11.1-13-10.9-13-10.6-13.4-7.5-10-7-10-6.6-10-6.3-10.1-5.7-9.9-5.3-10.1-4.8-10.1-4.5-10-1.2-3.7-0.5-3.2 0.1-3.1 0.9-2.5 1.5-2.3 2.3-2.1 2.9-1.5 3.7-1.3 155.4-41.2-7.2 7-6.6 7-6.2 7.2-5.9 7-5.4 7-4.8 7.2-4.5 7-3.9 7.1-3.6 7.2-3.1 7-2.5 7.1-2.2 7.2-1.8 7.1-1.2 7.1-0.8 7.2-0.4 7.1 0.1 7.9 0.5 5.8 0.8 5.6 1 5.9 1.4 5.7 1.7 5.7 2 5.9 2.5 5.7 2.5 5.8 2.9 5.8 3.4 5.8 3.4 5.7 3.8 5.6 4.2 5.8 4.4 5.6 9.5 11 10.9 10.8 11.7 10.3 12.5 9.9 13.3 9.1 13.8 8.3 13.9 7.3 13.9 6.2 6.8 2.7 6.9 2.4 12.4 3.9 12.9 3.3 13.3 3.1 13.5 2.5 13.7 2 14.1 1.7 14 1.3 14.3 0.6 14 0.4 14.2-0.3 14.1-0.6 13.8-1.1 13.8-1.6 13.4-2 13.2-2.6 12.9-2.9 12.4-3.3 12-3.7 11.9-4.1 11.2-4.5 10.9-4.9 10.5-5.3 10.2-5.7 9.7-6 9.2-6.2 8.8-6.8 8.3-7.1 7.9-7.4 7.3-7.8 7-8.1 6.3-8.4 6-8.8 3.7-6 3.6-6.2 3.5-6.8 3-6.7 2.7-6.8 2.2-6.6 1.7-6.9 1.5-6.7 0.8-6.7 0.6-6.8 0.2-6.4-0.2-6.5-0.7-6.3-0.9-6.5-1.4-6.5-1.6-6.7-2.1-6.5-2.5-6.7-2.8-6.9-3.2-6.9-3.6-7-3.9-7.2-4.5-7.4-4.9-7.5-11.2-16.2-3.2-3.8-4.1-4-4.9-4.2-5.9-4.3-5.5-4.2-4.6-4.6-3.8-4.9-3.1-5.1 26.8 4.9 22.3 3.4 18 2.2 7.3 0.6 6.1 0.3h12.3l12.1-0.4 12.1-0.8 12.1-1.1 12-1.7 12-1.9 11.7-2.4 11.8-2.8 11.6-3.2 11.3-3.6 11.4-3.9 11.1-4.4 10.8-4.7 10.6-5.1 10.5-5.5 10.2-5.7 9.8-6.1 9.7-6.5 9.3-6.8 9-7 8.8-7.4 8.5-7.8 8-7.9 7.8-8.3 7.2-8.4 7.1-8.8 6.6-8.9 6.2-9.4 5.9-9.4 5.5-9.7 5-9.8 4.7-10.1 5.7-14.4 5.1-14.8 4.2-15.2 3.4-15.4 2.5-15.7 1.5-15.8 0.9-16.1-0.1-16.3-0.5-10.3-0.6-10.4-1.1-10.2-1.1-10.2-1.5-10-1.8-10.1-1.9-9.8-2.3-9.9-2.6-9.8-2.7-9.6-3-9.5-3.2-9.5-3.5-9.1-3.8-9.1-3.9-9.1-4.1-8.8-4.5-8.5-4.6-8.5-5-8.3-4.9-8.2-5.4-7.9-5.5-7.8-5.7-7.5-6-7.4-6.1-7.1-6.3-6.9-6.6-6.8-6.6-6.6-7.1-6.3-7.1-6.1-7.1-5.9-7.6-5.6-12-8.4-12.6-7.9-12.9-7.1-13.4-6.7-13.6-6-14-5.3-14.3-4.9-14.8-4.1-8.9-2.1-9.1-1.8-9.4-1.7-9.5-1.2-9.7-1.2-9.8-0.8-9.8-0.6-10.1-0.3h-10.1l-10.2 0.3-10.2 0.5-10.2 0.8-10.2 1-10.1 1.4-10.2 1.5-10 1.8-10 2.2-9.8 2.3-9.7 2.5-9.6 2.8-9.4 3.1-9.3 3.3-9.1 3.5-8.9 3.7-8.7 3.9-8.4 4.1-8.1 4.3-8.1 4.6-7.6 4.7-7.4 4.9-7.2 5.1-6.9 5.2-12.6 10.6-12 10.8-11.3 11.4-10.5 11.7-9.9 12.1-9.1 12.5-8.5 12.9-7.7 13.2-5.2 9.9-4.7 10.1-4.5 10.3-4.1 10.5-3.7 10.7-3.3 11-2.9 11.1-2.6 11.3-2.2 11.6-1.7 11.8-1.4 11.8-1.1 12.3-0.7 12.3-0.3 12.5 0.1 12.8 0.4 13 0.9 13.3 1.4 12.7 2.1 12.5 2.4 12.1 3 11.9 3.5 11.6 4.1 11.4 4.6 10.9 4.6 9.7 4.9 9.3 5.5 9.3 5.9 9.2 6.4 8.9 6.8 9 7.3 8.6 7.9 8.7 8.3 8.6 8.8 8.5 9.5 8.6 10 8.5 10.7 8.7 11.4 8.7 12.2 8.9 13.2 9.2-16.5-2.3-16.4-1.9-16.4-1.3-16.4-0.9-16.2-0.4-16.3 0.1-16.2 0.5-16.2 1.1-14.7 1.4-14.7 1.7-14.5 2.2-14.7 2.6-14.5 2.9-14.4 3.3-14.6 3.8-14.4 4.1-2.7-6.1-3.1-5.4-3.9-4.3-2-1.9-2.3-1.7-3.2-1.9-3.4-1.5-3.7-1.2-4-0.7-4.2-0.4h-4.3l-4.8 0.4-4.9 0.7-25.2 4.9-25.3 5.6-25.6 6.1-25.5 6.9-25.9 7.4-25.8 8.2-26.1 8.7-26.2 9.4-2.7 0.5-2.7-0.5-2.4-1.4-1.7-2.1-9.2-17.4-8-17.5-7.1-17.6-6-17.6-5.1-17.7-4.1-17.9-3.1-18-2-18v-3.7l0.4-3 1-2.6 1.5-2 2.2-1.4 2.5-0.9 3.2-0.4 3.7 0.3 172.5 22.7 6.2 0.4 5.8-0.4 5.3-1.3 5-2 4.4-2.9 4.1-3.8 3.6-4.4 3.2-5.4 0.9-1.9 0.6-2.1 0.3-1.9v-1.9l-0.3-2.1-0.7-2.2-3.4-6.7-3.8-5.7-4.3-5.1-5-4.3-4.5-3-4.8-2.4-5.2-1.9-5.7-1.4-38.6-7.3-40.7-6.7-42.8-6.2-45.1-5.6-3.8-0.2h-3.9l-4 0.2-3.6 0.7-3.4 0.9-2.8 1.1-2.6 1.4-2.3 1.8-2 1.7-1.9 1.1-1.6 0.4-1.4-0.1-1-0.9-0.9-1.4-0.5-2.1-0.4-2.7-1.5-35.3-0.8-34.9 0.2-34.5 1-34.2 1.8-33.6 2.7-33.3 3.5-32.9 4.5-32.5 5.2-32.2 6.1-31.7 6.9-31.4 7.9-30.9 8.7-30.5 9.4-30.2 10.5-29.7 11.2-29.4 13.9-33.2 15.2-34 16.5-34.3 17.8-34.9 19-35.5 20.4-36 21.6-36.4 22.9-37 1.2-1.6 1.1-1.2 1.4-0.9 1.4-0.7 1.6-0.2 1.5 0.1 1.8 0.4 1.8 0.6 16.1 6.9 7.6 3 7.5 2.5 7.2 2 6.9 1.8 6.6 1.4 6.4 1.1 6 0.6 5.7 0.2 5.6-0.1 5.2-0.5 4.9-0.8 4.7-1.2 4.3-1.7 4.1-2 3.5-1.7 2.9-0.9 2.7-0.1 2.3 0.6 1.9 1.4 1.5 2.2 1.2 2.9 0.7 3.9 2.1 12.7 2.8 12.1 3.3 11.5 4.1 11 4.7 10.4 5.2 9.7 6 9.3 6.7 8.7 5.7 6.5 6 6 6.5 5.9 6.9 5.3 7.4 5.1 7.8 4.9 8.3 4.5 8.5 4 9.1 3.9 9.5 3.5 10 3.2 10.4 3 10.9 2.5 11.4 2.3 12 2 12.5 1.8 4.8 0.4 4.7 0.3 4.7-0.3 4.7-0.4 4.5-0.7 4.4-0.9 4.5-1.3 4.3-1.5 4.4-1.8 4.3-2.2 4.4-2.3z"/>
		<path id="Layer" class="s16" d="m2336.5 2542.8l4.7 11.1 5 10.8 5.4 10.6 5.6 10.5 5.8 10.2 6.3 9.9 6.5 9.7 6.9 9.6 8 10.4 8.6 10.4 8.8 9.9 9.3 9.7 9.7 9.3 9.9 9.2 10.5 8.8 10.8 8.5 12.3 9.1 12.5 8.4 12.7 7.8 12.9 7.3 13 6.7 13.3 6.1 13.5 5.5 13.6 5.1 9.2 3 9.3 2.8 9.5 2.4 9.4 2.3 9.6 1.9 9.7 1.8 9.7 1.4 9.8 1.3 9.8 1 10.1 0.6 10.1 0.5 10 0.2 20.7-0.3 20.9-1.4 5.4 15.7 5 15.6 4.4 15.6 4.2 15.6 3.8 15.6 3.5 15.5 3.1 15.6 2.5 15.5 2.3 15.5 1.9 15.5 1.4 15.5 1.2 15.4 0.7 15.6 0.3 15.4v15.3l-0.4 15.4-1 17.8-1.5 17.6-2 17.6-2.5 17.6-2.9 17.6-3.6 17.6-4.1 17.6-4.5 17.4-4.3 1.8-3.8 2.3-3.7 3.5-3.1 4.2-2.5 5-1.9 5.7-1.2 3.3-1.4 2.9-1.8 2.3-2.2 1.8-2.4 1.3-2.8 0.8-3.2 0.2-3.4-0.2h-3.5l-1.4 0.3-1.2 0.7-1.3 0.8-1 1.1-1.7 3.1-2.2 5.3-2.4 5.1-2.7 4.7-2.8 4.5-3.2 4.1-3.3 3.8-3.7 3.5-3.8 3.1-2.9 2.1-29.2 19.1-30 19-9.3 5.4-9.2 4.6-9.2 3.8-9 2.9-9.1 2.3-9.1 1.6-9 0.6-8.9-0.1-6-0.5-5.9-0.8-5.9-1.2-5.8-1.5-5.9-1.9-5.9-2.2-5.8-2.5-5.8-3-2.3-1.5-1.8-1.8-1.5-2.5-1-2.8-3.1-15.2-2.3-15.3-1.4-15.2-0.6-15.3 0.1-11.2 0.5-11.2 1-11.3 1.5-11.2 1.9-11.3 2.3-11.3 2.8-11.3 3.2-11.2 1-4.4 0.6-4.4 0.3-3.4-0.2-3.4-0.1-4.1 0.5-3.9 0.8-4.2 1.4-4.4 2.3-5.9 3.3-8.9 1.8-7.2 7.3-43.8 5.6-35.5 3.9-27.1 2.3-18.8 0.5-7.4 0.2-7.2-0.4-6.9-0.8-6.8-1.3-6.7-1.5-6.8-1.9-6.8-2.4-6.7-2.8-6.8-3.2-6.7-4.7-10.8-2-3.2-2.5-2.6-3.1-2.1-3.4-1.2-3.7-0.6-3.7 0.4-3.6 1.3-3 1.9-1.6 1.4-1.4 1.7-5.8 8.7-5.3 9.1-4.6 9.9-3.9 10.2-122.3 352.4-7.3 20-7.5 19.8-8.1 19.5-8.4 19.1-8.9 19-9.2 18.5-9.7 18.4-10.1 18-4 6.8-4.6 6.7-4.9 6.6-5.2 6.5-5.5 6.3-6 6.2-6.2 6.1-6.8 6.2-7 5.8-7.4 5.8-7.8 5.6-8 5.6-8.6 5.3-8.8 5.4-9.2 5.1-9.5 5.1-4.1 1.9-3.7 1.4-3.6 1-3.3 0.6h-4.1l-4.3-0.4-4.9-0.9-7.2-1.8-0.8-0.3-2.8-0.5-2.8 0.2-2.8 0.5-2.7 1.1-5.7 2.9-5.9 2.6-6 2.2-6 1.6-6.2 1.3-6.4 0.9-6.5 0.5h-6.5l-2.6-0.3-2.3-0.7-2.3-1.3-1.9-1.6-1.5-2-1.2-2.1-0.7-2.5-0.3-2.5 0.4-10.2 0.5-7.3 1-7.2 1.3-7.2 1.5-7.3 1.9-7.1 2.2-7.1 2.6-7.2 2.9-7.1 0.6-1.9 0.3-1.8v-1.6l-0.5-1.2-0.9-1.2-1.2-1-1.5-0.8-1.9-0.5-5.4-1.3-2.3-0.3-2-0.2-1.9 0.4-1.8 0.5-1.5 1-1.6 1.3-1.2 1.7-1.2 2-5.6 12.6-2.4 6.4-2.2 6.5-1.9 6.4-1.5 6.5-1.4 6.6-1.2 6.6-1 8.5-0.6 8.7-0.5 4.2-1.1 3.4-1.5 2.8-2 2.1-2.6 1.2-3 0.6-3.6-0.2-4.1-0.9-41.7-11.7-2.7-1-2.4-1.4-2.2-1.7-1.8-2.2-1.5-2.2-1.1-2.6-0.7-2.7-0.2-2.8-0.3-56.6-0.2-3.3-0.8-3-1.2-2.5-1.5-2.1-2-1.5-2.6-1.1-2.9-0.7-3.3-0.2h-8.6l-3.9 0.2-3.2 0.8-2.6 1.3-1.9 1.8-1.3 2.3-0.5 2.8 0.2 3.3 0.7 3.8 11.6 41.8 1.2 4.9 0.2 3.7-0.3 2.7-0.6 1-0.6 0.6-0.9 0.4-1 0.1-2.7-0.5-3.4-1.5-4.2-2.7-5.3-3.8-4.8-4.2-4.6-4.4-4.3-4.6-5.4-6.6-4.8-7.3-4.3-7.6-3.8-8.2-3.2-8.6-2.7-9.1-2.1-9.8-1.7-10.2-1-10.6-0.6-11.1-0.2-11.9 0.3-12.3 0.8-13.2 1.2-14.1 1.8-15.6 2.6-19.1 4.2-29.6 4.4-29.6 4.8-29.6 5.1-29.6 5.3-29.7 5.6-29.6 5.9-29.7 6.1-29.6 6.5-29.7 6.8-29.9 7-29.7 7.3-29.7 7.6-29.9 7.9-29.7 8.2-29.8 8.4-29.9 0.7-3.4-0.3-3.7-0.9-3.6-1.8-3.2-2.4-2.7-2.9-2.1-3.4-1.5-3.5-0.7-3.7 0.1-4.1 0.8-3.7 1.3-3.4 1.5-3.2 2.1-2.6 2-2.3 2.2-2 2.6-1.9 2.8-5.8 9.9-5.5 10.2-5.4 10.3-5.1 10.7-5.2 10.9-4.8 11.2-9.3 23.2-7.9 21.7-7.7 21.9-8.3 25-7.7 25.3-7.3 25.2-6.8 25.5-6.3 25.8-5.9 25.8-5.5 26-5 26.1-1.4 6.7-1.4 4.7-1.5 2.8-0.8 0.8-0.7 0.2-0.9-0.2-0.8-0.7-1.8-2.8-1.6-4.6-2-6.5-13.5-53.8-13.8-55.6-8.5-33.1-9.1-31.6-9.6-30.3-10.2-29-5.4-13.9-5.6-13.6-5.6-13.3-5.8-12.9-6-12.5-6-12.2-6.2-12-6.4-11.5-3-4.7-3.5-3.9-3.8-2.9-4.1-2-4-1-4.2-0.4-4.4 0.4-4.7 1-2.7 1-2.4 1.6-2.1 2-1.6 2.4-1.2 2.5-0.6 2.8v3l0.5 2.8 8.4 29.4 8 29.5 7.8 29.6 7.7 29.5 7.2 29.6 7.1 29.5 6.7 29.6 6.5 29.8 6.3 29.5 5.8 29.8 5.8 29.7 5.3 29.7 5.3 29.8 4.8 29.8 4.6 29.8 4.3 29.9 2.6 18.7 1.8 16.3 1.2 15.1 0.8 13.8 0.3 13.2-0.4 12.5-0.8 11.9-1.4 11.2-1.9 10.6-2.5 10.1-3.1 9.4-3.7 8.7-4.2 8.3-4.9 7.5-5.3 7-6 6.4-6.1 5.5-6.7 4.9-7.4 4.5-7.6 3.8 13.1-57.5 0.3-2.5-0.2-2.7-0.7-2.4-1.3-2.3-1.7-2.1-2.1-1.5-2.3-1.2-2.6-0.5-1.2-0.1-6.9-0.2-2.2 0.1-2.2 0.5-2 0.8-1.9 1.1-1.7 1.4-1.5 1.8-1.2 1.8-0.7 2-2.1 7.5-1.4 8-0.7 8.2-0.4 8.6 0.4 9 0.7 9.4 1.4 9.8 2.1 10.1-9.7 5.3-6.7 3.1-6.8 2.7-7.1 2.4-7.2 1.9-7.4 1.6-7.5 1.3-7.8 0.9-7.9 0.5h-1.8l-1.6-0.4-1.2-0.5-1-0.7-0.9-1.1-0.8-1.2-0.4-1.4-0.2-1.8-0.2-3-1.1-9.9-1.7-10.1-2.1-9.9-3-9.8-3.4-9.9-4.1-9.8-4.7-9.8-5.4-9.7-1.5-1.7-2.1-0.9h-2.1l-1.9 1.1-0.5 0.3-2.3 2.3-1.7 1.8-1.3 2.2-1 2.2-0.6 2.3-0.4 2.4v2.4l0.4 2.4 0.6 2.3 2.6 7.4 2 7.3 1.9 7.4 1.5 7.4 1.2 7.3 0.8 7.4 0.5 7.2 0.1 7.4-0.1 7.6-0.5 2.8-1.2 2-2 1.5-2.8 0.8-8.2 0.8-7.9-0.2-7.7-0.7-7.6-1.6-7.3-2.1-7-3-6.9-3.7-6.7-4.4-1.7-0.9-1.7-0.3-1.5 0.5-1.5 1.2-2.6 2.3-2.5 1.8-2.7 1.2-2.8 0.9-3.1 0.4-3-0.1-3.2-0.7-3.3-1.1-9.6-4.1-9.2-4.2-9-4.5-8.6-4.7-8.3-4.8-8-5.1-7.8-5.3-7.3-5.6-7.1-5.6-6.8-5.8-6.5-6.2-6.1-6.3-5.9-6.5-5.4-6.7-5.3-7-4.8-7-3-4.6-10.3-17.3-10.1-18.4-9.8-19.4-9.7-20.5-9.5-21.6-9.4-22.6-9-23.7-8.9-24.7-114.8-330.8-4.1-11.2-4.5-11.1-4.7-10.8-5.1-10.7-1.1-2-2.7-3.4-3.3-2.7-3.9-1.9-4.1-1-4.3-0.3-4.2 0.7-4.1 1.6-3.5 2.3-4.4 7.4-2.9 6.1-2.7 6.3-2.3 6.2-2 6.3-1.7 6-1.3 5.9-1.1 6.1-0.9 6-0.9 12.7-0.1 13.3 0.9 13.5 1.7 14.9 2.7 16.4 4.5 22.4 3.7 18.9 2.4 13.8 6.8 38.5 3.5 19 4 18.7 5.7 28 3.9 22.4 1.4 10.4 1 10 0.8 9.5 0.3 9.1 0.2 9.2-0.3 8.8-0.5 8.7-0.9 8.4-1.3 8.3-1.6 7.9-1.9 8.1-2.3 7.6-1.2 2.8-1.5 2.7-2.3 2.8-2.9 2.6-7.1 4.5-3.5 2-3.5 1.6-3.7 1.3-3.5 1.1-3.6 0.8-3.7 0.5-6.1 0.5-6 0.2-5.5-0.2-5.4-0.4-10.8-1.6-11.1-2.6-11.4-3.7-11.3-4.6-12.4-5.8-13.4-7.2-18.3-10.6-18.2-10.3-13.3-6.9-22.1-10.2-8-3.9-8.5-4.9-8.6-5.7-9-6.6-5.1-12.3-4.8-12.4-4.5-12.3-4.2-12.5-3.9-12.5-3.6-12.7-3.3-12.6-3-12.7-4-20.3-3.2-20.4-2.6-20.7-1.8-20.8-0.9-20.9-0.2-21.2 0.6-21.3 1.3-21.4 2.2-21.7 2.9-21.8 3.7-21.9 4.5-22.2 5.2-22.3 6-22.5 6.7-22.7 7.6-22.8 7.6 1.5 7.7 1.1 7.8 1.1 7.9 0.6 7.9 0.5 7.9 0.1h8l8.2-0.3 16.4-1.4 16.9-2.6 16.9-3.4 17.4-4.6 11.3-3.5 11.1-3.7 11-3.9 10.7-4.2 10.6-4.5 10.2-4.6 10.1-5 9.8-5.1 9.7-5.3 9.4-5.6 9.2-5.9 9.1-6.1 8.8-6.4 8.5-6.6 8.3-6.8 8.2-7.1 7.5-6.9 7.4-7.2 7.1-7.4 6.9-7.5 6.8-7.9 6.5-7.9 6.4-8.3 6.2-8.4 6-8.7 5.7-8.9 5.7-9.1 5.3-9.4 5.2-9.4 5-9.9 4.9-9.9 4.6-10.2 64.2 7.1 64.3 6.1 64.3 5.4 64.3 4.3 64.3 3.5 64.4 2.5 64.3 1.7 64.2 0.8h34.7l34.7-0.3 34.7-0.5 34.8-0.9 34.7-1 34.7-1.3 34.7-1.7 34.7-1.7 34.7-2.2 34.8-2.4 34.7-2.7 34.7-2.8 34.7-3.2 34.8-3.6 34.7-3.7z"/>
	</g>
	<g id="Layer">
		<path id="Layer" class="s17" d="m1687.3 580.7l-6 15.1-3.2 7.1-3.4 6.9-3.6 6.8-3.7 6.3-3.9 6.3-4.1 5.9-4.2 5.7-4.5 5.5-4.6 5.2-4.7 5-5 4.7-5.1 4.5-5.3 4.2-5.4 3.9-9.7 6.3-10.1 5.5-10.4 4.8-11.1 4.1-11.6 3.4-12 2.8-12.5 2-13 1.4-8.5 0.3h-8.4l-8.4-0.5-8.3-0.9-6.9-1-6.7-1.4-6.9-1.6-6.6-2-6.7-2.3-6.5-2.5-6.5-2.8-6.4-3.1-6.2-3.4-6.1-3.7-5.9-3.8-5.7-4.3-5.8-4.4-5.5-4.6-5.2-4.9-5.1-5.1-4.8-5.3-4.8-5.5-4.4-5.7-4.2-5.9-4-6-3.7-6.2-3.4-6.4-3.4-6.5-2.9-6.5-2.7-6.7-2.4-6.9-2-6.8-1.9-7.1-1.6-7-1.2-7-1.1-7.1-0.6-6.8-0.4-6.9-0.1-6.7 0.1-6.8 2.2-12.4 2.9-12.1 3.7-11.6 4.5-11.3 5.2-10.9 5.9-10.6 6.5-9.9 7.4-9.6 4.6-5.3 4.8-5.3 5.2-4.9 5.3-4.9 5.5-4.6 5.7-4.3 5.9-4.1 6.1-3.8 6.2-3.7 6.4-3.3 6.6-3.2 6.7-2.8 6.7-2.6 6.9-2.3 7-2 7.1-1.7 7.1-1.5 7.3-1 7.1-0.9 7.3-0.5 7.3-0.3h7.1l7.3 0.4 7.1 0.6 7.1 0.9 7.2 1.3 7 1.5 6.9 1.8 6.8 2.2 6.7 2.4 6.6 2.7 6.6 2.9 10.2 5.2 9.8 6.2 9.5 6.7 9 7.4 8.6 8.2 8.1 8.5 7.6 9.5 7 9.8 4.8 7.3 4.2 7.4 3.7 7.5 3.4 7.5 3 7.7 2.4 7.7 2.1 7.8 1.7 7.8 1.3 8.5 0.7 8.7 0.3 8.7-0.3 8.9-0.6 8.8-1.1 9.1-1.8 9z"/>
		<path id="Layer" class="s17" d="m2251.2 504.7l0.8 8.9 0.5 8.8v8.7l-0.3 8.5-0.6 8.6-0.9 8.4-1.4 8.2-1.7 8-2 8-2.5 7.7-2.6 7.7-3.1 7.4-3.4 7.2-3.9 7-4 6.9-4.5 6.7-4.5 6.1-4.7 5.8-5 5.7-5.2 5.3-5.5 5.2-5.7 4.9-6 4.7-6.1 4.3-6.4 4.3-6.6 3.8-6.8 3.6-6.9 3.3-7.1 2.9-7.3 2.7-7.3 2.4-7.4 2-7.5 1.8-7.6 1.4-7.6 1.1-7.8 0.7-7.6 0.4h-7.7l-7.6-0.3-7.7-0.5-7.5-1-7.5-1.3-7.4-1.5-7.4-1.9-7.2-2.3-7.1-2.6-7-2.8-6.9-3.1-7-3.7-6.9-4.1-6.6-4.4-6.7-4.7-6.2-5-6-5.2-5.9-5.6-5.6-5.9-5.3-6.2-5.3-6.5-4.8-6.8-4.7-7-4.4-7.3-4.2-7.5-3.8-7.8-3.7-8.1-1.9-10.1-1.4-10-1.2-9.7-0.7-9.4-0.4-9.3v-9.1l0.4-8.8 0.7-8.6 1.2-8.3 1.4-8.3 1.9-7.9 2.3-7.8 2.5-7.5 3.1-7.3 3.3-7.1 3.7-6.8 3.2-5.2 3.4-5.1 3.6-5 3.8-4.7 4.1-4.7 4.4-4.6 9.3-8.7 7.4-6.1 7.4-5.6 7.6-5.3 7.8-4.7 7.9-4.3 8.2-3.9 8.1-3.4 8.4-3.1 10.3-2.9 10.4-2.4 10.7-1.7 11-1.1 11.1-0.5 11.3 0.2 11.5 0.8 11.8 1.5 7.5 1.3 7.4 1.7 7.1 1.9 7 2.3 6.8 2.5 6.6 2.8 6.5 3.2 6.3 3.5 6.7 4 6.5 4.6 6.3 4.9 6.1 5.3 5.8 5.6 5.7 6.2 5.4 6.3 5.2 6.8 5 7.1 4.7 7.6 4.6 7.9 4.3 8.3 4.1 8.5 3.9 9.1 3.7 9.4z"/>
		<path id="Layer" class="s1" d="m939.2 1808.2l-94.7-38.2-13.2-9.2-12.2-8.9-11.4-8.7-10.7-8.7-10-8.5-9.5-8.6-8.8-8.5-8.3-8.6-7.9-8.7-7.3-8.6-6.8-9-6.4-8.9-5.9-9.2-5.5-9.3-4.9-9.3-4.6-9.7-4.6-10.9-4.1-11.4-3.5-11.6-3-11.9-2.4-12.1-2.1-12.5-1.4-12.7-0.9-13.3-0.4-13-0.1-12.8 0.3-12.5 0.7-12.3 1.1-12.3 1.4-11.8 1.7-11.8 2.2-11.6 2.6-11.3 2.9-11.1 3.3-11 3.7-10.7 4.1-10.5 4.5-10.3 4.7-10.1 5.2-9.9 7.7-13.2 8.5-12.9 9.1-12.5 9.9-12.1 10.5-11.7 11.3-11.4 12-10.8 12.6-10.6 6.9-5.2 7.2-5.1 7.4-4.9 7.6-4.7 8.1-4.6 8.1-4.3 8.4-4.1 8.7-3.9 8.9-3.7 9.1-3.5 9.3-3.3 9.4-3.1 9.6-2.8 9.7-2.5 9.8-2.3 10-2.2 10-1.8 10.2-1.5 10.1-1.4 10.2-1 10.2-0.8 10.2-0.5 10.2-0.3h10.1l10.1 0.3 9.8 0.6 9.8 0.8 9.7 1.2 9.5 1.2 9.4 1.7 9.1 1.8 8.9 2.1 14.8 4.1 14.3 4.9 14 5.3 13.6 6 13.4 6.7 12.9 7.1 12.6 7.9 12 8.4 7.6 5.6 7.1 5.9 7.1 6.1 7.1 6.3 6.6 6.6 6.6 6.8 6.3 6.9 6.1 7.1 6 7.4 5.7 7.5 5.5 7.8 5.4 7.9 4.9 8.2 5 8.3 4.6 8.5 4.5 8.5 4.1 8.8 3.9 9.1 3.8 9.1 3.5 9.1 3.2 9.5 3 9.5 2.7 9.6 2.6 9.8 2.3 9.9 1.9 9.8 1.8 10.1 1.5 10 1.1 10.2 1.1 10.2 0.6 10.4 0.5 10.3 0.1 16.3-0.9 16.1-1.5 15.8-2.5 15.7-3.4 15.4-4.2 15.2-5.1 14.8-5.7 14.4-4.7 10.1-5 9.8-5.5 9.7-5.9 9.4-6.2 9.4-6.6 8.9-7.1 8.8-7.2 8.4-7.8 8.3-8 7.9-8.5 7.8-8.8 7.4-9 7-9.3 6.8-9.7 6.5-9.8 6.1-10.2 5.7-10.5 5.5-10.6 5.1-10.8 4.7-11.1 4.4-11.4 3.9-11.3 3.6-11.6 3.2-11.8 2.8-11.7 2.4-12 1.9-12 1.7-12.1 1.1-12.1 0.8-12.1 0.4h-12.3l-6.1-0.3-7.3-0.6-18-2.2-22.3-3.4z"/>
		<path id="Layer" class="s1" d="m2756.8 1769.8l-91.5 38.3-12.1 2.7-12 2.3-12 1.9-11.8 1.6-11.8 1.3-11.6 0.9-11.6 0.5-11.5 0.2-11.3-0.2-11.2-0.5-11.3-0.9-11.1-1.1-10.9-1.7-11-1.9-10.8-2.3-10.7-2.5-17.4-5.1-10.7-3.7-10.5-3.9-10.2-4.2-9.9-4.6-9.8-4.7-9.5-5.1-9.3-5.5-9-5.6-8.7-6-8.4-6.2-8.3-6.5-7.9-6.8-7.7-7-7.4-7.4-7-7.5-6.8-7.9-10-12.8-9.3-13.4-8.6-13.9-7.8-14.5-6.9-15.1-6.1-15.4-5.2-16-4.3-16.2-3.6-16.7-2.7-16.8-1.8-17.2-0.7-17.2v-17.5l0.8-17.5 2-17.5 2.6-17.4 3.7-17.4 4.5-17.1 5.4-16.8 6.1-16.5 7-16 7.8-15.9 8.5-15.1 9.2-14.8 10-14.1 10.7-13.5 11.3-13 11.9-12.2 12.5-11.5 13-10.7 13.8-10.1 14-9.3 8.5-5.1 8.7-4.9 8.8-4.4 9.1-4.2 9-4 9.3-3.7 9.3-3.4 9.6-3.1 15.6-4.3 16.2-3.5 16.7-2.6 17.2-1.8 17.6-0.9 18.1-0.2 18.1 0.8 18.3 1.7 18.3 2.5 18.1 3.3 17.9 4.1 17.6 5 17.1 5.6 16.4 6.5 15.9 7 15.1 7.8 9 5.1 8.5 5.2 8.6 5.6 8.1 5.9 7.9 6.1 7.7 6.4 7.4 6.6 7.2 6.9 7.3 7.6 7 7.7 6.9 8.3 6.5 8.4 6.3 8.7 5.8 8.9 5.7 9.2 5.2 9.6 5.1 9.8 4.7 10 4.5 10.3 4.1 10.5 3.7 10.7 3.5 11.1 3.2 11.2 2.8 11.3 2.7 12 2.2 11.8 1.7 11.7 1.6 11.5 1 11.5 0.6 11.2 0.3 11.1-0.1 11-0.5 10.8-1.1 10.7-1.2 10.6-1.7 10.5-2.2 10.2-2.4 10.2-2.9 9.9-3.3 9.8-4.6 11.9-5.1 11.6-5.8 11.5-6.2 11.2-6.9 11-7.5 10.8-8.1 10.6-8.5 10.3-9.3 10.2-9.8 10-10.4 9.7-10.9 9.5-11.7 9.4-12.2 9.1-12.6 9z"/>
	</g>
	<g id="Layer">
		<path id="Layer" class="s18" d="m969.7 717.8l0.4 10.7 0.4 12.2 0.1 8.8-0.2 7.7-0.5 7.3-1.1 6.8-1.2 6.5-1.8 5.8-2.2 5.7-6.1 12.8-6.7 12-7.2 11.1-7.7 10.4-8.3 9.3-8.8 8.4-4.7 3.8-4.7 3.7-4.9 3.5-5.1 3.3-5.2 3-5.5 2.8-5.6 2.6-5.6 2.4-5.9 2.2-6 1.9-6.2 1.7-6.3 1.4-13 2.1-13.6 1.3-14.2 0.4-14.6-0.7-7.6-0.7-7.4-1.3-7.2-1.8-7-2.2-9.1-3.6-8.8-4.6-8.5-5.5-8.2-6.3-7.9-7.1-7.7-8.1-7.2-8.8-7.1-9.6-4-6.8-3.6-7.5-3.2-8.5-2.9-9.1-2.5-10.1-2.1-11.2-2.1-12.8-2.1-17-1.7-12.7-0.5-2.6-0.9-2.4-2-3.7-3-3-3.5-2.5-4.1-1.5-4.2-0.5-4.4 0.5-4 1.4-3.6 2.3-5.8 4.3-6.1 4-6.2 3.7-6.8 3.3-6.6 2.7-6.9 2.4-6.8 1.8-6.9 1.4-6.5 0.9-6.6 0.4-6.2-0.3-6.3-0.6-5.9-1.2-5.8-1.6-5.4-2.1-5.3-2.6-4.8-3-4.6-3.4-8.2-7.3-7.8-7.5-7-7.8-6.4-7.9-5.6-8.3-5.1-8.5-4.4-8.7-3.7-9.1-2.8-8.5-2.3-8.8-1.6-9.1-1.2-9.2-0.5-9.5v-9.6l0.7-9.9 1.1-10.1 1.5-8.9 1.8-8.7 2.2-8.4 2.4-8.1 2.9-7.9 3.2-7.5 3.6-7.4 4-7.1 4.2-7.1 4.6-6.6 4.9-6.4 5.4-6.3 5.7-6.2 6.2-6 6.6-5.8 7-5.8 7.3-5.6 7.9-5.5 8.4-5.6 9.1-5.6 9.6-5.6 10.5-5.7 25-12.9 1.3-0.8 2.1-1.6 1.8-2.2 1.3-2.4 0.6-2.7 0.3-2.8-0.5-2.7-0.9-2.7-1.5-2.3-5.5-7-5-7.3-4.7-7.4-4.3-7.6-3.4-6.6-2.9-6.8-2.8-6.9-2.4-6.9-2.3-7.1-1.9-7.4-1.7-7.4-1.4-7.5-1.1-7.8-0.9-7.9-0.7-7.9-0.2-8.2-0.2-8.3 0.3-8.4 0.5-8.7 0.8-8.7 0.9-6.7 1.4-6.6 1.8-6.6 2.1-6.1 2.1-4.8 2.1-4.6 2.6-4.6 2.8-4.5 3.1-4.3 3.1-4.2 3.6-4.1 3.7-3.9 8.2-7.6 9-7 10-6.5 10.8-5.7 11.8-5.4 12.3-4.5 12.8-3.7 13.2-2.9 13.6-2 13.5-1.2 13.5-0.4 13 0.7 3.6 0.4 4.8 0.7 4.9 1.2 4.8 1.4 4.7 1.8 4.8 2 4.8 2.4 4.9 2.7 4.8 3.1 9.4 6.9 10 8.5 10.6 10 14 14.4 17 17.2 2.3 1.8 2.5 1.1 2.8 0.7 2.8 0.1 2.8-0.7 2.7-1.1 2.3-1.8 1.8-2.2 1.1-2 6.8-16.2 7.8-18.1 6.1-13.1 6.1-11.4 6.4-9.7 3.4-4.5 3.5-3.9 3.6-3.8 3.7-3.5 3.8-3 3.9-2.8 4.1-2.5 4.4-2.1 4.7-2 5-1.6 5.1-1.3 5.3-0.9 11.1-1h5.6l5.4 0.1 5.3 0.4 5.4 0.6 5.2 1.1 5.1 1.1 7.6 2.2 7.1 2.8 7.1 3.2 7.1 3.9 6.7 4.4 6.8 4.9 6.3 5.4 6.4 6 6.1 6.5 6.2 7 5.7 7.7 5.7 8.1 5.4 8.6 5.2 9 5.1 9.6 4.8 9.9 0.8 2.3 0.4 2.5 0.2 2.4-0.3 2.3-0.6 2.4-1.1 2.2-1.2 2-1.7 1.8-7.3 7-6.8 7.2-6.6 7.2-6.2 7.3-5.7 7.3-5.5 7.5-5 7.5-4.7 7.5-6.5 11.5-6 11.4-5.5 11.2-4.8 11.1-4.4 11.1-3.8 11-3.3 10.8-2.8 10.7-2.2 10.7-1.7 10.6-1.1 10.5-0.6 10.3v10.3l0.3 10.1 1.1 10.1 1.5 10.1 1.6 7.5 1.8 7.6 2.3 7.6 2.6 7.4 2.8 7.4 3.2 7.4 3.4 7.2 3.8 7.2 4.1 7.3 4.5 7 4.7 7.1 5.1 6.9 5.5 7 5.7 6.9 6 6.8 6.4 6.7 2.8 3.5 2.1 3.8 1.4 4.2 0.5 4.3-0.2 4.4-1 4.2-1.8 4.1-2.4 3.5-11.9 15.2-11 15.3-10.4 15.6-9.4 15.5-8.7 15.7-7.9 15.8-7.1 16-6.3 16.1-0.9 2-0.9 1.5-1 0.9-1 0.4-1-0.3-1.1-0.7-1.1-1.3-1.2-1.9-16.5-30.2-5.5-9.2-2.4-3.6-2.2-2.8-2.1-2-1.9-1.4-1.6-0.8-1.4 0.1-1.3 0.7-1.2 1.4-0.8 2.1-0.7 2.8-0.5 3.6-0.4 4.3z"/>
		<path id="Layer" class="s19" d="m2923 729.9l-1.7 10.4-2 14-3.1 20.9-2.9 15.1-1.8 6.9-2 6.5-2.3 6.1-2.5 5.7-3.7 7.4-3.9 7-4.5 6.7-4.6 6.4-5.1 5.9-5.3 5.7-5.8 5.2-6 4.8-5.6 4.1-5.8 3.7-6.2 3.3-6.2 3.1-6.5 2.7-6.7 2.4-6.8 1.9-6.9 1.7-7.2 1.2-7.1 1.1-7.4 0.5-7.5 0.2-7.4-0.2-7.6-0.5-7.5-0.9-7.4-1.3-7.5-1.7-7.3-2-7.4-2.3-7.1-2.7-7.2-3-6.9-3.4-6.7-3.7-6.6-3.9-6.4-4.2-6.1-4.6-5.9-4.9-5.8-5.1-5.2-5.2-5.1-5.6-4.8-5.7-4.5-6-4.7-7.3-3.1-5.4-2.8-5.4-2.4-5.7-2.2-5.8-1.9-6-1.8-6.4-1.4-6.4-1.1-6.9-1.7-13.9-0.7-15.5 0.1-17.4 0.9-22.7-0.3-1.5-1-1.8-1.8-1-2-0.1-1.9 0.9-4 3.3-3.6 3.7-3.4 3.8-3.2 4.1-3.1 4.3-2.6 4.6-2.6 4.9-2.3 4.9-2 5.4-2.1 5-2 3.5-1.9 2.2-1 0.5-1.1 0.3-1-0.3-1-0.5-2-2-2.1-3.6-2-5-6-15.5-7-15.6-8.1-15.7-8.8-15.7-9.9-15.9-10.9-15.8-11.8-16-12.8-16.1-1.5-2.3-1.2-2.4-0.5-2.7-0.1-2.8 0.4-2.6 0.9-2.6 1.3-2.4 1.7-2.1 8.7-8.9 8.1-9.3 7.6-9.6 7-9.8 6.7-9.9 6-10.4 5.3-10.4 4.9-10.6 4.3-10.8 3.6-11 3.2-11.2 2.4-11.1 1.8-11.4 1.2-11.2 0.7-11.4v-11.3l-0.4-8.2-0.8-8.1-1-8.2-1.3-8.2-1.6-8-2.1-8-2.3-7.9-2.6-8.1-3-7.8-3.3-7.7-3.4-7.7-3.9-7.5-4.2-7.5-4.4-7.6-4.8-7.2-5.1-7.2-11.2-15-11.5-14.8-11.7-14.6-12-14.3-1.4-1.9-1.1-2.1-0.8-2.2-0.5-2.4v-2.3l0.2-2.4 0.7-2.3 0.9-2.2 6-10.7 6-10.2 6.1-9.5 6.2-8.9 6.3-8.2 6.4-7.6 6.3-7 6.5-6.4 6.7-5.7 6.7-5.3 6.9-4.7 7-3.9 7.1-3.5 7.1-2.9 7.4-2.2 7.4-1.7 6.1-1 6.4-0.5 6.5-0.1 6.5 0.4 6.5 0.7 6.6 1.1 6.7 1.6 6.9 1.9 4.3 1.7 4.2 2 4.2 2.6 4.1 2.8 3.9 3.4 4 4 3.7 4.3 3.8 4.7 3.6 5.3 3.6 5.6 3.5 6.1 3.6 6.6 7.2 15 8.5 20.2 5.1 12 1.5 2.6 1.9 2.3 2.5 1.6 2.8 1.2 2.9 0.5 2.9-0.1 3-0.9 2.5-1.4 2.1-1.7 10.9-11.5 14.1-14.6 10.7-10.6 10.1-9.2 9.4-7.5 9.1-6.4 8.8-5 4.2-1.9 4.2-1.7 3.9-1.2 4.1-1.1 6.5-1.1 6.6-0.9 6.7-0.5 6.9-0.4 6.9-0.1 7 0.2 7 0.4 7.1 0.8 6.9 1 7 1.2 6.9 1.5 6.9 1.6 6.8 2.1 6.6 2.2 6.4 2.4 6.3 2.7 6 2.8 5.9 3 5.6 3.3 5.4 3.4 5.1 3.5 5 3.9 4.7 3.9 4.3 4.1 4.2 4.2 4 4.5 3.5 4.4 3.5 4.7 3.1 4.9 2.8 4.8 2.5 5.1 2.2 5.1 2.1 5.9 1.8 6.1 1.4 6.2 1.2 6.3 1.3 11 0.7 10.8 0.3 10.8-0.3 10.5-0.7 10.5-1.3 10.3-1.8 10.1-2.4 10.1-2.7 9.3-3.2 9.3-3.7 9.2-4.1 9-4.6 8.8-5.1 8.8-5.6 8.7-6 8.6-1.3 2.1-0.7 2.5-0.3 2.5 0.3 2.6 0.7 2.4 1.2 2.2 1.7 1.9 2 1.5 1.1 0.5 12.5 5.9 11.8 5.8 10.9 5.9 10.4 6 9.8 6.1 9.2 6.3 8.7 6.2 8 6.5 7.6 6.8 7.2 6.7 6.6 7.2 6.1 7.3 5.8 7.4 5.1 7.6 4.7 7.9 4.3 8.2 3.5 7.5 3.2 7.8 2.6 8 2.5 8.2 1.9 8.4 1.5 8.6 1.3 8.8 0.8 9 0.3 8.6v8.2l-0.5 8.2-0.9 8-1.2 7.8-1.8 7.7-2.2 7.5-2.7 7.4-4.2 9.6-5 9.3-5.6 8.9-6.5 8.7-7.2 8.4-8.2 8-8.8 7.8-9.6 7.5-0.9 0.7-3.4 2.1-3.7 2-4.1 1.6-4.1 1.2-4.4 1-4.6 0.6-4.7 0.3h-5l-5.2-0.3-5.5-0.6-5.6-1-6-1.3-12.5-3.5-13.6-4.8-3.4-1.5-3.1-2.1-2.5-2.1-2.4-2.5-3.2-3.3-3.5-2.5-3.4-1.8-3.7-1.2-4.1-0.4-4.3 0.6-4.5 1.4-4.6 2.3-2 1.5-1.7 1.9-1.3 2.3z"/>
		<path id="Layer" class="s18" d="m497.4 436.5l-7 6.6-17.2 16.8-11.9 12.1-10.2 11.3-8.7 10.4-7.6 10.6-6.6 10.6-5.6 10.7-4.6 11.1-2.2 6-1.9 6.3-1.6 6.3-1.4 6.5-1 6.7-0.9 6.7-0.5 7-0.4 7.2-0.1 11.6v11.5l0.4 11.2 0.8 11.1 0.9 11 1.2 10.7 1.6 10.6 1.7 10.3 2.1 10.2 2.4 10.1 2.7 9.8 3 9.7 3.2 9.4 3.6 9.3 3.8 9.2 4.1 9 0.9 2.4 0.6 2.3 0.2 2.1-0.3 2.2-0.7 1.9-1.1 1.9-1.5 1.8-1.8 1.7-8 6.9-8.2 8-8.5 9.4-8.7 10.8-8.9 11.8-9.6 13.5-10.2 15.6-13.6 21.2-11.7 18-8 12.2-0.9 1-1 0.8-1.3 0.5-1.1 0.1-1.3-0.1-1.3-0.4-1-0.6-1-0.9-0.7-1-7.9-16.2-7.6-16.2-7.3-16.5-6.9-16.4-6.6-16.6-6.3-16.7-5.9-16.7-5.7-17-6.8-22.6-6.4-22.7-5.8-22.8-5.2-23.1-4.7-23.3-4.1-23.5-3.4-23.6-3-23.9-1.9-22.7-1.4-25.9-0.6-29.8-0.3-41.6-0.1-36.6-0.5-26.1 0.2-11.3 1.1-14 2-17.1 2.8-20 3.8-23 4.7-25.9 5.5-28.8 6.5-31.7 16.6-5.6 2.8-0.7 2.6 0.1 2.4 0.9 2.3 1.6 25 21.9 24.6 22.5 24.2 22.8 23.8 23.2 24.6 25.1 24.1 25.7 4.2 4.3 5 4.6 14 11.7 10.7 9 7.7 6.7 6.2 6.3 5.4 6.1 4.4 6.2 3.5 6.4 2.7 6.3z"/>
		<path id="Layer" class="s18" d="m3339.8 216.1l4.8 19.7 4.5 19.7 4.1 19.4 3.4 19.3 3.1 19.2 2.7 19 2.1 18.9 1.7 18.7 1.3 18 1 18.5 0.6 18.9 0.5 19.5 0.2 19.9-0.2 20.5-0.3 20.9-0.7 21.5-1.1 22.5-1.8 22.6-2.2 20.5-2.5 20.6-3.2 20.4-3.6 20.4-4.2 20.4-4.6 20.3-5.1 20.3-5.6 20.1-6.1 20.2-6.5 20.1-7.2 20-7.5 20.1-8.2 20-8.5 19.9-9.1 19.9-9.5 19.9-0.9 1.4-1.2 1.1-1.4 0.9-1.6 0.5-1.7 0.2-1.5-0.3-1.6-0.6-1.4-1-1.2-1.6-11.3-18-11.3-17.6-11.6-17.1-11.9-16.5-12-16.2-12.2-15.7-12.5-15.2-12.6-14.7-2.1-3-0.6-1.7-0.4-1.6-0.1-1.6 0.2-1.8 1.2-3.4 3.9-8.8 3.7-8.8 3.5-8.8 3.2-9.1 2.8-8.9 2.6-9 2.5-9.1 2-9.2 2.6-13.5 2-13.8 1.4-13.8 0.9-13.9 0.3-14-0.3-14.1-0.9-14.3-1.4-14.4-1.3-8.5-1.6-8.1-2.1-7.9-2.5-7.7-2.2-5.7-2.5-5.8-2.8-5.6-3-5.5-3.3-5.4-3.7-5.7-8.3-11.2-9.4-11.1-11.2-12-13.4-13.2-19.7-18.8-1.3-1.1 36-40.1 36.6-39.6 37.3-39.5 38-38.9 7.9-7.7 8.1-7.3 8.3-7 8.4-6.7 8.7-6.3 8.9-5.9 9.1-5.6 9.3-5.1 10.1-5.1z"/>
		<path id="Layer" class="s18" d="m844.5 1770l94.7 38.2 3.1 5.1 3.8 4.9 4.6 4.6 5.5 4.2 5.9 4.3 4.9 4.2 4.1 4 3.2 3.8 11.2 16.2 4.9 7.5 4.5 7.4 3.9 7.2 3.6 7 3.2 6.9 2.8 6.9 2.5 6.7 2.1 6.5 1.6 6.7 1.4 6.5 0.9 6.5 0.7 6.3 0.2 6.5-0.2 6.4-0.6 6.8-0.8 6.7-1.5 6.7-1.7 6.9-2.2 6.6-2.7 6.8-3 6.7-3.5 6.8-3.6 6.2-3.7 6-6 8.8-6.3 8.4-7 8.1-7.3 7.8-7.9 7.4-8.3 7.1-8.8 6.8-9.2 6.2-9.7 6-10.2 5.7-10.5 5.3-10.9 4.9-11.2 4.5-11.9 4.1-12 3.7-12.4 3.3-12.9 2.9-13.2 2.6-13.4 2-13.8 1.6-13.8 1.1-14.1 0.6-14.2 0.3-14-0.4-14.3-0.6-14-1.3-14.1-1.7-13.7-2-13.5-2.5-13.3-3.1-12.9-3.3-12.4-3.9-6.9-2.4-6.8-2.7-13.9-6.2-13.9-7.3-13.8-8.3-13.3-9.1-12.5-9.9-11.7-10.3-10.9-10.8-9.5-11-4.4-5.6-4.2-5.8-3.8-5.6-3.4-5.7-3.4-5.8-2.9-5.8-2.5-5.8-2.5-5.7-2-5.9-1.7-5.7-1.4-5.7-1-5.9-0.8-5.6-0.5-5.8-0.1-7.9 0.4-7.1 0.8-7.2 1.2-7.1 1.8-7.1 2.2-7.2 2.5-7.1 3.1-7 3.6-7.2 3.9-7.1 4.5-7 4.8-7.2 5.4-7 5.9-7 6.2-7.2 6.6-7 7.2-7 5.5-2.4 8-2.7 10.8-3.1 13.6-3.1 4.4-1.3 3.9-1.8 3.3-2.2 2.8-2.8 1.8-2.1 1.4-2.6 1.1-2.8 0.9-2.9 0.5-3.3 0.3-3.5v-3.8l-0.3-4 14.4-4.1 14.6-3.8 14.4-3.3 14.5-2.9 14.7-2.6 14.5-2.2 14.7-1.7 14.7-1.4 16.2-1.1 16.2-0.5 16.3-0.1 16.2 0.4 16.4 0.9 16.4 1.3 16.4 1.9z"/>
		<path id="Layer" class="s18" d="m3004.6 1788.7l0.4 7 0.6 3.2 0.8 2.9 1 2.7 1.3 2.7 1.4 2.3 1.8 2.2 3.3 3 3.9 2.6 4.8 2 5.2 1.4 10.3 2.3 8.6 2.2 6.6 2.2 4.7 2 6.7 5.9 6.2 5.8 5.9 5.9 5.5 6 5.2 6 4.7 6.1 4.5 6.1 4 6.2 3.6 6.2 3.3 6.3 3 6.3 2.5 6.4 2.2 6.4 1.9 6.5 1.4 6.5 1.2 6.6 0.8 10.6v10.7l-0.8 10.9-1.8 10.8-2.8 11.1-3.7 11.2-4.6 11.4-5.6 11.5-3.1 5.1-4 5.5-4.8 5.8-5.9 6.3-6.9 6.7-7.6 7.2-8.7 7.5-9.7 7.9-7.9 6.3-8 5.7-7.9 5.4-7.9 4.8-7.9 4.3-8 4-7.7 3.6-7.9 3-18.3 6.1-18.2 5.4-18.3 4.3-18.2 3.5-18.1 2.7-18.1 1.6-18.1 0.9-18.1-0.1-16.2-0.8-16.4-1.5-16.2-2.3-16.2-3.1-16.2-3.7-16-4.3-16.2-5.2-16.1-5.9-12.2-5.1-12-5.7-11.5-6.3-11.1-6.8-10.3-7.2-10-7.8-9.2-8-8.6-8.7-8-8.9-7-9.1-6.5-9.6-5.6-9.8-4.8-10.1-4-10-3.3-10.6-2.4-10.5-1.6-10.3-0.9-10.6v-10.6l0.7-10.7 1-7.3 1.5-7.4 2.1-7.2 2.5-7.4 3.2-7.3 3.7-7.4 4.1-7.5 4.8-7.4 5.3-7.4 5.7-7.5 6.4-7.4 6.7-7.6 7.4-7.5 8-7.5 8.5-7.7 8.9-7.5 91.5-38.3 3.4 1.1 3.8 0.7 4 0.3h4.2l4.3-0.4 4.8-0.6 4.8-1.2 5.1-1.4 9.8-2.7 8.7-1.9 7.8-1.3 6.6-0.3 23.4 0.2 19.7 1 19.7 1.6 19.6 2.3 19.7 3 19.6 3.6 19.6 4.3 19.7 5z"/>
	</g>
	<g id="Layer">
		<path id="Layer" class="s20" d="m2487.8 350.8l3.3 8.2 2.9 8.2 2.6 8.2 2.3 8 1.9 8 1.5 7.9 1.2 8 0.7 7.7 0.5 7.8v7.5l-0.2 7.7-0.6 7.5-1.1 7.4-1.2 7.3-1.8 7.1-2.1 7-2.9 8.5-3.4 8.3-4.1 8-4.6 7.9-5 7.8-5.6 7.4-6 7.2-6.5 6.9-7 6.9-7.5 6.5-8 6.3-8.4 6-8.8 5.7-9.3 5.5-9.7 5.2-10.1 4.9-2.5 1.6-1.4 1.8-1 2.1-0.5 2.1v2.3l0.5 2.2 1 2 1.5 1.7 1.8 1.4 9.1 5.3 8.8 5.5 8.4 5.6 8 5.9 7.7 6 7.2 6.3 7.1 6.3 6.6 6.5 6.2 6.7 5.9 7 5.5 7 5.2 7.1 4.7 7.4 4.5 7.6 4 7.6 3.7 7.9 3 7.4 2.8 7.5 2.4 7.7 2.2 7.8 1.9 7.9 1.6 8 1.1 8.3 0.9 8.3 0.3 5 0.1 5-0.8 8.6-1.5 8.8-2.4 8.8-3.5 9-4.2 9-5.3 9.2-6.3 9.6-7.6 10.4-5.9 7.2-6 6.6-6.3 6.1-6.5 5.6-6.7 5-6.9 4.6-7.2 4.1-7.4 3.4-8.1 3.2-8.4 2.6-8.7 2-8.9 1.4-9.1 0.8-9.4 0.2-9.7-0.4-10-1-9.5-1.4-9.3-1.6-9-2-8.5-2.1-8.2-2.6-7.8-2.9-7.2-3.1-6.9-3.3-6.5-3.7-6-3.8-5.6-4.2-5.1-4.5-4.8-4.7-4-4.8-3.9-5.3-3.3-5.5-0.1-0.2-4-6.8-4-6.4-4.5-6.3-4.7-6-5.6-6.7-6-6.2-6.3-6-6.6-5.7-1.9-1.3-2.6-1-2.5-0.5-2.7 0.1-2.7 0.7-2.3 1.3-2 1.8-1.6 2.2-1.1 2.4-7.4 24.2-7 24.6-2.4 7.8-2.6 7.7-2.9 7.4-3.2 7.1-3.5 6.9-3.7 6.8-3.9 6.5-4.2 6.1-4.5 6-4.7 5.6-5.1 5.5-5.1 5.1-5.5 4.8-5.6 4.5-5.9 4.3-6 4-5.4 3.1-5.5 2.9-5.6 2.7-5.8 2.4-5.8 2.2-6 1.9-6 1.6-6.2 1.4-6.2 1.2-6.4 1-6.4 0.6-6.3 0.4-6.4 0.1-6.5-0.1-6.5-0.4-6.5-0.7-13-2.1-13.1-3-12.7-4.1-12.6-5.1-12.3-6-12-6.9-11.7-7.9-11.1-8.7-5-4.3-4.7-4.6-4.5-4.6-4.2-4.8-3.8-4.9-3.6-5.1-3.2-5-2.9-5.2-2.5-5.2-2.3-5.4-1.9-5.3-1.6-5.4-1.1-5.4-0.9-5.4-0.5-5.4-0.2-5.5 0.4-7.1 0.9-7.3 1.7-7.1 2.1-7.2 7.3-21.8 6.8-22.9 0.6-3.2 0.1-3-0.3-2.6-0.9-2.5-1.4-2.1-1.8-1.8-2.4-1.7-3-1.3-14.8-6-14.8-6.7-14.6-7.5-14.6-8.2-2.4-1.7-1.9-2-1.7-2.6-1.2-2.9-0.8-1.9-0.8-1.4-1-1.1-1.1-0.7-1.5-0.2-1.4 0.1-1.6 0.6-1.8 1-1.9 1.7-1.4 2.4-0.7 3-0.3 1.6-0.9 1.7-1.2 1.3-1.5 1-58.7 29.1-3.5 2-3 2.4-2.3 2.6-1.5 2.9-0.8 3.2-0.2 3.4 0.5 3.7 1.3 4 6 16.6 4.3 13.4 3.2 11.8 2.1 10.9 1.2 10.3 0.2 9.7-0.7 9.3-0.8 4.5-1 4.4-1.8 6.3-2.4 6.1-2.8 6-3.5 6-3.9 5.9-4.6 5.8-5 5.9-5.7 5.9-7 6.6-7.2 6.1-7.2 5.8-7.6 5.2-7.6 4.8-7.9 4.5-8.1 3.9-8.1 3.6-8.7 3.2-8.9 2.8-9.1 2.3-9.2 1.8-9.4 1.4-9.6 0.9-9.8 0.4h-9.9l-9.9-0.5-9.4-1.1-9.2-1.5-8.8-2-8.7-2.7-8.1-3.1-8.1-3.7-7.6-4.1-7.2-4.5-6.7-5-6.7-5.5-6.1-5.9-6.1-6.5-5.6-6.9-5.4-7.4-5.1-7.9-4.7-8.3-4.4-8.9-4.3-9.3-3.8-9.7-3.6-10.2-3.3-10.7-2.9-11.1-2.6-11.5-0.8-3.2-1.5-3-5.4-9.2-2.5-3.6-2.3-2.8-2.1-2.2-2.1-1.4-1.8-0.6h-1.6l-1.5 0.8-7.6 6.5-7.1 6.6-6.6 6.8-6.3 7-5.7 7-5.3 7.3-4.8 7.4-4.3 7.5-2.7 4.4-3.1 4.3-3.4 4.2-3.9 3.9-4.2 3.8-4.6 3.7-4.9 3.6-5.4 3.2-5.7 3.2-5.9 2.9-6.4 2.7-6.5 2.4-6.9 2.2-7 2-7.2 1.7-7.3 1.5-7.7 1.2-7.7 0.9-7.7 0.6-7.7 0.3h-7.6l-7.5-0.3-7.6-0.6-7.2-0.9-6.9-1.2-6.8-1.4-6.4-1.8-6.1-2-5.7-2.2-5.4-2.5-4.9-2.8-4.6-3-6.4-4.7-6-4.7-5.9-5-5.3-4.9-5.3-5.3-4.7-5.2-4.6-5.4-4.2-5.4-3.8-5.7-3.6-5.6-3.2-5.7-2.8-5.9-2.5-6-2.3-5.8-1.8-6.2-1.7-6.2-1.1-6.3-0.9-6.2-0.6-6.4-0.2-6.5 0.2-6.5 0.3-6.6 0.9-6.7 1.2-6.6 1.4-6.8 1.8-6.6 2.1-6.8 2.5-6.6 2.8-6.7 3-6.8 3.5-6.8 3.8-6.6 4.1-6.6 4.3-6.7 4.7-6.6 5-6.5 5.2-6.2 5.5-6.3 5.9-6.1 6-6 6.2-5.9 6.5-5.7 6.7-5.5 6.7-5.4 7-4.9 7.2-4.9 7.1-4.7 7.4-4.3 1.8-1.3 1.4-1.7 1-2 0.5-2.1v-2.1l-0.5-2.2-1-1.9-1.4-1.7-2.4-1.6-10.1-5-9.8-5.4-9.3-5.4-8.9-5.9-8.3-5.9-8.1-6.2-7.4-6.5-7-6.7-6.5-6.8-6-7.1-5.5-7.2-5.1-7.6-4.4-7.6-4.1-7.8-3.5-8-3-8.2-3.1-10.7-2.3-11.2-1.4-11.4-0.6-11.7 0.2-11.7 1.3-12.3 1.9-12.4 3-12.6 8.9 41.1 0.4 1 0.6 0.9 0.9 0.6 1.3 0.4 3.8 0.7 1.9 0.8 0.3 0.2 13 10.3 13 9.7 13 9.2 13.1 8.5 13.3 7.9 13.1 7.3 13.3 6.6 13.4 6.2 11.3 5.1 11.3 5.6 10.8 5.8 10.6 6.3 7.1 3.9 7.2 3.1 7.3 2.2 7.4 1.4 6.5 0.5 10.3-0.1 10.3-0.9 10.4-1.8 10.4-2.7-0.1 6.8 0.1 6.7 0.4 6.9 0.6 6.8 1.1 7.1 1.2 7 1.6 7 1.9 7.1 2 6.8 2.4 6.9 2.7 6.7 2.9 6.5 3.4 6.5 3.4 6.4 3.7 6.2 4 6 4.2 5.9 4.4 5.7 4.8 5.5 4.8 5.3 5.1 5.1 5.2 4.9 5.5 4.6 5.8 4.4 5.7 4.3 5.9 3.8 6.1 3.7 6.2 3.4 6.4 3.1 6.5 2.8 6.5 2.5 6.7 2.3 6.6 2 6.9 1.6 6.7 1.4 6.9 1 8.3 0.9 8.4 0.5h8.4l8.5-0.3 13-1.4 12.5-2 12-2.8 11.6-3.4 11.1-4.1 10.4-4.8 10.1-5.5 9.7-6.3 5.4-3.9 5.3-4.2 5.1-4.5 5-4.7 4.7-5 4.6-5.2 4.5-5.5 4.2-5.7 4.1-5.9 3.9-6.3 3.7-6.3 3.6-6.8 3.4-6.9 3.2-7.1 6-15.1v2.6l0.3 2.1 0.7 2 1 1.7 1.4 1.4 2 1.2 2.1 0.9 2.7 0.5 3.1 0.2 3.4-0.1 8-1 7.1-1.8 8.6-2.9 10.6-4.1 12.4-5.4 5-2 4.9-1.8 5-1.5 4.9-1.2 4.9-0.7 4.9-0.7 4.7-0.2 4.8 0.1 19.8 1.3 19.7 1.9 19.6 2.7 19.4 3.3 12.2 2.4 12.2 2.7 12.1 3.1 12.1 3.3 3.7 8.1 3.8 7.8 4.2 7.5 4.4 7.3 4.7 7 4.8 6.8 5.3 6.5 5.3 6.2 5.6 5.9 5.9 5.6 6 5.2 6.2 5 6.7 4.7 6.6 4.4 6.9 4.1 7 3.7 6.9 3.1 7 2.8 7.1 2.6 7.2 2.3 7.4 1.9 7.4 1.5 7.5 1.3 7.5 1 7.7 0.5 7.6 0.3h7.7l7.6-0.4 7.8-0.7 7.6-1.1 7.6-1.4 7.5-1.8 7.4-2 7.3-2.4 7.3-2.7 7.1-2.9 6.9-3.3 6.8-3.6 6.6-3.8 6.4-4.3 6.1-4.3 6-4.7 5.7-4.9 5.5-5.2 5.2-5.3 5-5.7 4.7-5.8 4.5-6.1 4.5-6.7 4-6.9 3.9-7 3.4-7.2 3.1-7.4 2.6-7.7 2.5-7.7 2-8 1.7-8 1.4-8.2 0.9-8.4 0.6-8.6 0.3-8.5v-8.7l-0.5-8.8-0.8-8.9 2.8 1.7 2.7 0.9 2.8 0.5h3l3.2-0.4 3.2-0.1 2.8 0.6 2.4 1.6 2.2 2.5 2.7 3.4 2.9 2.9 3.2 2.2 3.3 1.5 3.6 0.9 3.7 0.3 4-0.4 4-1 15-4.7 17.9-6.7 17.9-7.2 17.5-8.1 17.3-8.6 17-9.6 16.8-10.3 16.5-11 16.3-11.7 2.5-2.1 4.6-4.2 4.5-5 4.5-5.6 5.7-8.3 1.8-3 1.4-3.1 1-3.4 0.7-3.6 3-26.5z"/>
	</g>
	<g id="Layer">
		<path id="Layer" class="s2" d="m288.4 157.9l-1-0.5-0.7-0.8-0.5-1v-1l0.8-4.1 1-3.9 1.3-4 1.5-3.8 2.4-4.6 3-4.4 3.3-4.2 3.8-3.9 4.3-3.8 4.8-3.5 5.2-3.3 5.6-3.1 6.2-2.9 6.5-2.7 7.1-2.3 7.5-2.1 7.9-2.1 8.4-1.6 8.8-1.6 9.3-1.2 9.8-1.1 10.5-0.7 10.8-0.5 11.3-0.4 23.6 0.2 24.8 1.2 26.8 2.1 27.1 3.2 26.7 4.2 12.3 2.2 10.8 2.3 6.5 1.3 6.9 0.7 7.6 0.6 10 0.2 11.6 0.3 8.8 0.6 4.8 0.9 1.1 0.5 0.5 0.6-0.4 0.8-1 0.8-4.3 1.8-9.3 3.7-9.1 4.6-9.1 5.7-8.9 6.6-8.7 7.5-8.4 8.6-8.3 9.4-8 10.4-7.9 11.4-7.7 12.3-7.1 13-6.9 13.6-6.4 14.3-5.7 14.6-5.2 14.8-4.4 14.5-0.6 1.5-0.8 0.9-1 0.9-1.3 0.5-1.1 0.3-1.4-0.1-1.2-0.3-1.1-0.6-1-0.9-0.5-0.7-14.5-15.8-5.6-5.7-5.3-5.2-5.4-4.9-5.5-4.3-5.5-4-5.4-3.7-15.1-9.2-15.2-8.8-15.3-8.4-15.4-8-15.6-7.8-15.7-7.4-15.9-7-16.1-6.6-20.1-7.8z"/>
		<path id="Layer" class="s2" d="m3028.7 104.2l23.1-4.8 24-4 23.7-3.2 23.3-2.3 22.4-1.3 21.4-0.3 20.1 0.6 9.9 0.8 9.4 0.9 9.1 1.1 8.6 1.3 8.4 1.6 8.1 1.8 7.6 2.1 7.6 2.3 7 2.4 6.9 2.8 6.3 2.8 6.3 3.2 5.7 3.4 5.5 3.6 5.1 3.8 4.9 4.1 4.3 4.2 4.2 4.5 1.8 2.5 1.4 3.3 0.8 3.6-0.2 3.6-0.9 3.6-1.6 3.2-2.3 2.8-2.8 2.3-3.3 1.5-18.9 6.7-17.5 6.5-16.4 6.6-15.6 6.6-14.7 6.6-14.1 6.8-13.3 6.9-12.7 7.1-12 7.2-11.5 7.3-10.7 7.6-10.1 7.8-9.4 7.9-8.8 8.1-8.2 8.2-7.5 8.4-1.6 1.4-1.5 0.6-1.5 0.4h-1.8l-1.5-0.4-1.6-0.7-1.2-1-1.1-1.4-0.6-1.6-4.3-14.1-4.8-13.5-4.9-13.1-5.4-12.5-5.7-11.9-5.9-11.4-6.4-10.8-6.6-10.5-6.9-9.7-7.3-9.3-7.6-8.8-7.9-8.2-8.2-7.6-8.5-7.2-9-6.6-9.1-6-2.5-1.6-1.6-1.3-0.9-1.2-0.1-0.9 0.6-0.7 1.4-0.4 2.2-0.3h2.9l11.3 0.3 11.1-0.7 11-1.2 10.9-2.2z"/>
		<path id="Layer" class="s16" d="m877 950.9l0.5 3.9v3.6l-0.8 3.3-1.2 2.9-1.4 2.1-1.8 1.8-1.4 1-1.3 0.7-1.1 0.3h-1.2l-1.1-0.4-1.1-0.9-0.9-1.1-0.8-1.6-1.2-2.8-0.9-3-0.8-3.5-0.3-3.7 4.9-0.1 6-0.8z"/>
		<path id="Layer" class="s2" d="m997.8 2488.6l15.7 4.7 15.9 4.2 16.1 3.8 16.3 3.3 16.6 3.1 16.7 2.5 17 2.2 17.1 1.7 9.8 1.1 14.5 2.2 42.6 7.1 12.9 1.9 12.9 1.1 12.7 0.3 12.8-0.5 8.8-0.7 8.8-1.2 1.7 17.9-4.6 10.2-4.9 9.9-5 9.9-5.2 9.4-5.3 9.4-5.7 9.1-5.7 8.9-6 8.7-6.2 8.4-6.4 8.3-6.5 7.9-6.8 7.9-6.9 7.5-7.1 7.4-7.4 7.2-7.5 6.9-8.2 7.1-8.3 6.8-8.5 6.6-8.8 6.4-9.1 6.1-9.2 5.9-9.4 5.6-9.7 5.3-9.8 5.1-10.1 5-10.2 4.6-10.6 4.5-10.7 4.2-11 3.9-11.1 3.7-11.3 3.5-17.4 4.6-16.9 3.4-16.9 2.6-16.4 1.4-8.2 0.3h-8l-7.9-0.1-7.9-0.5-7.9-0.6-7.8-1.1-7.7-1.1-7.6-1.5 11.7-36.3 12.6-35.9 13.3-35.7 13.9-35.5 14.8-35.3 15.4-35.2 16.2-34.8z"/>
		<path id="Layer" class="s2" d="m2606.7 2495.4l16.9 34.1 16.2 34.3 15.5 34.6 14.5 34.8 13.8 35.1 12.9 35.3 12.1 35.5 11.3 35.8-20.9 1.4-20.7 0.3-10-0.2-10.1-0.5-10.1-0.6-9.8-1-9.8-1.3-9.7-1.4-9.7-1.8-9.6-1.9-9.4-2.3-9.5-2.4-9.3-2.8-9.2-3-13.6-5.1-13.5-5.5-13.3-6.1-13-6.7-12.9-7.3-12.7-7.8-12.5-8.4-12.3-9.1-10.8-8.5-10.5-8.8-9.9-9.2-9.7-9.3-9.3-9.7-8.8-9.9-8.6-10.4-8-10.4-6.9-9.6-6.5-9.7-6.3-9.9-5.8-10.2-5.6-10.5-5.4-10.6-5-10.8-4.7-11.1 0.9-2.8 0.8-3 0.4-3 0.2-3.3-0.4-7.1-1.4-7.7 3.1 5.2 2.9 3.7 1.5 1.3 1.5 0.9 1.5 0.5 1.4 0.1h0.6l64.3-7.5 64.3-7.9 64.3-8.2z"/>
	</g>
	<g id="Layer">
		<path id="Layer" class="s21" d="m3134.1 852.4l-7.4-1.5-3.5-0.4-3.3-0.1-3.2 0.2-2.9 0.5-3 0.8-2.6 1.1-10.6 4.8-9.8 3.9-9.3 2.9-8.7 2.2-3.1 0.8-3 1.2-2.7 1.7-2.6 1.9-9.3 8.4-9.3 8.8-9.2 9.2-9 9.6-8.8 8.9-9.5 8.8-10.2 8.3-10.9 8.2-18.8 13-15.7 10.4-12.5 7.7-9.3 5.1-12.9 5.9-13 5.1-13 4.4-13 3.7-13 3.1-13.2 2.3-13 1.6-13.1 0.9-9.6 0.3-9.4-0.1-9.6-0.6-9.5-0.8-3.2-0.7-2.8-1.1-2.8-1.8-2.6-2.3-2.3-2.1-2.4-1.5-2.4-0.7-2.6-0.4-11.5-0.9-11.2-1.3-11.1-1.7-10.8-2.3-10.7-2.6-10.5-3.1-10.2-3.7-10.1-3.9-8.4-3.9-8.3-4.2-8.1-4.4-8.1-4.9-4.1-2.3-4.4-2-4.7-1.7-5.3-1.4-5.5-1.1-6.1-0.8-15.3-1.1h-3.2l-3.2 0.6-3 1-2.8 1.4-13.7 8-12.7 7.3-12.3 6.5-11.8 5.9-11.6 5.3-11.7 5-11.2 4.4-11.3 3.9-13.3 4.3-39.8 13.8-7.9 2.6-7.8 2.1-7.5 1.7-7.5 1.3-7.3 0.7-7.3 0.4-7-0.1-6.9-0.5-12.9-1.3-12.3-0.9-11.8-0.6-11.2-0.3-10.8 0.2-10.5 0.5-10.1 0.7-9.7 1-9.5 1.6-9.3 1.8-9.1 2.3-8.8 2.5-8.7 2.9-8.3 3.2-8 3.7-8 4.1h-0.1l-17.9 9.3-17.7 8.6-17.9 7.7-17.8 7.1-12.4 4.3-12.8 3.7-12.9 3.2-13 2.7-13.2 2-13.6 1.4-13.7 0.9-13.9 0.4-14.3-0.3-14.3-0.7-14.7-1.4-14.8-1.9-15-2.6-15.3-3.1-15.5-3.7-15.6-4.2-14.1-4.4-13.7-5.4-13.7-6.4-13.3-7.1-13.2-7.4-13.9-7.4-14.7-7.3-15.3-7.2-2.8-1.1-2.8-0.5h-3.2l-3.1 0.7-7.9 2.6-7.7 3.1-7.7 3.4-7.4 3.7-8.8 5.3-8.7 5.7-8.3 6.3-8 6.7-2.9 2.3-3.3 1.9-3.5 1.4-3.7 1.1-16.4 3.4-10.8 2.8-10.7 3.1-10.6 3.4-10.4 3.8-7 2.6-7.2 2.3-11.1 2.8-11.3 2-11.5 1.6-11.7 0.6-24.3 0.3-11.3-0.3-11-0.4-10.8-0.8-10.5-1-10.2-1.1-9.9-1.5-9.9-1.7-9.4-2-9.4-2.3-9.2-2.6-9-2.8-8.8-3.1-8.6-3.3-8.6-3.7-21.8-9.4-22.2-8.9-22.7-8.5-23.1-7.9-7.5-2.3-7.5-1.9-7.5-1.5-7.6-1.3-7.4-0.9-7.5-0.5-7.4-0.1-7.4 0.2-4.8 0.3-19.3 1h-19.5l-19.5-0.9-19.8-1.8-19.8-2.8-19.9-3.7-20.1-4.6-20.2-5.6-8.1-2.9-7.7-3.4-7-4.3-6.4-4.8-3.5-2.9-3.9-2.6-3.8-2.3-4.1-2-4.1-1.8-4.2-1.5-4.3-1.2-4.5-1-3.3-0.9-3-1.3-3.2-2-3-2.6-6.7-7.5-6.3-8.2-5.7-8.8-5.2-9.3-1.8-2.8-2.2-2.4-2-1.4-2.3-1.3-5.6-2.3-5.4-1.8-5.4-1.4-5.1-0.9-5.1-0.3h-4.9l-4.9 0.5-4.7 1-5.7 1.9-5.5 2.6-5.4 3.4-5.2 4.1-2.8 2.4-5.4 3.4-5.7 3-6.1 2.3-6.8 1.6-3.1 0.3-0.9-0.3-0.6-0.5-0.2-0.7 0.1-0.9 1.3-2.7 0.1-0.6-0.3-0.6-0.7-1.2-0.2-1.2 0.7-0.9 1.4-0.7 3.8-1.6 3.6-2 5.1-3.7 4.6-4.6 4-5.5 3.6-6.2 8.7-8.2 7-7.1 6.8-7.6 6.3-7.6 6.3-8.1 6-8.1 5.7-8.6 5.5-8.6 5.2-9.1 2.5-3.9 2.3-2.7 2.1-1.6 1.1-0.3h0.8l0.9 0.2 0.9 0.7 1.8 2 1.4 3.2 1.4 4.4 1.4 5.8 2.4 9.7 2.3 6.7 2.7 5.9 3.2 4.9 6 7.4 6 7.1 6.3 6.8 6.2 6.6 6.5 6.2 6.5 6 6.6 5.6 6.8 5.4 6.8 5.1 7 4.8 7 4.5 7.3 4.2 7.2 4 7.4 3.7 7.6 3.3 7.6 3.1 8.6 3 8.5 2.8 8.8 2.3 9.1 2.1 9 1.6 9.2 1.3 9.3 0.9 9.4 0.6 9.6 0.3 9.8-0.2 9.9-0.5 10-0.7 10.1-1.2 10.3-1.5 10.4-1.9 10.6-2.2 10.8-2.8 10.3-3.7 10-4.3 9.4-5.3 9.5-6.2 9-7.3 8.4-7.9 7.9-8.9 1.6-1.5 1.4-1.2 1.2-0.5 1.2-0.1 1.1 0.5 1.1 1 0.9 1.4 0.8 2 4.4 11.1 4.8 10.5 5.4 10.1 5.9 9.5 6.3 9.2 6.9 8.6 7.5 8 7.8 7.4 9.7 8 10.5 7.4 10.8 6.4 11.6 5.9 12 5 12.8 4.2 13.1 3.4 13.4 2.6 14 1.7 14.3 0.9 14.7 0.2 14.9-0.8 15.1-1.5 15.1-2.5 15.3-3.1 15.3-4 10.9-3.3 10.3-3.5 10.1-3.8 9.7-4.1 9.3-4.3 8.9-4.6 8.7-4.8 8.2-5 7.9-5.4 7.4-5.6 7.1-5.9 6.8-6.1 6.3-6.3 6-6.7 5.8-6.9 5.2-7.1 6-9.1 5.4-9.4 1.1-2 1.2-1.5 1-0.7 0.7-0.3 0.9 0.5 0.7 1.1 0.5 1.7 0.5 2.3 1 4.6 1.7 4.4 0.7 1.5 0.9 1.1 0.9 0.8 1 0.5 1.2 0.2h1l1.2-0.3 1-0.6 0.9-0.8 0.6-0.9 1.4-3.1 1-3.9 0.5-4.1 0.7-4 0.5-1.1 0.6-0.4 0.8 0.1 0.9 0.8 2.2 3.2 4.4 7.7 5 7.4 5.2 7.1 5.8 7 6 6.9 6.5 6.5 6.9 6.4 7 6.1 7.6 6 7.8 5.6 8.2 5.4 8.4 5.1 8.9 4.8 8.9 4.5 9.3 4.3 9.6 3.8 9.8 3.6 10 3.3 10.2 3 10.3 2.5 10.3 2.2 10.5 1.9 10.5 1.4 10.4 1 10.5 0.8 10.3 0.2 10.3-0.1 10.1-0.5 10.1-0.9 9.8-1.3 9.6-1.6 9.3-2.1 10.6-2.8 10.3-3.4 9.8-3.7 9.3-4.4 9.1-4.8 8.5-5.2 8.2-5.8 7.8-6.2 8.4-7.7 7.8-8.4 7.3-8.9 6.7-9.7 6.3-10.2 5.7-10.9 5.1-11.6 4.6-12.1 0.9-2.3 1-1.6 1-1.1 1.2-0.3 1.1 0.2 1.2 0.8 1.1 1.5 1.3 2.2 2 3.7 2.5 3.4 2.5 3.6 3 3.3 3.1 3.2 3.5 3.2 3.7 3.1 4.1 2.8 8.6 5.4 9.7 4.9 10.7 4.5 11.8 3.8 12.9 3.4 13.6 2.8 14.4 2.2 14.9 1.4 15.2 0.8h15.1l14.5-0.8 13.4-1.4 6.8-1 6.9-1.4 14.2-3.7 14.8-4.7 14.7-5.8 14.4-6.6 14-7.5 13.2-8.1 12.5-8.7 11.1-8.8 10.2-9.3 9-9.5 4.1-4.9 3.8-4.9 3.6-5.2 3.3-5.1 3-5.1 2.5-5.1 2.4-5.2 2.1-5.2 1.6-5.2 1.4-5.3 1.4-5.1 1.7-3.8 1.9-2.4 1-0.7 1.1-0.2h1l1.1 0.4 2.5 1.7 2.6 3.2 2.8 4.6 6.7 11.6 7 11 7.3 10.3 7.6 9.6 7.9 8.9 8.3 8.3 8.7 7.7 9 7.1 7.3 5.1 7.5 4.7 7.8 4.5 8.2 4.1 8.3 3.8 8.6 3.6 9 3 9.3 3 26 7.2 25.8 6.8 5.2 1.2 5.6 0.7 5.6 0.4 5.9 0.1 6-0.4 6.4-0.6 6.3-1.1 6.7-1.4 20.8-5.4 17.6-5.4 15.5-5.7 7.3-2.9 6.7-3.1 6.7-3.3 6.1-3.4 5.9-3.6 5.6-3.7 5.3-4 5.1-4.2 4.9-4.3 4.6-4.6 5.5-6 5.2-6.5 4.7-6.9 4.6-7.4 4.1-7.5 3.8-8.2 3.6-8.5 3.2-9.1 2.5-8.9 2.6-11.9 1.9-9 1.6-6.7 0.8-2.1 0.9-1.7 1.1-1.3 1.4-0.9 1.5-0.5 1.7-0.1 2 0.3 2 0.6 23.2 8.8 3.3 0.9 3.2 0.4 3.3-0.2 3.3-0.7 70.4-21.4 2.6-0.4 2.3 0.4 1.9 1.2 1.7 2.1z"/>
		<path id="Layer" class="s21" d="m1245.5 2391.4l78 9.4 77.8 9.8 45.4 5.6 41.1 4.8 36.9 3.4 32.6 2.6 37.8 2.3 37.7 1.9 37.8 1.5 37.7 1.1 37.8 0.8 37.8 0.3h37.7l37.6-0.5 31.3-0.8 31.2-0.9 31.3-1.3 31.2-1.5 31.3-1.9 31.2-2.1 31.3-2.4 31.1-2.5 31.2-3 31.3-3.2 31.1-3.4 31.3-3.8 31.2-4 31.1-4.3 31.3-4.6 31.1-4.9-25 27.2-0.1 0.8-1.7 12-1 12-0.5 12.1 0.1 12.2 0.8 12.3 1.3 12.3 1.9 12.5 2.5 12.7 1.4 7.7 0.4 7.1-0.2 3.3-0.4 3-0.8 3-0.9 2.8-34.7 3.9-34.7 3.7-34.8 3.6-34.7 3.2-34.7 2.8-34.7 2.7-34.8 2.4-34.7 2.2-34.7 1.7-34.7 1.7-34.7 1.3-34.7 1-34.8 0.9-34.7 0.5-34.7 0.3h-34.7l-64.2-0.8-64.3-1.7-64.4-2.5-64.3-3.5-64.3-4.3-64.3-5.4-64.3-6.1-64.2-7.1-1.7-17.9 3.3-14.5 2.6-14.4 1.6-14.3 0.8-14 0.1-14-0.9-13.6-1.6-13.5-2.5-13.3-0.7-3.4z"/>
		<path id="Layer" class="s21" d="m1104.4 2871.3l0.8 9.7 1.3 13.4 1.5 13.4 1.9 13.7 2.2 13.7 5.5 29.1 8.2 38.8 6.8 31 4.7 23.6 6.5 32.5 5.9 28.2 5.5 23.7 5 19.4 10.2 35.3 10.7 34.2 11.3 33 11.8 31.9 12.2 30.6 12.8 29.5 13.3 28.3 13.8 27.1 1.2 2.8v1.1l-0.4 0.9-0.6 0.6-0.9 0.6-3.1 0.2-17.7-1.1-18.1-2-18.5-2.6-18.9-3.5-19-4.2-19.3-5-19-5.7-19.2-6.2-19.2-7.1-18.7-7.6-18.5-8.3-18-8.7-17.3-9.2-16.8-9.5-15.9-10-15.1-10.3-4.5-3.5-4.8-3.9-4.7-4.2-4.6-4.6-9.4-10.2-9.5-11.7-9.5-13.3-9.6-14.7-9.7-16-9.7-17.6 9 6.6 8.6 5.7 8.5 4.9 8 3.9 22.1 10.2 13.3 6.9 18.2 10.3 18.3 10.6 13.4 7.2 12.4 5.8 11.3 4.6 11.4 3.7 11.1 2.6 10.8 1.6 5.4 0.4 5.5 0.2 6-0.2 6.1-0.5 3.7-0.5 3.6-0.8 3.5-1.1 3.7-1.3 3.5-1.6 3.5-2 7.1-4.5 2.9-2.6 2.3-2.8 1.5-2.7 1.2-2.8 2.3-7.6 1.9-8.1 1.6-7.9 1.3-8.3 0.9-8.4 0.5-8.7 0.3-8.8-0.2-9.2-0.3-9.1-0.8-9.5-1-10-1.4-10.4-3.9-22.4-5.7-28-4-18.7-3.5-19-6.8-38.5-2.4-13.8-3.7-18.9-4.5-22.4-2.7-16.4-1.7-14.9-0.9-13.5 0.1-13.3 0.9-12.7 0.9-6 1.1-6.1 1.3-5.9 1.7-6 2-6.3 2.3-6.2 2.7-6.3z"/>
		<path id="Layer" class="s21" d="m2499.8 2878.9l3.2 6.7 2.8 6.8 2.4 6.7 1.9 6.8 1.5 6.8 1.3 6.7 0.8 6.8 0.4 6.9-0.2 7.2-0.5 7.4-2.3 18.8-3.9 27.1-5.6 35.5-7.3 43.8-1.8 7.2-3.3 8.9-2.3 5.9-1.4 4.4-0.8 4.2-0.5 3.9 0.1 4.1 0.2 3.4-0.3 3.4-0.6 4.4-1 4.4-3.2 11.2-2.8 11.3-2.3 11.3-1.9 11.3-1.5 11.2-1 11.3-0.5 11.2-0.1 11.2 0.6 15.3 1.4 15.2 2.3 15.3 3.1 15.2 1 2.8 1.5 2.5 1.8 1.8 2.3 1.5 5.8 3 5.8 2.5 5.9 2.2 5.9 1.9 5.8 1.5 5.9 1.2 5.9 0.8 6 0.5 8.9 0.1 9-0.6 9.1-1.6 9.1-2.3 9-2.9 9.2-3.8 9.2-4.6 9.3-5.4 30-19 29.2-19.1 2.9-2.1 3.8-3.1 3.7-3.5 3.3-3.8 3.2-4.1 2.8-4.5 2.7-4.7 2.4-5.1 2.2-5.3 1.7-3.1 1-1.1 1.3-0.8 1.2-0.7 1.4-0.3h3.5l3.4 0.2 3.2-0.2 2.8-0.8 2.4-1.3 2.2-1.8 1.8-2.3 1.4-2.9 1.2-3.3 1.9-5.7 2.5-5 3.1-4.2 3.7-3.5 3.8-2.3 4.3-1.8-6.8 17.5-7.3 17-7.8 16.2-8.2 15.7-8.8 14.9-9 14.4-9.6 13.8-10.1 13.1-5.6 6.7-6.1 6.5-6.5 6.2-7 6.1-7.4 5.9-7.9 5.6-8.3 5.4-8.8 5.2-14.6 8-14.4 7.7-14 7.1-13.8 6.7-13.7 6.2-13.4 5.9-13.6 5.5-13.4 5.1-13.2 4.6-13.2 4.3-13.1 3.8-13.3 3.6-13.1 3.2-13.1 2.8-13.2 2.4-13.4 2-22.3 2.9-22.4 1.6h-2.2l-1.7-0.4-1.1-0.5-0.9-0.9-0.4-1 0.1-1.3 0.4-1.6 0.9-1.8 7.7-14.6 7.4-14.8 7.2-15.1 7.2-15.5 6.7-15.9 6.8-16.2 6.6-16.8 6.4-17.4 6.3-17.5 6.1-18.1 12.5-39 12.9-43.6 16.4-58.4 1.7-6.7 1.5-7.5 3.1-21.2 3-21.5 1.6-8.1 1.6-7.2 4.7-19 4.5-19.3 4.3-19.3 4-19.3 3.8-19.7 3.6-19.8z"/>
	</g>
	<g id="Layer">
		<path id="Layer" class="s19" d="m2487.8 350.8l-2.2 28.3-3 26.5-0.7 3.6-1 3.4-1.4 3.1-1.8 3-5.7 8.3-4.5 5.6-4.5 5-4.6 4.2-2.5 2.1-16.3 11.7-16.5 11-16.8 10.3-17 9.6-17.3 8.6-17.5 8.1-17.9 7.2-17.9 6.7-15 4.7-4 1-4 0.4-3.7-0.3-3.6-0.9-3.3-1.5-3.2-2.2-2.9-2.9-2.7-3.4-2.2-2.5-2.4-1.6-2.8-0.6-3.2 0.1-3.2 0.4h-3l-2.8-0.5-2.7-0.9-2.8-1.7-3.5-9.7-3.7-9.4-3.9-9.1-4.1-8.5-4.3-8.3-4.6-7.9-4.7-7.6-5-7.1-5.2-6.8-5.4-6.3-5.7-6.2-5.8-5.6-6.1-5.3-6.3-4.9-6.5-4.6-6.7-4-6.3-3.5-6.5-3.2-6.6-2.8-6.8-2.5-7-2.3-7.1-1.9-7.4-1.7-7.5-1.3-11.8-1.5-11.5-0.8-11.3-0.2-11.1 0.5-11 1.1-10.7 1.7-10.4 2.4-10.3 2.9-8.4 3.1-8.1 3.4-8.2 3.9-7.9 4.3-7.8 4.7-7.6 5.3-7.4 5.6-7.4 6.1-9.3 8.7-4.4 4.6-4.1 4.7-3.8 4.7-3.6 5-3.4 5.1-3.2 5.2-3.7 6.8-3.3 7.1-3.1 7.3-2.5 7.5-2.3 7.8-1.9 7.9-1.4 8.3-1.2 8.3-0.7 8.6-0.4 8.8v9.1l0.4 9.3 0.7 9.4 1.2 9.7 1.4 10 1.9 10.1-12.1-3.3-12.1-3.1-12.2-2.7-12.2-2.4-19.4-3.3-19.6-2.7-19.7-1.9-19.8-1.3-4.8-0.1-4.7 0.2-4.9 0.7-4.9 0.7-4.9 1.2-5 1.5-4.9 1.8-5 2-12.4 5.4-10.6 4.1-8.6 2.9-7.1 1.8-8 1-3.4 0.1-3.1-0.2-2.7-0.5-2.1-0.9-2-1.2-1.4-1.4-1-1.7-0.7-2-0.3-2.1v-2.6l2.2-9.2 1.8-9 1.1-9.1 0.6-8.8 0.3-8.9-0.3-8.7-0.7-8.7-1.3-8.5-1.7-7.8-2.1-7.8-2.4-7.7-3-7.7-3.4-7.5-3.7-7.5-4.2-7.4-4.8-7.3-7-9.8-7.6-9.5-8.1-8.5-8.6-8.2-9-7.4-9.5-6.7-9.8-6.2-10.2-5.2-6.6-2.9-6.6-2.7-6.7-2.4-6.8-2.2-6.9-1.8-7-1.5-7.2-1.3-7.1-0.9-7.1-0.6-7.3-0.4h-7.1l-7.3 0.3-7.3 0.5-7.1 0.9-7.3 1-7.1 1.5-7.1 1.7-7 2-6.9 2.3-6.7 2.6-6.7 2.8-6.6 3.2-6.4 3.3-6.2 3.7-6.1 3.8-5.9 4.1-5.7 4.3-5.5 4.6-5.3 4.9-5.2 4.9-4.8 5.3-4.6 5.3-7.4 9.6-6.5 9.9-5.9 10.6-5.2 10.9-4.5 11.3-3.7 11.6-2.9 12.1-2.2 12.4-10.4 2.7-10.4 1.8-10.3 0.9-10.3 0.1-6.5-0.5-7.4-1.4-7.3-2.2-7.2-3.1-7.1-3.9-10.6-6.3-10.8-5.8-11.3-5.6-11.3-5.1-13.4-6.2-13.3-6.6-13.1-7.3-13.3-7.9-13.1-8.5-13-9.2-13-9.7-13-10.3-0.3-0.2-1.9-0.8-3.8-0.7-1.3-0.4-0.9-0.6-0.6-0.9-0.4-1-8.9-41.1 2.1-7.8 2.6-7.5 2.8-7.5 3-7.3 3.5-7.1 3.6-6.9 3.9-6.9 4.2-6.6 4.4-6.2 4.6-6.1 4.8-5.9 5.1-5.6 5.2-5.4 5.5-5.3 5.8-5.1 5.9-4.8 6.3-4.7 6.2-4.5 6.7-4.2 6.9-4 7-3.8 7-3.4 7.3-3.2 7.4-3.1 7.6-2.7 7.8-2.5 7.8-2.2 7.9-2 8-1.7 8.2-1.4 8.1-1.1 8.2-0.9 8.3-0.5 8.2-0.3h8.4l8.3 0.3 8.3 0.5 8.3 0.7 8.1 1.2 8.3 1.4 7.4 1.6 7.3 2.2 5 1.8 4.7 2 9.4 4.8 9.3 5.8 9.2 6.9 8.9 7.8 9.3 9.3 9.9 10.8 13.2 15.3 1.4 1.5 1.7 1 1.8 0.6 1.9 0.1 2-0.1 1.8-0.6 1.7-0.9 1.5-1.3 0.8-1.1 4-7.2 3.7-7.8 3.6-8.9 4.1-12.2 3.7-10.8 2.9-7.7 3-6.8 3.3-6 6-9.7 6.5-8.9 6.6-8.6 7.2-7.7 7.5-7.3 7.8-6.6 8.1-6.2 8.6-5.4 6.2-3.6 6.7-3.2 6.6-2.9 6.9-2.7 7-2.3 7.3-2.1 7.4-1.6 7.6-1.4 7.8-1.2 8-0.7 8.2-0.5 8.3-0.2 8.5 0.2 8.7 0.3 8.9 0.8 9.1 1 6.4 1.1 6.2 1.5 6 1.9 5.7 2.4 5.3 2.6 4.8 2.9 4.9 3.2 4.6 3.7 8.5 7.6 8 7.8 7.6 8.2 6.9 8.4 6.3 8.7 5.9 8.8 5.2 9.2 4.9 9.4 4.7 11.1 4.1 11.5 3.3 11.8 2.7 12.2 1.9 12.5 1.1 12.8 0.5 13.2-0.2 13.5-0.8 5.6-1.8 5.4-2.6 4.8-3.5 4.5-58.4 60.7-0.6 0.8-0.7 1.2-0.5 1.4v1.4l0.1 1.6 0.5 1.2 0.8 1.3 1 1 1.3 0.8 11.1 5.9 10.5 6.2 9.9 6.6 9.5 7.1 8.9 7.4 8.3 7.7 7.7 8.2 7.2 8.5 1.1 1.3 1.1 0.9 1.1 0.5 1.2 0.3 1-0.3 1.1-0.5 1.2-1 1.1-1.3 6.7-8.3 7.1-7.7 7.8-7.6 8.4-7.1 9-6.6 9.6-6.4 10.2-6 10.9-5.6 1.2-0.8 1.6-1.3 1.2-1.6 0.8-1.9 0.5-2.1-0.1-2-0.4-2.1-0.9-1.8-1.3-1.6-56.5-59.2-2.9-3.7-2.3-4.3-1.8-5-1.1-5.6-0.7-6.3-0.1-7 0.5-7.8 0.9-10.5 0.9-8.8 0.6-6.2 0.9-6.1 1.1-6.2 1.4-6.2 3.5-12.2 4.7-12.4 5.7-12.4 6.7-12.3 7.8-12.5 8.8-12.4 4.7-6 4.9-5.5 5.1-5.2 5.2-4.9 5.5-4.4 5.6-4.1 5.9-3.7 6-3.3 8.6-4.1 9.1-3.3 9.4-2.6 9.8-1.9 10.2-1.1 10.5-0.5 11 0.2 11.2 1 15.8 2.3 7.5 1.6 7.3 1.8 7.2 1.9 7 2.1 6.6 2.5 6.5 2.5 6.3 2.8 6.1 3.1 5.8 3.3 5.7 3.6 5.4 3.7 5.1 3.9 5.1 4.1 4.8 4.5 5.7 5.8 5.4 6.2 4.9 6.5 4.8 6.8 4.3 7.3 4.1 7.7 3.7 7.9 3.3 8.3 9 23.4 9.9 23.5 1.1 2 1.7 1.8 1.9 1.3 2.3 0.9 2.3 0.4 2.4-0.3 2.2-0.6 2-1.3 1.8-1.6 11-12.9 9.5-10.5 8.8-8.9 8.6-7.7 8.5-6.7 8.7-6 8.8-5 9.1-4.2 5.2-2 5.5-1.8 5.4-1.6 5.7-1.4 11.7-1.9 12.2-1 10.2-0.4h10l9.8 0.4 9.6 0.5 9.4 1 9.2 1.2 8.9 1.5 8.8 1.9 8.7 2.2 8.4 2.4 8.2 2.8 8 3.1 7.8 3.4 7.7 3.7 7.4 4.1 7.2 4.3 11.2 7.7 10.9 8.5 10.2 9.4 9.7 10 9.3 11 8.7 11.7 8.1 12.7z"/>
	</g>
	<g id="Layer">
		<path id="Layer" class="s22" d="m3339.8 216.1l-10.2 4.7-10.1 5.1-9.3 5.1-9.1 5.6-8.9 5.9-8.7 6.3-8.4 6.7-8.3 7-8.1 7.3-7.9 7.7-38 38.9-37.3 39.5-36.6 39.6-36 40.1-39.9-31.5-2-2.2-0.7-1.1-0.3-1.2v-1.3l0.1-1.2 1.1-2.7 7.3-11.5 7.9-11.1 8.8-11.4 9.5-10.8 10-10.5 10.6-9.9 11.2-9.6 11.9-9 12.4-8.7 13-8.3 20.4-12.5 20.3-13 19.9-13.3 19.6-13.6 17.5-12.5 17.2-12.9 17-13.1 16.8-13.4 1.8-1.2 2.2-0.9 2.4-0.3 2.3 0.1 2.3 0.6 2.1 1.2 1.8 1.6 1.4 1.9 1 2.2 2.5 7 2.5 6 2.4 4.9z"/>
		<path id="Layer" class="s22" d="m497.4 436.5l-1.6-6.5-2.7-6.3-3.5-6.4-4.4-6.2-5.4-6.1-6.2-6.3-7.7-6.7-10.7-9-14-11.7-5-4.6-4.2-4.3-24.1-25.7-24.6-25.1-23.8-23.2-24.2-22.8-24.6-22.5-25-21.9-2.3-1.6-2.4-0.9-2.6-0.1-2.8 0.7-16.6 5.6 11.6-24.5 1.3-2.3 1.4-1.7 1.6-1.3 1.5-0.6 1.9-0.1 1.9 0.4 2.1 1 2.1 1.5 1.4 0.9 2.2 1.2 2.3 0.7 2.5 0.4 2.7 0.1 2.4 0.2 2.8 0.5 2.9 0.9 2.8 1.2 2.6 1.8 36.3 25.9 36.3 25.1 36.7 24.5 36.9 23.9 12.6 8.5 12 9.2 11.4 10 10.6 10.4 5.7 6.1 5.5 6.4 5.3 6.5 5 6.8 4.9 7 4.7 7.1 4.4 7.4 4.3 7.6 1 2.8v1.2l-0.3 1.2-0.5 1-0.9 0.9-1.3 0.8-1.5 0.6-8.9 3.6-4.2 2-4 2.3-3.8 2.4-3.6 2.7-3.4 2.8-3.2 3.1-5.1 5.5z"/>
	</g>
	<g id="Layer">
		<path id="Layer" class="s23" d="m1442.7 192l1.1-0.3 1.2 0.3 1 0.7 0.6 1 0.7 1.6 1.2 4.8 0.4 5-0.6 5-1.6 4.7-2.4 4.5-3.3 3.7-3.8 3.1-4.5 2.2-1.3 0.5-4.8 1.3-5 0.4-5-0.7-4.7-1.5-4.3-2.5-3.8-3.2-3.1-4.1-2.3-4.5-0.5-1.5-0.3-1.2 0.3-1.1 0.6-1 1.1-0.7z"/>
		<path id="Layer" class="s23" d="m2203.5 212.7l0.5 0.4 0.4 0.8-0.2 0.9-0.1 0.4-2.5 4.1-3.2 3.5-3.8 2.8-4.4 2.1-4.8 1.1-4.9 0.3-4.8-0.8-4.6-1.6-0.5-0.2-4.2-2.5-3.7-3.2-3.1-3.8-2.2-4.5-1.2-4.6-0.4-4.8 0.6-4.8 1.5-4.4 0.3-0.4 0.6-0.8 0.7-0.1 0.6 0.1z"/>
		<path id="Layer" class="s23" d="m1267.7 2410.4l0.7 3.4 2.5 13.3 1.6 13.5 0.9 13.6-0.1 14-0.8 14-1.6 14.3-2.6 14.4-3.3 14.5-8.8 1.2-8.8 0.7-12.8 0.5-12.7-0.3-12.9-1.1-12.9-1.9-42.6-7.1-14.5-2.2-9.8-1.1-17.1-1.7-17-2.2-16.7-2.5-16.6-3.1-16.3-3.3-16.1-3.8-15.9-4.2-15.7-4.7 23.5-55.8 0.6-1.3 1-1.1 1-1 1.3-0.8 1.4-0.4 1.4-0.2h1.5l1.4 0.2 16.1 4.4 16.1 3.9 16.1 3.5 16.2 3 16.2 2.6 16 2.1 16.4 1.6 16.2 1.3 20.5 0.7 20.7 0.1 20.6-0.5 20.7-1.4 3.2-0.6 2.9-1.2 2.4-1.5 2.3-2.2 2.6-3.1 2.3-3.6 2.1-3.8 1.8-4 1.7-4.5 1.5-4.6 1.2-4.8z"/>
		<path id="Layer" class="s23" d="m2333.7 2417l1 4.9 1.6 4.4 1.9 4.2 2.4 3.9 2.3 2.6 2.4 2.7 2.8 2.3 3.1 2.2 3.4 1.9 3.6 1.8 4 1.5 4.2 1.4 4.4 1.2 4.7 0.8 10.5 1.3 11.5 0.4 12.6-0.4 20.3-1.5 20-1.9 20-2.3 19.9-2.8 19.8-3.2 19.8-3.7 19.5-4.1 19.5-4.5 2.8-0.2 2.8 0.9 2.3 1.6 1.5 2.3 28.4 60.7-64.3 8.6-64.3 8.2-64.3 7.9-64.3 7.5h-0.6l-1.4-0.1-1.5-0.5-1.5-0.9-1.5-1.3-2.9-3.7-3.1-5.2-2.5-12.7-1.9-12.5-1.3-12.3-0.8-12.3-0.1-12.2 0.5-12.1 1-12 1.7-12z"/>
		<path id="Layer" class="s1" d="m1688.6 3486.7l-19 7.1-2.1-10.1-1.4-9.8-0.7-9.4-0.4-9 0.4-8.6 0.7-8.2 1.4-8 2.1-7.5 0.7-2 1.2-1.8 1.5-1.8 1.7-1.4 1.9-1.1 2-0.8 2.2-0.5 2.2-0.1 6.9 0.2 1.2 0.1 2.6 0.5 2.3 1.2 2.1 1.5 1.7 2.1 1.3 2.3 0.7 2.4 0.2 2.7-0.3 2.5z"/>
	</g>
	<g id="Layer">
		<path id="Layer" class="s16" d="m939.9 1493.7c-63.6 0-115.1-51.4-115.1-115 0-63.7 51.5-115.1 115.1-115.1 63.6 0 115 51.4 115 115.1 0 63.6-51.4 115-115 115z"/>
		<path id="Layer" class="s16" d="m2508.8 1506.5c-63.6 0-115-51.5-115-115.1 0-63.6 51.4-115 115-115 63.7 0 115.1 51.4 115.1 115 0 63.6-51.4 115.1-115.1 115.1z"/>
	</g>
	<g id="Layer">
		<path id="Layer" class="s17" d="m1004.2 473.3l-0.3 8.2-0.5 8-1 8.1-1.4 8-1.8 7.9-2.2 7.9-2.5 7.7-3 7.6-3.3 7.4-3.6 7.3-4 7-4.4 6.9-4.6 6.6-5.1 6.4-5.2 6.2-5.6 5.9-5.9 5.6-6.2 5.3-6.4 5.1-6.6 4.5-6.9 4.4-7 4.1-7.3 3.5-7.4 3.4-7.7 2.9-7.6 2.5-7.9 2.2-7.9 1.8-8.1 1.4-8 1-8 0.5-8.2 0.3-8.2-0.3-8-0.5-8-1-8.1-1.4-7.9-1.8-7.9-2.2-7.6-2.5-7.7-2.9-7.4-3.4-7.3-3.5-7-4.1-6.9-4.4-6.6-4.5-6.4-5.1-6.2-5.3-5.9-5.6-5.6-5.9-5.2-6.2-5.1-6.4-4.6-6.6-4.4-6.9-4-7-3.6-7.3-3.3-7.4-3-7.6-2.5-7.7-2.2-7.9-1.8-7.9-1.4-8-1-8.1-0.5-8-0.2-8.2 0.2-8.1 0.5-8.1 1-8 1.4-8 1.8-8 2.2-7.9 2.5-7.6 3-7.7 3.3-7.4 3.6-7.2 4-7 4.4-6.9 4.6-6.7 5.1-6.3 5.2-6.3 5.6-5.9 5.9-5.6 6.2-5.2 6.4-5.1 6.6-4.6 6.9-4.3 7-4.1 7.3-3.6 7.4-3.3 7.7-2.9 7.6-2.6 7.9-2.2 7.9-1.7 8.1-1.4 8-1.1 8-0.5 8.2-0.2 8.2 0.2 8 0.5 8 1.1 8.1 1.4 7.9 1.7 7.9 2.2 7.6 2.6 7.7 2.9 7.4 3.3 7.3 3.6 7 4.1 6.9 4.3 6.6 4.6 6.4 5.1 6.2 5.2 5.9 5.6 5.6 5.9 5.2 6.3 5.1 6.3 4.6 6.7 4.4 6.9 4 7 3.6 7.2 3.3 7.4 3 7.7 2.5 7.6 2.2 7.9 1.8 8 1.4 8 1 8 0.5 8.1z"/>
		<path id="Layer" class="s17" d="m2929.2 473.3l-0.2 8.2-0.5 8-1.1 8.2-1.4 7.9-1.8 8-2.1 7.8-2.6 7.8-2.9 7.5-3.3 7.4-3.6 7.3-4.1 7.1-4.3 6.9-4.7 6.6-5 6.4-5.4 6.1-5.4 6-6 5.5-6.2 5.4-6.3 5-6.7 4.7-6.9 4.3-7.1 4.1-7.3 3.6-7.4 3.3-7.5 2.9-7.8 2.6-7.8 2.1-8 1.8-7.9 1.4-8.2 1-8 0.6-8.2 0.2-8.1-0.2-8.1-0.6-8.1-1-7.9-1.4-8.1-1.8-7.7-2.1-7.8-2.6-7.6-2.9-7.3-3.3-7.3-3.6-7.2-4.1-6.8-4.3-6.7-4.7-6.4-5-6.1-5.4-6-5.5-5.5-6-5.3-6.1-5-6.4-4.7-6.6-4.3-6.9-4.1-7.1-3.6-7.3-3.3-7.4-2.9-7.5-2.6-7.8-2.2-7.8-1.8-8-1.4-7.9-1-8.2-0.5-8-0.2-8.2 0.2-8.1 0.5-8.1 1-8.1 1.4-7.9 1.8-8.1 2.2-7.8 2.6-7.7 2.9-7.6 3.3-7.4 3.6-7.2 4.1-7.2 4.3-6.9 4.7-6.6 5-6.4 5.3-6.1 5.5-6 6-5.5 6.1-5.3 6.4-5 6.7-4.7 6.8-4.4 7.2-4 7.3-3.6 7.3-3.3 7.6-3 7.8-2.5 7.7-2.2 8.1-1.8 7.9-1.4 8.1-1 8.1-0.5 8.1-0.3 8.2 0.3 8 0.5 8.2 1 7.9 1.4 8 1.8 7.8 2.2 7.8 2.5 7.5 3 7.4 3.3 7.3 3.6 7.1 4 6.9 4.4 6.7 4.7 6.3 5 6.2 5.3 6 5.5 5.4 6 5.4 6.1 5 6.4 4.7 6.6 4.3 6.9 4.1 7.2 3.6 7.2 3.3 7.4 2.9 7.6 2.6 7.7 2.1 7.8 1.8 8.1 1.4 7.9 1.1 8.1 0.5 8.1z"/>
		<path id="Layer" class="s1" d="m1826.3 1752.1l-2.4-2.7-2.9-2-3.2-1.3-3.6-0.5-3.6 0.3-3.3 1.1-3 1.8-2.6 2.5-0.6 0.8-4.9 6.4-5.3 5.9-4 3.9-4.2 3.6-4.3 3.4-4.6 3.2-4.7 3.1-5 2.6-5.1 2.6-5.2 2.3-5.5 2-5.6 1.7-5.8 1.7-5.8 1.2-6 1-6 0.7-6.3 0.5-6.1 0.3h-6.4l-6.4-0.4-6.2-0.5-6.4-0.9-6.2-1.1-6.3-1.4-6.2-1.6-6-1.8-6-2.2-5.8-2.3-5.7-2.6-5.5-2.9-5.2-3-5.1-3.2-4.9-3.4-4.6-3.6-6-5.5-5.7-6.5-5.5-7.1-5-8.1-4.4-8.3-3.8-8.8-3.2-8.9-2.3-8.9-1.6-8.6-0.7-8.3v-8.1l0.7-7.8 1.7-7.3 2.2-6.9 3.2-6.5 3.7-5.8 2.4-3.1 2.8-2.9 2.8-2.8 3.2-2.6 3.5-2.2 4-1.2 4.1-0.3 4.2 0.6 3.8 1.6 3.3 2.3 2.8 3 2.1 3.7 0.7 2.3 0.4 2.5 2.1 13.5 1.2 6.2 1.6 6.1 1.6 5.8 1.9 5.5 2.1 5.2 2.3 5 2.5 4.6 2.7 4.3 2.9 4 3.1 3.7 3.3 3.3 3.5 3.2 3.5 2.6 3.9 2.5 5.4 2.8 6 2.3 6.2 1.5 6.6 1.1 6.9 0.4 7.3-0.1 7.5-0.8 7.9-1.4 4.5-1.1 4.3-1.4 4.5-1.7 4.2-2 4.2-2.4 4.2-2.7 4.1-3.1 3.9-3.3 3.8-3.7 4-4.1 3.7-4.2 3.7-4.6 7-10.1 6.4-10.9 2.2-4.6 1.4-4.5 0.6-4.2 0.1-4.3-0.7-4.6-1.6-4.6-2.4-4.6-3.3-4.6-4-4.5-4.9-4.7-5.8-4.8-8.3-6.3-3.5-2.7-3.4-2.8-3.1-2.9-2.9-3.1-2.5-3.3-2.3-3.5-1.9-3.6-1.7-3.7-1.4-4-1.5-6.1-0.6-6.2v-6.3l0.9-6.2 1.5-6.2 2.4-6 2.9-5.4 3.7-5.1 2.7-3 2.9-2.8 3.1-2.5 3.3-2.3 3.6-2.2 3.8-1.8 3.9-1.5 4-1.3 13.2-3.2 12.7-2.1 12.4-1.3 12-0.3 11.5 0.8 5.6 0.8 5.5 1 5.3 1.3 5.4 1.4 5.2 1.7 5.1 2 7 3.3 4 2.1 3.5 2.3 3.4 2.7 3 2.7 2.8 3.1 2.6 3.1 2.1 3.5 2 3.4 1.7 4.2 1.3 4.5 0.9 4.5 0.4 4.7v4.7l-0.4 4.7-0.9 4.7-1.3 4.8-1.7 4.6-2.2 4.4-2.4 4.4-3 4.2-3.3 3.9-3.6 3.7-3.8 3.3-4.2 3.2-5.7 4.2-5.5 4.5-5.1 4.8-4.9 5.1-5.8 7.2-1.8 2.9-0.9 3.3-0.3 3.5 0.7 3.4 3 8.7 3.9 8.5 4.6 8.2 5.1 7.8 5.8 7.3 6.4 6.8 6.8 6.2 7.1 5.4 7.5 4.6 7.7 3.9 7.8 3 7.9 2.1 7.6 1.2 7.8 0.3 7.7-0.6 7.2-1.6 6.3-2.1 6.1-2.8 5.9-3.5 5.6-4.3 5.2-4.7 5.1-5.7 4.6-6.1 4.5-6.9 1.9-3.7 1.9-3.9 1.5-4.2 1.3-4.5 2.3-9.9 2.2-13.9 1.6-11 1-3.2 2-2.8 2.6-2.2 3.2-1.2 4.6-0.8 4.4-0.3 4 0.5 3.7 1.2 3.3 1.6 3.1 2.1 2.8 2.5 2.6 3.1 2.4 3.6 2.2 4.2 1.9 4.6 1.6 4.9 1.4 5.7 1.2 6.1 0.7 6.5 0.6 6.6 0.1 6.8-0.3 6.5-0.6 6.2-0.9 5.3-1.4 5.8-1.7 5.6-2 5.5-2.4 5.5-3.3 6.4-3.9 6.1-4.2 6-4.6 5.6-5.1 5.4-5.6 5.1-5.9 4.7-6.2 4.3-6.8 4.2-7 3.7-7.2 3.4-7.6 2.9-7.8 2.4-7.9 2.2-8.1 1.6-8.2 1.2-8.2 0.8-8.2 0.2-8.2-0.1-8.2-0.7-8-1.1-7.9-1.5-7.7-2.1-7.5-2.4-7.1-2.8-6.9-3.3-6.5-3.6-6.4-4.1-5.7-4.3-5.7-4.9-5.1-5.1-4.7-5.4z"/>
	</g>
	<g id="Layer">
		<path id="Layer" class="s24" d="m1521.2 638.7c-58.8 0-106.4-45.2-106.4-101.2 0-56 47.6-101.3 106.4-101.3 58.9 0 106.5 45.3 106.5 101.3 0 56-47.6 101.2-106.5 101.2z"/>
		<path id="Layer" class="s24" d="m2080.7 638.7c-58.9 0-106.5-45.2-106.5-101.2 0-56 47.6-101.3 106.5-101.3 58.8 0 106.4 45.3 106.4 101.3 0 56-47.6 101.2-106.4 101.2z"/>
	</g>
	<g id="Layer">
		<path id="Layer" class="s24" d="m838.7 574.9c-55.9 0-101.1-45.3-101.1-101.2 0-55.9 45.2-101.1 101.1-101.1 56 0 101.2 45.2 101.2 101.1 0 55.9-45.2 101.2-101.2 101.2z"/>
		<path id="Layer" class="s24" d="m2697.4 399c34.4-36.2 91.6-37.6 127.8-3.1l12.9 12.3c36.2 34.4 37.6 91.7 3.2 127.8l-11.8 12.4c-34.5 36.2-91.7 37.6-127.9 3.1l-12.9-12.3c-36.2-34.4-37.6-91.7-3.1-127.8z"/>
	</g>
	<path id="Layer" class="s17" d="m1705.7 430.1l-37 71.4-3.8 13.2-3.5 13-2.9 12.9-2.3 12.6-1.9 12.4-1.4 12.3-0.8 12.1-0.4 11.8 0.2 11.6 0.7 11.5 1.1 11.3 1.8 11 2.1 10.9 2.7 10.6 3.1 10.5 3.8 10.3 3.4 8.4 3.9 8.2 4.1 8 4.5 8 4.9 7.8 5.1 7.6 5.5 7.6 5.9 7.4 6.3 7.4 6.5 7 6.9 7.1 7.3 6.8 7.6 6.7 7.9 6.6 8.4 6.5 8.6 6.3 2.7 2.2 2.5 2.3 2 2.6 1.8 2.8 1.4 3.1 1.3 3.2 0.9 3.6 0.8 3.7 0.4 4.1 0.1 4.2-0.5 21.8-0.4 18.2 0.1 13.4 0.8 11.9 1.4 10.6 2.2 10 3 9.3 3.9 8.5 2.1 4 2.6 3.8 1.6 2.2 9.5 12.2 9.7 11.3 9.8 10 10 9.2 10.1 8 10.3 6.9 10.4 6 10.5 4.8 48.5 20.1 15.7 7 10.1 4.9 28.9 1.7 24.6 0.9h20.3l8.5-0.4 7.5-0.6 15.6-2 14.9-2.8 14.2-3.7 13.5-4.6 6.5-2.5 6.3-2.9 6.2-3.1 6-3.2 5.8-3.4 5.7-3.8 5.4-3.8 5.2-4.2 8.9-7.6 8.3-8.4 7.6-9 7.3-9.7 6.7-10.2 6.1-11 5.5-11.7 5.2-12.3 1.4-2.6 0.8-0.7 0.8-0.3 0.9 0.1 0.9 0.5 1.9 2 4.2 5.6 4.5 5.3 4.6 5 4.7 4.6 4.9 4.5 5.1 4.2 5.3 3.8 5.4 3.6 7.2 4.2 7.2 3.6 7.7 3.3 7.8 2.8 14.1 4.2 14.2 3.5 14 2.7 13.9 2 13.8 1.2 13.9 0.5 13.7-0.3 13.6-1 8.8-1 8.8-1.3 8.7-1.7 8.7-2.1 8.7-2.3 8.6-2.6 8.7-3 8.6-3.3 8.5-3.6 8.6-3.8 8.4-4.2 8.5-4.6 8.4-4.8 8.4-5.3 8.3-5.4 8.4-5.8 10.8-12.2 9.7-12.2 8.7-12.7 7.7-12.8 6.6-13 2.8-6.5 2.6-6.6 2.5-6.8 2-6.7 1.8-6.8 1.6-6.9 1.6-8.5 1.2-8.6 0.7-8.7 0.3-8.8v-8.8l-0.5-9-0.7-9-1.3-9.1-1.6-9.2-2.1-9.3-2.5-9.3-2.8-9.5-3.3-9.4-3.7-9.6-4-9.8-4.4-9.8-47.6-74.5-1.1-2.2-0.7-2.2-0.3-2.4v-2.4l0.6-2.4 0.9-2.2 1.2-1.9 1.7-1.8 6.4-6.1 6.2-6.3 5.9-6.6 5.6-6.8 5.4-6.9 5.1-7.1 4.9-7.4 4.5-7.5 4.4-7.8 3.9-8 3.8-8.2 3.6-8.4 2.3-7 2.3-10 2.7-12.7 2.6-15.6 1.1-6.4 1.5-6.2 1.6-6 1.8-5.6 2.1-5.5 2.3-5 2.5-5 2.8-4.6-2.6-12-3-11.7-3.2-11.4-3.6-11.4-3.7-10.9-4-10.8-4.3-10.6-4.7-10.3-4.8-10.1-5.1-9.8-5.4-9.7-5.8-9.4-5.9-9.2-6.2-9-6.6-8.7-6.7-8.5-11.3-13-11.8-12.1-12-11.1-12.6-10.2-12.9-9.3-13.4-8.5-13.6-7.4-14-6.5-9.5-3.7-9.7-3.5-9.9-2.9-10-2.6-16.6-3.5-16.4-2.7-16.3-1.7-16.2-1h-16l-15.8 0.7-15.7 1.7-15.5 2.5-9.7 1.9-9.7 2.4-9.4 2.7-9.6 3-9.3 3.4-9.4 3.7-9.3 4-9.3 4.4-2.1 0.8-2 0.5-2 0.2-1.8-0.3-1.7-0.6-1.7-1.1-1.6-1.4-1.5-1.8-14.2-18.9-13.2-16.1-12.7-14.2-6.3-6.4-6.1-6-6.3-5.8-6.3-5.3-6.5-4.9-6.4-4.9-6.6-4.3-6.6-4.1-6.7-3.8-7-3.5-7.5-3.4-7.6-3.2-7.9-2.7-8.1-2.5-8.2-2.2-8.4-1.9-8.7-1.6-8.9-1.3-12.5-1.3-12.2-0.7-12.2-0.1-12 0.6-11.8 1.2-11.5 1.7-11.4 2.4-11.2 3-13.4 4.4-13.3 5.3-13 6.3-12.6 7.2-9.8 6.1-9.3 6.3-8.9 6.5-8.5 6.6-8.2 6.7-7.6 7-7.3 7-6.7 7.3-6.4 7.4-5.9 7.6-5.6 7.7-5.1 7.9-4.7 8-4.2 8.2-3.9 8.3-3.4 8.6-3 9-2.7 9.2-2.1 9.4-1.7 9.5-1.3 9.7-0.7 9.8-0.3 10.1v10.3l0.8 10.4 1 10.4 1.5 10.8 2 10.9 2.4 11.1 3 11.2 3.3 11.4 3.9 11.6 0.7 3.2-0.3 2.9-1.1 2.6-1.9 2.5z"/>
	<path id="Layer" fill-rule="evenodd" class="s3" d="m1779.4 487.5l-17 37.9-2.1 5.3-1.9 5.3-1.5 5.3-1.2 5.2-0.8 5.1-0.4 5.2-0.2 5 0.1 5 0.7 12v12.2l-0.3 12.5-0.9 12.6-0.3 7 0.2 4.9 0.6 5 0.9 4.9 1.5 4.9 1.7 5 1.9 4.9 2.5 4.8 2.8 5 5.7 9.2 6.2 8.6 6.4 8 6.7 7.6 7.1 6.9 7.3 6.3 7.6 5.9 7.9 5.3 3.9 2.1 4 1.7 6.4 1.9 6.7 0.9 2.9-0.3 1.1-0.4 0.7-0.7 0.4-0.8 0.2-1.2-0.6-2.8-0.4-1.3 0.1-1.2 0.4-1.6 1.7-2.8 2.2-2.1 2.6-1.2 3.3-0.6 12.7-0.8 12.6-1.3 12.2-1.8 12.1-2.4 11.8-3 11.6-3.3 11.5-4 11.1-4.4 14.1-6.5 13.7-7.4"/>
	<path id="Layer" fill-rule="evenodd" class="s4" d="m1979.6 675l-8.1-6.4-7.7-6.9-7.3-6.9-6.9-7.4-6.3-7.6-5.9-7.5-5.3-7.8-4.6-8-4-7.7-3.5-8.2-3-8-2.3-8.1-1.8-8.1-1-8.1-0.6-8.1 0.1-8.2 0.7-8 1.3-8 2-8 2.5-7.9 4.1-11 4.8-10.5 5.4-10.5 5.7-10.1 6.2-9.6 6.5-9.2 7-8.6 7.3-7.9 7.4-7.3 7.6-6.7 8.1-5.9 8.1-5.3 8.3-4.5 8.5-3.8 8.6-3.2 8.7-2.3 8.4-1.7 8.2-1.5 8.2-1.2 7.9-0.7 8.1-0.5 7.8-0.2 7.6 0.3 7.7 0.6 7.3 0.8 7.4 1.3 7.2 1.5 6.9 1.8 6.9 2.2 6.7 2.6 6.6 2.7 6.4 3.2 6.2 3.5 6.1 3.8 5.9 4.1 5.7 4.4 5.5 4.8 5.4 5 5.2 5.5 5 5.7 4.7 5.9 4.6 6.4 4.4 6.6 4.1 6.8 4 7.2 3.7 7.3 3.5 7.8 3.3 8"/>
	<path id="Layer" fill-rule="evenodd" class="s3" d="m2226.8 507.7l5.7-1.1 5.6-0.8 5.4-0.2 5 0.1 5 0.6 4.6 1.1 4.4 1.3 4.3 2 4.4 2.5 4.1 3.1 2.3 2.4 1.7 2.6 0.9 2.6 0.5 2.8 0.7 3.4 0.6 1.5 1 1.2 1.3 1.2 1.5 1 1.8 0.7 2.1 0.5 3.1 0.3h3l2.9-0.4 2.8-0.7 3.1-1.3 2.9-1.6 2.7-2 2.8-2.6 2.3-2.1 2.5-1.9 2.8-1.7 3-1.3 25.9-10.3 23.5-9.5 21-9 18.6-8.4 16.1-7.7 13.7-7.1 11.1-6.5 8.8-5.9 4-3.3 4.1-3.8 3.7-4.1 3.4-4.7 3.1-4.9 2.8-5.2 2.5-5.6 2.2-6 1.9-6.2 1.6-6.7 1.2-7.1 0.9-7.4 0.7-7.7 0.3-8.1v-8.4l-0.2-8.9-0.6-9.1"/>
	<path id="Layer" fill-rule="evenodd" class="s5" d="m2226.8 507.7l4.2 10 3.5 9.9 2.6 9.7 1.8 9.6 1 9.4 0.2 9.2-0.5 9.1-1.5 8.9-1.3 6-1.9 6.2-2.2 5.8-2.6 5.9-2.9 5.8-3.5 5.7-3.7 5.7-4.2 5.6-6.3 7.7-6.3 7.3-6.4 7.1-6.5 6.4-6.6 6.1-6.6 5.7-6.8 5.3-6.8 4.8-6.9 4.6-7 4-7 3.6-7.1 3.2-7.2 2.8-7.2 2.4-7.3 2-7.4 1.5-7.4 1.2-7.4 0.7-7.6 0.4-7.6-0.1-7.7-0.5-7.7-0.7-7.8-1.3-7.8-1.7-8-2-8.1-2.5-8.1-2.9-8.1-3.3-8.3-3.7-8.3-3.9-8.5-4.5-8.4-4.9"/>
	<path id="Layer" class="s17" d="m1979.6 675l8.4 4.9 8.5 4.5 8.3 3.9 8.3 3.7 8.1 3.3 8.1 2.9 8.1 2.5 8 2 7.8 1.7 7.8 1.3 7.7 0.7 7.7 0.5 7.6 0.1 7.6-0.4 7.4-0.7 7.4-1.2 7.4-1.5 7.3-2 7.2-2.4 7.2-2.8 7.1-3.2 7-3.6 7-4 6.9-4.6 6.8-4.8 6.8-5.3 6.6-5.7 6.6-6.1 6.5-6.4 6.4-7.1 6.3-7.3 6.3-7.7 4.2-5.6 3.7-5.7 3.5-5.7 2.9-5.8 2.6-5.9 2.2-5.8 1.9-6.2 1.3-6 1.5-8.9 0.5-9.1-0.2-9.2-1-9.4-1.8-9.6-2.6-9.7-3.5-9.9-4.2-10-3.3-8-3.5-7.8-3.7-7.3-4-7.2-4.1-6.8-4.4-6.6-4.6-6.4-4.7-5.9-5-5.7-5.2-5.5-5.4-5-5.5-4.8-5.7-4.4-5.9-4.1-6.1-3.8-6.2-3.5-6.4-3.2-6.6-2.7-6.7-2.6-6.9-2.2-6.9-1.8-7.2-1.5-7.4-1.3-7.3-0.8-7.7-0.6-7.6-0.3-7.8 0.2-8.1 0.5-7.9 0.7-8.2 1.2-8.2 1.5-8.4 1.7-8.7 2.3-8.6 3.2-8.5 3.8-8.3 4.5-8.1 5.3-8.1 5.9-7.6 6.7-7.4 7.3-7.3 7.9-7 8.6-6.5 9.2-6.2 9.6-5.7 10.1-5.4 10.5-4.8 10.5-4.1 11-2.5 7.9-2 8-1.3 8-0.7 8-0.1 8.2 0.6 8.1 1 8.1 1.8 8.1 2.3 8.1 3 8 3.5 8.2 4 7.7 4.6 8 5.3 7.8 5.9 7.5 6.3 7.6 6.9 7.4 7.3 6.9 7.7 6.9z"/>
	<path id="Layer" class="s25" d="m2493.9 349.3l0.6 9.1 0.2 8.9v8.4l-0.3 8.1-0.7 7.7-0.9 7.4-1.2 7.1-1.6 6.7-1.9 6.2-2.2 6-2.5 5.6-2.8 5.2-3.1 4.9-3.4 4.7-3.7 4.1-4.1 3.8-4 3.3-8.8 5.9-11.1 6.5-13.7 7.1-16.1 7.7-18.6 8.4-21 9-23.5 9.5-25.9 10.3-3 1.3-2.8 1.7-2.5 1.9-2.3 2.1-2.8 2.6-2.7 2-2.9 1.6-3.1 1.3-2.8 0.7-2.9 0.4h-3l-3.1-0.3-2.1-0.5-1.8-0.7-1.5-1-1.3-1.2-1-1.2-0.6-1.5-0.7-3.4-0.5-2.8-0.9-2.6-1.7-2.6-2.3-2.4-4.1-3.1-4.4-2.5-4.3-2-4.4-1.3-4.6-1.1-5-0.6-5-0.1-5.4 0.2-5.6 0.8-5.7 1.1 4.2 10 3.5 9.9 2.6 9.7 1.8 9.6 1 9.4 0.2 9.2-0.5 9.1-1.5 8.9-1.3 6-1.9 6.2-2.2 5.8-2.6 5.9-2.9 5.8-3.5 5.7-3.7 5.7-4.2 5.6-6.3 7.7-6.3 7.3-6.4 7.1-6.5 6.4-6.6 6.1-6.6 5.7-6.8 5.3-6.8 4.8-6.9 4.6-7 4-7 3.6-7.1 3.2-7.2 2.8-7.2 2.4-7.3 2-7.4 1.5-7.4 1.2-7.4 0.7-7.6 0.4-7.6-0.1-7.7-0.5-7.7-0.7-7.8-1.3-7.8-1.7-8-2-8.1-2.5-8.1-2.9-8.1-3.3-8.3-3.7-8.3-3.9-8.5-4.5-8.4-4.9-13.7 7.4-14.1 6.5-11.1 4.4-11.5 4-11.6 3.3-11.8 3-12.1 2.4-12.2 1.8-12.6 1.3-12.7 0.8-3.3 0.6-2.6 1.2-2.2 2.1-1.7 2.8-0.4 1.6-0.1 1.2 0.4 1.3 0.6 2.8-0.2 1.2-0.4 0.8-0.7 0.7-1.1 0.4-2.9 0.3-6.7-0.9-6.4-1.9-4-1.7-3.9-2.1-7.9-5.3-7.6-5.9-7.3-6.3-7.1-6.9-6.7-7.6-6.4-8-6.2-8.6-5.7-9.2-2.8-5-2.5-4.8-1.9-4.9-1.7-5-1.5-4.9-0.9-4.9-0.6-5-0.2-4.9 0.3-7 0.9-12.6 0.3-12.5v-12.2l-0.7-12-0.1-5 0.2-5 0.4-5.2 0.8-5.1 1.2-5.2 1.5-5.3 1.9-5.3 2.1-5.3 17-37.9-6.3 7.6-5.9 7.8-5.4 7.9-5 8-4.3 8.4-4 8.3-3.5 8.4-2.9 8.8-2.7 9.5-2.2 9.9-1.6 9.9-1 10.2-0.4 10.2 0.2 10.5 0.7 10.7 1.2 10.8 1.2 6 1.6 5.3 2.1 4.8 3.5 6 3.3 5.6 2.4 4.7 1.7 4.4 2.3 6 2.8 5.8 3.5 5.7 4.1 5.8 4.6 5.9 5.2 5.7 5.6 5.4 6.3 5.4 6.7 5.2 7.1 5.1 7.4 4.6 7.6 4.4 7.8 4 7.8 3.4 7.7 2.9 7.5 2.3 1.7 0.6 3.3 1.7 3 2.4 2.4 3 1.7 3.4 1 3.7 0.3 3.8-0.7 3.8-1.3 3.7-7.6 16.1-5.9 14.2-2.3 6.8-2 6.5-1.7 6.3-1.2 6-1 6.1-0.7 5.7-0.3 5.7 0.1 5.7 0.4 5.4 0.8 5.3 1 5.2 1.4 5.2 1.7 4.8 2.1 4.6 2.4 4.6 2.6 4.4 4.8 7.3 5.2 6.9 5.2 6.5 5.6 6.2 5.8 6 6 5.6 6.3 5.4 6.4 4.9 8.8 6 9.2 5.4 9.6 4.9 9.9 4.3 10.4 3.9 10.8 3.2 11.1 2.7 11.5 2.2 16.1 2.1 7.7 0.7 7.7 0.3h7.5l7.2-0.2 7.2-0.5 6.9-0.9 6.7-0.9 6.7-1.4 6.5-1.8 6.2-1.9 6.2-2.2 5.9-2.6 5.7-2.7 5.7-3.1 5.7-3.5 5.6-4 5.3-4.1 5.1-4.5 4.9-4.7 4.9-5.1 4.5-5.4 4.4-5.8 4.3-6 4-6.3 3.9-6.8 3.7-7 3.5-7.2 3.4-7.6 3.2-7.9 2.9-8.3 8-24.9 7.5-25.4 1.3-2.9 1.8-2.6 2.4-1.9 2.7-1.5 2.9-0.9h3.2l3 0.6 2.9 1.2 2.4 1.9 7.6 7.5 7.3 7.7 7 8.2 6.6 8.5 6.4 8.8 6.1 9.1 5.9 9.6 5.4 9.8 1.7 2.8 2 2.8 4.7 5.5 5.7 4.9 6.8 4.8 7.8 4.3 9 4.1 9.9 3.8 10.9 3.4 92.2 10.5 10.1-4.6 9.7-4.7 9.2-5 8.8-5.1 8.2-5.1 7.7-5.5 7.1-5.7 6.8-5.7 6.3-6 5.7-6.2 5.2-6.3 4.8-6.4 4.3-6.6 3.8-6.9 3.3-7 2.7-7.2 1.9-5.6 1.5-5.6 1.2-5.9 0.9-5.9 0.7-6.1 0.3-6 0.1-6.2-0.2-6.4-0.6-6.4-0.7-6.5-1.1-6.7-1.4-6.7-3.7-13.9-4.8-14.1-4.5-11.1-5.2-11-3.9-7.1-4-7-4.4-6.8-4.7-6.6-4.9-6.7-5.2-6.3-5.6-6.4-5.8-6.1-6-6-6.4-5.7-6.6-5.8-6.8-5.5-7.2-5.4-7.5-5.2-7.7-5.1-7.9-4.9-2.5-2-1.4-2.1-0.8-2.2-0.3-2.4 0.3-2.4 0.9-2.3 1.2-2.1 1.8-1.5 2.1-1.3 9.9-4.4 9.7-4.7 9.2-5.1 8.9-5.6 8.8-5.8 8.6-6.3 8.3-6.7 8.1-7.2 7.9-7.4 7.8-7.9 7.9-9.2 7-9.7 6.1-10.1 5.3-10.4 4.1-11.1 3.3-11.4 2.2-11.8 1.3-12.2 0.4-7.2-0.1-11-0.8-11.1-1.4-11-2.2-11.1-2.8-11.2-3.5-11.1-4.2-11.2z"/>
	<path id="Layer" class="s18" d="m1779.4 487.5l-17 37.9-2.1 5.3-1.9 5.3-1.5 5.3-1.2 5.2-0.8 5.1-0.4 5.2-0.2 5 0.1 5 0.7 12v12.2l-0.3 12.5-0.9 12.6-0.3 7 0.2 4.9 0.6 5 0.9 4.9 1.5 4.9 1.7 5 1.9 4.9 2.5 4.8 2.8 5 5.7 9.2 6.2 8.6 6.4 8 6.7 7.6 7.1 6.9 7.3 6.3 7.6 5.9 7.9 5.3 3.9 2.1 4 1.7 6.4 1.9 6.7 0.9 2.9-0.3 1.1-0.4 0.7-0.7 0.4-0.8 0.2-1.2-0.6-2.8-0.4-1.3 0.1-1.2 0.4-1.6 1.7-2.8 2.2-2.1 2.6-1.2 3.3-0.6 12.7-0.8 12.6-1.3 12.2-1.8 12.1-2.4 11.8-3 11.6-3.3 11.5-4 11.1-4.4 14.1-6.5 13.7-7.4-8.1-6.4-7.7-6.9-7.3-6.9-6.9-7.4-6.3-7.6-5.9-7.5-5.3-7.8-4.6-8-4-7.7-3.5-8.2-3-8-2.3-8.1-1.8-8.1-1-8.1-0.6-8.1 0.1-8.2 0.7-8 1.3-8 2-8 2.5-7.9 4.1-11 4.8-10.5 5.4-10.5 5.7-10.1 6.2-9.6 6.5-9.2 7-8.6 7.3-7.9 7.4-7.3 7.6-6.7 8.1-5.9 8.1-5.3 8.3-4.5 8.5-3.8 8.6-3.2 8.7-2.3 8.4-1.7 8.2-1.5 8.2-1.2 7.9-0.7 8.1-0.5 7.8-0.2 7.6 0.3 7.7 0.6 7.3 0.8 7.4 1.3 7.2 1.5 6.9 1.8 6.9 2.2 6.7 2.6 6.6 2.7 6.4 3.2 6.2 3.5 6.1 3.8 5.9 4.1 5.7 4.4 5.5 4.8 5.4 5 5.2 5.5 5 5.7 4.7 5.9 4.6 6.4 4.4 6.6 4.1 6.8 4 7.2 3.7 7.3 3.5 7.8 3.3 8 5.7-1.1 5.6-0.8 5.4-0.2 5 0.1 5 0.6 4.6 1.1 4.4 1.3 4.3 2 4.4 2.5 4.1 3.1 2.3 2.4 1.7 2.6 0.9 2.6 0.5 2.8 0.7 3.4 0.6 1.5 1 1.2 1.3 1.2 1.5 1 1.8 0.7 2.1 0.5 3.1 0.3h3l2.9-0.4 2.8-0.7 3.1-1.3 2.9-1.6 2.7-2 2.8-2.6 2.3-2.1 2.5-1.9 2.8-1.7 3-1.3 25.9-10.3 23.5-9.5 21-9 18.6-8.4 16.1-7.7 13.7-7.1 11.1-6.5 8.8-5.9 4-3.3 4.1-3.8 3.7-4.1 3.4-4.7 3.1-4.9 2.8-5.2 2.5-5.6 2.2-6 1.9-6.2 1.6-6.7 1.2-7.1 0.9-7.4 0.7-7.7 0.3-8.1v-8.4l-0.2-8.9-0.6-9.1-5.8-10.8-6.3-10.3-6.5-9.8-7.1-9.2-7.4-8.8-7.8-8.2-8.2-7.7-8.6-7.3-5.8-4.3-5.8-4.1-6.1-3.9-6.2-3.7-13-6.8-13.5-5.9-14.2-5.2-14.9-4.3-15.6-3.4-16.3-2.6-14.4-1.5-14-0.6-13.6 0.3-13.2 1.2-12.8 2-12.5 3-11.9 3.9-11.7 4.6-8.9 4.5-8.8 4.9-8.5 5.5-8.2 6.1-8 6.7-7.7 7.2-7.5 7.8-7.3 8.3-2.2 2.1-2.6 1.6-2.8 0.8-3.1 0.2-3-0.5-2.7-1.1-2.5-2-1.9-2.3-1-1.7-0.6-1.9-5.8-20.3-6.1-17.9-3.1-8.1-3.3-7.9-3.5-7.5-3.6-7-3.8-6.8-4-6.4-4-6-4.3-6-4.6-5.4-4.7-5.3-4.9-4.9-5.1-4.8-6.7-5.3-6.9-5.1-7.3-4.7-7.8-4.4-8-3.8-8.6-3.7-8.7-3.1-9.5-3-14-3.4-13.7-2.5-6.9-0.8-6.7-0.5-6.7-0.2h-6.6l-6.6 0.2-6.5 0.6-6.5 0.9-6.3 1.1-6.3 1.4-6 1.6-6.1 2.1-6 2.2-10 4.4-9.6 5.1-9.3 5.9-8.9 6.6-8.4 7.5-8 8-7.5 8.8-7.2 9.3-6.5 10.1-6 10.6-5.4 11.1-4.8 11.4-4.2 12-3.6 12.4-2.9 12.7-2.2 13-0.7 5.9-0.5 5.4v5.3l0.4 5.2 0.5 4.9 0.9 4.7 1.3 4.6 1.6 4.4 2.3 5.1 2.9 4.9 3.4 4.9 3.9 4.6 48.5 53.2 0.9 1.2 1.1 2.1 0.6 2.1 0.1 2.4-0.4 2.2-0.8 2.1-1.3 1.8-1.7 1.6-1.9 1.2-10.7 5.3-10.4 5.8-9.9 6.1-9.6 6.4-9.1 7-8.6 7.3-8.3 7.6-7.8 8.1z"/>
	<path id="Layer" class="s24" d="m2080.3 468.4c50.5 1.6 90.2 41.4 88.7 88.9-1.5 47.6-43.5 84.8-94.1 83.2-50.6-1.6-90.3-41.3-88.8-88.9 1.5-47.6 43.6-84.8 94.2-83.2z"/>
</svg>