<svg version="1.2" xmlns="http://www.w3.org/2000/svg" viewBox="0 0 3600 3600" width="3600" height="3600">
	<title>grey3-svg</title>
	<style>
		.s0 { fill: #250c00 } 
		.s1 { fill: none;stroke: #978a81;stroke-width: 3.3 } 
		.s2 { fill: none;stroke: #e4dfda;stroke-width: 3.3 } 
		.s3 { fill: none;stroke: #7a615b;stroke-width: 3.3 } 
		.s4 { fill: none;stroke: #dfaf9c;stroke-width: 3.3 } 
		.s5 { fill: none;stroke: #ffece2;stroke-width: 3.3 } 
		.s6 { fill: none;stroke: #958181;stroke-width: 3.3 } 
		.s7 { fill: none;stroke: #fabda5;stroke-width: 3.3 } 
		.s8 { fill: none;stroke: #ad7b69;stroke-width: 3.3 } 
		.s9 { fill: none;stroke: #e4ccbd;stroke-width: 3.3 } 
		.s10 { fill: none;stroke: #bba99d;stroke-width: 3.3 } 
		.s11 { fill: none;stroke: #b2978a;stroke-width: 3.3 } 
		.s12 { fill: none;stroke: #b2aaa7;stroke-width: 3.3 } 
		.s13 { fill: #ffffff } 
		.s14 { fill: #c8beb4 } 
		.s15 { fill: #65554e } 
		.s16 { fill: #ffd9c5 } 
		.s17 { fill: #ad9486 } 
		.s18 { fill: #f5a084 } 
	</style>
	<path id="Layer" class="s0" d="m2929.7 3260.7l-6.4 10.4-6.6 10.2-6.6 9.9-7 9.6-7 9.4-7.2 9.4-7.4 8.9-7.6 8.8-7.8 8.5-7.9 8.3-8.1 8.1-8.3 7.8-8.5 7.6-8.5 7.5-8.8 7-9 7-16.6 11.9-17.3 11.2-17.7 10.5-18.4 9.6-18.9 8.9-19.4 8.2-20.1 7.4-20.6 6.7-15 4.3-15 4-15.1 3.7-15.1 3.3-15.2 2.9-15.2 2.5-15.2 2.2-15.3 1.9-14.2 1.4-14.3 1.2-12.2 1.3-11.9 2.3-9 2.4-8.8 2.9-8.8 3.7-9 4.1-8.8 4.8-9.4 5.7-10.2 6.5-13.5 9.1-13.6 9.2-10.1 6.5-9.6 5.7-8.8 4.8-8.9 4.3-9 3.6-8.9 3.1-9 2.5-6.3 1.4-14.2 2.6-14.4 2.4-14.5 2.3-14.7 1.7-14.9 1.7-15 1.4-15.2 1-15.4 0.8-15.6 0.5-15.7 0.3h-15.9l-16-0.3-16.3-0.5-16.3-0.8-16.7-1-16.7-1.4-9.6-1-9.5-1.3-9.4-1.4-9.3-1.8-16.7-3.9-16.5-4.7-16.3-5.6-16.3-6.4-16-7.3-15.7-8.2-15.7-9-15.4-9.9-4-2.8-3.9-3.1-3.9-3.6-3.9-3.9-8-8.8-10.1-12.6-7.4-9.3-5.7-6.7-2.7-2.5-3-1.8-3.4-1.1-3.6-0.4-103.1-0.1-2.3 0.1-2.3 0.4-2.2 0.8-2.1 0.8-2 1.3-1.8 1.4-1.8 1.6-1.4 1.9-7.1 10.2-5.8 7.7-5.5 6.7-5.2 6-5.3 5.6-5.3 4.9-5.4 4.4-5.6 3.9-17.8 11-17.6 9.9-17.6 8.7-8.8 3.9-8.7 3.7-8.9 3.2-8.6 3.1-8.7 2.7-8.7 2.6-8.7 2.1-8.7 1.9-8.7 1.6-8.6 1.3-25.7 3-27.8 2.5-28.4 1.7-28.2 0.8-27.1 0.3-26-0.8-25.1-1.3-23.4-2.2-21.7-2.8-20.3-3.6-9.6-2-9-2.2-8.9-2.5-8.3-2.5-7.8-2.7-7.7-2.8-7-3.2-6.8-3.1-6.3-3.4-6-3.6-5.5-3.8-5.2-3.9-14.2-11.2-12.6-9.2-11.6-7.7-11.3-6.5-11.2-5.5-11.2-4.6-11.1-3.6-11.4-2.7-10.2-1.5-10.3-0.9-21-1.4-21.3-2.4-21.8-3.2-22-4.3-22.4-5.2-22.7-6-23-7.1-23.4-7.9-18.2-6.9-17.7-7.5-17.2-8-16.7-8.9-16.3-9.3-15.7-9.9-15.3-10.6-14.7-11.2-8.2-6.6-7.9-6.8-8-7-7.7-7.3-7.5-7.5-7.5-7.5-14.2-15.9-13.7-16.6-13.1-17.6-12.4-18.2-11.8-19-5.7-13.1-5.4-13.3-5-13.1-4.8-13.2-4.6-13.2-4.1-13.3-3.9-13.3-3.7-13.2-3.2-13.4-3.1-13.3-2.7-13.4-2.4-13.5-2.2-13.3-1.9-13.5-1.5-13.5-1.2-13.5-1.2-16.2-0.7-16.4-0.3-16.4 0.3-16.4 0.5-16.3 1.1-16.5 1.4-16.5 1.9-16.5 3.8-26.8 4.4-26.4 5-26.3 5.7-26 6.4-25.8 7.2-25.6 7.7-25.3 8.4-25.1 5.8-16.1 6.1-16 6.4-16 6.7-15.9 6.9-15.7 7.3-15.6 7.4-15.5 7.8-15.5 80-156 0.7-1.5 0.3-1.4v-1.4l-0.2-1.1-0.6-1-0.8-1-2.6-1.5-45-19.2-46.4-20.4-14.2-6.6-14.1-6.6-14-7-13.7-7-13.6-7.3-13.4-7.6-13.2-7.7-13.1-7.9-12.9-8.2-12.7-8.3-12.6-8.6-12.3-8.7-12.3-8.9-12.1-9.2-11.8-9.5-11.7-9.4-15-12.9-14.6-12.9-14.4-13.5-14.1-13.7-13.7-14.2-13.5-14.4-13.2-14.8-13-15.2-12.6-15.4-12.4-15.9-12-16.2-11.8-16.5-11.4-16.9-11.2-17.1-11-17.7-10.6-17.9-1.2-1.7-1.7-1.5-1.9-1.2-2-0.7-2.1-0.4-2.2 0.1-2.1 0.5-2 0.9-10.2 6.3-9.9 6.6-9.5 6.9-9.2 7-9 7.5-8.7 7.7-8.3 7.9-7.9 8.2-2.8 2.6-3 2.4-3.2 2.2-3.4 1.7-3.5 1.5-3.6 1.3-3.7 0.8-3.8 0.5-3.9 0.1-3.8-0.1-3.7-0.7-3.8-0.9-3.7-1.2-3.4-1.5-3.4-1.9-3.1-2.2-1.8-1.6-1.8-2.3-1.2-2.7-0.9-3.2-0.4-3.6 0.2-4.1 0.5-4.4 1-4.9 1.5-5.3 1-2.5 1.2-2.4 1.6-2.3 1.7-2 10.2-10.1 10.7-10.2 11.2-10.3 11.9-10.2 12.2-10.4 12.9-10.4 13.4-10.4 13.9-10.6 1.8-1.5 1.5-1.9 1.2-1.9 0.9-2.3 0.6-2.2 0.3-2.4-0.1-2.4-0.5-2.3-58.6-199.9-1.2-2.5-0.7-1.1-1-0.6-1-0.5-1.3-0.2-2.8 0.1-16.5 3.3-16.6 3.5-16.6 4-16.6 4.3-16.8 4.5-16.8 4.9-16.8 5.3-16.9 5.7-3.7 1.1-3.5 0.8-3.4 0.5-3.2 0.3-3.1-0.2-2.9-0.5-2.8-0.7-2.6-1-2.7-1.4-2.5-1.8-2.2-2.1-2.2-2.4-2-2.8-1.9-3.1-1.6-3.4-1.5-3.8-0.9-3.7v-1.6l0.2-1.8 0.4-1.5 0.8-1.6 2.2-2.9 5.9-5.7 6.7-5.5 7.2-5.3 7.9-5.2 8.6-4.9 9.2-4.9 9.8-4.7 10.4-4.4 11.2-4.3 11.6-4 12.1-3.9 12.6-3.5 12.9-3.3 13.1-3 13.4-2.7 13-2.1 2.1-0.5 1.8-0.7 1.5-1 1.2-1.1 0.9-1.5 0.7-1.7 0.2-2v-2.1l-1.4-22.9-1.1-23-0.6-22.8-0.3-22.8 0.1-22.5 0.5-22.7 0.9-22.4 1.3-22.4 1.7-22.3 2.1-22.3 2.3-22.1 2.9-22.2 3.3-21.9 3.5-21.9 4.1-21.8 4.4-21.8 4.5-20.4 4.8-20.3 5.2-20.1 5.5-20.2 5.9-20 6.2-20.1 6.6-19.9 6.9-19.9 7.2-19.7 7.5-19.7 8-19.7 8.3-19.6 8.6-19.4 9-19.4 9.2-19.4 9.7-19.3 0.9-2.4 0.1-2.4-0.5-2.2-1.2-2.3-5.5-7.4-10-14.5-9.5-14.9-8.9-15.2-8.3-15.8-7.7-16.1-7.3-16.5-6.7-16.9-6.1-17.3-10-32-9.2-31.9-8.1-32.2-7.2-32.2-6.1-32.3-5.2-32.4-4.2-32.3-3.2-32.7-1.4-19.1-0.9-17.3-0.4-17.9v-18.7l0.5-20.1 1-20.6 1.4-22.6 1.9-24.9 2.9-33.9 0.9-9.7 2-20 2.3-19.8 2.7-19.4 3.1-19 3.5-18.6 3.9-18.1 4.1-17.6 4.6-17.3 4.9-16.7 5.3-16.3 5.7-15.6 5.9-15.3 6.3-14.7 6.6-14.1 7.1-13.7 7.3-13.1 4.9-7.7 5.8-7.6 6.6-7.3 7.3-7.2 8-6.8 8.7-6.7 9.5-6.3 10.2-5.9 10.8-5.6 11.4-5.3 11.8-5 12.1-4.2 12.2-3.7 12.4-3.1 11.9-2.4 11.5-1.7 17.5-1.7 17.6-1.3 18.1-0.7 18.1-0.2 18.4 0.3 18.6 0.9 18.8 1.3 19 1.9 17.3 2.2 17.2 2.4 17.4 2.6 17.2 2.9 17.4 3.3 17.3 3.5 17.3 3.8 17.5 4.2 17.5 4.4 17.5 4.6 17.7 5.1 17.6 5.3 17.8 5.5 17.9 5.9 17.7 6.2 18 6.5 36.2 13.8 36.6 15.1 37.3 16.4 38.1 17.9 38.9 19.1 40.2 20.8 41.4 22.4 43.5 24.3 3 1.4 3.2 0.5 2.9-0.2 3-1 19.8-8.9 19.8-8.3 20.1-8.2 20.2-7.6 20.5-7.5 20.5-7 20.8-6.8 20.9-6.5 21.2-6 21.6-5.8 21.5-5.4 21.8-5.2 21.9-4.8 22.3-4.5 22.4-4 22.7-3.9 22.8-3.4 23.2-3.3 23.2-2.8 23.7-2.6 23.6-2.2 24.2-1.9 24.2-1.6 24.6-1.3 24.8-0.8 25.2-0.7 25.4-0.4h25.7l26.1 0.4 26.4 0.5 26.7 1 27 1.3 23.2 1.4 23.2 1.7 23.1 2.3 22.9 2.5 22.9 2.9 22.9 3.4 22.7 3.7 22.8 4.1 19.4 3.8 19.6 4.2 19.4 4.4 19.2 4.6 19.3 5.1 19.3 5.2 19.1 5.6 19.2 5.8 19 6.1 19 6.4 19 6.7 18.9 7 18.9 7.2 18.8 7.6 18.8 7.9 18.6 8.1 4.1 1.2 1.8 0.3h2.1l3.7-0.8 3.7-1.6 22.8-13.4 22.7-13.1 22.5-12.5 22.4-12.2 22.3-11.7 22.3-11.2 22.1-11 21.9-10.3 21.8-10.1 21.8-9.5 21.5-9.2 21.6-8.9 21.4-8.3 21.3-8 21.2-7.5 21-7.1 21-6.7 20.9-6.3 20.8-5.9 20.8-5.6 20.6-5 20.5-4.7 20.5-4.1 20.3-4 20.3-3.4 20-3 20.1-2.5 19.9-2.3 19.9-1.7 19.6-1.3 19.8-1 19.5-0.5 17.8 0.1 17.6 0.9 17.3 1.9 16.9 2.5 16.3 3.4 15.9 4.2 15.1 4.9 14.5 5.7 13.6 6.4 12.9 7 6.1 3.8 6 3.9 5.6 4.2 5.6 4.3 5.1 4.4 5.2 4.6 4.8 4.7 4.7 4.9 4.4 5.2 4.1 5.1 4.1 5.5 3.7 5.5 4.7 7.8 4.4 8.2 8.4 18 8.1 18.7 7.3 19.5 6.9 20.3 6.3 20.9 5.8 21.6 5.3 22.6 4.8 23.2 4.2 24 3.6 24.7 3.3 25.6 2.5 26.3 2.2 27.4 1.6 28.2 1.1 29.1 0.7 30.4v20.5l-0.4 20.5-0.9 20.4-1.3 20.4-1.6 20.3-2.1 20.3-2.6 20.2-3 20.1-3.8 21.9-4.2 22.1-5 21.8-5.2 21.8-6 21.6-6.3 21.6-6.9 21.5-7.4 21.4-5.1 13.7-5.3 13.4-5.5 13.3-5.9 13.1-6.1 12.9-6.4 12.9-6.5 12.7-7 12.5-1.7 2.8-2.2 2.7-6.5 7.2-4.4 4.5-2.8 3.3-2 3-1.5 3.1-0.9 2.9-0.1 3 0.5 3 1 2.8 9.5 19 9.2 19.2 8.9 19.1 8.4 19.3 8.2 19.3 7.9 19.4 7.5 19.5 7.1 19.5 6.8 19.7 6.6 19.6 6.2 19.8 5.8 19.8 5.4 19.9 5.1 20 4.8 20 4.6 20.2 4.4 21.8 4 21.8 3.7 22 3.2 22.1 2.9 22 2.6 22.2 2.1 22.3 1.6 22.4 1.4 22.4 0.9 22.6 0.5 22.7 0.1 22.6-0.2 22.9-0.7 22.9-1.1 22.9-1.4 23.1v2.2l0.3 1.9 0.6 1.8 0.9 1.5 1.3 1.3 1.5 1 1.9 0.8 2.1 0.5 26.5 5.6 23.5 5.8 10.8 3 10.5 3.3 10 3.3 9.7 3.5 9.3 3.8 9 3.9 9 4.1 8.6 4.3 8.3 4.7 8 4.8 7.8 5 7.7 5.3 3.7 3 2.8 3.2 2 3.2 1.1 3.6 0.3 3.6-0.5 3.8-1.4 3.9-2.2 4.2-3.5 5-3.8 4-4.1 3.1-2.2 1.1-2.2 0.9-4.5 1-4.5 0.2-4.8-0.6-5.1-1.4-16.5-5.4-16.7-5.2-16.9-5-17.1-4.7-17.4-4.5-17.6-4.2-17.8-4-18-3.8-1.8-0.2h-1.6l-1.4 0.4-1.1 0.6-1.1 0.9-0.9 1.1-0.8 1.4-0.5 1.8-6.2 25.3-6.4 25-6.7 24.9-7 24.5-7.2 24.3-7.6 24-7.9 23.8-8.1 23.5-0.7 2.9-0.3 2.9 0.2 3.1 0.6 2.9 1.1 2.7 1.5 2.6 2 2.3 2.3 1.9 15.1 11.1 14.5 11.1 13.6 11 12.9 10.8 12.1 11 11.3 10.8 10.6 10.7 9.8 10.7 3.2 4 2.2 4.2 1.5 4 0.7 4.2-0.3 4.3-1.1 4.1-2 4.3-2.8 4.3-2.6 2.9-3.4 2.5-3.9 1.9-4.5 1.3-4.9 0.6-5.5 0.1-6.1-0.5-6.5-1.1-7.2-1.8-4.5-1.6-4.3-2.2-4-2.9-3.6-3.2-8.4-8.8-9-8.5-12.3-10.8-13.1-10-13.6-9.3-14.4-8.7-1.9-0.9-2-0.4-2.1-0.1-2 0.4-1.9 0.8-1.8 1-1.5 1.5-1.3 1.6-13.8 23.1-14.4 22.4-14.6 21.9-15.1 21.2-15.5 20.6-16 19.9-16.4 19.4-16.7 18.8-17.2 18.2-17.6 17.5-17.9 16.8-18.4 16.4-18.9 15.6-19.1 15.2-19.7 14.3-20 13.9-13.1 8.6-24.8 15.3-25.6 15-26.1 14.2-26.8 13.9-27.5 13.2-28.1 12.8-28.8 12.2-29.5 11.7-1.9 0.9-1.6 1-1.2 1.2-0.7 1.4-0.4 1.5 0.1 1.7 0.4 1.7 0.9 2.1 32.2 63.6 27.4 53.9 19.5 39.3 16.9 36 14.8 33.3 13.6 32.9 6.3 16 5.8 15.7 5.6 15.6 5.2 15.7 4.9 15.3 4.5 15.3 4.9 17.7 4.4 17.7 4.1 17.6 3.5 17.5 3.1 17.5 2.8 17.5 2.3 17.4 1.9 17.4 1.3 17.4 1.1 17.3 0.6 17.2 0.1 17.3-0.2 17.1-0.8 17.1-1.1 17.2-1.5 17-3.3 25.6-4.2 25.5-5.1 25.6-6.1 25.3-7.2 25.2-8 25.2-9.1 25.1z"/>
	<g id="Layer">
		<path id="Layer" fill-rule="evenodd" class="s1" d="m1254.3 291.9l2.7 7.2 14.3 39.4 13.2 34.7 13.5 32.7 13.5 30.5 13.5 28.5 6.7 13.2 6.8 12.7 6.5 12 6.7 11.4 6.5 10.9 6.6 10.1 6.5 9.5 6.5 9 6.4 8.2 6.4 7.5 6.3 7.1 6.3 6.2 6.3 5.8 6.2 4.9 6 4.4 6.2 3.8 5.9 3 6.1 2.4 5.9 1.7 5.8 1.2 5.8 0.5 5.8-0.3 6-0.9 6.1-1.6 3.6-1.5 3.3-2.3 3.3-2.8 3-3.5 2.9-4.1 2.7-4.7 2.3-5.5 2.3-6 2-6.8 1.9-7.1 1.7-8 1.3-8.5 1.3-9.2 1-9.9 1.5-21.5 0.8-23.8-0.1-26.4-0.9-28.7-1.8-31.2-2.4-33.2-3.3-35.6-3.9-37.5-5.1-44.4-2.4-20.4"/>
		<path id="Layer" fill-rule="evenodd" class="s1" d="m1640.9 201.9l0.7 24.4 1.1 24.1 1.5 23.9 2 23.6 2.4 23.3 2.9 23.2 3.3 22.8 3.8 22.7 4.1 22.3 4.6 22.2 5 21.9 5.6 21.5 5.9 21.5 6.3 21.1 6.8 20.8 7.3 20.7 4.1 10.2 4.8 9.9 5.6 9.7 6.3 9.6 6.9 9.2 7.7 9.1 8.4 8.9 9.1 8.6 2.5 1.9 2.7 1.4 2.9 0.7 3.1 0.4 12.7 0.6 14.9 0.6h11.1l9.8-0.6 8.7-1.2 7.8-2.2 3.7-1.2 3.4-1.6 3-1.7 3-1.9 2.7-2.1 2.5-2.4 3.5-4.1 5.2-7.2 4.9-7.4 4.5-7.2 4.3-7.4 4-7.6 3.8-7.5 3.7-8 3.2-7.9 3.2-8.1 2.9-8.3 6.8-21.1 6.4-21.2 6.2-21.3 5.7-21.4 7.5-31.9 7-32 5.9-32.2 5-32.5 4.3-32.8 3.4-32.9 2.6-33.1 1.7-33.4"/>
		<path id="Layer" fill-rule="evenodd" class="s1" d="m2105.7 225.6l-1.8 16.2-6.4 59.9-4.3 43.7-3 39.5-2 36-1.2 34.9-0.1 16.6 0.1 16.3 0.5 15.8 0.7 15.7 0.9 15.2 1.2 14.9 1.4 10.4 2.1 10.1 2.9 9 1.8 4.2 1.9 3.9 2 3.4 2.2 3.5 2.2 2.8 2.5 2.8 2.7 2.3 2.8 2.1 2.7 1.7 3.1 1.5 3 1 3.1 0.7 3.2 0.5 3.2 0.3 3.4-0.1 3.7-0.3 3.7-0.7 3.7-0.9 7.7-2.5 7.8-3.3 7.6-4 7.5-4.7 7.5-5.4 7.3-6.2 7.4-6.9 7.3-7.6 7.2-8.3 7.1-9.1 7-9.7 6.9-10.3 6.9-11.1 6.6-11.7 6.5-12.2 6.3-12.9 10.8-23.3 10.6-23.4 10.4-23.6 10.1-23.9 10-23.9 9.5-24.2 9.5-24.3 9.2-24.6"/>
		<path id="Layer" fill-rule="evenodd" class="s1" d="m3243.4 152.4l-6.2 2.8-6.6 2.5-7 2.3-7.3 2-7.8 1.6-8.2 1.4-8.4 1.2-9 0.8"/>
		<path id="Layer" fill-rule="evenodd" class="s2" d="m3006.1 2199.1l-5-18.9-5.2-18.5-5.7-18.2-6.3-17.7-6.6-17.3-7-17-7.6-16.5-7.9-16.1-8.3-15.8-8.8-15.2-9.4-15-9.7-14.5-10-14.1-10.6-13.7-11-13.3-11.5-12.9-8.5-9.1-13.2-13-14.7-13.2-16.2-13.4-17.5-13.4-19.2-13.8-20.5-13.8-22.1-14-23.5-14.2"/>
		<path id="Layer" fill-rule="evenodd" class="s3" d="m2720.1 1826.5l12.7-7.1 12.4-7.4 11.7-7.6 11.2-7.8 10.7-7.9 10.2-8.4 9.7-8.4 9.2-8.8 8.7-9 8.2-9.2 7.7-9.4 7-9.6 6.7-9.9 6-10.1 5.6-10.3 5.1-10.6 2.1-4.7 4.8-11.8 4.4-12 3.9-12.1 3.4-12.2 3-12.2 2.5-12.4 2.2-12.4 1.6-12.4 1.1-12.5 0.8-12.4 0.1-12.5-0.2-12.5-0.7-12.4-1.1-12.3-1.8-12.3-2-12.2-2.6-12.3-3.1-12-3.4-11.9-3.9-11.7-4.4-11.6-4.8-11.5-5.3-11.2-5.6-10.9-6.1-10.9-6.4-10.4-6.9-10.2-7.2-10.1-7.7-9.7-8.1-9.3-8.3-9.1-8.7-8.7-9-8.6-9.5-8-9.7-7.7-10.1-7.4-10.3-7-10.6-6.5-10.8-6.1-11.1-5.8-11.3-5.3-11.7-4.9-11.8-4.5-12.1-4-12-3.7-12.5-3.1-12.6-2.8-12.7-2.3-11.3-1.6-11.3-1.3-11.3-1-11.2-0.5-11.3-0.2-11.2 0.1-11.2 0.5-11.2 0.9-11.2 1.1-11.1 1.6-10.9 1.9-10.9 2.3-10.8 2.6-10.7 2.9-10.6 3.4-10.5 3.6-10.3 4-10.2 4.3-10 4.7-9.8 5-9.7 5.3-9.4 5.5-9.3 5.9-9.1 6.2-8.8 6.6-8.6 6.8-8.3 7-8.2 7.3-7.8 7.6-7.6 7.9-7.3 8.1-7.2 8.4-5.6 7.3-5.6 7.5-5.4 7.7-5.2 7.8-4.9 7.9-4.6 8.2-4.4 8.2-4.3 8.3-3.9 8.4-3.8 8.7-3.5 8.7-3.3 9-3 8.9-2.8 9.1-2.5 9.2-2.3 9.3-2.9 14.2-2.4 14.3-1.5 14.3-1 14.4-0.3 11.5 0.2 11.6 0.6 11.4 1 11.6 1.4 11.6 1.9 11.6 2.4 11.6 2.7 11.6 3.2 11.7 3.5 11.6 4.1 11.7 4.5 11.7 4.9 11.7 5.3 11.7 5.8 11.9 6.2 11.7"/>
		<path id="Layer" fill-rule="evenodd" class="s2" d="m2272.9 1719l-6.3-1.8-6.2-1.9-6.1-2.2-5.8-2.7-8.3-4.1-7.9-4.8-7.6-5.3-7.4-5.9-7.2-6.6-6.8-7-6.5-7.7-6.3-8.3-11.4-15.2-11.8-14.6-9.7-11.1-10-10.7-10.3-10.4-10.7-10.2-11.1-10-11.5-9.8-11.8-9.4-12.2-9.2-12.7-9.1-13.1-8.8-13.6-8.7-14.3-8.6-14.6-8.3-15.2-8.3-15.9-8.2-16.6-8.2-18.7-8.4-18.8-7.6-18.6-6.4-18.8-5.3-18.6-4.4-9.3-1.8-9.5-1.5-9.3-1.4-9.3-1-9.4-0.7-9.4-0.6-9.6-0.2h-9.6l-9.7 0.2-9.5 0.7-9.7 0.7-9.7 1.2-9.9 1.4-9.7 1.6-9.8 1.9-9.7 2.1-9.8 2.4-9.8 2.7-19.8 6.3-20 7.3-20.1 8.4-20.3 9.5-20.6 10.5-20.8 11.9-21.3 13-21.7 14.1-22 15.3-22.8 16.9-5.8 4.7-6.1 5.4-6.4 6.2-6.7 6.9-7 7.8-7.4 8.6-15.8 19.5-9.3 11.5-9.7 10.9-10.1 10.5-10.3 9.8-10.9 9.3-10.9 8.8-11.5 8.2-11.7 7.7-11.3 6.7-11.6 6.2"/>
		<path id="Layer" fill-rule="evenodd" class="s3" d="m1325.9 1719.4l7.5-16.7 6.8-16.5 6.2-16.3 5.4-16.3 4.7-16 4.1-15.9 3.3-15.6 2.7-15.6 1.9-15.4 1.2-15.1 0.6-15.1-0.2-14.9-0.8-14.7-1.6-14.5-2.3-14.4-2.9-14.2-3.5-13.5-4-13.2-4.8-13.1-5.3-13-6.1-12.8-6.6-12.6-7.2-12.6-7.9-12.4-10.3-14.5-10.8-13.7-11.5-13.2-11.9-12.5-12.7-11.8-13.3-11.1-13.8-10.5-14.3-9.7-7.8-4.8-7.9-4.6-16.1-8.6-16.7-7.6-17-6.8-17.4-5.8-17.6-4.7-18-3.9-18.2-2.9-18.3-1.9-18.6-1h-18.5l-18.6 1.1-18.4 1.9-18.5 3-18.3 4-18.2 5-14.4 4.6-14 5.3-13.9 6-13.5 6.5-13.2 7.2-12.7 7.8-12.5 8.3-12 8.9-11.9 9.7-11.5 10.4-11.1 10.8-10.3 11.5-10 11.8-9.3 12.3-8.7 12.8-8 13.1-7.6 13.4-6.8 13.9-6.2 14.2-5.4 14.5-4.8 14.8-4.1 14.8-3.3 15.2-2.6 15.2-2.1 15.9-1.1 16-0.4 16.1 0.4 16.1 1.3 16 1.9 16.1 2.8 15.9 3.6 15.9 3.1 11.6 3.6 11.3 3.9 11.1 4.2 10.8 4.7 10.6 5 10.4 5.6 10 5.8 10 5.7 8.7 5.9 8.4 6.1 8.3 6.7 8.2 6.8 8 7.2 7.6 7.6 7.6 7.8 7.3 8.2 7.2 8.4 6.9 8.8 6.7 9.2 6.5 9.3 6.3 9.9 6.2 10 5.9 10.4 5.8"/>
		<path id="Layer" fill-rule="evenodd" class="s2" d="m876.9 1826.8l-25.3 14.8-24 14.8-11.3 7.7-11.1 7.6-10.7 7.8-10.3 7.8-10.1 7.8-9.6 8-9.3 8-9 8.1-8.5 8.2-8.3 8.2-7.9 8.3-7.5 8.3-2.5 2.9-10.6 12.7-10.2 13-9.8 13.3-9.4 13.8-9 14-8.6 14.3-8.2 14.8-7.7 15.1-7.4 15.3-6.9 15.8-6.7 16.1-6.2 16.5-5.7 16.8-5.4 17.1-5 17.5-4.6 17.9"/>
		<path id="Layer" fill-rule="evenodd" class="s4" d="m419.2 168.8l-13-2.8-13-2.4-13.1-2-13.1-1.7-3.6-0.4-2.2-0.5-1.8-1-1.6-1.5-1.1-1.9-0.6-2.5-0.4-2.9v-3.6l0.3-3.9 0.7-4.5 1.1-4.9"/>
		<path id="Layer" fill-rule="evenodd" class="s2" d="m2542.5 2396.6l-6.7-0.3h-6.4l-6.3 0.2-6.3 0.5-6 1-5.9 1.3-5.8 1.5-5.5 1.9"/>
		<path id="Layer" fill-rule="evenodd" class="s5" d="m2493.6 2402.7l-74.6 7.5-74.3 8-74 7.9-73.6 8.3-74.7 8.1-34.2 3.4-32.4 3-30.4 2.4-28.3 2-26.5 1.7-24.3 1.1-36.6 1.3-36.7 0.8-36.7 0.5-36.6 0.2-37.6-0.2-37.4-0.6-37.5-0.9-37.4-1.2-24.6-1.2-26.5-1.5-28.4-2-30.4-2.5-32.2-2.9-34.3-3.3-74.5-8-148.7-16.5-149.5-15.8"/>
		<path id="Layer" fill-rule="evenodd" class="s2" d="m1100.7 2402.3l-5.5-1.8-5.5-1.5-5.6-1.1-5.7-0.9-5.1-0.5-5.2-0.2h-5.3l-5.3 0.2"/>
		<path id="Layer" fill-rule="evenodd" class="s6" d="m2720.1 1826.5l-10.5 4.9-10.4 4.6-10.6 4.3-10.5 3.9-10.4 3.7-10.5 3.4-10.4 2.9-10.5 2.7-10.4 2.3-10.5 2-10.5 1.8-10.4 1.4-10.5 1-10.4 0.7-10.5 0.4-10.4 0.1-10-0.2-10.1-0.5-9.9-0.9-10-1.1-9.9-1.4-10.1-1.8-10-1.9-9.9-2.4-10-2.5-9.9-2.9-10.1-3.3-9.9-3.5-10-3.8-10-4-9.9-4.4-10-4.7-11.4-5.9-11.1-6.3-10.8-6.8-10.5-7.2-10.8-8.4-10.6-8.8-10.1-9.5-9.8-10.1-9.3-10.4-9-11.1-8.6-11.6-8.1-12.2"/>
		<path id="Layer" fill-rule="evenodd" class="s7" d="m680.5 546.4l-39.8-49-33.3-40.2-27.1-31.4-11.1-12.3-9.4-10.1-15.9-16.3-18-17.6-20.2-19.2-22.1-20.5-24.3-21.9-26.2-23.4-28.5-25-30.5-26.3-5.2-4.2-5.1-3.5-5.1-3.1-5.1-2.6-5.2-1.9-5.3-1.5-5.2-0.8-5.1-0.4-5.7 0.2"/>
		<path id="Layer" fill-rule="evenodd" class="s8" d="m3260 204.5l-11.3 1.2h-3.1l-1.6-0.4-1.2-0.5-2-1.7-1.7-2.7-2.7-4.9-3.1-4-3.5-3.3-3.9-2.3-2.9-1-2.9-0.6-3.1-0.2-3.3 0.1-3.6 0.5-3.6 1-3.8 1.3-4 1.6"/>
		<path id="Layer" fill-rule="evenodd" class="s6" d="m1325.9 1719.4l-10.4 14.1-10.7 13.3-11.2 12.6-11.7 12-12.1 11.2-12.6 10.6-13.1 9.7-13.5 9.1-12.1 7.3-12.3 6.8-12.7 6.2-13.1 5.6-18.9 7.2-19.1 6.2-18.9 5.1-18.7 4.2-9.5 1.6-9.4 1.4-9.3 1.2-9.5 0.8-9.3 0.7-9.5 0.3-9.3 0.2-9.3-0.2-9.7-0.5-9.6-0.6-9.6-1-9.5-1.3-9.6-1.5-9.6-1.9-9.6-2-9.5-2.4-9.6-2.5-9.5-2.9-9.5-3.3-9.5-3.4-9.6-3.6-9.4-4-9.6-4.3-9.4-4.6"/>
		<path id="Layer" fill-rule="evenodd" class="s9" d="m1100.7 2402.3l9.5 7.9 8.9 8.4 8.1 8.4 7.6 8.8 1.3 1.7 2.6 2 2.7 1.7 3.1 1.5 3.4 1.2 3.9 1.2 3.5 1.6 3 1.6 2.8 1.9 41.7 33.6 40.9 32.5 40.5 31.4 39.7 30.2 9.3 6.6 11.1 6.7 12.7 6.9 14.3 7"/>
		<path id="Layer" fill-rule="evenodd" class="s2" d="m1371.3 2605.1l8.2 4.3 7.8 5.1 4.6 3.2 4.3 3.7 4.2 3.8 4.1 4.1 3.9 4.3 3.6 4.5 3.6 4.8 3.4 5.1"/>
		<path id="Layer" fill-rule="evenodd" class="s1" d="m1419 2648l-10.6-2.8-10.8-2.4-11-2.1-11.2-1.8-11.4-1.5-11.4-1.1-11.5-0.9-11.6-0.5-11.4-0.2-11.6 0.2-11.6 0.5-11.5 0.9-11.3 1.1-11.2 1.5-11.1 1.9-11.1 2.1-10.6 2.4-10.6 2.8-10.2 3-10.2 3.3-9.8 3.6-9.7 4-9.3 4.1-9.2 4.5-8.8 4.8-8.6 5.1-8.3 5.3-8.1 5.5-7.7 5.8-7.4 6.2-7.2 6.3-6.8 6.5-3.8 4.1-3.4 4.1-3 4.2-2.6 4.3-2.3 4.2-1.8 4.4-1.5 4.6-1.1 4.5-0.6 4.4-0.4 4.4v4.6l0.4 4.5 0.6 4.7 1.1 4.8 1.3 4.7 1.7 4.8 0.5 1.2 1.8 3 2.4 2.6 2.9 2 3.3 1.6 3.4 0.6 3.5 0.1 3.5-0.7 3.3-1.4 13.7-7.5 13.9-7 13.9-6.7 13.9-6.3 14-5.9 14-5.6 14-5.1 14.1-4.8 14.1-4.5 14.2-4.1 14.3-3.6 14.2-3.4 14.4-3.1 14.3-2.5 14.4-2.2 14.4-1.9 17.8-1.8 17.9-1.3 18.1-0.6 18-0.1 18.1 0.5 18.2 1 18.2 1.5 18.3 2.2 1.6 0.1 1.4-0.1 1.1-0.4 0.9-0.6 0.7-0.9 0.3-1.2v-1.5l-0.1-1.6-1.4-5.7-1.9-5.8-2.6-5.6-3.2-5.7-3.9-5.7-4.5-5.5-5-5.7-5.8-5.5"/>
		<path id="Layer" fill-rule="evenodd" class="s2" d="m1453.4 2672.2l22.3 10.3 20.6 10.2 4.3 2.4 4 2.6 3.4 2.9 3.2 3.2 4.9 5.6 5.8 7.7 5 6.5 3.8 4.5 3.8 4 4 3.7 3.8 3 4 2.8 3.8 2.4 11.9 7.8 8.1 6.3 3.4 3.1 2.9 2.9 2.4 3 1.9 2.9 1 1.6 1.4 0.8 2 0.4 2.4-0.4 2.7-0.5 2.7 0.5 2.4 1.3 1.9 1.9 16.2 23.3 15.5 23.7 14.8 23.9 14.1 24.2 13.4 24.4 12.8 24.9 12.1 25.2 11.4 25.3 5.9 13.8 1.4 2.7 1.9 2.4 2.4 1.9 2.7 1.6 14.9 6.7"/>
		<path id="Layer" fill-rule="evenodd" class="s9" d="m1736.7 2999.6l-6.4 0.7-6.7 0.2-6.8-0.5-6.9-1"/>
		<path id="Layer" fill-rule="evenodd" class="s1" d="m1536.4 2808.3l-3 1.6-3.1 0.6h-3.1l-3.3-0.9-3.4-1.6-3.4-2.4-3.5-3.3-3.5-4-3.7-4.8-3.8-5.6-2.2-3-2.8-2.6-3.2-2.3-3.4-1.6-6.4-2.3-6.5-2-6.7-1.8-6.8-1.5-7-1.1-7-0.9-7.1-0.6-7.3-0.4h-7.3l-7.5 0.2-7.6 0.7-7.7 0.7-7.8 1.1-7.9 1.4-8.1 1.7-8.2 2-19.4 5.3-18.9 5.8-17.9 6.3-17.4 6.8-16.5 7.2-15.8 7.8-15.1 8.2-14.4 8.6-13.6 9.2-12.9 9.6-12.1 10.1-11.3 10.6-10.6 11.1-9.9 11.4-9.1 12.1-8.4 12.5-7.9 13.2-1 2.3-0.6 2.3-0.1 2.2 0.2 2.3 1.4 6.2 1.9 5.9 2.7 6 3 6 3.8 5.6 4.1 5.6 2.7 2.7 3.1 2.3 3.4 1.9 3.7 1.3 3.7 0.6 3.8 0.1 3.9-0.5 3.7-1 18.1-7.3 18-8.1 17.6-8.9 17.3-9.7 9.9-5.6 10.3-5.2 10.8-5.2 11.4-5.1 11.8-4.7 12.2-4.7 12.8-4.5 13.2-4.3 13.7-4.2 14.2-4 14.8-3.9 15.2-3.7 16-3.5 16.5-3.5 35.3-6.6 7.4-1.5 7.3-1.7 7.1-2.1 6.8-2.4 6.7-2.7 6.4-2.9 6.3-3.4 6.1-3.7 5.1-3.4 4.9-3.5 4.7-3.9 4.7-4"/>
		<path id="Layer" fill-rule="evenodd" class="s10" d="m1662.2 3106l-14.1 1.7-14.1 0.7-14.3 0.2-14.4-0.7-14.6-1.5-14.6-2.3-14.9-2.9-14.9-3.7-63.8-17.3-17.9-4.7-8.6-1.7-9.9-0.9-9.9-0.5-9.8-0.3-9.7 0.3-9.7 0.4-9.7 0.9-9.6 1.1-9.4 1.5-14.5 3-14.4 3.8-14.2 4.7-14 5.4-14 6.2-13.7 7-13.6 7.8-13.5 8.6-56.9 37.8-55.6 35.8-1.3 0.6-1.6 0.5h-1.6l-1.7-0.3-1.6-0.6-1.3-1-1.1-1.3-0.9-1.3-0.5-1.7-1.4-6.3-1.9-5.9-2-5.4-2.5-5.2-3.8-6.5-4.5-6.3-5.7-6.6-8.3-8.7-12.3-13.2-10.9-11.8-15.5-15.8-16-16.2-11.1-12.3-9.4-11.6-4-5.5-3.7-5.5-9.6-14.4-10-14.1-10.7-14-11.4-13.9-2.8-2.9-3-2.6-3.4-2.3-3.5-1.9-3.8-1.5-3.8-1.1-4-0.6-4-0.3-8.2 0.3-8.2 1-6.6 1.2-6.5 1.9-6.4 2.3-6.3 2.8-4.9 2.6-4.5 3-5.1 4.6-4.7 5.1-4.1 6-3.6 6.6-0.5 1-9.9 21.7-3.4 8.2-2.7 7.7-2.2 7.5-1.8 7.4-1.3 7.3-0.7 7.1-0.3 8.9 0.5 8.9 2.4 29.4 1.8 29.6 1.1 29.6 0.7 29.8v30l-0.7 30.1-1.1 30.4-1.8 30.3"/>
		<path id="Layer" fill-rule="evenodd" class="s1" d="m708.3 3045.7l1.8-7.3 1-6.2 0.7-6.2 0.4-6.4 0.1-6.7-0.1-6.6-0.5-7.2-1.9-18.4-1.5-13.1-0.7-9.6-0.3-8.7 0.3-8.2"/>
		<path id="Layer" fill-rule="evenodd" class="s10" d="m856.5 2526.4l22.8-0.6 24.9-1.4 27.5-1.9 37.6-3.2 45-3.7 32.9-2.2 6.6-0.6 6.3-1 5.7-1.7 5.7-2 4.2-2 4.1-2.3 4.1-2.7 4-3 4.2-3.6 4.2-4 11-11.5 8.9-9.3 2.3-2.6 1.9-2.8 1.5-2.9 1-2.9 0.6-4.2-0.1-4.4-1-4.5-1.6-4.8-3.8-7.8-4.5-6.9-2.4-3.3-2.7-3-2.9-2.8-2.9-2.5-4.3-3.3-4.5-2.8-4.9-2.5-5.2-2-5.5-1.8-5.7-1.4-6-1-6.5-0.6"/>
		<path id="Layer" fill-rule="evenodd" class="s10" d="m2515.7 2430.7l-2-1.2-3.5-2.8-2.9-3.5-2.5-4.3-2-4.9-0.7-1.2-0.7-1-1-0.8-1.2-0.5-1.2-0.3h-1.3l-1.2 0.4-1 0.5-1 0.9-5.6 6.6-4.8 6.6-3.9 6.6-2.9 6.4-1.9 6.2-0.9 5.9 0.2 5.6 0.3 2.7 0.8 2.5 1 2.9 1.4 2.7 1.6 2.6 1.9 2.6 5.7 6.4 5.3 5.6 4.9 4.8 4.8 4.3 4.9 3.9 4.8 3.3 4.9 3 5.2 2.5 7.7 3.1 8 2.4 8.7 1.5 9.6 1 47.1 3.3 46.9 3.9 46.6 4.7 46.5 5.5"/>
		<path id="Layer" fill-rule="evenodd" class="s10" d="m2720.8 3345.1l-0.2-33.8v-33.4l0.2-32.8 0.5-32.4 2.4-22.3 6.8-53.8 1.1-10 0.6-10.1v-9.7l-0.5-9.7-1-9.5-1.5-9.3-2.1-9.2-2.5-9-2.7-8-3.2-7.9-3.5-7.7-3.9-7.7-4.4-7.4-5-7.3-5.1-7.3-5.7-7.1-3.8-4-4-3.6-4.2-3-4.5-2.5-5.4-2.1-5.8-1.5-6-0.8h-6.5l-6.7 0.5-7 1.3-7.4 2-7.7 2.6"/>
		<path id="Layer" fill-rule="evenodd" class="s10" d="m2603.9 3008.9l-63.1 69.8-60.6 65.8-5.8 6.8-5.3 7-4.5 7.4-4 7.7-3.7 8.9-3 9-0.6 1.8-1.2 1.5-1.2 1.3-1.7 1-1.7 0.6-1.8 0.1-1.9-0.1-1.7-0.6-1.3-0.8-19.5-13.5-19.7-13.2-19.8-12.8-19.7-12.4-20-12.2-19.9-11.7-20-11.4-20.1-11.1-10.1-5-10.6-4.5-11-4.1-11.3-3.4-11.7-2.9-12.1-2.2-12.2-1.8-12.6-1.1-12.9-0.5h-13.2l-13.2 0.6-13.3 1.3-13.6 1.7-13.3 2.4-13.5 2.9-13.4 3.5-29.9 8.1-29.4 7.3-28.7 6.6-28.1 5.6-4.7 0.7-4.3-0.2-3.7-0.8-3.6-1.6-2.2-1.5-2-1.9-1.9-2.1-1.7-2.6-1.4-3.1-1.2-3.2-1-3.8-0.9-4.1"/>
		<path id="Layer" fill-rule="evenodd" class="s9" d="m2045.8 2773.4l4.1-12 4.3-10.6 4.6-9.2 2.4-4.1 2.5-3.7 2.6-3.3 2.6-3 2.6-2.6 2.8-2.2 2.8-1.9 2.9-1.5 3-1.2 3-0.7 5.2-0.5 5.3 0.5 5.5 1.4 5.7 2.4"/>
		<path id="Layer" fill-rule="evenodd" class="s1" d="m2107.7 2721.2l13.9 0.3 13.7-0.1 13.2-0.4 13.1-0.7 14.4-0.9 14-0.4 13.4-0.2 13.1 0.2 15.7 0.8 15.6 1 15.5 1.6 15.5 1.9 13.7 2 13.6 2.4 13.6 2.8 13.6 3 13.5 3.4 13.5 3.7 13.5 4 13.3 4.3 13.4 4.6 13.2 5.1 13.2 5.3 13.3 5.5 13.2 6.1 13.1 6.3 13.1 6.5 13 6.9 2.9 1.3 3 0.6h3.1l3.2-0.6 2.9-1.3 2.5-1.8 2.1-2.3 1.7-2.7 0.4-0.7 2.6-7.3 1.8-7.4 0.9-7.2v-7.2l-0.7-5.7-1.1-5.5-1.8-5.6-2.1-5.4-2.8-5.4-3.3-5.4-3.7-5.3-4.5-5.2-4.9-5.3-5.4-5-5.9-5.2-6.4-4.9-7-4.9-7.3-4.7-7.8-4.6-8.2-4.4-11.6-5.8-11.7-5.4-11.9-5-12.1-4.5-11.6-3.9-11.7-3.5-11.9-3.2-11.9-2.7-12.1-2.3-12.4-2-12.3-1.7-12.6-1.1-12.6-0.9-12.9-0.5h-13l-13.1 0.3-13.2 0.7-13.3 1.2-13.5 1.3-13.6 1.9"/>
		<path id="Layer" fill-rule="evenodd" class="s9" d="m2197.8 2640l4.8-6.5 5.1-6.4 9-9.9 9.8-9.3 10.5-8.6 11.3-7.9 39.7-26.2 11.4-7.9 6.1-4.3 46.2-37.6 46.8-37.5 47.3-37.7 47.8-37.5"/>
		<path id="Layer" fill-rule="evenodd" class="s11" d="m2197.8 2640l-10.2 3.6-9.7 4.2-5.3 2.8-5.2 2.9-5 3.3-4.9 3.5-4.8 3.7-4.8 4-4.5 4.2-4.5 4.4-4.2 4.8-4.3 4.9-8.1 10.7-7.5 11.6-7.1 12.6"/>
		<path id="Layer" fill-rule="evenodd" class="s5" d="m1928.6 2908.5l2.7-9.3 3.1-9 3.2-8.9 3.4-8.6 3.6-8.4 3.9-8.2 4-7.9 4.3-7.9 4.4-7.5 4.6-7.5 5-7.1 5-7 5.3-6.6 5.5-6.6 5.7-6.3 5.9-6 16.9-17.3 11.7-13 4.1-4.4 4.5-4.1 5.2-4.3 7.3-5.6 8.8-6.6 6.2-5.5 5.1-5.5 4.4-5.8 2-3.3 3.9-6.3 4.1-5.8 4.3-5.4 4.5-5 4.8-4.6 5-4.2 5.3-3.8 5.4-3.4 7.2-3.7 7.6-3 7.9-2.4 8.3-1.8 3-0.6 2.8-1.1 2.2-1.4 2.1-1.6 13.4-11.5 14.1-11.2 2.9-2.5 2-2.6 1.4-2.6 0.7-2.6-0.1-2.3-0.5-2.4-1-2.4-1.7-2.5-2-2.3-2.4-1.5-2.5-0.9-2.9-0.2h-17.6l-18.2-0.9-18.7-1.8-19.3-2.6-11.1-1.2-14.7-0.6h-18.2l-21.8 0.6-25.3 1.2-28.8 1.7-32.5 2.4-35.9 2.9-28 2-30 1.2-32.1 0.5-34.2-0.3-36.4-1-38.4-1.7-40.6-2.4-42.5-3.3-18.9-1.4-19.6-1-20.2-0.9-21.5-0.5-22-0.2h-23.9l-62 0.7h-6.3l-6.5-0.4-6.6-0.7-7-1-14.4-3.1-20-5.1-1.5-0.4-1.6-0.4h-1.5l-1.4 0.3-1 0.5-1 0.7-0.8 1-1 2.9-0.4 3.9 0.5 4.8"/>
		<path id="Layer" fill-rule="evenodd" class="s7" d="m3262.4 207.2l-12.8 5.3-3.2 1.4-2.9 1.7-2.6 1.7-2.7 2-0.2 0.3-64 56.9-52.8 47.5-41.6 38.2-16.6 15.6-13.7 13.4-15.4 15.5-15.7 16.6-16 17.8-16.4 19-16.8 20.1-17.1 21.3-17.5 22.5-17.8 23.6"/>
		<path id="Layer" fill-rule="evenodd" class="s10" d="m1399.1 3350.4l11.2 5.7 16.1 8.9 5.9 2.9 5.9 2.2 6 1.4 6 0.5 4.8-0.1 4.9-0.7 4.9-1.2 4.8-1.7 126.9-50.9 2.5-1.1 2.3-1.4 2-1.5 1.7-1.8 1.7-2 1.4-2.1 1.1-2.4 0.9-2.7 2.1-8.2 1.4-8.1 0.9-8.1 0.1-8.1-0.6-9-1.4-9.2-2.3-9.4-3.1-9.3-4-9.7-5-9.9-5.9-10.5-7.2-11.6-4.1-6.2-4.4-5.7-4.6-5.6-4.8-5.3-5-4.9-5.2-4.8-5.4-4.3-5.5-4.1-5.9-3.9-6.1-3.6-6.3-3.2-6.4-2.9-8.1-3.2-8.3-2.6-8.6-2.3-8.6-1.8-9-1.2-9.2-0.8-9.3-0.3-9.6 0.1-23.3 1.4-11 1-10.3 1.1-10.1 1.4-9.7 1.6-9.4 1.9-9.1 2.2-8.8 2.4-8.7 2.5-8.3 2.9-8.2 3-7.9 3.4-7.7 3.6-7.6 3.8-7.4 4.3-8.7 5.4-8.6 6-8.3 6.2-8.2 6.9-7.9 7.3-7.7 7.6-7.5 8.2-7.5 8.7-5.3 7-4.9 7.4-4.3 7.8-3.9 8.3-3.4 8.6-3 9-2.4 9.6-2 10-1.5 10.4-1 10.7-0.7 11.3v11.5l0.4 12.1 0.9 12.5 1.3 12.9 1.8 13.4 0.3 2.8-0.3 2.8-0.6 2.6-1.1 2.5-1.3 2.9-0.6 2.7v2.3l0.6 2 1.3 1.6 1.7 1.3 2.4 1.1 2.9 0.8 0.8 0.1 6.3 1.4 6.2 1.7 6 2.3 6.1 2.5 7 2.8 6.9 1.6 7.2 0.8 7-0.3 4.9-0.7 4.8-1.3 4.6-1.7 4.6-2.2 4.2-2.6 4.3-3.2 4.1-3.5 3.7-3.9 2.7-2.7 3.4-2.7 4.1-2.7 4.8-2.9 5.4-2.9 6.2-2.9 14.4-6.1"/>
		<path id="Layer" fill-rule="evenodd" class="s5" d="m1895.2 2979.3l-7.8 4.4-8.1 4-8.3 3.6-8.6 3.1-8.9 2.8-9.2 2.3-9.5 1.8-9.8 1.6-10.1 1-10.3 0.6-10.6 0.2-10.9-0.2-11.1-0.5-11.5-1.1-11.7-1.4-12.1-1.9"/>
		<path id="Layer" fill-rule="evenodd" class="s12" d="m1453.4 2672.2l-34.4-24.2"/>
		<path id="Layer" fill-rule="evenodd" class="s10" d="m2245.5 3369l2.9 0.2 2.4 0.8 1.9 1 1.4 1.4 0.4 0.5 1.5 3.1 0.5 3 0.4 2 0.8 1.6 1.3 1.2 1.8 0.9 61.2 20.7 3.3 1 3.4 0.6 3.6 0.4h3.7l40.3-1.9 2.5-0.5 2-1.3 1.4-1.7 0.8-2.4 2.5-15.8 1.9-15.1 1.4-14.6 0.7-14.1 0.3-13.5-0.4-13.1-1-12.6-1.5-12.1-2.2-11.5-2.7-11-3.3-10.5-3.9-10-4.4-9.4-5.1-8.9-5.6-8.5-6.2-7.9-5.8-6.6-5.9-6.3-6.2-6-6.3-5.8-6.4-5.6-6.6-5.1-6.8-5.1-6.9-4.6-9.5-5.8-9.5-5.3-10.1-4.9-10.1-4.4-10.7-3.9-10.7-3.6-11.1-3.1-11.6-2.7-11.7-2.2-12.2-1.8-12.5-1.4-12.7-0.9-13.1-0.5h-13.6l-13.9 0.4-14.3 0.8-7.7 0.7-7.6 1.4-7.3 1.9-7 2.5-6 2.5-5.6 3.1-5.7 3.2-5.4 3.8-9.1 6.9-8.7 7.1-8 7.1-7.5 7-7 7.2-6.5 7.3-5.9 7.2-5.3 7.3-4.8 7.4-4.2 7.3-3.7 7.6-3.1 7.5-2.7 7.7-2.1 7.6-1.5 7.7-1.1 7.8-0.5 8.2 0.2 8.4 0.7 8.5 1.4 8.5 1 3.7 1.4 3.5 1.9 3.3 2.3 3 2.5 2.8 2.9 2.4 3.3 2 3.4 1.6 129.7 50.9 3.7 1.1 3.9 0.8 3.8 0.1 3.9-0.2 3.7-0.8 3.7-1.2 3.4-1.8 3.3-2.1 3.4-2.4 3.6-2.1 3.9-1.7 4.3-1.5 4.4-1.2 4.7-0.8 5-0.7 5.2-0.4"/>
	</g>
	<g id="Layer">
		<path id="Layer" class="s13" d="m2272.9 1719l8.1 12.2 8.6 11.6 9 11.1 9.3 10.4 9.8 10.1 10.1 9.5 10.6 8.8 10.8 8.4 10.5 7.2 10.8 6.8 11.1 6.3 11.4 5.9 10 4.7 9.9 4.4 10 4 10 3.8 9.9 3.5 10.1 3.3 9.9 2.9 10 2.5 9.9 2.4 10 1.9 10.1 1.8 9.9 1.4 10 1.1 9.9 0.9 10.1 0.5 10 0.2 10.4-0.1 10.5-0.4 10.4-0.7 10.5-1 10.4-1.4 10.5-1.8 10.5-2 10.4-2.3 10.5-2.7 10.4-2.9 10.5-3.4 10.4-3.7 10.5-3.9 10.6-4.3 10.4-4.6 10.5-4.9 23.5 14.2 22.1 14 20.5 13.8 19.2 13.8 17.5 13.4 16.2 13.4 14.7 13.2 13.2 13 8.5 9.1 11.5 12.9 11 13.3 10.6 13.7 10 14.1 9.7 14.5 9.4 15 8.8 15.2 8.3 15.8 7.9 16.1 7.6 16.5 7 17 6.6 17.3 6.3 17.7 5.7 18.2 5.2 18.5 5 18.9-17.4 12.2-17.5 12-17.8 11.5-18 10.9-18.2 10.7-18.2 10.2-18.7 9.7-18.7 9.5-26 12.2-26.3 11.3-32 13-32.1 12.4-32.4 11.5-32.5 11.1-32.7 10.5-32.7 9.7-32.9 9.1-33.1 8.5-6.4 1.5-6.7-0.3h-6.4l-6.3 0.2-6.3 0.5-6 1-5.9 1.3-5.8 1.5-5.5 1.9-74.6 7.5-74.3 8-74 7.9-73.6 8.3-74.7 8.1-34.2 3.4-32.4 3-30.4 2.4-28.3 2-26.5 1.7-24.3 1.1-36.6 1.3-36.7 0.8-36.7 0.5-36.6 0.2-37.6-0.2-37.4-0.6-37.5-0.9-37.4-1.2-24.6-1.2-26.5-1.5-28.4-2-30.4-2.5-32.2-2.9-34.3-3.3-74.5-8-148.7-16.5-149.5-15.8-5.5-1.8-5.5-1.5-5.6-1.1-5.7-0.9-5.1-0.5-5.2-0.2h-5.3l-5.3 0.2-25.4-5.8-25.3-6.3-25.1-6.5-24.8-7.1-24.6-7.4-24.3-7.8-24.2-8.3-23.8-8.6-23.7-9.1-23.5-9.3-23.2-9.8-23.1-10.2-22.7-10.6-22.5-11.1-22.4-11.3-22.1-11.9-19.5-11.2-20.9-13.1-22.4-15-23.9-17 4.6-17.9 5-17.5 5.4-17.1 5.7-16.8 6.2-16.5 6.7-16.1 6.9-15.8 7.4-15.3 7.7-15.1 8.2-14.8 8.6-14.3 9-14 9.4-13.8 9.8-13.3 10.2-13 10.6-12.7 2.5-2.9 7.5-8.3 7.9-8.3 8.3-8.2 8.5-8.2 9-8.1 9.3-8 9.6-8 10.1-7.8 10.3-7.8 10.7-7.8 11.1-7.6 11.3-7.7 24-14.8 25.3-14.8 9.4 4.6 9.6 4.3 9.4 4 9.6 3.6 9.5 3.4 9.5 3.3 9.5 2.9 9.6 2.5 9.5 2.4 9.6 2 9.6 1.9 9.6 1.5 9.5 1.3 9.6 1 9.6 0.6 9.7 0.5 9.3 0.2 9.3-0.2 9.5-0.3 9.3-0.7 9.5-0.8 9.3-1.2 9.4-1.4 9.5-1.6 18.7-4.2 18.9-5.1 19.1-6.2 18.9-7.2 13.1-5.6 12.7-6.2 12.3-6.8 12.1-7.3 13.5-9.1 13.1-9.7 12.6-10.6 12.1-11.2 11.7-12 11.2-12.6 10.7-13.3 10.4-14.1 11.6-6.2 11.3-6.7 11.7-7.7 11.5-8.2 10.9-8.8 10.9-9.3 10.3-9.8 10.1-10.5 9.7-10.9 9.3-11.5 15.8-19.5 7.4-8.6 7-7.8 6.7-6.9 6.4-6.2 6.1-5.4 5.8-4.7 22.8-16.9 22-15.3 21.7-14.1 21.3-13 20.8-11.9 20.6-10.5 20.3-9.5 20.1-8.4 20-7.3 19.8-6.3 9.8-2.7 9.8-2.4 9.7-2.1 9.8-1.9 9.7-1.6 9.9-1.4 9.7-1.2 9.7-0.7 9.5-0.7 9.7-0.2h9.6l9.6 0.2 9.4 0.6 9.4 0.7 9.3 1 9.3 1.4 9.5 1.5 9.3 1.8 18.6 4.4 18.8 5.3 18.6 6.4 18.8 7.6 18.7 8.4 16.6 8.2 15.9 8.2 15.2 8.3 14.6 8.3 14.3 8.6 13.6 8.7 13.1 8.8 12.7 9.1 12.2 9.2 11.8 9.4 11.5 9.8 11.1 10 10.7 10.2 10.3 10.4 10 10.7 9.7 11.1 11.8 14.6 11.4 15.2 6.3 8.3 6.5 7.7 6.8 7 7.2 6.6 7.4 5.9 7.6 5.3 7.9 4.8 8.3 4.1 5.8 2.7 6.1 2.2 6.2 1.9z"/>
		<path id="Layer" class="s13" d="m1928.6 2908.5l-33.4 70.8-7.8 4.4-8.1 4-8.3 3.6-8.6 3.1-8.9 2.8-9.2 2.3-9.5 1.8-9.8 1.6-10.1 1-10.3 0.6-10.6 0.2-10.9-0.2-11.1-0.5-11.5-1.1-11.7-1.4-12.1-1.9-14.9-6.7-2.7-1.6-2.4-1.9-1.9-2.4-1.4-2.7-5.9-13.8-11.4-25.3-12.1-25.2-12.8-24.9-13.4-24.4-14.1-24.2-14.8-23.9-15.5-23.7-16.2-23.3-1.9-1.9-2.4-1.3-2.7-0.5-2.7 0.5-2.4 0.4-2-0.4-1.4-0.8-1-1.6-1.9-2.9-2.4-3-2.9-2.9-3.4-3.1-8.1-6.3-11.9-7.8-3.8-2.4-4-2.8-3.8-3-4-3.7-3.8-4-3.8-4.5-5-6.5-5.8-7.7-4.9-5.6-3.2-3.2-3.4-2.9-4-2.6-4.3-2.4-20.6-10.2-22.3-10.3-34.4-24.2-3.4-5.1-3.6-4.8-3.6-4.5-3.9-4.3-4.1-4.1-4.2-3.8-4.3-3.7-4.6-3.2-7.8-5.1-8.2-4.3-0.5-4.8 0.4-3.9 1-2.9 0.8-1 1-0.7 1-0.5 1.4-0.3h1.5l1.6 0.4 1.5 0.4 20 5.1 14.4 3.1 7 1 6.6 0.7 6.5 0.4h6.3l62-0.7h23.9l22 0.2 21.5 0.5 20.2 0.9 19.6 1 18.9 1.4 42.5 3.3 40.6 2.4 38.4 1.7 36.4 1 34.2 0.3 32.1-0.5 30-1.2 28-2 35.9-2.9 32.5-2.4 28.8-1.7 25.3-1.2 21.8-0.6h18.2l14.7 0.6 11.1 1.2 19.3 2.6 18.7 1.8 18.2 0.9h17.6l2.9 0.2 2.5 0.9 2.4 1.5 2 2.3 1.7 2.5 1 2.4 0.5 2.4 0.1 2.3-0.7 2.6-1.4 2.6-2 2.6-2.9 2.5-14.1 11.2-13.4 11.5-2.1 1.6-2.2 1.4-2.8 1.1-3 0.6-8.3 1.8-7.9 2.4-7.6 3-7.2 3.7-5.4 3.4-5.3 3.8-5 4.2-4.8 4.6-4.5 5-4.3 5.4-4.1 5.8-3.9 6.3-2 3.3-4.4 5.8-5.1 5.5-6.2 5.5-8.8 6.6-7.3 5.6-5.2 4.3-4.5 4.1-4.1 4.4-11.7 13-16.9 17.3-5.9 6-5.7 6.3-5.5 6.6-5.3 6.6-5 7-5 7.1-4.6 7.5-4.4 7.5-4.3 7.9-4 7.9-3.9 8.2-3.6 8.4-3.4 8.6-3.2 8.9-3.1 9z"/>
	</g>
	<g id="Layer">
		<path id="Layer" class="s0" d="m1325.9 1719.4l-10.4 14.1-10.7 13.3-11.2 12.6-11.7 12-12.1 11.2-12.6 10.6-13.1 9.7-13.5 9.1-12.1 7.3-12.3 6.8-12.7 6.2-13.1 5.6-18.9 7.2-19.1 6.2-18.9 5.1-18.7 4.2-9.5 1.6-9.4 1.4-9.3 1.2-9.5 0.8-9.3 0.7-9.5 0.3-9.3 0.2-9.3-0.2-9.7-0.5-9.6-0.6-9.6-1-9.5-1.3-9.6-1.5-9.6-1.9-9.6-2-9.5-2.4-9.6-2.5-9.5-2.9-9.5-3.3-9.5-3.4-9.6-3.6-9.4-4-9.6-4.3-9.4-4.6-10.4-5.8-10-5.9-9.9-6.2-9.3-6.3-9.2-6.5-8.8-6.7-8.4-6.9-8.2-7.2-7.8-7.3-7.6-7.6-7.2-7.6-6.8-8-6.7-8.2-6.1-8.3-5.9-8.4-5.7-8.7-5.8-10-5.6-10-5-10.4-4.7-10.6-4.2-10.8-3.9-11.1-3.6-11.3-3.1-11.6-3.6-15.9-2.8-15.9-1.9-16.1-1.3-16-0.4-16.1 0.4-16.1 1.1-16 2.1-15.9 2.6-15.2 3.3-15.2 4.1-14.8 4.8-14.8 5.4-14.5 6.2-14.2 6.8-13.9 7.6-13.4 8-13.1 8.7-12.8 9.3-12.3 10-11.8 10.3-11.5 11.1-10.8 11.5-10.4 11.9-9.7 12-8.9 12.5-8.3 12.7-7.8 13.2-7.2 13.5-6.5 13.9-6 14-5.3 14.4-4.6 18.2-5 18.3-4 18.5-3 18.4-1.9 18.6-1.1h18.5l18.6 1 18.3 1.9 18.2 2.9 18 3.9 17.6 4.7 17.4 5.8 17 6.8 16.7 7.6 16.1 8.6 7.9 4.6 7.8 4.8 14.3 9.7 13.8 10.5 13.3 11.1 12.7 11.8 11.9 12.5 11.5 13.2 10.8 13.7 10.3 14.5 7.9 12.4 7.2 12.6 6.6 12.6 6.1 12.8 5.3 13 4.8 13.1 4 13.2 3.5 13.5 2.9 14.2 2.3 14.4 1.6 14.5 0.8 14.7 0.2 14.9-0.6 15.1-1.2 15.1-1.9 15.4-2.7 15.6-3.3 15.6-4.1 15.9-4.7 16-5.4 16.3-6.2 16.3-6.8 16.5z"/>
		<path id="Layer" class="s0" d="m2720.1 1826.5l-10.5 4.9-10.4 4.6-10.6 4.3-10.5 3.9-10.4 3.7-10.5 3.4-10.4 2.9-10.5 2.7-10.4 2.3-10.5 2-10.5 1.8-10.4 1.4-10.5 1-10.4 0.7-10.5 0.4-10.4 0.1-10-0.2-10.1-0.5-9.9-0.9-10-1.1-9.9-1.4-10.1-1.8-10-1.9-9.9-2.4-10-2.5-9.9-2.9-10.1-3.3-9.9-3.5-10-3.8-10-4-9.9-4.4-10-4.7-11.4-5.9-11.1-6.3-10.8-6.8-10.5-7.2-10.8-8.4-10.6-8.8-10.1-9.5-9.8-10.1-9.3-10.4-9-11.1-8.6-11.6-8.1-12.2-6.2-11.7-5.8-11.9-5.3-11.7-4.9-11.7-4.5-11.7-4.1-11.7-3.5-11.6-3.2-11.7-2.7-11.6-2.4-11.6-1.9-11.6-1.4-11.6-1-11.6-0.6-11.4-0.2-11.6 0.3-11.5 1-14.4 1.5-14.3 2.4-14.3 2.9-14.2 2.3-9.3 2.5-9.2 2.8-9.1 3-8.9 3.3-9 3.5-8.7 3.8-8.7 3.9-8.4 4.3-8.3 4.4-8.2 4.6-8.2 4.9-7.9 5.2-7.8 5.4-7.7 5.6-7.5 5.6-7.3 7.2-8.4 7.3-8.1 7.6-7.9 7.8-7.6 8.2-7.3 8.3-7 8.6-6.8 8.8-6.6 9.1-6.2 9.3-5.9 9.4-5.5 9.7-5.3 9.8-5 10-4.7 10.2-4.3 10.3-4 10.5-3.6 10.6-3.4 10.7-2.9 10.8-2.6 10.9-2.3 10.9-1.9 11.1-1.6 11.2-1.1 11.2-0.9 11.2-0.5 11.2-0.1 11.3 0.2 11.2 0.5 11.3 1 11.3 1.3 11.3 1.6 12.7 2.3 12.6 2.8 12.5 3.1 12 3.7 12.1 4 11.8 4.5 11.7 4.9 11.3 5.3 11.1 5.8 10.8 6.1 10.6 6.5 10.3 7 10.1 7.4 9.7 7.7 9.5 8 9 8.6 8.7 8.7 8.3 9.1 8.1 9.3 7.7 9.7 7.2 10.1 6.9 10.2 6.4 10.4 6.1 10.9 5.6 10.9 5.3 11.2 4.8 11.5 4.4 11.6 3.9 11.7 3.4 11.9 3.1 12 2.6 12.3 2 12.2 1.8 12.3 1.1 12.3 0.7 12.4 0.2 12.5-0.1 12.5-0.8 12.4-1.1 12.5-1.6 12.4-2.2 12.4-2.5 12.4-3 12.2-3.4 12.2-3.9 12.1-4.4 12-4.8 11.8-2.1 4.7-5.1 10.6-5.6 10.3-6 10.1-6.7 9.9-7 9.6-7.7 9.4-8.2 9.2-8.7 9-9.2 8.8-9.7 8.4-10.2 8.4-10.7 7.9-11.2 7.8-11.7 7.6-12.4 7.4z"/>
	</g>
	<g id="Layer">
		<path id="Layer" class="s14" d="m1254.3 291.9l2.7 7.2 14.3 39.4 13.2 34.7 13.5 32.7 13.5 30.5 13.5 28.5 6.7 13.2 6.8 12.7 6.5 12 6.7 11.4 6.5 10.9 6.6 10.1 6.5 9.5 6.5 9 6.4 8.2 6.4 7.5 6.3 7.1 6.3 6.2 6.3 5.8 6.2 4.9 6 4.4 6.2 3.8 5.9 3 6.1 2.4 5.9 1.7 5.8 1.2 5.8 0.5 5.8-0.3 6-0.9 6.1-1.6 3.6-1.5 3.3-2.3 3.3-2.8 3-3.5 2.9-4.1 2.7-4.7 2.3-5.5 2.3-6 2-6.8 1.9-7.1 1.7-8 1.3-8.5 1.3-9.2 1-9.9 1.5-21.5 0.8-23.8-0.1-26.4-0.9-28.7-1.8-31.2-2.4-33.2-3.3-35.6-3.9-37.5-5.1-44.4-2.4-20.4 150.6-23.1 0.7 24.4 1.1 24.1 1.5 23.9 2 23.6 2.4 23.3 2.9 23.2 3.3 22.8 3.8 22.7 4.1 22.3 4.6 22.2 5 21.9 5.6 21.5 5.9 21.5 6.3 21.1 6.8 20.8 7.3 20.7 4.1 10.2 4.8 9.9 5.6 9.7 6.3 9.6 6.9 9.2 7.7 9.1 8.4 8.9 9.1 8.6 2.5 1.9 2.7 1.4 2.9 0.7 3.1 0.4 12.7 0.6 14.9 0.6h11.1l9.8-0.6 8.7-1.2 7.8-2.2 3.7-1.2 3.4-1.6 3-1.7 3-1.9 2.7-2.1 2.5-2.4 3.5-4.1 5.2-7.2 4.9-7.4 4.5-7.2 4.3-7.4 4-7.6 3.8-7.5 3.7-8 3.2-7.9 3.2-8.1 2.9-8.3 6.8-21.1 6.4-21.2 6.2-21.3 5.7-21.4 7.5-31.9 7-32 5.9-32.2 5-32.5 4.3-32.8 3.4-32.9 2.6-33.1 1.7-33.4 148.4 24.3-1.8 16.2-6.4 59.9-4.3 43.7-3 39.5-2 36-1.2 34.9-0.1 16.6 0.1 16.3 0.5 15.8 0.7 15.7 0.9 15.2 1.2 14.9 1.4 10.4 2.1 10.1 2.9 9 1.8 4.2 1.9 3.9 2 3.4 2.2 3.5 2.2 2.8 2.5 2.8 2.7 2.3 2.8 2.1 2.7 1.7 3.1 1.5 3 1 3.1 0.7 3.2 0.5 3.2 0.3 3.4-0.1 3.7-0.3 3.7-0.7 3.7-0.9 7.7-2.5 7.8-3.3 7.6-4 7.5-4.7 7.5-5.4 7.3-6.2 7.4-6.9 7.3-7.6 7.2-8.3 7.1-9.1 7-9.7 6.9-10.3 6.9-11.1 6.6-11.7 6.5-12.2 6.3-12.9 10.8-23.3 10.6-23.4 10.4-23.6 10.1-23.9 10-23.9 9.5-24.2 9.5-24.3 9.2-24.6 29.7 10.7 29.7 11.3 29.6 12 29.5 12.6 29.6 13.2 29.5 13.9 29.4 14.6 29.3 15.1 2.5 1.2 2.8 0.5 2.9 0.1 2.8-0.5 6.8-1.9 4.9-2 1.8-1 1.1-1 0.9-1.2 0.2-1-0.4-1.4-4.6-7.9-4.9-7.4-5.2-7-5.5-6.4-6-5.9-6-5.4-6.6-4.9-6.6-4.6-5.2-2.9-5.4-2.6-5.6-2.4-5.6-2.2-5.8-1.8-6.1-1.6-6.1-1.3-6.3-1.1-1.9-0.5-1.8-0.8-1.5-1.3-1.1-1.5-0.9-1.8-0.4-1.9v-2l0.5-1.9 0.8-1.6 4.4-6.7 4.5-6.4 4.9-6.1 5.1-5.7 5.2-5.3 5.6-5.1 5.8-4.8 6-4.3 9-5.6 9.5-5.1 50.6-24.4 54.4-26.3 21-9.7 19.6-8.7 19.1-8.2 18.4-7.6 17.9-6.8 17.6-6.3 36.7-12.3 34.4-10.7 32.7-9.5 31.4-8.3 30.7-7.2 30.3-6.1 29.8-5.2 29.8-4.3 21.4-2.5 21.3-2 6.6-0.4 6.6-0.3 6.8 0.2 7.1 0.3 14.4 1.4 15 2.6 15.8 3.5 16.7 4.6 18.2 5.8 20.5 7.3 5.3 2.4 4.8 2.9 3.8 3.1 3.4 3.2 3.1 3.9 2.8 4.2 2.5 4.7 2.3 5 1.9 5.4 1.6 5.9-6.2 2.8-6.6 2.5-7 2.3-7.3 2-7.8 1.6-8.2 1.4-8.4 1.2-9 0.8-15.2 4.3-15.1 4.6-15 4.8-14.9 5-14.7 5.3-14.5 5.5-14.5 5.7-14.2 6-14.1 6.2-14 6.4-13.9 6.7-13.6 6.9-13.6 7.2-13.3 7.5-13.3 7.5-13.1 7.8-12.7 8-12.5 8.2-12.3 8.3-12.2 8.5-12.1 8.9-12 8.9-11.8 9.3-11.8 9.5-11.4 9.7-11.5 9.8-11.2 10.2-11.2 10.3-11 10.6-10.8 10.9-10.7 11-10.6 11.2-6 6.9-5.8 6.9-5.5 7-5.1 7.2-4.8 7.3-4.4 7.6-4.1 7.5-3.7 7.7-0.2 0.3-1.1 3.5-0.5 3.7 0.3 3.7 1 3.7 1.7 3.3 2.3 3 2.9 2.4 3.3 1.9 8.4 4 8.2 4.4 7.8 4.9 7.4 5.3 2.6 1.9 22.9 18.4 22.8 19.2 22.9 19.6 23 20.3 22.9 20.8 22.8 21.5 22.9 22.1 22.9 22.6 15.2 15.7 14.3 16 13.7 16.2 13.2 16.5 12.7 16.3 17.9 21.8 17.9 21.8 12.8 16.3 11.2 15.4 9.7 14.5 13.6 21.7 13.2 21.6 12.8 21.4 12.3 21.5 11.7 21.4 11.5 21.1 10.8 21.2 10.5 21 10.1 21 9.4 20.9 9.2 20.8 8.6 20.6 8.2 20.7 7.7 20.5 7.3 20.4 6.8 20.3 6.8 21.8 6.4 22 6 22.3 5.6 22.7 5.3 22.8 4.8 23.2 4.4 23.3 4 23.7 3.7 23.9 3.1 24.2 2.8 24.5 2.5 24.6 1.9 25.1 1.6 25.2 1.3 25.5 0.7 25.8v4.6l-0.2 11.4-0.8 11.5-1.5 11.3-1.9 11.3-0.3 1.8-0.8 1.4-0.8 1.2-1 1-1.2 0.7-1.4 0.5-1.7 0.1h-1.7l-18.3-1.4-18.4-1-18.4-0.7-18.5-0.3h-18.6l-18.7 0.5-18.7 0.8-18.9 1.1-18.9 1.5-19.2 1.9-19 2.3-19.3 2.6-19.3 3-19.4 3.4-19.5 3.7-19.5 4.1-5.3 1.6-4.7 2-3.9 2.7-3.1 3.2-2.5 3.9-1.9 4.4-1 5.1-0.4 5.5v5.2l0.1 3.7 0.4 3.4 0.6 3.3 0.8 2.9 1.1 2.5 1.3 2.4 1.6 2 1.8 1.8 2 1.5 2.2 1.3 2.6 0.9 2.7 0.7 3.1 0.4h3.2l3.4-0.1 3.8-0.5 16.6-2.6 16.8-2.4 17-2 17.3-1.7 17.4-1.5 17.5-1.3 17.7-1 17.9-0.8 18.2-0.5 18.4-0.1h18.5l18.6 0.4 18.9 0.5 19 0.9 38.7 2.4 1.9 0.2 1.6 0.5 1.3 0.8 1 1 0.8 1.1 0.3 1.4 0.2 1.6-0.2 1.9-3.7 23.7-4.3 22.9-4.8 22.5-5.4 21.6-5.9 20.9-6.5 20.3-6.9 19.7-7.6 19-0.8 1.8-1.3 1.5-1.3 1-1.5 0.9-1.5 0.6-1.6 0.4h-1.7l-1.6-0.3-1.5-0.4-1.5-0.7-41.6-24.1-33.5-18.7-30.7-16.3-28.9-14.2-14.4-6.7-14.2-6.3-14-6.1-14-5.5-13.9-5.4-14-5.1-14-4.7-14-4.4-12.2-3.7-2.7-0.6-2.6-0.3h-2.7l-2.6 0.4-2.6 0.8-2.4 1-2.4 1.2-2.2 1.5-3.8 3.4-3 3.7-2.5 3.9-1.6 4-0.9 3-0.5 3.1-0.1 3.1 0.1 3.3 0.5 3.4 0.9 3.5 1.1 3.7 1.4 3.6 1.4 2.7 1.5 2.5 1.9 2.4 2.1 2.1 2.3 1.9 2.5 1.7 2.8 1.3 2.7 1.2 16 5.4 15.9 5.7 15.8 5.8 15.5 6 15.3 6.3 15.3 6.6 15.1 6.8 14.9 6.9 14.7 7.2 14.6 7.4 14.5 7.7 14.4 7.9 14.1 8.1 14 8.3 13.8 8.6 13.6 8.8 1.8 1.4 1.5 1.7 1.1 2.1 0.7 2.1 0.3 2.4-0.2 2.3-0.5 2.1-1 2.1-11.7 19.2-12.1 18.6-12.5 18.4-13 18-13.3 17.7-13.8 17.2-14.1 16.9-14.6 16.4-12.5 13.6-12.8 13.2-13.1 13-13.5 12.7-13.6 12.5-14 12.2-14.2 12-14.6 11.7-5-18.9-5.2-18.5-5.7-18.2-6.3-17.7-6.6-17.3-7-17-7.6-16.5-7.9-16.1-8.3-15.8-8.8-15.2-9.4-15-9.7-14.5-10-14.1-10.6-13.7-11-13.3-11.5-12.9-8.5-9.1-13.2-13-14.7-13.2-16.2-13.4-17.5-13.4-19.2-13.8-20.5-13.8-22.1-14-23.5-14.2 12.7-7.1 12.4-7.4 11.7-7.6 11.2-7.8 10.7-7.9 10.2-8.4 9.7-8.4 9.2-8.8 8.7-9 8.2-9.2 7.7-9.4 7-9.6 6.7-9.9 6-10.1 5.6-10.3 5.1-10.6 2.1-4.7 4.8-11.8 4.4-12 3.9-12.1 3.4-12.2 3-12.2 2.5-12.4 2.2-12.4 1.6-12.4 1.1-12.5 0.8-12.4 0.1-12.5-0.2-12.5-0.7-12.4-1.1-12.3-1.8-12.3-2-12.2-2.6-12.3-3.1-12-3.4-11.9-3.9-11.7-4.4-11.6-4.8-11.5-5.3-11.2-5.6-10.9-6.1-10.9-6.4-10.4-6.9-10.2-7.2-10.1-7.7-9.7-8.1-9.3-8.3-9.1-8.7-8.7-9-8.6-9.5-8-9.7-7.7-10.1-7.4-10.3-7-10.6-6.5-10.8-6.1-11.1-5.8-11.3-5.3-11.7-4.9-11.8-4.5-12.1-4-12-3.7-12.5-3.1-12.6-2.8-12.7-2.3-11.3-1.6-11.3-1.3-11.3-1-11.2-0.5-11.3-0.2-11.2 0.1-11.2 0.5-11.2 0.9-11.2 1.1-11.1 1.6-10.9 1.9-10.9 2.3-10.8 2.6-10.7 2.9-10.6 3.4-10.5 3.6-10.3 4-10.2 4.3-10 4.7-9.8 5-9.7 5.3-9.4 5.5-9.3 5.9-9.1 6.2-8.8 6.6-8.6 6.8-8.3 7-8.2 7.3-7.8 7.6-7.6 7.9-7.3 8.1-7.2 8.4-5.6 7.3-5.6 7.5-5.4 7.7-5.2 7.8-4.9 7.9-4.6 8.2-4.4 8.2-4.3 8.3-3.9 8.4-3.8 8.7-3.5 8.7-3.3 9-3 8.9-2.8 9.1-2.5 9.2-2.3 9.3-2.9 14.2-2.4 14.3-1.5 14.3-1 14.4-0.3 11.5 0.2 11.6 0.6 11.4 1 11.6 1.4 11.6 1.9 11.6 2.4 11.6 2.7 11.6 3.2 11.7 3.5 11.6 4.1 11.7 4.5 11.7 4.9 11.7 5.3 11.7 5.8 11.9 6.2 11.7-6.3-1.8-6.2-1.9-6.1-2.2-5.8-2.7-8.3-4.1-7.9-4.8-7.6-5.3-7.4-5.9-7.2-6.6-6.8-7-6.5-7.7-6.3-8.3-11.4-15.2-11.8-14.6-9.7-11.1-10-10.7-10.3-10.4-10.7-10.2-11.1-10-11.5-9.8-11.8-9.4-12.2-9.2-12.7-9.1-13.1-8.8-13.6-8.7-14.3-8.6-14.6-8.3-15.2-8.3-15.9-8.2-16.6-8.2-18.7-8.4-18.8-7.6-18.6-6.4-18.8-5.3-18.6-4.4-9.3-1.8-9.5-1.5-9.3-1.4-9.3-1-9.4-0.7-9.4-0.6-9.6-0.2h-9.6l-9.7 0.2-9.5 0.7-9.7 0.7-9.7 1.2-9.9 1.4-9.7 1.6-9.8 1.9-9.7 2.1-9.8 2.4-9.8 2.7-19.8 6.3-20 7.3-20.1 8.4-20.3 9.5-20.6 10.5-20.8 11.9-21.3 13-21.7 14.1-22 15.3-22.8 16.9-5.8 4.7-6.1 5.4-6.4 6.2-6.7 6.9-7 7.8-7.4 8.6-15.8 19.5-9.3 11.5-9.7 10.9-10.1 10.5-10.3 9.8-10.9 9.3-10.9 8.8-11.5 8.2-11.7 7.7-11.3 6.7-11.6 6.2 7.5-16.7 6.8-16.5 6.2-16.3 5.4-16.3 4.7-16 4.1-15.9 3.3-15.6 2.7-15.6 1.9-15.4 1.2-15.1 0.6-15.1-0.2-14.9-0.8-14.7-1.6-14.5-2.3-14.4-2.9-14.2-3.5-13.5-4-13.2-4.8-13.1-5.3-13-6.1-12.8-6.6-12.6-7.2-12.6-7.9-12.4-10.3-14.5-10.8-13.7-11.5-13.2-11.9-12.5-12.7-11.8-13.3-11.1-13.8-10.5-14.3-9.7-7.8-4.8-7.9-4.6-16.1-8.6-16.7-7.6-17-6.8-17.4-5.8-17.6-4.7-18-3.9-18.2-2.9-18.3-1.9-18.6-1h-18.5l-18.6 1.1-18.4 1.9-18.5 3-18.3 4-18.2 5-14.4 4.6-14 5.3-13.9 6-13.5 6.5-13.2 7.2-12.7 7.8-12.5 8.3-12 8.9-11.9 9.7-11.5 10.4-11.1 10.8-10.3 11.5-10 11.8-9.3 12.3-8.7 12.8-8 13.1-7.6 13.4-6.8 13.9-6.2 14.2-5.4 14.5-4.8 14.8-4.1 14.8-3.3 15.2-2.6 15.2-2.1 15.9-1.1 16-0.4 16.1 0.4 16.1 1.3 16 1.9 16.1 2.8 15.9 3.6 15.9 3.1 11.6 3.6 11.3 3.9 11.1 4.2 10.8 4.7 10.6 5 10.4 5.6 10 5.8 10 5.7 8.7 5.9 8.4 6.1 8.3 6.7 8.2 6.8 8 7.2 7.6 7.6 7.6 7.8 7.3 8.2 7.2 8.4 6.9 8.8 6.7 9.2 6.5 9.3 6.3 9.9 6.2 10 5.9 10.4 5.8-25.3 14.8-24 14.8-11.3 7.7-11.1 7.6-10.7 7.8-10.3 7.8-10.1 7.8-9.6 8-9.3 8-9 8.1-8.5 8.2-8.3 8.2-7.9 8.3-7.5 8.3-2.5 2.9-10.6 12.7-10.2 13-9.8 13.3-9.4 13.8-9 14-8.6 14.3-8.2 14.8-7.7 15.1-7.4 15.3-6.9 15.8-6.7 16.1-6.2 16.5-5.7 16.8-5.4 17.1-5 17.5-4.6 17.9-13.2-10.6-13.1-10.9-12.8-11.1-12.6-11.2-12.3-11.6-12-11.7-12-12-11.6-12.2-15.9-17.5-15.3-17.9-15-18.4-14.5-18.8-14.1-19.3-13.5-19.6-13.1-20.2-12.6-20.5-0.9-2-0.6-2-0.2-2.2 0.3-2.1 0.8-2.2 1-1.9 1.3-1.6 1.7-1.4 13-8.6 13.2-8.3 13.3-8.2 13.8-7.9 14-7.8 14.1-7.6 14.5-7.4 14.6-7.2 15-7 15.1-6.8 15.5-6.6 15.6-6.4 15.9-6.3 16.2-6.1 16.4-5.7 16.6-5.7 2.8-1 2.6-1.4 2.4-1.6 2.3-1.8 2.1-2.2 1.9-2.2 1.7-2.4 1.4-2.7 1.7-4.1 1.3-3.9 1-3.8 0.6-3.7 0.1-3.5-0.1-3.4-0.6-3.1-1-3.1-1.4-3.1-2.9-4.7-3.3-3.7-3.6-2.9-3.9-2.2-4.3-1.4-4.7-0.4-5 0.4-5.3 1.2-24.4 7.5-26.3 9.2-25.9 10.1-26.1 11.2-26.6 12.5-26.9 13.6-28.6 15.4-31.3 17.5-37.9 22.3-0.9 0.5-2.2 0.7-2.4 0.4-2.5-0.1-2.3-0.7-2.3-1.1-1.9-1.5-1.5-2-1.1-2.2-7.4-19.7-6.9-20.2-6.3-20.5-5.7-20.9-5.2-21.2-4.7-21.7-4-21.9-3.5-22.3-0.2-2 0.2-1.6 0.3-1.6 0.8-1.2 1.1-1 1.4-0.9 1.7-0.5 2-0.3 39.9-2.2 38.8-1.3 37.7-0.2 18.4 0.2 18 0.5 17.8 0.8 17.5 1 17.2 1.2 16.9 1.4 16.6 1.8 16.3 2 16 2.3 15.7 2.5 2.7 0.4h2.6l2.8-0.2 2.6-0.5 2.6-0.7 2.5-1 2.4-1.2 2.2-1.5 2.2-1.6 1.9-1.8 1.7-2 1.7-2.3 1.2-2.2 1.2-2.5 0.7-2.6 0.7-2.6 0.6-5.3-0.3-6.3-1-5.7-1.9-5-1.2-2.3-1.5-2.1-1.7-1.9-1.9-1.9-2.1-1.6-2.3-1.4-5.3-2.5-6-1.8-31.6-6.6-31.7-5.6-15.7-2.4-15.7-2.2-15.9-1.8-15.8-1.7-15.7-1.4-15.8-1.1-15.7-0.9-15.6-0.5-15.8-0.4-15.7-0.1-15.7 0.1-15.7 0.5-24.3 1.2-24.3 1.7-3.1-0.2-1.2-0.4-1.1-0.6-1.1-0.9-0.7-1.1-1.1-2.9-2.3-12.3-1.5-12.3-0.9-12.6v-12.7l0.8-25.4 1.1-25 1.5-24.7 1.9-24.6 2.3-24.2 2.6-24 3-23.7 3.4-23.4 3.8-23.4 4.3-22.9 4.5-22.7 5.1-22.4 5.3-22.2 5.8-21.9 6-21.5 6.5-21.4 6.6-19.9 6.9-20.1 7.5-20 7.8-20.3 8.3-20.4 8.8-20.4 9.3-20.7 9.7-20.6 10.1-20.8 10.6-21 11.1-21.1 11.4-21.2 12-21.2 12.5-21.5 12.8-21.5 13.4-21.7 13.5-20.6 14.1-19.8 14.6-19 15.1-18 13.5-16.2 17.6-22.3 15.3-19.4 11.6-14 10.8-12.4 10.6-11.1 23-23.1 23.3-22.5 23.6-22.3 23.8-21.8 24.1-21.4 24.3-21.1 24.5-20.6 24.9-20.3 6.3-4.8 6.4-4.4 6.5-4.2 6.8-3.6 8.5-4 3.8-2.2 3.1-2.8 2.7-3.5 1.8-3.8 1.1-4.3 0.1-4.2-0.7-4.2-1.6-4-0.5-1-3.3-5.4-6.1-10.1-6.7-9.9-6.8-9.7-7.3-9.4-7.6-9.3-7.8-9.1-8.2-8.8-8.6-8.7-20.7-19.9-21.3-19.2-21.7-18.4-22.2-17.5-22.6-16.7-23.1-16-23.6-15.1-23.9-14.4-23.9-13.4-24.3-12.6-24.9-11.7-25.3-11.1-25.7-10.2-26.1-9.5-26.5-8.9-27-7.9-13-2.8-13-2.4-13.1-2-13.1-1.7-3.6-0.4-2.2-0.5-1.8-1-1.6-1.5-1.1-1.9-0.6-2.5-0.4-2.9v-3.6l0.3-3.9 0.7-4.5 1.1-4.9 7.7-5.9 7.8-5.5 8-5.1 8-4.7 8.3-4.3 8.4-3.9 8.4-3.5 8.7-3.2 7.7-2.3 7.8-2.2 7.9-1.9 8.1-1.5 8.2-1.1 8.2-0.9 8.4-0.6 8.5-0.3 13.9 0.1 15.8 1 17.7 1.7 19.6 2.4 21.4 3 23.3 3.9 25.1 4.5 27.1 5.3 11.9 2.7 13.5 3.3 15.1 4 16.8 4.8 38.1 11.8 44.8 14.6 21.5 7.6 21.6 8.1 21.7 8.6 22.6 9.5 22.8 10.1 24.4 11.2 26.9 12.7 36.8 17.9 40.1 19.4 5.1 2.5 7.5 4.4 7.4 5.1 6.9 5.4 6.8 5.9 6.4 6.6 6.3 7.1 6.1 7.7 5.9 8.3 0.9 1.7 0.5 2 0.1 2-0.3 2-0.8 1.9-1.2 1.8-1.5 1.4-1.8 1-2 0.6-9.9 2.1-9.6 2.7-8.9 3.1-8.6 3.7-8.1 4.3-7.5 4.6-7.1 5.2-6.7 5.8-6.6 6.8-6.2 7.6-5.6 8-5 8.7-0.9 2.3-0.1 2.2 0.4 1.3 0.6 1.3 2 2.2 3.2 2.3 4.3 2 3.1 0.9 3.3 0.1 3.3-0.5 3-1.2 30.5-15.9 30.2-15.1 30.1-14.4 30-13.3 29.8-12.8 29.8-11.8 29.5-11.1z"/>
		<path id="Layer" class="s14" d="m1057.5 2396.5l5.3-0.2h5.3l5.2 0.2 5.1 0.5 5.7 0.9 5.6 1.1 5.5 1.5 5.5 1.8 9.5 7.9 8.9 8.4 8.1 8.4 7.6 8.8 1.3 1.7 2.6 2 2.7 1.7 3.1 1.5 3.4 1.2 3.9 1.2 3.5 1.6 3 1.6 2.8 1.9 41.7 33.6 40.9 32.5 40.5 31.4 39.7 30.2 9.3 6.6 11.1 6.7 12.7 6.9 14.3 7 8.2 4.3 7.8 5.1 4.6 3.2 4.3 3.7 4.2 3.8 4.1 4.1 3.9 4.3 3.6 4.5 3.6 4.8 3.4 5.1-10.6-2.8-10.8-2.4-11-2.1-11.2-1.8-11.4-1.5-11.4-1.1-11.5-0.9-11.6-0.5-11.4-0.2-11.6 0.2-11.6 0.5-11.5 0.9-11.3 1.1-11.2 1.5-11.1 1.9-11.1 2.1-10.6 2.4-10.6 2.8-10.2 3-10.2 3.3-9.8 3.6-9.7 4-9.3 4.1-9.2 4.5-8.8 4.8-8.6 5.1-8.3 5.3-8.1 5.5-7.7 5.8-7.4 6.2-7.2 6.3-6.8 6.5-3.8 4.1-3.4 4.1-3 4.2-2.6 4.3-2.3 4.2-1.8 4.4-1.5 4.6-1.1 4.5-0.6 4.4-0.4 4.4v4.6l0.4 4.5 0.6 4.7 1.1 4.8 1.3 4.7 1.7 4.8 0.5 1.2 1.8 3 2.4 2.6 2.9 2 3.3 1.6 3.4 0.6 3.5 0.1 3.5-0.7 3.3-1.4 13.7-7.5 13.9-7 13.9-6.7 13.9-6.3 14-5.9 14-5.6 14-5.1 14.1-4.8 14.1-4.5 14.2-4.1 14.3-3.6 14.2-3.4 14.4-3.1 14.3-2.5 14.4-2.2 14.4-1.9 17.8-1.8 17.9-1.3 18.1-0.6 18-0.1 18.1 0.5 18.2 1 18.2 1.5 18.3 2.2 1.6 0.1 1.4-0.1 1.1-0.4 0.9-0.6 0.7-0.9 0.3-1.2v-1.5l-0.1-1.6-1.4-5.7-1.9-5.8-2.6-5.6-3.2-5.7-3.9-5.7-4.5-5.5-5-5.7-5.8-5.5 22.3 10.3 20.6 10.2 4.3 2.4 4 2.6 3.4 2.9 3.2 3.2 4.9 5.6 5.8 7.7 5 6.5 3.8 4.5 3.8 4 4 3.7 3.8 3 4 2.8 3.8 2.4 11.9 7.8 8.1 6.3 3.4 3.1 2.9 2.9 2.4 3 1.9 2.9 1 1.6 1.4 0.8 2 0.4 2.4-0.4 2.7-0.5 2.7 0.5 2.4 1.3 1.9 1.9 16.2 23.3 15.5 23.7 14.8 23.9 14.1 24.2 13.4 24.4 12.8 24.9 12.1 25.2 11.4 25.3 5.9 13.8 1.4 2.7 1.9 2.4 2.4 1.9 2.7 1.6 14.9 6.7-6.4 0.7-6.7 0.2-6.8-0.5-6.9-1-12-23.6-11.2-23.7-5.9-12.6-6.3-11.8-6.6-11.1-6.8-10.2-9.3-13.4-12.7-19.3-14.4-21.7-11-15.8-10.3-13.7-9.8-12-10-11-9.9-9.5-10.1-8.3-4.9-3.7-5.2-3.4-3-1.4-2.7-0.4-2.7 0.3-2.5 0.7-2.3 1.4-1.9 1.9-1.4 2.4-0.9 2.5-0.2 2.7 0.5 24-3 1.6-3.1 0.6h-3.1l-3.3-0.9-3.4-1.6-3.4-2.4-3.5-3.3-3.5-4-3.7-4.8-3.8-5.6-2.2-3-2.8-2.6-3.2-2.3-3.4-1.6-6.4-2.3-6.5-2-6.7-1.8-6.8-1.5-7-1.1-7-0.9-7.1-0.6-7.3-0.4h-7.3l-7.5 0.2-7.6 0.7-7.7 0.7-7.8 1.1-7.9 1.4-8.1 1.7-8.2 2-19.4 5.3-18.9 5.8-17.9 6.3-17.4 6.8-16.5 7.2-15.8 7.8-15.1 8.2-14.4 8.6-13.6 9.2-12.9 9.6-12.1 10.1-11.3 10.6-10.6 11.1-9.9 11.4-9.1 12.1-8.4 12.5-7.9 13.2-1 2.3-0.6 2.3-0.1 2.2 0.2 2.3 1.4 6.2 1.9 5.9 2.7 6 3 6 3.8 5.6 4.1 5.6 2.7 2.7 3.1 2.3 3.4 1.9 3.7 1.3 3.7 0.6 3.8 0.1 3.9-0.5 3.7-1 18.1-7.3 18-8.1 17.6-8.9 17.3-9.7 9.9-5.6 10.3-5.2 10.8-5.2 11.4-5.1 11.8-4.7 12.2-4.7 12.8-4.5 13.2-4.3 13.7-4.2 14.2-4 14.8-3.9 15.2-3.7 16-3.5 16.5-3.5 35.3-6.6 7.4-1.5 7.3-1.7 7.1-2.1 6.8-2.4 6.7-2.7 6.4-2.9 6.3-3.4 6.1-3.7 5.1-3.4 4.9-3.5 4.7-3.9 4.7-4 9.3 14.6 9 14.8 8.7 15.2 8.5 15.3 8.2 15.5 7.8 15.8 7.5 16 7.3 16.2 7 16.4 6.5 16.6 6.3 16.8 6.1 17.1 5.8 17.3 5.4 17.5 5.1 17.7 4.8 17.9-14.1 1.7-14.1 0.7-14.3 0.2-14.4-0.7-14.6-1.5-14.6-2.3-14.9-2.9-14.9-3.7-63.8-17.3-17.9-4.7-8.6-1.7-9.9-0.9-9.9-0.5-9.8-0.3-9.7 0.3-9.7 0.4-9.7 0.9-9.6 1.1-9.4 1.5-14.5 3-14.4 3.8-14.2 4.7-14 5.4-14 6.2-13.7 7-13.6 7.8-13.5 8.6-56.9 37.8-55.6 35.8-1.3 0.6-1.6 0.5h-1.6l-1.7-0.3-1.6-0.6-1.3-1-1.1-1.3-0.9-1.3-0.5-1.7-1.4-6.3-1.9-5.9-2-5.4-2.5-5.2-3.8-6.5-4.5-6.3-5.7-6.6-8.3-8.7-12.3-13.2-10.9-11.8-15.5-15.8-16-16.2-11.1-12.3-9.4-11.6-4-5.5-3.7-5.5-9.6-14.4-10-14.1-10.7-14-11.4-13.9-2.8-2.9-3-2.6-3.4-2.3-3.5-1.9-3.8-1.5-3.8-1.1-4-0.6-4-0.3-8.2 0.3-8.2 1-6.6 1.2-6.5 1.9-6.4 2.3-6.3 2.8-4.9 2.6-4.5 3-5.1 4.6-4.7 5.1-4.1 6-3.6 6.6-0.5 1-9.9 21.7-3.4 8.2-2.7 7.7-2.2 7.5-1.8 7.4-1.3 7.3-0.7 7.1-0.3 8.9 0.5 8.9 2.4 29.4 1.8 29.6 1.1 29.6 0.7 29.8v30l-0.7 30.1-1.1 30.4-1.8 30.3-30-25-23.4-20.8-9.4-8.7-7.8-7.7-6.2-6.5-4.6-5.6-7.5-10.2-7.2-10.6-6.8-10.7-6.6-10.9-6-11.3-5.8-11.4-5.4-11.7-5-12-4.7-12.1-4.3-12.5-3.9-12.6-3.5-12.8-3.3-13.2-2.8-13.4-2.5-13.6-2.1-13.7-1.8-14.1-1.4-14.4 1.8-7.3 1-6.2 0.7-6.2 0.4-6.4 0.1-6.7-0.1-6.6-0.5-7.2-1.9-18.4-1.5-13.1-0.7-9.6-0.3-8.7 0.3-8.2 3.2-24.2 3.9-23.9 4.5-23.8 4.9-23.6 5.5-23.4 6.1-23.3 6.6-23.1 7.2-22.9 10.1-29.3 11.1-29.1 11.9-28.8 13-28.4 13.8-28.3 14.8-27.8 15.6-27.6 16.7-27.2 22.8-0.6 24.9-1.4 27.5-1.9 37.6-3.2 45-3.7 32.9-2.2 6.6-0.6 6.3-1 5.7-1.7 5.7-2 4.2-2 4.1-2.3 4.1-2.7 4-3 4.2-3.6 4.2-4 11-11.5 8.9-9.3 2.3-2.6 1.9-2.8 1.5-2.9 1-2.9 0.6-4.2-0.1-4.4-1-4.5-1.6-4.8-3.8-7.8-4.5-6.9-2.4-3.3-2.7-3-2.9-2.8-2.9-2.5-4.3-3.3-4.5-2.8-4.9-2.5-5.2-2-5.5-1.8-5.7-1.4-6-1-6.5-0.6-0.8 1.3-0.7 0.2-0.2-0.2v-0.8z"/>
		<path id="Layer" class="s14" d="m2542.5 2396.6l-5.8 4.1-5.1 4.1-4.3 4.2-3.6 4.1-3 4.3-2.4 4.4-1.7 4.4-0.9 4.5-2-1.2-3.5-2.8-2.9-3.5-2.5-4.3-2-4.9-0.7-1.2-0.7-1-1-0.8-1.2-0.5-1.2-0.3h-1.3l-1.2 0.4-1 0.5-1 0.9-5.6 6.6-4.8 6.6-3.9 6.6-2.9 6.4-1.9 6.2-0.9 5.9 0.2 5.6 0.3 2.7 0.8 2.5 1 2.9 1.4 2.7 1.6 2.6 1.9 2.6 5.7 6.4 5.3 5.6 4.9 4.8 4.8 4.3 4.9 3.9 4.8 3.3 4.9 3 5.2 2.5 7.7 3.1 8 2.4 8.7 1.5 9.6 1 47.1 3.3 46.9 3.9 46.6 4.7 46.5 5.5 16.7 27.8 15.8 28.2 14.7 28.5 13.9 28.7 12.8 29.1 12 29.4 11.1 29.7 9.9 30 5.7 18.1 5.2 18.3 4.9 18.5 4.6 18.5 4.2 18.7 3.9 18.7 3.5 18.8 3.2 19 2.2 16.5 1.5 16.5 0.8 16.6v16.3l-1 33.7-1.4 32.8-0.9 12.6-1.1 12.5-1.6 12.5-2.1 12.3-2 10.5-2.1 10.3-2.5 10.4-2.8 10.3-3.2 10.2-3.2 10.2-3.7 10.1-3.8 10.2-4.1 9.9-4.4 10.1-4.7 10-4.9 9.8-5.3 9.9-5.4 9.7-5.8 9.9-6.1 9.7-5.8 8-7.4 9-9.3 9.9-11.1 10.9-13 11.8-14.6 12.7-16.5 13.6-18.3 14.6-0.2-33.8v-33.4l0.2-32.8 0.5-32.4 2.4-22.3 6.8-53.8 1.1-10 0.6-10.1v-9.7l-0.5-9.7-1-9.5-1.5-9.3-2.1-9.2-2.5-9-2.7-8-3.2-7.9-3.5-7.7-3.9-7.7-4.4-7.4-5-7.3-5.1-7.3-5.7-7.1-3.8-4-4-3.6-4.2-3-4.5-2.5-5.4-2.1-5.8-1.5-6-0.8h-6.5l-6.7 0.5-7 1.3-7.4 2-7.7 2.6-18.2 20.3-63.1 69.8-60.6 65.8-5.8 6.8-5.3 7-4.5 7.4-4 7.7-3.7 8.9-3 9-0.6 1.8-1.2 1.5-1.2 1.3-1.7 1-1.7 0.6-1.8 0.1-1.9-0.1-1.7-0.6-1.3-0.8-19.5-13.5-19.7-13.2-19.8-12.8-19.7-12.4-20-12.2-19.9-11.7-20-11.4-20.1-11.1-10.1-5-10.6-4.5-11-4.1-11.3-3.4-11.7-2.9-12.1-2.2-12.2-1.8-12.6-1.1-12.9-0.5h-13.2l-13.2 0.6-13.3 1.3-13.6 1.7-13.3 2.4-13.5 2.9-13.4 3.5-29.9 8.1-29.4 7.3-28.7 6.6-28.1 5.6-4.7 0.7-4.3-0.2-3.7-0.8-3.6-1.6-2.2-1.5-2-1.9-1.9-2.1-1.7-2.6-1.4-3.1-1.2-3.2-1-3.8-0.9-4.1 6.8-24.5 7.6-24.3 8.1-24 9.1-23.7 7.9-19.4 8.6-19.2 9-19.1 9.4-18.7 10.1-18.7 10.4-18.4 11-18.2 11.5-18 1.5-2.4 1.9-3.7 1.6-3.9 1.5-3.9 1.2-4.4 1.7-9.5 1.4-13.1 1-10.8 0.3-3.5-0.3-3.2-0.5-2.9-0.9-2.5-1.2-2.4-1.5-1.7-1.7-1.3-1.6-0.8-1.8-0.2-1.8 0.1-1.8 0.6-2.1 1 4.1-12 4.3-10.6 4.6-9.2 2.4-4.1 2.5-3.7 2.6-3.3 2.6-3 2.6-2.6 2.8-2.2 2.8-1.9 2.9-1.5 3-1.2 3-0.7 5.2-0.5 5.3 0.5 5.5 1.4 5.7 2.4 13.9 0.3 13.7-0.1 13.2-0.4 13.1-0.7 14.4-0.9 14-0.4 13.4-0.2 13.1 0.2 15.7 0.8 15.6 1 15.5 1.6 15.5 1.9 13.7 2 13.6 2.4 13.6 2.8 13.6 3 13.5 3.4 13.5 3.7 13.5 4 13.3 4.3 13.4 4.6 13.2 5.1 13.2 5.3 13.3 5.5 13.2 6.1 13.1 6.3 13.1 6.5 13 6.9 2.9 1.3 3 0.6h3.1l3.2-0.6 2.9-1.3 2.5-1.8 2.1-2.3 1.7-2.7 0.4-0.7 2.6-7.3 1.8-7.4 0.9-7.2v-7.2l-0.7-5.7-1.1-5.5-1.8-5.6-2.1-5.4-2.8-5.4-3.3-5.4-3.7-5.3-4.5-5.2-4.9-5.3-5.4-5-5.9-5.2-6.4-4.9-7-4.9-7.3-4.7-7.8-4.6-8.2-4.4-11.6-5.8-11.7-5.4-11.9-5-12.1-4.5-11.6-3.9-11.7-3.5-11.9-3.2-11.9-2.7-12.1-2.3-12.4-2-12.3-1.7-12.6-1.1-12.6-0.9-12.9-0.5h-13l-13.1 0.3-13.2 0.7-13.3 1.2-13.5 1.3-13.6 1.9 4.8-6.5 5.1-6.4 9-9.9 9.8-9.3 10.5-8.6 11.3-7.9 39.7-26.2 11.4-7.9 6.1-4.3 46.2-37.6 46.8-37.5 47.3-37.7 47.8-37.5 5.5-1.9 5.8-1.5 5.9-1.3 6-1 6.3-0.5 6.3-0.2h6.4z"/>
		<path id="Layer" class="s14" d="m1399.1 3350.4h-9.2l-8.3 0.5-7.6 1.2-6.6 1.6-5.8 2.3-4.9 2.7-4 3.5-1.6 1.8-1.5 2.1-1.3 2.2-1.1 2.5-0.8 2.7-0.6 2.8-14.4 6.1-6.2 2.9-5.4 2.9-4.8 2.9-4.1 2.7-3.4 2.7-2.7 2.7-3.7 3.9-4.1 3.5-4.3 3.2-4.2 2.6-4.6 2.2-4.6 1.7-4.8 1.3-4.9 0.7-7 0.3-7.2-0.8-6.9-1.6-7-2.8-6.1-2.5-6-2.3-6.2-1.7-6.3-1.4-0.8-0.1-2.9-0.8-2.4-1.1-1.7-1.3-1.3-1.6-0.6-2v-2.3l0.6-2.7 1.3-2.9 1.1-2.5 0.6-2.6 0.3-2.8-0.3-2.8-1.8-13.4-1.3-12.9-0.9-12.5-0.4-12.1v-11.5l0.7-11.3 1-10.7 1.5-10.4 2-10 2.4-9.6 3-9 3.4-8.6 3.9-8.3 4.3-7.8 4.9-7.4 5.3-7 7.5-8.7 7.5-8.2 7.7-7.6 7.9-7.3 8.2-6.9 8.3-6.2 8.6-6 8.7-5.4 7.4-4.3 7.6-3.8 7.7-3.6 7.9-3.4 8.2-3 8.3-2.9 8.7-2.5 8.8-2.4 9.1-2.2 9.4-1.9 9.7-1.6 10.1-1.4 10.3-1.1 11-1 23.3-1.4 9.6-0.1 9.3 0.3 9.2 0.8 9 1.2 8.6 1.8 8.6 2.3 8.3 2.6 8.1 3.2 6.4 2.9 6.3 3.2 6.1 3.6 5.9 3.9 5.5 4.1 5.4 4.3 5.2 4.8 5 4.9 4.8 5.3 4.6 5.6 4.4 5.7 4.1 6.2 7.2 11.6 5.9 10.5 5 9.9 4 9.7 3.1 9.3 2.3 9.4 1.4 9.2 0.6 9-0.1 8.1-0.9 8.1-1.4 8.1-2.1 8.2-0.9 2.7-1.1 2.4-1.4 2.1-1.7 2-1.7 1.8-2 1.5-2.3 1.4-2.5 1.1-126.9 50.9-4.8 1.7-4.9 1.2-4.9 0.7-4.8 0.1-6-0.5-6-1.4-5.9-2.2-5.9-2.9-16.1-8.9z"/>
		<path id="Layer" class="s14" d="m2245.5 3369l-3-4.6-3.5-3.8-3.7-3.1-4.1-2.5-3.7-1.5-3.8-1.2-4-0.6-4.4-0.1-4.4 0.2-4.8 0.8-5 1.1-5.2 1.6-5.2 0.4-5 0.7-4.7 0.8-4.4 1.2-4.3 1.5-3.9 1.7-3.6 2.1-3.4 2.4-3.3 2.1-3.4 1.8-3.7 1.2-3.7 0.8-3.9 0.2-3.8-0.1-3.9-0.8-3.7-1.1-129.7-50.9-3.4-1.6-3.3-2-2.9-2.4-2.5-2.8-2.3-3-1.9-3.3-1.4-3.5-1-3.7-1.4-8.5-0.7-8.5-0.2-8.4 0.5-8.2 1.1-7.8 1.5-7.7 2.1-7.6 2.7-7.7 3.1-7.5 3.7-7.6 4.2-7.3 4.8-7.4 5.3-7.3 5.9-7.2 6.5-7.3 7-7.2 7.5-7 8-7.1 8.7-7.1 9.1-6.9 5.4-3.8 5.7-3.2 5.6-3.1 6-2.5 7-2.5 7.3-1.9 7.6-1.4 7.7-0.7 14.3-0.8 13.9-0.4h13.6l13.1 0.5 12.7 0.9 12.5 1.4 12.2 1.8 11.7 2.2 11.6 2.7 11.1 3.1 10.7 3.6 10.7 3.9 10.1 4.4 10.1 4.9 9.5 5.3 9.5 5.8 6.9 4.6 6.8 5.1 6.6 5.1 6.4 5.6 6.3 5.8 6.2 6 5.9 6.3 5.8 6.6 6.2 7.9 5.6 8.5 5.1 8.9 4.4 9.4 3.9 10 3.3 10.5 2.7 11 2.2 11.5 1.5 12.1 1 12.6 0.4 13.1-0.3 13.5-0.7 14.1-1.4 14.6-1.9 15.1-2.5 15.8-0.8 2.4-1.4 1.7-2 1.3-2.5 0.5-40.3 1.9h-3.7l-3.6-0.4-3.4-0.6-3.3-1-61.2-20.7-1.8-0.9-1.3-1.2-0.8-1.6-0.4-2-0.5-3-1.5-3.1-0.4-0.5-1.4-1.4-1.9-1-2.4-0.8z"/>
	</g>
	<g id="Layer">
		<path id="Layer" class="s0" d="m3243.4 152.4l1.6 1.3 1.6 1.5 2.1 3.2 1.5 3.6 0.8 4.2 0.2 4.8-0.4 5.2-1 5.8-1.7 6.5-2.3 6.9-0.2 1.5 0.5 1.4 1.1 1.1 1.4 0.4h0.9l3.1-0.4 2.7 0.2 2 0.5 1.5 1.1 0.9 1.4 0.3 1.9-11.3 1.2h-3.1l-1.6-0.4-1.2-0.5-2-1.7-1.7-2.7-2.7-4.9-3.1-4-3.5-3.3-3.9-2.3-2.9-1-2.9-0.6-3.1-0.2-3.3 0.1-3.6 0.5-3.6 1-3.8 1.3-4 1.6 5-10.3 1-2.9-0.1-1.2-0.2-0.9-0.8-0.6-1-0.5-1.4-0.2h-1.8-3.7l-3.6-0.5-3.2-1-3.1-1.4-2.9-2.1 9-0.8 8.4-1.2 8.2-1.4 7.8-1.6 7.3-2 7-2.3 6.6-2.5z"/>
		<path id="Layer" class="s15" d="m1957.3 201.3l-1.7 33.4-2.6 33.1-3.4 32.9-4.3 32.8-5 32.5-5.9 32.2-7 32-7.5 31.9-5.7 21.4-6.2 21.3-6.4 21.2-6.8 21.1-2.9 8.3-3.2 8.1-3.2 7.9-3.7 8-3.8 7.5-4 7.6-4.3 7.4-4.5 7.2-4.9 7.4-5.2 7.2-3.5 4.1-2.5 2.4-2.7 2.1-3 1.9-3 1.7-3.4 1.6-3.7 1.2-7.8 2.2-8.7 1.2-9.8 0.6h-11.1l-14.9-0.6-12.7-0.6-3.1-0.4-2.9-0.7-2.7-1.4-2.5-1.9-9.1-8.6-8.4-8.9-7.7-9.1-6.9-9.2-6.3-9.6-5.6-9.7-4.8-9.9-4.1-10.2-7.3-20.7-6.8-20.8-6.3-21.1-5.9-21.5-5.6-21.5-5-21.9-4.6-22.2-4.1-22.3-3.8-22.7-3.3-22.8-2.9-23.2-2.4-23.3-2-23.6-1.5-23.9-1.1-24.1-0.7-24.4 27.4-2.6 27.3-2.3 27.2-1.6 27.5-1.1 25.8-0.8 25.8-0.1 25.9 0.1 25.8 0.8 26 1.1 25.8 1.5 25.9 2z"/>
		<path id="Layer" class="s15" d="m1490.3 225l2.4 20.4 5.1 44.2 3.9 37.7 3.3 35.5 2.4 33.2 1.8 31.2 0.9 28.8 0.1 26.4-0.8 23.8-1.5 21.4-1 10-1.3 9.2-1.3 8.5-1.7 8-1.9 7.1-2 6.8-2.3 6-2.3 5.5-2.7 4.7-2.9 4.1-3 3.5-3.3 2.8-3.3 2.3-3.6 1.5-6.1 1.6-6 0.9-5.8 0.3-5.8-0.5-5.8-1.2-5.9-1.7-6.1-2.4-5.9-3-6.2-3.8-6-4.4-6.2-4.9-6.3-5.8-6.3-6.2-6.3-7.1-6.4-7.5-6.4-8.2-6.5-9-6.5-9.5-6.6-10.1-6.5-10.9-6.7-11.4-6.5-12-6.8-12.7-6.7-13.2-13.5-28.4-13.5-30.6-13.3-32.7-13.4-34.7-14.3-39.4-2.7-7.2 12.6-5.3 12.9-4.9 12.7-4.5 13-4.3 23.1-7.2 23.2-6.8 23.2-6.4 23.1-6.2 23.1-5.8 23.1-5.5 22.9-5.2z"/>
		<path id="Layer" class="s15" d="m2105.7 225.6l24 4.3 24 4.8 23.8 5.4 23.7 5.7 17.9 4.8 17.7 4.9 17.8 5.3 17.8 5.5 17.5 5.9 17.5 6.1 17.5 6.4 17.4 6.7-9.2 24.6-9.5 24.3-9.5 24.2-10 23.9-10.1 23.9-10.4 23.6-10.6 23.4-10.8 23.3-6.3 12.9-6.5 12.2-6.6 11.7-6.9 11.1-6.9 10.3-7 9.7-7.1 9.1-7.2 8.3-7.3 7.6-7.4 6.9-7.3 6.2-7.5 5.4-7.5 4.7-7.6 4-7.8 3.3-7.7 2.5-3.7 0.9-3.7 0.7-3.7 0.3-3.4 0.1-3.2-0.3-3.2-0.5-3.1-0.7-3-1-3.1-1.5-2.7-1.7-2.8-2.1-2.7-2.3-2.5-2.8-2.2-2.8-2.2-3.5-2-3.4-1.9-3.9-1.8-4.2-2.9-9-2.1-10.1-1.4-10.4-1.2-14.9-0.9-15.2-0.7-15.7-0.5-15.8-0.1-16.3 0.1-16.6 1.2-34.9 2-36 3-39.5 4.3-43.7 6.4-59.9z"/>
		<path id="Layer" class="s15" d="m1419 2648l34.4 24.2 5.8 5.5 5 5.7 4.5 5.5 3.9 5.7 3.2 5.7 2.6 5.6 1.9 5.8 1.4 5.7 0.1 1.6v1.5l-0.3 1.2-0.7 0.9-0.9 0.6-1.1 0.4-1.4 0.1-1.6-0.1-18.3-2.2-18.2-1.5-18.2-1-18.1-0.5-18 0.1-18.1 0.6-17.9 1.3-17.8 1.8-14.4 1.9-14.4 2.2-14.3 2.5-14.4 3.1-14.2 3.4-14.3 3.6-14.2 4.1-14.1 4.5-14.1 4.8-14 5.1-14 5.6-14 5.9-13.9 6.3-13.9 6.7-13.9 7-13.7 7.5-3.3 1.4-3.5 0.7-3.5-0.1-3.4-0.6-3.3-1.6-2.9-2-2.4-2.6-1.8-3-0.5-1.2-1.7-4.8-1.3-4.7-1.1-4.8-0.6-4.7-0.4-4.5v-4.6l0.4-4.4 0.6-4.4 1.1-4.5 1.5-4.6 1.8-4.4 2.3-4.2 2.6-4.3 3-4.2 3.4-4.1 3.8-4.1 6.8-6.5 7.2-6.3 7.4-6.2 7.7-5.8 8.1-5.5 8.3-5.3 8.6-5.1 8.8-4.8 9.2-4.5 9.3-4.1 9.7-4 9.8-3.6 10.2-3.3 10.2-3 10.6-2.8 10.6-2.4 11.1-2.1 11.1-1.9 11.2-1.5 11.3-1.1 11.5-0.9 11.6-0.5 11.6-0.2 11.4 0.2 11.6 0.5 11.5 0.9 11.4 1.1 11.4 1.5 11.2 1.8 11 2.1 10.8 2.4z"/>
		<path id="Layer" class="s15" d="m2107.7 2721.2l7.1-12.6 7.5-11.6 8.1-10.7 4.3-4.9 4.2-4.8 4.5-4.4 4.5-4.2 4.8-4 4.8-3.7 4.9-3.5 5-3.3 5.2-2.9 5.3-2.8 9.7-4.2 10.2-3.6 13.6-1.9 13.5-1.3 13.3-1.2 13.2-0.7 13.1-0.3h13l12.9 0.5 12.6 0.9 12.6 1.1 12.3 1.7 12.4 2 12.1 2.3 11.9 2.7 11.9 3.2 11.7 3.5 11.6 3.9 12.1 4.5 11.9 5 11.7 5.4 11.6 5.8 8.2 4.4 7.8 4.6 7.3 4.7 7 4.9 6.4 4.9 5.9 5.2 5.4 5 4.9 5.3 4.5 5.2 3.7 5.3 3.3 5.4 2.8 5.4 2.1 5.4 1.8 5.6 1.1 5.5 0.7 5.7v7.2l-0.9 7.2-1.8 7.4-2.6 7.3-0.4 0.7-1.7 2.7-2.1 2.3-2.5 1.8-2.9 1.3-3.2 0.6h-3.1l-3-0.6-2.9-1.3-13-6.9-13.1-6.5-13.1-6.3-13.2-6.1-13.3-5.5-13.2-5.3-13.2-5.1-13.4-4.6-13.3-4.3-13.5-4-13.5-3.7-13.5-3.4-13.6-3-13.6-2.8-13.6-2.4-13.7-2-15.5-1.9-15.5-1.6-15.6-1-15.7-0.8-13.1-0.2-13.4 0.2-14 0.4-14.4 0.9-13.1 0.7-13.2 0.4-13.7 0.1z"/>
		<path id="Layer" class="s15" d="m1536.4 2808.3l4.6 9.4 3.7 9.3 2.5 9.2 1.7 9.1-4.7 4-4.7 3.9-4.9 3.5-5.1 3.4-6.1 3.7-6.3 3.4-6.4 2.9-6.7 2.7-6.8 2.4-7.1 2.1-7.3 1.7-7.4 1.5-35.3 6.6-16.5 3.5-16 3.5-15.2 3.7-14.8 3.9-14.2 4-13.7 4.2-13.2 4.3-12.8 4.5-12.2 4.7-11.8 4.7-11.4 5.1-10.8 5.2-10.3 5.2-9.9 5.6-17.3 9.7-17.6 8.9-18 8.1-18.1 7.3-3.7 1-3.9 0.5-3.8-0.1-3.7-0.6-3.7-1.3-3.4-1.9-3.1-2.3-2.7-2.7-4.1-5.6-3.8-5.6-3-6-2.7-6-1.9-5.9-1.4-6.2-0.2-2.3 0.1-2.2 0.6-2.3 1-2.3 7.9-13.2 8.4-12.5 9.1-12.1 9.9-11.4 10.6-11.1 11.3-10.6 12.1-10.1 12.9-9.6 13.6-9.2 14.4-8.6 15.1-8.2 15.8-7.8 16.5-7.2 17.4-6.8 17.9-6.3 18.9-5.8 19.4-5.3 8.2-2 8.1-1.7 7.9-1.4 7.8-1.1 7.7-0.7 7.6-0.7 7.5-0.2h7.3l7.3 0.4 7.1 0.6 7 0.9 7 1.1 6.8 1.5 6.7 1.8 6.5 2 6.4 2.3 3.4 1.6 3.2 2.3 2.8 2.6 2.2 3 3.8 5.6 3.7 4.8 3.5 4 3.5 3.3 3.4 2.4 3.4 1.6 3.3 0.9h3.1l3.1-0.6z"/>
		<path id="Layer" class="s15" d="m707.6 2941.1l-0.3 8.2 0.3 8.7 0.7 9.6 1.5 13.1 1.9 18.4 0.5 7.2 0.1 6.6-0.1 6.7-0.4 6.4-0.7 6.2-1 6.2-1.8 7.3-2-12-1.5-12.3-1-12.6-0.4-13 0.3-13.2 0.7-13.5 1.3-13.9z"/>
	</g>
	<g id="Layer">
		<path id="Layer" class="s16" d="m3262.4 207.2l2.2 1.8 2.2 2.4 1.8 2.8 0.6 2 3.6 16.4 11.8 55.8 4.2 21.3 3.4 19.6 3 19.3 2.4 18.3 1.7 17.7 1.4 17.3 1.4 26.8 0.9 26.7 0.2 26.5-0.2 26.3-0.5 17.5-1 18-1.3 18.8-1.7 19.3-2.1 20-2.5 20.5-2.9 21.2-3.2 21.8-2.7 15.4-3.3 15.7-4 16.4-4.7 17.3-5.3 17.6-6.1 19.1-7.1 21.3-10.2 29-14.1 40.6-2.3 5.8-2.5 4.2-1.4 1.6-1.4 1.2-1.5 0.8-1.5 0.4h-1.5l-1.6-0.3-1.7-0.8-1.7-1.1-3.7-3.5-3.8-4.9-15.8-23.5-19.4-28.6-14.6-21-13.5-18.6-12.8-16.9-12.5-16-12.4-14.5-12.1-13.6-12.1-12.5-14.2-14.6-19.2-20.4-24.2-25.6-9.5-9.7-8.8-8.6-8.7-8.1-8.6-7.6-8.4-6.9-8.4-6.6-26.3-19.8-27.6-20.4 17.8-23.6 17.5-22.5 17.1-21.3 16.8-20.1 16.4-19 16-17.8 15.7-16.6 15.4-15.5 13.7-13.4 16.6-15.6 41.6-38.2 52.8-47.5 64-56.9 0.2-0.3 2.7-2 2.6-1.7 2.9-1.7 3.2-1.4z"/>
		<path id="Layer" class="s16" d="m680.5 546.4l-25.6 19.4-26.2 19.8-18.5 14.8-8.3 7.2-7.8 7.1-7.4 7-6.9 7.1-28.2 29.3-21.7 22.7-15.7 16.6-14 15.4-12.5 14.4-11.9 14.2-11.1 13.8-10.2 13.8-9.6 13.6-14.6 21.3-15.4 21.6-15.9 22-16.6 22.1-2.1 2.2-1 0.5-1.1 0.1-1.1-0.2-1-0.5-1-1.1-1-1.2-4.4-6.7-3.9-6.8-3.4-7-3-7.2-2.7-7.5-13.3-41-7-20.1-7-19.9-3.4-9.7-3.2-9.8-2.9-9.7-2.6-9.8-2.4-9.8-2.2-9.9-1.9-9.9-1.6-9.9-3.5-25.1-3.2-24.2-2.6-23.3-2.3-22.5-1.7-21.5-1.4-20.7-0.9-19.7-0.5-18.8-0.1-20.9 0.2-21.6 0.5-21.9 1-22.5 1.4-21.1 2-21.3 2.7-21.8 3.4-22.6 4.1-23.2 4.9-25 6.1-27.4 7.8-34.2 5.7-0.2 5.1 0.4 5.2 0.8 5.3 1.5 5.2 1.9 5.1 2.6 5.1 3.1 5.1 3.5 5.2 4.2 30.5 26.3 28.5 25 26.2 23.4 24.3 21.9 22.1 20.5 20.2 19.2 18 17.6 15.9 16.3 9.4 10.1 11.1 12.3 27.1 31.4 33.3 40.2z"/>
		<path id="Layer" class="s16" d="m1100.7 2402.3l149.5 15.8 148.7 16.5 74.5 8 34.3 3.3 32.2 2.9 30.4 2.5 28.4 2 26.5 1.5 24.6 1.2 37.4 1.2 37.5 0.9 37.4 0.6 37.6 0.2 36.6-0.2 36.7-0.5 36.7-0.8 36.6-1.3 24.3-1.1 26.5-1.7 28.3-2 30.4-2.4 32.4-3 34.2-3.4 74.7-8.1 73.6-8.3 74-7.9 74.3-8 74.6-7.5-47.8 37.5-47.3 37.7-46.8 37.5-46.2 37.6-6.1 4.3-11.4 7.9-39.7 26.2-11.3 7.9-10.5 8.6-9.8 9.3-9 9.9-5.1 6.4-4.8 6.5-10.2 3.6-9.7 4.2-5.3 2.8-5.2 2.9-5 3.3-4.9 3.5-4.8 3.7-4.8 4-4.5 4.2-4.5 4.4-4.2 4.8-4.3 4.9-8.1 10.7-7.5 11.6-7.1 12.6-5.7-2.4-5.5-1.4-5.3-0.5-5.2 0.5-3 0.7-3 1.2-2.9 1.5-2.8 1.9-2.8 2.2-2.6 2.6-2.6 3-2.6 3.3-2.5 3.7-2.4 4.1-4.6 9.2-4.3 10.6-4.1 12-5.6 3.3-5.4 3.5-5.3 3.7-5.1 3.8-4.8 4-4.5 4.3-4.4 4.4-4 4.5-4.1 5-3.7 5.1-16.5 23.2-17.2 23.3-18 23.4-18.6 23.6 2.7-9.3 3.1-9 3.2-8.9 3.4-8.6 3.6-8.4 3.9-8.2 4-7.9 4.3-7.9 4.4-7.5 4.6-7.5 5-7.1 5-7 5.3-6.6 5.5-6.6 5.7-6.3 5.9-6 16.9-17.3 11.7-13 4.1-4.4 4.5-4.1 5.2-4.3 7.3-5.6 8.8-6.6 6.2-5.5 5.1-5.5 4.4-5.8 2-3.3 3.9-6.3 4.1-5.8 4.3-5.4 4.5-5 4.8-4.6 5-4.2 5.3-3.8 5.4-3.4 7.2-3.7 7.6-3 7.9-2.4 8.3-1.8 3-0.6 2.8-1.1 2.2-1.4 2.1-1.6 13.4-11.5 14.1-11.2 2.9-2.5 2-2.6 1.4-2.6 0.7-2.6-0.1-2.3-0.5-2.4-1-2.4-1.7-2.5-2-2.3-2.4-1.5-2.5-0.9-2.9-0.2h-17.6l-18.2-0.9-18.7-1.8-19.3-2.6-11.1-1.2-14.7-0.6h-18.2l-21.8 0.6-25.3 1.2-28.8 1.7-32.5 2.4-35.9 2.9-28 2-30 1.2-32.1 0.5-34.2-0.3-36.4-1-38.4-1.7-40.6-2.4-42.5-3.3-18.9-1.4-19.6-1-20.2-0.9-21.5-0.5-22-0.2h-23.9l-62 0.7h-6.3l-6.5-0.4-6.6-0.7-7-1-14.4-3.1-20-5.1-1.5-0.4-1.6-0.4h-1.5l-1.4 0.3-1 0.5-1 0.7-0.8 1-1 2.9-0.4 3.9 0.5 4.8-14.3-7-12.7-6.9-11.1-6.7-9.3-6.6-39.7-30.2-40.5-31.4-40.9-32.5-41.7-33.6-2.8-1.9-3-1.6-3.5-1.6-3.9-1.2-3.4-1.2-3.1-1.5-2.7-1.7-2.6-2-1.3-1.7-7.6-8.8-8.1-8.4-8.9-8.4z"/>
		<path id="Layer" class="s16" d="m1895.2 2979.3l-11.1 25.6-10.2 25-9.6 24.7-8.8 24.3-8.1 23.7-7.3 23.3-6.7 23-5.8 22.4-2.7 12-2.5 12.1-2.2 12.2-1.7 12.3-1.7 12.6-1.1 12.7-1 12.9-0.5 13-0.4 13.1v13.3l0.4 13.5 0.6 13.6 0.9 13.7 1.2 13.9 1.6 14.1 1.8 14.2 0.3 3.6-0.3 3-0.8 2.5-1.3 2.2-1.9 1.6-2.5 1-2.9 0.8-3.5 0.1-19.1-0.4-2.4-0.2-2.2-0.8-2.2-1.3-1.7-1.6-1.5-1.9-1-2.3-0.5-2.2-0.2-2.5 0.2-0.7 1.7-14.7 1.5-14.5 1.2-14.4 0.7-13.9 0.6-14 0.2-13.6v-13.5l-0.4-13.4-0.8-12.9-1-13-1.2-12.6-1.7-12.5-1.9-12.2-2.2-12.1-2.5-11.8-2.9-11.6-4.7-16.9-5.3-18.3-6.2-19.5-6.9-20.8-7.7-22.2-8.4-23.4-19-50.6 6.9 1 6.8 0.5 6.7-0.2 6.4-0.7 12.1 1.9 11.7 1.4 11.5 1.1 11.1 0.5 10.9 0.2 10.6-0.2 10.3-0.6 10.1-1 9.8-1.6 9.5-1.8 9.2-2.3 8.9-2.8 8.6-3.1 8.3-3.6 8.1-4z"/>
	</g>
	<g id="Layer">
		<path id="Layer" class="s17" d="m1059 2398.9l6.5 0.6 6 1 5.7 1.4 5.5 1.8 5.2 2 4.9 2.5 4.5 2.8 4.3 3.3 2.9 2.5 2.9 2.8 2.7 3 2.4 3.3 4.5 6.9 3.8 7.8 1.6 4.8 1 4.5 0.1 4.4-0.6 4.2-1 2.9-1.5 2.9-1.9 2.8-2.3 2.6-8.9 9.3-11 11.5-4.2 4-4.2 3.6-4 3-4.1 2.7-4.1 2.3-4.2 2-5.7 2-5.7 1.7-6.3 1-6.6 0.6-32.9 2.2-45 3.7-37.6 3.2-27.5 1.9-24.9 1.4-22.8 0.6 37.5-74.3 1.9-2.7 2.3-1.9 2.9-0.8h3.2l30.8 3.9 31.9 3.5 32.8 3.1 34 2.8 9.4 0.4 8.9-0.4 8.8-1 8.5-1.8 2.9-1.1 2.1-1.6 1.8-2.4 1.1-3.1 0.8-3.6 0.3-3.7 0.2-3.5-0.3-3.6-0.6-4.7-1.1-4.5-1.7-4.6-2.3-4.4-2.6-4.5-3.1-4.3-3.7-4.4z"/>
		<path id="Layer" class="s17" d="m2515.7 2430.7l1.1 13.9v0.3l0.7 3.8 1.4 3.6 2.1 3.2 2.8 2.7 3.3 2.2 3.5 1.5 3.8 0.8h3.9l153.2-14.9 2.9 0.1 2.6 0.8 2 1.6 1.8 2.4 41.5 78.4-46.5-5.5-46.6-4.7-46.9-3.9-47.1-3.3-9.6-1-8.7-1.5-8-2.4-7.7-3.1-5.2-2.5-4.9-3-4.8-3.3-4.9-3.9-4.8-4.3-4.9-4.8-5.3-5.6-5.7-6.4-1.9-2.6-1.6-2.6-1.4-2.7-1-2.9-0.8-2.5-0.3-2.7-0.2-5.6 0.9-5.9 1.9-6.2 2.9-6.4 3.9-6.6 4.8-6.6 5.6-6.6 1-0.9 1-0.5 1.2-0.4h1.3l1.2 0.3 1.2 0.5 1 0.8 0.7 1 0.7 1.2 2 4.9 2.5 4.3 2.9 3.5 3.5 2.8z"/>
		<path id="Layer" class="s17" d="m1662.2 3106l6.3 15.2 4.4 11.7 4.2 11.8 3.7 12 3.4 12.2 2.9 12.2 2.6 12.5 2.4 12.6 1.9 12.7 1.5 12.9 1.3 12.9 0.8 13.1 0.5 13.3 0.2 13.4-0.2 13.5-0.6 13.8-0.9 13.8-1 10.9-1.4 10.3-1.7 9.7-2.2 9.1-2.4 8.4-2.6 7.9-3.2 7.3-3.4 6.8-5.4 9.2-5.8 9.5-6.1 9.1-6.5 8.9-6.4 8.3-6.5 7.8-6.6 7.5-6.5 6.8-6.6 6.1-6.6 5.6-6.4 4.9-6.4 4.4-6.3 3.8-6.3 3.1-6.3 2.5-6 1.9-28.5 7.2-22.8 4.9-20.8 3.7-9.7 1.2-9.5 1.1-9.3 0.7-9 0.3-8.9 0.1-8.4-0.4-8.3-0.6-8-0.9-7.9-1.3-7.6-1.6-3.1-1.3-1.4-0.8-1-1.1-1-1.2-0.6-1.5-0.8-3.4-12.3-150.1 11.2 5.7 16.1 8.9 5.9 2.9 5.9 2.2 6 1.4 6 0.5 4.8-0.1 4.9-0.7 4.9-1.2 4.8-1.7 126.9-50.9 2.5-1.1 2.3-1.4 2-1.5 1.7-1.8 1.7-2 1.4-2.1 1.1-2.4 0.9-2.7 2.1-8.2 1.4-8.1 0.9-8.1 0.1-8.1-0.6-9-1.4-9.2-2.3-9.4-3.1-9.3-4-9.7-5-9.9-5.9-10.5-7.2-11.6-4.1-6.2-4.4-5.7-4.6-5.6-4.8-5.3-5-4.9-5.2-4.8-5.4-4.3-5.5-4.1-5.9-3.9-6.1-3.6-6.3-3.2-6.4-2.9-8.1-3.2-8.3-2.6-8.6-2.3-8.6-1.8-9-1.2-9.2-0.8-9.3-0.3-9.6 0.1-23.3 1.4-11 1-10.3 1.1-10.1 1.4-9.7 1.6-9.4 1.9-9.1 2.2-8.8 2.4-8.7 2.5-8.3 2.9-8.2 3-7.9 3.4-7.7 3.6-7.6 3.8-7.4 4.3-8.7 5.4-8.6 6-8.3 6.2-8.2 6.9-7.9 7.3-7.7 7.6-7.5 8.2-7.5 8.7-5.3 7-4.9 7.4-4.3 7.8-3.9 8.3-3.4 8.6-3 9-2.4 9.6-2 10-1.5 10.4-1 10.7-0.7 11.3v11.5l0.4 12.1 0.9 12.5 1.3 12.9 1.8 13.4 0.3 2.8-0.3 2.8-0.6 2.6-1.1 2.5-1.3 2.9-0.6 2.7v2.3l0.6 2 1.3 1.6 1.7 1.3 2.4 1.1 2.9 0.8 0.8 0.1 6.3 1.4 6.2 1.7 6 2.3 6.1 2.5 7 2.8 6.9 1.6 7.2 0.8 7-0.3 4.9-0.7 4.8-1.3 4.6-1.7 4.6-2.2 4.2-2.6 4.3-3.2 4.1-3.5 3.7-3.9 2.7-2.7 3.4-2.7 4.1-2.7 4.8-2.9 5.4-2.9 6.2-2.9 14.4-6.1-0.4 7.4 0.4 7.2 0.9 6.8 1.6 6.5 1.1 2.7 1.8 2 2.3 1.2 2.6 0.6 3.2 0.5 2.9 0.8 2.6 1.3 2.3 1.5 2.2 2.3 1.9 2.7 1.5 3.3 1 3.7 8.5 39.4 7.3 34.9 0.2 1.8-0.2 2.1-0.6 2-1.2 1.8-1.4 1.6-1.7 1.2-2 0.7-2.1 0.4-2.1-0.1-39.3-6.5-37.8-5.6-10.6-1.8-9.9-2.4-9.5-3-8.9-3.5-8.3-4.1-7.8-4.6-7.2-5.3-6.7-5.9-1-0.9-8-8.1-7.8-8.5-7.8-9-7.8-9.4-7.5-9.7-7.6-10.4-7.4-10.6-7.2-10.7-6.9-11.2-6.8-11.3-6.6-11.5-6.2-11.6-5.8-11.6-5.5-11.5-5.2-11.6-4.6-11.4-14-34.9-14.1-33.9-14.3-32.8-14.2-32.2-14.2-31-14.5-30.2-14.5-29.2-14.5-28.2-3.1-5.7-3.8-5.8-4.6-6.3-6.4-8.4-8.9-12-6.2-9.3-3.7-5.6-3.2-3.8-1.5-1.2-1.6-0.8-1.2-0.4h-1.3l-1.1 0.6-1 0.8-0.9 1.4-0.9 1.8-1.4 4.8-1 6.5-0.4 4.8-0.2 4.9 0.1 4.9 0.3 5.1 1.5 9.9 2.4 10.2 26.1 91.2 24.6 89.4 4.8 16.8 5.6 17.2 6.1 17.6 7 18.7 7.5 18.9 8.7 20.6 10 22.7 13.8 31.1 4.4 9.7 0.4 1.3v1.1l-0.1 1-0.5 1-0.6 1-0.9 0.7-0.9 0.6-1.1 0.2h-1.2l-15.1-1.3-14.7-1.8-14.5-2.2-14.2-2.5-13.9-2.7-13.5-3.2-13.2-3.5-12.9-3.8-12.6-4.3-12.2-4.5-11.9-4.9-11.6-5.3-11.4-5.6-10.9-5.9-10.7-6.3-10.4-6.7 1.8-30.3 1.1-30.4 0.7-30.1v-30l-0.7-29.8-1.1-29.6-1.8-29.6-2.4-29.4-0.5-8.9 0.3-8.9 0.7-7.1 1.3-7.3 1.8-7.4 2.2-7.5 2.7-7.7 3.4-8.2 9.9-21.7 0.5-1 3.6-6.6 4.1-6 4.7-5.1 5.1-4.6 4.5-3 4.9-2.6 6.3-2.8 6.4-2.3 6.5-1.9 6.6-1.2 8.2-1 8.2-0.3 4 0.3 4 0.6 3.8 1.1 3.8 1.5 3.5 1.9 3.4 2.3 3 2.6 2.8 2.9 11.4 13.9 10.7 14 10 14.1 9.6 14.4 3.7 5.5 4 5.5 9.4 11.6 11.1 12.3 16 16.2 15.5 15.8 10.9 11.8 12.3 13.2 8.3 8.7 5.7 6.6 4.5 6.3 3.8 6.5 2.5 5.2 2 5.4 1.9 5.9 1.4 6.3 0.5 1.7 0.9 1.3 1.1 1.3 1.3 1 1.6 0.6 1.7 0.3h1.6l1.6-0.5 1.3-0.6 55.6-35.8 56.9-37.8 13.5-8.6 13.6-7.8 13.7-7 14-6.2 14-5.4 14.2-4.7 14.4-3.8 14.5-3 9.4-1.5 9.6-1.1 9.7-0.9 9.7-0.4 9.7-0.3 9.8 0.3 9.9 0.5 9.9 0.9 8.6 1.7 17.9 4.7 63.8 17.3 14.9 3.7 14.9 2.9 14.6 2.3 14.6 1.5 14.4 0.7 14.3-0.2 14.1-0.7z"/>
		<path id="Layer" class="s17" d="m2720.8 3345.1l-15.8 9.1-16.2 8.5-16.5 7.6-16.7 6.8-14.9 5.6-15.2 4.8-15.3 4.3-15.6 3.7-15.7 3.2-16.2 2.5-16.1 2.1-16.5 1.4h-3.8l-3.1-0.5-2.4-1-1.5-1.5-0.9-2-0.1-2.5 0.7-3.1 1.4-3.6 11.9-25.5 10.3-23.4 9.3-22 8.4-21.1 7.9-20.4 7-20.3 6.4-19.7 6-19.7 15.2-54.4 14.5-53.8 14-53 13.2-52.5 0.4-3-0.3-3-0.9-2.9-1.6-2.6-2-2.3-2.5-1.8-2.8-1.1-3-0.5-2.5 0.1-7.2 1 7.7-2.6 7.4-2 7-1.3 6.7-0.5h6.5l6 0.8 5.8 1.5 5.4 2.1 4.5 2.5 4.2 3 4 3.6 3.8 4 5.7 7.1 5.1 7.3 5 7.3 4.4 7.4 3.9 7.7 3.5 7.7 3.2 7.9 2.7 8 2.5 9 2.1 9.2 1.5 9.3 1 9.5 0.5 9.7v9.7l-0.6 10.1-1.1 10-6.8 53.8-2.4 22.3-0.5 32.4-0.2 32.8v33.4z"/>
		<path id="Layer" class="s17" d="m2603.9 3008.9l-15.3 31.9-15.9 33.6-16.4 35.4-16.7 37.2-17.2 38.8-17.7 40.7-18.2 42.3-18.5 44.2-6.2 13.9-7.8 15.8-8.8 16.7-9.3 16.5-9.6 15.7-9.6 14.9-9.5 14-9.6 13-9.1 11.3-8.8 10.2-8.7 8.9-8.4 7.9-8.2 6.5-8 5.4-7.7 4.1-3.6 1.6-3.7 1.2-13.2 4-13.6 3.6-13.9 3.3-14.3 2.9-14.6 2.6-14.9 2.4-15.4 2-15.6 1.8h-1.7l-1.8-0.4-1.8-0.7-1.4-1.2-1.2-1.4-0.9-1.5-0.5-1.7-0.1-1.8 0.1-1.1 5.9-35.6 6.1-33.8 1.3-5.6 1.9-5 2.7-4.4 3.1-3.9 2.8-2.7 3.3-2.3 3.6-1.8 3.9-1.6 2.7-1.1 2-1.6 1.9-2.4 1.1-3 0.8-3.9 0.5-4-0.1-5.4-0.8-5.4-1.5-5.4-2.3-5.5 2.9 0.2 2.4 0.8 1.9 1 1.4 1.4 0.4 0.5 1.5 3.1 0.5 3 0.4 2 0.8 1.6 1.3 1.2 1.8 0.9 61.2 20.7 3.3 1 3.4 0.6 3.6 0.4h3.7l40.3-1.9 2.5-0.5 2-1.3 1.4-1.7 0.8-2.4 2.5-15.8 1.9-15.1 1.4-14.6 0.7-14.1 0.3-13.5-0.4-13.1-1-12.6-1.5-12.1-2.2-11.5-2.7-11-3.3-10.5-3.9-10-4.4-9.4-5.1-8.9-5.6-8.5-6.2-7.9-5.8-6.6-5.9-6.3-6.2-6-6.3-5.8-6.4-5.6-6.6-5.1-6.8-5.1-6.9-4.6-9.5-5.8-9.5-5.3-10.1-4.9-10.1-4.4-10.7-3.9-10.7-3.6-11.1-3.1-11.6-2.7-11.7-2.2-12.2-1.8-12.5-1.4-12.7-0.9-13.1-0.5h-13.6l-13.9 0.4-14.3 0.8-7.7 0.7-7.6 1.4-7.3 1.9-7 2.5-6 2.5-5.6 3.1-5.7 3.2-5.4 3.8-9.1 6.9-8.7 7.1-8 7.1-7.5 7-7 7.2-6.5 7.3-5.9 7.2-5.3 7.3-4.8 7.4-4.2 7.3-3.7 7.6-3.1 7.5-2.7 7.7-2.1 7.6-1.5 7.7-1.1 7.8-0.5 8.2 0.2 8.4 0.7 8.5 1.4 8.5 1 3.7 1.4 3.5 1.9 3.3 2.3 3 2.5 2.8 2.9 2.4 3.3 2 3.4 1.6 129.7 50.9 3.7 1.1 3.9 0.8 3.8 0.1 3.9-0.2 3.7-0.8 3.7-1.2 3.4-1.8 3.3-2.1 3.4-2.4 3.6-2.1 3.9-1.7 4.3-1.5 4.4-1.2 4.7-0.8 5-0.7 5.2-0.4-1.5 7.1-1.4 7.2-0.9 7.4-0.7 7.7-0.4 7.9-0.3 8.4 0.4 21.9 0.3 22.3-0.2 8.7-0.4 8-0.7 8-1 7.8-1.3 7.4-1.6 7.4-3.2 11.9-1.3 3-2.1 2.3-2.6 1.5-3.2 0.7-16.2 1.3-16.6 0.5-17.3-0.4-17.6-1.1-18.2-2-18.6-2.8-19.2-3.6-19.6-4.5-10.1-2.9-9.7-3.6-6.6-2.9-6.3-3.3-6-3.6-6.2-4.1-5.9-4.4-5.8-4.8-5.7-5-5.6-5.5-5.4-6-5.5-6.3-5.4-6.6-5.3-7.3-5.4-7.7-5.4-8.3-11.5-18.9-3.5-6.6-3.1-7.1-2.9-7.5-2.4-7.9-2.2-8.5-1.9-8.8-1.4-9.3-1.1-9.9-1-11.7-0.6-11.8-0.5-11.7-0.2-11.7 0.2-11.6 0.5-11.8 0.6-11.5 1-11.6 2.3-19.2 2.9-19 3.8-18.9 4.5-19 5.3-18.8 6-18.8 6.8-18.6 7.6-18.7 0.9 4.1 1 3.8 1.2 3.2 1.4 3.1 1.7 2.6 1.9 2.1 2 1.9 2.2 1.5 3.6 1.6 3.7 0.8 4.3 0.2 4.7-0.7 28.1-5.6 28.7-6.6 29.4-7.3 29.9-8.1 13.4-3.5 13.5-2.9 13.3-2.4 13.6-1.7 13.3-1.3 13.2-0.6h13.2l12.9 0.5 12.6 1.1 12.2 1.8 12.1 2.2 11.7 2.9 11.3 3.4 11 4.1 10.6 4.5 10.1 5 20.1 11.1 20 11.4 19.9 11.7 20 12.2 19.7 12.4 19.8 12.8 19.7 13.2 19.5 13.5 1.3 0.8 1.7 0.6 1.9 0.1 1.8-0.1 1.7-0.6 1.7-1 1.2-1.3 1.2-1.5 0.6-1.8 3-9 3.7-8.9 4-7.7 4.5-7.4 5.3-7 5.8-6.8 60.6-65.8z"/>
	</g>
	<g id="Layer">
		<path id="Layer" class="s18" d="m357.8 132.3l-1.1 4.9-0.7 4.5-0.3 3.9v3.6l0.4 2.9 0.6 2.5 1.1 1.9 1.6 1.5 1.8 1 2.2 0.5 3.6 0.4 13.1 1.7 13.1 2 13 2.4 13 2.8-18.8-0.7h-5.5l-4.1 0.5-2.7 1.1-0.9 0.8-0.6 0.8-0.2 1 0.2 1.2 1.2 2.6 2.7 3.3 4 3.8 6.6 6.4 5.1 5.3 4 3.6 3.6 2.8 3.4 2 29.5 14.9 29.2 15.5 18.8 10.3 18.7 10.5 18.5 10.8 18.6 11 18.2 11.3 18.3 11.5 18 11.6 18 11.9 2.4 1.4 2.4 0.9 3.4 0.8 3.4 0.6 2.7 1.1 2.5 1.5 20.6 15.9 20.5 16 20.1 16.1 19.9 16.3 19.7 16.4 19.2 16.5 19.2 16.6 18.9 16.7 1.1 1.2 1.3 1.9 0.7 2.1 0.4 2.4-0.1 2.3-0.6 2.2-1 2.1-1.6 1.7-1.8 1.4-115.8 69.7-39.8-49-33.3-40.2-27.1-31.4-11.1-12.3-9.4-10.1-15.9-16.3-18-17.6-20.2-19.2-22.1-20.5-24.3-21.9-26.2-23.4-28.5-25-30.5-26.3-5.2-4.2-5.1-3.5-5.1-3.1-5.1-2.6-5.2-1.9-5.3-1.5-5.2-0.8-5.1-0.4-5.7 0.2z"/>
		<path id="Layer" class="s18" d="m3260 204.5h1.7l0.9 0.6 0.2 0.9-0.4 1.2-12.8 5.3-3.2 1.4-2.9 1.7-2.6 1.7-2.7 2-0.2 0.3-64 56.9-52.8 47.5-41.6 38.2-16.6 15.6-13.7 13.4-15.4 15.5-15.7 16.6-16 17.8-16.4 19-16.8 20.1-17.1 21.3-17.5 22.5-17.8 23.6-117.5-75.7-1.4-1.1-1-1.3-0.8-1.5-0.3-1.6-0.2-1.8 0.4-1.6 0.6-1.5 1-1.4 0.9-0.9 141.1-114.5 4.7-1.4 4.6-1.5 4.5-1.9 4.2-2.1 7.7-4.7 7.2-5.4 6.8-6.5 6.3-7.1 213.3-125.5 4-1.6 3.8-1.3 3.6-1 3.6-0.5 3.3-0.1 3.1 0.2 2.9 0.6 2.9 1 3.9 2.3 3.5 3.3 3.1 4 2.7 4.9 1.7 2.7 2 1.7 1.2 0.5 1.6 0.4h3.1z"/>
	</g>
	<g id="Layer">
		<path id="Layer" class="s13" d="m2591.5 1448.9c-38.7 10.3-76.8-7-85.3-38.8-8.4-31.8 16-65.8 54.7-76.1 38.7-10.3 76.9 7 85.3 38.8 8.5 31.8-16 65.8-54.7 76.1z"/>
		<path id="Layer" class="s13" d="m1079.5 1461.7c-39 10.1-77.3-7.5-85.5-39.5-8.3-32 16.6-66 55.6-76.1 39.1-10.1 77.3 7.6 85.6 39.6 8.3 31.9-16.6 65.9-55.7 76z"/>
		<path id="Layer" class="s13" d="m2485.2 1479.4c-20.6 14.1-46.2 12.5-57.2-3.6-11-16.1-3.2-40.6 17.5-54.7 20.6-14.1 46.2-12.4 57.2 3.7 11 16.1 3.2 40.5-17.5 54.6z"/>
		<path id="Layer" class="s13" d="m973.7 1492.1c-20.9 14.2-46.6 12.6-57.6-3.5-11.1-16.2-3.2-40.8 17.7-55 20.8-14.2 46.6-12.6 57.6 3.6 11 16.2 3.1 40.7-17.7 54.9z"/>
	</g>
	<path id="Layer" class="s0" d="m1791.5 1755.8l-10 6-12.8 9.1-13.2 9.4-5.2 3.3-5 2.8-5 2.5-4.9 2-4.8 1.8-4.7 1.3-10.2 2-10.4 1.1-10.6 0.4-10.5-0.4-10.6-1.1-10.4-1.9-10-2.8-9.9-3.4-9.3-4-8.9-4.7-8.2-5.4-7.8-5.9-7.2-6.6-6.3-6.9-5.8-7.7-4.9-7.9-2.5-4.8-2.8-6.4-2.7-7.7-2.3-8.3-2.1-8.9-1.5-8.5-1.1-8.5-0.5-7.9-0.1-7.7 0.3-6.7 0.9-6.1 1.3-5.8 1.7-5.2 2.3-4.7 2.5-3.9 3.1-3.4 3.4-2.9 2.7-1.6 2.9-1.3 3.1-1 3.2-0.7 3.7-0.3 3.6 0.5 3.4 1.2 3.2 1.7 2.8 2.3 2.3 2.8 1.7 3.2 1.1 3.4 4.2 17.3 4.8 16.6 5.6 16 6.5 15.4 2.2 4.7 2.5 4.2 2.7 4 2.9 3.6 3.1 3.3 3.4 2.9 3.6 2.6 3.7 2.2 5 2.2 5.3 1.7 5.5 1.1 5.7 0.5h6l6.1-0.6 6.4-1.3 6.3-1.7 6.7-2.6 6.5-2.9 6.6-3.5 6.3-3.9 6.1-4.4 5.8-4.8 5.4-5 5-5.3 2.6-3.8 1.9-4.3 1-4.5 0.1-4.7-0.9-4.6-1.7-4.3-2.5-3.9-3.3-3.3-0.6-0.5-8.4-6.4-7.5-6.3-7.1-6.3-6.4-6.2-5.9-6.2-5.2-5.9-4.6-5.9-4.1-5.8-3.4-5.7-2.7-5.5-2.3-5.4-1.5-5.3-1-5.3-0.4-5.1 0.4-5 0.8-4.7 1.6-4.5 2-4.4 2.7-4.2 3.2-4 3.9-3.8 4.4-3.6 4.9-3.4 5.4-3.1 6.1-3 6.4-2.6 6.9-2.4 7.3-2 7.7-1.8 8-1.5 8.3-1.1 8.4-0.9 8.6-0.4 8.7-0.1 8.7 0.2 8.5 0.6 8.5 0.9 8.2 1.4 7.8 1.5 7.7 2 6.9 2.3 6.7 2.5 6 2.8 5.8 3.2 5.1 3.2 4.5 3.7 3.9 3.8 3.4 4 3.9 5.8 2.9 6 2 6 1 6.1 0.1 4.3-0.3 4.2-0.7 4.3-1.2 4.2-1.5 4.3-2.2 4.4-2.5 4.4-2.9 4.6-3.3 4.5-3.7 4.5-4.2 4.7-4.8 4.9-10.7 10-14.9 12.6-10 8.4-2.8 2.9-2.3 3.5-1.5 3.8-0.7 3.9v4.2l0.7 4 1.5 3.8 2.2 3.4 6.4 7.5 7.2 6.7 3.9 3.3 4 2.9 4.3 2.8 4.4 2.6 4.7 2.4 4.7 2.1 10.1 3.8 6.1 1.8 5.8 1.3 5.5 0.7 5.3 0.3 5.3-0.2 4.9-0.6 4.8-1.3 4.4-1.5 4.2-2 3.9-2.4 3.7-2.7 3.6-3.2 3.4-3.7 3.2-4.1 3.1-4.5 2.9-5 2.7-5.2 2.7-5.8 2.5-6.2 2.4-6.8 4.5-15.1 5.3-20.6 1-4 1.4-3.8 2-3.5 2.7-3 3.3-2.4 4.7-2.4 4.8-1.5 4.6-0.5 2.2 0.2 2.3 0.4 3.5 1.1 3.2 1.8 3 2.5 2.6 2.9 2.4 3.5 1.9 3.9 1.4 4.2 0.9 4.4 1 8.2 0.5 8.1 0.3 7.9-0.4 7.8-0.6 7.8-1.2 7.6-1.6 7.4-1.9 7.3-2.4 7.1-2.8 6.8-3.2 6.8-3.6 6.3-4 6.1-4.3 6-4.8 5.5-4.9 5.2-5.7 5.1-6 4.8-6.3 4.3-6.6 4-6.9 3.4-7 3.1-7.3 2.6-7.7 2.2-7.7 1.6-8 1.3-8 0.6-8.1 0.2-8.2-0.2-8.3-0.8-8.2-1.2-8.4-1.7-5.4-1.4-4.4-1.5-4.6-1.7-4.4-2.2-4.4-2.2-9.2-5.7-11.8-8.4-12.9-9.2-10.3-6.3-3.2-1.3-3-0.4-3.3 0.4z"/>
	<path id="Layer" class="s15" d="m2059.8 2834.4l2.7-6.2 2.9-6 2.7-5 3.2-5.1 3.4-4.8 3.5-4.8 3.9-4.5 4.2-4.5 4.3-4.3 4.6-4.2 4.2-3.2 4.6-2.9 5.2-2.7 5.6-2.2 6.1-1.9 6.6-1.7 7-1.2 7.5-1 7.9-0.7 8.3-0.2 8.7 0.1 9 0.5 9.2 0.9 9.1 1.1 9.1 1.7 8.7 1.7 20.2 5.1 19.5 5.6 18.8 6.2 18 6.7 17.4 7.3 16.6 7.9 15.9 8.3 15.1 9 14.3 9.4 13.7 10 12.7 10.4 11.9 11 11.3 11.6 10.4 12 9.7 12.6 8.8 13.1 4.7 7.5 1.4 2.8 1.1 2.8 0.9 4.4 0.1 4.6-0.6 5.1-1.4 5.1-2.3 5.5-3.1 5.6-3.8 5.8-4.5 5.8-2.9 3.2-3.2 2.6-3.4 2-3.5 1.3-4.4 0.9h-4.7l-4.9-1-5.1-1.8-12.3-5.3-13.1-6.2-14.1-7-19-9.9-27.1-13.7-20-9.4-9.5-4.2-9.2-3.6-8.8-3.3-8.8-2.9-18.1-5.6-18.2-5.3-18.4-5-18.4-4.9-18.6-4.5-18.7-4.4-18.9-4.1-18.9-3.9-7.5-1.6-7.4-1.9-7.5-2-7.3-2.4-13.8-5.3-5-2.5-4-2.9-3.1-3.3-1.2-1.8-1-1.9-1.1-4-0.3-4.4 0.8-4.9z"/>
</svg>