<svg version="1.2" xmlns="http://www.w3.org/2000/svg" viewBox="0 0 3600 3600" width="3600" height="3600">
	<title>gray1-svg</title>
	<style>
		.s0 { fill: none;stroke: #634840;stroke-width: 3.3 } 
		.s1 { fill: #250c00 } 
		.s2 { fill: #9b897e } 
		.s3 { fill: none;stroke: #e6bcb2;stroke-width: 3.3 } 
		.s4 { fill: none;stroke: #7d665f;stroke-width: 3.3 } 
		.s5 { fill: none;stroke: #e7e2de;stroke-width: 3.3 } 
		.s6 { fill: none;stroke: #b5a79d;stroke-width: 3.3 } 
		.s7 { fill: none;stroke: #fed9d4;stroke-width: 3.3 } 
		.s8 { fill: none;stroke: #f8ede4;stroke-width: 3.3 } 
		.s9 { fill: none;stroke: #958380;stroke-width: 3.3 } 
		.s10 { fill: none;stroke: #945d55;stroke-width: 3.3 } 
		.s11 { fill: none;stroke: #f7c7b8;stroke-width: 3.3 } 
		.s12 { fill: none;stroke: #c4b1a5;stroke-width: 3.3 } 
		.s13 { fill: none;stroke: #e0d0c2;stroke-width: 3.3 } 
		.s14 { fill: #ffffff } 
		.s15 { fill: #cfc5bc } 
		.s16 { fill: #fdb3a8 } 
		.s17 { fill: #b89c8e } 
		.s18 { fill: #f0dbc8 } 
	</style>
	<g id="Layer">
		<path id="Layer" fill-rule="evenodd" class="s0" d="m138.1 1614.7l15.3 0.6h15.1l14.9-0.6 14.7-1.2 14.6-1.7 14.4-2.3 14.2-3 14-3.5"/>
	</g>
	<path id="Layer" class="s1" d="m3094.3 3309.7l-22.9 7.5-23.1 6.8-17.9 4.8-18.1 4.2-18.2 3.8-18.4 3.4-18.6 2.8-18.5 2.5-18.7 2-18.8 1.6-19.1 0.9-19.1 0.8-19.3 0.1-19.3-0.3-19.4-0.7-19.7-1.2-19.6-1.7-19.9-2.1h-3.1l-2.5 0.8-1.2 0.8-1.1 1-1.9 2.5-5.9 10.8-6.1 10.6-6.3 10.3-6.4 10.2-6.7 10-6.9 9.7-6.9 9.5-7.3 9.2-7.4 9.1-7.6 8.8-7.7 8.7-7.9 8.3-8.1 8.3-8.4 8-8.5 7.8-8.6 7.5-9.1 7.5-9.3 7.4-9.4 7.1-9.8 6.9-9.8 6.6-10.1 6.4-10.2 6.2-10.4 5.9-12.3 6.7-12.4 6.1-12.2 5.7-12.2 5.1-12.2 4.7-12.2 4.3-12.1 3.7-12 3.2-12 2.8-12.1 2.3-12 1.8-11.9 1.3-11.9 0.9-11.9 0.4-11.9-0.2-11.7-0.6-11.3-0.9-11.2-1.5-11.3-1.9-11.2-2.3-11.1-2.8-11.1-3.3-11-3.7-11.1-4.1-11-4.5-11.1-5-10.9-5.4-10.9-5.8-10.8-6.4-11-6.8-10.8-7.1-10.8-7.7-2.4-1.5-2.7-1.4-2.8-1.1-2.9-0.7-2.9-0.5-2.9-0.1-3 0.1-2.9 0.5-34.2 7-34.3 6.5-34.5 5.9-34.8 5.4-35 4.8-35.2 4.4-35.3 3.6-35.7 3.3-35.8 2.7-36.1 2-36.3 1.6-36.4 1-36.7 0.5-37-0.1-37-0.7-37.4-1.2-31.1-1.3-30.2-1.6-29.5-1.8-28.8-2.1-28.1-2.3-27.3-2.5-26.6-2.7-25.7-3-25.1-3.3-24.3-3.4-23.6-3.8-22.8-3.9-22.1-4.1-21.4-4.5-20.6-4.6-19.8-4.8-3.5-0.6-3.4 0.3-3.4 1.1-3.2 2-10.2 7.7-10.2 7.4-10.3 6.9-10.3 6.6-10.3 6.1-10.5 5.7-10.4 5.2-10.4 4.9-10.6 4.3-10.7 3.9-10.5 3.5-10.7 3.2-10.8 2.7-10.7 2.1-10.8 1.9-10.9 1.3-15.9 1.3-16 0.4-16-0.6-16.1-1.5-19.7-2.8-19.2-3.5-18.8-4.2-18.4-5.1-18-6-17.6-6.7-17.3-7.4-16.7-8.2-12-6.6-11.8-6.9-11.5-7.4-11.3-7.9-11.2-8.1-10.8-8.8-10.7-8.9-10.4-9.5-10.3-10-10-10.3-9.8-10.8-9.6-11.2-9.4-11.5-9.1-12.1-8.8-12.4-8.8-12.9-5.1-5.8-4.8-6-4.8-6.3-4.6-6.4-4.5-6.8-4.2-6.9-4.2-7.2-3.8-7.4-3.8-7.6-3.6-7.8-6.7-16-6-16.9-5.1-17.5-4.3-18.1-3.6-18.6-2.5-18.7-1.7-18.8-0.9-18.9 0.2-18.6 0.9-18.3 2-17.7 3.1-21.7 3.7-21.7 4.1-22.2 4.6-22.3 1.7-10 0.9-9.8v-9.7l-0.9-9.6-1.4-8.2-2.1-8.1-2.8-9.8-2.6-10.1-2.1-10.3-2.1-10.6-1.8-10.8-1.5-11.1-1.3-11.2-1.1-11.5-0.7-11.7-0.6-12-0.3-12.2-0.1-12.5 0.6-25.6 1.6-26.4 2.7-27.3 3.5-28 4.5-28.9 5.5-29.5 6.5-30.2 7.5-30.9 8.3-31.1 9.2-31.3 9.7-30.9 9.8-30 10.1-29 10.3-28.1 10.4-27.1 10.5-26.1 10.8-25.1 10.9-24.1 5.1-10.6 5.6-10.7 6-10.7 6.3-10.8 6.8-10.8 7.2-10.8 7.5-10.9 7.9-10.9 0.8-1.5 0.6-1.6 0.3-1.7-0.3-1.7-0.5-1.6-0.7-1.5-1.1-1.3-1.3-1-0.7-0.4-18-9.1-17.7-9.5-17.4-9.8-17.1-10.3-15.6-10-15.4-10.3-15-10.6-15-11-14.8-11.6-14.5-11.9-14.5-12.2-14.4-12.9-14.2-13.2-14.2-13.7-14.2-14.2-14.1-14.8-14.2-15.5-14.2-16-14.4-16.6-14.4-17.4-1.3-1.3-1.4-1.1-1.3-0.7-1.5-0.5h-1.4l-1.6 0.1-1.6 0.5-1.7 0.8-22.6 13.6-22.3 14.2-21.9 14.7-21.6 15.1-13.8 10.2-13.7 10.3-2.3 1.6-2.5 1.3-2.5 1.2-2.6 0.9-8.6 2.3-7.8 1.7-6.7 1.1-6 0.3-5-0.2-4.1-0.9-1.7-0.7-1.5-0.8-1.3-1.1-1-1.2-1.2-2.4-0.6-2.9-0.2-8.2 0.8-7.8 0.7-3.8 0.9-3.6 1.2-3.5 1.5-3.4 3.4-6.5 4.2-5.9 5.1-5.6 6.1-5.2 13.2-10.2 13.5-10 13.6-9.8 13.8-9.6 14-9.6 14.2-9.2 14.3-9.1 14.6-9 2.2-1.8 1.2-2.1 0.2-2.3-0.5-2.5-5.4-15.1-6.1-14.6-6.7-14.4-7.2-14-6.6-11.4-6.9-11.3-7.4-10.9-7.9-10.8-1.1-1.3-1.3-1.1-1.5-0.9-1.5-0.7-1.7-0.5-1.5-0.2h-1.7l-1.7 0.2-25.9 6.2-25.6 6.7-25.4 7.4-25 7.9-24.8 8.6-24.5 9.2-24.3 9.9-23.9 10.4-2 1-6.4 2.4-3 0.7-2.8 0.4-2.8 0.1-2.7-0.1-2.5-0.5-2.3-0.7-2.3-1.1-2.2-1.4-2.1-1.7-1.9-1.9-1.8-2.2-1.8-2.5-3.1-6.1-1.7-4.9-0.7-4-0.3-4.2 0.3-4.3 0.8-4.3 0.9-2.9 1.2-3 1.6-2.6 1.8-2.5 2.1-2.3 2.3-1.9 2.5-1.7 2.8-1.3 25.6-11 25.8-10.2 25.8-9.7 26-9.1 26.1-8.5 26.2-7.9 26.4-7.3 26.4-6.6 2.2-0.8 1.9-0.8 1.4-1.2 1.1-1.4 0.6-1.5 0.4-1.7v-2l-0.4-2.2-18.4-80.8-1-3.1-1.6-2.7-1.9-2.6-2.5-2.2-2.6-1.6-3-1.2-3.1-0.6-3.2-0.1-25.9 1.7-25.4 1.9-25 2.3-24.6 2.7-24 2.9-23.5 3.3-23.1 3.6-22.6 3.9-5.6 0.6-5.1-0.2-4.6-1.1-2.1-0.8-1.9-1-3.5-2.8-3-3.5-2.6-4.3-1.9-5.2-1-4.4v-4.2l0.4-2.8 0.7-2.7 1.1-2.8 1.4-2.5 1.9-2.7 2.1-2.7 2.5-2.5 2.9-2.6 1.9-1.4 2.1-1.1 2.2-1 2.3-0.6 83.1-18.3 15.3 0.6h15.1l14.9-0.6 14.7-1.2 14.6-1.7 14.4-2.3 14.2-3 14-3.5 2.8 0.6 2.4 0.3 2.1-0.4 1.8-0.7 1.5-1.2 1-1.4 0.8-2 0.1-2.3-2.6-33.1-1.7-32.6-1-32.4-0.4-32.1 0.5-31.8 1.1-31.3 1.9-31.2 2.7-30.9 3.3-30.7 4.1-30.2 4.8-30 5.6-30 6.3-29.5 7.2-29.2 7.8-29.2 8.6-28.9 8.6-26.4 9.2-26.5 10-26.1 10.6-26.1 1.3-4.2 0.5-4.5-0.5-4.5-1.3-4.3-8.7-20.5-8-20.9-7.4-21.2-6.9-21.6-6.4-22-6-22.3-5.3-22.8-4.8-23-3.4-18.1-3.1-18-2.8-17.9-2.6-18-2.4-18.1-2-18-1.7-17.9-1.6-18-1.2-17.9-1.1-17.9-0.8-18-0.3-17.8-0.3-18v-17.8l0.4-17.9 0.6-17.8 1.8-33.7 2.8-33.5 3.8-33.5 4.6-33.5 5.6-33.4 6.5-33.4 7.6-33.3 8.3-33.3 5-18.3 4.8-16.1 4.7-14.5 4.7-13.3 4.9-12.6 5.2-11.8 5.2-10.9 5.7-10.3 6-9.7 6.2-9.1 6.5-8.5 6.8-7.8 7.3-7.2 7.5-6.5 7.9-6 8.3-5.3 5.4-3.2 5.7-2.9 5.9-2.7 5.9-2.4 6.2-2.2 6.3-1.9 6.3-1.6 6.7-1.4 20.4-3.6 20.3-2.5 20.1-1.7 20.1-0.7 19.9 0.1 19.6 1.1 19.5 1.9 19.2 2.9 14.9 2.8 14.7 2.9 14.9 3.3 14.8 3.6 14.8 3.8 15 4.1 14.9 4.4 14.8 4.6 14.9 5 15.1 5.2 14.9 5.5 15.2 5.8 15.1 6.1 15.1 6.3 30.6 13.6 30.7 14.8 31.1 15.8 31.5 17.2 32.1 18.5 32.8 19.8 33.8 21.3 34.7 23 36.3 24.9 1.8 1.1 1.8 0.8 2 0.6 2 0.4 2.1 0.1 2.1-0.1 2-0.4 2-0.6 24-8.9 24.2-8.4 24-8.1 24.2-7.6 24.2-7.2 24.2-6.7 24.3-6.1 24.4-5.9 24.3-5.3 24.4-5 24.4-4.5 24.5-4 24.5-3.6 24.5-3.2 24.6-2.7 24.6-2.3 34.1-2.4 34.3-1.6 34.3-0.6 34.4 0.1 34.5 1 34.4 1.8 34.6 2.7 34.6 3.5 34.8 4.5 34.8 5.2 34.8 6.1 35 6.9 35 7.8 35.1 8.7 35.2 9.5 35.2 10.3 3.5 0.6 3.3-0.1 3.1-1.1 3.1-1.9 22.2-18.1 22.7-18.3 23.3-18.4 23.8-18.4 15.8-11.8 16-11.7 16.6-11.5 16.8-11.2 17.1-10.9 17.2-10.7 17.6-10.3 17.7-9.9 17.8-9.8 17.7-9.2 17.9-8.7 17.7-8.4 17.8-8 17.6-7.5 17.8-7.1 17.6-6.7 17.2-6 17.1-5.6 17-5.1 16.8-4.7 16.7-4.2 16.4-3.7 16.3-3.2 16-2.8 15.8-2.2 15.4-1.8 15.4-1.2 15.1-0.9 14.8-0.2 14.4 0.2 14.4 0.6 13.9 1.3 9.5 1.2 9.2 1.7 8.9 2.2 8.6 2.5 8.3 3 8 3.6 7.8 4 7.4 4.3 8.1 5.6 7.9 6.3 7.4 6.8 7 7.4 6.6 8.1 6.3 8.6 5.9 9.2 5.5 9.8 8.6 16.8 8.3 17.1 8 17.3 7.6 17.3 7.3 17.6 7.1 17.9 6.7 18.1 6.3 18.2 6 18.4 5.7 18.7 5.4 18.8 5.1 19.2 4.6 19.2 4.5 19.5 4 19.7 3.8 19.9 3.1 18.1 2.8 18.1 2.4 18.1 2.2 18 1.8 17.9 1.6 18 1.2 18 0.9 17.8 0.6 18 0.4 17.7-0.2 17.8-0.2 17.8-0.7 17.8-1 17.6-1.2 17.7-1.6 17.6-3.4 29.9-4.4 29.6-5.1 29.7-6 29.5-7.1 29.3-7.8 29.3-8.8 29.3-9.6 29.1-0.9 3.4-0.1 3.5 0.5 3.5 1.1 3.3 7.9 17.6 7.6 17.6 7.4 17.9 7.3 17.9 6.9 18.1 6.7 18.2 6.5 18.4 6.3 18.4 5.9 18.5 5.7 18.4 5.5 18.7 5.1 18.7 5 18.6 4.6 18.7 4.4 18.8 4.1 18.8 3.7 18.7 3.6 18.7 3.2 18.6 3 18.7 2.6 18.6 2.5 18.5 2.1 18.4 1.9 18.4 1.4 18.4 1.2 18.2 1 18.1 0.7 17.9 0.3 17.9 0.1 17.7-0.2 17.5-0.5 17.5v0.4l0.6 2.5 1.4 1.9 2.1 1.3 2.4 0.4 29.3-0.7 29-0.3 28.8 0.3 28.6 0.8 28.3 1.4 28.3 1.8 27.9 2.4 27.8 2.9 3.7 0.8 3.5 1.3 3.1 1.9 2.8 2.5 2.5 2.9 1.9 3.1 1.2 3.6 0.7 3.6 0.3 3.6-0.1 3.7-0.5 3.4-0.9 3.4-0.2 0.7-2.2 5.4-2.5 4.4-3.2 3.9-3.8 3.1-4.1 2.4-4.7 1.6-5.2 0.8-5.8 0.1-203.4-8.7-5.1 0.1-4.4 0.9-3.9 1.4-3.4 2.2-2.7 2.9-2.1 3.7-1.6 4.2-1 5-12.1 94.3 0.1 1.7 0.7 1.6 1.4 1.1 1.7 0.5h0.1l28.6 2.4 28.3 3.3 27.8 4.1 27.3 5.1 27 5.8 26.5 6.8 26.1 7.6 25.6 8.5 4.6 1.9 3.7 2.3 2.8 2.8 1.1 1.6 0.8 1.6 0.7 1.7 0.4 1.8 0.1 3.9-0.9 4.3-1.7 4.8-1.8 4.2-3.2 6.1-1.7 2.7-1.8 2.4-2 2.2-2.2 1.8-2.2 1.7-2.4 1.5-2.6 1.1-2.7 0.9-2.7 0.6-3.1 0.4-3 0.1-3.3-0.1-6.8-1-47.6-9.8-48.4-9.2-49.4-8.8-50.4-8.1-2.4-0.1-2.5 0.2-2.4 0.6-2.2 1-2.1 1.3-1.8 1.7-1.4 1.8-1.2 2.2-47.8 106.9-0.8 2.6v1.2l0.2 1.1 0.5 1 0.9 1 2.3 1.7 76.5 38.7 5.7 3.4 2.4 1.8 2.2 2 1.8 2 1.6 2.2 1.2 2.2 1 2.4 0.7 2.5 0.5 2.5 0.1 2.7-0.1 2.8-0.5 2.8-0.7 3-2.3 6.2-4.4 9.6-0.1 0.4-2.2 3.6-2.9 3.2-3.4 2.5-3.9 1.7-4.1 1.1-4.3 0.1-4.2-0.7-4-1.5-86.7-42.8-2-0.8-2-0.3-2.1 0.1-2.1 0.4-1.9 0.8-1.7 1.1-1.5 1.5-1.2 1.7-7.4 12.6-8 12.5-8.4 12.4-8.8 12.4-9.4 12.1-9.7 12.1-10.4 12.1-11 12.1-11.4 12-11.9 12-12.7 12.3-13.5 12.5-14.2 12.8-15.3 13.2-16.5 13.9-18.3 15-7.4 5.7-8.2 5.8-21.5 14.2-17.6 11.7-12.6 9-11 8.9-5.1 4.5-4.8 4.6-3 3.4-2.3 3.6-1.6 3.6-0.9 3.8-0.1 3.7 0.6 3.8 1.4 4 2 4 13.8 24.2 13.2 24 12.9 24.2 12.5 24.2 12 24.2 11.5 24.3 11.2 24.3 10.7 24.3 10.2 24.5 9.4 25.1 8.8 25.7 8.1 26.4 7.5 27.1 6.8 27.5 6.2 28.3 5.5 28.9 5.6 33.5 5.1 33.3 4.3 32.9 3.9 32.8 3.3 32.5 2.7 32.3 2.2 32 1.4 31.8 0.1 0.9 0.9 1.6 1.4 1.1 1.9 0.3 1.7-0.5 9.8-5.3 9.5-5.5 9.1-5.7 8.7-5.9 8.4-6.1 7.9-6.2 7.5-6.4 7.2-6.7 6.8-6.8 6.4-6.9 6-7.2 5.7-7.4 5.2-7.5 4.8-7.7 4.5-7.8 4.2-8.2 3.7-8.5 3.4-8.6 3.1-8.9 2.5-9.1 2.2-9.2 1.8-9.5 1.3-9.6 1-9.8 0.6-10.1 0.1-10.2-0.2-10.3-0.6-10.7-1.1-10.8-1.5-10.9-1.8-11.2-2.3-11.4-18.4-84.1-20.2-89-2.4-11.3-2.1-11.4-1.7-11.7-1.4-11.7-1-11.9-0.7-12.2-0.5-12.2v-12.5l0.2-12.7 0.8-12.7 0.9-13 1.2-13.1 1.7-13.2 2-13.5 2.3-13.6 2.7-13.9 3.4-15.4 4-15 4.6-14.7 5.2-14.3 5.6-13.9 6.3-13.5 6.7-12.8 7.3-12.5 7.7-12.1 8.4-11.5 8.7-10.8 9.3-10.4 9.7-9.9 10.2-9.2 10.5-8.6 11.1-8.1 11.4-7.5 12-6.9 12.3-6.3 12.7-5.7 13-5 13.5-4.3 13.7-3.8 14.2-3 12.3-2.2 12.1-1.7 12-1.5 11.8-1 11.8-0.6 11.6-0.1 11.7 0.3 11.3 0.6 11.3 0.9 11 1.5 11.1 1.8 10.8 2.2 10.8 2.7 10.4 2.9 10.6 3.4 10.2 3.9 9.8 4 9.6 4.3 9.6 4.9 9.2 5.1 9.3 5.6 9.1 5.8 8.8 6.3 8.8 6.6 8.5 6.9 8.3 7.3 8.2 7.6 8 8 7.9 8.4 7.6 8.6 7.4 9.2 7.3 9.2 7.1 9.7 6.8 9.9 6.6 10.4 6.5 10.6 6.2 11 6 11.1 5.7 11.6 5.6 11.8 5.4 12.1 4.9 12.3 4.9 12.6 4.6 12.7 4.4 13.1 4 13.3 3.9 13.5 3.5 13.5 5.7 24 5.2 24 4.6 24 4 24.2 3.6 24 3 24.2 2.3 23.9 1.8 24.1 1.4 23.7 0.7 23.7 0.1 23.7-0.5 23.4-0.9 23.3-1.6 23.1-2.2 23.1-2.7 22.7-3.1 22.3-3.9 22.2-4.4 22-4.8 21.6-5.5 21.5-6 21-6.5 21-7.2 20.5-7.6 20.3-8.2 19.8-8.6 19.7-9.2 19.3-9.8 18.9-10.2 18.6-10.8 18.3-11.3 17.8-8.2 12.2-8.3 12-8.5 11.8-8.9 11.6-9 11.5-9.2 11.1-9.5 10.9-9.7 10.9-13.7 14.4-14.1 14.2-14.4 13.7-15 13.3-15.3 12.9-15.8 12.7-16.1 12.1-16.6 11.8-17 11.4-17.4 11-17.8 10.7-18.3 10.4-18.7 9.8-19 9.6-19.6 9.1z"/>
	<path id="Layer" class="s2" d="m255.3 1603l-14 3.5-14.2 3-14.4 2.3-14.6 1.7-14.7 1.2-14.9 0.6h-15.1l-15.3-0.6 14.4-3.5 14.2-3 14.2-2.3 14.2-1.7 14.2-1.2 14.1-0.7h14.2l14.1 0.5z"/>
	<g id="Layer">
		<path id="Layer" fill-rule="evenodd" class="s3" d="m2695.9 1764.5l-6.9-5.6-7.2-5.2-7.2-5.1-7.2-4.9-7.5-4.5-7.5-4.3-7.6-4.2-7.8-3.8-9.3-4.4-9.6-4-9.9-3.7-9.8-3.4-10.1-3-10.3-2.7-10.3-2.3-10.6-1.9-10.8-1.7-10.8-1.4-11-0.9-11.2-0.8-11.4-0.2h-11.6l-11.6 0.2-11.9 0.8-5.6 0.8-7.6 1.8-7.1 1.9-5 0.7-4.6 0.1-4.3-0.7-3.6-1.2-3.2-1.7-3.4-2.5-3.3-2.9"/>
		<path id="Layer" fill-rule="evenodd" class="s4" d="m2419.1 1693.8l8.5-8.3 8-8.5 7.6-8.9 7.2-9 6.9-9.2 6.3-9.5 6-9.6 5.4-9.8 5.1-10.1 4.7-10.1 4.2-10.4 3.7-10.4 3.2-10.6 2.7-10.7 2.3-10.8 1.8-10.9 1.2-9.1 0.8-9.3 0.5-9.2 0.1-9.3-0.3-9.3-0.4-9.2-0.9-9.3-1.2-9.3-1.6-9.1-1.9-9.2-2.2-9.1-2.6-9-2.9-9-3.1-8.8-3.6-8.9-3.8-8.7-4.2-8.5-4.5-8.5-4.7-8.3-5-8.2-5.3-8-5.6-7.9-6-7.7-6.1-7.6-6.5-7.3-6.8-7.3-6.9-6.9-7.2-6.8-7.5-6.6-7.8-6.4-7.8-6.2-8.2-6-8.5-5.7-8.6-5.3-8.9-5-8.9-4.6-9.2-4.2-9.3-3.9-9.6-3.4-9.6-3.1-7.8-2.1-7.8-2-7.8-1.6-8-1.3-8-1.1-8.1-0.8-8-0.7-8-0.3h-8.2l-8.2 0.2-8.1 0.5-8.1 0.7-8 1-8.2 1.3-8 1.5-8 1.8-7.9 2.1-7.9 2.3-7.9 2.5-7.7 3-7.7 3-7.5 3.3-7.4 3.5-7.4 3.9-7.3 4-7.1 4.2-7 4.5-6.9 4.6-6.7 5-6.6 5.1-6.4 5.4-6.3 5.5-10.1 9.9-9.6 10.5-9 11.2-8.5 11.9-7.7 12.5-7.2 13.2-6.5 13.6-5.9 14.1-5.2 14.6-4.4 14.9-3.6 15.3-2.9 15.6-2.2 15.7-1.3 15.8-0.6 15.9 0.2 15.9 0.6 10.7 1 10.6 1.4 10.4 1.7 10.3 2.2 10.2 2.6 10 2.8 9.9 3.2 9.8 5.4 13.6 5.9 13.3 6.8 13.1 7.7 12.8 8.2 12.6 9.1 12.3 9.9 11.9 10.5 11.7"/>
		<path id="Layer" fill-rule="evenodd" class="s5" d="m2058.6 1700.6l-15.8-6.5-15.2-6.7-14.9-6.8-14.4-6.8-14-7-13.4-7.1-13-7.1-12.7-7.3-12.1-7.4-11.7-7.6-11.1-7.6-10.7-7.7-10.3-7.9-9.9-7.8-9.3-8.1-9-8.1-21.2-19.8-17.8-16.1-16.6-14.7-15.7-13.5-15.4-12.6-14.7-11.7-14.3-10.7-14-9.8-13.7-9.2-13.4-8.3-13-7.4-12.8-6.5-12.4-5.7-12-4.9-11.6-4-11.5-3.2-0.9-0.2-4.2-0.7-4.1-0.6-4.1-0.3h-4.4l-4.2 0.4-4.4 0.5-4.5 0.8-4.5 1.1-9.2 2.9-9.5 4-9.6 5.1-9.9 6.2-14.2 9.6-13.9 9.8-13.7 10.1-13.3 10.2-13.2 10.5-12.7 10.6-12.6 10.9-12.3 11-12 11.3-11.8 11.5-11.5 11.7-11.2 11.9-10.9 12.1-10.8 12.3-10.3 12.6-10.2 12.8-6.3 8.1-5.9 7.3-5.9 6.9-6.3 6.4-6.5 6.2-6.6 5.7-7 5.4-7.1 4.8-7.4 4.6-6.2 3.4-6.3 3.2-1.5 0.5-1.6 0.3h-1.6l-1.5-0.2-1.5-0.5-1.3-0.7-1.2-1-1.1-1.1-3.4-3.9-3.3-3-3.5-2.4-3.4-1.6"/>
		<path id="Layer" fill-rule="evenodd" class="s4" d="m1266.5 1671.5l5.3-11.1 4.9-11 4.5-10.9 4.1-11 3.6-10.8 3.2-10.8 2.8-10.6 2.3-10.7 1.9-10.7 1.6-10.6 1-10.5 0.7-10.5 0.2-10.4-0.2-10.3-0.6-10.4-1.1-10.3-1.8-12.2-2.6-12.3-3-12.3-3.8-12-4.3-12.1-5-11.9-5.6-11.9-6.2-11.8-4.8-8.4-5.1-8.1-5.4-8-5.6-7.9-5.9-7.5-6.1-7.6-6.3-7.1-6.6-6.9-6.8-6.8-7-6.5-7.2-6.3-7.4-5.9-7.4-5.7-7.7-5.4-7.8-5.1-8-4.8-8-4.4-8.2-4.3-8.2-3.7-8.5-3.7-8.4-3.1-8.6-2.9-8.5-2.5-8.6-2.2-8.7-1.8-8.7-1.6-8.6-1-8.6-0.9-8.8-0.4-8.7-0.1-8.6 0.3-8.8 0.6-12.4 1.4-12.3 2.2-10.4 2.3-9.9 2.7-10.1 2.9-9.7 3.4-9.6 3.5-9.4 4-9.2 4.3-9 4.6-8.8 5-8.5 5.2-8.5 5.5-8.2 5.8-7.8 6.2-7.7 6.4-7.4 6.7-7.2 6.9-5.8 6.2-5.7 6.4-5.5 6.5-5.3 6.8-5 6.9-4.8 7-4.6 7.2-4.4 7.4-4.3 7.5-3.9 7.7-3.6 7.7-3.4 8-3.3 8.1-2.9 8.1-2.7 8.3-2.4 8.4-2.2 8.4-1.9 8.5-1.6 8.6-1.4 8.8-1.1 8.7-1 8.8-0.6 9-0.4 8.8v8.9l0.1 9 0.5 8.9 0.6 9.2 1 8.9 1.2 9.1 1.6 9 1.7 9 2.3 9.7 2.7 9.6 3.2 9.6 3.8 9.6 4.3 9.5 4.8 9.4 5.2 9.5 5.9 9.5 6.2 9.3 6.8 9.4 7.1 9.2 7.8 9.3 8.2 9.3 8.8 9.1 9.3 9.2 9.7 9.1"/>
		<path id="Layer" fill-rule="evenodd" class="s3" d="m885.7 1753.8l-19.1-3-18.7-2.3-18.2-1.6-17.6-0.9-17.3-0.1-16.6 0.6-16.3 1.2-15.6 2.1-15.1 2.7-14.7 3.4-14.2 4.1-13.6 4.9-13.2 5.5-12.7 6.2-12.1 7.1-11.6 7.6-8.2 6-7.8 6.4-7.6 6.7-7.3 7.1-7 7.6-6.8 7.7-6.5 8.3-6.3 8.6"/>
		<path id="Layer" fill-rule="evenodd" class="s5" d="m473.8 148l1.2 2.2 2.2 2.6 2.7 2.5 3.4 2 4 1.6 4.5 1.2 5.1 1 5.7 0.5 6.3 0.1h11.9l10 0.3 8.1 0.4 6.2 0.8 18.4 3.1 18.4 3.4 18.2 3.7 18.1 3.9 18.1 4.2 17.8 4.4 17.7 4.6 17.6 5 17.5 5.1 17.4 5.4 17.2 5.6 17.1 6 17 6.1 16.9 6.4 16.8 6.6 16.6 7 10.3 4.7 11.2 5.6 11.9 6.5 16.1 9.5 17.3 10 12.8 7 15.6 8.5 14.7 8.9 14 9.2 13.3 9.6 7.4 5.4 7.5 5.3 7.9 5.1 8.3 4.8 8.3 4.8 8.8 4.4 9 4.4 9.2 4.1 3.3 1h3l2.7-0.7 2.4-1.5 1.8-1.9 1.2-2.7 0.8-3.4 0.2-4.1"/>
		<path id="Layer" fill-rule="evenodd" class="s6" d="m1151.6 385.5l2.3 20.7 3.2 20.5 3.9 20.1 4.8 19.5 5.6 19.3 6.4 18.8 7.3 18.4 8.2 18.1 7.4 14.8 8 14.4 2.5 4.1 2.9 4.3 3.2 4 3.4 4.1 3.6 3.8 3.7 3.6 3.9 3.3 3.9 3 3.8 2.6 3.8 2.4 3.9 2 3.8 1.7 3.7 1.2 3.7 0.8 3.5 0.6 3.5 0.2 6.2-0.3 5.7-0.6 5.5-1 5.1-1.3 4.6-1.8 4.3-2.2 3.9-2.6 3.7-2.9 2.8-2.9 2.4-3.3 2.3-3.4 1.9-3.8 1.7-4.2 1.5-4.3 1.1-4.8 0.8-5 1.7-12.9 1.4-13.4 1.1-13.5 0.8-13.7 0.6-14 0.4-14.2v-14.4l-0.3-14.6-0.4-14.9-0.8-15.1-1.1-15.3-1.2-15.6-3.4-31.8-4.5-32.7"/>
		<path id="Layer" fill-rule="evenodd" class="s6" d="m1406 309.9l2.4 36.8 2.8 36.6 3 36 3.4 35.8 1.6 14 2.1 14.3 2.4 13.9 2.7 13.4 2.9 12.6 3.3 12 3.5 11 3.7 10.3 4 9.4 4.2 8.5 4.3 7.5 4.7 6.7 4.7 5.8 5 4.9 5.2 4 5.3 3.1 5.4 2.5 4.9 1.8 5 1.3 4.8 0.9 4.7 0.3h4.5l4.4-0.6 4.1-1.1 4.4-1.8 4.1-2.3 3.7-2.8 3.9-3.5 3.6-4 3.4-4.6 3-5.2 3-5.8 2.7-6.3 2.5-6.8 2.5-7.4 2-8 2-8.5 1.7-9 1.4-9.6 1.4-10 3.2-31.5 2.6-30.4 1.8-29.5 1.1-28.6 0.4-27.5-0.4-26.6-1.1-25.6-1.8-24.7"/>
		<path id="Layer" fill-rule="evenodd" class="s6" d="m1662.7 288.9l0.5 39.5 1.1 39.5 1.7 39.2 2.4 39.1 2 22.9 2.7 21.4 3.2 19.8 4 18.3 2.2 8.5 2.3 8.1 2.6 7.9 2.8 7.4 2.9 6.9 3 6.7 3.2 6.3 3.4 5.9 2.3 3.1 2.9 2.7 3.3 2.1 3.6 1.4 6.7 1.7 6.3 1.1 6.2 0.6 5.8 0.1 5.7-0.3 5.4-0.9 5.3-1.4 4.9-2 5.1-2.5 4.6-3.2 4.4-3.5 4.2-4.3 4-4.8 3.7-5.4 3.5-5.8 3.1-6.4 3.1-7.1 2.6-7.4 2.6-8.1 2.3-8.7 2.1-9.1 1.9-10.1 1.8-10.9 2-13.2 5.7-44.5 4.7-45.1 3.9-45.6 3-46.3"/>
		<path id="Layer" fill-rule="evenodd" class="s6" d="m1918 318.2l-2.9 29-1.9 28.2-1.1 27.3-0.1 26.3 0.7 25.4 1.7 24.5 1.2 11.9 1.4 11.7 1.7 11.5 1.8 11.2 0.9 4.5 1.4 4.6 1.8 4.7 2.1 5.1 2.6 5.3 3 5.3 7.1 11.4 3 4.1 3.2 3.7 3.5 3.3 3.7 2.7 3.9 2.6 4 1.9 4.2 1.6 4.3 1.1 3.8 0.5 3.9 0.2 3.9-0.1 3.9-0.6 3.9-0.8 3.7-1.3 3.8-1.5 3.7-2 3.4-2.2 3.2-2.4 3.2-2.8 3-3.1 2.8-3.3 2.6-3.5 2.3-3.8 2-4 4.6-10 4.2-9.8 3.7-9.8 3.3-9.6 2.9-9.6 2.5-9.5 2-9.3 1.6-9.3 8.5-58.7 8-62.4"/>
		<path id="Layer" fill-rule="evenodd" class="s7" d="m2325.5 1753.7l-8.3 10.5-7.6 10.6-6.8 10.7-6.1 10.6-5.3 10.6-4.5 10.7-3.9 10.7-3 10.7-1.4 5.8-1.1 5.8-0.7 5.7-0.5 5.9-0.2 5.6 0.1 5.7 0.4 5.6 0.6 5.5 0.8 5.5 1.2 5.3 1.4 5.4 1.7 5.2 1.9 5.3 2.3 5.3 2.4 5.2 2.8 5.1 8.2 13.5 4.3 6.4 4.4 6.1 4.5 5.9 4.7 5.6 4.8 5.3 4.8 5.1 5.1 4.9 5.1 4.6 5.4 4.3 5.3 4.1 5.6 3.9 5.6 3.5 5.8 3.3 5.9 3 1.4 0.7 9.3 4.3 9.5 4 9.7 3.6 9.8 3.3 10.1 3 10.1 2.7 10.3 2.4 10.5 2.1 10.3 1.7 10.5 1.3 10.4 1 10.4 0.6 10.4 0.4h10.5l10.3-0.5 10.3-0.7 10-1.1 10.1-1.4 9.7-1.8 9.8-2 9.5-2.5 9.3-2.8 9.1-3 9-3.4 8.7-3.8 8.7-4 8.3-4.3 8.2-4.7 7.7-4.9 7.7-5.2 7.4-5.6 7.2-5.9 23.8-20.6 22.9-20.3"/>
		<path id="Layer" fill-rule="evenodd" class="s8" d="m2722.1 1938.8l4.1 0.9 3.8 1.1 3.3 1.3 2.9 1.3 2.4 1.7 2.1 1.9 1.7 2 1.3 2.2 0.7 2.2 0.5 2.3 0.3 2.7-0.1 2.4-0.5 2.4-0.8 2.2-1.2 2.6-1.6 2.3-2.1 2.2-2.5 2-13.9 9.7-16.3 10.4-16.6 9.5-20.4 11-20.7 10.8-21 10.5-21.2 10.6-21.6 10.2-21.9 10.2-22.1 9.9-22.4 9.8-22.7 9.7-23.1 9.3-23.3 9.4-23.7 9.1-23.9 9-24.3 8.7-24.5 8.6-24.8 8.5-22.6 7.3-23.5 6.9-24.4 6.7-25.4 6.4-26.2 6.1-27.1 5.7-28 5.5-28.9 5.1-59.9 9.9-55.7 8.8-51.6 7.6-47.5 6.3-31.4 3.8-32.5 3.4-33.7 2.9-34.6 2.7-35.8 2.3-36.8 1.9-38 1.6-38.9 1.2-33.8 0.6h-34.2l-34.9-0.5-35.1-1.1-35.6-1.7-36.1-2.3-36.4-2.8-36.7-3.2-37.1-3.9-37.4-4.5-37.8-5.1-37.9-5.5-38-6.2-38.1-6.5-38.2-7.2-38.1-7.6-28.1-6.3-30.3-7.7-33.6-9.3-45.8-13.4-54.7-15.9-21-5.8-19.2-5-14.3-4-15.3-5.1-16.6-6.3-22.2-9.1-20.5-8.5-15.2-5.8-14.1-4.9-13-3.9-7.9-2.5-7.4-3.1-4.6-2.3-4.7-2.5-4.5-2.9-4.6-3.3-9.8-7.8-11.9-10.7-3.2-3.5-2.2-3.4-1.4-3.4-0.3-3.4 0.5-3 1.3-3.1 2.1-3 2.9-3"/>
		<path id="Layer" fill-rule="evenodd" class="s7" d="m620.5 2032.1l13.7 9.1 14.1 8.1 7 3.8 7.2 3.5 7.3 3.1 7.3 3.1 10.2 3.7 10.3 3.4 10.4 3.2 10.7 2.8 10.8 2.4 10.9 2.1 11 1.8 11 1.3 11 1.1 11 0.6 11 0.3h10.9l10.7-0.5 10.8-0.7 10.6-1.2 10.4-1.6 10.1-1.8 10.1-2.2 9.8-2.6 9.7-2.9 9.4-3.2 9.1-3.6 9-3.9 8.7-4.1 8.4-4.6 8.2-4.9 7.9-5.1 7.7-5.4 7.3-5.7 7-6.1 6.7-6.4 6.5-6.6 8.7-10.1 8-10.4 3.4-5 3.1-5.1 2.9-5.1 2.7-5.2 2.3-5.4 2.2-5.3 1.8-5.5 1.6-5.4 1.2-5.5 1.1-5.6 0.9-5.6 0.5-5.7 0.2-5.8v-5.8l-0.2-6-0.5-5.9-0.6-4-1-4.5-3.3-10.9-4.8-13.4-6.7-15.8-5.2-13-2.2-6.4-1.8-6.3-1.6-6.2-1.4-6.2-0.9-6.1-0.8-6"/>
		<path id="Layer" fill-rule="evenodd" class="s9" d="m1266.5 1671.5l-5.7 8.9-5.9 8.6-5.9 8.4-6.1 8-6.3 7.6-6.4 7.4-6.7 7.1-6.8 6.8-6.9 6.5-7.1 6.2-7.3 5.8-7.2 5.6-7.7 5.2-7.6 5-7.9 4.8-8 4.3-8.9 4.3-9 4-9.1 3.7-9.5 3.3-9.4 2.9-9.7 2.6-10 2.3-10.1 1.8-10.3 1.6-10.4 1.2-10.6 0.9-10.8 0.4-11 0.2-11.2-0.3-11.4-0.5-11.6-0.9"/>
		<path id="Layer" fill-rule="evenodd" class="s10" d="m994 1805.2l-108.3-51.4"/>
		<path id="Layer" fill-rule="evenodd" class="s11" d="m620.5 2032.1l-10.5-13.3-9.3-13.2-8.3-13.4-7.3-13.3-3.2-6.8-3.1-6.8-2.6-6.8-2.6-6.8-2.2-6.8-1.9-6.9-1.7-6.8-1.5-6.9"/>
		<path id="Layer" fill-rule="evenodd" class="s11" d="m2746.3 1848.1l-24.2 90.7"/>
		<path id="Layer" fill-rule="evenodd" class="s10" d="m2419.1 1693.8l-93.6 59.9"/>
		<path id="Layer" fill-rule="evenodd" class="s9" d="m2325.5 1753.7l-11.2 3.1-11.2 2.8-10.9 2.5-10.9 1.9-10.8 1.6-10.6 1.3-10.5 0.9-10.5 0.3-10.3 0.2-10.2-0.3-10.1-0.7-9.9-1.1-9.9-1.5-9.7-1.8-9.7-2.2-9.5-2.6-13.4-4.4-13.3-5.2-13-6-12.7-6.8-12.5-7.6-12.3-8.4-12-9.1-11.8-10"/>
		<path id="Layer" fill-rule="evenodd" class="s12" d="m3356.9 2179.8l-0.6 2.9-0.9 2.9-1.1 3-1.5 3-3.9 5.9-4.8 6-7.6 9-3.1 4.3-2.8 4.3-2.3 4-2 3.9-1.4 3.9-1.1 3.6-1.8 6.3-2 4.6-0.9 1.7-1.1 1.2-1.1 0.8-1.1 0.3-1.2-0.1-1.3-0.6-1.2-1-1.3-1.4-2.7-4.3-2.9-5.9-3.8-9.5-3.2-9.7-1.7-4.4-2.5-4.7-3.1-4.7-3.7-4.9-4-4.6-4.5-4.4-4.6-4-4.7-3.4-4.6-2.9-4.5-2.3-4.6-1.8-4.4-1.2-4.1-0.8-4.1-0.1-4.1 0.5-3.7 1.1-3.2 1.3-3.1 2-2.8 2.3-2.8 2.9-0.9 1.2-1.2 2.2-0.7 2.5-0.1 2.7 0.3 2.6 0.9 2.4 1.4 2.2 1.9 1.8 2.1 1.5 3.4 1.9 3 2.2 2.5 2.4 2.2 2.8 2.2 3.8 1.6 4.2 5.1 19.6 4.7 21.2 4.2 22.7 3.9 24.3 0.1 2.7-0.7 2.4-1.2 1.9-1.9 1.7-2.3 1.5-2.5 1-2.9 0.4-3-0.1-2.3-0.5-2.1-0.9-1.8-1.5-1.5-1.9-2.5-4-2.1-4.2-1.9-4.1-1.6-4-1.2-4.1-0.9-4.2-0.6-4.1-0.3-4.1v-4l0.3-4 0.6-4 0.9-4 1-4.8 0.2-5.7-0.4-5.6-1.2-5.5-1.9-5.4-2.7-5.2-3.4-4.9-3.9-4.5-4.5-4-2.2-1.2-1.7-0.3-1.8 0.1-1.7 0.5-1.4 0.8-1.4 1.2-0.9 1.5-0.6 1.6-0.3 1.8v24.9l-0.2 4.2-0.5 3.3-1 2.1-0.6 0.7-0.7 0.4-0.8 0.1-0.9-0.1-2.1-1.1-2.4-2.3-2.8-3.3-18.5-23.2-18.3-21.6-3.2-3.2-3.2-2.5-3.4-2.1-3.7-1.4-4.8-1h-5.1-0.6l-4.3 1-4.1 1.7-3.5 2.5-3.2 3.2-2.3 3.6-1.6 4.1-0.7 4.4 0.1 4.4 5.1 37.6 0.1 2.3-0.2 1.8-0.5 1.6-0.8 1.1-1.2 0.7-1.6 0.3h-1.8l-2.2-0.5-3.3-1.2-1.2-1-1.2-1.1-0.9-1.2-0.7-1.3-0.9-3.3-0.8-3.7-1.6-3-2.2-2.4-2.7-2.1-6.9-3.6-6.9-2.8-7-2.1-7.2-1.1-3.9-0.2h-4l-3.9 0.2-4 0.5-2.8 0.1-2.8-0.3-2.6-1-2.5-1.5-35.5-26.8"/>
		<path id="Layer" fill-rule="evenodd" class="s12" d="m2839.1 2977l5 11.9 5.6 14.8 6.3 17.8 6.9 20.8 2.2 6 2.3 5.7 2.8 5.5 2.9 5.1 3.3 4.7 3.5 4.5 3.8 4.2 4 3.8 6.1 4.8 6.5 4.1 7.1 3.5 7.5 3.1 6.1 1.7 6.8 1.1 7.1 0.4 7.9-0.1 8.5-0.7 9.1-1.2 9.7-2 10.4-2.5 10.6-3.2 11.3-3.6 12.2-4.3 12.7-4.8 13.4-5.4 14.4-6.2 36.4-16.5 24-10.8 15-6.3 9.2-3.9 9.1-4.3 9.1-4.6 9-5.1 8.9-5.6 8.7-5.9 8.7-6.3 8.6-6.6 18.1-15.3 17.3-15.8 16.4-16.4 7.9-8.4 7.7-8.5 7.5-8.6 7.3-8.8 7-8.8 6.8-9.1 6.7-9.1 6.4-9.3 6.2-9.4 6-9.5 8.9-15.3 8.5-15.5 7.9-15.9 7.6-16.2 6.9-16.6 6.3-16.8 5.9-17.2 5.4-17.5 4.7-17.7 4.4-18.2 3.8-18.5 3.2-18.7 2.7-19 2.2-19.5 1.7-19.7 1.2-20.1 1.1-25.1 0.7-23.9 0.4-22.7 0.1-21.5-0.1-20.4-0.5-19.2-0.9-18-1-16.8-0.7-4.5-1.2-4.5-1.5-4.3-2.1-4-2.6-3.5-2.7-3.2-3.2-2.5-3.4-2.2-10.2-5.1-10.2-4.7-10.1-4.4-10.1-3.9-9.9-3.5-10-3.2-9.9-2.6-9.9-2.3-9.7-2-9.7-1.4-9.6-1.1-9.6-0.6-9.6-0.3-9.4 0.1-9.4 0.5-9.3 1-16.2 2.3-15.9 2.9-15.6 3.7-15.6 4.2-16.4 5.2-16.1 6.1-16 6.7-15.8 7.5-15.6 8.1-15.2 9-15.1 9.7-14.9 10.5-6.1 4.8-5.7 5.3-5.2 5.5-4.6 5.9-4.3 6.2-3.8 6.5-3.2 6.9-2.8 7.2-2.3 7.6-1.9 7.9-1.3 8.3-1 8.6"/>
		<path id="Layer" fill-rule="evenodd" class="s12" d="m2581.4 2329.4l-13 4.4-13.1 5.2-7.2 2.8-6.6 2.3-6.6 1.7-6.1 1.2-24.5 3.4-33.6 3.7-25.9 2.7-18.8 2.4-16.9 2.6-15.3 2.9-21.7 4.4-21.7 4.1-21.9 3.9-21.8 3.6-31.2 4.8-31.2 4.2-31.5 3.7-31.4 3.1h-2.5l-2.5-0.5-2.8-0.8-2.9-1.2-3.2-1.7-3.4-2.2-7.3-5.6"/>
		<path id="Layer" fill-rule="evenodd" class="s13" d="m2503.1 2862.6l-10.8 1.4-4.4 0.3-3.7-0.1-3.2-0.4-2.4-0.8-1.7-1.1-1.2-1.4-0.4-1.2-0.1-1.3 0.2-1.5 0.5-1.6 1.8-3.6 3.1-4.2"/>
		<path id="Layer" fill-rule="evenodd" class="s5" d="m2207.7 2809.4l18.1-3.1 18-2.2 10.9-1.5 9.3-1.9 4.2-1.2 3.7-1.4 3.3-1.4 3.1-1.6 7-4.7 6.6-5.4 4.6-4.5 4.2-5 4-5.4 3.5-5.7 1.5-2 1.8-1.4 2.2-0.9 2.4-0.2 1.5 0.2 1.2 0.6 1.1 1 1.6 2.3 0.9 2.6 0.4 2.8-0.4 2.9-1.9 10.8-1.2 11.7 0.1 2.2 0.5 2.2 1 2.1 1.3 1.8 1.7 1.5 1.9 1.1 2.2 0.7 2.2 0.2h0.5l8.6-0.6 6.3-0.8 6.3-1.1 6.2-1.6 6.2-1.8 6.1-2.2 6.1-2.6 6-2.9 6.1-3.3 2.8-1.9 2.6-2.2 1.5-1.9 1.5-2.2 1.8-2.9 2.3-2.9 2.4-2.8 3-2.8 6.9-5.4 10.1-6.5 9.2-6.1 3.1-2.4 2.7-2.3 27.2-26.4 27.8-27.5 28.2-28.8 28.6-30.1 2.7-3 2.3-3.1 2.1-3 1.8-3.2 1.4-3.1 1.1-3.2 0.9-3.1 0.5-3.3 0.2-3.3-0.1-3.2-0.4-3.3-0.7-3.3-1.7-6.2-1.9-6-2.2-5.9-2.5-5.7-2.6-5.7-3.1-5.6-3.1-5.4-3.5-5.3-3.8-5.2-4-5.1-4.3-5-4.5-4.7-4.8-4.8-5.1-4.6-5.2-4.5-5.6-4.3-5.8-4.4-6.1-4.1-13-7.9-10.8-6-10.8-5.8-10.8-5.3-10.8-5.3-10.9-4.8-10.9-4.6-10.9-4.4-10.9-4-10.9-3.8-11-3.4-10.9-3.1-11-2.9-11-2.7-11-2.3-11.1-2.1-11-1.8-20.9-2.9-21.1-2.6-21-2.3-21.3-1.8-21.2-1.6-21.5-1.1-21.4-0.8-21.6-0.5"/>
		<path id="Layer" fill-rule="evenodd" class="s8" d="m2050.1 2809.1l8.2 16.3 8 15.5 1.8 3.1 4.1 6.5 4.9 6 5.4 5.8 6 5.4 64.1 53 6.3 4.8 7.4 4.2 8.5 3.9 9.4 3.5 10.4 3.2 11.5 2.8 12.5 2.3 13.5 1.9 2.7 0.6 2.5 0.9 2.5 1.6 2.3 1.9 2.2 2.6 1.7 2.6 1.4 2.7 1.1 2.9 0.6 2.6 0.4 2.5 0.1 2.8-0.1 2.8-0.6 3-1.2 2.8-1.7 2.2-2.2 2-3.1 2.5-2.5 2.9-2.3 3.5-1.8 3.9-1.3 4.4-0.7 4.7"/>
		<path id="Layer" fill-rule="evenodd" class="s8" d="m2128.1 3220.7l-5.1 11.3-5.2 10.8-5.3 10.5-5.3 9.8-5.5 9.5-5.4 8.8-5.6 8.5-5.6 8-9.8 15.7-2.7 3.9-2.9 3.5-3.2 3.2-3.4 2.9-5.3 3.5-6 2.9-6.4 2.2-6.9 1.6-17.9 3.4-23.9 5.4-20.3 4.7-14.8 2.9-13.6 2.3-12.6 1.4-50 4.4-46.3 3.8-42.5 3.1-38.7 2.5-35.1 1.8-31.2 1.2-27.5 0.6-23.7-0.1-36.8-1-36.9-1.7-37-2.4-37.2-2.9-37.2-3.8-37.6-4.4-37.5-5.1-37.7-5.7-7.3-1.3-7.2-1.6-6.9-1.9-6.6-2.1-6.3-2.3-5.9-2.6-5.7-2.7-5.2-3-4.9-3.2-4.4-3.3-4.1-3.5-3.6-3.8-3.3-3.9-2.9-4.1-2.5-4.3-2.1-4.5-2.2-6.4-5.2-18.1-5.9-17.9-6-17.6-6.7-17.4-7.1-17.2-7.4-17-8-16.7-8.4-16.5-6.8-12.7-7.1-12.7-7.4-12.5-7.7-12.2-7.9-12.3-8.2-12-8.5-11.9-8.8-11.8-1.8-1.9-2-1h-2.5l-2.5 0.9-16.2 8"/>
		<path id="Layer" fill-rule="evenodd" class="s8" d="m1064.3 2989.3l6.2-3.2 7.1-3.3 7.9-3.2 8.6-3 9.6-3 10.3-3 11.3-2.8 12-2.7 9-2.1 8.8-2.3 8.9-2.7 8.6-2.8 8.5-3 8.4-3.3 8.4-3.5 8.1-3.8 12.6-6.3 12.3-7 11.9-7.4 11.8-8.2 11.4-8.7 11-9.2 11-9.9 10.5-10.4 4-4.4 3.8-4.5 3.6-4.8 3.6-5.1 3.2-5.4 3.2-5.6 2.9-5.9 2.8-6.1 9.5-22.7 9.1-23.3 1.1-3.5 0.6-3.5v-3.3l-0.5-3.2-1-2.6-1.4-2.7-2-2.4-2.3-2.5-1.6-1.7-1.3-1.8-1.3-2.7-0.8-2.9-3.4-19"/>
		<path id="Layer" fill-rule="evenodd" class="s8" d="m2014.1 2483.2l-150.6 7-148.6 6.6-46.6 1.7-49.3 1.1-51.8 0.6-54.5-0.1-101.3-0.3-50.5 0.3-50.6 0.5"/>
		<path id="Layer" fill-rule="evenodd" class="s12" d="m1177 2413.5h-55.1l-55-0.7-54.7-1.7-54.3-2.6-54.2-3.4-53.8-4.2-53.6-5.1-53.3-6"/>
		<path id="Layer" fill-rule="evenodd" class="s5" d="m1213.7 2479.7l-7.7-5.8-7.4-5.3-6.9-4.5-6.7-4-6.4-3.2-6-2.6-5.7-2.1-5.3-1.3-8.4-1.3-9.2-1-10.1-0.6h-10.9l-11.8 0.4-12.6 0.7-13.6 1.2-14.4 1.7-25.5 3.5-25.2 4.3-25.1 4.8-25 5.6-17.4 4.3-17.4 4.6-17.2 5-17.1 5.2-11.4 3.9-11.2 4.3-10.8 4.8-10.3 5.2-10.1 5.7-9.7 6.1-9.4 6.4-8.9 7-9.8 8.4-9.3 9-8.7 9.6-8.4 10.1-8 10.6-7.4 11.2-7.1 11.8-6.5 12.4-1.6 3.9-1 4-0.4 4.1 0.4 4.2 1 4.1 1.4 3.8 2.1 3.6 2.7 3.2 10.5 10.5 12.2 10.8 13.7 11.3 19.3 14.9 17.1 13.2 12.4 10 10.9 9.5 9.7 8.9 20.9 20 20 18 19.2 16.1 18.2 14.2 5.4 3.7 6.5 4.3 17 9.9 22 11.9 27.2 13.9"/>
		<path id="Layer" fill-rule="evenodd" class="s6" d="m853.5 2871.6l0.8 0.7 0.4 0.7-0.3 0.6-0.7 0.6-2.6 1.4-4.4 1.2-6.2 1.3"/>
		<path id="Layer" fill-rule="evenodd" class="s12" d="m2551.7 3439.1l-0.5-0.4-1.5-1-1.8-0.5-1.3-0.4-1-0.8-0.4-1 0.1-1.3 0.3-3.5-0.3-1-0.4-0.6-0.8-0.1-1.1 0.3-2.8 2.1-1.7 1.1-1.7 0.5-1.8-0.2-1.7-0.8-2.8-1.5-2.8-0.9-2.6-0.4-2.5 0.2-2.8 0.9-2.5 1.6-2.6 2.4-2.3 3-2.3 2.8-2.6 2.3-3.1 1.6-3.5 1.1-77.4 14.6-11.7 1.8-11.5 1-11.4 0.2-11.5-0.6-6.3-0.6-6.3-1-6.4-1.1-6.2-1.3-12.6-3.5-12.4-4.5-12.4-5.5-12.4-6.5-12.1-7.4-12.2-8.4-7.5-5.7-7.2-5.7-6.4-5.5-6.2-5.6-5.6-5.4-5.2-5.5-5-5.6-4.3-5.6-4.2-5.6-3.6-5.5-3.3-5.8-2.9-5.8-2.5-5.7-2.2-5.8-1.9-6-1.3-6-1.4-8.9-0.7-8.9-0.2-3.4-0.7-3.2-1-3.3-1.5-3.2-0.9-2-1.7-4-1.2-4-1-4.3-0.6-4.5-0.3-4.5v-4.7l0.4-4.9 0.7-4.9"/>
		<path id="Layer" fill-rule="evenodd" class="s12" d="m1132.2 3362.4l-7.7 7.7-7.6 7.2-7.8 6.8-7.7 6.5-7.9 5.9-7.9 5.5-7.9 5.1-8 4.6-8 4.3-8.2 3.7-8.1 3.4-8.1 2.9-8.3 2.5-8.3 2-8.3 1.7-8.4 1.1-10.6 0.9-10.5 0.2-11-0.4-10.8-0.8-11.6-1.2-11.7-1.8-11.5-2.4-11.4-2.9-11.6-3.2-11.4-3.8-11.3-4.3-11.4-4.8-11.1-5.2-11.3-5.9-11.2-6.2-11.2-6.7-11-7.3-11.1-7.7-11-8.2-10.9-8.8-15-12.8-14.2-13.4-13.4-13.7-12.7-14.2-11.9-14.6-11-15-10.3-15.6-9.6-15.9-6.9-13-6.6-13.1-6.8-15.4-6.1-15.6-5.3-15.7-4.5-16.1-3.3-13.9-2.8-14-2.2-14.3-1.5-14.3"/>
	</g>
	<g id="Layer">
		<path id="Layer" class="s14" d="m1044.9 348.2l-0.2 4.1-0.8 3.4-1.2 2.7-1.8 1.9-2.4 1.5-2.7 0.7h-3l-3.3-1-9.2-4.1-9-4.4-8.8-4.4-8.3-4.8-8.3-4.8-7.9-5.1-7.5-5.3-7.4-5.4-13.3-9.6-14-9.2-14.7-8.9-15.6-8.5-12.8-7-17.3-10-16.1-9.5-11.9-6.5-11.2-5.6-10.3-4.7-16.6-7-16.8-6.6-16.9-6.4-17-6.1-17.1-6-17.2-5.6-17.4-5.4-17.5-5.1-17.6-5-17.7-4.6-17.8-4.4-18.1-4.2-18.1-3.9-18.2-3.7-18.4-3.4-18.4-3.1-6.2-0.8-8.1-0.4-10-0.3h-11.9l-6.3-0.1-5.7-0.5-5.1-1-4.5-1.2-4-1.6-3.4-2-2.7-2.5-2.2-2.6-1.2-2.2 21.3-2.7 21.1-1.8 21.1-0.7 21.1 0.1 20.4 1.1 20.4 1.9 20.4 2.8 20.3 3.8 20.3 4.6 20.3 5.5 20.2 6.4 20.3 7.3 31.3 12.2 30 12.4 28.7 12.5 27.8 12.9 26.9 13.1 26.2 13.5 25.8 13.9 25.1 14.5 25.7 15.5 25.5 16.4 25.5 17z"/>
		<path id="Layer" class="s14" d="m2058.6 1700.6l11.8 10 12 9.1 12.3 8.4 12.5 7.6 12.7 6.8 13 6 13.3 5.2 13.4 4.4 9.5 2.6 9.7 2.2 9.7 1.8 9.9 1.5 9.9 1.1 10.1 0.7 10.2 0.3 10.3-0.2 10.5-0.3 10.5-0.9 10.6-1.3 10.8-1.6 10.9-1.9 10.9-2.5 11.2-2.8 11.2-3.1-8.3 10.5-7.6 10.6-6.8 10.7-6.1 10.6-5.3 10.6-4.5 10.7-3.9 10.7-3 10.7-1.4 5.8-1.1 5.8-0.7 5.7-0.5 5.9-0.2 5.6 0.1 5.7 0.4 5.6 0.6 5.5 0.8 5.5 1.2 5.3 1.4 5.4 1.7 5.2 1.9 5.3 2.3 5.3 2.4 5.2 2.8 5.1 8.2 13.5 4.3 6.4 4.4 6.1 4.5 5.9 4.7 5.6 4.8 5.3 4.8 5.1 5.1 4.9 5.1 4.6 5.4 4.3 5.3 4.1 5.6 3.9 5.6 3.5 5.8 3.3 5.9 3 1.4 0.7 9.3 4.3 9.5 4 9.7 3.6 9.8 3.3 10.1 3 10.1 2.7 10.3 2.4 10.5 2.1 10.3 1.7 10.5 1.3 10.4 1 10.4 0.6 10.4 0.4h10.5l10.3-0.5 10.3-0.7 10-1.1 10.1-1.4 9.7-1.8 9.8-2 9.5-2.5 9.3-2.8 9.1-3 9-3.4 8.7-3.8 8.7-4 8.3-4.3 8.2-4.7 7.7-4.9 7.7-5.2 7.4-5.6 7.2-5.9 23.8-20.6 22.9-20.3 4.1 0.9 3.8 1.1 3.3 1.3 2.9 1.3 2.4 1.7 2.1 1.9 1.7 2 1.3 2.2 0.7 2.2 0.5 2.3 0.3 2.7-0.1 2.4-0.5 2.4-0.8 2.2-1.2 2.6-1.6 2.3-2.1 2.2-2.5 2-13.9 9.7-16.3 10.4-16.6 9.5-20.4 11-20.7 10.8-21 10.5-21.2 10.6-21.6 10.2-21.9 10.2-22.1 9.9-22.4 9.8-22.7 9.7-23.1 9.3-23.3 9.4-23.7 9.1-23.9 9-24.3 8.7-24.5 8.6-24.8 8.5-22.6 7.3-23.5 6.9-24.4 6.7-25.4 6.4-26.2 6.1-27.1 5.7-28 5.5-28.9 5.1-59.9 9.9-55.7 8.8-51.6 7.6-47.5 6.3-31.4 3.8-32.5 3.4-33.7 2.9-34.6 2.7-35.8 2.3-36.8 1.9-38 1.6-38.9 1.2-33.8 0.6h-34.2l-34.9-0.5-35.1-1.1-35.6-1.7-36.1-2.3-36.4-2.8-36.7-3.2-37.1-3.9-37.4-4.5-37.8-5.1-37.9-5.5-38-6.2-38.1-6.5-38.2-7.2-38.1-7.6-28.1-6.3-30.3-7.7-33.6-9.3-45.8-13.4-54.7-15.9-21-5.8-19.2-5-14.3-4-15.3-5.1-16.6-6.3-22.2-9.1-20.5-8.5-15.2-5.8-14.1-4.9-13-3.9-7.9-2.5-7.4-3.1-4.6-2.3-4.7-2.5-4.5-2.9-4.6-3.3-9.8-7.8-11.9-10.7-3.2-3.5-2.2-3.4-1.4-3.4-0.3-3.4 0.5-3 1.3-3.1 2.1-3 2.9-3 13.7 9.1 14.1 8.1 7 3.8 7.2 3.5 7.3 3.1 7.3 3.1 10.2 3.7 10.3 3.4 10.4 3.2 10.7 2.8 10.8 2.4 10.9 2.1 11 1.8 11 1.3 11 1.1 11 0.6 11 0.3h10.9l10.7-0.5 10.8-0.7 10.6-1.2 10.4-1.6 10.1-1.8 10.1-2.2 9.8-2.6 9.7-2.9 9.4-3.2 9.1-3.6 9-3.9 8.7-4.1 8.4-4.6 8.2-4.9 7.9-5.1 7.7-5.4 7.3-5.7 7-6.1 6.7-6.4 6.5-6.6 8.7-10.1 8-10.4 3.4-5 3.1-5.1 2.9-5.1 2.7-5.2 2.3-5.4 2.2-5.3 1.8-5.5 1.6-5.4 1.2-5.5 1.1-5.6 0.9-5.6 0.5-5.7 0.2-5.8v-5.8l-0.2-6-0.5-5.9-0.6-4-1-4.5-3.3-10.9-4.8-13.4-6.7-15.8-5.2-13-2.2-6.4-1.8-6.3-1.6-6.2-1.4-6.2-0.9-6.1-0.8-6 11.6 0.9 11.4 0.5 11.2 0.3 11-0.2 10.8-0.4 10.6-0.9 10.4-1.2 10.3-1.6 10.1-1.8 10-2.3 9.7-2.6 9.4-2.9 9.5-3.3 9.1-3.7 9-4 8.9-4.3 8-4.3 7.9-4.8 7.6-5 7.7-5.2 7.2-5.6 7.3-5.8 7.1-6.2 6.9-6.5 6.8-6.8 6.7-7.1 6.4-7.4 6.3-7.6 6.1-8 5.9-8.4 5.9-8.6 5.7-8.9 3.4 1.6 3.5 2.4 3.3 3 3.4 3.9 1.1 1.1 1.2 1 1.3 0.7 1.5 0.5 1.5 0.2h1.6l1.6-0.3 1.5-0.5 6.3-3.2 6.2-3.4 7.4-4.6 7.1-4.8 7-5.4 6.6-5.7 6.5-6.2 6.3-6.4 5.9-6.9 5.9-7.3 6.3-8.1 10.2-12.8 10.3-12.6 10.8-12.3 10.9-12.1 11.2-11.9 11.5-11.7 11.8-11.5 12-11.3 12.3-11 12.6-10.9 12.7-10.6 13.2-10.5 13.3-10.2 13.7-10.1 13.9-9.8 14.2-9.6 9.9-6.2 9.6-5.1 9.5-4 9.2-2.9 4.5-1.1 4.5-0.8 4.4-0.5 4.2-0.4h4.4l4.1 0.3 4.1 0.6 4.2 0.7 0.9 0.2 11.5 3.2 11.6 4 12 4.9 12.4 5.7 12.8 6.5 13 7.4 13.4 8.3 13.7 9.2 14 9.8 14.3 10.7 14.7 11.7 15.4 12.6 15.7 13.5 16.6 14.7 17.8 16.1 21.2 19.8 9 8.1 9.3 8.1 9.9 7.8 10.3 7.9 10.7 7.7 11.1 7.6 11.7 7.6 12.1 7.4 12.7 7.3 13 7.1 13.4 7.1 14 7 14.4 6.8 14.9 6.8 15.2 6.7z"/>
		<path id="Layer" class="s14" d="m2134.6 2420.2l21.6 0.5 21.4 0.8 21.5 1.1 21.2 1.6 21.3 1.8 21 2.3 21.1 2.6 20.9 2.9 11 1.8 11.1 2.1 11 2.3 11 2.7 11 2.9 10.9 3.1 11 3.4 10.9 3.8 10.9 4 10.9 4.4 10.9 4.6 10.9 4.8 10.8 5.3 10.8 5.3 10.8 5.8 10.8 6 13 7.9 6.1 4.1 5.8 4.4 5.6 4.3 5.2 4.5 5.1 4.6 4.8 4.8 4.5 4.7 4.3 5 4 5.1 3.8 5.2 3.5 5.3 3.1 5.4 3.1 5.6 2.6 5.7 2.5 5.7 2.2 5.9 1.9 6 1.7 6.2 0.7 3.3 0.4 3.3 0.1 3.2-0.2 3.3-0.5 3.3-0.9 3.1-1.1 3.2-1.4 3.1-1.8 3.2-2.1 3-2.3 3.1-2.7 3-28.6 30.1-28.2 28.8-27.8 27.5-27.2 26.4-2.7 2.3-3.1 2.4-9.2 6.1-10.1 6.5-6.9 5.4-3 2.8-2.4 2.8-2.3 2.9-1.8 2.9-1.5 2.2-1.5 1.9-2.6 2.2-2.8 1.9-6.1 3.3-6 2.9-6.1 2.6-6.1 2.2-6.2 1.8-6.2 1.6-6.3 1.1-6.3 0.8-8.6 0.6h-0.5l-2.2-0.2-2.2-0.7-1.9-1.1-1.7-1.5-1.3-1.8-1-2.1-0.5-2.2-0.1-2.2 1.2-11.7 1.9-10.8 0.4-2.9-0.4-2.8-0.9-2.6-1.6-2.3-1.1-1-1.2-0.6-1.5-0.2-2.4 0.2-2.2 0.9-1.8 1.4-1.5 2-3.5 5.7-4 5.4-4.2 5-4.6 4.5-6.6 5.4-7 4.7-3.1 1.6-3.3 1.4-3.7 1.4-4.2 1.2-9.3 1.9-10.9 1.5-18 2.2-18.1 3.1-4.1-1.4-3.8-1.1-3.5-0.8-3.2-0.3h-2.7l-2.5 0.5-2.2 0.8-1.7 1.2h-0.1l-2.2-2.8-2.4-2.5-2.5-2.2-2.8-1.8-0.2-0.1-2.1-1.7-0.8-1-0.5-1.1-0.2-1.2v-1.2l0.9-2.7 0.8-1.2 1.9-1.8 2.6-1.4 2.1-1 1.9-1.2 1.5-1.2 1.3-1.4 27.6-36.1 3-3.6 2.3-3.9 1.7-4.3 0.8-4.1 0.3-2.9-0.1-2.9-0.5-2.8-0.7-2.8-1.1-2.7-1.4-2.7-1.7-2.5-1.8-2.3-2.2-2.2-2.3-1.9-2.4-1.7-2.7-1.5-2.8-1.2-3-1-3.1-0.6-3.1-0.5-55.1 57.6-2.8 2.5-2.8 1.8-2.7 1-2.7 0.3-2.5-0.6-2.4-1.5-2.5-2.2-2.3-3-5.9-9.2-5.5-9.4-5.1-9.5-4.6-9.6-4.2-9.7-3.8-9.7-3.3-9.9-2.9-10.1-2.4-10-2-10.2-1.5-10.3-1.3-10.3-0.7-10.4-0.2-10.7 0.1-10.7 0.5-10.8 1.4-16 2.2-15.8 2.9-15.4 3.6-15.1 4.1-14.7 4.8-14.4 5.6-14.1 6.3-13.7 7.1-13.8 7.6-13.2 8.5-13z"/>
		<path id="Layer" class="s14" d="m1213.7 2479.7l8 13.9 7.3 14 6.4 14.2 5.7 14.2 4.9 14.3 4.1 14.5 3.4 14.7 2.5 14.7 1.9 15.9 0.9 16.1v16.3l-0.8 16.4-1.8 16.5-2.7 16.6-3.7 16.8-4.5 16.8-2.7 8.8-3.4 8.4-3.8 8-4.4 7.7-3.3 5.3-3.5 5.1-1.1 1.2-1.1 1-1.2 0.6-1.1 0.3h-1.3l-1.2-0.3-1.4-0.8-1.3-0.9-41.3-35.1-2.5-1.8-2.9-1.5-2.2-0.6-2.2-0.5-2.3-0.1-2.3 0.1-2.2 0.4-2.2 0.6-2.2 0.8-1.9 1.2-1.8 1.4-1.7 1.6-1.5 1.7-1.2 1.9-1 2.1-0.7 2.1-0.5 2.2-0.2 2.3 0.1 3.1 0.4 3.1 0.8 3.4 1.1 3.5 1.5 3.7 1.9 3.9 4.6 8.1 6.3 8.7 7.3 8.9 8 8.1 3.8 3.6 3.5 2.8 1 0.9 0.6 1 0.2 1.1 0.1 1.1-0.1 1.2-0.5 1.1-0.7 0.8-0.8 0.9-1 0.5-8.5 3.1-8.6 2.9-8.7 2.6-8.6 2.3-13 2.7-13 2-13.2 1.5-13.3 0.7-3.3-0.3-2.8-1.1-2.2-2-1.8-2.5-2.9-5.2-3.2-5-3.4-4.8-3.6-4.7-3.5-4.1-3.8-4-4-3.9-4.1-3.7-1.1-0.7-1.3-0.5-1.2-0.3h-1.3l-1.2 0.2-1.2 0.5-1.1 0.7-1 1-0.1 0.2-2.3 3.7-1.7 3.6-1.1 3.7-0.5 3.7v2.7l0.4 2.7 0.6 2.6 0.9 2.7 1.4 2.7 1.6 2.8 4.1 5.4 2.3 3.1 1.4 2.6 0.5 2.4-0.2 1.9-1.2 1.6-2.1 1.2-2.9 0.8-3.8 0.5-21.7 1.5-27.2-13.9-22-11.9-17-9.9-6.5-4.3-5.4-3.7-18.2-14.2-19.2-16.1-20-18-20.9-20-9.7-8.9-10.9-9.5-12.4-10-17.1-13.2-19.3-14.9-13.7-11.3-12.2-10.8-10.5-10.5-2.7-3.2-2.1-3.6-1.4-3.8-1-4.1-0.4-4.2 0.4-4.1 1-4 1.6-3.9 6.5-12.4 7.1-11.8 7.4-11.2 8-10.6 8.4-10.1 8.7-9.6 9.3-9 9.8-8.4 8.9-7 9.4-6.4 9.7-6.1 10.1-5.7 10.3-5.2 10.8-4.8 11.2-4.3 11.4-3.9 17.1-5.2 17.2-5 17.4-4.6 17.4-4.3 25-5.6 25.1-4.8 25.2-4.3 25.5-3.5 14.4-1.7 13.6-1.2 12.6-0.7 11.8-0.4h10.9l10.1 0.6 9.2 1 8.4 1.3 5.3 1.3 5.7 2.1 6 2.6 6.4 3.2 6.7 4 6.9 4.5 7.4 5.3z"/>
		<path id="Layer" class="s14" d="m2014.1 2483.2l-5.5 16.5-4.8 16.2-4.2 15.6-3.5 15.3-2.9 15-2.2 14.5-1.6 14.1-0.8 13.7-0.3 10-0.1 9.7 0.3 9.7 0.4 9.6 0.8 9.3 0.9 9.4 1.3 9.2 1.4 9.1 1.7 9 2.1 9 2.2 8.7 2.5 8.6 2.7 8.7 3 8.3 3.3 8.4 3.4 8.2 3.8 7.8 3.8 7.8 4.2 7.7 4.2 7.6 4.6 7.4 4.9 7.4 5.1 7.2 5.3 7.2 8.2 16.3 8 15.5 1.8 3.1 4.1 6.5 4.9 6 5.4 5.8 6 5.4 64.1 53 6.3 4.8 7.4 4.2 8.5 3.9 9.4 3.5 10.4 3.2 11.5 2.8 12.5 2.3 13.5 1.9 2.7 0.6 2.5 0.9 2.5 1.6 2.3 1.9 2.2 2.6 1.7 2.6 1.4 2.7 1.1 2.9 0.6 2.6 0.4 2.5 0.1 2.8-0.1 2.8-0.6 3-1.2 2.8-1.7 2.2-2.2 2-3.1 2.5-2.5 2.9-2.3 3.5-1.8 3.9-1.3 4.4-0.7 4.7-11.1 15.3-10.9 15.7-10 15.9-9.7 16.3-9.9 17.7-9.3 18.2-8.6 18.4-8.2 18.9-7.4 19.1-6.9 19.5-6.3 19.9-5.7 20.1-5.1 11.3-5.2 10.8-5.3 10.5-5.3 9.8-5.5 9.5-5.4 8.8-5.6 8.5-5.6 8-9.8 15.7-2.7 3.9-2.9 3.5-3.2 3.2-3.4 2.9-5.3 3.5-6 2.9-6.4 2.2-6.9 1.6-17.9 3.4-23.9 5.4-20.3 4.7-14.8 2.9-13.6 2.3-12.6 1.4-50 4.4-46.3 3.8-42.5 3.1-38.7 2.5-35.1 1.8-31.2 1.2-27.5 0.6-23.7-0.1-36.8-1-36.9-1.7-37-2.4-37.2-2.9-37.2-3.8-37.6-4.4-37.5-5.1-37.7-5.7-7.3-1.3-7.2-1.6-6.9-1.9-6.6-2.1-6.3-2.3-5.9-2.6-5.7-2.7-5.2-3-4.9-3.2-4.4-3.3-4.1-3.5-3.6-3.8-3.3-3.9-2.9-4.1-2.5-4.3-2.1-4.5-2.2-6.4-5.2-18.1-5.9-17.9-6-17.6-6.7-17.4-7.1-17.2-7.4-17-8-16.7-8.4-16.5-6.8-12.7-7.1-12.7-7.4-12.5-7.7-12.2-7.9-12.3-8.2-12-8.5-11.9-8.8-11.8-1.8-1.9-2-1h-2.5l-2.5 0.9-16.2 8-55-73.4 6.2-3.2 7.1-3.3 7.9-3.2 8.6-3 9.6-3 10.3-3 11.3-2.8 12-2.7 9-2.1 8.8-2.3 8.9-2.7 8.6-2.8 8.5-3 8.4-3.3 8.4-3.5 8.1-3.8 12.6-6.3 12.3-7 11.9-7.4 11.8-8.2 11.4-8.7 11-9.2 11-9.9 10.5-10.4 4-4.4 3.8-4.5 3.6-4.8 3.6-5.1 3.2-5.4 3.2-5.6 2.9-5.9 2.8-6.1 9.5-22.7 9.1-23.3 1.1-3.5 0.6-3.5v-3.3l-0.5-3.2-1-2.6-1.4-2.7-2-2.4-2.3-2.5-1.6-1.7-1.3-1.8-1.3-2.7-0.8-2.9-3.4-19 2.8-13.4 2.4-13.2 1.9-13.2 1.4-13.3 1-13.2 0.5-13.2v-13.2l-0.4-13.2-1.2-16.1-1.9-16.2-2.7-16.1-3.3-16.1-4-16-4.8-16-5.5-16-6.2-15.9 50.6-0.5 50.5-0.3 101.3 0.3 54.5 0.1 51.8-0.6 49.3-1.1 46.6-1.7 148.6-6.6z"/>
	</g>
	<g id="Layer">
		<path id="Layer" class="s1" d="m2419.1 1693.8l-93.6 59.9-11.2 3.1-11.2 2.8-10.9 2.5-10.9 1.9-10.8 1.6-10.6 1.3-10.5 0.9-10.5 0.3-10.3 0.2-10.2-0.3-10.1-0.7-9.9-1.1-9.9-1.5-9.7-1.8-9.7-2.2-9.5-2.6-13.4-4.4-13.3-5.2-13-6-12.7-6.8-12.5-7.6-12.3-8.4-12-9.1-11.8-10-10.5-11.7-9.9-11.9-9.1-12.3-8.2-12.6-7.7-12.8-6.8-13.1-5.9-13.3-5.4-13.6-3.2-9.8-2.8-9.9-2.6-10-2.2-10.2-1.7-10.3-1.4-10.4-1-10.6-0.6-10.7-0.2-15.9 0.6-15.9 1.3-15.8 2.2-15.7 2.9-15.6 3.6-15.3 4.4-14.9 5.2-14.6 5.9-14.1 6.5-13.6 7.2-13.2 7.7-12.5 8.5-11.9 9-11.2 9.6-10.5 10.1-9.9 6.3-5.5 6.4-5.4 6.6-5.1 6.7-5 6.9-4.6 7-4.5 7.1-4.2 7.3-4 7.4-3.9 7.4-3.5 7.5-3.3 7.7-3 7.7-3 7.9-2.5 7.9-2.3 7.9-2.1 8-1.8 8-1.5 8.2-1.3 8-1 8.1-0.7 8.1-0.5 8.2-0.2h8.2l8 0.3 8 0.7 8.1 0.8 8 1.1 8 1.3 7.8 1.6 7.8 2 7.8 2.1 9.6 3.1 9.6 3.4 9.3 3.9 9.2 4.2 8.9 4.6 8.9 5 8.6 5.3 8.5 5.7 8.2 6 7.8 6.2 7.8 6.4 7.5 6.6 7.2 6.8 6.9 6.9 6.8 7.3 6.5 7.3 6.1 7.6 6 7.7 5.6 7.9 5.3 8 5 8.2 4.7 8.3 4.5 8.5 4.2 8.5 3.8 8.7 3.6 8.9 3.1 8.8 2.9 9 2.6 9 2.2 9.1 1.9 9.2 1.6 9.1 1.2 9.3 0.9 9.3 0.4 9.2 0.3 9.3-0.1 9.3-0.5 9.2-0.8 9.3-1.2 9.1-1.8 10.9-2.3 10.8-2.7 10.7-3.2 10.6-3.7 10.4-4.2 10.4-4.7 10.1-5.1 10.1-5.4 9.8-6 9.6-6.3 9.5-6.9 9.2-7.2 9-7.6 8.9-8 8.5z"/>
		<path id="Layer" class="s1" d="m1266.5 1671.5l-5.7 8.9-5.9 8.6-5.9 8.4-6.1 8-6.3 7.6-6.4 7.4-6.7 7.1-6.8 6.8-6.9 6.5-7.1 6.2-7.3 5.8-7.2 5.6-7.7 5.2-7.6 5-7.9 4.8-8 4.3-8.9 4.3-9 4-9.1 3.7-9.5 3.3-9.4 2.9-9.7 2.6-10 2.3-10.1 1.8-10.3 1.6-10.4 1.2-10.6 0.9-10.8 0.4-11 0.2-11.2-0.3-11.4-0.5-11.6-0.9-108.3-51.4-9.7-9.1-9.3-9.2-8.8-9.1-8.2-9.3-7.8-9.3-7.1-9.2-6.8-9.4-6.2-9.3-5.9-9.5-5.2-9.5-4.8-9.4-4.3-9.5-3.8-9.6-3.2-9.6-2.7-9.6-2.3-9.7-1.7-9-1.6-9-1.2-9.1-1-8.9-0.6-9.2-0.5-8.9-0.1-9v-8.9l0.4-8.8 0.6-9 1-8.8 1.1-8.7 1.4-8.8 1.6-8.6 1.9-8.5 2.2-8.4 2.4-8.4 2.7-8.3 2.9-8.1 3.3-8.1 3.4-8 3.6-7.7 3.9-7.7 4.3-7.5 4.4-7.4 4.6-7.2 4.8-7 5-6.9 5.3-6.8 5.5-6.5 5.7-6.4 5.8-6.2 7.2-6.9 7.4-6.7 7.7-6.4 7.8-6.2 8.2-5.8 8.5-5.5 8.5-5.2 8.8-5 9-4.6 9.2-4.3 9.4-4 9.6-3.5 9.7-3.4 10.1-2.9 9.9-2.7 10.4-2.3 12.3-2.2 12.4-1.4 8.8-0.6 8.6-0.3 8.7 0.1 8.8 0.4 8.6 0.9 8.6 1 8.7 1.6 8.7 1.8 8.6 2.2 8.5 2.5 8.6 2.9 8.4 3.1 8.5 3.7 8.2 3.7 8.2 4.3 8 4.4 8 4.8 7.8 5.1 7.7 5.4 7.4 5.7 7.4 5.9 7.2 6.3 7 6.5 6.8 6.8 6.6 6.9 6.3 7.1 6.1 7.6 5.9 7.5 5.6 7.9 5.4 8 5.1 8.1 4.8 8.4 6.2 11.8 5.6 11.9 5 11.9 4.3 12.1 3.8 12 3 12.3 2.6 12.3 1.8 12.2 1.1 10.3 0.6 10.4 0.2 10.3-0.2 10.4-0.7 10.5-1 10.5-1.6 10.6-1.9 10.7-2.3 10.7-2.8 10.6-3.2 10.8-3.6 10.8-4.1 11-4.5 10.9-4.9 11z"/>
	</g>
	<g id="Layer">
		<path id="Layer" class="s15" d="m2695.9 1764.5l-6.9-5.6-7.2-5.2-7.2-5.1-7.2-4.9-7.5-4.5-7.5-4.3-7.6-4.2-7.8-3.8-9.3-4.4-9.6-4-9.9-3.7-9.8-3.4-10.1-3-10.3-2.7-10.3-2.3-10.6-1.9-10.8-1.7-10.8-1.4-11-0.9-11.2-0.8-11.4-0.2h-11.6l-11.6 0.2-11.9 0.8-5.6 0.8-7.6 1.8-7.1 1.9-5 0.7-4.6 0.1-4.3-0.7-3.6-1.2-3.2-1.7-3.4-2.5-3.3-2.9 8.5-8.3 8-8.5 7.6-8.9 7.2-9 6.9-9.2 6.3-9.5 6-9.6 5.4-9.8 5.1-10.1 4.7-10.1 4.2-10.4 3.7-10.4 3.2-10.6 2.7-10.7 2.3-10.8 1.8-10.9 1.2-9.1 0.8-9.3 0.5-9.2 0.1-9.3-0.3-9.3-0.4-9.2-0.9-9.3-1.2-9.3-1.6-9.1-1.9-9.2-2.2-9.1-2.6-9-2.9-9-3.1-8.8-3.6-8.9-3.8-8.7-4.2-8.5-4.5-8.5-4.7-8.3-5-8.2-5.3-8-5.6-7.9-6-7.7-6.1-7.6-6.5-7.3-6.8-7.3-6.9-6.9-7.2-6.8-7.5-6.6-7.8-6.4-7.8-6.2-8.2-6-8.5-5.7-8.6-5.3-8.9-5-8.9-4.6-9.2-4.2-9.3-3.9-9.6-3.4-9.6-3.1-7.8-2.1-7.8-2-7.8-1.6-8-1.3-8-1.1-8.1-0.8-8-0.7-8-0.3h-8.2l-8.2 0.2-8.1 0.5-8.1 0.7-8 1-8.2 1.3-8 1.5-8 1.8-7.9 2.1-7.9 2.3-7.9 2.5-7.7 3-7.7 3-7.5 3.3-7.4 3.5-7.4 3.9-7.3 4-7.1 4.2-7 4.5-6.9 4.6-6.7 5-6.6 5.1-6.4 5.4-6.3 5.5-10.1 9.9-9.6 10.5-9 11.2-8.5 11.9-7.7 12.5-7.2 13.2-6.5 13.6-5.9 14.1-5.2 14.6-4.4 14.9-3.6 15.3-2.9 15.6-2.2 15.7-1.3 15.8-0.6 15.9 0.2 15.9 0.6 10.7 1 10.6 1.4 10.4 1.7 10.3 2.2 10.2 2.6 10 2.8 9.9 3.2 9.8 5.4 13.6 5.9 13.3 6.8 13.1 7.7 12.8 8.2 12.6 9.1 12.3 9.9 11.9 10.5 11.7-15.8-6.5-15.2-6.7-14.9-6.8-14.4-6.8-14-7-13.4-7.1-13-7.1-12.7-7.3-12.1-7.4-11.7-7.6-11.1-7.6-10.7-7.7-10.3-7.9-9.9-7.8-9.3-8.1-9-8.1-21.2-19.8-17.8-16.1-16.6-14.7-15.7-13.5-15.4-12.6-14.7-11.7-14.3-10.7-14-9.8-13.7-9.2-13.4-8.3-13-7.4-12.8-6.5-12.4-5.7-12-4.9-11.6-4-11.5-3.2-0.9-0.2-4.2-0.7-4.1-0.6-4.1-0.3h-4.4l-4.2 0.4-4.4 0.5-4.5 0.8-4.5 1.1-9.2 2.9-9.5 4-9.6 5.1-9.9 6.2-14.2 9.6-13.9 9.8-13.7 10.1-13.3 10.2-13.2 10.5-12.7 10.6-12.6 10.9-12.3 11-12 11.3-11.8 11.5-11.5 11.7-11.2 11.9-10.9 12.1-10.8 12.3-10.3 12.6-10.2 12.8-6.3 8.1-5.9 7.3-5.9 6.9-6.3 6.4-6.5 6.2-6.6 5.7-7 5.4-7.1 4.8-7.4 4.6-6.2 3.4-6.3 3.2-1.5 0.5-1.6 0.3h-1.6l-1.5-0.2-1.5-0.5-1.3-0.7-1.2-1-1.1-1.1-3.4-3.9-3.3-3-3.5-2.4-3.4-1.6 5.3-11.1 4.9-11 4.5-10.9 4.1-11 3.6-10.8 3.2-10.8 2.8-10.6 2.3-10.7 1.9-10.7 1.6-10.6 1-10.5 0.7-10.5 0.2-10.4-0.2-10.3-0.6-10.4-1.1-10.3-1.8-12.2-2.6-12.3-3-12.3-3.8-12-4.3-12.1-5-11.9-5.6-11.9-6.2-11.8-4.8-8.4-5.1-8.1-5.4-8-5.6-7.9-5.9-7.5-6.1-7.6-6.3-7.1-6.6-6.9-6.8-6.8-7-6.5-7.2-6.3-7.4-5.9-7.4-5.7-7.7-5.4-7.8-5.1-8-4.8-8-4.4-8.2-4.3-8.2-3.7-8.5-3.7-8.4-3.1-8.6-2.9-8.5-2.5-8.6-2.2-8.7-1.8-8.7-1.6-8.6-1-8.6-0.9-8.8-0.4-8.7-0.1-8.6 0.3-8.8 0.6-12.4 1.4-12.3 2.2-10.4 2.3-9.9 2.7-10.1 2.9-9.7 3.4-9.6 3.5-9.4 4-9.2 4.3-9 4.6-8.8 5-8.5 5.2-8.5 5.5-8.2 5.8-7.8 6.2-7.7 6.4-7.4 6.7-7.2 6.9-5.8 6.2-5.7 6.4-5.5 6.5-5.3 6.8-5 6.9-4.8 7-4.6 7.2-4.4 7.4-4.3 7.5-3.9 7.7-3.6 7.7-3.4 8-3.3 8.1-2.9 8.1-2.7 8.3-2.4 8.4-2.2 8.4-1.9 8.5-1.6 8.6-1.4 8.8-1.1 8.7-1 8.8-0.6 9-0.4 8.8v8.9l0.1 9 0.5 8.9 0.6 9.2 1 8.9 1.2 9.1 1.6 9 1.7 9 2.3 9.7 2.7 9.6 3.2 9.6 3.8 9.6 4.3 9.5 4.8 9.4 5.2 9.5 5.9 9.5 6.2 9.3 6.8 9.4 7.1 9.2 7.8 9.3 8.2 9.3 8.8 9.1 9.3 9.2 9.7 9.1-19.1-3-18.7-2.3-18.2-1.6-17.6-0.9-17.3-0.1-16.6 0.6-16.3 1.2-15.6 2.1-15.1 2.7-14.7 3.4-14.2 4.1-13.6 4.9-13.2 5.5-12.7 6.2-12.1 7.1-11.6 7.6-8.2 6-7.8 6.4-7.6 6.7-7.3 7.1-7 7.6-6.8 7.7-6.5 8.3-6.3 8.6-129.5 45.5-2.8 0.6-1.3-0.1-1.1-0.3-1-0.6-0.9-1-1.3-2.6-25.4-73.4-0.4-2.1v-2l0.4-2.1 0.9-1.9 1.3-1.7 1.6-1.4 1.8-1 2.1-0.6 1.7-0.1 16 0.1 15.7-0.2 15.3-0.5 15-0.8 14.6-1.3 14.3-1.5 13.9-1.9 13.6-2.1 4.3-1.1 3.7-1.5 2.8-2.1 2-2.4 1.4-3 0.6-3.4-0.3-3.9-0.9-4.4-1-2.6-1.1-2.7-2-3.3-2.3-3-2.6-2.8-3.1-2.7-3.5-2.4-3.7-2.2-4.4-2.1-4.6-1.8-2.5-0.7-2.5-0.5-2.6-0.1h-2.5l-130.2 6.9-2.9-0.2-1.2-0.5-1.1-0.6-0.8-1-0.8-1.1-0.8-2.9-10.2-73.8v-2l0.4-1.8 0.7-1.8 1.2-1.5 1.5-1.3 1.7-0.9 1.8-0.4h1.9l1.8 0.3 22.7 7.1 22.3 6.2 21.5 5.3 20.8 4.6 20.2 3.8 19.7 2.9 18.9 2.1 18.3 1.3 4.5-0.1 4.1-0.6 3.7-1.3 3.4-1.8 2.9-2.4 2.4-2.9 2.2-3.5 1.7-4.2 0.5-1.9 0.2-1.8-0.2-2.2-0.6-2.2-1-2.1-1.4-2.1-1.9-2.2-2.3-2.1-2.6-2.2-3.1-2.2-7.4-4.2-9-4.4-10.6-4.4-12.4-4.3-14.8-4.5-10.8-2.7-11.1-2.3-124.9-22.9-2.1-0.8-1.7-1.3-1.1-2-0.6-2-2-31.9-1.5-31.9-1-31.6-0.3-31.5 0.2-31.4 0.9-31.2 1.4-31.1 2-31 1.9-22.3 2.6-22.5 3-22.5 3.6-22.6 4.3-23 4.8-22.8 5.4-22.9 5.9-23 6.6-23.1 7-22.9 7.7-23.2 8.2-22.9 8.8-23.1 9.2-22.9 9.8-23 10.2-22.7 11-22.8 11.2-22.6 11.8-22.6 12.4-22.2 12.7-22.2 13.3-21.9 13.7-21.7 14.1-21.5 14.6-21.1 14.9-20.9 15.3-20.5 15.8-20.2 16-19.9 16.4-19.4 16.7-19.1 17-18.7 17.6-18.3 18.7-18.4 19.6-18.4 20.6-18.3 21.6-18.3 22.6-18.2 23.7-18.4 24.6-18.2 6.2-4.7 6-5 5.7-5.1 5.4-5.5 2.9-3.1 2.2-3.1 1.7-3.2 1-3.7 0.1-3.7-0.5-3.7-1.2-3.5-1.8-3.3-2.4-2.8-15.8-14.8-15.8-14.5-15.9-14.1-16-13.8-16-13.4-16.2-13-16.3-12.8-16.3-12.2-14.5-10.3-15.2-10.1-15.6-9.7-15.9-9.1-16.2-8.5-16.2-8.1-16.2-7.1-16-6.4-15.7-5.8-15.3-4.8-15-4-14.8-3.3-14.4-2.4-13.8-1.6-13.5-0.9h-13l-4.7 0.5-4.5 1-3 1.1-3 1.2-2.9 1.7-2.8 1.8-2.8 2.2-2.5 2.4-2.6 2.7-2.3 2.9-2.3 3.3-2 3.4-3.8 7.4-3.1 8.3-2.4 8.6-3.2 16.1-3.2 16.2-2.8 16.1-2.4 16.2-2.3 16.1-2.1 16.2-1.7 16.1-1.6 16-1.2 16.2-0.9 16-0.8 16.2-0.5 16-0.1 16v16l0.4 16.1 0.5 16 1.5 26.1 2.2 26.2 2.9 26.1 3.6 26 4.3 26.1 5 26 5.7 26 6.3 25.9 1.3 6.2 0.6 6.3v6.5l-0.8 6.4-1.3 6.3-1.8 6.2-2.6 5.7-3 5.4-12.2 19.5-11.4 19.3-10.4 19.3-9.7 19.2-0.7 1-1.5 0.8h-1.7l-1.5-0.8-0.8-1.4-7.5-21.7-6.7-22.2-6-23.1-5.2-23.5-3.6-18.6-3.3-18.7-3.2-18.6-2.8-18.6-2.5-18.3-2.2-18.4-1.9-18.4-1.8-18.3-1.4-18.2-1.2-18.2-0.8-18-0.7-18.1-0.3-17.8v-17.9l0.2-17.7 0.5-17.6 0.9-17.5 1.1-17.5 1.3-17.2 1.6-17.2 1.8-17 2.2-17 2.4-16.8 2.8-16.7 2.9-16.7 3.3-16.5 3.6-16.3 3.8-16.2 4.1-16.1 4.4-16 4.6-15.8 4.9-15.6 3.6-10.7 4-10.3 4.3-9.7 4.4-9.4 4.8-8.8 5.1-8.4 5.3-8 5.6-7.4 6-6.7 6.8-6.5 7.7-5.9 8.5-5.7 1.2 2.2 2.2 2.6 2.7 2.5 3.4 2 4 1.6 4.5 1.2 5.1 1 5.7 0.5 6.3 0.1h11.9l10 0.3 8.1 0.4 6.2 0.8 18.4 3.1 18.4 3.4 18.2 3.7 18.1 3.9 18.1 4.2 17.8 4.4 17.7 4.6 17.6 5 17.5 5.1 17.4 5.4 17.2 5.6 17.1 6 17 6.1 16.9 6.4 16.8 6.6 16.6 7 10.3 4.7 11.2 5.6 11.9 6.5 16.1 9.5 17.3 10 12.8 7 15.6 8.5 14.7 8.9 14 9.2 13.3 9.6 7.4 5.4 7.5 5.3 7.9 5.1 8.3 4.8 8.3 4.8 8.8 4.4 9 4.4 9.2 4.1 3.3 1h3l2.7-0.7 2.4-1.5 1.8-1.9 1.2-2.7 0.8-3.4 0.2-4.1 8.6 7.5 8.5 7.8 8.2 8 8 8.1 4.3 4.4 4.4 3.6 4.3 3.2 4.1 2.4 4.1 2 4.1 1.3 4.1 0.6 4 0.1 4.5-0.3 4.6-0.6 4.7-1 5-1.3 5.1-1.7 5.2-2 10.9-4.8 2.3 20.7 3.2 20.5 3.9 20.1 4.8 19.5 5.6 19.3 6.4 18.8 7.3 18.4 8.2 18.1 7.4 14.8 8 14.4 2.5 4.1 2.9 4.3 3.2 4 3.4 4.1 3.6 3.8 3.7 3.6 3.9 3.3 3.9 3 3.8 2.6 3.8 2.4 3.9 2 3.8 1.7 3.7 1.2 3.7 0.8 3.5 0.6 3.5 0.2 6.2-0.3 5.7-0.6 5.5-1 5.1-1.3 4.6-1.8 4.3-2.2 3.9-2.6 3.7-2.9 2.8-2.9 2.4-3.3 2.3-3.4 1.9-3.8 1.7-4.2 1.5-4.3 1.1-4.8 0.8-5 1.7-12.9 1.4-13.4 1.1-13.5 0.8-13.7 0.6-14 0.4-14.2v-14.4l-0.3-14.6-0.4-14.9-0.8-15.1-1.1-15.3-1.2-15.6-3.4-31.8-4.5-32.7 92.7-21.4 2.4 36.8 2.8 36.6 3 36 3.4 35.8 1.6 14 2.1 14.3 2.4 13.9 2.7 13.4 2.9 12.6 3.3 12 3.5 11 3.7 10.3 4 9.4 4.2 8.5 4.3 7.5 4.7 6.7 4.7 5.8 5 4.9 5.2 4 5.3 3.1 5.4 2.5 4.9 1.8 5 1.3 4.8 0.9 4.7 0.3h4.5l4.4-0.6 4.1-1.1 4.4-1.8 4.1-2.3 3.7-2.8 3.9-3.5 3.6-4 3.4-4.6 3-5.2 3-5.8 2.7-6.3 2.5-6.8 2.5-7.4 2-8 2-8.5 1.7-9 1.4-9.6 1.4-10 3.2-31.5 2.6-30.4 1.8-29.5 1.1-28.6 0.4-27.5-0.4-26.6-1.1-25.6-1.8-24.7 96.6-2.7 0.5 39.5 1.1 39.5 1.7 39.2 2.4 39.1 2 22.9 2.7 21.4 3.2 19.8 4 18.3 2.2 8.5 2.3 8.1 2.6 7.9 2.8 7.4 2.9 6.9 3 6.7 3.2 6.3 3.4 5.9 2.3 3.1 2.9 2.7 3.3 2.1 3.6 1.4 6.7 1.7 6.3 1.1 6.2 0.6 5.8 0.1 5.7-0.3 5.4-0.9 5.3-1.4 4.9-2 5.1-2.5 4.6-3.2 4.4-3.5 4.2-4.3 4-4.8 3.7-5.4 3.5-5.8 3.1-6.4 3.1-7.1 2.6-7.4 2.6-8.1 2.3-8.7 2.1-9.1 1.9-10.1 1.8-10.9 2-13.2 5.7-44.5 4.7-45.1 3.9-45.6 3-46.3 88.6 15.7-2.9 29-1.9 28.2-1.1 27.3-0.1 26.3 0.7 25.4 1.7 24.5 1.2 11.9 1.4 11.7 1.7 11.5 1.8 11.2 0.9 4.5 1.4 4.6 1.8 4.7 2.1 5.1 2.6 5.3 3 5.3 7.1 11.4 3 4.1 3.2 3.7 3.5 3.3 3.7 2.7 3.9 2.6 4 1.9 4.2 1.6 4.3 1.1 3.8 0.5 3.9 0.2 3.9-0.1 3.9-0.6 3.9-0.8 3.7-1.3 3.8-1.5 3.7-2 3.4-2.2 3.2-2.4 3.2-2.8 3-3.1 2.8-3.3 2.6-3.5 2.3-3.8 2-4 4.6-10 4.2-9.8 3.7-9.8 3.3-9.6 2.9-9.6 2.5-9.5 2-9.3 1.6-9.3 8.5-58.7 8-62.4 54.9 19 3.1 0.9 3.1 0.4 2.9-0.2 2.5-0.7 2.6-1.2 2.2-1.7 2-2.2 2-2.8 7.3-11.5 7.9-11.1 8.3-10.4 9-10.1 10-9.9 10.8-10 11.8-9.9 13.4-10.7 15.8-11.9 23.1-16.8 6.7-4.8 15.6-11.1 17.9-12 19.4-12.4 20.1-12.4 20.6-12 20.5-11.6 20.7-11.3 20.6-10.7 19.7-9.9 19.6-9.3 19.2-8.6 18.8-8 18.2-7.2 17.8-6.7 17.3-5.8 16.7-5.2 15.8-4.4 15.2-3.8 14.7-3 14.1-2.3 13.6-1.7 13-1 12.3-0.3 11.8 0.3 11.3 1.1 10.6 1.7 10.2 2.5 9.4 3 8.9 3.8 8.3 4.3 7.6 5.1 7.2 5.8 6.3 6.4 5.9 7.1 7.9 11.1 7.5 11.6 7.1 12 6.7 12.4 6.3 13 5.8 13.4 5.3 13.8 5 14.3 9.3 29.5 8.4 29.7 7.7 29.6 6.8 29.7 6.1 29.9 5.1 29.9 4.3 29.9 3.6 30.2 2 21.7 1.7 21.8 1.1 21.9 0.9 21.8 0.2 22v22l-0.6 22-0.9 22.1-1.4 22.1-1.7 22.1-2.3 22.2-2.7 22.2-3 22.3-3.5 22.4-3.9 22.3-4.4 22.5-0.8 3.1-1 2.3-1.1 1.5-1.3 0.7-1.5-0.1-1.6-1-1.8-1.8-1.9-2.5-44.7-66.7-2.4-4-2-4.1-1.7-4.4-1.1-4.5-0.8-4.6-0.3-4.7 0.1-4.7 0.7-4.6 3-18.1 2.8-17.9 2.4-18 2.1-17.8 1.8-17.9 1.4-17.8 1.1-17.9 0.8-17.7 0.5-17.7 0.1-17.8-0.3-17.7-0.5-17.6-0.8-17.5-1.2-17.6-1.6-17.5-1.8-17.4-2.7-20.7-3-20.6-3.5-20.5-4-20.5-4.5-20.4-5-20.4-5.5-20.4-5.8-20.3-1.6-5.4-4-13.3-3.4-9.6-3.4-8.3-3.8-7.1-4.1-6.3-4.5-5.4-4.8-4.3-2.7-1.9-2.8-1.5-5.6-2.6-6-1.7-6.7-1-7.1-0.1-9.6 0.6-9.5 1-9.8 1.3-9.7 1.7-9.9 2.2-10 2.4-10.1 3-10 3.1-10.2 3.7-10.4 4-10.3 4.3-10.4 4.8-10.5 5.1-10.5 5.4-10.6 5.9-10.5 6.1-10.8 6.7-10.9 6.9-10.6 7.3-10.8 7.7-10.8 8-10.9 8.4-10.6 8.6-10.6 8.9-10.7 9.2-10.4 9.6-10.5 9.7-10.3 10.1-10.2 10.2-9.9 10.3-9.7 10.5-9.5 10.7-0.4 0.5-3.4 4.1-3.3 4.3-3 4.5-2.8 4.6-2.5 4.8-2.5 5-2.1 5.1-2.1 5.4-0.7 2.5-0.3 2.7 0.1 2.5 0.5 2.6 1 2.5 1.2 2.3 1.6 2.1 1.9 1.8 14 10.9 15.5 11.5 17.6 12 24.4 16 30.5 19.9 11.5 8 10.4 7.4 19.6 14.8 19.2 15.1 19.1 15.7 18.5 15.9 18.3 16.4 17.7 16.6 17.6 17.1 17 17.5 16.7 17.8 16.3 18.1 15.9 18.6 15.5 18.9 15.2 19.2 14.7 19.6 14.2 19.8 13.7 20 12.2 18.4 11.6 18.6 11.3 18.8 10.9 19.1 10.6 19.2 10.2 19.4 9.8 19.7 9.5 19.8 9.1 20 8.6 20.3 8.3 20.4 7.9 20.5 7.4 20.6 7.2 20.9 6.5 21 6.3 21.1 5.8 21.1 5.5 21.4 5 21.5 4.6 21.6 4.3 21.6 3.7 21.8 3.4 21.8 2.9 22 2.6 22 2 22 1.7 22 1.3 22.1 0.8 22.2 0.5 22.4v22.2l-0.5 22.2-0.5 4.9-1 4.2-1.6 3.7-2.4 3.1-2.9 2.6-3.5 2-4.1 1.5-4.8 0.8-24.4 3.2-23.6 3.5-23.1 4-22.2 4.5-21.6 4.9-20.8 5.2-20.1 5.7-19.5 6.1-5.8 2.1-5.3 2.5-4.9 2.6-4.5 3-3.9 3.1-3.4 3.4-2.9 3.8-2.4 4-1.6 3.4-1.3 3.6-1 3.8-0.6 4-0.4 4.1v4.4l0.4 4.5 0.6 4.6 0.5 2.1 0.7 1.9 0.9 1.8 1.2 1.8 1.3 1.6 1.5 1.5 1.7 1.2 1.8 1.1 5.2 2.3 5.2 1.7 5.3 1 5.2 0.2 5.2-0.2 5.2-1 5.2-1.7 5.3-2.3 11.7-5.7 12.1-5.4 12.1-4.9 12.1-4.6 14-4.7 14-4.1 14.2-3.8 14.3-3.1 14.6-2.8 14.7-2.2 14.9-1.8 15-1.2h1.9l1.5 0.2 1.4 0.6 0.9 0.8 0.9 1 0.5 1.4 0.2 1.6v1.8l-6.3 75-0.4 2.4-0.6 2.1-0.9 1.7-1.2 1.6-1.6 1.2-1.8 0.8-2.2 0.7-2.5 0.3-14.8 0.6-14.8 0.3-14.8-0.3-14.9-0.6-15.1-1.1-15.2-1.6-15.1-2-15.2-2.4-6.2-0.9-5.9-0.5h-5.6l-5.4 0.5-5.2 1-4.8 1.3-4.5 1.8-4.4 2.3-2.8 1.9-2.7 1.9-5.1 4.7-4.5 5.5-4 6.4-0.9 2.2-0.9 2.2-0.5 2.3-0.3 2.3v2.4l0.2 2.4 0.5 2.3 0.7 2.3 1.1 2.2 1.2 1.9 1.5 1.9 1.6 1.7 1.8 1.5 1.9 1.3 2.1 1.1 2.3 0.9 4 0.8 138.9 16.4 1.6 0.3 1.3 0.4 1 0.8 0.7 0.8 0.4 1 0.1 1.2-0.5 2.8-25 75.7-0.5 1.3-0.8 0.9-0.9 0.9-1.1 0.7-1.2 0.4-1.2 0.2h-1.4l-1.2-0.3z"/>
		<path id="Layer" class="s15" d="m3356.9 2179.8l-0.6 2.9-0.9 2.9-1.1 3-1.5 3-3.9 5.9-4.8 6-7.6 9-3.1 4.3-2.8 4.3-2.3 4-2 3.9-1.4 3.9-1.1 3.6-1.8 6.3-2 4.6-0.9 1.7-1.1 1.2-1.1 0.8-1.1 0.3-1.2-0.1-1.3-0.6-1.2-1-1.3-1.4-2.7-4.3-2.9-5.9-3.8-9.5-3.2-9.7-1.7-4.4-2.5-4.7-3.1-4.7-3.7-4.9-4-4.6-4.5-4.4-4.6-4-4.7-3.4-4.6-2.9-4.5-2.3-4.6-1.8-4.4-1.2-4.1-0.8-4.1-0.1-4.1 0.5-3.7 1.1-3.2 1.3-3.1 2-2.8 2.3-2.8 2.9-0.9 1.2-1.2 2.2-0.7 2.5-0.1 2.7 0.3 2.6 0.9 2.4 1.4 2.2 1.9 1.8 2.1 1.5 3.4 1.9 3 2.2 2.5 2.4 2.2 2.8 2.2 3.8 1.6 4.2 5.1 19.6 4.7 21.2 4.2 22.7 3.9 24.3 0.1 2.7-0.7 2.4-1.2 1.9-1.9 1.7-2.3 1.5-2.5 1-2.9 0.4-3-0.1-2.3-0.5-2.1-0.9-1.8-1.5-1.5-1.9-2.5-4-2.1-4.2-1.9-4.1-1.6-4-1.2-4.1-0.9-4.2-0.6-4.1-0.3-4.1v-4l0.3-4 0.6-4 0.9-4 1-4.8 0.2-5.7-0.4-5.6-1.2-5.5-1.9-5.4-2.7-5.2-3.4-4.9-3.9-4.5-4.5-4-2.2-1.2-1.7-0.3-1.8 0.1-1.7 0.5-1.4 0.8-1.4 1.2-0.9 1.5-0.6 1.6-0.3 1.8v24.9l-0.2 4.2-0.5 3.3-1 2.1-0.6 0.7-0.7 0.4-0.8 0.1-0.9-0.1-2.1-1.1-2.4-2.3-2.8-3.3-18.5-23.2-18.3-21.6-3.2-3.2-3.2-2.5-3.4-2.1-3.7-1.4-4.8-1h-5.1-0.6l-4.3 1-4.1 1.7-3.5 2.5-3.2 3.2-2.3 3.6-1.6 4.1-0.7 4.4 0.1 4.4 5.1 37.6 0.1 2.3-0.2 1.8-0.5 1.6-0.8 1.1-1.2 0.7-1.6 0.3h-1.8l-2.2-0.5-3.3-1.2-1.2-1-1.2-1.1-0.9-1.2-0.7-1.3-0.9-3.3-0.8-3.7-1.6-3-2.2-2.4-2.7-2.1-6.9-3.6-6.9-2.8-7-2.1-7.2-1.1-3.9-0.2h-4l-3.9 0.2-4 0.5-2.8 0.1-2.8-0.3-2.6-1-2.5-1.5-35.5-26.8 4.8-10.6 5.4-10 5.8-9.4 6.2-8.8 6.7-8.2 7.1-7.6 7.7-7.1 8-6.3 2-1.6 12.3-8.2 12.9-7.4 13.1-6.7 13.5-5.7 13.8-4.9 14.1-3.8 14.2-3.1 14.4-2 14.6-1.3 14.5-0.1 14.5 0.8 14.4 1.5 14.3 2.7 14.1 3.5 13.7 4.4 13.5 5.3 11.6 5.6 11.4 6.2 11.1 6.8 10.7 7.7 10 8 9.9 8.7 9.2 9.4z"/>
		<path id="Layer" class="s15" d="m2581.4 2329.4l12.9 24.6 12.2 25 11.7 25.8 11 26.1 10.4 26.8 9.8 27.3 9.1 28.1 8.6 28.5 8 29.4 7.4 29.8 6.9 31 6.5 31.7 5.8 32.6 5.5 34 4.8 35.1 4.6 36.7 2.1 20.1 1.6 20.6 1.2 20.8 0.6 21.3 0.2 21.5-0.2 21.9-0.7 22.3-1.2 22.5-0.3 2.6-0.3 1.8-0.6 1.2-0.9 0.6-1-0.1-1.1-0.7-1.3-1.5-1.5-2-6.6-9.4-7.4-8.8-7.8-7.9-4-3.6-4-3.1-4.8-3.5-9.4-6.7-9.9-6.4-9.8-6.2-10.2-6-10.2-5.7-10.6-5.3-10.6-5.3-10.8-4.8-11.2-4.6-11.2-4.4-11.5-4-11.7-3.9-11.7-3.5-12.1-3.3-12.2-3-12.4-2.8-10.8 1.4-4.4 0.3-3.7-0.1-3.2-0.4-2.4-0.8-1.7-1.1-1.2-1.4-0.4-1.2-0.1-1.3 0.2-1.5 0.5-1.6 1.8-3.6 3.1-4.2 8.1-3.9 8-4.5 8-5.1 8-5.6 7.9-6.2 7.8-6.7 7.8-7.4 7.7-7.9 7.7-8.4 7.5-9.1 7.5-9.5 7.4-10.1 7.4-10.8 7.4-11.3 7.3-11.9 7.2-12.4 3.5-7 2.3-5.9 1.8-6 1.4-6.4 0.9-6.4 0.4-6.7v-6.9l-0.4-7-0.9-7.3-0.6-3.3-0.9-3.3-0.9-3-1.4-2.9-3.3-6.1-1.7-2.3-1.7-2.1-1.7-1.5-1.8-1.2-1.8-0.8-1.8-0.3h-2l-1.9 0.4-2 0.9-2 1.2-2.1 1.7-2 2.1-4.3 5.4-6.2 9-17.3 24.8-13.3 18.1-12.5 16-12 14-6.2 6.5-6.1 6.3-6 5.7-6 5.5-6.1 5.1-6 4.7-6.2 4.5-6.1 4-7.9 4.9-8 4.6-14.2 7.5-14.4 6.9-14.9 6.2-15.1 5.6-15.6 5-15.9 4.4-16.1 3.7-16.7 3.1h-2.9l-2.5-0.5-2.3-0.7-2.1-1.3-1.7-1.4-1.3-1.7-1.2-2.2-1-2.4-0.7-2.8-0.4-3.1-0.2-3.5v-3.7-2.5l-0.4-2-0.7-1.5-1-1-1.3-0.4h-1.7l-2 0.4-2.3 1-1.4 0.9-1.4 1.1-1.6 1.9-1.2 2.3-1.7 3-2.2 2.6-2.9 2.1-3.4 1.3-11.3 2.8-11.4 2-11.4 1.6-11.4 0.9-8.7 0.1-8.8-0.1-8.8-0.5-8.8-1 18.1-3.1 18-2.2 10.9-1.5 9.3-1.9 4.2-1.2 3.7-1.4 3.3-1.4 3.1-1.6 7-4.7 6.6-5.4 4.6-4.5 4.2-5 4-5.4 3.5-5.7 1.5-2 1.8-1.4 2.2-0.9 2.4-0.2 1.5 0.2 1.2 0.6 1.1 1 1.6 2.3 0.9 2.6 0.4 2.8-0.4 2.9-1.9 10.8-1.2 11.7 0.1 2.2 0.5 2.2 1 2.1 1.3 1.8 1.7 1.5 1.9 1.1 2.2 0.7 2.2 0.2h0.5l8.6-0.6 6.3-0.8 6.3-1.1 6.2-1.6 6.2-1.8 6.1-2.2 6.1-2.6 6-2.9 6.1-3.3 2.8-1.9 2.6-2.2 1.5-1.9 1.5-2.2 1.8-2.9 2.3-2.9 2.4-2.8 3-2.8 6.9-5.4 10.1-6.5 9.2-6.1 3.1-2.4 2.7-2.3 27.2-26.4 27.8-27.5 28.2-28.8 28.6-30.1 2.7-3 2.3-3.1 2.1-3 1.8-3.2 1.4-3.1 1.1-3.2 0.9-3.1 0.5-3.3 0.2-3.3-0.1-3.2-0.4-3.3-0.7-3.3-1.7-6.2-1.9-6-2.2-5.9-2.5-5.7-2.6-5.7-3.1-5.6-3.1-5.4-3.5-5.3-3.8-5.2-4-5.1-4.3-5-4.5-4.7-4.8-4.8-5.1-4.6-5.2-4.5-5.6-4.3-5.8-4.4-6.1-4.1-13-7.9-10.8-6-10.8-5.8-10.8-5.3-10.8-5.3-10.9-4.8-10.9-4.6-10.9-4.4-10.9-4-10.9-3.8-11-3.4-10.9-3.1-11-2.9-11-2.7-11-2.3-11.1-2.1-11-1.8-20.9-2.9-21.1-2.6-21-2.3-21.3-1.8-21.2-1.6-21.5-1.1-21.4-0.8-21.6-0.5 22.2-35.7 7.3 5.6 3.4 2.2 3.2 1.7 2.9 1.2 2.8 0.8 2.5 0.5h2.5l31.4-3.1 31.5-3.7 31.2-4.2 31.2-4.8 21.8-3.6 21.9-3.9 21.7-4.1 21.7-4.4 15.3-2.9 16.9-2.6 18.8-2.4 25.9-2.7 33.6-3.7 24.5-3.4 6.1-1.2 6.6-1.7 6.6-2.3 7.2-2.8 13.1-5.2z"/>
		<path id="Layer" class="s15" d="m2839.1 2977l23.8-15.5 25.2-16.1 18.1-12.3 16-11.5 14.1-10.8 12.8-10.9 11.3-10.7 10-10.6 4.5-5.3 4.1-5.4 9-12.6 8.1-13.1 7.3-13.2 6.6-13.8 3.1-7.4 2.9-7.5 2.7-7.8 2.4-7.6 2.3-8 2-8 1.8-8.2 1.6-8.1 2.5-16.9 1.6-17.3 0.6-18-0.1-18.5-1-18.9-1.9-19.5-2.7-20.4-3.6-21.5-4.4-22.5-5.5-24.1-6.5-26.4-8.2-30.6 1-8.6 1.3-8.3 1.9-7.9 2.3-7.6 2.8-7.2 3.2-6.9 3.8-6.5 4.3-6.2 4.6-5.9 5.2-5.5 5.7-5.3 6.1-4.8 14.9-10.5 15.1-9.7 15.2-9 15.6-8.1 15.8-7.5 16-6.7 16.1-6.1 16.4-5.2 15.6-4.2 15.6-3.7 15.9-2.9 16.2-2.3 9.3-1 9.4-0.5 9.4-0.1 9.6 0.3 9.6 0.6 9.6 1.1 9.7 1.4 9.7 2 9.9 2.3 9.9 2.6 10 3.2 9.9 3.5 10.1 3.9 10.1 4.4 10.2 4.7 10.2 5.1 3.4 2.2 3.2 2.5 2.7 3.2 2.6 3.5 2.1 4 1.5 4.3 1.2 4.5 0.7 4.5 1 16.8 0.9 18 0.5 19.2 0.1 20.4-0.1 21.5-0.4 22.7-0.7 23.9-1.1 25.1-1.2 20.1-1.7 19.7-2.2 19.5-2.7 19-3.2 18.7-3.8 18.5-4.4 18.2-4.7 17.7-5.4 17.5-5.9 17.2-6.3 16.8-6.9 16.6-7.6 16.2-7.9 15.9-8.5 15.5-8.9 15.3-6 9.5-6.2 9.4-6.4 9.3-6.7 9.1-6.8 9.1-7 8.8-7.3 8.8-7.5 8.6-7.7 8.5-7.9 8.4-16.4 16.4-17.3 15.8-18.1 15.3-8.6 6.6-8.7 6.3-8.7 5.9-8.9 5.6-9 5.1-9.1 4.6-9.1 4.3-9.2 3.9-15 6.3-24 10.8-36.4 16.5-14.4 6.2-13.4 5.4-12.7 4.8-12.2 4.3-11.3 3.6-10.6 3.2-10.4 2.5-9.7 2-9.1 1.2-8.5 0.7-7.9 0.1-7.1-0.4-6.8-1.1-6.1-1.7-7.5-3.1-7.1-3.5-6.5-4.1-6.1-4.8-4-3.8-3.8-4.2-3.5-4.5-3.3-4.7-2.9-5.1-2.8-5.5-2.3-5.7-2.2-6-6.9-20.8-6.3-17.8-5.6-14.8z"/>
		<path id="Layer" class="s15" d="m743 2389.8l53.3 6 53.6 5.1 53.8 4.2 54.2 3.4 54.3 2.6 54.7 1.7 55 0.7h55.1l4.7 5.6 4.8 6.3 4.7 7.1 4.6 7.8 4.5 8.8 4.5 9.3 4.5 10.2 4.4 11.1-7.7-5.8-7.4-5.3-6.9-4.5-6.7-4-6.4-3.2-6-2.6-5.7-2.1-5.3-1.3-8.4-1.3-9.2-1-10.1-0.6h-10.9l-11.8 0.4-12.6 0.7-13.6 1.2-14.4 1.7-25.5 3.5-25.2 4.3-25.1 4.8-25 5.6-17.4 4.3-17.4 4.6-17.2 5-17.1 5.2-11.4 3.9-11.2 4.3-10.8 4.8-10.3 5.2-10.1 5.7-9.7 6.1-9.4 6.4-8.9 7-9.8 8.4-9.3 9-8.7 9.6-8.4 10.1-8 10.6-7.4 11.2-7.1 11.8-6.5 12.4-1.6 3.9-1 4-0.4 4.1 0.4 4.2 1 4.1 1.4 3.8 2.1 3.6 2.7 3.2 10.5 10.5 12.2 10.8 13.7 11.3 19.3 14.9 17.1 13.2 12.4 10 10.9 9.5 9.7 8.9 20.9 20 20 18 19.2 16.1 18.2 14.2 5.4 3.7 6.5 4.3 17 9.9 22 11.9 27.2 13.9-16.4-2.3-16-3.1-15.8-3.5-15.4-4.2-15.2-4.9-14.7-5.6-14.5-6-14.1-6.8-11.9-6.4-11.6-6.8-11.4-7.2-11.1-7.7-8.4-6.3-8.5-6.9-8.5-7.7-8.8-8.2-8.7-8.9-9.5-9.9-24-26.9-22.9-25.7-9-9.6-8.4-8.5-2.2-1.7-2.4-1.2-2.7-0.6h-2.7l-2.6 0.5-2.5 1.1-2.1 1.7-1.9 2-1.1 2-2.3 6.3-1.4 6.8-0.8 7.1 0.2 7.4 0.9 7.6 1.9 7.7 2.5 7.8 3.3 7.7 6.1 11.9 6.4 11.5 6.8 11.3 7.2 10.8 7.5 10.5 7.9 10.2 8.2 9.9 8.6 9.5 8.3 8.3 8.6 8.2 8.9 7.9 9.2 7.5 9.5 7.1 9.8 7.1 10.2 6.7 10.5 6.3 0.8 0.7 0.4 0.7-0.3 0.6-0.7 0.6-2.6 1.4-4.4 1.2-6.2 1.3-16.8 1.2-16.4 1.9-16 2.6-15.7 3.4-15.4 4-15 4.9-14.7 5.6-14.4 6.2-11.5 5.7-11.3 6.2-11.1 6.8-10.9 7.1-10.6 7.7-10.4 8.1-10.2 8.8-9.9 9.1-2 1.4-0.7 0.3-0.6-0.2-0.5-0.3-0.3-0.8-0.4-2.3-0.4-21.7v-21.7l0.4-21.9 0.6-21.8 1.1-22 1.5-22 1.7-22.1 2.1-22.2 2.5-22.2 2.8-22.2 3.1-22.5 3.5-22.3 3.9-22.6 4.3-22.6 4.6-22.6 5-22.7 7.5-31.4 4.1-15.2 4.1-15 4.5-14.7 4.5-14.6 4.9-14.2 5-13.8 5.1-13.8 5.2-13.3 5.6-13.1 5.6-12.9 5.9-12.5 5.9-12.3 6.2-12z"/>
		<path id="Layer" class="s15" d="m2551.7 3439.1l-0.5-0.4-1.5-1-1.8-0.5-1.3-0.4-1-0.8-0.4-1 0.1-1.3 0.3-3.5-0.3-1-0.4-0.6-0.8-0.1-1.1 0.3-2.8 2.1-1.7 1.1-1.7 0.5-1.8-0.2-1.7-0.8-2.8-1.5-2.8-0.9-2.6-0.4-2.5 0.2-2.8 0.9-2.5 1.6-2.6 2.4-2.3 3-2.3 2.8-2.6 2.3-3.1 1.6-3.5 1.1-77.4 14.6-11.7 1.8-11.5 1-11.4 0.2-11.5-0.6-6.3-0.6-6.3-1-6.4-1.1-6.2-1.3-12.6-3.5-12.4-4.5-12.4-5.5-12.4-6.5-12.1-7.4-12.2-8.4-7.5-5.7-7.2-5.7-6.4-5.5-6.2-5.6-5.6-5.4-5.2-5.5-5-5.6-4.3-5.6-4.2-5.6-3.6-5.5-3.3-5.8-2.9-5.8-2.5-5.7-2.2-5.8-1.9-6-1.3-6-1.4-8.9-0.7-8.9-0.2-3.4-0.7-3.2-1-3.3-1.5-3.2-0.9-2-1.7-4-1.2-4-1-4.3-0.6-4.5-0.3-4.5v-4.7l0.4-4.9 0.7-4.9 3.8-15.2 4-14.8 4.4-14.6 4.7-14.3 5.1-14.1 5.3-13.9 5.9-13.4 5.9-13.3 6.5-12.9 6.6-12.8 7.1-12.4 7.4-12.2 7.8-11.9 8-11.7 8.3-11.4 8.8-11.1 7.9-9.5 8.2-9.4 8.5-9.2 8.8-9 9.7-9.2 10.1-8.7 10.2-7.8 10.4-7.2 10.8-6.4 10.9-5.7 11.3-5.1 11.4-4.4 9.7-3 10-2.7 10.1-2.1 10.2-1.7 10.4-1.1 10.6-0.6 10.7-0.2 10.9 0.3 13.3 1.1 12.9 1.7 12.5 2.6 12 3 11.9 3.9 11.3 4.5 11.1 5.2 10.4 5.8 7.1 4.5 6.8 4.8 6.6 5.1 6.5 5.4 6.3 5.7 5.9 6 5.9 6.4 5.5 6.6 5.5 7 5.2 7.3 5 7.5 4.7 7.9 4.6 8.3 4.4 8.3 4.1 8.8 3.9 9.1 2.9 7.5 2.6 7.5 2.9 9.8 2.4 9.9 2 10.1 1.4 10.1 1 10.4 0.5 10.5v10.5l-0.5 10.7-1 10.8-1.4 10.9-2 11-2.4 11-2.8 11.1-3.4 11.2-3.9 11.1-4.2 11.3-4.9 11.4-5.3 11.4-5.7 11.3-6.2 11.4-6.7 11.2-7.2 11.3-7.4 10.9-7.9 10.9-8.2 10.7-8.5 10.6-8.9 10.2-9.2 9.9-9.3 9.7-9.8 9.3-9.8 8.9z"/>
		<path id="Layer" class="s15" d="m1132.2 3362.4l-7.7 7.7-7.6 7.2-7.8 6.8-7.7 6.5-7.9 5.9-7.9 5.5-7.9 5.1-8 4.6-8 4.3-8.2 3.7-8.1 3.4-8.1 2.9-8.3 2.5-8.3 2-8.3 1.7-8.4 1.1-10.6 0.9-10.5 0.2-11-0.4-10.8-0.8-11.6-1.2-11.7-1.8-11.5-2.4-11.4-2.9-11.6-3.2-11.4-3.8-11.3-4.3-11.4-4.8-11.1-5.2-11.3-5.9-11.2-6.2-11.2-6.7-11-7.3-11.1-7.7-11-8.2-10.9-8.8-15-12.8-14.2-13.4-13.4-13.7-12.7-14.2-11.9-14.6-11-15-10.3-15.6-9.6-15.9-6.9-13-6.6-13.1-6.8-15.4-6.1-15.6-5.3-15.7-4.5-16.1-3.3-13.9-2.8-14-2.2-14.3-1.5-14.3 4.6-8.8 4.8-8.5 5-8.2 5.1-7.9 5.3-7.7 5.5-7.4 5.6-7 5.8-6.8 6.1-6.6 6.1-6.3 6.3-5.9 6.5-5.7 6.6-5.5 6.9-5.2 6.9-4.9 7.2-4.6 11-6.3 11.5-5.5 11.5-4.5 11.9-3.6 7.6-1.9 7.7-1.5 7.7-1.1 7.8-0.8 8-0.4 7.9-0.1 8.2 0.2 8.1 0.7 8.1 1 8.2 1.3 8.2 1.7 8.3 2.1 8.2 2.3 8.3 2.8 8.2 3 8.2 3.6 8.3 3.7 8.2 4.2 8.1 4.5 8 4.7 8 5.1 7.9 5.3 7.8 5.7 7.5 6 7.4 6.2 7.2 6.4 7 6.7 6.8 6.9 6.6 7 6.2 7.3 5.9 7.3 5.7 7.5 16.8 23.6 7.8 11.8 7.5 11.6 7.2 11.6 6.9 11.5 6.4 11.5 6.2 11.4 5.8 11.3 5.6 11.3 5.1 11.2 4.9 11.2 4.5 11 4.1 11.1 3.8 10.9 3.5 10.9 2.9 10.7 2.7 11.4 2.3 12.3 1.9 13.1 1.6 13.8 1.3 14.7 1 15.5z"/>
	</g>
	<g id="Layer">
		<path id="Layer" class="s16" d="m2444.1 411.7l14.4-16 14.8-15.6 15.3-14.9 15.6-14.2 15.4-13.4 15.5-12.5 15.5-11.4 15.4-10.6 14.9-9.3 14.8-8.3 14.6-7.2 14.4-6.4 14.1-5.1 13.9-4.1 6.8-1.6 6.6-1.3 6.7-1.1 6.6-0.8 5.7-0.3 5.2 0.5 4.9 1.3 4.4 2 2.7 1.7 2.4 2 2.4 2.4 2.1 2.6 2 3.1 1.7 3.2 1.6 3.7 1.4 3.9 6.4 20.7 5.9 20.8 5.3 20.9 4.6 20.8 4.2 20.9 3.6 21 2.9 21.2 2.4 21.1 1.3 13.7 0.9 13.7 0.9 13.9 0.5 13.8 0.2 13.8 0.1 13.9-0.7 27.8-1.6 27.9-2.6 27.9-3.6 28.2-4.6 28.2-0.8 1.8-1.6 1.3-2 0.5-0.9-0.2-1-0.4-1.1-0.9-22.4-24.8-22-23.5-21.9-22.3-21.7-21-21.5-20-21.7-19.1-21.6-18-21.8-17.1-58.1-44.6-56.8-43.9-1.4-1.2-0.9-1.1-0.7-1.3-0.2-1.3v-1.3l0.4-1.3 0.7-1.4z"/>
		<path id="Layer" class="s16" d="m526.8 307.5l15.7 3.1 16.5 3.8 16.3 4.8 16 5.3 16.1 6.2 15.6 6.8 15.7 7.5 15.3 8.4 15 9 15 9.7 14.8 10.4 14.4 11.2 14.2 11.8 14 12.5 13.7 13.2 13.4 13.9 13.1 14.4 1.1 1.6 0.8 1.5 0.4 1.4 0.1 1.3-0.4 1.5-0.7 1.3-1.1 1.4-1.4 1.2-34.1 26.3-30.3 24.4-27.5 23.3-25.7 22.7-12.2 11.5-11.9 11.4-11.7 11.4-11.3 11.5-10.9 11.7-10.8 11.6-10.6 11.9-10.3 12-18.9 23.1-4.5 6-3.4 5.1-3.2 5.3-2.9 5.5-2.6 5.5-2.5 5.9-2.3 5.9-1.9 6.1-1.7 6.3-1 3.4-1.1 2.6-1.2 1.4-1.2 0.6-1.2-0.5-1.4-1.3-1.4-2.3-1.5-3.3-3.6-9.6-3.4-9.7-6.3-20-5.6-20.9-4.9-21.9-4.1-22.5-3.3-23.5-2.6-24.3-2-25-1.2-25.8-0.4-26.6 0.3-27.4 1.1-28.2 1.8-28.8 2.4-29.5 3.3-30 4-30.7 0.6-3.5 0.9-3.2 0.9-3 1.2-2.7 1.4-2.4 1.6-2.1 1.8-1.9 1.9-1.6 2.1-1.3 2.3-1.1 2.4-0.7 2.7-0.6 2.8-0.3h2.9z"/>
		<path id="Layer" class="s16" d="m2419.1 1693.8l3.3 2.9 3.4 2.5 3.2 1.7 3.6 1.2 4.3 0.7 4.6-0.1 5-0.7 7.1-1.9 7.6-1.8 5.6-0.8 11.9-0.8 11.6-0.2h11.6l11.4 0.2 11.2 0.8 11 0.9 10.8 1.4 10.8 1.7 10.6 1.9 10.3 2.3 10.3 2.7 10.1 3 9.8 3.4 9.9 3.7 9.6 4 9.3 4.4 7.8 3.8 7.6 4.2 7.5 4.3 7.5 4.5 7.2 4.9 7.2 5.1 7.2 5.2 6.9 5.6-6.1 2.9-5.3 3.2-4.8 3.4-4.1 3.5-3.5 3.7-2.9 3.9-2.2 4-1.6 4.4-1.1 5-0.1 4.1 0.5 4 1.2 3.9 1.8 3.8 2.4 3.2 3 2.8 3.4 2.3 3.7 1.7 66.1 23.8-24.2 90.7-22.9 20.3-23.8 20.6-7.2 5.9-7.4 5.6-7.7 5.2-7.7 4.9-8.2 4.7-8.3 4.3-8.7 4-8.7 3.8-9 3.4-9.1 3-9.3 2.8-9.5 2.5-9.8 2-9.7 1.8-10.1 1.4-10 1.1-10.3 0.7-10.3 0.5h-10.5l-10.4-0.4-10.4-0.6-10.4-1-10.5-1.3-10.3-1.7-10.5-2.1-10.3-2.4-10.1-2.7-10.1-3-9.8-3.3-9.7-3.6-9.5-4-9.3-4.3-1.4-0.7-5.9-3-5.8-3.3-5.6-3.5-5.6-3.9-5.3-4.1-5.4-4.3-5.1-4.6-5.1-4.9-4.8-5.1-4.8-5.3-4.7-5.6-4.5-5.9-4.4-6.1-4.3-6.4-8.2-13.5-2.8-5.1-2.4-5.2-2.3-5.3-1.9-5.3-1.7-5.2-1.4-5.4-1.2-5.3-0.8-5.5-0.6-5.5-0.4-5.6-0.1-5.7 0.2-5.6 0.5-5.9 0.7-5.7 1.1-5.8 1.4-5.8 3-10.7 3.9-10.7 4.5-10.7 5.3-10.6 6.1-10.6 6.8-10.7 7.6-10.6 8.3-10.5z"/>
		<path id="Layer" class="s16" d="m885.7 1753.8l108.3 51.4 0.8 6 0.9 6.1 1.4 6.2 1.6 6.2 1.8 6.3 2.2 6.4 5.2 13 6.7 15.8 4.8 13.4 3.3 10.9 1 4.5 0.6 4 0.5 5.9 0.2 6v5.8l-0.2 5.8-0.5 5.7-0.9 5.6-1.1 5.6-1.2 5.5-1.6 5.4-1.8 5.5-2.2 5.3-2.3 5.4-2.7 5.2-2.9 5.1-3.1 5.1-3.4 5-8 10.4-8.7 10.1-6.5 6.6-6.7 6.4-7 6.1-7.3 5.7-7.7 5.4-7.9 5.1-8.2 4.9-8.4 4.6-8.7 4.1-9 3.9-9.1 3.6-9.4 3.2-9.7 2.9-9.8 2.6-10.1 2.2-10.1 1.8-10.4 1.6-10.6 1.2-10.8 0.7-10.7 0.5h-10.9l-11-0.3-11-0.6-11-1.1-11-1.3-11-1.8-10.9-2.1-10.8-2.4-10.7-2.8-10.4-3.2-10.3-3.4-10.2-3.7-7.3-3.1-7.3-3.1-7.2-3.5-7-3.8-14.1-8.1-13.7-9.1-10.5-13.3-9.3-13.2-8.3-13.4-7.3-13.3-3.2-6.8-3.1-6.8-2.6-6.8-2.6-6.8-2.2-6.8-1.9-6.9-1.7-6.8-1.5-6.9 12.3-2.6 10.8-3 9.5-3.5 4.2-1.9 3.8-1.9 3.5-2.2 3.2-2.2 2.6-2.3 2.6-2.5 2-2.5 1.7-2.6 1.4-2.7 0.9-2.9 0.8-3.7 0.2-3.7-0.3-3.9-1-4.1-1.1-3.1-2.2-4.1-3.2-3.8-4-3.5-4.7-3-5.7-2.8-6.4-2.4-7.4-2-8.2-1.7 6.3-8.6 6.5-8.3 6.8-7.7 7-7.6 7.3-7.1 7.6-6.7 7.8-6.4 8.2-6 11.6-7.6 12.1-7.1 12.7-6.2 13.2-5.5 13.6-4.9 14.2-4.1 14.7-3.4 15.1-2.7 15.6-2.1 16.3-1.2 16.6-0.6 17.3 0.1 17.6 0.9 18.2 1.6 18.7 2.3z"/>
	</g>
	<g id="Layer">
		<path id="Layer" class="s17" d="m3356.9 2179.8l7.3 9.2 7.1 9.5 6.8 9.7 6.5 10.1 6.3 10.2 6 10.6 5.8 10.6 5.6 11.1 5.2 11.3 5 11.5 4.8 11.9 4.5 12 4.3 12.4 4 12.5 3.7 12.9 3.6 13.1 5.9 24.5 5.4 24.4 4.7 24.3 3.9 24.3 3.4 24 2.6 23.9 2.1 23.8 1.3 23.7 0.8 23.6v23.4l-0.6 23.3-1.4 23.2-1.9 23.1-2.6 22.8-3.2 22.8-3.9 22.7-0.9 4.4-4.6 22-5.2 21.7-5.8 21.2-6.5 20.9-7 20.7-7.7 20.2-8.2 19.9-8.8 19.6-9.4 19-10 18.7-10.5 18.4-11.2 17.8-11.7 17.5-12.2 17-12.8 16.6-13.4 16.1-12.7 14.3-13.1 13.9-13.6 13.6-14.1 13.3-14.4 12.6-14.8 12.4-15.3 11.9-15.8 11.5-16 11.1-16.5 10.5-16.9 10.2-17.4 9.7-17.6 9.4-18.1 8.8-18.3 8.4-18.8 7.9-14.6 5.7-14.6 5.2-14.6 5-14.9 4.5-14.8 4.1-14.9 3.7-15.1 3.3-15 2.9-19.4 3.1-19.5 2.6-19.6 1.8-19.8 1.1-19.9 0.6-20.1-0.2-20-0.8-20.3-1.4-1.7-0.4-1.5-0.6-1.5-1-1.2-1.3-1-1.5-0.6-1.5-0.2-1.9 0.1-1.7 0.1-0.6 2.3-10.5 2.2-10.7 1.8-11.1 1.8-11.3 2.8-23.3 2-24.6 1.3-25.5 0.6-27.8v-30.7l-0.7-42-0.6-44.8 0.4-3.1 0.6-1.3 0.7-1.1 0.8-1 1.1-0.7 2.8-1.1 43.2-10.5 5 11.9 5.6 14.8 6.3 17.8 6.9 20.8 2.2 6 2.3 5.7 2.8 5.5 2.9 5.1 3.3 4.7 3.5 4.5 3.8 4.2 4 3.8 6.1 4.8 6.5 4.1 7.1 3.5 7.5 3.1 6.1 1.7 6.8 1.1 7.1 0.4 7.9-0.1 8.5-0.7 9.1-1.2 9.7-2 10.4-2.5 10.6-3.2 11.3-3.6 12.2-4.3 12.7-4.8 13.4-5.4 14.4-6.2 36.4-16.5 24-10.8 15-6.3 9.2-3.9 9.1-4.3 9.1-4.6 9-5.1 8.9-5.6 8.7-5.9 8.7-6.3 8.6-6.6 18.1-15.3 17.3-15.8 16.4-16.4 7.9-8.4 7.7-8.5 7.5-8.6 7.3-8.8 7-8.8 6.8-9.1 6.7-9.1 6.4-9.3 6.2-9.4 6-9.5 8.9-15.3 8.5-15.5 7.9-15.9 7.6-16.2 6.9-16.6 6.3-16.8 5.9-17.2 5.4-17.5 4.7-17.7 4.4-18.2 3.8-18.5 3.2-18.7 2.7-19 2.2-19.5 1.7-19.7 1.2-20.1 1.1-25.1 0.7-23.9 0.4-22.7 0.1-21.5-0.1-20.4-0.5-19.2-0.9-18-1-16.8-0.7-4.5-1.2-4.5-1.5-4.3-2.1-4-2.6-3.5-2.7-3.2-3.2-2.5-3.4-2.2-10.2-5.1-10.2-4.7-10.1-4.4-10.1-3.9-9.9-3.5-10-3.2-9.9-2.6-9.9-2.3-9.7-2-9.7-1.4-9.6-1.1-9.6-0.6-9.6-0.3-9.4 0.1-9.4 0.5-9.3 1-16.2 2.3-15.9 2.9-15.6 3.7-15.6 4.2-16.4 5.2-16.1 6.1-16 6.7-15.8 7.5-15.6 8.1-15.2 9-15.1 9.7-14.9 10.5-6.1 4.8-5.7 5.3-5.2 5.5-4.6 5.9-4.3 6.2-3.8 6.5-3.2 6.9-2.8 7.2-2.3 7.6-1.9 7.9-1.3 8.3-1 8.6-6.5-28.3-2.9-13.9-2.6-13.9-2.3-13.8-2.1-13.6-1.8-13.7-1.6-13.5-1.2-13.5-0.9-13.3-0.8-13.3-0.5-13.1-0.1-13.1 0.1-12.9 0.4-13 0.6-12.7 0.7-8.1 1.1-8.2 1.4-6.9 1.7-6.9 1.9-6.8 2.3-6.8 2.6-6.7 2.9-6.7 3.1-6.6 3.6-6.6 35.5 26.8 2.5 1.5 2.6 1 2.8 0.3 2.8-0.1 4-0.5 3.9-0.2h4l3.9 0.2 7.2 1.1 7 2.1 6.9 2.8 6.9 3.6 2.7 2.1 2.2 2.4 1.6 3 0.8 3.7 0.9 3.3 0.7 1.3 0.9 1.2 1.2 1.1 1.2 1 3.3 1.2 2.2 0.5h1.8l1.6-0.3 1.2-0.7 0.8-1.1 0.5-1.6 0.2-1.8-0.1-2.3-5.1-37.6-0.1-4.4 0.7-4.4 1.6-4.1 2.3-3.6 3.2-3.2 3.5-2.5 4.1-1.7 4.3-1h0.6 5.1l4.8 1 3.7 1.4 3.4 2.1 3.2 2.5 3.2 3.2 18.3 21.6 18.5 23.2 2.8 3.3 2.4 2.3 2.1 1.1 0.9 0.1 0.8-0.1 0.7-0.4 0.6-0.7 1-2.1 0.5-3.3 0.2-4.2v-24.9l0.3-1.8 0.6-1.6 0.9-1.5 1.4-1.2 1.4-0.8 1.7-0.5 1.8-0.1 1.7 0.3 2.2 1.2 4.5 4 3.9 4.5 3.4 4.9 2.7 5.2 1.9 5.4 1.2 5.5 0.4 5.6-0.2 5.7-1 4.8-0.9 4-0.6 4-0.3 4v4l0.3 4.1 0.6 4.1 0.9 4.2 1.2 4.1 1.6 4 1.9 4.1 2.1 4.2 2.5 4 1.5 1.9 1.8 1.5 2.1 0.9 2.3 0.5 3 0.1 2.9-0.4 2.5-1 2.3-1.5 1.9-1.7 1.2-1.9 0.7-2.4-0.1-2.7-3.9-24.3-4.2-22.7-4.7-21.2-5.1-19.6-1.6-4.2-2.2-3.8-2.2-2.8-2.5-2.4-3-2.2-3.4-1.9-2.1-1.5-1.9-1.8-1.4-2.2-0.9-2.4-0.3-2.6 0.1-2.7 0.7-2.5 1.2-2.2 0.9-1.2 2.8-2.9 2.8-2.3 3.1-2 3.2-1.3 3.7-1.1 4.1-0.5 4.1 0.1 4.1 0.8 4.4 1.2 4.6 1.8 4.5 2.3 4.6 2.9 4.7 3.4 4.6 4 4.5 4.4 4 4.6 3.7 4.9 3.1 4.7 2.5 4.7 1.7 4.4 3.2 9.7 3.8 9.5 2.9 5.9 2.7 4.3 1.3 1.4 1.2 1 1.3 0.6 1.2 0.1 1.1-0.3 1.1-0.8 1.1-1.2 0.9-1.7 2-4.6 1.8-6.3 1.1-3.6 1.4-3.9 2-3.9 2.3-4 2.8-4.3 3.1-4.3 7.6-9 4.8-6 3.9-5.9 1.5-3 1.1-3 0.9-2.9z"/>
		<path id="Layer" class="s17" d="m2581.4 2329.4l-13 4.4-13.1 5.2-7.2 2.8-6.6 2.3-6.6 1.7-6.1 1.2-24.5 3.4-33.6 3.7-25.9 2.7-18.8 2.4-16.9 2.6-15.3 2.9-21.7 4.4-21.7 4.1-21.9 3.9-21.8 3.6-31.2 4.8-31.2 4.2-31.5 3.7-31.4 3.1h-2.5l-2.5-0.5-2.8-0.8-2.9-1.2-3.2-1.7-3.4-2.2-7.3-5.6 4.8-7 5-6.7 5.3-6.2 5.5-5.7 5.8-5.2 5.9-4.8 6.4-4.2 6.5-3.9 5-2.6 5.1-2.3 5.2-1.9 5.5-1.8 21.8-6.2 29.6-7.9 37.3-9.5 44.9-11.1 13.8-3.6 14-4 14.6-4.3 15.2-4.9 32.3-11.4 43.8-16.4 28.7-10.8 2-0.6 2.1-0.1 2.2 0.1 2 0.6 2 0.8 1.7 1.3 1.6 1.4 1.2 1.7z"/>
		<path id="Layer" class="s17" d="m1177 2413.5h-55.1l-55-0.7-54.7-1.7-54.3-2.6-54.2-3.4-53.8-4.2-53.6-5.1-53.3-6 52.7-98.7 1.5-2.1 1-0.9 1.1-0.5 1.1-0.3h1.2l2.8 0.6 20.4 7.4 20.5 7 20.5 6.8 20.7 6.6 20.6 6.3 20.8 6 20.7 5.8 20.9 5.5 36.4 8.9 36.6 8.1 36.8 7.4 36.9 6.6 7.3 1.6 7 2 6.7 2.7 6.4 3.2 4.9 3 4.6 3.3 4.5 3.6 4.2 4.1 4.1 4.4 3.9 4.8 3.7 5.1z"/>
		<path id="Layer" class="s17" d="m636.3 3092.2l1.5 14.3 2.2 14.3 2.8 14 3.3 13.9 4.5 16.1 5.3 15.7 6.1 15.6 6.8 15.4 6.6 13.1 6.9 13 9.6 15.9 10.3 15.6 11 15 11.9 14.6 12.7 14.2 13.4 13.7 14.2 13.4 15 12.8 10.9 8.8 11 8.2 11.1 7.7 11 7.3 11.2 6.7 11.2 6.2 11.3 5.9 11.1 5.2 11.4 4.8 11.3 4.3 11.4 3.8 11.6 3.2 11.4 2.9 11.5 2.4 11.7 1.8 11.6 1.2 10.8 0.8 11 0.4 10.5-0.2 10.6-0.9 8.4-1.1 8.3-1.7 8.3-2 8.3-2.5 8.1-2.9 8.1-3.4 8.2-3.7 8-4.3 8-4.6 7.9-5.1 7.9-5.5 7.9-5.9 7.7-6.5 7.8-6.8 7.6-7.2 7.7-7.7 0.6 10.1-0.1 9.7-0.6 9.7-1.4 9.2-1.9 9.3-2.6 8.8-3.1 8.8-3.8 8.2-2.8 5.2-2.9 5-3.3 5-3.4 4.7-3.6 4.6-3.9 4.5-4.2 4.4-4.3 4.3-4.6 4-4.7 3.7-5 3.8-5.2 3.5-5.4 3.3-5.6 3.1-5.7 3-5.8 2.6-5.9 2.6-6.2 2.3-12.7 3.9-13.1 3.1-13.4 2.1-13.6 1.2-13.8 0.4-13.7-0.8-13.7-1.5-17.8-3.2-17.6-3.8-17-4.6-16.8-5.2-16.3-5.9-15.9-6.7-15.5-7.4-15.1-8.2-9.8-5.7-9.6-6-9.5-6.5-9.2-6.6-9.1-7.1-9-7.4-8.7-7.6-8.5-8-8.4-8.3-8.2-8.6-8.1-8.9-7.8-9.2-7.7-9.6-7.5-9.8-7.3-10.2-7.2-10.5-6.9-10.7-6.3-10.6-6-10.7-5.4-10.7-5.1-10.7-4.5-10.7-4.1-10.5-3.7-10.7-3.1-10.6-2.7-10.5-2.2-10.6-1.8-10.6-1.2-10.5-0.9-10.6-0.3-10.4 0.1-10.6 0.5-9.7 0.8-9.7 1.4-9.6 1.7-9.7 2-9.7 2.6-9.6 2.9-9.7z"/>
		<path id="Layer" class="s17" d="m2198.7 3262.3l-0.7 4.9-0.4 4.9v4.7l0.3 4.5 0.6 4.5 1 4.3 1.2 4 1.7 4 0.9 2 1.5 3.2 1 3.3 0.7 3.2 0.2 3.4 0.7 8.9 1.4 8.9 1.3 6 1.9 6 2.2 5.8 2.5 5.7 2.9 5.8 3.3 5.8 3.6 5.5 4.2 5.6 4.3 5.6 5 5.6 5.2 5.5 5.6 5.4 6.2 5.6 6.4 5.5 7.2 5.7 7.5 5.7 12.2 8.4 12.1 7.4 12.4 6.5 12.4 5.5 12.4 4.5 12.6 3.5 6.2 1.3 6.4 1.1 6.3 1 6.3 0.6 11.5 0.6 11.4-0.2 11.5-1 11.7-1.8 77.4-14.6 3.5-1.1 3.1-1.6 2.6-2.3 2.3-2.8 2.3-3 2.6-2.4 2.5-1.6 2.8-0.9 2.5-0.2 2.6 0.4 2.8 0.9 2.8 1.5 1.7 0.8 1.8 0.2 1.7-0.5 1.7-1.1 2.8-2.1 1.1-0.3 0.8 0.1 0.4 0.6 0.3 1-0.3 3.5-0.1 1.3 0.4 1 1 0.8 1.3 0.4 1.8 0.5 1.5 1 0.5 0.4-7.9 6.8-8.2 6.6-8.5 6.2-8.7 6.1-8.9 5.8-9.2 5.4-9.5 5.3-9.6 4.8-9.7 4.6-9.8 4.3-10 3.7-9.9 3.6-10 3-10 2.8-10 2.3-10 1.9-9.7 1.6-9.7 1.1-9.6 0.7-9.6 0.4h-9.3l-9.2-0.5-9.1-0.8-9-1.2-8.8-1.6-8.6-2-8.4-2.4-8.2-2.8-8-3.1-7.8-3.6-7.5-3.8-7.4-4.3-7.3-4.8-7.2-5.3-6.8-5.4-6.7-6.1-7.4-7.7-6.9-8.1-6.3-8.8-5.8-9.4-5-9.7-4.4-10.3-3.7-10.7-3.1-11.3-2.4-11.5-1.6-12.1-1.1-12.3-0.2-12.8 0.3-13.1 1.1-13.5 1.9-13.4 2.5-13.8 3.2-13.8z"/>
	</g>
	<g id="Layer">
		<path id="Layer" class="s18" d="m2746.3 1848.1l11.5 2.7 11.3 3.5 6.9 2.6 6.9 2.9 6.8 3 6.8 3.5 6.6 3.7 6.5 4.1 6.5 4.3 6.3 4.6 1.6 1.8 0.7 2.2-0.1 2.3-1 2.2-10.3 14.3-10.7 14.1-10.9 13.8-11.2 13.5-11.4 13.2-11.8 13-12 12.7-12.3 12.5-15.4 14.9-15.9 14.4-16.4 14.2-16.6 13.6-17.3 13.4-17.4 12.9-18 12.3-18.5 12.1-18.7 11.6-19.3 11.2-19.5 10.8-20 10.3-20.5 10-20.8 9.4-21.3 9.1-21.7 8.8-34.5 13.1-34.7 12.4-35 11.9-35 11.3-29.7 9.1-29.7 8.7-30 8.1-30.1 7.9-30.1 7.4-30.4 7.1-30.4 6.5-30.6 6.2-30.7 5.7-30.9 5.4-30.9 5-31.1 4.4-31.3 4.2-31.4 3.6-31.5 3.3-31.6 2.9-32.6 2.6-32.7 2-32.8 1.7-33 1.2-33 0.8-33 0.3h-33.3l-33.3-0.6-33.4-0.9-33.6-1.4-33.5-1.8-33.8-2.3-33.8-2.7-33.9-3.1-34-3.6-34.1-4-17-2.2-17.4-2.5-17.9-2.9-19.1-3.4-40.5-7.8-55.3-11.5-22.2-4.8-24.3-5.2-23.9-5.7-23.5-5.8-23.4-6.3-22.9-6.7-22.7-6.9-22.2-7.3-21.9-7.5-21.5-7.9-21.1-8.3-20.7-8.5-20.3-8.8-19.9-9.1-19.6-9.5-19.2-9.8-18.7-10.1-18.3-10.3-17.7-10.7-17.5-10.9-17-11.3-16.6-11.6-16.2-11.7-15.8-12.2-15.2-12.4-14.9-12.7-14.4-13-14.1-13.2-13.5-13.6-13.1-13.9-12.6-13.9-12.3-14.5-11.7-14.7-1-1.4-0.6-1.5-0.4-1.3v-1.4l0.4-1.2 0.7-1.2 1.1-1.1 1.3-1.1 7-4.7 7-4.1 7.2-3.9 7.1-3.3 7.3-2.9 7.3-2.4 7.4-2.1 7.5-1.6 10.8-1.4 1.5 6.9 1.7 6.8 1.9 6.9 2.2 6.8 2.6 6.8 2.6 6.8 3.1 6.8 3.2 6.8 7.3 13.3 8.3 13.4 9.3 13.2 10.5 13.3-2.9 3-2.1 3-1.3 3.1-0.5 3 0.3 3.4 1.4 3.4 2.2 3.4 3.2 3.5 11.9 10.7 9.8 7.8 4.6 3.3 4.5 2.9 4.7 2.5 4.6 2.3 7.4 3.1 7.9 2.5 13 3.9 14.1 4.9 15.2 5.8 20.5 8.5 22.2 9.1 16.6 6.3 15.3 5.1 14.3 4 19.2 5 21 5.8 54.7 15.9 45.8 13.4 33.6 9.3 30.3 7.7 28.1 6.3 38.1 7.6 38.2 7.2 38.1 6.5 38 6.2 37.9 5.5 37.8 5.1 37.4 4.5 37.1 3.9 36.7 3.2 36.4 2.8 36.1 2.3 35.6 1.7 35.1 1.1 34.9 0.5h34.2l33.8-0.6 38.9-1.2 38-1.6 36.8-1.9 35.8-2.3 34.6-2.7 33.7-2.9 32.5-3.4 31.4-3.8 47.5-6.3 51.6-7.6 55.7-8.8 59.9-9.9 28.9-5.1 28-5.5 27.1-5.7 26.2-6.1 25.4-6.4 24.4-6.7 23.5-6.9 22.6-7.3 24.8-8.5 24.5-8.6 24.3-8.7 23.9-9 23.7-9.1 23.3-9.4 23.1-9.3 22.7-9.7 22.4-9.8 22.1-9.9 21.9-10.2 21.6-10.2 21.2-10.6 21-10.5 20.7-10.8 20.4-11 16.6-9.5 16.3-10.4 13.9-9.7 2.5-2 2.1-2.2 1.6-2.3 1.2-2.6 0.8-2.2 0.5-2.4 0.1-2.4-0.3-2.7-0.5-2.3-0.7-2.2-1.3-2.2-1.7-2-2.1-1.9-2.4-1.7-2.9-1.3-3.3-1.3-3.8-1.1-4.1-0.9z"/>
		<path id="Layer" class="s18" d="m2014.1 2483.2l-150.6 7-148.6 6.6-46.6 1.7-49.3 1.1-51.8 0.6-54.5-0.1-101.3-0.3-50.5 0.3-50.6 0.5-50.1-102.4-1-2.8v-0.9l0.3-0.9 0.7-0.5 0.9-0.3 3.1 0.1 29.8 4.6 30.6 3.9 31.5 3 32.1 2.3 41.3 2.2 41.2 1.7 40.6 1.2 40.6 0.7 40.2 0.3 39.8-0.3 39.7-0.7 39.3-1.2 39-1.7 38.9-2.1 38.4-2.6 38.2-3.1 37.8-3.6 37.7-4 37.4-4.6 37-5 14.1-2.3 12.8-2.8 11.9-3.5 10.8-4 2.1-0.8 1.7-0.3h1.2l0.9 0.3 0.2 0.9v1.2l-0.5 1.6-0.9 2z"/>
		<path id="Layer" class="s18" d="m1330.3 2734.9l3.4 19 0.8 2.9 1.3 2.7 1.3 1.8 1.6 1.7 2.3 2.5 2 2.4 1.4 2.7 1 2.6 0.5 3.2v3.3l-0.6 3.5-1.1 3.5-9.1 23.3-9.5 22.7-2.8 6.1-2.9 5.9-3.2 5.6-3.2 5.4-3.6 5.1-3.6 4.8-3.8 4.5-4 4.4-10.5 10.4-11 9.9-11 9.2-11.4 8.7-11.8 8.2-11.9 7.4-12.3 7-12.6 6.3-8.1 3.8-8.4 3.5-8.4 3.3-8.5 3-8.6 2.8-8.9 2.7-8.8 2.3-9 2.1-12 2.7-11.3 2.8-10.3 3-9.6 3-8.6 3-7.9 3.2-7.1 3.3-6.2 3.2-6.2-4.7-6.5-5.5-6.9-6-7.3-6.8-6.8-6.2-7.3-6.2-7.9-6.2-8.6-6.1-9-6-10.1-6.5-26.7-16-3.3-1.9-0.8-0.7-0.5-0.8v-0.9l0.4-1v-0.2l0.6-0.8 0.8-0.4h0.8l0.9 0.5 5 2.9 5 2.4 5.1 2.1 5.3 1.6 4.9 1 5.1 0.6 15.5 1.2 15.4 0.7 15.1 0.3 14.9-0.2 14.7-0.6 14.6-0.9 14.2-1.5 14.1-1.8 13.8-2.3 13.6-2.8 13.5-3.2 13.1-3.6 13-4 12.7-4.5 12.5-4.9 12.4-5.3 6.6-3.2 6.5-3.3 6.2-3.6 6.1-3.6 5.9-4 5.9-4.2 5.6-4.3 5.3-4.5 6.1-5.5 5.7-5.7 5.6-6 5.3-6.1 5.1-6.6 4.9-6.7 4.6-7 4.3-7.3 4.3-7.5 4-7.8 3.6-8.1 3.6-8.3 3.2-8.6 3.1-8.9 2.9-9.1z"/>
		<path id="Layer" class="s18" d="m2050.1 2809.1l12.2 11.4 12.4 10.6 12.7 9.8 13 8.8 13.4 8.2 13.7 7.1 13.8 6.3 14.3 5.5 9.7 3.2 9.9 2.7 11.6 3 11.6 2.4 11.6 2.2 11.7 1.9 11.5 1.5 11.7 1.2 11.6 0.8 11.7 0.5 13.2 0.1 13.2-0.2 13.3-0.7 13.2-1.1 13.2-1.6 13.3-1.9 13.2-2.5 13.2-2.9 13.4-3.3 13.3-3.7 13.3-4.2 13.3-4.6 13.4-4.9 13.3-5.5 13.4-5.8 13.4-6.3-3.1 4.2-1.8 3.6-0.5 1.6-0.2 1.5 0.1 1.3 0.4 1.2 1.2 1.4 1.7 1.1 2.4 0.8 3.2 0.4 3.7 0.1 4.4-0.3 10.8-1.4-13.8 1-13.8 1.4-13.4 2-13.3 2.4-13.1 2.9-13 3.4-12.7 3.9-12.6 4.4-11.5 4.3-11.4 5-11.1 5.3-11.1 5.8-10.8 6-10.7 6.7-10.5 6.9-10.5 7.4-10.2 7.9-10.2 8.2-9.9 8.7-9.7 9.1-9.8 9.5-9.4 9.8-9.3 10.3-9.2 10.8 0.7-4.7 1.3-4.4 1.8-3.9 2.3-3.5 2.5-2.9 3.1-2.5 2.2-2 1.7-2.2 1.2-2.8 0.6-3 0.1-2.8-0.1-2.8-0.4-2.5-0.6-2.6-1.1-2.9-1.4-2.7-1.7-2.6-2.2-2.6-2.3-1.9-2.5-1.6-2.5-0.9-2.7-0.6-13.5-1.9-12.5-2.3-11.5-2.8-10.4-3.2-9.4-3.5-8.5-3.9-7.4-4.2-6.3-4.8-64.1-53-6-5.4-5.4-5.8-4.9-6-4.1-6.5-1.8-3.1-8-15.5z"/>
		<path id="Layer" class="s18" d="m2128.1 3220.7l-3.3 12.4-3 12.4-2.7 12.4-2.4 12.2-2.2 12.4-1.8 12.3-1.6 12.1-1.4 12.3-0.9 12.1-0.8 12.3-0.3 12.1-0.1 12.1 0.1 12.1 0.3 12 0.8 12 0.9 12.1 1.6 14.4 2.1 14.4v2.8l-0.4 1.1-0.5 1-0.7 0.9-1 0.7-2.5 1-21.6 4.6-21.3 4.1-20.6 3.9-20 3.4-19.7 3.1-19.1 2.7-18.5 2.4-18.1 2-38 3.6-38.2 3.1-38.1 2.5-38.2 1.9-38.4 1.5-38.5 0.9-38.4 0.2-38.7-0.2-38.6-1-38.8-1.4-38.9-2-38.9-2.6-39-3-39.1-3.8-39.2-4.1-39.3-4.9-14.9-2-14.6-2.4-14.6-2.8-14.5-3.1-14.2-3.5-13.9-3.6-14-4.2-13.7-4.3-2.1-1-1.9-1.2-1.6-1.6-1.3-1.8-1-2.1-0.6-2.3-0.1-2.2 0.2-2.3 2.2-12.1 1.9-12.2 1.5-12.1 1-12 0.6-12 0.3-12.1-0.2-12-0.5-12-1.1-13.1-1.6-13.1-2-13.1-2.4-13.1-3.1-13-3.5-13-3.9-13-4.5-13-9.6-25.7-9.3-24.4-9.4-22.9-9.3-21.3-9.1-19.9-9.1-18.5-9-17-8.9-15.5 16.2-8 2.5-0.9h2.5l2 1 1.8 1.9 8.8 11.8 8.5 11.9 8.2 12 7.9 12.3 7.7 12.2 7.4 12.5 7.1 12.7 6.8 12.7 8.4 16.5 8 16.7 7.4 17 7.1 17.2 6.7 17.4 6 17.6 5.9 17.9 5.2 18.1 2.2 6.4 2.1 4.5 2.5 4.3 2.9 4.1 3.3 3.9 3.6 3.8 4.1 3.5 4.4 3.3 4.9 3.2 5.2 3 5.7 2.7 5.9 2.6 6.3 2.3 6.6 2.1 6.9 1.9 7.2 1.6 7.3 1.3 37.7 5.7 37.5 5.1 37.6 4.4 37.2 3.8 37.2 2.9 37 2.4 36.9 1.7 36.8 1 23.7 0.1 27.5-0.6 31.2-1.2 35.1-1.8 38.7-2.5 42.5-3.1 46.3-3.8 50-4.4 12.6-1.4 13.6-2.3 14.8-2.9 20.3-4.7 23.9-5.4 17.9-3.4 6.9-1.6 6.4-2.2 6-2.9 5.3-3.5 3.4-2.9 3.2-3.2 2.9-3.5 2.7-3.9 9.8-15.7 5.6-8 5.6-8.5 5.4-8.8 5.5-9.5 5.3-9.8 5.3-10.5 5.2-10.8z"/>
	</g>
	<g id="Layer">
		<path id="Layer" class="s2" d="m1662.7 288.9l166.7 13.6-3 46.3-3.9 45.6-4.7 45.1-5.7 44.5-2 13.2-1.8 10.9-1.9 10.1-2.1 9.1-2.3 8.7-2.6 8.1-2.6 7.4-3.1 7.1-3.1 6.4-3.5 5.8-3.7 5.4-4 4.8-4.2 4.3-4.4 3.5-4.6 3.2-5.1 2.5-4.9 2-5.3 1.4-5.4 0.9-5.7 0.3-5.8-0.1-6.2-0.6-6.3-1.1-6.7-1.7-3.6-1.4-3.3-2.1-2.9-2.7-2.3-3.1-3.4-5.9-3.2-6.3-3-6.7-2.9-6.9-2.8-7.4-2.6-7.9-2.3-8.1-2.2-8.5-4-18.3-3.2-19.8-2.7-21.4-2-22.9-2.4-39.1-1.7-39.2-1.1-39.5z"/>
		<path id="Layer" class="s2" d="m1566.1 291.6l1.8 24.7 1.1 25.6 0.4 26.6-0.4 27.5-1.1 28.6-1.8 29.5-2.6 30.4-3.2 31.5-1.4 10-1.4 9.6-1.7 9-2 8.5-2 8-2.5 7.4-2.5 6.8-2.7 6.3-3 5.8-3 5.2-3.4 4.6-3.6 4-3.9 3.5-3.7 2.8-4.1 2.3-4.4 1.8-4.1 1.1-4.4 0.6h-4.5l-4.7-0.3-4.8-0.9-5-1.3-4.9-1.8-5.4-2.5-5.3-3.1-5.2-4-5-4.9-4.7-5.8-4.7-6.7-4.3-7.5-4.2-8.5-4-9.4-3.7-10.3-3.5-11-3.3-12-2.9-12.6-2.7-13.4-2.4-13.9-2.1-14.3-1.6-14-3.4-35.8-3-36-2.8-36.6-2.4-36.8z"/>
		<path id="Layer" class="s2" d="m1918 318.2l20 3.5 19.4 4 18.9 4.5 18.5 4.8 17.9 5.2 17.5 5.7 16.9 6.1 16.5 6.4-8 62.4-8.5 58.7-1.6 9.3-2 9.3-2.5 9.5-2.9 9.6-3.3 9.6-3.7 9.8-4.2 9.8-4.6 10-2 4-2.3 3.8-2.6 3.5-2.8 3.3-3 3.1-3.2 2.8-3.2 2.4-3.4 2.2-3.7 2-3.8 1.5-3.7 1.3-3.9 0.8-3.9 0.6-3.9 0.1-3.9-0.2-3.8-0.5-4.3-1.1-4.2-1.6-4-1.9-3.9-2.6-3.7-2.7-3.5-3.3-3.2-3.7-3-4.1-7.1-11.4-3-5.3-2.6-5.3-2.1-5.1-1.8-4.7-1.4-4.6-0.9-4.5-1.8-11.2-1.7-11.5-1.4-11.7-1.2-11.9-1.7-24.5-0.7-25.4 0.1-26.3 1.1-27.3 1.9-28.2z"/>
		<path id="Layer" class="s2" d="m1313.3 331.3l4.5 32.7 3.4 31.8 1.2 15.6 1.1 15.3 0.8 15.1 0.4 14.9 0.3 14.6v14.4l-0.4 14.2-0.6 14-0.8 13.7-1.1 13.5-1.4 13.4-1.7 12.9-0.8 5-1.1 4.8-1.5 4.3-1.7 4.2-1.9 3.8-2.3 3.4-2.4 3.3-2.8 2.9-3.7 2.9-3.9 2.6-4.3 2.2-4.6 1.8-5.1 1.3-5.5 1-5.7 0.6-6.2 0.3-3.5-0.2-3.5-0.6-3.7-0.8-3.7-1.2-3.8-1.7-3.9-2-3.8-2.4-3.8-2.6-3.9-3-3.9-3.3-3.7-3.6-3.6-3.8-3.4-4.1-3.2-4-2.9-4.3-2.5-4.1-8-14.4-7.4-14.8-8.2-18.1-7.3-18.4-6.4-18.8-5.6-19.3-4.8-19.5-3.9-20.1-3.2-20.5-2.3-20.7z"/>
		<path id="Layer" class="s2" d="m853.5 2871.6l10.9 1.6 10.5 2.4 10.2 3 10 3.9 5.6 2.6 0.1 0.1-0.2 0.2-60.1-7.3 6.2-1.3 4.4-1.2 2.6-1.4 0.7-0.6 0.3-0.6-0.4-0.7z"/>
	</g>
	<g id="Layer">
		<path id="Layer" class="s14" d="m2081.5 1306.9c32.9-33.4 82.8-37.5 111.5-9.2 28.7 28.4 25.3 78.3-7.6 111.7-33 33.4-82.8 37.5-111.6 9.2-28.7-28.4-25.3-78.3 7.7-111.7z"/>
		<path id="Layer" class="s14" d="m999.9 1442.9c-33.3 30.7-82.6 31.1-110.3 1-27.7-30.1-23.1-79.2 10.2-109.8 33.3-30.7 82.6-31.1 110.3-1 27.7 30.1 23.1 79.2-10.2 109.8z"/>
	</g>
	<path id="Layer" class="s1" d="m1772 1767.5l-0.2 14.7-0.8 13.7-0.9 12.9-1.5 12.4-1.7 11.6-2.3 11.1-2.6 10.4-3 10-3.4 9.5-3.9 8.8-4.2 8.4-4.8 7.8-5.1 7.2-5.5 6.8-6.1 6.4-6.4 5.7-3.9 3-5 3.5-5 3.1-5.1 2.6-5.1 2.2-5.3 1.8-5.2 1.4-5.4 0.9-5.3 0.6h-6.6l-6.5-0.4-6.7-1.3-6.5-1.7-6.6-2.5-6.3-2.9-6.5-3.7-6.2-4.2-6-4.7-5.9-5.4-5.7-5.8-5.2-6.2-5.1-6.7-4.6-7-4.1-7.3-3.8-7.5-4.5-10-4.1-10.2-4-10.3-3.7-10.4-3.4-10.6-3.1-10.8-2.8-10.9-2.7-11.1-0.8-2.9-1.1-2.8-1.4-2.5-1.5-2.3-1.9-2.1-2-2-2.5-1.7-2.5-1.4-5.6-2.7-8-3.4-11.8-5.1-4.4-2.3-3.7-2.2-3.5-2.5-3.2-2.6-2.8-2.8-2.4-3-3.9-5.7-3.3-6-2.6-6-2.1-6.3-1.2-5.5-1-5.7-0.4-5.8v-6l0.5-5.9 1-6.2 1.3-6.3 1.9-6.5 0.7-1.9 1-1.8 1.2-1.7 1.3-1.5 1.6-1.4 1.7-1.1 1.8-1 1.9-0.7 2-0.5 2.1-0.1h2l2.1 0.2 1.9 0.5 2 0.8 1.8 1 1.6 1.2 2.3 2.2 1.8 2.7 3.6 6.8 6.8 12.6 5.6 9.3 5.6 7.9 5.5 6.5 2.8 2.8 2.7 2.4 2.8 1.9 3 1.9 2.7 1.3 2.8 1 3 0.6 2.9 0.3h2.8l2.8-0.5 2.7-0.6 3-1.1 2.9-1.3 2.9-1.7 2.9-2.1 2.9-2.4 10.9-10.1 10-10.5 9.2-10.9 8.3-11.5 1.7-3.1 1.1-3.5 0.2-3.7-0.4-3.6-1-3.4-1.9-3.2-2.3-2.8-2.9-2.2-0.7-0.3-34.6-19.2-3.9-2.7-3.3-3.1-2.8-3.8-1.9-4.2-1.3-4.5-0.5-4.6 0.3-4.8 1.2-4.5 0.3-0.6 1.7-4 2.1-3.9 2.5-3.7 2.9-3.6 3.3-3.4 3.6-3.1 4.2-2.9 4.3-2.8 4.8-2.6 5.1-2.3 5.3-2.2 5.6-1.7 5.9-1.5 6-1.4 6.2-0.9 6.3-0.8 6.6-0.3 6.5-0.2 6.6 0.4 6.3 0.5 6 1 6 1.2 5.6 1.4 5.2 1.9 4.7 2 4.4 2.3 3.8 2.6 3.5 2.8 2.8 2.9 2.4 3.3 1.8 3.2 1.4 3.6 0.6 3.1 0.3 3.3-0.1 3.4-0.5 3.5-0.9 3.5-1.4 3.7-1.7 3.7-2 3.9-2.6 3.9-2.9 3.9-3.3 4-3.6 4.1-8.5 8.4-10.1 8.5-2.9 2.6-2.1 2.6-1.3 2.7-0.5 2.8 0.2 2.8 1 2.8 1.8 2.8 2.6 2.9 42.8 42.6 3 2.5 3 1.9 2.9 1.2 3 0.5 3.2-0.3 3.2-1 3.1-1.5 3.2-2.5 9.1-8.3 8.5-8.9 8.5-10.2 7.6-10.8 6.9-11.4 6.3-12 0.4-0.8 1-1.1 1.1-0.9 1.3-0.8 1.5-0.3h1.4l1.5 0.2 1.4 0.5 1.3 0.9 5.7 5.2 2.5 2.9 2.2 2.8 2.1 3 1.7 3.1 1.5 3.2 1.3 3.2 1.5 5.5 0.9 5.4 0.2 5.7-0.3 5.7-1 6-1.6 5.9-2.2 6.1-2.8 5.9-3.4 6.1-3.9 5.8-4.3 5.6-4.9 5.5-5.2 5-5.5 4.6-5.8 4.2-5.9 3.7-2.3 1.7-1.7 2-1.1 2.6z"/>
	<path id="Layer" class="s16" d="m1623.5 1755l7.9-6.1 6.7-4.6 6.2-3.6 5.8-2.8 5.7-1.8 5.6-1.1 5.1-0.1 5 0.8 4.7 1.6 4.5 2.5 5 3.6 4.6 3.7 4.2 3.9 4 4.1 3.7 4.4 3.1 4.5 3.1 4.9 2.5 4.8 2.7 6.3 2.1 6.6 1.5 6.9 1 6.9 0.5 7.3-0.2 7.4-0.8 7.5-1.3 7.6-1.9 7.6-2.6 7.7-3 7.5-3.6 7.5-4.1 7.3-4.5 7-5 6.8-5.3 6.5-3 2.8-3.4 2.2-3.9 1.5-4 0.8h-4.1l-4.1-0.9-3.8-1.6-3.4-2.2-5.9-4.8-5.4-5.1-5.1-5.2-4.8-5.4-4.2-5.6-4-5.8-3.5-5.9-3.2-6.2-3.3-7.3-2.6-7.5-2.2-7.9-1.7-8-1.1-8.4-0.7-8.5-0.2-8.9 0.4-9 0.7-5.1 1.4-4.8 2-4.4 2.7-4.2 3.4-4z"/>
</svg>