<svg version="1.2" xmlns="http://www.w3.org/2000/svg" viewBox="0 0 3600 3600" width="3600" height="3600">
	<title>grayhead-svg</title>
	<style>
		.s0 { fill: #250c00 } 
		.s1 { fill: none;stroke: #e7bdb1;stroke-width: 3.3 } 
		.s2 { fill: none;stroke: #7d665f;stroke-width: 3.3 } 
		.s3 { fill: none;stroke: #e8e3de;stroke-width: 3.3 } 
		.s4 { fill: none;stroke: #b6a89e;stroke-width: 3.3 } 
		.s5 { fill: none;stroke: #935d53;stroke-width: 3.3 } 
		.s6 { fill: none;stroke: #948280;stroke-width: 3.3 } 
		.s7 { fill: none;stroke: #fedad2;stroke-width: 3.3 } 
		.s8 { fill: none;stroke: #f7eae3;stroke-width: 3.3 } 
		.s9 { fill: #ffffff } 
		.s10 { fill: #d0c6bd } 
		.s11 { fill: #fdb4a5 } 
		.s12 { fill: #9c8a7f } 
		.s13 { fill: #eed5c7 } 
	</style>
	<path id="Layer" class="s0" d="m3295.7 2289.8l43.7 7.9 41.1 7.4 30.3 5.8 27 5.9 24.6 6 23.5 6.6 21.7 7 20.3 7.5 19.3 8 3.8 2 3.6 2.1 3.2 2.3 2.7 2.6 2.5 2.6 2.3 2.9 1.7 3.2 1.5 3.2 1 2.9 0.7 2.9 0.4 3.2v3.1l-0.2 3.2-0.4 3.2-1.7 6.7-2 4.3-2.9 4-3.5 3.3-4.1 2.6-4.5 1.8-4.9 0.7-4.7-0.2-4.8-1.1-30.3-9.7-30.9-9.1-31.3-8.5-31.7-7.8-32-7.1-32.6-6.3-33-5.8-33.4-5.1h-3.7l-1.7 0.3-1.6 0.7-1.4 0.9-1.4 1.3-1.2 1.6-1 1.8-42.2 88.9-1 2.3-0.5 2.3v1.8l0.5 1.9 1.1 1.4 1.4 1.3 2 1.1 2.4 0.8 14.1 4.1 14.3 4.3 14.2 4.8 14.4 5.1 14.4 5.4 14.6 5.7 14.6 6.1 14.7 6.4 29.7 13.8 30.1 15 30.4 16.5 30.7 17.7 5.6 3.8 4.3 4.2 1.9 2.2 1.4 2.3 1.1 2.4 0.9 2.5 0.5 2.5 0.4 2.7v2.6l-0.4 2.9-1.4 5.8-2.7 6.2-1.6 2.8-2.1 2.6-4.3 4.5-4.6 3.6-4.9 2.5-5 1.4-5.2 0.4-5.3-0.6-5.5-1.6-5.8-2.7-28-14.6-28.5-14.1-29-13.5-29.6-12.9-30.2-12.3-30.7-11.6-31.3-11.1-31.8-10.5-1.7-0.4-1.8-0.2-1.7 0.2-1.7 0.4-1.7 0.7-1.5 0.8-1.3 1.2-1.2 1.3-17.4 23-18.2 22.6-19 22.1-19.8 22-20.6 21.5-21.2 21.1-22.1 20.8-22.8 20.6-23.6 20.1-24.4 19.8-25.1 19.5-26 19.1-26.7 18.8-27.4 18.4-28.1 18.1-29 17.7-23.7 13.6-24.9 13.3-26.3 13.2-27.6 13-29 12.6-30.2 12.4-31.7 12.2-33 12-45 15.2-44.8 14.1-22.3 6.7-22.5 6.3-22.3 6.1-22.3 5.8-22.4 5.4-22.2 5.3-22.3 4.9-22.3 4.6-22.2 4.4-22.1 4.1-22.2 3.8-22.2 3.5-54.3 7.8-55.1 6.9-55.1 5.9-54.4 4.9-52.6 3.7-50.9 2.5-24.5 0.8-23.9 0.7-23.2 0.1h-22.6l-39.3-0.7-39.3-1.1-39.5-2-39.3-2.4-39.5-3.2-39.4-3.5-39.4-4.4-39.4-4.9-39.5-5.5-39.4-6.1-39.6-6.7-39.5-7.3-39.4-7.9-39.6-8.6-39.5-9.1-39.6-9.7-26.2-6.9-26-7.1-25.6-7.5-25.2-7.8-25.1-8.2-24.5-8.3-24.5-8.9-24-8.9-23.6-9.4-23.4-9.8-23.1-9.9-22.6-10.4-22.5-10.6-22-10.9-21.8-11.2-21.4-11.6-15.3-8.6-15.3-9-15.4-9.5-15.6-9.8-15.6-10.1-15.7-10.7-15.8-11-15.8-11.4-16.1-11.8-16-12.3-32.5-25.6-32.7-27.3-33.1-28.9-13.6-12.5-13.6-13.2-13.7-14.1-14.2-15.3-13.9-16.1-15.2-17.9-16.4-19.9-22.2-27.6-8.3-10.3-1.3-1.4-1.6-1.2-1.7-1.1-1.8-0.6-2-0.4-2-0.1-1.8 0.1-2 0.4-31.4 10.2-30.9 10.8-30.4 11.6-29.9 12.1-29.6 13-28.9 13.5-28.5 14.3-28.1 14.9-3.4 1.7-3.3 1.5-3.3 1-3.2 0.7-3 0.4-3.1 0.1-2.7-0.2-2.8-0.7-2.8-0.9-2.5-1.3-2.5-1.6-2.4-1.9-2.2-2.3-2.2-2.6-4.1-6.2-1.9-3.1-2.6-5.3-1.5-5-0.5-4.9 0.1-2.2 0.4-2.3 0.7-2.1 1-2.1 2.5-4 3.7-3.7 4.8-3.4 13.1-8.2 13.2-7.9 13.5-7.8 13.9-7.6 14.1-7.4 14.5-7.3 14.7-7.1 14.9-6.9 15.3-6.6 15.4-6.6 15.9-6.3 16.1-6.1 16.3-6 16.7-5.7 34-11.1 2.1-0.8 1.6-0.9 1.2-1.2 0.9-1.3 0.4-1.5v-1.7l-0.4-1.8-0.8-2-42.7-89.4-0.9-1.7-1.1-1.4-1.3-1.2-1.3-0.9-1.5-0.7-1.7-0.5h-3.7l-31.3 4.1-31.4 5-31.7 5.9-31.9 7-32.2 7.8-32.3 8.8-32.6 9.9-32.9 10.7-4.6 1.1-4.6 0.2-4.6-0.7-4.4-1.6-4.1-2.4-3.4-3.2-2.8-3.7-2-4.2-1.4-4.7-1.1-6.9v-6.5l0.4-2.9 0.6-2.9 0.9-2.7 1.2-2.7 1.3-2.5 1.6-2.4 1.9-2.2 2.2-2.3 5-3.8 6-3.4 9.3-4.4 9.6-4.1 10-3.9 10.5-4 22-7.2 23.9-6.8 25.3-6.3 28.1-5.9 31.3-6.1 42.5-7.4 42-7.4 2.1-0.5 1.7-0.7 1.3-1 1.1-1.2 0.6-1.3 0.4-1.8v-1.7l-0.2-2.1-17.3-80.9-0.7-2.4-0.9-2.1-1.3-1.8-1.5-1.5-1.6-1.2-1.9-0.9-2.2-0.5-2.3-0.4-30.1-1.7-30.2-0.9-30.5-0.2-30.6 0.8-30.9 1.5-31.2 2.3-31.2 3.1-31.6 3.9-6 0.4-5.6-0.4-5.1-1.1-4.7-2.2-4-3-3.6-3.8-3.2-4.6-2.6-5.6-0.9-2.9-0.3-3 0.4-4.1 1.6-4.1 2.5-4.1 3.7-4.1 4.6-4.2 5.8-4.1 6.7-4.2 8-4.2 3.4-1.6 3.4-1.2 3.6-0.8 3.7-0.5 28.9-2.8 28.7-2.4 28.8-1.8 28.6-1.3 28.7-0.8 28.5-0.4 28.4 0.1 28.3 0.5 2.3-0.1 1.8-0.4 1.7-0.7 1.4-0.9 0.9-1.3 0.8-1.6 0.4-1.8 0.1-2.1-0.3-132.5 0.4-25 1.1-25.3 1.7-25.5 2.4-25.7 3.1-26 3.9-26.3 4.5-26.4 5.2-26.8 6-26.9 6.6-27.3 7.2-27.4 8.1-27.8 8.7-27.9 9.4-28.3 10-28.3 10.8-28.8 0.8-2.9 0.4-2.9-0.4-3.2-1-3.2-10.3-24.8-9.5-25-9-25.2-8.5-25.5-7.6-25.9-7.1-26-6.5-26.2-5.9-26.3-5.2-26.7-4.6-26.6-3.8-26.8-3.3-26.9-2.7-27.2-2-27.2-1.3-27.3-0.6-27.5v-27.4l0.6-27.3 1.3-27.6 2-27.6 2.5-27.4 3.3-27.5 4-27.3 4.5-27.2 5.1-27.3 5.8-27.1 6.5-26.9 7.1-26.8 7.7-26.6 8.4-26.4 8.9-26.3 9.6-26.1 4.9-12.3 5.3-11.9 5.4-11.2 5.8-10.7 5.9-10 6.3-9.4 6.5-8.8 6.6-8 7-7.6 7.1-6.8 7.4-6.2 7.5-5.6 7.8-4.9 7.9-4.2 8.4-3.5 8.4-2.9 4.5-1.4 19.7-4.7 19.5-3.8 19.5-3.2 19.5-2.4 19.4-1.4 19.4-0.8 19.3 0.1 19.3 0.9 18.7 1.6 18.6 2.4 22.2 3.4 22 3.8 21.8 4.1 21.8 4.5 21.5 4.9 21.4 5.3 21.2 5.4 21.1 5.9 20.9 6.2 20.8 6.6 20.6 7 20.5 7.3 20.3 7.5 20.1 8.1 20 8.3 19.8 8.5 27.9 13 27.5 13.6 27.3 14.2 27 15.1 26.6 15.7 26.3 16.3 26 17.1 25.7 17.8 3.6 2 3.5 0.9 2 0.1 2.1-0.1 2-0.6 2.1-0.7 29.7-12.4 29.6-11.7 29.7-11 29.7-10.3 29.7-9.7 29.6-8.8 29.7-8.2 29.7-7.5 29.7-6.9 29.8-6.2 29.7-5.4 29.9-4.7 29.7-4.1 29.8-3.3 29.7-2.7 29.8-2 22-1 22.1-0.8 21.9-0.5 21.9-0.3 21.8 0.1 21.6 0.3 21.6 0.7 21.6 0.8 21.2 1.1 21.4 1.5 21.1 1.7 21.1 2 20.9 2.2 20.8 2.5 20.7 2.8 20.6 3.2 20.3 3.3 20.4 3.7 20.1 3.8 20.1 4.2 19.8 4.4 19.8 4.7 19.5 5 19.6 5.3 19.2 5.4 19.2 5.8 19 6.1 18.8 6.3 18.6 6.6 18.6 6.9 18.4 7.1 18.2 7.4 4.9 1.7 4.7 1.2 4.8 0.5 4.7 0.2 5.8-0.8 5.6-1.6 5.7-2.5 5.5-3.3 24.7-16.2 25.1-15.6 25.3-14.9 25.6-14.4 22.6-12 22.8-11.6 22.9-11.1 23.4-10.7 23.5-10.3 23.8-9.8 24-9.2 24.3-8.8 24.5-8.5 24.8-8 24.9-7.6 25.3-6.9 25.4-6.8 25.8-6.2 26-5.7 26.2-5.2 24-4.3 24.2-3.4 23.6-2.6 23-1.9 22-1 21-0.2 20 0.7 19.2 1.6 17.7 2.2 16.6 3.2 7.8 1.8 7.6 2.2 7.3 2.2 7.1 2.5 6.6 2.6 6.5 2.9 6 3.2 6 3.3 5.4 3.4 5.3 3.7 4.9 3.9 4.6 4.1 8.4 8.5 8.2 9.7 7.9 10.7 7.7 11.6 7.2 12.8 7.2 13.7 6.7 14.9 6.5 15.8 8.4 22.6 7.8 23 7.4 23.2 6.8 23.6 6.4 24 5.9 24.4 5.3 24.9 4.9 25.2 4.2 25.4 3.8 25.9 3.3 26.3 2.8 26.5 2.2 27 1.9 27.4 1.2 27.7 0.8 28.1 0.1 24.9-0.4 24.8-0.8 24.7-1.4 24.4-2 24.3-2.5 24-2.9 23.9-3.6 23.6-4.1 23.5-4.5 23.4-5.1 23.1-5.7 22.8-6.1 22.7-6.7 22.6-7.1 22.3-7.8 22.1-5.8 15.7-6.2 15.7-6.4 15.6-6.7 15.4-1 3-0.7 3-0.4 3.4v3.8l0.3 4 0.5 4.2 0.9 4.1 1.2 3.8 12.2 36.7 11.3 36.7 10.6 37 9.7 37.1 9 37.2 8.2 37.2 7.5 37.5 6.6 37.4 1.2 7.2 2.9 20 2.4 20.9 1.8 21.7 1.5 23.1 0.8 23.9 0.4 26.2v29l-0.6 39.6-0.4 37.2v27.2l0.2 1.8 0.4 1.6 0.6 1.3 0.9 1.1 1.1 0.9 1.3 0.5 1.6 0.4 1.8 0.2 50.2 0.1 51.9 1 53.7 1.8 55.3 2.6 6.8 0.5 6.6 0.8 6.5 1.2 6.2 1.6 6.1 1.8 5.9 2.3 5.7 2.5 5.5 2.8 5.2 3.1 3.9 2.9 3.2 3.2 2.5 3.6 1.6 3.5 0.8 4 0.1 4.2-0.8 4.5-1.4 4.6-2.3 5-2.8 4.3-3 3.6-3.6 2.8-2.7 1.6-2.9 1.3-3.3 1.1-3.6 0.5-3.8 0.4h-4.1l-4.4-0.3-4.8-0.6-29.2-4.1-29.3-3.2-29.6-2.4-29.7-1.4-29.8-0.7-30.1 0.3-30.3 1.1-30.5 1.9-2.4 0.4-2.4 0.8-2.2 1.2-2 1.5-1.6 1.8-1.4 2-1.1 2.2-0.6 2.4-16 78.7-0.3 2.1v1.9l0.4 1.6 0.8 1.6 1.1 1.2 1.4 1.1 1.9 0.7z"/>
	<g id="Layer">
		<path id="Layer" fill-rule="evenodd" class="s1" d="m3005.1 2286.9l-4-5.6-4.2-5.4-4.5-5.1-4.6-5-7.8-7.3-8.4-6.9-8.9-6.3-9.5-5.7-9.9-5.1-10.5-4.8-11.1-4.1-11.6-3.5-21.5-5.6-20.6-4.6-19.4-3.4-18.4-2.5-6-0.4-7-0.2-7.9 0.2-8.7 0.6-20.4 2.2-23.7 3.4-12.3 1.8-12.3 1.4-12.5 1.1-12.4 0.7-12.5 0.4h-12.6"/>
		<path id="Layer" fill-rule="evenodd" class="s2" d="m2681.9 2217.2l8.2-11.1 7.7-11.3 7.1-11.5 6.6-11.6 5.9-11.9 5.6-12 5-12.2 4.5-12.4 4.7-15.4 4-15.7 3-16 2.4-16.2 1.6-16.5 0.6-16.9v-17l-0.9-17.3-1.3-14-1.9-13.9-2.5-13.5-3.1-13.5-3.6-13.3-4.2-13-4.9-12.8-5.3-12.5-6.1-12.3-6.3-11.9-7-11.6-7.5-11.2-8.1-10.9-8.4-10.5-9.1-10.1-9.4-9.7-9.9-9.2-10.3-8.7-10.7-8.2-11-7.6-11.4-7.2-11.6-6.4-12-6.1-12.2-5.3-12.4-4.7-12.6-4.3-12.7-3.4-12.9-2.9-13-2.2-13-1.6-13.2-0.9-13.1-0.4-11.3 0.4-11.5 0.6-11.2 1.3-11.4 1.8-11.1 2.2-11.2 2.6-10.9 3.3-11 3.6-10.8 4.2-10.8 4.5-10.6 5.2-10.5 5.5-10.2 5.9-10.3 6.5-9.9 6.7-9.9 7.4-7.4 6-7.1 6-7 6.5-6.6 6.6-7.1 7.7-6.8 7.7-6.4 8.2-6.1 8.3-5.9 8.7-5.4 9-5.3 9.3-4.8 9.3-4.5 9.7-4.2 9.7-3.8 10.2-3.4 10.3-3.1 10.4-2.7 10.6-2.4 10.7-2 10.9-1.6 11.1-1.3 11.1-0.9 11.3-0.4 11.2-0.2 11.5 0.3 11.4 0.7 11.5 0.9 11.4 1.4 11.5 1.8 11.5 2.2 11.3 2.5 11.4 2.8 11.2 3.3 11.2 3.5 11.1 4 11"/>
		<path id="Layer" fill-rule="evenodd" class="s3" d="m2211.6 2136.6l-29.7-21.8-7.9-6.3-7.1-6.5-6.4-7-5.5-7.1-11.1-15.6-11.5-15.3-11.6-15.1-11.9-14.6-11.8-14.1-12.1-13.9-12-13.2-12.1-12.8-12.1-12.1-12.3-11.6-12.2-11.1-12.1-10.6-12.3-10-12.1-9.4-12.2-8.8-12.1-8.3-12-7.7-12-7-12-6.6-11.9-5.9-11.9-5.3-11.7-4.7-11.9-4.3-11.6-3.5-11.8-3.1-11.4-2.3-11.6-1.8-11.4-1.3-11.2-0.5-11.4-0.1-11.2 0.5-11.2 1.2-12.5 2-12.2 2.6-12.4 3.4-12 4.3-16.5 6.6-16.2 7.2-15.7 7.7-15.3 8.3-14.3 8.4-13.8 9.1-13.8 9.7-13.4 10.1-13.3 10.8-13 11.4-12.9 12.1-12.8 12.8-12.7 13.5-12.5 14.1-12.8 15.2-12.8 16-13.1 17-13.4 18.5-14.3 19.9-15.2 22.2-3.4 4.7-3.6 4.2-3.7 4-3.8 3.4-4.1 3.1-4.1 2.6-4.3 2.2-4.5 1.9-3.8 1.2-4 0.9-4.1 0.5-4.1 0.4h-4.3l-4.4-0.2-4.5-0.6-4.6-0.9"/>
		<path id="Layer" fill-rule="evenodd" class="s2" d="m1385.1 2129.3l4.1-9.8 3.8-9.7 3.5-9.9 3.1-9.8 2.8-10 2.4-10 2.1-10.2 1.7-10.2 1.4-10.1 1.1-10.2 0.7-10.2 0.4-10.1-0.2-10.2-0.2-10.1-0.8-10.2-1.1-10.2-1.6-11-2.1-11.1-2.4-11-2.9-10.9-3.3-10.7-3.7-10.6-4-10.5-4.5-10.3-4.9-10.2-5.3-10-5.7-9.8-5.9-9.4-6.3-9.3-6.8-9-7.1-8.7-7.3-8.5-7.6-8.1-7.9-7.8-8.3-7.4-8.5-7.1-8.8-6.9-9-6.3-9.2-6.1-9.4-5.5-9.6-5.3-9.8-4.8-9.9-4.3-10-4-10.3-3.6-10.3-3.1-10.6-2.7-10.5-2.3-10.3-1.8-10.5-1.3-10.4-0.9-10.5-0.5-10.6-0.2-10.6 0.4-10.5 0.7-10.7 1.2-10.6 1.6-10.5 1.9-10.6 2.6-10.7 2.7-10.5 3.3-10.4 3.6-10.6 4.1-10.4 4.5-10.6 5-10.3 5.3-9.9 5.8-9.7 6-9.4 6.6-9.1 6.9-8.9 7.3-8.4 7.6-9.4 9.1-8.7 9.5-8.4 9.9-7.8 10.3-7.5 10.8-7 11.1-6.5 11.5-5.8 11.7-5.5 12.2-4.8 12.4-4.3 12.7-3.9 12.8-3.1 13.2-2.7 13.1-2.1 13.4-1.4 13.4-0.8 13.6-0.4 13.6 0.4 13.6 0.8 13.7 1.4 13.6 2.1 13.5 2.7 13.3 3.1 13.2 3.9 13.1 4.3 12.9 4.9 12.5 5.4 12.6 5.9 12 6.5 11.9 7 11.5 7.5 11.2"/>
		<path id="Layer" fill-rule="evenodd" class="s1" d="m907.5 2187.4l-0.9 4.1-1.3 3.5-1.9 3.1-2.3 2.3-2 1.4-2.1 1-2.4 0.8-2.6 0.4-3 0.1-3-0.1-7-1.1-14-3-13.7-2.4-13.5-2.1-13.3-1.4-13-1.1-13-0.5-12.8-0.1-12.4 0.3-12.3 1-12.1 1.4-11.9 1.9-11.7 2.3-11.5 2.8-11.2 3.3-11.1 3.8-10.8 4.4-11.9 5.3-11.5 5.8-11.2 6.6-11 7-10.8 7.6-10.4 8.3-10.3 8.9-10 9.4"/>
		<path id="Layer" fill-rule="evenodd" class="s4" d="m404.3 2230.5l1.8-5.8 1.3-5.3 0.9-4.4 0.4-4v-3.4l-0.5-2.7-1-2.1-1.4-1.6-1.5-0.6-1.7-0.4-2 0.1-2.2 0.4"/>
		<path id="Layer" fill-rule="evenodd" class="s3" d="m500.7 635.7v4.3l0.2 3.8 0.4 3.5 0.8 3.1 1.1 2.6 1.2 2.3 1.6 1.8 1.8 1.5 1.8 1 2.2 0.7 2.3 0.2h2.7l17.4-1.3 27.7-2.1 20.3-1.2 18.4-0.6 16.7-0.2 16.3 0.4 15.5 1.1 14.8 1.4 14.3 2.3 12 2.2 12.4 2.8 12.9 3.2 13.5 3.7 29 8.8 39.3 13.2 25.9 8.7 18.7 6.1 22.9 7.6 22.7 8.9 22.4 9.6 22.4 10.8 30.5 15.7 29.6 15.9 28.5 15.8 27.6 16.1 9.9 5.5 10 5.2 11.6 5.3 12 4.7 16.6 5.7 14.9 5.1 10.7 4.3 9.7 4.6 8.8 5.4 4.4 3 4.3 2.8 4.2 1.8 4 0.8 3.8-0.2 1.9-0.6 1.7-0.8 3.4-2.3 3.2-3.5 2.9-4.4"/>
		<path id="Layer" fill-rule="evenodd" class="s4" d="m1308.8 822.3l9.7 37.4 10.3 37.3 10.8 37.1 11.5 37 2.7 7.6 3.5 8.2 3.9 8 4.5 8.1 4.8 7.5 5.1 7.1 5.3 6.5 5.4 5.8 5.3 5 5.2 4.4 5.5 3.5 5.4 2.9 5.2 2.2 5.3 1.3 5.2 0.5 5.3-0.1 5.1-1 5-1.8 5-2.5 4.9-3.3 4.8-4.1 4.6-4.9 4.5-5.5 4.5-6.5 5.9-9.9 4.6-9.4 3.6-8.9 2.3-8.6 2.4-12.1 2.1-12.3 1.8-12.6 1.4-12.5 1.1-12.8 0.7-13.1 0.4-13 0.2-13.4-0.3-13.4-0.5-13.7-0.9-13.9-1.2-14-1.6-14.1-1.9-14.4-2.2-14.5-2.5-14.7"/>
		<path id="Layer" fill-rule="evenodd" class="s4" d="m1548.7 756.2l1.9 24.3 2.4 24.1 2.9 23.9 3.3 23.7 3.9 23.3 4.4 23.2 4.7 23 5.4 22.8 3.7 13.7 4.3 13.1 4.6 12.7 5.1 12 5.6 11.5 6 10.8 6.6 10.4 7 9.8 3.1 3.7 3.1 3.3 3.5 3.3 3.5 2.9 3.9 2.6 3.9 2.3 4 1.9 4.1 1.8 4.2 1.3 4.2 0.9 4.2 0.7 4.4 0.2 4.2-0.1 4.2-0.4 4-0.9 3.9-1.2 4.3-1.6 3.9-2 3.7-2.5 3.7-2.8 3.3-3 3.2-3.6 2.9-3.6 2.8-4.3 3.3-5.8 3-5.9 3-6.4 2.7-6.5 5-14.2 4.3-15 3.5-16.2 2.9-17.3 2-18.2 1.3-19.2 0.6-20.4-0.1-21.3-1.1-22-1.7-22.5-2.3-22.9-3.3-23.2-3.9-22.6-4.5-21.8"/>
		<path id="Layer" fill-rule="evenodd" class="s4" d="m1847.9 734.6l-0.8 26.1-0.1 26 0.5 25.9 1.1 25.8 1.7 25.6 2.4 25.6 3 25.6 3.7 25.4 5 29.5 5.9 29.5 2.1 8.5 2.6 8.2 2.7 7.7 3.2 7.2 3.6 6.8 3.9 6.3 4.2 5.9 4.7 5.4 3.4 3.5 3.6 3.1 3.8 2.7 3.8 2.4 4 1.9 3.9 1.6 4.2 1.1 4.1 0.8 3.7 0.2h3.7l3.7-0.2 3.7-0.7 3.7-0.9 3.7-1.2 3.6-1.6 3.5-1.7 3.6-2.1 3.4-2.4 3.5-2.6 3.1-2.9 6.1-6.5 5.5-7.4 6.9-10.7 5.3-9.1 3.9-7.9 2.4-6.3 7.5-26.7 6.8-26.9 5.4-24.4 4.6-24.6 4.1-24.8 3.3-24.9 2.8-25 1.9-25.2 1.4-25.4 0.6-25.5"/>
		<path id="Layer" fill-rule="evenodd" class="s4" d="m2131.1 776.1l-2.5 14.8-2.3 14.9-1.9 15.1-1.7 15-2.7 30.5-1.6 30.8-0.4 14.9 0.2 14.5 0.6 14.1 1.1 13.3 1.4 12.6 2 11.8 2.4 11.1 2.8 10.2 3.1 9.4 3.7 8.4 4 7.5 4.5 6.6 4.9 6 5.1 4.8 5.7 4.1 6 3.1 4 1.6 3.7 1 3.6 0.8 3.7 0.4 3.6 0.1 5.5-0.4 5.2-0.9 5.3-1.6 5.3-2.2 5.1-2.9 5.2-3.6 5-3.9 4.9-4.8 4.7-5.3 4.7-5.9 4.2-6.2 3.9-6.6 3.6-7 3-7 2.5-7.1 1.9-6.8 6.9-30.3 6.3-30.9 5.7-31.4 5.1-31.8 0.7-3.6 1.2-3.4 1.3-3 1.8-2.9 2.4-2.9 2.8-2.7 4.9-3.4 5.5-2.6 6.1-2 6.7-1.2"/>
		<path id="Layer" fill-rule="evenodd" class="s5" d="m2681.9 2217.2l-106.2 80.1"/>
		<path id="Layer" fill-rule="evenodd" class="s6" d="m2575.7 2297.3l-19 2.6-18.6 2-18.1 1.3-17.8 0.7h-17.3l-16.9-0.8-16.5-1.3-16.1-2.1-15.6-2.8-15.1-3.3-14.9-4.1-14.4-4.7-14-5.5-13.5-6-13.2-6.9-12.6-7.4-8.4-5.4-8.1-5.7-8-5.9-7.7-6.3-7.6-6.6-7.4-6.9-7.1-7.1-7-7.5-6.8-7.8-6.6-8.2-6.5-8.5-6.2-8.7-6.1-8.9-5.8-9.4-5.7-9.6-5.5-9.9"/>
		<path id="Layer" fill-rule="evenodd" class="s7" d="m2575.7 2297.3l1.2 5.4 0.8 5.4 0.4 5.7v5.7l-0.4 5.9-0.8 5.9-1.2 6.2-1.6 6.2-4 15.1-2.9 12.4-1.5 9.8-0.6 7.1 0.4 7.6 0.6 7.6 1 7.4 1.3 7.2 1.6 7.1 2 6.9 2.2 6.9 2.7 6.7 3.4 7.5 3.8 7.4 4.4 7.3 4.7 7.1 5.2 6.7 5.7 6.7 6 6.5 6.5 6.4 8.2 7.2 8.4 7 8.6 6.6 8.8 6.1 9.2 5.9 9.2 5.4 9.5 5.2 9.6 4.6 8.5 3.8 8.5 3.4 8.8 3.1 8.7 2.9 8.8 2.5 9 2.2 9.1 2 9.1 1.7 9.4 1.3 9.2 1.1 9.4 0.8 9.5 0.5 9.5 0.2 9.5-0.2 9.5-0.5 9.5-0.7 9.6-1.2 9.5-1.3 9.6-1.6 9.5-1.9 9.5-2.3 9.5-2.6 9.4-2.8 9.4-3.2 9.4-3.4 9.2-3.7 9.1-3.9 9-4.3 8.9-4.6 8.8-4.7 8.5-5 8.6-5.3 4-2.9 4.2-3.6 4.2-4.2 4.4-4.9 4.5-5.5 4.6-6.2 4.6-7 4.9-7.6"/>
		<path id="Layer" fill-rule="evenodd" class="s8" d="m2986.6 2605.6l-17.9 6.3-17.8 6.6-17.7 6.9-17.6 7.2-17.3 7.4-17 7.8-17 7.9-16.8 8.3-50 25.1-39.2 19.4-28.3 13.6-17.7 7.8-39.2 15.4-39.5 14.5-39.6 13.9-40 12.9-23.4 7.3-23.5 6.8-23.7 6.6-23.7 6.4-23.8 6.2-23.8 5.7-24.1 5.5-24 5.3-29.3 5.6-32 5.3-35.7 5-48.7 6.1-53.5 6.7-18.5 2.4-18.8 2-19.1 1.8-19.3 1.5-19.5 1.3-19.8 1.1-20.2 0.6-20.3 0.6-99.6 1.3-89.4 0.1-40.8-0.3-38.1-0.5-35.5-0.9-33-1.1-25.7-1.1-25.6-1.4-25.6-1.7-25.6-1.8-25.5-2.3-25.6-2.5-25.5-2.8-25.4-3-34.1-4.5-33.9-4.9-33.9-5.5-33.9-5.9-33.8-6.4-33.8-7-33.6-7.4-33.7-7.9-33.5-8.3-33.5-9-33.5-9.3-33.4-9.8-33.3-10.4-33.2-10.8-33.3-11.4-33.1-11.7-19.3-7.3-19.9-7.8-20.9-8.6-21.5-9.2-22.1-9.9-23.1-10.6-23.8-11.2-24.5-11.8-171.5-84.9"/>
		<path id="Layer" fill-rule="evenodd" class="s7" d="m583.3 2470.6l8.4 9.1 8.7 8.5 9 8.1 9.3 7.7 9.5 7.1 9.7 6.7 10 6.1 10.2 5.7 9.9 4.8 10.2 4.5 10.3 4 10.5 3.7 10.8 3 11 2.8 11.2 2.2 11.5 1.9 11.6 1.4 12 1.1 12.2 0.5 12.2 0.1 12.7-0.2 12.8-0.8 12.9-1.2 13.4-1.6 12.6-2 12.3-2.6 11.9-3 11.7-3.7 11.2-4.1 11.1-4.8 10.7-5.3 10.3-5.8 9.8-6.2 9.3-6.6 9.3-7.1 8.8-7.8 8.5-8.2 8.1-8.7 8-9.1 7.6-9.7 4.1-5.8 3.8-6 3.6-5.9 3.2-6.1 2.7-6.2 2.7-6.2 2.1-6.3 1.8-6.4 2.4-10.8 1.5-11.1 0.6-11.2-0.4-11.5-1.2-11.7-2.1-12-3-12.3-3.8-12.4-1.4-4.6-0.9-4.5-0.2-4.5 0.1-4.5 0.9-5.3 1.7-5.2 2.4-5.2 3.2-5.1"/>
		<path id="Layer" fill-rule="evenodd" class="s6" d="m1385.1 2129.3l-4.4 9.4-4.7 9.2-5 9-5.3 8.8-5.7 8.6-5.9 8.3-6.2 8.2-6.5 7.9-6.7 7.7-7 7.4-7.4 7.2-7.5 6.9-7.8 6.6-8 6.3-8.4 6.1-8.3 5.7-8.7 5.5-8.8 5-9.1 4.9-9.1 4.4-9.4 4.2-9.5 3.7-9.6 3.4-9.7 3-9.9 2.8-9.9 2.4-9.9 2-10.1 1.5-10.1 1.4-10.1 0.9-10.2 0.5-10.1 0.2-12.4-0.4-12.6-0.8-12.3-1.5-12.4-2-12.1-2.6-12.1-3-12.1-3.6-11.8-4.2"/>
		<path id="Layer" fill-rule="evenodd" class="s5" d="m1028.3 2280.3l-16.5-8.2-16-9-15.3-9.7-14.8-10.6-7.9-6.1-7.7-6.3-7.5-6.6-7.4-6.9-7.2-7-7-7.2-6.9-7.5-6.6-7.8"/>
	</g>
	<g id="Layer">
		<path id="Layer" class="s9" d="m1186.5 851.8l-2.9 4.4-3.2 3.5-3.4 2.3-1.7 0.8-1.9 0.6-3.8 0.2-4-0.8-4.2-1.8-4.3-2.8-4.4-3-8.8-5.4-9.7-4.6-10.7-4.3-14.9-5.1-16.6-5.7-12-4.7-11.6-5.3-10-5.2-9.9-5.5-27.6-16.1-28.5-15.8-29.6-15.9-30.5-15.7-22.4-10.8-22.4-9.6-22.7-8.9-22.9-7.6-18.7-6.1-25.9-8.7-39.3-13.2-29-8.8-13.5-3.7-12.9-3.2-12.4-2.8-12-2.2-14.3-2.3-14.8-1.4-15.5-1.1-16.3-0.4-16.7 0.2-18.4 0.6-20.3 1.2-27.7 2.1-17.4 1.3h-2.7l-2.3-0.2-2.2-0.7-1.8-1-1.8-1.5-1.6-1.8-1.2-2.3-1.1-2.6-0.8-3.1-0.4-3.5-0.2-3.8v-4.3l14.1-3.9 13.5-3.1 12.6-2.2 12.2-1.3 15-1 14.9-0.3h14.9l14.9 0.5 19.2 1.3 19.2 2 19 2.9 19.2 3.5 19.4 4.3 19.1 4.3 19.2 4.8 18.8 5 18.9 5.1 18.7 5.6 18.6 5.7 18.5 6 18.4 6.2 18.2 6.6 18 6.8 18.1 7.1 17.8 7.2 17.7 7.7 17.7 7.8 17.4 8.2 26.4 12.8 26 13.3 25.8 14.1 25.4 14.5 25.2 15.3 24.8 15.7 24.7 16.5z"/>
		<path id="Layer" class="s9" d="m2211.6 2136.6l5.5 9.9 5.7 9.6 5.8 9.4 6.1 8.9 6.2 8.7 6.5 8.5 6.6 8.2 6.8 7.8 7 7.5 7.1 7.1 7.4 6.9 7.6 6.6 7.7 6.3 8 5.9 8.1 5.7 8.4 5.4 12.6 7.4 13.2 6.9 13.5 6 14 5.5 14.4 4.7 14.9 4.1 15.1 3.3 15.6 2.8 16.1 2.1 16.5 1.3 16.9 0.8h17.3l17.8-0.7 18.1-1.3 18.6-2 19-2.6 1.2 5.4 0.8 5.4 0.4 5.7v5.7l-0.4 5.9-0.8 5.9-1.2 6.2-1.6 6.2-4 15.1-2.9 12.4-1.5 9.8-0.6 7.1 0.4 7.6 0.6 7.6 1 7.4 1.3 7.2 1.6 7.1 2 6.9 2.2 6.9 2.7 6.7 3.4 7.5 3.8 7.4 4.4 7.3 4.7 7.1 5.2 6.7 5.7 6.7 6 6.5 6.5 6.4 8.2 7.2 8.4 7 8.6 6.6 8.8 6.1 9.2 5.9 9.2 5.4 9.5 5.2 9.6 4.6 8.5 3.8 8.5 3.4 8.8 3.1 8.7 2.9 8.8 2.5 9 2.2 9.1 2 9.1 1.7 9.4 1.3 9.2 1.1 9.4 0.8 9.5 0.5 9.5 0.2 9.5-0.2 9.5-0.5 9.5-0.7 9.6-1.2 9.5-1.3 9.6-1.6 9.5-1.9 9.5-2.3 9.5-2.6 9.4-2.8 9.4-3.2 9.4-3.4 9.2-3.7 9.1-3.9 9-4.3 8.9-4.6 8.8-4.7 8.5-5 8.6-5.3 4-2.9 4.2-3.6 4.2-4.2 4.4-4.9 4.5-5.5 4.6-6.2 4.6-7 4.9-7.6 56.9 3.1 2.9 0.5 2.9 1.1 2.5 1.5 1.9 2.2 1.8 2.6 1 2.8 0.4 2.9-0.1 2.9-0.4 1.6-2.4 6.3-3.3 6.1-4.2 6-5.3 6-21.1 21.2-21.2 20.6-21.3 19.7-21.4 19-17.9 6.3-17.8 6.6-17.7 6.9-17.6 7.2-17.3 7.4-17 7.8-17 7.9-16.8 8.3-50 25.1-39.2 19.4-28.3 13.6-17.7 7.8-39.2 15.4-39.5 14.5-39.6 13.9-40 12.9-23.4 7.3-23.5 6.8-23.7 6.6-23.7 6.4-23.8 6.2-23.8 5.7-24.1 5.5-24 5.3-29.3 5.6-32 5.3-35.7 5-48.7 6.1-53.5 6.7-18.5 2.4-18.8 2-19.1 1.8-19.3 1.5-19.5 1.3-19.8 1.1-20.2 0.6-20.3 0.6-99.6 1.3-89.4 0.1-40.8-0.3-38.1-0.5-35.5-0.9-33-1.1-25.7-1.1-25.6-1.4-25.6-1.7-25.6-1.8-25.5-2.3-25.6-2.5-25.5-2.8-25.4-3-34.1-4.5-33.9-4.9-33.9-5.5-33.9-5.9-33.8-6.4-33.8-7-33.6-7.4-33.7-7.9-33.5-8.3-33.5-9-33.5-9.3-33.4-9.8-33.3-10.4-33.2-10.8-33.3-11.4-33.1-11.7-19.3-7.3-19.9-7.8-20.9-8.6-21.5-9.2-22.1-9.9-23.1-10.6-23.8-11.2-24.5-11.8-171.5-84.9-66.9-69.8-2.3-3.2-1.6-3.5-0.7-3.9 0.3-3.8 1-3.7 2-3.4 2.7-2.8 3.3-2.1 2.2-0.9 2.4-0.7 8.3-1.2 7.9-0.9 7.7-0.4h7.2l6.9 0.4 6.6 0.8 6.2 1.2 5.8 1.6 8.4 9.1 8.7 8.5 9 8.1 9.3 7.7 9.5 7.1 9.7 6.7 10 6.1 10.2 5.7 9.9 4.8 10.2 4.5 10.3 4 10.5 3.7 10.8 3 11 2.8 11.2 2.2 11.5 1.9 11.6 1.4 12 1.1 12.2 0.5 12.2 0.1 12.7-0.2 12.8-0.8 12.9-1.2 13.4-1.6 12.6-2 12.3-2.6 11.9-3 11.7-3.7 11.2-4.1 11.1-4.8 10.7-5.3 10.3-5.8 9.8-6.2 9.3-6.6 9.3-7.1 8.8-7.8 8.5-8.2 8.1-8.7 8-9.1 7.6-9.7 4.1-5.8 3.8-6 3.6-5.9 3.2-6.1 2.7-6.2 2.7-6.2 2.1-6.3 1.8-6.4 2.4-10.8 1.5-11.1 0.6-11.2-0.4-11.5-1.2-11.7-2.1-12-3-12.3-3.8-12.4-1.4-4.6-0.9-4.5-0.2-4.5 0.1-4.5 0.9-5.3 1.7-5.2 2.4-5.2 3.2-5.1 11.8 4.2 12.1 3.6 12.1 3 12.1 2.6 12.4 2 12.3 1.5 12.6 0.8 12.4 0.4 10.1-0.2 10.2-0.5 10.1-0.9 10.1-1.4 10.1-1.5 9.9-2 9.9-2.4 9.9-2.8 9.7-3 9.6-3.4 9.5-3.7 9.4-4.2 9.1-4.4 9.1-4.9 8.8-5 8.7-5.5 8.3-5.7 8.4-6.1 8-6.3 7.8-6.6 7.5-6.9 7.4-7.2 7-7.4 6.7-7.7 6.5-7.9 6.2-8.2 5.9-8.3 5.7-8.6 5.3-8.8 5-9 4.7-9.2 4.4-9.4 4.6 0.9 4.5 0.6 4.4 0.2h4.3l4.1-0.4 4.1-0.5 4-0.9 3.8-1.2 4.5-1.9 4.3-2.2 4.1-2.6 4.1-3.1 3.8-3.4 3.7-4 3.6-4.2 3.4-4.7 15.2-22.2 14.3-19.9 13.4-18.5 13.1-17 12.8-16 12.8-15.2 12.5-14.1 12.7-13.5 12.8-12.8 12.9-12.1 13-11.4 13.3-10.8 13.4-10.1 13.8-9.7 13.8-9.1 14.3-8.4 15.3-8.3 15.7-7.7 16.2-7.2 16.5-6.6 12-4.3 12.4-3.4 12.2-2.6 12.5-2 11.2-1.2 11.2-0.5 11.4 0.1 11.2 0.5 11.4 1.3 11.6 1.8 11.4 2.3 11.8 3.1 11.6 3.5 11.9 4.3 11.7 4.7 11.9 5.3 11.9 5.9 12 6.6 12 7 12 7.7 12.1 8.3 12.2 8.8 12.1 9.4 12.3 10 12.1 10.6 12.2 11.1 12.3 11.6 12.1 12.1 12.1 12.8 12 13.2 12.1 13.9 11.8 14.1 11.9 14.6 11.6 15.1 11.5 15.3 11.1 15.6 5.5 7.1 6.4 7 7.1 6.5 7.9 6.3z"/>
	</g>
	<g id="Layer">
		<path id="Layer" class="s0" d="m1385.1 2129.3l-4.4 9.4-4.7 9.2-5 9-5.3 8.8-5.7 8.6-5.9 8.3-6.2 8.2-6.5 7.9-6.7 7.7-7 7.4-7.4 7.2-7.5 6.9-7.8 6.6-8 6.3-8.4 6.1-8.3 5.7-8.7 5.5-8.8 5-9.1 4.9-9.1 4.4-9.4 4.2-9.5 3.7-9.6 3.4-9.7 3-9.9 2.8-9.9 2.4-9.9 2-10.1 1.5-10.1 1.4-10.1 0.9-10.2 0.5-10.1 0.2-12.4-0.4-12.6-0.8-12.3-1.5-12.4-2-12.1-2.6-12.1-3-12.1-3.6-11.8-4.2-16.5-8.2-16-9-15.3-9.7-14.8-10.6-7.9-6.1-7.7-6.3-7.5-6.6-7.4-6.9-7.2-7-7-7.2-6.9-7.5-6.6-7.8-7.5-11.2-7-11.5-6.5-11.9-5.9-12-5.4-12.6-4.9-12.5-4.3-12.9-3.9-13.1-3.1-13.2-2.7-13.3-2.1-13.5-1.4-13.6-0.8-13.7-0.4-13.6 0.4-13.6 0.8-13.6 1.4-13.4 2.1-13.4 2.7-13.1 3.1-13.2 3.9-12.8 4.3-12.7 4.8-12.4 5.5-12.2 5.8-11.7 6.5-11.5 7-11.1 7.5-10.8 7.8-10.3 8.4-9.9 8.7-9.5 9.4-9.1 8.4-7.6 8.9-7.3 9.1-6.9 9.4-6.6 9.7-6 9.9-5.8 10.3-5.3 10.6-5 10.4-4.5 10.6-4.1 10.4-3.6 10.5-3.3 10.7-2.7 10.6-2.6 10.5-1.9 10.6-1.6 10.7-1.2 10.5-0.7 10.6-0.4 10.6 0.2 10.5 0.5 10.4 0.9 10.5 1.3 10.3 1.8 10.5 2.3 10.6 2.7 10.3 3.1 10.3 3.6 10 4 9.9 4.3 9.8 4.8 9.6 5.3 9.4 5.5 9.2 6.1 9 6.3 8.8 6.9 8.5 7.1 8.3 7.4 7.9 7.8 7.6 8.1 7.3 8.5 7.1 8.7 6.8 9 6.3 9.3 5.9 9.4 5.7 9.8 5.3 10 4.9 10.2 4.5 10.3 4 10.5 3.7 10.6 3.3 10.7 2.9 10.9 2.4 11 2.1 11.1 1.6 11 1.1 10.2 0.8 10.2 0.2 10.1 0.2 10.2-0.4 10.1-0.7 10.2-1.1 10.2-1.4 10.1-1.7 10.2-2.1 10.2-2.4 10-2.8 10-3.1 9.8-3.5 9.9-3.8 9.7z"/>
		<path id="Layer" class="s0" d="m2681.9 2217.2l-106.2 80.1-19 2.6-18.6 2-18.1 1.3-17.8 0.7h-17.3l-16.9-0.8-16.5-1.3-16.1-2.1-15.6-2.8-15.1-3.3-14.9-4.1-14.4-4.7-14-5.5-13.5-6-13.2-6.9-12.6-7.4-8.4-5.4-8.1-5.7-8-5.9-7.7-6.3-7.6-6.6-7.4-6.9-7.1-7.1-7-7.5-6.8-7.8-6.6-8.2-6.5-8.5-6.2-8.7-6.1-8.9-5.8-9.4-5.7-9.6-5.5-9.9-4-11-3.5-11.1-3.3-11.2-2.8-11.2-2.5-11.4-2.2-11.3-1.8-11.5-1.4-11.5-0.9-11.4-0.7-11.5-0.3-11.4 0.2-11.5 0.4-11.2 0.9-11.3 1.3-11.1 1.6-11.1 2-10.9 2.4-10.7 2.7-10.6 3.1-10.4 3.4-10.3 3.8-10.2 4.2-9.7 4.5-9.7 4.8-9.3 5.3-9.3 5.4-9 5.9-8.7 6.1-8.3 6.4-8.2 6.8-7.7 7.1-7.7 6.6-6.6 7-6.5 7.1-6 7.4-6 9.9-7.4 9.9-6.7 10.3-6.5 10.2-5.9 10.5-5.5 10.6-5.2 10.8-4.5 10.8-4.2 11-3.6 10.9-3.3 11.2-2.6 11.1-2.2 11.4-1.8 11.2-1.3 11.5-0.6 11.3-0.4 13.1 0.4 13.2 0.9 13 1.6 13 2.2 12.9 2.9 12.7 3.4 12.6 4.3 12.4 4.7 12.2 5.3 12 6.1 11.6 6.4 11.4 7.2 11 7.6 10.7 8.2 10.3 8.7 9.9 9.2 9.4 9.7 9.1 10.1 8.4 10.5 8.1 10.9 7.5 11.2 7 11.6 6.3 11.9 6.1 12.3 5.3 12.5 4.9 12.8 4.2 13 3.6 13.3 3.1 13.5 2.5 13.5 1.9 13.9 1.3 14 0.9 17.3v17l-0.6 16.9-1.6 16.5-2.4 16.2-3 16-4 15.7-4.7 15.4-4.5 12.4-5 12.2-5.6 12-5.9 11.9-6.6 11.6-7.1 11.5-7.7 11.3z"/>
	</g>
	<path id="Layer" class="s10" d="m3005.1 2286.9l-4-5.6-4.2-5.4-4.5-5.1-4.6-5-7.8-7.3-8.4-6.9-8.9-6.3-9.5-5.7-9.9-5.1-10.5-4.8-11.1-4.1-11.6-3.5-21.5-5.6-20.6-4.6-19.4-3.4-18.4-2.5-6-0.4-7-0.2-7.9 0.2-8.7 0.6-20.4 2.2-23.7 3.4-12.3 1.8-12.3 1.4-12.5 1.1-12.4 0.7-12.5 0.4h-12.6l8.2-11.1 7.7-11.3 7.1-11.5 6.6-11.6 5.9-11.9 5.6-12 5-12.2 4.5-12.4 4.7-15.4 4-15.7 3-16 2.4-16.2 1.6-16.5 0.6-16.9v-17l-0.9-17.3-1.3-14-1.9-13.9-2.5-13.5-3.1-13.5-3.6-13.3-4.2-13-4.9-12.8-5.3-12.5-6.1-12.3-6.3-11.9-7-11.6-7.5-11.2-8.1-10.9-8.4-10.5-9.1-10.1-9.4-9.7-9.9-9.2-10.3-8.7-10.7-8.2-11-7.6-11.4-7.2-11.6-6.4-12-6.1-12.2-5.3-12.4-4.7-12.6-4.3-12.7-3.4-12.9-2.9-13-2.2-13-1.6-13.2-0.9-13.1-0.4-11.3 0.4-11.5 0.6-11.2 1.3-11.4 1.8-11.1 2.2-11.2 2.6-10.9 3.3-11 3.6-10.8 4.2-10.8 4.5-10.6 5.2-10.5 5.5-10.2 5.9-10.3 6.5-9.9 6.7-9.9 7.4-7.4 6-7.1 6-7 6.5-6.6 6.6-7.1 7.7-6.8 7.7-6.4 8.2-6.1 8.3-5.9 8.7-5.4 9-5.3 9.3-4.8 9.3-4.5 9.7-4.2 9.7-3.8 10.2-3.4 10.3-3.1 10.4-2.7 10.6-2.4 10.7-2 10.9-1.6 11.1-1.3 11.1-0.9 11.3-0.4 11.2-0.2 11.5 0.3 11.4 0.7 11.5 0.9 11.4 1.4 11.5 1.8 11.5 2.2 11.3 2.5 11.4 2.8 11.2 3.3 11.2 3.5 11.1 4 11-29.7-21.8-7.9-6.3-7.1-6.5-6.4-7-5.5-7.1-11.1-15.6-11.5-15.3-11.6-15.1-11.9-14.6-11.8-14.1-12.1-13.9-12-13.2-12.1-12.8-12.1-12.1-12.3-11.6-12.2-11.1-12.1-10.6-12.3-10-12.1-9.4-12.2-8.8-12.1-8.3-12-7.7-12-7-12-6.6-11.9-5.9-11.9-5.3-11.7-4.7-11.9-4.3-11.6-3.5-11.8-3.1-11.4-2.3-11.6-1.8-11.4-1.3-11.2-0.5-11.4-0.1-11.2 0.5-11.2 1.2-12.5 2-12.2 2.6-12.4 3.4-12 4.3-16.5 6.6-16.2 7.2-15.7 7.7-15.3 8.3-14.3 8.4-13.8 9.1-13.8 9.7-13.4 10.1-13.3 10.8-13 11.4-12.9 12.1-12.8 12.8-12.7 13.5-12.5 14.1-12.8 15.2-12.8 16-13.1 17-13.4 18.5-14.3 19.9-15.2 22.2-3.4 4.7-3.6 4.2-3.7 4-3.8 3.4-4.1 3.1-4.1 2.6-4.3 2.2-4.5 1.9-3.8 1.2-4 0.9-4.1 0.5-4.1 0.4h-4.3l-4.4-0.2-4.5-0.6-4.6-0.9 4.1-9.8 3.8-9.7 3.5-9.9 3.1-9.8 2.8-10 2.4-10 2.1-10.2 1.7-10.2 1.4-10.1 1.1-10.2 0.7-10.2 0.4-10.1-0.2-10.2-0.2-10.1-0.8-10.2-1.1-10.2-1.6-11-2.1-11.1-2.4-11-2.9-10.9-3.3-10.7-3.7-10.6-4-10.5-4.5-10.3-4.9-10.2-5.3-10-5.7-9.8-5.9-9.4-6.3-9.3-6.8-9-7.1-8.7-7.3-8.5-7.6-8.1-7.9-7.8-8.3-7.4-8.5-7.1-8.8-6.9-9-6.3-9.2-6.1-9.4-5.5-9.6-5.3-9.8-4.8-9.9-4.3-10-4-10.3-3.6-10.3-3.1-10.6-2.7-10.5-2.3-10.3-1.8-10.5-1.3-10.4-0.9-10.5-0.5-10.6-0.2-10.6 0.4-10.5 0.7-10.7 1.2-10.6 1.6-10.5 1.9-10.6 2.6-10.7 2.7-10.5 3.3-10.4 3.6-10.6 4.1-10.4 4.5-10.6 5-10.3 5.3-9.9 5.8-9.7 6-9.4 6.6-9.1 6.9-8.9 7.3-8.4 7.6-9.4 9.1-8.7 9.5-8.4 9.9-7.8 10.3-7.5 10.8-7 11.1-6.5 11.5-5.8 11.7-5.5 12.2-4.8 12.4-4.3 12.7-3.9 12.8-3.1 13.2-2.7 13.1-2.1 13.4-1.4 13.4-0.8 13.6-0.4 13.6 0.4 13.6 0.8 13.7 1.4 13.6 2.1 13.5 2.7 13.3 3.1 13.2 3.9 13.1 4.3 12.9 4.9 12.5 5.4 12.6 5.9 12 6.5 11.9 7 11.5 7.5 11.2-0.9 4.1-1.3 3.5-1.9 3.1-2.3 2.3-2 1.4-2.1 1-2.4 0.8-2.6 0.4-3 0.1-3-0.1-7-1.1-14-3-13.7-2.4-13.5-2.1-13.3-1.4-13-1.1-13-0.5-12.8-0.1-12.4 0.3-12.3 1-12.1 1.4-11.9 1.9-11.7 2.3-11.5 2.8-11.2 3.3-11.1 3.8-10.8 4.4-11.9 5.3-11.5 5.8-11.2 6.6-11 7-10.8 7.6-10.4 8.3-10.3 8.9-10 9.4-178.7-19-3.2-0.8-1.3-0.7-1.2-0.9-0.9-1.1-0.8-1.3-0.9-3.3-2.3-14.8 1.8-5.8 1.3-5.3 0.9-4.4 0.4-4v-3.4l-0.5-2.7-1-2.1-1.4-1.6-1.5-0.6-1.7-0.4-2 0.1-2.2 0.4-2.1-2.9-1.5-2.8-1-2.6-0.5-2.5v-2l0.4-2 0.7-1.8 1.2-1.7 1.6-1.4 1.9-0.9 1.8-0.5h2.1l1.7 0.2 20.4 5.3 20.4 4.8 20.3 3.9 20.5 3.5 20.4 2.7 20.5 2.2 20.5 1.5 20.5 0.8 18.5 0.3 18.6-0.1 18.5-0.8 18.6-1.4 1.7-0.2 1.7-0.7 1.6-0.9 1.5-1.1 1.2-1.3 0.9-1.6 0.8-1.7 0.4-1.7 0.6-4.5 0.3-4.6v-4.5l-0.1-4.5-0.7-5.2-0.9-5.2-1.3-5.1-1.8-5.2-0.9-2.1-1.2-2.1-1.3-1.9-1.6-1.8-3.8-2.9-4.2-2-16.4-5-16.5-4.1-15-2.9-15.3-2.2-46.1-5.3-45.5-4.8-45-4.3-44.5-3.9-3.2-0.7-1.3-0.7-1-0.8-0.8-1.1-0.7-1.3-0.8-3.1-2.2-29.3-1.6-28.9-0.9-28.9-0.3-28.5 0.5-28.4 1.2-28.1 1.9-27.9 2.5-27.7 3.3-27.4 3.8-27.2 4.6-27.1 5.3-26.8 6.1-26.5 6.6-26.4 7.4-26.1 8-25.9 8.2-24.1 8.8-24 9.7-24.7 10-24.4 10.4-24 10.7-23.9 11.1-23.4 11.3-23.1 11.8-22.7 12.1-22.4 12.3-21.9 12.8-21.8 12.9-21.2 13.5-21 13.6-20.5 14.1-20.2 14.3-19.6 14.6-19.6 14.9-18.8 15.2-18.6 15.6-18.2 15.8-17.9 16.1-17.2 16.5-17.1 16.6-16.6 17.2-16.1 17.3-15.8 17.5-15.3 18-15 18.2-14.6 18.3-14 18.8-13.7 19-13.3 19.4-12.8 7.6-5.1 4.8-3.4 4.2-3.7 3.6-3.9 3.1-4.4 2.4-4.5 2-4.7 1.4-5.1 1-5.2 0.1-3.5-0.7-3.1-1.4-3.2-2.1-2.9-9.9-10.3-10.5-10.3-11-10.4-11.8-10.3-12.1-10.3-12.6-10.2-13-10-13.5-9.9-13.7-9.6-14-9.4-14.1-9-14.4-8.8-14.4-8.3-14.5-8.1-14.7-7.6-14.5-7.3-14.2-6.7-14-6.1-14.1-5.8-13.9-5.3-13.7-4.8-13.5-4.4-13.3-3.8-12.9-3.3-12.7-2.9-12.5-2.3-12-1.8-12.1-1.3-11.3-0.8-11.2-0.3-10.8 0.1-10.6 0.8-3.4 0.7-3.2 1-2.9 1.8-2.6 2.1-4.8 5.1-4.6 6.1-4.4 6.8-4.2 7.7-3.8 8.3-3.7 9.3-3.4 10.1-3.3 10.8-3.1 11.5-2.7 12.3-2.7 13.3-2.4 14-2.2 14.7-2.1 15.9-4.4 39.6-2 18.5-2.3 23.5-1.9 23.5-1.3 23.2-0.8 23.1-0.3 23.1 0.3 22.8 0.8 22.7 1.3 22.6 1.9 22.4 2.2 22.2 2.9 22.1 3.5 22.1 3.9 21.8 4.5 21.7 4.9 21.5 5.5 21.6 0.8 2.7 0.3 2v2l-0.4 1.6-0.7 1.4-55.3 104.3-0.9 0.6-0.5-0.1-0.4-0.3-0.3-0.4-8.7-28.3-8-28.3-7.2-28.1-6.3-28-5.5-27.9-4.8-27.9-4.1-27.8-3.2-27.9-2.3-24.9-1.6-24.8-1.1-25-0.5-25 0.1-25.2 0.7-25.6 1.3-25.6 1.9-26.2 2.5-26.2 3-26.7 3.7-27 4.4-27.6 4.8-28.1 5.6-28.5 6-29.2 6.9-30 3-11.7 3.2-11.5 3.6-11.2 3.8-10.8 4.1-10.4 4.4-10.2 4.6-9.9 4.9-9.5 5.1-9.1 5.5-8.9 5.7-8.5 6.1-8.2 6.2-7.9 6.6-7.6 6.8-7.2 7.2-6.9v4.3l0.2 3.8 0.4 3.5 0.8 3.1 1.1 2.6 1.2 2.3 1.6 1.8 1.8 1.5 1.8 1 2.2 0.7 2.3 0.2h2.7l17.4-1.3 27.7-2.1 20.3-1.2 18.4-0.6 16.7-0.2 16.3 0.4 15.5 1.1 14.8 1.4 14.3 2.3 12 2.2 12.4 2.8 12.9 3.2 13.5 3.7 29 8.8 39.3 13.2 25.9 8.7 18.7 6.1 22.9 7.6 22.7 8.9 22.4 9.6 22.4 10.8 30.5 15.7 29.6 15.9 28.5 15.8 27.6 16.1 9.9 5.5 10 5.2 11.6 5.3 12 4.7 16.6 5.7 14.9 5.1 10.7 4.3 9.7 4.6 8.8 5.4 4.4 3 4.3 2.8 4.2 1.8 4 0.8 3.8-0.2 1.9-0.6 1.7-0.8 3.4-2.3 3.2-3.5 2.9-4.4v4.3l0.5 3.7 1.3 3 1.9 2.2 2 1.3 2.6 0.8 3 0.2 3.5-0.2 3.9-1 4.4-1.4 4.9-1.9 5.3-2.5 20.3-9.6 21.6-9.6 23-9.5 24.1-9.3 9.7 37.4 10.3 37.3 10.8 37.1 11.5 37 2.7 7.6 3.5 8.2 3.9 8 4.5 8.1 4.8 7.5 5.1 7.1 5.3 6.5 5.4 5.8 5.3 5 5.2 4.4 5.5 3.5 5.4 2.9 5.2 2.2 5.3 1.3 5.2 0.5 5.3-0.1 5.1-1 5-1.8 5-2.5 4.9-3.3 4.8-4.1 4.6-4.9 4.5-5.5 4.5-6.5 5.9-9.9 4.6-9.4 3.6-8.9 2.3-8.6 2.4-12.1 2.1-12.3 1.8-12.6 1.4-12.5 1.1-12.8 0.7-13.1 0.4-13 0.2-13.4-0.3-13.4-0.5-13.7-0.9-13.9-1.2-14-1.6-14.1-1.9-14.4-2.2-14.5-2.5-14.7 66.2-12.5 1.9 24.3 2.4 24.1 2.9 23.9 3.3 23.7 3.9 23.3 4.4 23.2 4.7 23 5.4 22.8 3.7 13.7 4.3 13.1 4.6 12.7 5.1 12 5.6 11.5 6 10.8 6.6 10.4 7 9.8 3.1 3.7 3.1 3.3 3.5 3.3 3.5 2.9 3.9 2.6 3.9 2.3 4 1.9 4.1 1.8 4.2 1.3 4.2 0.9 4.2 0.7 4.4 0.2 4.2-0.1 4.2-0.4 4-0.9 3.9-1.2 4.3-1.6 3.9-2 3.7-2.5 3.7-2.8 3.3-3 3.2-3.6 2.9-3.6 2.8-4.3 3.3-5.8 3-5.9 3-6.4 2.7-6.5 5-14.2 4.3-15 3.5-16.2 2.9-17.3 2-18.2 1.3-19.2 0.6-20.4-0.1-21.3-1.1-22-1.7-22.5-2.3-22.9-3.3-23.2-3.9-22.6-4.5-21.8 122.5-1.4-0.8 26.1-0.1 26 0.5 25.9 1.1 25.8 1.7 25.6 2.4 25.6 3 25.6 3.7 25.4 5 29.5 5.9 29.5 2.1 8.5 2.6 8.2 2.7 7.7 3.2 7.2 3.6 6.8 3.9 6.3 4.2 5.9 4.7 5.4 3.4 3.5 3.6 3.1 3.8 2.7 3.8 2.4 4 1.9 3.9 1.6 4.2 1.1 4.1 0.8 3.7 0.2h3.7l3.7-0.2 3.7-0.7 3.7-0.9 3.7-1.2 3.6-1.6 3.5-1.7 3.6-2.1 3.4-2.4 3.5-2.6 3.1-2.9 6.1-6.5 5.5-7.4 6.9-10.7 5.3-9.1 3.9-7.9 2.4-6.3 7.5-26.7 6.8-26.9 5.4-24.4 4.6-24.6 4.1-24.8 3.3-24.9 2.8-25 1.9-25.2 1.4-25.4 0.6-25.5 91.6 20.8-2.5 14.8-2.3 14.9-1.9 15.1-1.7 15-2.7 30.5-1.6 30.8-0.4 14.9 0.2 14.5 0.6 14.1 1.1 13.3 1.4 12.6 2 11.8 2.4 11.1 2.8 10.2 3.1 9.4 3.7 8.4 4 7.5 4.5 6.6 4.9 6 5.1 4.8 5.7 4.1 6 3.1 4 1.6 3.7 1 3.6 0.8 3.7 0.4 3.6 0.1 5.5-0.4 5.2-0.9 5.3-1.6 5.3-2.2 5.1-2.9 5.2-3.6 5-3.9 4.9-4.8 4.7-5.3 4.7-5.9 4.2-6.2 3.9-6.6 3.6-7 3-7 2.5-7.1 1.9-6.8 6.9-30.3 6.3-30.9 5.7-31.4 5.1-31.8 0.7-3.6 1.2-3.4 1.3-3 1.8-2.9 2.4-2.9 2.8-2.7 4.9-3.4 5.5-2.6 6.1-2 6.7-1.2 85.5 29.5 2.9 0.6 3-0.2 2.8-0.9 2.5-1.6 17.2-14 14.1-11 14.4-10.9 14.6-10.5 14.8-10.2 15.1-10 15.1-9.6 15.6-9.4 15.7-9.1 15.8-8.9 16.3-8.5 16.3-8.3 16.5-8.1 16.9-7.8 17.1-7.4 17.2-7.2 17.5-6.9 41.8-15.6 41.6-14.3 20.4-6.6 19.9-6.2 19.7-5.9 19-5.4 18.5-4.8 18.2-4.5 17.4-4.1 17-3.6 16.5-3.2 15.9-2.6 15.1-2.2 14.8-1.8 14-1.3 13.3-0.9 12.8-0.4h12.2l11.6 0.5 10.9 1 10.5 1.3 9.7 1.8 9.3 2.3 8.4 2.7 7.8 3.2 7.4 3.6 6.6 4.1 6.1 4.4 5.4 4.9 4.9 5.4 7.9 10.5 7.4 11.1 6.8 11.8 6.5 12.6 5.8 13 5.4 13.9 5 14.6 4.4 15.2 6.8 26.5 6.4 26.6 5.7 26.5 5.1 26.4 4.6 26.4 4.1 26.4 3.4 26.2 3.1 26.3 2.2 26.2 1.9 26.2 1.2 26.2 0.6 26 0.1 26.2-0.4 26-1 26-1.6 26-2.5 29.8-3.2 29.7-4.1 29.7-4.7 29.7-5.4 29.5-6.4 29.6-6.8 29.5-7.8 29.5-1.5 4.4-1.7 3.5-1.7 2.1-1 0.5-1 0.3h-1l-1.1-0.4-2.2-1.6-2.4-2.8-2.5-3.9-33.4-58.8-2.4-4.6-1.8-4.9-1.5-5-1-5.1-0.5-5.2v-5.2l0.5-5.2 0.9-5.1 6.7-30.8 5.8-30.9 4.9-31 4-31 2-18.5 1.7-18.4 1.3-18.6 0.9-18.5 0.7-18.6 0.4-18.8 0.1-18.6-0.3-18.7-0.6-18.7-0.9-18.9-1.2-18.8-1.6-18.8-1.9-19-2.1-18.9-2.5-19-2.7-19-2.8-16.6-3.2-16.1-3.7-15.9-3.9-15.4-4.4-15.1-4.7-14.6-5.3-14.4-5.6-13.8-2.3-4.8-2.9-4.1-3.5-3.7-3.9-3.1-4.5-2.8-5.2-2.4-5.5-1.8-6.3-1.4-6.6-1-7.2-0.4h-7.8l-8.3 0.4-8.7 0.9-9.2 1.3-9.8 1.9-10 2.2-10.6 2.7-10.8 3.1-19.1 6.1-19 6.9-19.2 7.6-19.1 8.5-19.1 9.2-19 9.9-19.3 10.7-19.1 11.3-19.2 12.3-19.2 12.9-19.4 13.9-19.3 14.6-19.7 15.5-19.5 16.2-19.9 17.2-19.9 17.9-2 2-1.9 2.2-1.4 2.4-1.3 2.7-1 2.6-0.8 2.8-0.4 2.7-0.1 2.9 0.1 2.8 0.6 2.8 0.6 2.7 1.1 2.7 1.3 2.5 1.6 2.5 1.7 2.1 2.1 2 2 1.7 49 37 23.3 18 22.7 17.9 16.5 13.3 16.4 13.8 15.9 14 15.9 14.5 15.5 14.8 15.4 15.2 15 15.4 14.8 15.9 14.6 16.2 14.3 16.5 14.1 17 13.9 17.2 13.4 17.7 13.5 17.9 13 18.4 12.8 18.6 14.6 22 14.1 22 13.4 22.3 13.1 22.5 12.5 22.5 12.2 22.7 11.5 22.9 11 22.9 10.6 23.1 10 23.2 9.7 23.4 8.9 23.6 8.6 23.7 8.1 23.8 7.6 23.9 7 24.2 7 25.7 6.5 26 5.8 26.1 5.3 26.3 4.6 26.4 4.2 26.5 3.6 26.8 3 26.9 2.5 27.1 1.9 27.2 1.3 27.4 0.8 27.5 0.1 27.7-0.4 27.8-0.9 28.1-1.5 28.1-0.5 2.3-1.5 1.8-1.9 1.3-2.3 0.6-17.4 0.5-22.3 0.7-16.2 1-14.8 1.6-13.6 2.2-13.2 2.3-14.4 2-15.8 1.7-21.5 2-32.9 3-12.5 1.6-11.4 1.8-11.1 2.1-10.5 2.5-10 2.8-9.7 3.2-3.5 1.7-3.2 2.2-2.5 2.7-2.1 3.1-2.7 5.7-1.4 4.4-1.2 4.3-0.7 4.6-0.4 4.8v4.9l0.3 5 0.8 5.1 1 5.3 0.6 1.7 0.9 1.6 1.1 1.5 1.3 1.3 1.4 0.9 1.6 0.8 1.7 0.5 1.9 0.3 14.9 0.7 14.9 0.4 14.9 0.1 15.1-0.1 15.1-0.6 15.2-0.8 15.2-1 15.3-1.3 15.3-1.8 15.4-1.9 15.5-2.3 15.6-2.5 15.5-2.8 15.7-3.1 15.7-3.5 15.9-3.7h0.9l0.9 0.4 0.7 0.7 0.1 0.9v0.6l-14.4 66.6-0.6 1.8-1.1 1.4-1.4 0.9-2 0.4z"/>
	<g id="Layer">
		<path id="Layer" class="s11" d="m553.9 805.6l19.8 4.2 20.1 5.1 20.5 6.1 20.3 6.7 20.5 7.6 20 8.1 19.7 8.9 19.1 9.4 18.6 9.8 17.9 10.5 17 10.8 16.3 11.2 15.5 11.6 14.6 11.9 13.6 12.1 12.7 12.6 0.5 0.6 0.8 2v2.3l-1 1.8-1.8 1.5-8.4 4.6-8.3 5.1-8.1 5.7-7.6 6.2-30 25.2-23.7 20.6-21.4 18.7-19.4 17.6-18.5 17.1-17 16.7-16.1 16.3-15.3 16.1-14.9 16.4-14.2 16.5-13.4 16.5-12.8 16.6-12.2 16.8-11.6 17-10.9 17.2-10.6 17.5-1.8 2.9-1.9 2.1-1.6 1.1-1.5 0.2-1.4-0.6-1.3-1.6-1-2.4-1.1-3.4-4.7-21.1-4.3-21-3.8-21.3-3.3-21.1-2.8-21.1-2.2-21.2-1.7-21.1-1.3-21.3-0.7-17.3-0.4-17.3v-17.3l0.4-17.2 0.7-17.3 0.9-17.3 1.3-17.4 1.7-17.3 2-17.4 2.2-17.5 2.7-17.4 2.9-17.4 3.3-17.4 3.7-17.4 3.9-17.5 4.3-17.5 0.9-2.5 1.3-2.4 1.9-2 2.1-1.6 2.3-1.3 2.5-0.6 2.8-0.3z"/>
		<path id="Layer" class="s11" d="m3065.1 814.7l5.2 10.5 4.3 11.2 3.6 11.8 2.7 12.5 5.8 36.1 4.7 34.7 3.7 33.2 2.8 32 1.6 30.4 0.6 29.1-0.2 27.5-0.7 13.4-0.8 12.9-1.6 17.4-2 18.1-2.6 18.6-3.2 19.3-3.5 19.6-4.3 20.4-4.7 20.8-5.3 21.5-1.2 3.1-0.6 0.9-0.8 0.4-0.8-0.1-0.9-0.7-2-2.5-8.9-14.1-9.3-14.2-9.8-13.9-10.2-13.9-10.6-13.9-11.1-13.8-11.8-14-12.1-14.1-12.6-13.7-13-14-13.9-14.4-14.9-15.1-32.7-31.8-45.8-42.9-39.1-36.6-9.1-8.1-9.2-7.6-9.6-7-9.9-6.5-1.4-0.9-0.9-1.3-0.8-1.4-0.4-1.6-0.1-1.5 0.3-1.6 0.5-1.5 0.9-1.3 0.8-0.8 21.1-18.1 21.1-17 20.6-15.8 20.3-14.7 20-13.3 19.2-12.1 18.8-10.7 18.3-9.5 17.7-8.1 17.2-6.7 8.1-2.9 8.2-2.5 8.1-2.3 7.9-1.8 7.6-1.6 7.7-1.2 7.4-0.8 7.2-0.5 7-0.1 7 0.1 6.8 0.5 6.6 0.8 3.3 0.8 3 1.6 2.6 2.2z"/>
		<path id="Layer" class="s11" d="m907.5 2187.4l6.6 7.8 6.9 7.5 7 7.2 7.2 7 7.4 6.9 7.5 6.6 7.7 6.3 7.9 6.1 14.8 10.6 15.3 9.7 16 9 16.5 8.2-3.2 5.1-2.4 5.2-1.7 5.2-0.9 5.3-0.1 4.5 0.2 4.5 0.9 4.5 1.4 4.6 3.8 12.4 3 12.3 2.1 12 1.2 11.7 0.4 11.5-0.6 11.2-1.5 11.1-2.4 10.8-1.8 6.4-2.1 6.3-2.7 6.2-2.7 6.2-3.2 6.1-3.6 5.9-3.8 6-4.1 5.8-7.6 9.7-8 9.1-8.1 8.7-8.5 8.2-8.8 7.8-9.3 7.1-9.3 6.6-9.8 6.2-10.3 5.8-10.7 5.3-11.1 4.8-11.2 4.1-11.7 3.7-11.9 3-12.3 2.6-12.6 2-13.4 1.6-12.9 1.2-12.8 0.8-12.7 0.2-12.2-0.1-12.2-0.5-12-1.1-11.6-1.4-11.5-1.9-11.2-2.2-11-2.8-10.8-3-10.5-3.7-10.3-4-10.2-4.5-9.9-4.8-10.2-5.7-10-6.1-9.7-6.7-9.5-7.1-9.3-7.7-9-8.1-8.7-8.5-8.4-9.1 53.3-22.3 4.9-2.4 3.9-2.9 3.2-3.2 2.4-3.7 1.4-4.1 0.6-4.5-0.3-4.8-1.1-5.3-2.6-9.4-1.8-5.4-2.6-4.5-2.9-3.7-3.4-2.7-4.2-2-4.6-1.2-5.2-0.3-5.8 0.7-144.1 25.7-2.5 0.3-2.4-0.2-2.1-0.4-2-0.9-1.7-1.2-1.6-1.5-1.3-2-1-2.4-27.2-72.2-0.7-2.1-0.2-1.8 0.2-1.5 0.5-1.2 1-0.8 1.4-0.6 1.9-0.3 2.2 0.1 9.5 1.2 9.6 1.6 9.8 2.1 9.8 2.4 9 2.1 9.7 1.6 10.6 1 11.5 0.7 12 0.3 13.3-0.3 14.9-0.5 20.5-1.2 19.4-1.1 13.4-0.5 2.3-0.1 2.1-0.6 1.8-0.6 1.6-1.1 1.5-1.3 1.1-1.6 1-1.8 0.8-2.1 1.1-4.9 1-4.8 0.4-4.5v-4.2l-0.3-4.1-0.8-3.8-1.2-3.7-1.6-3.4-2.1-3.3-2.5-3.2-2.9-2.9-3.4-2.6-4-2.5-4.2-2.1-4.7-2-5.3-1.7 10-9.4 10.3-8.9 10.4-8.3 10.8-7.6 11-7 11.2-6.6 11.5-5.8 11.9-5.3 10.8-4.4 11.1-3.8 11.2-3.3 11.5-2.8 11.7-2.3 11.9-1.9 12.1-1.4 12.3-1 12.4-0.3 12.8 0.1 13 0.5 13 1.1 13.3 1.4 13.5 2.1 13.7 2.4 14 3 7 1.1 3 0.1 3-0.1 2.6-0.4 2.4-0.8 2.1-1 2-1.4 2.3-2.3 1.9-3.1 1.3-3.5z"/>
		<path id="Layer" class="s11" d="m3005.1 2286.9l-4.5 1.2-4.1 1.3-3.8 1.6-3.4 1.8-3.1 2.1-2.7 2.3-2.5 2.5-2.2 2.7-2.1 3.7-1.6 4.1-1.1 4.4-0.6 4.7-0.1 5 0.4 5.6 0.9 5.7 1.5 6.2 0.6 1.7 1.3 1.4 1.5 1.1 1.8 0.5 14.3 1.7 14.1 1.4 14.3 0.9 14.2 0.6 15.3 0.2 15.3-0.3 15.5-0.8 15.3-1.2 15.3-1.6 15.4-2.1 15.3-2.5 15.5-3 2.4-0.4 1.8 0.1 1.5 0.4 1 0.8 0.7 1.1 0.1 1.6-0.3 1.8-0.7 2.2-27.1 70.5-1.2 2.4-1.6 2.1-1.8 1.8-2.1 1.5-2.4 1.1-2.6 0.6-2.6 0.3-2.6-0.3-138.7-25.2-4.2-0.5-4.2 0.1-4.3 0.8-4 1.3-3.9 1.9-3.4 2.3-3.2 2.8-2.7 3.3-2.2 3.3-1.8 3.3-1.5 3.3-1 3.4-0.7 3.3-0.4 3.3 0.2 3.3 0.4 3.2 1.1 4.1 1.8 3.8 2.3 3.7 2.9 3.5 3.6 3.1 4 2.9 4.5 2.4 4.8 2.1 12.4 4.4 15.6 4.8 16 4.1-4.9 7.6-4.6 7-4.6 6.2-4.5 5.5-4.4 4.9-4.2 4.2-4.2 3.6-4 2.9-8.6 5.3-8.5 5-8.8 4.7-8.9 4.6-9 4.3-9.1 3.9-9.2 3.7-9.4 3.4-9.4 3.2-9.4 2.8-9.5 2.6-9.5 2.3-9.5 1.9-9.6 1.6-9.5 1.3-9.6 1.2-9.5 0.7-9.5 0.5-9.5 0.2-9.5-0.2-9.5-0.5-9.4-0.8-9.2-1.1-9.4-1.3-9.1-1.7-9.1-2-9-2.2-8.8-2.5-8.7-2.9-8.8-3.1-8.5-3.4-8.5-3.8-9.6-4.6-9.5-5.2-9.2-5.4-9.2-5.9-8.8-6.1-8.6-6.6-8.4-7-8.2-7.2-6.5-6.4-6-6.5-5.7-6.7-5.2-6.7-4.7-7.1-4.4-7.3-3.8-7.4-3.4-7.5-2.7-6.7-2.2-6.9-2-6.9-1.6-7.1-1.3-7.2-1-7.4-0.6-7.6-0.4-7.6 0.6-7.1 1.5-9.8 2.9-12.4 4-15.1 1.6-6.2 1.2-6.2 0.8-5.9 0.4-5.9v-5.7l-0.4-5.7-0.8-5.4-1.2-5.4 106.2-80.1h12.6l12.5-0.4 12.4-0.7 12.5-1.1 12.3-1.4 12.3-1.8 23.7-3.4 20.4-2.2 8.7-0.6 7.9-0.2 7 0.2 6 0.4 18.4 2.5 19.4 3.4 20.6 4.6 21.5 5.6 11.6 3.5 11.1 4.1 10.5 4.8 9.9 5.1 9.5 5.7 8.9 6.3 8.4 6.9 7.8 7.3 4.6 5 4.5 5.1 4.2 5.4z"/>
	</g>
	<g id="Layer">
		<path id="Layer" class="s12" d="m1725.4 736l4.5 21.8 3.9 22.6 3.3 23.2 2.3 22.9 1.7 22.5 1.1 22 0.1 21.3-0.6 20.4-1.3 19.2-2 18.2-2.9 17.3-3.5 16.2-4.3 15-5 14.2-2.7 6.5-3 6.4-3 5.9-3.3 5.8-2.8 4.3-2.9 3.6-3.2 3.6-3.3 3-3.7 2.8-3.7 2.5-3.9 2-4.3 1.6-3.9 1.2-4 0.9-4.2 0.4-4.2 0.1-4.4-0.2-4.2-0.7-4.2-0.9-4.2-1.3-4.1-1.8-4-1.9-3.9-2.3-3.9-2.6-3.5-2.9-3.5-3.3-3.1-3.3-3.1-3.7-7-9.8-6.6-10.4-6-10.8-5.6-11.5-5.1-12-4.6-12.7-4.3-13.1-3.7-13.7-5.4-22.8-4.7-23-4.4-23.2-3.9-23.3-3.3-23.7-2.9-23.9-2.4-24.1-1.9-24.3z"/>
		<path id="Layer" class="s12" d="m1847.9 734.6l191.6 20.7-0.6 25.5-1.4 25.4-1.9 25.2-2.8 25-3.3 24.9-4.1 24.8-4.6 24.6-5.4 24.4-6.8 26.9-7.5 26.7-2.4 6.3-3.9 7.9-5.3 9.1-6.9 10.7-5.5 7.4-6.1 6.5-3.1 2.9-3.5 2.6-3.4 2.4-3.6 2.1-3.5 1.7-3.6 1.6-3.7 1.2-3.7 0.9-3.7 0.7-3.7 0.2h-3.7l-3.7-0.2-4.1-0.8-4.2-1.1-3.9-1.6-4-1.9-3.8-2.4-3.8-2.7-3.6-3.1-3.4-3.5-4.7-5.4-4.2-5.9-3.9-6.3-3.6-6.8-3.2-7.2-2.7-7.7-2.6-8.2-2.1-8.5-5.9-29.5-5-29.5-3.7-25.4-3-25.6-2.4-25.6-1.7-25.6-1.1-25.8-0.5-25.9 0.1-26z"/>
		<path id="Layer" class="s12" d="m1482.5 768.7l2.5 14.7 2.2 14.5 1.9 14.4 1.6 14.1 1.2 14 0.9 13.9 0.5 13.7 0.3 13.4-0.2 13.4-0.4 13-0.7 13.1-1.1 12.8-1.4 12.5-1.8 12.6-2.1 12.3-2.4 12.1-2.3 8.6-3.6 8.9-4.6 9.4-5.9 9.9-4.5 6.5-4.5 5.5-4.6 4.9-4.8 4.1-4.9 3.3-5 2.5-5 1.8-5.1 1-5.3 0.1-5.2-0.5-5.3-1.3-5.2-2.2-5.4-2.9-5.5-3.5-5.2-4.4-5.3-5-5.4-5.8-5.3-6.5-5.1-7.1-4.8-7.5-4.5-8.1-3.9-8-3.5-8.2-2.7-7.6-11.5-37-10.8-37.1-10.3-37.3-9.7-37.4z"/>
		<path id="Layer" class="s12" d="m2131.1 776.1l24.1 4.8 23.7 5.4 23.2 5.8 22.8 6.3 22.3 6.9 21.9 7.5 21.4 7.9 21 8.5-6.7 1.2-6.1 2-5.5 2.6-4.9 3.4-2.8 2.7-2.4 2.9-1.8 2.9-1.3 3-1.2 3.4-0.7 3.6-5.1 31.8-5.7 31.4-6.3 30.9-6.9 30.3-1.9 6.8-2.5 7.1-3 7-3.6 7-3.9 6.6-4.2 6.2-4.7 5.9-4.7 5.3-4.9 4.8-5 3.9-5.2 3.6-5.1 2.9-5.3 2.2-5.3 1.6-5.2 0.9-5.5 0.4-3.6-0.1-3.7-0.4-3.6-0.8-3.7-1-4-1.6-6-3.1-5.7-4.1-5.1-4.8-4.9-6-4.5-6.6-4-7.5-3.7-8.4-3.1-9.4-2.8-10.2-2.4-11.1-2-11.8-1.4-12.6-1.1-13.3-0.6-14.1-0.2-14.5 0.4-14.9 1.6-30.8 2.7-30.5 1.7-15 1.9-15.1 2.3-14.9z"/>
		<path id="Layer" class="s12" d="m398.4 2200.7l2.2-0.4 2-0.1 1.7 0.4 1.5 0.6 1.4 1.6 1 2.1 0.5 2.7v3.4l-0.4 4-0.9 4.4-1.3 5.3-1.8 5.8-2.2-4.3-1.9-4.1-1.4-4.1-0.9-3.7-0.6-3.7-0.1-3.4 0.4-3.3z"/>
	</g>
	<path id="Layer" class="s13" d="m584.3 2566.9l171.5 84.9 24.5 11.8 23.8 11.2 23.1 10.6 22.1 9.9 21.5 9.2 20.9 8.6 19.9 7.8 19.3 7.3 33.1 11.7 33.3 11.4 33.2 10.8 33.3 10.4 33.4 9.8 33.5 9.3 33.5 9 33.5 8.3 33.7 7.9 33.6 7.4 33.8 7 33.8 6.4 33.9 5.9 33.9 5.5 33.9 4.9 34.1 4.5 25.4 3 25.5 2.8 25.6 2.5 25.5 2.3 25.6 1.8 25.6 1.7 25.6 1.4 25.7 1.1 33 1.1 35.5 0.9 38.1 0.5 40.8 0.3 89.4-0.1 99.6-1.3 20.3-0.6 20.2-0.6 19.8-1.1 19.5-1.3 19.3-1.5 19.1-1.8 18.8-2 18.5-2.4 53.5-6.7 48.7-6.1 35.7-5 32-5.3 29.3-5.6 24-5.3 24.1-5.5 23.8-5.7 23.8-6.2 23.7-6.4 23.7-6.6 23.5-6.8 23.4-7.3 40-12.9 39.6-13.9 39.5-14.5 39.2-15.4 17.7-7.8 28.3-13.6 39.2-19.4 50-25.1 16.8-8.3 17-7.9 17-7.8 17.3-7.4 17.6-7.2 17.7-6.9 17.8-6.6 17.9-6.3-8.8 10.4-8.6 9.6-8.4 9-8.2 8.3-7.9 7.7-7.8 6.8-7.7 6.2-7.4 5.4-16.9 11.7-17.4 11.6-36.5 23.6-39.2 23.9-41.5 24.1-19.2 10.7-19.2 10.2-19.2 9.6-19.2 9.2-19.2 8.6-19.3 8.2-19.1 7.5-19.3 7.2-26 8.9-26.4 8.7-26.8 8.4-27.2 8-27.5 7.8-28 7.4-28.4 7.1-28.8 6.7-29.1 6.4-29.7 6.2-30 5.8-30.3 5.4-30.9 5.1-31.2 4.8-31.6 4.5-32 4.2-80.1 9.6-64.4 7-29.8 2.9-28.6 2.4-27.6 2.1-26.5 1.7-26.6 1.5-25.8 0.9-25.2 0.7-24.8 0.2h-24.2l-23.6-0.5-23.2-0.8-23-1.2-27-1.7-26.7-2.1-26.7-2.4-26.2-2.6-26.1-2.9-25.9-3.3-25.6-3.5-25.5-3.8-25.2-4.1-25.1-4.5-24.8-4.6-24.5-5-24.3-5.1-24.1-5.6-23.9-5.9-23.7-6.1-27.9-7.1-26.8-6.5-25.9-5.7-24.8-4.8-25.3-5.1-25.6-5.9-26-6.6-26.4-7.5-26.7-8.3-27-9-27.2-9.9-27.5-10.6-27.7-11.4-27.8-12-28-13-28.1-13.4-28-14.3-28-14.9-27.8-15.4-27.6-16-16.2-9.9-16.1-10.4-15.6-10.7-15.4-11.2-14.3-10.9-13.8-11.3-13.8-11.6-13.4-12-13.1-12.3-12.9-12.7-12.7-13z"/>
	<g id="Layer">
		<path id="Layer" class="s9" d="m1080.9 1912.2c-36.7 31.7-89.4 30.7-117.9-2.3-28.4-33-21.8-85.3 15-117 36.7-31.7 89.4-30.6 117.9 2.3 28.5 33 21.8 85.3-15 117z"/>
		<path id="Layer" class="s9" d="m2407.4 1921c-39.1 30.3-92.2 27.2-118.8-7-26.6-34.3-16.4-86.5 22.8-116.9 39.1-30.4 92.2-27.2 118.8 7 26.6 34.3 16.4 86.5-22.8 116.9z"/>
	</g>
	<path id="Layer" class="s0" d="m1955.6 2225.9l0.4 29.6-0.3 24.8-0.8 22.9-1.6 21.4-2.1 20.3-2.9 19-3.5 18-4.4 16.9-5.1 15.9-2.8 7.7-3 7.4-3.3 7-3.5 6.7-3.5 6.6-3.9 6.2-3.9 6-4.2 5.8-4.4 5.4-4.6 5.2-4.8 4.9-5 4.6-5.1 4.4-5.4 4.2-5.8 4-5.7 3.5-5.8 3.2-6.1 2.8-6.1 2.5-6 2.1-6.2 1.9-6.5 1.4-6.3 1.1-9.3 0.9-9.1 0.1-9.2-0.5-9.1-1.3-9.1-2-8.9-2.6-8.7-3.5-8.4-3.9-8.1-4.7-7.8-5.4-7.4-5.8-7-6.3-6.3-6.9-5.9-7.4-5.4-7.7-4.9-8.4-4.8-9.3-4.5-10.1-4-10.4-3.7-11.1-3.5-11.6-3-12-2.8-12.8-2.5-13.2-2.1-13.7-1.7-14.3-1.5-14.9-1-15.3-0.7-15.8-0.4-16.3v-16.6l0.3-17.3-0.3-3.5-1.3-3.1-0.9-1.3-1.2-1.2-3.2-2-8-4-7.4-4.7-6.9-5.2-6-5.6-5.2-6.1-4.5-6.4-3.7-6.9-2.9-7.2-1.7-6.9-1.2-7-0.4-7.1 0.4-7.4 1.1-7.4 1.8-7.5 2.7-7.5 3.3-7.7 1.3-2.4 1.7-2.2 1.6-1.6 1.8-1.5 2-1.3 2.1-1 2.3-0.7 2.2-0.5 2.4-0.3h2.2l2.4 0.3 2.2 0.5 2.3 0.9 2.1 1.1 2 1.2 1.7 1.6 1.6 1.7 1.4 1.8 4.9 7.7 7.9 12.3 6.5 9.1 6.2 7.5 5.9 6 3.2 2.7 2.9 2.2 3 1.9 3.1 1.6 2.9 1 3 0.9 2.9 0.4 3.1 0.2 5-0.6 4.8-1.5 7.4-3.3 7-3.7 6.4-4 5.9-4.3 5.4-4.7 4.8-4.9 4.3-5.2 3.8-5.6 3.5-6.3 2.9-6.5 2.4-7 1.7-7.2 0.2-2.1v-2.3l-0.4-2.1-0.5-2-0.9-2-1.2-1.8-1.4-1.6-1.6-1.4-34.5-26.3-2.9-2.8-2.2-3.3-1.3-3.7-0.6-3.8v-5.3l0.4-4.8 0.7-4.8 1-4.4 1.4-4.2 1.8-3.8 2-3.6 2.4-3.3 2.6-2.9 3-2.7 3.3-2.4 3.6-2.3 4-1.8 4.2-1.7 4.6-1.3 4.9-1.2 8.7-1.5 9.5-1.2 9.8-0.6 9.7-0.2 9.4 0.2 9 0.6 8.4 1.2 7.9 1.5 7.2 1.8 6.4 2.3 6 2.6 5.2 3 4.7 3.3 3.8 3.7 3.3 4 2.6 4.5 2.3 5.4 1.2 5.7 0.4 6.2-0.4 6.6-1 4.1-1.7 3.6-2 3-2.5 2.5-30.1 25.2-2.3 2.3-1.9 2.7-1.4 2.9-1 3.1-0.2 3.3 0.1 3.3 0.7 3.3 1.3 3.1 3.3 5.9 4.1 6.1 4.5 5.8 5 5.8 5.4 5.3 5.7 4.9 5.8 4.5 5.9 3.6 5.8 3.3 5.8 2.6 5.8 1.9 5.6 1.4 5.5 0.6h5.4l5.2-0.5 5.1-1.3 5.8-2.4 5.3-3.2 5.3-4.2 4.7-5 3.6-5 3.2-6.1 2.9-7.3 3.3-10.3 2.9-8.8 2.2-6.1 1.7-2.7 2.1-1.9 2.7-0.9 3-0.3 4.6 0.6 4.1 1 3.7 1.6 3.3 2.2 2.7 2.5 2.1 3.1 1.8 3.4 1.5 4 1.8 6.6 1.3 6.4 0.8 6.4 0.4 6.2v6l-0.6 6-1 5.7-1.5 5.6-2.2 6.1-2.9 5.9-3.4 5.8-3.9 5.6-4.7 5.3-5.1 5.2-5.8 4.9-6.4 4.9-2.9 2.7-2.2 3.2-1.3 3.7z"/>
	<path id="Layer" class="s11" d="m1772.2 2211.7l5.9-3.6 5.3-4 4.3-4.5 3.7-4.8 2.8-5.1 2-5.2 0.9-2 1.3-1.7 1.6-1.5 1.8-1 2.2-0.6 2.1-0.1 2.1 0.3 2 0.8 1.4 0.9 12.2 8.8 12.2 8.5 12.3 7.8 12.4 7.3 4.4 2.7 3.9 2.9 3.8 3 3.6 3.5 5.3 6 4.6 6.8 4 7.3 3.3 8 2.6 8.7 2 9.2 1.3 10 0.5 10.6v11.2l-0.8 11.9-1.3 12.4-2.1 13.1-2.8 13.6-3.4 14.2-4.1 15.1-4.9 15.8-2.6 7.8-3.2 7.6-3.3 7.5-3.5 7.2-4 6.7-4.1 6.3-4.1 5.8-4.3 5.3-4.5 4.8-4.5 4.1-4.6 3.5-4.6 3.1-4.8 2.5-4.9 2-5 1.3-5 0.8-5.9 0.2-6-0.6-6.1-1.4-6.2-2.1-4.6-2.1-4.5-2.4-4.3-2.7-4.2-3.2-4.3-3.4-3.9-3.8-4-4.3-3.7-4.5-3.7-4.8-3.4-5.2-3.3-5.5-3.2-5.8-3-6.2-2.9-6.5-5.3-13.9-4.9-15.5-4.1-16.7-3.4-17.6-2.5-18.4-1.7-19-0.8-18.7 0.3-18.2 1-16.5 0.8-4.3 1.7-3.7 2.4-3.3 3.3-2.7 11.9-8.1 12-7.6 12.4-7.3z"/>
</svg>