<svg version="1.2" xmlns="http://www.w3.org/2000/svg" viewBox="0 0 3600 3600" width="3600" height="3600">
	<title>mix1-svg</title>
	<style>
		.s0 { fill: none;stroke: #7e7378;stroke-width: 3.3 } 
		.s1 { fill: #250c00 } 
		.s2 { fill: none;stroke: #f6a76a;stroke-width: 3.3 } 
		.s3 { fill: none;stroke: #fac493;stroke-width: 3.3 } 
		.s4 { fill: none;stroke: #f8a375;stroke-width: 3.3 } 
		.s5 { fill: none;stroke: #fdd5aa;stroke-width: 3.3 } 
		.s6 { fill: none;stroke: #fdb29f;stroke-width: 3.3 } 
		.s7 { fill: none;stroke: #945d3b;stroke-width: 3.3 } 
		.s8 { fill: none;stroke: #ffd1d4;stroke-width: 3.3 } 
		.s9 { fill: none;stroke: #fde3c7;stroke-width: 3.3 } 
		.s10 { fill: none;stroke: #fbc2a9;stroke-width: 3.3 } 
		.s11 { fill: none;stroke: #977c6f;stroke-width: 3.3 } 
		.s12 { fill: none;stroke: #975965;stroke-width: 3.3 } 
		.s13 { fill: none;stroke: #f6b587;stroke-width: 3.3 } 
		.s14 { fill: none;stroke: #fde9d8;stroke-width: 3.3 } 
		.s15 { fill: none;stroke: #fddbba;stroke-width: 3.3 } 
		.s16 { fill: none;stroke: #fbc8ba;stroke-width: 3.3 } 
		.s17 { fill: none;stroke: #c5bdb9;stroke-width: 3.3 } 
		.s18 { fill: none;stroke: #f8cbaf;stroke-width: 3.3 } 
		.s19 { fill: none;stroke: #c29974;stroke-width: 3.3 } 
		.s20 { fill: none;stroke: #a79a92;stroke-width: 3.3 } 
		.s21 { fill: none;stroke: #be8968;stroke-width: 3.3 } 
		.s22 { fill: #ffffff } 
		.s23 { fill: #fab675 } 
		.s24 { fill: #fbbbb1 } 
		.s25 { fill: #fff4de } 
		.s26 { fill: #8a7b72 } 
		.s27 { fill: #fad2b0 } 
		.s28 { fill: #f1975e } 
		.s29 { fill: #c4b9b2 } 
		.s30 { fill: #f69074 } 
	</style>
	<g id="Layer">
		<path id="Layer" fill-rule="evenodd" class="s0" d="m3084.8 3243.3l-7.1 0.9-8 1.7-9.1 2.3-10.2 3.1-7.6 2.3-7.8 2-8.5 1.9-9 1.7-19.8 3.1-27.6 3.1-28.4 3.4-20.3 3-8.4 1.3-8.7 0.7-9 0.1-9.3-0.4-9.7-1-10.2-1.6-11.4-2-13.6-2.9-7.6-1.3-7.4-0.5-7.2 0.5-6.9 1.3-3.8 1-3.7 1.4-3.6 1.7-3.6 1.9-3.4 2.1-3.4 2.5-6.6 5.6-18.2 17-16.6 14.7-15.6 13.2-15.2 11.8-15.1 10.9-15.1 10-15.3 9.1-15.5 8.4-20.5 10-21.8 9.5-22.6 9-23.5 8.4-24.4 8-25.2 7.1-25.7 6.5-25.9 5.8-26.5 5.1-26.6 4.3-26.7 3.5-26.5 2.7-26.2 1.9-25.9 1-25.4 0.3-24.7-0.7-2.8 0.2-2.8 0.5-2.7 0.9-2.4 1.4-7.3 4.7-16 10.6-11.8 7.3-11 6.4-10.1 5.5-10.1 4.7-9.8 4.2-9.8 3.4-9.8 2.8-17.1 4.1-17 3.4-16.7 2.8-16.5 2.4-16.4 1.7-16.2 1.3-16 0.6h-15.7l-15.6-0.5-15.5-1.1-15.2-1.7-14.9-2.2-14.9-2.8-14.7-3.3-14.4-4-14.2-4.4-12.6-4.6-12.6-5-5.7-2.7-5.8-3-5.7-3.3-5.8-3.7-5.6-4.1-5.6-4.4-5.7-4.8-5.6-5.1-5.5-5.5-5.5-5.9-5.5-6.2-5.5-6.7-10.7-14.2-10.7-15.7"/>
	</g>
	<path id="Layer" class="s1" d="m3084.8 3243.3l-7.1 0.9-8 1.7-9.1 2.3-10.2 3.1-7.6 2.3-7.8 2-8.5 1.9-9 1.7-19.8 3.1-27.6 3.1-28.4 3.4-20.3 3-8.4 1.3-8.7 0.7-9 0.1-9.3-0.4-9.7-1-10.2-1.6-11.4-2-13.6-2.9-7.6-1.3-7.4-0.5-7.2 0.5-6.9 1.3-3.8 1-3.7 1.4-3.6 1.7-3.6 1.9-3.4 2.1-3.4 2.5-6.6 5.6-18.2 17-16.6 14.7-15.6 13.2-15.2 11.8-15.1 10.9-15.1 10-15.3 9.1-15.5 8.4-20.5 10-21.8 9.5-22.6 9-23.5 8.4-24.4 8-25.2 7.1-25.7 6.5-25.9 5.8-26.5 5.1-26.6 4.3-26.7 3.5-26.5 2.7-26.2 1.9-25.9 1-25.4 0.3-24.7-0.7-2.8 0.2-2.8 0.5-2.7 0.9-2.4 1.4-7.3 4.7-16 10.6-11.8 7.3-11 6.4-10.1 5.5-10.1 4.7-9.8 4.2-9.8 3.4-9.8 2.8-17.1 4.1-17 3.4-16.7 2.8-16.5 2.4-16.4 1.7-16.2 1.3-16 0.6h-15.7l-15.6-0.5-15.5-1.1-15.2-1.7-14.9-2.2-14.9-2.8-14.7-3.3-14.4-4-14.2-4.4-12.6-4.6-12.6-5-5.7-2.7-5.8-3-5.7-3.3-5.8-3.7-5.6-4.1-5.6-4.4-5.7-4.8-5.6-5.1-5.5-5.5-5.5-5.9-5.5-6.2-5.5-6.7-10.7-14.2-10.7-15.7-4-3.8-4.1-3.6-4.2-3.3-4.2-3.1-4.4-2.7-4.6-2.5-4.6-2.2-4.6-1.9-5.7-1.9-5.9-1.7-5.9-1.1-6.1-0.8-6.4-0.4h-6.4l-6.5 0.4-6.8 0.8-6.8 1.1-7 1.5-7.2 2-7.2 2.3-7.5 2.6-7.6 3.1-7.7 3.5-7.9 3.8-9.2 14.6-9.6 13.4-5.1 6.5-5.1 6.1-5.4 5.9-5.4 5.8-5.6 5.3-5.7 5.3-5.8 4.8-6 4.8-6.1 4.4-6.3 4.3-6.4 3.9-6.4 3.9-12.6 6.2-12.9 5.5-13.6 4.6-13.9 3.9-14.7 3.3-14.7 2.8-14.5 2.4-14.3 1.9-14.3 1.6-14.1 1-14 0.6-14 0.3-13.6-0.3-13.7-0.7-13.6-1.2-13.3-1.5-13.2-2.1-13.2-2.4-13-2.9-13-3.4-16.6-4.9-16.3-5.8-5.4-2.2-5.5-2.5-11.8-6.3-12.6-7.9-17.1-11.5-4.5-3.1-4.1-2.4-4.6-2.2-5.1-1.8-5.5-1.5-5.9-1.2-6.5-0.7-6.9-0.4-7.3-0.1-26.8-0.3-27.5-1.1-28.1-2.3-28.9-3.2-29.7-4.4-30.3-5.4-31-6.2-31.7-7.4-18.8-4.9-18.6-5.5-18.2-6-17.9-6.4-17.8-7-17.4-7.7-17.1-8-16.9-8.6-19-10.6-18.7-11.3-18.3-12-18-12.6-17.5-13.3-17.3-14.1-16.7-14.8-16.5-15.5-3.9-3.2-4-3.4-7.8-7.9-7.4-9-7-10.2-7-11.3-6.5-12.5-6.2-13.5-6-14.9-7.6-20.4-6.8-20.5-6.2-20.5-5.6-20.6-5.2-20.9-4.3-20.7-3.8-20.9-3.2-21-2.8-23-2.1-23.1-1.3-23.2-0.5-23.2 0.1-23.4 0.9-23.5 1.7-23.7 2.3-23.6 5.4-49.8 4.7-50.1 1.3-12.5 1.5-12.4 1.9-12.3 2.3-12.1 2.7-12.1 3-11.9 3.3-11.9 3.6-11.6 7.2-21.5 8-21.2 8.3-21 8.7-20.7 9.3-20.3 9.7-20.1 10.2-19.9 10.8-19.6 9.2-15.8 9.4-15.6 9.9-15.5 10.1-15.3 13.4-20.2 13.2-20.6 12.7-21 12.6-21.2 0.5-1.3 0.4-1.2v-1.5l-0.3-1.4-0.5-1.2-0.8-1.1-1-1-1.1-0.8-0.4-0.1-26.5-11.5-25.9-12.1-25.3-12.6-24.8-13.1-24.1-13.6-23.5-14.2-23-14.7-22.2-15.2-21.8-15.7-21.2-16.3-20.4-16.8-20-17.2-19.4-17.9-18.7-18.3-18.1-18.9-17.5-19.5-16.8-19.5-16.1-20.1-15.4-20.7-15-21.1-14.3-21.6-13.8-22.1-13.2-22.6-12.6-23.2-1.3-2-1.3-1.5-1.5-1.2-1.7-0.8-1.6-0.3h-2l-2 0.5-2.2 0.9-47 23.1-46.8 24-4.3 2.1-4.4 1.4-4.3 0.8-4.3 0.2-4.6-0.4-4.4-1-4.5-1.7-4.5-2.3-4.4-3-3.8-3.9-3-4.4-2.2-5-1.3-5.3-0.4-5.5 0.7-5.3 1.6-5.1 2.3-4.9 2.9-4.7 3.4-4.8 4.1-4.8 4.6-4.7 5.2-4.9 5.9-4.9 6.4-4.9 7-4.9 7.6-4.9 8.2-4.9 8.5-4.9 19.1-9.8 22-10.3 2.6-1.5 2.3-1.9 2-2.4 1.4-2.7 0.7-3 0.3-3-0.4-3.1-0.9-2.9-4.5-11-3.7-10.8-3.3-10.8-3.1-11.3-2.6-11.6-2.3-12-2.2-13.2-4.6-34.6-4.9-36.6-0.6-1.9-1.3-1.7-1.8-1-2-0.4-14.9 0.4-14.5 0.8-14.6 1.1-14.4 1.7-14.4 2-14.3 2.6-14 2.9-14.1 3.4-12.6 3.4-4.3 1-3.9 0.8-3.9 0.4h-3.5l-3.4-0.4-3-0.8-3-1-2.5-1.4-2.6-1.8-2.2-2.2-2-2.5-1.8-2.8-1.5-3.2-1.3-3.6-1.2-4-0.8-4.3-0.6-3.3-0.6-6.4 0.3-5.9 0.5-2.7 0.7-2.5 1.1-2.3 1.1-2.4 1.5-2 1.7-2 2-1.8 2.2-1.7 5.1-2.8 6.2-2.3 15.2-4.4 15.6-3.9 16.2-3.8 16.7-3.6 17.3-3.3 17.9-3.1 18.3-3 18.9-2.5 1.4-0.4 1.4-0.5 1.2-0.8 1-1 0.9-1.3 0.6-1.3 0.4-1.4 0.1-1.4-0.1-21.7-0.8-29.4-0.9-33.2 0.2-24.6 0.3-11.3 0.7-11 0.9-10.5 1.1-10.4 2.7-20.5 3-20.4 3.2-20.2 3.4-19.8 3.7-19.7 3.8-19.4 4.1-19.2 4.4-19 4.6-18.8 4.7-18.5 5.1-18.3 5.3-18 5.5-17.9 5.7-17.7 6-17.3 6.2-17.2 0.7-3.3v-3.2l-1-3.1-2-2.9-15.5-19-14.8-19.7-14.2-20.1-13.6-20.8-12.9-21.3-12.3-21.9-11.5-22.3-11-22.9-10.2-23.2-9.4-23.8-8.9-24.2-8-24.5-7.3-24.9-6.6-25.3-5.9-25.6-5.1-25.8-4.4-26.3-3.6-26.5-2.8-26.7-2.1-26.7-1.3-27.1-0.5-27 0.2-27.2 1-27.2 1.8-27.3 2.7-27.1 3.3-27.1 4.1-26.9 4.9-26.7 5.6-26.8 6.4-26.3 7.2-26.2 4.9-16.7 4.8-14.7 4.6-13.6 4.7-12.6 4.7-11.8 5-11.1 5-10.4 5.4-9.8 5.5-9.3 5.9-8.9 6.1-8.3 6.2-7.6 6.7-7.3 7-6.8 7.3-6.4 7.6-5.7 6.2-4.4 6.5-4.1 6.7-3.7 7-3.6 7.2-3.2 7.4-2.9 7.5-2.6 7.9-2.4 19.1-4.8 10.7-2.5 10.9-2 10.9-1.8 11-1.5 10.9-1.3 11.4-1 11.3-0.7 11.6-0.5 11.6-0.2h11.9l24.4 0.8 25.5 2 26.9 2.9 29.6 4 29.2 4.4 29.3 5 29 5.7 29 6 28.8 6.6 28.6 7.2 28.4 7.6 32.5 9.4 32.2 10.2 31.9 10.7 31.9 11.5 31.7 12.2 31.4 12.9 31.2 13.5 31 14.3 15.4 7.6 15.1 8.3 14.9 8.7 14.8 9.4 2.3 1.3 2.5 0.9 2.5 0.7 2.7 0.1 2.6-0.3 2.5-0.5 2.5-1 2.3-1.3 19-12.3 19.7-11.5 20.3-10.9 21-10.3 24.4-11 24.7-10.6 24.8-9.9 24.7-9.5 25.1-8.8 25.2-8.3 25.4-8 25.5-7.1 23.9-6.4 23.9-5.8 24.1-5.3 24.3-4.9 24.3-4.3 24.5-4 24.6-3.4 24.8-3.1 36.1-3.7 36.3-3.1 36.2-2.5 36.2-1.8 36.2-1.2 36-0.4 36.2 0.2 36 0.7 43 1.8 42.9 2.8 42.8 3.6 42.8 4.6 32.4 4.2 32.1 5 31.9 5.8 31.7 6.5 31.3 7.3 31 7.9 30.5 8.8 29.9 9.3 29.6 10.3 28.7 10.7 28.3 11.5 27.6 12.2 26.9 12.7 26.2 13.3 25.5 14.1 24.6 14.6 2.6 1.2 2.6 0.9 2.8 0.5 2.8 0.2 2.8-0.3 2.7-0.7 2.5-1.2 2.5-1.4 11.3-7.9 11.8-7.3 11.9-6.8 12.1-6.1 24.6-11.5 24.6-11.1 24.8-10.8 25-10.2 25-9.7 25.2-9.5 25.3-8.9 25.6-8.5 19.4-6.1 19.4-6 19.7-5.6 19.7-5.4 19.7-5.2 19.8-4.9 19.9-4.7 20.1-4.4 20.1-4.2 20-3.8 20.4-3.7 20.3-3.5 20.3-3.1 20.6-2.9 20.4-2.7 20.7-2.4 23.3-2.1 22.9-1.1 22.5-0.1 22.1 0.9 21.8 1.9 10.8 1.3 10.6 1.5 10.6 1.8 10.5 2 10.3 2.3 10.4 2.6 10.2 2.9 10 3.3 9.6 3.9 9.2 4.2 8.8 4.7 8.6 5.1 8.1 5.5 7.8 5.9 10.1 8.8 9.5 9.6 8.7 10.4 8.2 11.2 7.5 11.9 6.9 12.8 6.1 13.5 5.7 14.4 7.8 22.7 7.4 22.8 6.6 22.6 6.2 22.7 5.6 22.7 5.1 22.6 4.3 22.6 4 22.6 3.3 22.5 2.8 22.5 2.2 22.6 1.7 22.5 1 22.4 0.5 22.5v22.4l-0.6 22.5-0.9 18-1.3 18-1.7 18-2 18.1-2.4 18-2.7 18-3.2 18-3.5 17.9-3.9 17.9-4.3 18-4.6 17.9-4.9 17.9-5.3 17.9-5.7 17.9-6.2 17.8-6.4 17.9-4.7 12.3-5.1 12.4-5.6 12.5-5.9 12.5-6.4 12.7-6.6 12.9-7.2 12.9-7.5 13-8 13.1-8.3 13.2-8.7 13.3-9 13.5-9.5 13.5-9.8 13.7-21 27.6-1.7 2.7-0.9 2.9v3l0.8 3.2 6.3 17.5 6.1 17.7 5.8 18.1 5.6 18.1 5.2 18.3 5.1 18.6 4.9 18.7 4.6 19 4.3 19.2 4.1 19.3 3.9 19.6 3.5 19.8 3.5 20.1 3.1 20 2.8 20.5 2.7 20.6 1.7 19.1 0.9 20.6v22.6l-0.7 30.8-0.8 31.2v23.2l0.5 2.9 1.2 2.3 1 0.9 1.1 0.8 3 1 36.5 6.2 33.8 5.8 24.4 5 11.1 2.7 10.5 2.6 9.7 3 9.2 3.1 3.2 1.2 2.9 1.4 2.9 1.7 2.5 1.8 2.3 2 2.2 2.2 1.9 2.4 1.7 2.5 1.5 3 1.2 3.2 1 3.4 0.5 3.4 0.1 3.5-0.1 3.5-0.5 3.5-0.8 3.4-1.1 3.4-1.6 3.2-1.8 2.9-2 2.8-2.4 2.6-2.6 2.3-2.7 1.9-2.9 1.6-3 1.2-3 0.9-3.1 0.6-3.2 0.4h-3.2l-3.4-0.4-3.4-0.5-3.4-0.9-14.6-3.9-14.7-3.6-15.1-3-15.3-2.4-15.5-1.9-15.8-1.4-16-0.8-16.4-0.4-2 0.3-2 0.5-1.8 1-1.6 1.3-1.4 1.5-0.9 2-0.6 1.9-0.3 2-0.2 12.5-0.7 12.6-1 12.4-1.4 12.2-1.7 12.3-2.1 12-2.6 12-2.8 11.9-3.3 11.9-3.6 11.6-4.1 11.7-4.3 11.5-1.1 3.4-0.2 3.5 0.2 3.6 1.1 3.3 1.8 3.2 2.1 2.7 2.8 2.3 3.1 1.6 11.1 4.9 10.9 5.2 10.6 5.5 10.2 5.9 10.1 6.1 9.7 6.6 9.5 6.9 9.3 7.1 7.3 6.2 7.2 6.3 2.3 2.3 2.1 2.6 1.8 2.8 1.6 3 1.3 2.9 1 3.2 0.6 3.2 0.4 3.3v3.3l-0.3 3.4-0.6 3.1-0.9 3.2-1.1 3.1-1.6 2.9-1.8 2.9-2 2.5-3.3 3.5-3.5 2.7-3.7 2.1-3.7 1.4-3.5 0.9-3.4 0.4-3.7-0.1-3.8-0.4-4.1-0.9-4.3-1.4-4.3-1.8-4.7-2.2-88.3-44.4-2.6-1.1-2.4-0.6-2.2-0.1-2.1 0.5-1.9 0.9-1.8 1.2-1.5 2-1.4 2.3-14.6 26.6-15.3 25.8-16.1 25.2-16.8 24.4-17.6 23.7-18.3 23-9.3 11.3-9.7 11.1-9.9 10.9-9.9 10.7-11.4 11.9-11.8 11.6-11.9 11.4-12.1 11.3-12.4 11-12.8 10.7-12.8 10.5-13.1 10.3-21.9 16.6-20.2 15.1-18.5 13.4-16.9 11.8-15.2 10.2-13.5 8.7-12.1 7-10.2 5.5-27.3 13.1-18.8 8.4-18.9 8.1-19.2 7.8-19.2 7.5-1.3 0.6-1.1 0.9-1 1.2-0.7 1.3-0.5 1.3-0.1 1.5v1.4l0.5 1.4v0.1l4.6 10.6 5.2 10.4 5.8 9.7 6.3 9.5 12.2 17.6 11.8 17.6 11.5 17.8 11 18 10.6 18 10.2 18.1 9.9 18.2 9.4 18.5 9.1 18.4 8.7 18.5 8.2 18.7 7.9 18.7 7.4 18.8 7 19.1 6.7 19 6.2 19.2 4.5 15.2 4.1 16.6 4 18.2 4.8 24.8 4.8 24.4 3.8 17.9 4.1 16.1 4.2 14.7 0.6 1.8 0.9 1.4 1.1 1.1 1.1 0.7 1.3 0.4h1.5l1.7-0.3 1.8-0.8 11.3-6 11.4-6.9 11.3-7.8 10.7-8.4 10.1-9 9.3-9.4 8.6-9.9 7.5-9.9 6.7-10 5.6-10.1 4.6-10.2 3.6-10.1 2.5-10.1 1.6-10 0.4-5 0.1-5.1-0.1-4.8-0.4-5-5.3-45.4-5.8-46.1-6.9-46.8-7.6-47.7-2.2-13.8-1.8-13.7-1.5-13.3-1.1-13.3-0.9-12.9-0.5-12.8-0.2-12.6 0.2-12.5 0.5-12.3 0.7-12.2 1.2-12 1.4-12 1.8-11.7 2-11.8 2.6-11.6 2.7-11.5 3.2-11.4 3.4-11.4 3.7-11.2 4.2-11.2 4.5-11.1 4.7-11 5.3-11.1 5.5-11 7.6-13.5 8.6-13.5 9.5-13.1 10.5-12.7 11.1-12.2 11.9-11.8 12.5-11 13-10.5 13.6-9.6 13.8-8.7 14.2-7.9 14.3-7 14.6-6 14.5-5.1 14.7-4.1 14.7-3.1 10.8-1.8 10.6-1.4 10.4-1 10.4-0.8 10.2-0.4 10.1-0.1 10 0.3 9.8 0.5 9.7 0.9 9.6 1.1 9.5 1.6 9.3 1.9 9.2 2.2 9.2 2.5 9 2.8 8.8 3.2 13.9 5.8 13.6 6.6 6 3.2 12.6 7.7 12.4 8.5 11.8 9.2 11.4 10.1 10.7 10.8 10.4 11.5 9.9 12.4 9.4 13 8.8 13.8 8.2 14.5 7.6 15.2 7.2 15.8 6.5 16.4 5.9 16.9 5.2 17.5 4.6 17.9 6.2 27.7 5.3 27.9 4.6 28 3.7 27.9 3.1 28 2.2 28.2 1.4 27.8 0.5 27.9-0.1 27.7-1.1 27.8-1.7 27.3-2.6 27.2-3.4 27-4.3 26.7-5 26.5-5.7 26.1-6.4 25.5-7.3 25.3-8 24.8-8.9 24.6-9.4 24-10.2 23.5-11 23.2-11.7 22.4-12.4 22.2-13.1 21.4-13.8 21.1-14.5 20.3-15.1 19.9-15.7 19.1-16.5 18.7-17.1 18-10.2 10.2-10.4 10-10.7 9.9-10.9 9.4-11 9.5-11.3 9-11.4 9-11.8 8.7-9.6 6.8-9.9 6.5-10.6 6.6-11 6.4-11.5 6.4-12.2 6.4-12.5 6.1-13 6.2-13.6 6.1-13.9 6-14.6 5.9-15.1 5.7-31.5 11.4z"/>
	<g id="Layer">
		<path id="Layer" fill-rule="evenodd" class="s2" d="m1087.1 342.5l7.3 2.2 6.9 2.8 6.1 3.3 5.8 4 2 1.9 1.8 2.2 1.4 2.5 0.9 3 9.1 40 7.9 39 6.9 38.2 5.9 37.2 1.4 8.9 1.9 9.3 2.4 10 2.8 10.4 7 22.5 10.6 30.1 1 3.1 4.2 11 4.6 10.6 4.9 10.3 5.3 10.1 5.8 9.9 6 9.4 6.5 9.1 6.8 8.8 6.1 7.5 6.4 7 6.8 6.9 6.9 6.6 3.2 2.3 3.7 1.6 3.9 0.7 4-0.2 3.8-1.2 3.5-1.9 2.9-2.7 2.3-3.3 0.9-1.9 0.7-2.2 5-23.1 4.2-23.2 3.2-23.2 2.3-23.3 0.6-9.1 0.3-9.8v-21.9l-1.1-25.1-2-28.2-2.6-32.6-2.3-32.3-2-32.3-1.7-32.1-1.5-32.1-1.2-31.9-1-31.9-0.6-31.7"/>
		<path id="Layer" fill-rule="evenodd" class="s2" d="m1374.8 240.4l8.3 42.5 7.6 42.6 6.9 42.7 6.1 42.8 3.5 26.2 2.9 20.7 3.7 20.3 4.3 19.9 4.9 19.4 7.7 29 6.7 25.8 5.4 18.7 5.3 16.7 5.2 15.2 5.7 14.5 6.2 13.7 6.5 12.7 7 12.2 2.8 3.9 3.1 3.6 3.3 3 3.7 2.5 4.8 2.3 5.1 1.6 5.6 0.8 6 0.2 4.1-0.5 4-1.3 3.7-1.9 3.2-2.6 2.8-3.1 2-3.5 1.4-3.9 0.8-4.1 20.2-252.4"/>
		<path id="Layer" fill-rule="evenodd" class="s3" d="m1555.3 420.6l10.1 35.3 1.1 3 1.4 2.6 1.7 2.3 2.1 1.8 2.3 1.5 2.6 1 3 0.7 3.3 0.2 8.1 0.4 8 0.8 11 2 10.7 3.1 10.8 4 10.5 5 2.9 1 1.3 0.1 1.4-0.1 1.1-0.4 1.3-0.8 2.2-2 2.4-4 1.5-4.6 1.1-5.4 0.1-6"/>
		<path id="Layer" fill-rule="evenodd" class="s2" d="m1657.3 462.1l8.8 62.8 8.2 62.4 2.7 17.6 1.5 7.9 1.8 7.6 1.9 7 2.1 6.7 2.3 6 2.3 5.5 2.5 4.9 2.7 4.5 2.9 4 3 3.3 3.2 2.9 3.3 2.3 3.3 1.8 3.7 1.3 3.7 0.7 3.7-0.2 3.8-0.9 3.4-1.5 3.1-2.1 2.5-2.8 1.9-3.2 1.4-3.4 4.7-17.3 4.3-17.2 3.8-17.3 3.6-17.4 3.2-17.3 2.8-17.4 2.4-17.5 2.2-17.5 1.9-19 1.4-19"/>
		<path id="Layer" fill-rule="evenodd" class="s3" d="m1767.3 480.3l5.8 0.9 5.6 0.1 5.8-0.4 6-1 6.2-1.7 8.3-2.8 7-2.4 5.1-1.5 4.8-1.2 4.8-0.7h0.5l8.8-1.2 6.4-1.1 5.6-1.3 4.9-1.6 4.2-1.9 3.5-2.1 3-2.7 2.3-3.1 1.3-2.3 1-2.7 0.6-2.7 0.4-3"/>
		<path id="Layer" fill-rule="evenodd" class="s2" d="m1869.2 443.9l24.2 227.6 0.5 3.1 1 2.9 1.3 2.7 1.8 2.6 2 2.3 2.4 1.9 2.7 1.6 2.8 1.2 3.7 1.1 3.6 0.8 3.4 0.5 3.3 0.1h3.2l3-0.3 3-0.8 2.8-1 4.3-2.2 4.1-3.1 3.7-3.9 3.4-4.6 7-12.2 6.5-12.6 6-13.6 5.6-14.4 5.1-15.1 5-16.8 5-18.6 6.3-25.7 7.9-31.8 5.4-22.1 4.8-23.1 4.4-23.7 3.8-24.7 6.7-45.4 7.4-45.5 8-45.5 8.8-45.5"/>
		<path id="Layer" fill-rule="evenodd" class="s2" d="m2155 269.1l-1.9 58.6-2.9 58.8-4 59-5 59.2-1.9 26.1-1 25.8-0.2 25.6 0.8 25.3 1.7 25 2.5 24.8 3.5 24.6 4.3 24.2 1 4 1.5 3.6 1.7 3.3 2.2 2.9 3.3 3.2 4 2.7 1.5 0.8 1.6 0.4 1.6 0.2h1.7l1.7-0.3 1.6-0.6 1.4-0.7 1.4-1 6.4-5.7 6-5.9 5.9-6 5.4-6.1 4.8-5.9 4.6-5.9 4.4-6.1 4.3-6.4 8.1-13.5 7.4-14.5 6.9-15.4 6.9-17.3 6.9-19.7 9.2-27.7 1.4-4.4 4.1-13.8 3.8-15 3.4-16.5 3-17.8 3.5-20.5 3.9-20.4 4.4-20.3 4.8-20.1 5.8-21.6 6.1-21.3 6.8-21.3 7.3-21"/>
		<path id="Layer" fill-rule="evenodd" class="s4" d="m3229.8 286.5l-3.3 6-0.5 1.7 0.3 0.9 0.5 0.2 0.7-0.2 2.6-1.4"/>
		<path id="Layer" fill-rule="evenodd" class="s5" d="m2912.5 2087.3l-1.1-3-0.6-2.7-0.3-2.8v-3l0.4-2.9 0.7-3.1 0.9-3 2.7-6.5"/>
		<path id="Layer" fill-rule="evenodd" class="s6" d="m2915.2 2060.3l6.2-8.9 5.4-8.9 4.6-9.2 3.7-9.2 2.9-9.5 2.1-9.4 1.3-9.6 0.5-9.6-0.3-6-0.5-6-0.8-6-1.2-5.9-1.5-6-1.9-5.9-2.1-5.9-2.5-5.7-2.8-5.8-3.1-5.6-3.4-5.5-3.8-5.5-4-5.4-4.3-5.2-4.6-5.2-4.9-5-7.2-6.8-7.4-6.5-7.5-6-7.7-5.7-7.9-5.3-8.1-4.9-8.1-4.5-8.5-4-11.4-5-11.3-4.6-11.5-4.3-11.5-3.8-11.7-3.4-11.6-3.2-11.8-2.7-11.8-2.3-18.5-3-18.5-2-18.8-1.2-18.9-0.2-19 0.8-19.2 1.5-19.4 2.4-19.6 3.3"/>
		<path id="Layer" fill-rule="evenodd" class="s7" d="m2593.3 1824l7.8-5.1 24.2-16.1 16.6-11.4 14.2-10.3 12.1-9.6 11.4-9.8 10.1-9.9 9.3-9.9 8.4-10.5 5.9-8.3 5.6-8.6 5.3-8.9 5-9.6 5.9-12.3 5.2-12.5 4.7-12.4 4.2-12.6 3.7-12.6 3.1-12.8 2.6-12.6 2-13 1.6-13.1 0.8-13.3 0.4-13.4-0.1-13.5-0.8-13.5-1.4-13.5-1.9-13.7-2.4-13.8-3-13.7-3.3-13.3-3.8-13.2-4.2-12.7-4.6-12.6-5-12.2-5.4-11.9-5.7-11.7-6.3-11.3-6.6-11-7-10.6-7.4-10.4-7.6-10-8.2-9.7-8.4-9.2-8.9-8.9-8.5-8-8.9-7.6-9.2-7.4-9.4-6.9-9.6-6.7-10-6.2-10.3-6.1-10.5-5.6-10.7-5.2-11.2-5-11.2-4.6-11.5-4.2-11.8-3.9-12-3.4-12.3-3.2-12.5-2.8-9.2-1.8-9.2-1.4-9.4-1.3-9.5-0.9-9.6-0.8-9.7-0.3-9.7-0.2-9.7 0.2-9.9 0.3-9.8 0.7-9.7 0.9-9.9 1.1-9.7 1.4-9.6 1.8-9.7 1.9-9.6 2.2-9.3 2.6-9.2 2.7-9.2 2.9-9 3.1-8.8 3.4-8.7 3.7-8.5 3.9-8.3 4.1-8.1 4.3-8 4.5-7.7 4.7-7.6 4.9-7.1 5.1-7.2 5.3-6.7 5.5-6.6 5.7-8.5 7.9-8.1 8-7.8 8.5-7.4 8.5-7.2 8.9-6.7 9.2-6.5 9.4-6.2 9.6-5.9 10-5.6 10.2-5.1 10.4-4.9 10.6-4.6 11-4 10.9-3.9 11.4-3.4 11.4-3.2 11.8-2.8 11.7-2.3 12.2-2.1 12.1-1.8 12.3-1.3 12.5-0.8 12.5-0.6 12.5-0.2 12.7 0.2 12.8 0.6 12.8 1 12.7 1.3 12.8 1.6 12.8 2.1 12.8 2.5 12.6 2.7 12.7 3.2 12.5"/>
		<path id="Layer" fill-rule="evenodd" class="s5" d="m2112.2 1669.1l-11.3-15.1-10.7-13.9-10.3-12.9-9.9-11.8-9.3-10.7-8.8-9.6-8.3-8.4-8-7.4-17.1-14.6-19.6-15.3-21.9-16.1-24.4-16.9-11.8-7.7-11.6-7.3-11.5-6.9-11.4-6.4-11.4-6.1-11.1-5.6-11.1-5.1-10.9-4.9-13.7-5.5-13.8-4.8-13.8-4.5-13.9-3.7-14.1-3.3-14-2.6-14.2-2.2-14.2-1.5-11.4-0.8-11.2-0.5-11.5-0.1-11.4 0.2-11.4 0.7-11.4 1-11.5 1.3-11.3 1.6-11.4 2.1-11.4 2.4-11.5 2.8-11.4 3.1-11.4 3.4-11.2 3.9-11.3 4.2-11.2 4.5-11.1 4.8-11.1 5.3-11.2 5.5-11 5.8-10.8 6.3-10.9 6.4-10.7 6.9-10.6 7.2-10.5 7.5-10.4 7.8-10.3 8-10.1 8.5-10 8.7-9.8 8.9-9.7 9.2-9.5 9.5-13.2 13.8-19.3 21.1-57.7 63.9"/>
		<path id="Layer" fill-rule="evenodd" class="s7" d="m1310.3 1683.2l4.1-17.9 4.8-18.2 4-14.7 3.2-14.8 2.5-15.1 1.9-15 1.3-15.5 0.5-15.5-0.1-15.7-0.8-15.6-1.5-15.7-2.2-15.6-2.8-15.5-3.6-15.3-4-15.2-4.9-15-5.4-14.7-6-14.6-6.6-14-7.2-13.7-7.8-13.3-8.2-12.9-8.8-12.3-9.3-12-9.7-11.4-10.3-10.8-10.6-10.2-11-9.8-11.5-9-11.8-8.6-12.1-7.8-12.5-7.1-12.8-6.6-13.3-5.8-14.7-5.8-12.7-4.2-13-3.7-13.1-3.3-13.3-2.9-13.6-2.3-13.5-1.6-13.6-1.3-13.6-0.8-13.8-0.2-13.7 0.2-13.8 0.9-13.7 1.3-13.5 1.8-13.5 2.3-13.3 2.8-13.3 3.3-12.9 3.7-12.7 4.4-12.6 4.7-12.2 5.1-11.9 5.7-11.7 6.1-11.3 6.4-11 6.9-10.6 7.4-10.4 7.7-9.8 8.1-9.6 8.5-9.1 8.8-8.7 9.3-8.2 9.5-7.9 10-10.3 14.3-9.6 14.5-8.8 14.9-8 15.1-7.3 15.2-6.3 15.4-5.7 15.6-4.8 16-2.5 9.5-2.1 9.5-1.9 9.8-1.7 9.7-1.4 9.8-1.2 9.9-0.7 9.9-0.5 10.1-0.3 10.1v10.2l0.3 10.4 0.5 10.4 0.9 10.3 1.1 10.6 1.4 10.6 1.7 10.6 1.8 9.5 2.1 9.5 2.6 9.2 2.9 9.2 4 10.8 4.5 10.6 5.1 10.5 5.5 10.2 6.1 10.1 6.5 10 7.2 9.7 7.7 9.6 8.1 9.3 8.7 9.2 9.4 9.1 9.7 8.8 10.3 8.7 10.8 8.5 11.3 8.3 11.9 8.1"/>
		<path id="Layer" fill-rule="evenodd" class="s6" d="m806.5 1808.4l-33.1 2.7-31.2 3.4-29.4 3.9-27.4 4.7-13.1 2.6-12.5 2.8-12.1 3-11.7 3-11.2 3.3-10.8 3.4-10.2 3.7-9.8 3.7-12 5.4-11.5 6.1-7.6 4.7-7.4 5.1-7 5.5-6.9 5.9-6.8 6.3-6.4 6.5-6.3 7-6 7.4-5.6 7.7-5 7.8-4.5 7.9-3.8 7.9-3.2 8.1-2.5 8.1-2.1 8.1-1.4 8.3-0.8 6.2-0.2 6.1v6.3l0.2 6.2 1.2 11 2 10.5 3 10.4 3.7 9.8 4.2 9.1 5 8.7 5.6 8.3 6.5 8 7.2 7.8 7.9 7.6 8.7 7.1 9.3 6.8"/>
		<path id="Layer" fill-rule="evenodd" class="s5" d="m551.5 2102.3l0.4 13.7"/>
		<path id="Layer" fill-rule="evenodd" class="s4" d="m211.8 293l-13-8.5"/>
		<path id="Layer" fill-rule="evenodd" class="s5" d="m2326.2 1858.6l118.1 64.6"/>
		<path id="Layer" fill-rule="evenodd" class="s8" d="m2444.3 1923.2l-3.6 7.3-3.2 7.4-2.7 7.3-2.2 7.4-1.6 7.3-1.2 7.3-0.7 7.4-0.2 7.3 0.4 9.3 1.3 9.4 1.9 9.3 2.8 9.3 0.7 1.8 2.1 5.4 2.6 5.2 2.9 5.3 3.5 5.1 3.8 5.1 4.5 5.2 12.4 13.6 9.6 10.2 6.7 7.9 4.5 5.1 5 5 5.4 4.6 6 4.5 6.4 4.3 6.9 4 7.3 3.8 7.9 3.6 18 7.3 18.2 6.4 18 5.5 18.1 4.5 18.2 3.5 18 2.6 18.2 1.7 18.1 0.7h10.1l10-0.2 9.9-0.5 10-0.9 10.1-1.1 10-1.4 9.9-1.7 10.1-2 10-2.3 10.1-2.4 10-2.9 10.1-3.1 9.9-3.3 10.1-3.7 10-4 10.1-4.2 9.3-4.5 9.4-5.2 9.4-5.9 9.6-6.8 9.6-7.5 9.6-8.3 9.7-9.1 9.9-9.8"/>
		<path id="Layer" fill-rule="evenodd" class="s9" d="m2454.9 2314.4l-5.3-0.2-5.1 0.3-5.1 0.5-5.1 1-5.1 1.3-5 1.7-4.6 1.2-4.6 0.7h-3.5l-3.4-0.3-2.9-0.2-2.9 0.1-6 0.8-6.5 2-9.1 3.5-6.6 2.8-5 1.6-4.5 1.3-4.3 0.8-23.4 3-25.6 3.7-66.9 10.4-56.4 8.8-41.2 5.9-37.2 4.7-34.1 3.5-47.2 3.9-47.1 3.5-47.1 2.9-47 2.3-46.9 1.8-46.9 1.3-46.8 0.6-46.8 0.3-46.8-0.4-46.6-0.9-46.5-1.5-46.6-2.1-46.5-2.5-46.4-3.1-46.4-3.6-46.3-4.2-24.6-2.7-28-3.7-31.8-4.7-43.9-7-61.3-9.5-21.9-3.1-18.9-2.3-30.9-3.5-26.1-3.6-21.2-3.3-16.3-3.4"/>
		<path id="Layer" fill-rule="evenodd" class="s8" d="m551.5 2102.3l16.1 7.4 16.4 6.8 16.7 6.3 17 5.7 17.3 5.1 17.6 4.5 17.8 4 18.2 3.3 14 2 14.1 1.6 13.9 1 13.8 0.5 13.7-0.1 13.7-0.7 13.6-1.3 13.5-1.6 12.2-2.2 12.3-2.5 12.1-3 12.2-3.4 12-4 12-4.3 11.9-4.9 11.8-5.4 9.7-5 9.4-5.6 9.5-6.5 9.3-7.2 9.2-7.8 9.1-8.5 9-9.3 8.8-10.1 6-7.6 5.2-7.7 4.6-7.6 4-7.7 3.2-7.9 2.7-7.9 1.8-8 1.2-8 0.7-8.6-0.3-8.5-0.9-8.7-1.6-8.7-2.3-8.8-3.2-9-3.9-8.9-4.6-9.1"/>
		<path id="Layer" fill-rule="evenodd" class="s5" d="m982 1924.4l125.9-67.4"/>
		<path id="Layer" fill-rule="evenodd" class="s6" d="m916.3 1853.6l65.7 70.8"/>
		<path id="Layer" fill-rule="evenodd" class="s6" d="m2444.3 1923.2l65.5-68.7"/>
		<path id="Layer" fill-rule="evenodd" class="s10" d="m3242.7 327.3l-6.5 4.2-6.4 4.5-6.1 4.8-5.9 5.3-5.7 5.6-5.7 5.9-5.3 6.2-5.3 6.7-12.4 16.2-10.8 13.4-9.4 10.7-7.6 7.8-42.7 40.3-42.2 40.8-41.7 41.2-41.2 41.5-1.5 1.8-1 2.2-0.6 2.4v2.4l0.5 2.5 1 2.1 1.4 2.1 1.9 1.5 2.2 1.2 1.4 0.5 25.1 10.1 9.7 4.2 8.5 4.1 8.2 4.2 7.7 4.2 6.9 4.2 6.5 4.5 6.2 4.6 5.6 4.9 5.2 5 4.7 5.1 4.3 5.3 3.7 5.4 3.3 5.8 2.8 5.8 2.2 5.5 1.8 5.7 0.5 3.7-0.4 3.8-1.3 3.6-2.2 3-3.7 3.8-3.8 2.8-4 2-4.2 1.4-2.7 0.4-2.8 0.1-2.8-0.2-2.9-0.5-3.1-0.8-3.1-1.2-6.2-3.2-9.7-5.2-9.9-4.5-10.1-3.5-10.3-2.7-6.3-1.2-6.5-1-6.4-0.5-6.6-0.3h-6.7l-6.6 0.4-6.8 0.7-6.9 1-6.7 1.4-6.1 1.6-5.6 2.1-5.1 2.4-4.6 2.8-4 3.1-3.4 3.6-3 3.8-2.4 4.1-1.9 4.5-1.3 4.8-0.9 5.1"/>
		<path id="Layer" fill-rule="evenodd" class="s11" d="m1310.3 1683.2l-4.6 9.2-4.8 8.9-5 8.7-5.1 8.5-5.2 8.3-5.5 8-5.6 7.8-5.8 7.6-6 7.4-6.1 7.1-6.4 6.9-6.5 6.7-6.7 6.5-6.9 6.1-7 6-7.2 5.9-12 8.8-12.3 8.2-12.9 7.7-13.1 7-13.8 6.5-14.2 5.9-14.6 5.4-15.1 4.7"/>
		<path id="Layer" fill-rule="evenodd" class="s7" d="m1107.9 1857l-13.1 2.1-12.9 1.6-12.8 1.4-12.7 1.2-12.5 0.8-12.4 0.5-12.1 0.2-12.2-0.1-11.9-0.4-11.7-0.6-11.5-0.9-11.5-1.3-11.3-1.5-11.1-1.8-11-2.2-10.9-2.4"/>
		<path id="Layer" fill-rule="evenodd" class="s12" d="m916.3 1853.6l-109.8-45.2"/>
		<path id="Layer" fill-rule="evenodd" class="s13" d="m1785.5 205.6l-4.4 23.5-3 20.5-1.9 17.1-0.5 7.4-0.2 6.7-0.1 25.1-0.4 25.1-0.6 25.1-0.9 24.9-1.2 24.9-1.4 24.9-1.6 24.8-2 24.7"/>
		<path id="Layer" fill-rule="evenodd" class="s13" d="m1657.3 462.1l-1-45.6-2.1-76.2-1.1-26.8-1.4-23.8-1.8-22.7-2.2-21.3-2.7-20.2-3-19.6"/>
		<path id="Layer" fill-rule="evenodd" class="s10" d="m509.6 723.9l-5.4-6-5.3-5.4-5.8-4.9-5.7-4.4-6-4-6.2-3.3-6.2-2.8-6.6-2.4-5.4-1.6-5.7-1.1-5.6-0.8-5.9-0.5h-6l-6 0.3-6.1 0.6-6.4 0.9-6.4 1.4-6.5 1.7-6.5 2-6.8 2.4-6.9 2.9-6.9 3-7.2 3.6-7.1 3.8-5.5 2.7-5.4 1.6-2.6 0.3-2.5 0.2-2.4-0.2-2.3-0.3-3.8-1.3-3.5-1.9-3.5-2.7-3.2-3.3-1.9-2.6-1.4-2.8-1-3-0.5-3.1-0.2-3.1 0.4-3.2 0.9-3.1 1.3-2.8 3.7-6.4 4-6.1 4.3-5.8 4.5-5.5 6.2-6.5 6.7-6 7.3-5.7 8-5.5 8.6-5.3 9.5-5.2 10.9-5.4 15.4-7.1 23-10.9 2.5-1.7 2.2-2.1 1.6-2.7 1-2.8 0.2-3.1-0.4-3.1-1.1-2.8-1.7-2.5-2.3-2.2-12.5-9.6-12.1-10.1-11.8-10.4-11.2-10.8-3.9-4-138.7-142.1-4.1-4.5-3.5-5-3.5-5.3-2.9-5.9-4-8.1-3.6-6.4-3.2-4.7-2.8-2.9-3.5-2.8-3.6-2.5-3.5-1.9-3.4-1.5-3.4-1-3.1-0.6-3.1-0.1-3.1 0.4-2.3 0.5-2.3 0.8-2.2 1.1-2.1 1.4-4.1 3.6-4 4.6"/>
		<path id="Layer" fill-rule="evenodd" class="s13" d="m1555.3 420.6l-3.2-208.7"/>
		<path id="Layer" fill-rule="evenodd" class="s13" d="m1876.9 212.3l-7.7 231.6"/>
		<path id="Layer" fill-rule="evenodd" class="s12" d="m2593.3 1824l-83.5 30.5"/>
		<path id="Layer" fill-rule="evenodd" class="s7" d="m2509.8 1854.5l-11 2.1-10.9 2.1-11.2 1.6-11.1 1.4-11.2 1.2-11.4 0.9-11.4 0.6-11.4 0.4-11.5 0.1-11.6-0.1-11.6-0.4-11.8-0.6-23.6-2.1-23.9-3.1"/>
		<path id="Layer" fill-rule="evenodd" class="s11" d="m2326.2 1858.6l-17.3-4.9-16.7-5.6-16.1-6.4-15.5-7-15-7.8-14.3-8.6-13.7-9.3-13-10.1-7.5-6.3-7.3-6.6-7.2-6.8-6.8-7.2-6.7-7.3-6.4-7.6-6.3-7.8-6-8.2-3.1-4.6-3.5-5.8-8.6-15.4-10.5-20.6-12.5-25.6"/>
		<path id="Layer" fill-rule="evenodd" class="s13" d="m2703.4 2496.6l-10.1 10.8-10.3 9.9-10.4 9.2-10.5 8.3-10.8 7.7-10.7 6.8-11 6.1-11.1 5.3-37.1 16.4-31.8 15.1-26.7 13.5-11.4 6.1-10.1 5.7-3.2 2.2-2.5 2.3-2.2 2.7-1.6 2.8-0.9 2.8-0.5 3.1v3.2l0.4 3.4 0.9 3.6 1.4 3.8 1.8 4 2.3 4.2"/>
		<path id="Layer" fill-rule="evenodd" class="s14" d="m2497.3 2655.6l-4-2-3.4-2.4-3.2-2.7-2.7-3.1-1.9-2.9-1.7-3.2-1.4-3.6-1-3.8-0.6-4-0.3-4.4 0.1-4.6 0.4-4.8 0.8-5.1 1-5.4 1.4-5.6 1.8-5.9 4.6-12.7 6-13.6 2.2-5.4 1.4-5.4 0.6-5.2v-5.1l-0.9-5.6-1.7-5.4-2.7-5.4-3.5-5.3-2.7-3.1-2.9-2.6-2.3-1.5-2.6-1.3-2.8-1-2.8-0.9-3.2-0.5-3.2-0.3-7.1 0.2-9.7 0.6-9.6 0.5-9.5 0.1-9.3-0.1-9.4-0.4-9.2-0.6-9-1-9-1.2-12.6-1.5-13.3-0.9-14.2-0.3-15.1 0.4-15.7 0.9-17.3 1.5-19 2.3-25.8 3.4-20.4 2.7-35.2 4.2-37.6 4.2-39.1 3.7-39.9 3.4-39.2 3.1-37.2 2.4-33.4 1.7-28.6 0.9-54.5 0.9-55.5 0.6-56.5 0.4-57.3 0.1-58.3-0.2-59.3-0.7-60.2-0.7-61.3-1.2-30.4-1-34.5-1.8-38.5-2.7-42.5-3.4-46.4-4.4-50.6-5.1-54.6-6-58.6-6.8-16.1-1.6-16.5-1-17.1-0.7-18-0.1-18.5 0.4-20.2 0.9-22.3 1.2-30.5 2.1-27.5 1.9-2.9 0.5-2.6 1.3-2.2 1.7-1.8 2.1-3.8 6.3-2.9 6.5-2.2 6.5-1.3 6.7-0.5 3.8-0.1 4 0.1 3.9 0.4 4 1.5 8.1 2.6 8.1 1.5 3.4 2 3 2.9 3 3.5 2.5 4.8 3.1 4.1 3.4 3.4 3.7 2.9 4.1 1.8 3.6 1.6 3.7 1 4.1 0.8 4.1 0.3 4.5-0.1 4.7-0.4 4.9-0.7 5.1-0.7 2.5-1.1 2.3-1.3 2.2-1.8 1.9-5.6 5.1-5.8 4.5-6.1 3.8-6.4 3.4-5 2.1-5.2 2-5.4 1.4-5.5 1.1-5.7 0.9-5.8 0.5-6 0.2-6.1-0.2"/>
		<path id="Layer" fill-rule="evenodd" class="s13" d="m875.2 2671.2l38.7-14.5 1.8-0.9 1.5-1.1 1.3-1.4 1-1.5 2.6-4.7 1.1-2.7 0.7-2.8 0.1-3-0.5-2.8-0.9-2.8-1.4-2.6-1.8-2.1-2.2-1.9-40.1-28.4-9.7-6.4-10.6-6-11.5-5.8-12.3-5.3-12.7-5.7-12-6-11.6-6.5-11.1-7-10.5-7.6-10.1-8-9.5-8.4-8.9-9.1-5.3-5.6-4.9-5.9-4.9-6-4.6-6.3"/>
		<path id="Layer" fill-rule="evenodd" class="s9" d="m3252.3 778.2l-24.4 27.4-24 26.1-23.4 24.8-22.9 23.5-3.8 3.7-4 3.3-3.8 2.9-4 2.6-3.8 2.2-4 1.6-3.9 1.4-4 0.9-5.4 0.8-5.5 0.3-5.8-0.3-6-0.6-6.2-1.2-6.6-1.6-7.2-2.2-9.6-3.2-12-4-8.6-2.3"/>
		<path id="Layer" fill-rule="evenodd" class="s15" d="m2375.4 3025.3l-2.3 2.3-2.1 2.4-1.9 2.8-1.7 3-1.4 3.3-1.2 3.4-1.1 3.9-0.7 3.9-0.8 2.6-1.1 2.3-1.7 1.9-2 1.7-2.3 1.2-2.5 0.7-2.7 0.2-2.5-0.3-0.8-0.3-3.7-1.4-3.7-1.9-3.7-2.3-3.6-2.7-3.3-3.1-3.1-3.2-2.5-3.2-2.2-3.3-10.6-19-12.5-22.7-10.3-17.7-9.8-16.3-9.5-14.8-9.4-13.8-9.2-12.3-9-11.1-8.9-9.9-8.8-8.7-8.7-7.6-8.6-6.1-4.1-2.6-4.2-2.3-4.1-1.9-4.2-1.7-4-1.2-3.9-0.9-4-0.8-4.1-0.2h-3.8l-3.9 0.2-5.8 1.2-5.8 1.9-7.1 3-7.3 3.6-6.9 3.9-6.9 4.2-6.9 4.6-6.8 5-6.8 5.5-6.8 5.8-6.5 6.2-6.5 6.5-6.8 7.1-6.9 7.7-14.3 17.1-19 24.3-9.9 12.6-8 9.5-8.7 9.5-9.6 9.2-10.2 9-11 8.6-11.8 8.6-12.4 8.3-13.3 8.1-9.6 5.8-9.2 6.1-8.7 6.1-8.1 6.4-13.3 10.3-14 10.4-14.8 10.2-15.5 10.1"/>
		<path id="Layer" fill-rule="evenodd" class="s16" d="m1855.2 3085.7l47.4-190.7 1-5.2 0.3-3.8-0.2-3.7-0.2-8.1 0.1-8.1 0.6-7.9 1.1-7.8 7.1-18.4 1.2-3.4 0.6-3.6 0.1-2.8-0.2-2.8-0.4-2.8-0.9-3-1-2.8-1.4-2.9-3.9-6"/>
		<path id="Layer" fill-rule="evenodd" class="s17" d="m1806.6 2932l-2.3 1.4-3.6 2.9-3.1 3.9-2.4 4.4-2 5.4"/>
		<path id="Layer" fill-rule="evenodd" class="s15" d="m1793.2 2950l-2.5 10.7-2.5 10-3 9.3-3.2 8.7-3.4 7.9-3.7 7.2-4.1 6.5-4.2 5.8-17.5 21.8-17.2 21.9-2 2.2-3.1 2.3-3.6 1.6-3.8 0.8h-3.8l-3.9-0.9-3.4-1.7-3.1-2.4-2.5-2.9-4.8-6.6-5.1-6.1-5.2-5.2-5.6-5-6.2-4.7-6.4-4.3-2.1-1.5-2-1.8-2.1-2.7-1.8-3.2-35.7-78.3"/>
		<path id="Layer" fill-rule="evenodd" class="s17" d="m1522.4 2800.8l-2.6 3-2.2 3-1.7 3.2-1.1 3.4-0.8 4.7 0.3 5.1 1.1 5.2 2.2 5.7"/>
		<path id="Layer" fill-rule="evenodd" class="s15" d="m1517.6 2834.1l7.7 73.1 0.6 3.3 1.3 2.9 1.4 2.2 1.8 2.1 3.3 3.8 2.4 4.3 1.3 4.1 0.6 4.5-0.1 4.7-0.9 5.1-0.6 3.4-0.2 3.2 0.3 4.1 0.9 3.9 4.7 16 4.2 15.8 3.8 15.8 3.4 15.7 2.9 15.4 2.5 15.5 2 15.4 1.7 15.2v1.6l-0.5 1.6-0.7 1.4-1.1 1.2-1.3 1.1-1.5 0.6-1.6 0.3h-1.6l-1.7-0.6-3.6-1.5-14.8-6.6-14.7-7.1-14.4-7.4-14.4-7.8-14.1-8.3-14-8.5-13.8-9.1-13.7-9.3-6.1-4.5-5.9-4.8-5.6-4.8-5.5-5.1-5.1-5.3-5-5.3-4.6-5.7-4.5-5.7-6-8.7-7.6-11.2-8.3-11.4-8.7-11-9-10.6-8.9-9.9-9.1-9-8.8-8.3-9-7.6-8.4-6.5-8.6-5.8-8.2-4.8-8-4-7.9-3-7.7-2.3-7.5-1.5-7.3-0.5-3.5 0.2-3.6 0.5-3.5 0.7-3.7 1.1-3.8 1.4-3.8 1.8-7.8 4.4-7.9 5.7-8.3 7-8.6 8.3-8.7 9.5-8.9 10.7-9.1 12-9.5 13-9.5 14.6-9.9 15.5-10.1 16.9-10.5 18.1-12.5 22.8-7.1 12.7-4 6-2.1 2.5-2.1 2.3-2.3 1.8-2.3 1.6-2.6 1.3-2.5 0.9-2.7 0.6-3 0.3h-2.9l-3.1-0.4-3-0.6-3.4-1.1-3.3-1.4-3.4-1.6"/>
		<path id="Layer" fill-rule="evenodd" class="s18" d="m2481.2 2763l276.9-2.8 3.8-0.1 3.6-0.6 3.2-0.6 2.9-0.9 2.6-1 2.3-1.4 1.9-1.7 1.6-1.8 1.3-2 1-2.3 0.7-2.6 0.4-2.8v-3.1l-0.3-3.1-0.6-3.6-0.9-3.7-7.6-27-2.5-7.2-1.4-3.2-1.8-2.9-1.8-2.7-2.2-2.5-2.1-2.2-2.5-2.1-2.7-1.7-2.8-1.6-2.9-1.3-3.2-0.8-3.3-0.9-3.6-0.6-7.7-0.2-108.9 2.2-15.3-0.2-15.6-0.6-15.7-1.4-15.8-1.9-16.1-2.7-16.1-3.3-16.2-3.9-16.5-4.6"/>
		<path id="Layer" fill-rule="evenodd" class="s18" d="m875.2 2671.2l-173 0.9-5 0.1-4.8 0.6-4.6 0.7-4.4 1.2-4 1.4-3.9 1.6-3.7 2.1-3.4 2.3-3.2 2.7-3.1 3-2.8 3.2-2.6 3.7-2.3 3.9-2 4.2-1.8 4.6-1.7 4.9-2.3 7.9-1.2 5-0.9 4.6-0.6 4.3v4l0.4 3.7 0.9 3.3 1.2 2.9 1.8 2.9 2 2.3 2.6 2 3 1.7 3.4 1.4 3.9 1 4.2 0.8 4.8 0.3 5.1 0.2 72.1-1.1 78.5-0.8 18 0.7 41.4 2.7 8.7 0.4h8.3l8-0.4 7.7-0.6 7.3-1.2 7-1.4 6.7-1.9 6.2-2.2"/>
		<path id="Layer" fill-rule="evenodd" class="s19" d="m1522.4 2840.1l-1.6-0.5-1.3-0.7-1-0.7-0.7-0.9-0.3-1.6 0.1-1.6"/>
		<path id="Layer" fill-rule="evenodd" class="s19" d="m1794.2 2986.8l-1-36.8"/>
		<path id="Layer" fill-rule="evenodd" class="s5" d="m2290.4 3252.2l-4.4-1.6-10.3-3.3-10.4-2.9-10.5-2.6-10.4-2.3-10.8-2-10.8-1.7-10.9-1.4-11-1-1-0.3-0.7-0.4-0.6-1.4-0.3-0.7-0.2-0.4-0.6-0.5-1.1-0.4-14.9-1.8-16.1-0.9-17.3-0.1-23.5 0.7-17.4 0.7-12.9 0.1-11.8-0.1-10.8-0.5-54-4.1-52.2-4.8-18.7-2.6-42.9-7.1-15.3-2.1-15.6-1.3-15.7-0.8-16 0.1"/>
		<path id="Layer" fill-rule="evenodd" class="s5" d="m1757.9 3239.5l-6.7-34.6-1-3-0.8-1.1-0.8-0.9-1.2-0.7-1.3-0.5-3.2-0.1-51 4-2.9 0.5-2.7 1-2.7 1.8-2.3 2.4-4.1 5.9-3.3 6.4-1.4 3.7-1.1 3.8-0.8 3.9-0.7 4.1"/>
		<path id="Layer" fill-rule="evenodd" class="s5" d="m1585.5 3201.8l-450.3 46.8"/>
		<path id="Layer" fill-rule="evenodd" class="s20" d="m3478.3 2306.3l-12.3 9.1-11.8 8.4-11.7 7.6-11.1 6.6-10.9 6-10.4 5.1-10.1 4.4-9.7 3.5-16.9 5.3-17.1 5-17.3 4.4-17.5 4.1-17.7 3.7-17.8 3.4-18.2 2.9-18.4 2.6-18.5 2-18.8 1.8-18.9 1.3-19.2 1-19.4 0.5-19.6 0.1-19.8-0.2-20.1-0.7"/>
		<path id="Layer" fill-rule="evenodd" class="s19" d="m3500.8 2593.1l1.2-41.3-0.3-3.2-0.9-2.8-1.5-2.5-2.3-2.2-0.3-0.3-4.3-2.9-4.6-2.5-5-2.1-5.4-1.7-5.7-1.1-6.2-0.8-6.5-0.2-6.8 0.2-33.1 1.9-35.9 1.7-38.7 1.4-41.7 1-44.6 0.9-47.3 0.5-50.2 0.2h-53.2"/>
		<path id="Layer" fill-rule="evenodd" class="s19" d="m3455.1 2786.1l-5.8-0.6-33.5-4.2-33.3-5-33.4-5.9-33.2-6.6-33.1-7.5-33.1-8.3-33-9-32.9-9.9-6-2-5.7-2.4-5.5-2.6-5.1-2.9-4.9-3.2-4.5-3.5-4.2-3.8-3.8-4-3-3.4-2.7-3.7-2.5-3.9-2.3-3.9-2.1-4.3-1.9-4.3-3.2-9.3"/>
		<path id="Layer" fill-rule="evenodd" class="s21" d="m3307.7 3008.8l-7.6-9.7-7.5-8.8-7.8-8-7.9-6.9-8.1-5.8-8-5-8.3-4.1-8.5-3.1"/>
		<path id="Layer" fill-rule="evenodd" class="s19" d="m3244 2957.4l-22.5-17.2-21.4-17.6-20.7-17.6-19.7-17.9-19-18.1-17.8-18.4-17-18.6-16.2-18.8-2.3-2-2.4-1.2-1.4-0.2-1.4 0.1-3.1 0.9-6.9 3.2"/>
		<path id="Layer" fill-rule="evenodd" class="s2" d="m3244 2957.4l-16.2 14.2-16.5 13.5-17.8 13.7-18.1 13.1-18.5 12.5-19.1 11.9-19.4 11.3-20 10.9-20.3 10.2-20.8 9.8-10.1 4.2-10.5 3.9-11 3.5-11.4 3.2-2.6 0.2-2.3-0.3-2.1-1.3-1.8-2.1-2.4-3.9-2.3-4.1-3-6.8-2.3-7-1.6-7.3-1.2-7.7-0.9-6.8-1.4-6.7-2-6.9-2.4-7.2-3-7.3-3.6-7.6-10.3-20-1.7-3.2-2.7-5.7-2.4-6.2-2-6.7-2.5-9.2-2.8-10.8-2.5-7.8-3.1-6.9-3.6-6.4-3.2-4.4-1.5-2.3-1.2-2.3-0.6-2.3-0.4-2.4 0.2-3 0.7-3.1 1.8-3.7 2.6-3.8 3.4-4 4.2-4.1"/>
	</g>
	<path id="Layer" class="s22" d="m2497.3 2655.6l16.5 4.6 16.2 3.9 16.1 3.3 16.1 2.7 15.8 1.9 15.7 1.4 15.6 0.6 15.3 0.2 108.9-2.2 7.7 0.2 3.6 0.6 3.3 0.9 3.2 0.8 2.9 1.3 2.8 1.6 2.7 1.7 2.5 2.1 2.1 2.2 2.2 2.5 1.8 2.7 1.8 2.9 1.4 3.2 2.5 7.2 7.6 27 0.9 3.7 0.6 3.6 0.3 3.1v3.1l-0.4 2.8-0.7 2.6-1 2.3-1.3 2-1.6 1.8-1.9 1.7-2.3 1.4-2.6 1-2.9 0.9-3.2 0.6-3.6 0.6-3.8 0.1-276.9 2.8-0.1-5.4-1-5.1-1.4-3.8-1.8-3.6-2.5-3.6-2.8-3.3-3.4-3.3-3.9-3.1-4.4-2.9-4.9-2.8-2.7-1.1-2.9-0.5-3.1 0.2-2.9 0.8-2.7 1.5-2.3 2-1.8 2.4-1.3 2.8-0.5 3.1-1.1 11-2 12.1-2.8 13.3-4.3 18.2-3.9 16.2-2.6 12-1.8 10.9-1.3 9.8-2.4 21.4-3 21.1-3.4 21.1-4 20.9-5.5 25.2-6.4 25.1-7 24.9-7.9 24.8-2.3 2.3-2.1 2.4-1.9 2.8-1.7 3-1.4 3.3-1.2 3.4-1.1 3.9-0.7 3.9-0.8 2.6-1.1 2.3-1.7 1.9-2 1.7-2.3 1.2-2.5 0.7-2.7 0.2-2.5-0.3-0.8-0.3-3.7-1.4-3.7-1.9-3.7-2.3-3.6-2.7-3.3-3.1-3.1-3.2-2.5-3.2-2.2-3.3-10.6-19-12.5-22.7-10.3-17.7-9.8-16.3-9.5-14.8-9.4-13.8-9.2-12.3-9-11.1-8.9-9.9-8.8-8.7-8.7-7.6-8.6-6.1-4.1-2.6-4.2-2.3-4.1-1.9-4.2-1.7-4-1.2-3.9-0.9-4-0.8-4.1-0.2h-3.8l-3.9 0.2-5.8 1.2-5.8 1.9-7.1 3-7.3 3.6-6.9 3.9-6.9 4.2-6.9 4.6-6.8 5-6.8 5.5-6.8 5.8-6.5 6.2-6.5 6.5-6.8 7.1-6.9 7.7-14.3 17.1-19 24.3-9.9 12.6-8 9.5-8.7 9.5-9.6 9.2-10.2 9-11 8.6-11.8 8.6-12.4 8.3-13.3 8.1-9.6 5.8-9.2 6.1-8.7 6.1-8.1 6.4-13.3 10.3-14 10.4-14.8 10.2-15.5 10.1 5.2-38.5 47.4-190.7 1-5.2 0.3-3.8-0.2-3.7-0.2-8.1 0.1-8.1 0.6-7.9 1.1-7.8 7.1-18.4 1.2-3.4 0.6-3.6 0.1-2.8-0.2-2.8-0.4-2.8-0.9-3-1-2.8-1.4-2.9-3.9-6-1.8-3.8-2.1-3.1-2.5-2.7-2.9-2.1-3.8-1.6-4.4-1.1-4.7-0.1-5.4 0.8-3.4 0.9-3.5 1.4-3 1.6-3 2.2-2.7 2.4-2.3 2.9-2 3-1.5 3.2-50.9 126.2-2.3 1.4-3.6 2.9-3.1 3.9-2.4 4.4-2 5.4-2.5 10.7-2.5 10-3 9.3-3.2 8.7-3.4 7.9-3.7 7.2-4.1 6.5-4.2 5.8-17.5 21.8-17.2 21.9-2 2.2-3.1 2.3-3.6 1.6-3.8 0.8h-3.8l-3.9-0.9-3.4-1.7-3.1-2.4-2.5-2.9-4.8-6.6-5.1-6.1-5.2-5.2-5.6-5-6.2-4.7-6.4-4.3-2.1-1.5-2-1.8-2.1-2.7-1.8-3.2-35.7-78.3-22.3-56.3-24.1-58.5-0.5-1.1-3.3-8-2.6-5.5-2.5-4.7-2.6-4.2-2.8-3.5-2.9-2.9-3.2-2.6-3.5-1.8-3.2-1.2-3.6-0.8-3.7-0.4h-4.1l-4.6 0.7-4 1.1-3.4 1.8-2.7 2.3-2.3 3.2-1.4 3.8-2.6 3-2.2 3-1.7 3.2-1.1 3.4-0.8 4.7 0.3 5.1 1.1 5.2 2.2 5.7 7.7 73.1 0.6 3.3 1.3 2.9 1.4 2.2 1.8 2.1 3.3 3.8 2.4 4.3 1.3 4.1 0.6 4.5-0.1 4.7-0.9 5.1-0.6 3.4-0.2 3.2 0.3 4.1 0.9 3.9 4.7 16 4.2 15.8 3.8 15.8 3.4 15.7 2.9 15.4 2.5 15.5 2 15.4 1.7 15.2v1.6l-0.5 1.6-0.7 1.4-1.1 1.2-1.3 1.1-1.5 0.6-1.6 0.3h-1.6l-1.7-0.6-3.6-1.5-14.8-6.6-14.7-7.1-14.4-7.4-14.4-7.8-14.1-8.3-14-8.5-13.8-9.1-13.7-9.3-6.1-4.5-5.9-4.8-5.6-4.8-5.5-5.1-5.1-5.3-5-5.3-4.6-5.7-4.5-5.7-6-8.7-7.6-11.2-8.3-11.4-8.7-11-9-10.6-8.9-9.9-9.1-9-8.8-8.3-9-7.6-8.4-6.5-8.6-5.8-8.2-4.8-8-4-7.9-3-7.7-2.3-7.5-1.5-7.3-0.5-3.5 0.2-3.6 0.5-3.5 0.7-3.7 1.1-3.8 1.4-3.8 1.8-7.8 4.4-7.9 5.7-8.3 7-8.6 8.3-8.7 9.5-8.9 10.7-9.1 12-9.5 13-9.5 14.6-9.9 15.5-10.1 16.9-10.5 18.1-12.5 22.8-7.1 12.7-4 6-2.1 2.5-2.1 2.3-2.3 1.8-2.3 1.6-2.6 1.3-2.5 0.9-2.7 0.6-3 0.3h-2.9l-3.1-0.4-3-0.6-3.4-1.1-3.3-1.4-3.4-1.6-23.9-87.1-5.8-22-4.8-21.9-4.1-22-3.2-22-3.1-21.9-3.3-21.8-3.9-21.7-4.2-21.6-6.9-32.1-7.8-31.9-1.3-3-0.8-1-1.1-1.1-1.1-0.6-1.3-0.4-3.2-0.1-5.2 0.7-4.9 1.3-4.3 1.8-4.1 2.4-2.6 2.1-2.4 2.3-2.2 2.5-2 2.9-1.8 3-1.7 3.5-1.4 3.6-1.3 3.9-6.2 2.2-6.7 1.9-7 1.4-7.3 1.2-7.7 0.6-8 0.4h-8.3l-8.7-0.4-41.4-2.7-18-0.7-78.5 0.8-72.1 1.1-5.1-0.2-4.8-0.3-4.2-0.8-3.9-1-3.4-1.4-3-1.7-2.6-2-2-2.3-1.8-2.9-1.2-2.9-0.9-3.3-0.4-3.7v-4l0.6-4.3 0.9-4.6 1.2-5 2.3-7.9 1.7-4.9 1.8-4.6 2-4.2 2.3-3.9 2.6-3.7 2.8-3.2 3.1-3 3.2-2.7 3.4-2.3 3.7-2.1 3.9-1.6 4-1.4 4.4-1.2 4.6-0.7 4.8-0.6 5-0.1 173-0.9 6.1 0.2 6-0.2 5.8-0.5 5.7-0.9 5.5-1.1 5.4-1.4 5.2-2 5-2.1 6.4-3.4 6.1-3.8 5.8-4.5 5.6-5.1 1.8-1.9 1.3-2.2 1.1-2.3 0.7-2.5 0.7-5.1 0.4-4.9 0.1-4.7-0.3-4.5-0.8-4.1-1-4.1-1.6-3.7-1.8-3.6-2.9-4.1-3.4-3.7-4.1-3.4-4.8-3.1-3.5-2.5-2.9-3-2-3-1.5-3.4-2.6-8.1-1.5-8.1-0.4-4-0.1-3.9 0.1-4 0.5-3.8 1.3-6.7 2.2-6.5 2.9-6.5 3.8-6.3 1.8-2.1 2.2-1.7 2.6-1.3 2.9-0.5 27.5-1.9 30.5-2.1 22.3-1.2 20.2-0.9 18.5-0.4 18 0.1 17.1 0.7 16.5 1 16.1 1.6 58.6 6.8 54.6 6 50.6 5.1 46.4 4.4 42.5 3.4 38.5 2.7 34.5 1.8 30.4 1 61.3 1.2 60.2 0.7 59.3 0.7 58.3 0.2 57.3-0.1 56.5-0.4 55.5-0.6 54.5-0.9 28.6-0.9 33.4-1.7 37.2-2.4 39.2-3.1 39.9-3.4 39.1-3.7 37.6-4.2 35.2-4.2 20.4-2.7 25.8-3.4 19-2.3 17.3-1.5 15.7-0.9 15.1-0.4 14.2 0.3 13.3 0.9 12.6 1.5 9 1.2 9 1 9.2 0.6 9.4 0.4 9.3 0.1 9.5-0.1 9.6-0.5 9.7-0.6 7.1-0.2 3.2 0.3 3.2 0.5 2.8 0.9 2.8 1 2.6 1.3 2.3 1.5 2.9 2.6 2.7 3.1 3.5 5.3 2.7 5.4 1.7 5.4 0.9 5.6v5.1l-0.6 5.2-1.4 5.4-2.2 5.4-6 13.6-4.6 12.7-1.8 5.9-1.4 5.6-1 5.4-0.8 5.1-0.4 4.8-0.1 4.6 0.3 4.4 0.6 4 1 3.8 1.4 3.6 1.7 3.2 1.9 2.9 2.7 3.1 3.2 2.7 3.4 2.4z"/>
	<g id="Layer">
		<path id="Layer" class="s1" d="m1310.3 1683.2l-4.6 9.2-4.8 8.9-5 8.7-5.1 8.5-5.2 8.3-5.5 8-5.6 7.8-5.8 7.6-6 7.4-6.1 7.1-6.4 6.9-6.5 6.7-6.7 6.5-6.9 6.1-7 6-7.2 5.9-12 8.8-12.3 8.2-12.9 7.7-13.1 7-13.8 6.5-14.2 5.9-14.6 5.4-15.1 4.7-13.1 2.1-12.9 1.6-12.8 1.4-12.7 1.2-12.5 0.8-12.4 0.5-12.1 0.2-12.2-0.1-11.9-0.4-11.7-0.6-11.5-0.9-11.5-1.3-11.3-1.5-11.1-1.8-11-2.2-10.9-2.4-109.8-45.2-11.9-8.1-11.3-8.3-10.8-8.5-10.3-8.7-9.7-8.8-9.4-9.1-8.7-9.2-8.1-9.3-7.7-9.6-7.2-9.7-6.5-10-6.1-10.1-5.5-10.2-5.1-10.5-4.5-10.6-4-10.8-2.9-9.2-2.6-9.2-2.1-9.5-1.8-9.5-1.7-10.6-1.4-10.6-1.1-10.6-0.9-10.3-0.5-10.4-0.3-10.4v-10.2l0.3-10.1 0.5-10.1 0.7-9.9 1.2-9.9 1.4-9.8 1.7-9.7 1.9-9.8 2.1-9.5 2.5-9.5 4.8-16 5.7-15.6 6.3-15.4 7.3-15.2 8-15.1 8.8-14.9 9.6-14.5 10.3-14.3 7.9-10 8.2-9.5 8.7-9.3 9.1-8.8 9.6-8.5 9.8-8.1 10.4-7.7 10.6-7.4 11-6.9 11.3-6.4 11.7-6.1 11.9-5.7 12.2-5.1 12.6-4.7 12.7-4.4 12.9-3.7 13.3-3.3 13.3-2.8 13.5-2.3 13.5-1.8 13.7-1.3 13.8-0.9 13.7-0.2 13.8 0.2 13.6 0.8 13.6 1.3 13.5 1.6 13.6 2.3 13.3 2.9 13.1 3.3 13 3.7 12.7 4.2 14.7 5.8 13.3 5.8 12.8 6.6 12.5 7.1 12.1 7.8 11.8 8.6 11.5 9 11 9.8 10.6 10.2 10.3 10.8 9.7 11.4 9.3 12 8.8 12.3 8.2 12.9 7.8 13.3 7.2 13.7 6.6 14 6 14.6 5.4 14.7 4.9 15 4 15.2 3.6 15.3 2.8 15.5 2.2 15.6 1.5 15.7 0.8 15.6 0.1 15.7-0.5 15.5-1.3 15.5-1.9 15-2.5 15.1-3.2 14.8-4 14.7-4.8 18.2z"/>
		<path id="Layer" class="s1" d="m2593.3 1824l-83.5 30.5-11 2.1-10.9 2.1-11.2 1.6-11.1 1.4-11.2 1.2-11.4 0.9-11.4 0.6-11.4 0.4-11.5 0.1-11.6-0.1-11.6-0.4-11.8-0.6-23.6-2.1-23.9-3.1-17.3-4.9-16.7-5.6-16.1-6.4-15.5-7-15-7.8-14.3-8.6-13.7-9.3-13-10.1-7.5-6.3-7.3-6.6-7.2-6.8-6.8-7.2-6.7-7.3-6.4-7.6-6.3-7.8-6-8.2-3.1-4.6-3.5-5.8-8.6-15.4-10.5-20.6-12.5-25.6-3.2-12.5-2.7-12.7-2.5-12.6-2.1-12.8-1.6-12.8-1.3-12.8-1-12.7-0.6-12.8-0.2-12.8 0.2-12.7 0.6-12.5 0.8-12.5 1.3-12.5 1.8-12.3 2.1-12.1 2.3-12.2 2.8-11.7 3.2-11.8 3.4-11.4 3.9-11.4 4-10.9 4.6-11 4.9-10.6 5.1-10.4 5.6-10.2 5.9-10 6.2-9.6 6.5-9.4 6.7-9.2 7.2-8.9 7.4-8.5 7.8-8.5 8.1-8 8.5-7.9 6.6-5.7 6.7-5.5 7.2-5.3 7.1-5.1 7.6-4.9 7.7-4.7 8-4.5 8.1-4.3 8.3-4.1 8.5-3.9 8.7-3.7 8.8-3.4 9-3.1 9.2-2.9 9.2-2.7 9.3-2.6 9.6-2.2 9.7-1.9 9.6-1.8 9.7-1.4 9.9-1.1 9.7-0.9 9.8-0.7 9.9-0.3 9.7-0.2 9.7 0.2 9.7 0.3 9.6 0.8 9.5 0.9 9.4 1.3 9.2 1.4 9.2 1.8 12.5 2.8 12.3 3.2 12 3.4 11.8 3.9 11.5 4.2 11.2 4.6 11.2 5 10.7 5.2 10.5 5.6 10.3 6.1 10 6.2 9.6 6.7 9.4 6.9 9.2 7.4 8.9 7.6 8.5 8 8.9 8.9 8.4 9.2 8.2 9.7 7.6 10 7.4 10.4 7 10.6 6.6 11 6.3 11.3 5.7 11.7 5.4 11.9 5 12.2 4.6 12.6 4.2 12.7 3.8 13.2 3.3 13.3 3 13.7 2.4 13.8 1.9 13.7 1.4 13.5 0.8 13.5 0.1 13.5-0.4 13.4-0.8 13.3-1.6 13.1-2 13-2.6 12.6-3.1 12.8-3.7 12.6-4.2 12.6-4.7 12.4-5.2 12.5-5.9 12.3-5 9.6-5.3 8.9-5.6 8.6-5.9 8.3-8.4 10.5-9.3 9.9-10.1 9.9-11.4 9.8-12.1 9.6-14.2 10.3-16.6 11.4-24.2 16.1z"/>
	</g>
	<g id="Layer">
		<path id="Layer" class="s23" d="m1087.1 342.5l7.3 2.2 6.9 2.8 6.1 3.3 5.8 4 2 1.9 1.8 2.2 1.4 2.5 0.9 3 9.1 40 7.9 39 6.9 38.2 5.9 37.2 1.4 8.9 1.9 9.3 2.4 10 2.8 10.4 7 22.5 10.6 30.1 1 3.1 4.2 11 4.6 10.6 4.9 10.3 5.3 10.1 5.8 9.9 6 9.4 6.5 9.1 6.8 8.8 6.1 7.5 6.4 7 6.8 6.9 6.9 6.6 3.2 2.3 3.7 1.6 3.9 0.7 4-0.2 3.8-1.2 3.5-1.9 2.9-2.7 2.3-3.3 0.9-1.9 0.7-2.2 5-23.1 4.2-23.2 3.2-23.2 2.3-23.3 0.6-9.1 0.3-9.8v-21.9l-1.1-25.1-2-28.2-2.6-32.6-2.3-32.3-2-32.3-1.7-32.1-1.5-32.1-1.2-31.9-1-31.9-0.6-31.7 99.8-27.3 8.3 42.5 7.6 42.6 6.9 42.7 6.1 42.8 3.5 26.2 2.9 20.7 3.7 20.3 4.3 19.9 4.9 19.4 7.7 29 6.7 25.8 5.4 18.7 5.3 16.7 5.2 15.2 5.7 14.5 6.2 13.7 6.5 12.7 7 12.2 2.8 3.9 3.1 3.6 3.3 3 3.7 2.5 4.8 2.3 5.1 1.6 5.6 0.8 6 0.2 4.1-0.5 4-1.3 3.7-1.9 3.2-2.6 2.8-3.1 2-3.5 1.4-3.9 0.8-4.1 20.2-252.4 10.1 35.3 1.1 3 1.4 2.6 1.7 2.3 2.1 1.8 2.3 1.5 2.6 1 3 0.7 3.3 0.2 8.1 0.4 8 0.8 11 2 10.7 3.1 10.8 4 10.5 5 2.9 1 1.3 0.1 1.4-0.1 1.1-0.4 1.3-0.8 2.2-2 2.4-4 1.5-4.6 1.1-5.4 0.1-6 8.8 62.8 8.2 62.4 2.7 17.6 1.5 7.9 1.8 7.6 1.9 7 2.1 6.7 2.3 6 2.3 5.5 2.5 4.9 2.7 4.5 2.9 4 3 3.3 3.2 2.9 3.3 2.3 3.3 1.8 3.7 1.3 3.7 0.7 3.7-0.2 3.8-0.9 3.4-1.5 3.1-2.1 2.5-2.8 1.9-3.2 1.4-3.4 4.7-17.3 4.3-17.2 3.8-17.3 3.6-17.4 3.2-17.3 2.8-17.4 2.4-17.5 2.2-17.5 1.9-19 1.4-19 5.8 0.9 5.6 0.1 5.8-0.4 6-1 6.2-1.7 8.3-2.8 7-2.4 5.1-1.5 4.8-1.2 4.8-0.7h0.5l8.8-1.2 6.4-1.1 5.6-1.3 4.9-1.6 4.2-1.9 3.5-2.1 3-2.7 2.3-3.1 1.3-2.3 1-2.7 0.6-2.7 0.4-3 24.2 227.6 0.5 3.1 1 2.9 1.3 2.7 1.8 2.6 2 2.3 2.4 1.9 2.7 1.6 2.8 1.2 3.7 1.1 3.6 0.8 3.4 0.5 3.3 0.1h3.2l3-0.3 3-0.8 2.8-1 4.3-2.2 4.1-3.1 3.7-3.9 3.4-4.6 7-12.2 6.5-12.6 6-13.6 5.6-14.4 5.1-15.1 5-16.8 5-18.6 6.3-25.7 7.9-31.8 5.4-22.1 4.8-23.1 4.4-23.7 3.8-24.7 6.7-45.4 7.4-45.5 8-45.5 8.8-45.5 101.9 29-1.9 58.6-2.9 58.8-4 59-5 59.2-1.9 26.1-1 25.8-0.2 25.6 0.8 25.3 1.7 25 2.5 24.8 3.5 24.6 4.3 24.2 1 4 1.5 3.6 1.7 3.3 2.2 2.9 3.3 3.2 4 2.7 1.5 0.8 1.6 0.4 1.6 0.2h1.7l1.7-0.3 1.6-0.6 1.4-0.7 1.4-1 6.4-5.7 6-5.9 5.9-6 5.4-6.1 4.8-5.9 4.6-5.9 4.4-6.1 4.3-6.4 8.1-13.5 7.4-14.5 6.9-15.4 6.9-17.3 6.9-19.7 9.2-27.7 1.4-4.4 4.1-13.8 3.8-15 3.4-16.5 3-17.8 3.5-20.5 3.9-20.4 4.4-20.3 4.8-20.1 5.8-21.6 6.1-21.3 6.8-21.3 7.3-21 216.8 115.6 2.3 1.2 2.4 0.7 2.3 0.7 2.4 0.4h2.5l2.3-0.3 4.8-1.1 2.3-1.1 1.9-1.1 1.3-1.4 0.9-1.6 0.3-1.2v-1.6l-1.1-6.2-1.5-5.7-2.3-5.3-2.9-4.8-2.2-2.6-2.4-2.6-2.6-2.3-2.9-2.2-13.1-9-13.5-9.9-13.8-10.3-14.2-11.2-1.4-1.2-1-1.3-0.6-1.3-0.2-1.1 0.2-1.3 0.7-1.3 1.1-1.1 1.4-1.3 9.5-6.8 9.8-6.5 10.1-6.4 10.4-6.4 10.7-6.1 11.1-6 11.6-5.9 12-5.9 24.8-11.2 26.9-11.3 29.6-11.2 34.7-12.4 24.4-8.4 24.5-7.6 24.2-7.4 24.2-6.8 24-6.4 24.1-5.9 23.9-5.5 23.7-4.8 23.7-4.6 23.5-4 23.4-3.6 23.4-3 23.2-2.7 23.2-2.1 23-1.8 23-1.1 11.4-0.1 11.1 0.3 11.2 1.1 11 1.5 10.8 2.2 10.3 2.7 10.1 3.3 9.6 3.7 8.9 4.3 8.5 4.8 8 5.1 7.4 5.7 6.8 6 6.3 6.6 5.7 7 5 7.3 4.6 8.1 4 8.6 3.2 9.1 2.5 9.3-3.3 6-0.5 1.7 0.3 0.9 0.5 0.2 0.7-0.2 2.6-1.4-14.1 2.3-13.8 2.5-13.5 2.8-13.4 3.2-13.3 3.5-12.9 3.8-12.8 4.1-12.7 4.5-12.2 4.8-12.3 5-11.9 5.4-11.8 5.8-11.5 6-11.3 6.4-11.2 6.6-10.8 6.9-3.6 2.4-24.4 16.6-22.1 15.5-20.7 14.8-19.2 14.2-18.3 14-17.2 13.8-16.5 13.5-15.8 13.6-15.2 13.8-14.7 13.8-13.9 13.8-13.5 14-13.1 14.3-12.5 14.5-12 14.7-11.8 14.9-9.7 13.2-9.5 13.4-1.2 2.2-0.8 2.4-0.4 2.6 0.1 2.5 0.6 2.5 0.8 2.4 1.5 2 1.6 2 17.4 16.3 17.1 16.5 16.8 16.8 16.5 17 16.1 17.1 15.7 17.4 15.5 17.6 15 17.8 14.7 18 14.5 18.1 14 18.5 13.8 18.6 13.5 18.8 13 19 12.8 19.3 12.4 19.5 18.9 31.3 18.1 31.7 17.3 32.3 16.5 32.9 12 25.5 11.3 25.5 10.4 25.7 9.9 25.7 9.2 25.9 8.4 26 7.7 26.2 7.1 26.2 4.4 18 4.1 18.1 3.8 18.2 3.5 18.3 3.2 18.4 2.8 18.4 2.5 18.6 2.3 18.8 1.9 18.8 1.6 18.9 1.4 19.2 1 19.3 0.6 19.4 0.4 19.6 0.2 19.8-0.3 19.9-0.4 1.6-0.9 1.4-1.4 0.9-1.5 0.4-30.2 1.9-29.6 2.4-29 3.1-28.4 3.7-27.9 4.2-27.3 4.9-26.8 5.4-26 6.2-6.2 1.8-5.5 2.4-5.1 2.9-4.7 3.6-2.6 2.3-2.4 2.7-2.2 2.8-2 3-3.6 6.7-2.9 7.4-0.9 3.5-0.3 3.4v3.6l0.7 3.7 1 3.7 1.1 2.9 1.7 2.4 2 2.3 2.5 1.8 2.7 1.4 2.8 1 2.9 0.4h3.1l49.6-5.3 51.6-6.5 53.7-7.8 55.7-8.9 5.4-0.5 4.6 0.2 1.9 0.5 1.8 0.7 1.7 0.9 1.4 1.1 1.1 1.3 1 1.5 1.4 3.6 0.8 4.5-0.1 5.4-2.2 21.9-3.2 21.8-4.2 21.4-5.1 21.4-4.4 15.3-4.8 15.2-1.3 2.6-1.8 1.7-2.3 0.7-2.8-0.1-254.5-40.1-6.5-0.7-6 0.3-5.6 1.1-5.2 2.2-2.3 1.3-2.3 1.6-4.2 4-3.8 4.9-3.2 5.7-1.4 3.7-0.8 3.7v4.8l0.9 5.2 1.6 4.7 2 4.2 2.7 3.7 3.3 3.2 4 2.7 4.6 2.2 5.2 1.7 19.2 4.4 21.1 4.3 23.5 4 32.1 5.2 27.6 4.4 20.2 3.5 18.3 3.3 16.4 3.6 16 3.7 15.2 4.1 14.5 4.3 13.9 4.8 1.7 0.7 1.4 0.9 1 1 0.6 1.2 0.4 1.3v1.4l-0.4 1.6-0.7 1.7-6.9 13.2-7.2 13-7.3 12.8-7.6 12.6-7.8 12.6-8.1 12.2-8.4 12.2-8.6 11.9-12.8 17-13.3 16.6-13.8 16.1-14.3 16-14.8 15.4-15.4 15.1-15.7 14.7-16.3 14.4-1.1-3-0.6-2.7-0.3-2.8v-3l0.4-2.9 0.7-3.1 0.9-3 2.7-6.5 6.2-8.9 5.4-8.9 4.6-9.2 3.7-9.2 2.9-9.5 2.1-9.4 1.3-9.6 0.5-9.6-0.3-6-0.5-6-0.8-6-1.2-5.9-1.5-6-1.9-5.9-2.1-5.9-2.5-5.7-2.8-5.8-3.1-5.6-3.4-5.5-3.8-5.5-4-5.4-4.3-5.2-4.6-5.2-4.9-5-7.2-6.8-7.4-6.5-7.5-6-7.7-5.7-7.9-5.3-8.1-4.9-8.1-4.5-8.5-4-11.4-5-11.3-4.6-11.5-4.3-11.5-3.8-11.7-3.4-11.6-3.2-11.8-2.7-11.8-2.3-18.5-3-18.5-2-18.8-1.2-18.9-0.2-19 0.8-19.2 1.5-19.4 2.4-19.6 3.3 7.8-5.1 24.2-16.1 16.6-11.4 14.2-10.3 12.1-9.6 11.4-9.8 10.1-9.9 9.3-9.9 8.4-10.5 5.9-8.3 5.6-8.6 5.3-8.9 5-9.6 5.9-12.3 5.2-12.5 4.7-12.4 4.2-12.6 3.7-12.6 3.1-12.8 2.6-12.6 2-13 1.6-13.1 0.8-13.3 0.4-13.4-0.1-13.5-0.8-13.5-1.4-13.5-1.9-13.7-2.4-13.8-3-13.7-3.3-13.3-3.8-13.2-4.2-12.7-4.6-12.6-5-12.2-5.4-11.9-5.7-11.7-6.3-11.3-6.6-11-7-10.6-7.4-10.4-7.6-10-8.2-9.7-8.4-9.2-8.9-8.9-8.5-8-8.9-7.6-9.2-7.4-9.4-6.9-9.6-6.7-10-6.2-10.3-6.1-10.5-5.6-10.7-5.2-11.2-5-11.2-4.6-11.5-4.2-11.8-3.9-12-3.4-12.3-3.2-12.5-2.8-9.2-1.8-9.2-1.4-9.4-1.3-9.5-0.9-9.6-0.8-9.7-0.3-9.7-0.2-9.7 0.2-9.9 0.3-9.8 0.7-9.7 0.9-9.9 1.1-9.7 1.4-9.6 1.8-9.7 1.9-9.6 2.2-9.3 2.6-9.2 2.7-9.2 2.9-9 3.1-8.8 3.4-8.7 3.7-8.5 3.9-8.3 4.1-8.1 4.3-8 4.5-7.7 4.7-7.6 4.9-7.1 5.1-7.2 5.3-6.7 5.5-6.6 5.7-8.5 7.9-8.1 8-7.8 8.5-7.4 8.5-7.2 8.9-6.7 9.2-6.5 9.4-6.2 9.6-5.9 10-5.6 10.2-5.1 10.4-4.9 10.6-4.6 11-4 10.9-3.9 11.4-3.4 11.4-3.2 11.8-2.8 11.7-2.3 12.2-2.1 12.1-1.8 12.3-1.3 12.5-0.8 12.5-0.6 12.5-0.2 12.7 0.2 12.8 0.6 12.8 1 12.7 1.3 12.8 1.6 12.8 2.1 12.8 2.5 12.6 2.7 12.7 3.2 12.5-11.3-15.1-10.7-13.9-10.3-12.9-9.9-11.8-9.3-10.7-8.8-9.6-8.3-8.4-8-7.4-17.1-14.6-19.6-15.3-21.9-16.1-24.4-16.9-11.8-7.7-11.6-7.3-11.5-6.9-11.4-6.4-11.4-6.1-11.1-5.6-11.1-5.1-10.9-4.9-13.7-5.5-13.8-4.8-13.8-4.5-13.9-3.7-14.1-3.3-14-2.6-14.2-2.2-14.2-1.5-11.4-0.8-11.2-0.5-11.5-0.1-11.4 0.2-11.4 0.7-11.4 1-11.5 1.3-11.3 1.6-11.4 2.1-11.4 2.4-11.5 2.8-11.4 3.1-11.4 3.4-11.2 3.9-11.3 4.2-11.2 4.5-11.1 4.8-11.1 5.3-11.2 5.5-11 5.8-10.8 6.3-10.9 6.4-10.7 6.9-10.6 7.2-10.5 7.5-10.4 7.8-10.3 8-10.1 8.5-10 8.7-9.8 8.9-9.7 9.2-9.5 9.5-13.2 13.8-19.3 21.1-57.7 63.9 4.1-17.9 4.8-18.2 4-14.7 3.2-14.8 2.5-15.1 1.9-15 1.3-15.5 0.5-15.5-0.1-15.7-0.8-15.6-1.5-15.7-2.2-15.6-2.8-15.5-3.6-15.3-4-15.2-4.9-15-5.4-14.7-6-14.6-6.6-14-7.2-13.7-7.8-13.3-8.2-12.9-8.8-12.3-9.3-12-9.7-11.4-10.3-10.8-10.6-10.2-11-9.8-11.5-9-11.8-8.6-12.1-7.8-12.5-7.1-12.8-6.6-13.3-5.8-14.7-5.8-12.7-4.2-13-3.7-13.1-3.3-13.3-2.9-13.6-2.3-13.5-1.6-13.6-1.3-13.6-0.8-13.8-0.2-13.7 0.2-13.8 0.9-13.7 1.3-13.5 1.8-13.5 2.3-13.3 2.8-13.3 3.3-12.9 3.7-12.7 4.4-12.6 4.7-12.2 5.1-11.9 5.7-11.7 6.1-11.3 6.4-11 6.9-10.6 7.4-10.4 7.7-9.8 8.1-9.6 8.5-9.1 8.8-8.7 9.3-8.2 9.5-7.9 10-10.3 14.3-9.6 14.5-8.8 14.9-8 15.1-7.3 15.2-6.3 15.4-5.7 15.6-4.8 16-2.5 9.5-2.1 9.5-1.9 9.8-1.7 9.7-1.4 9.8-1.2 9.9-0.7 9.9-0.5 10.1-0.3 10.1v10.2l0.3 10.4 0.5 10.4 0.9 10.3 1.1 10.6 1.4 10.6 1.7 10.6 1.8 9.5 2.1 9.5 2.6 9.2 2.9 9.2 4 10.8 4.5 10.6 5.1 10.5 5.5 10.2 6.1 10.1 6.5 10 7.2 9.7 7.7 9.6 8.1 9.3 8.7 9.2 9.4 9.1 9.7 8.8 10.3 8.7 10.8 8.5 11.3 8.3 11.9 8.1-33.1 2.7-31.2 3.4-29.4 3.9-27.4 4.7-13.1 2.6-12.5 2.8-12.1 3-11.7 3-11.2 3.3-10.8 3.4-10.2 3.7-9.8 3.7-12 5.4-11.5 6.1-7.6 4.7-7.4 5.1-7 5.5-6.9 5.9-6.8 6.3-6.4 6.5-6.3 7-6 7.4-5.6 7.7-5 7.8-4.5 7.9-3.8 7.9-3.2 8.1-2.5 8.1-2.1 8.1-1.4 8.3-0.8 6.2-0.2 6.1v6.3l0.2 6.2 1.2 11 2 10.5 3 10.4 3.7 9.8 4.2 9.1 5 8.7 5.6 8.3 6.5 8 7.2 7.8 7.9 7.6 8.7 7.1 9.3 6.8 0.4 13.7-12.8-9.7-12.5-9.9-12.1-9.9-12-10.3-11.7-10.3-11.4-10.6-10.9-10.9-10.9-11-10.5-11.1-10.2-11.4-10-11.5-9.6-11.7-9.4-11.9-9.1-12.2-8.8-12.2-8.5-12.6-11.6-18-11-18.4-10.5-18.7-9.8-19.1-1.2-2.7-0.5-2.5v-2.1l0.5-2.1 1.1-1.6 1.6-1.6 2.2-1.1 2.8-1 24.8-6.9 24.3-6.2 23.8-5.6 23.2-5 22.8-4.3 22.2-3.7 21.9-3.1 21.2-2.4 8.2-0.9 8-1.3 8.1-1.5 7.9-1.8 11.4-3 11.1-3.5 4.2-1.8 3.9-2.3 3-2.6 2.6-3.1 2-3.4 1.6-3.8 0.9-4.4 0.2-4.6-0.1-2.6-0.5-4.2-1.2-4.3-2.4-6.3-3-5.2-1.7-2.3-1.8-1.9-2.1-1.8-2.1-1.6-2.3-1.2-2.6-1.1-2.6-0.7-2.8-0.7-6-0.3-6.6 0.6-259.6 41.3h-2.7l-2.1-0.8-0.8-0.8-0.8-1-0.9-2.5-6.4-27.3-7.5-32.4-2.6-12.6-2-11.5-1.6-11.3-1.3-11.2-0.6-10.7-0.4-10.6 0.4-2.9 0.5-1.3 0.7-0.9 1-0.9 1.1-0.5 3-0.7 12.7-0.2 12.7 0.4 13.8 1.2 13.8 2.2 22.4 4.1 22 3.7 21.4 3.3 21.3 3 20.7 2.7 20.3 2.3 19.8 1.9 19.6 1.6h5.1l4.6-0.6 3.9-1.5 3.4-2.2 2.6-2.9 2.2-3.6 1.4-4.5 0.9-5.1 0.1-2.8-0.2-2.7-0.4-2.6-0.8-2.6-1.1-2.6-1.4-2.7-1.6-2.5-4.2-5.2-5.3-5.2-6.6-5.1-7.8-5.1-8.8-5.1-5.3-2.5-5.8-1.6-26.6-5.4-26.4-4.8-26.5-4.3-26.3-3.7-26.2-3.3-26.2-2.7-26.1-2-26.1-1.7-2.5-0.6-2.1-1.6-1.4-2-0.5-2.6-0.4-23.1 0.1-23 0.5-22.9 0.9-22.7 1.4-22.7 1.8-22.5 2.3-22.3 2.9-22.3 3-22.1 3.7-21.8 4-21.9 4.5-21.6 4.9-21.6 5.4-21.3 5.9-21.3 6.1-21.2 6.9-21.4 7.4-21.5 7.8-21.2 8.4-21.3 8.8-20.9 9.2-20.9 9.7-20.7 10.1-20.5 12.3-23.6 12.5-23.2 13.1-22.9 13.6-22.7 12.8-20.8 13.3-20.5 13.6-20.4 14.1-20 14.3-19.8 14.9-19.7 15-19.4 15.5-19.2 16-18.9 16.2-18.7 16.6-18.5 17-18.3 17.4-18 17.8-17.9 18-17.5 18.5-17.4 1.9-2.2 1.6-2.4 1-2.6 0.5-2.8 0.1-2.8-0.5-2.8-0.9-2.7-1.4-2.4-10.8-15-11.2-14.6-11.2-14-11.6-13.8-10.3-11.5-10.4-11.5-10.8-11.1-11-11-11.5-11-11.9-11-12.2-11-12.9-11-13.3-11-13.8-11.1-30.2-23.2-34.5-25.4-43.1-30.4-11-7.6-11.1-7.1-11.2-6.9-11.6-6.5-11.5-6.3-11.6-6-11.7-5.6-12.1-5.3-12.7-5.3-13-4.9-13-4.6-13.3-4.2-13.3-4-13.5-3.6-13.7-3.2-13.8-2.8-13-8.5 1.6-6.2 1.8-5.7 2.2-5.8 2.4-5.3 2.6-5.4 2.9-5 3.1-4.8 3.4-4.6 4.4-5.3 4.6-4.8 5.1-4.8 5.4-4.3 5.7-4.1 6-3.8 6.5-3.6 6.7-3.3 7.3-3 7.4-2.8 7.8-2.4 8.2-2.2 8.5-1.9 9-1.5 9.2-1.5 9.6-1 9.7-0.9 10.2-0.5 10.5-0.2h11l22.6 0.9 24.1 1.9 25.4 2.9 26.9 4 28.8 5 34.8 6.9 32.4 7 32.2 7.7 32 8.3 31.9 8.9 21.1 6.4 21.1 6.7 20.9 7 20.9 7.1 20.7 7.7 20.7 7.8 20.6 8.2 20.6 8.4 12.1 5.3 12 5.5 11.8 5.8 11.8 6 14.7 8.2 14.4 8.6 14.2 8.9 13.9 9.5 1.2 1 0.9 1.2 0.6 1.4 0.3 1.4v1.5l-0.3 1.4-0.6 1.4-0.9 1.2-0.8 0.7-27.9 21.5-27.1 20.3-3 2.5-2.7 2.7-2.4 2.8-2.2 3-2.1 3.7-1.6 4-1.3 4.1-0.9 4.5-0.1 2 0.1 1.9 0.4 1.8 0.6 1.6 1.6 2.3 2.1 1.7 3 1.6 3.4 1.3 1.6 0.2h1.5l1.7-0.4 1.4-0.6z"/>
		<path id="Layer" class="s23" d="m916.3 1853.6l10.9 2.4 11 2.2 11.1 1.8 11.3 1.5 11.5 1.3 11.5 0.9 11.7 0.6 11.9 0.4 12.2 0.1 12.1-0.2 12.4-0.5 12.5-0.8 12.7-1.2 12.8-1.4 12.9-1.6 13.1-2.1-125.9 67.4z"/>
		<path id="Layer" class="s23" d="m2509.8 1854.5l-65.5 68.7-118.1-64.6 23.9 3.1 23.6 2.1 11.8 0.6 11.6 0.4 11.6 0.1 11.5-0.1 11.4-0.4 11.4-0.6 11.4-0.9 11.2-1.2 11.1-1.4 11.2-1.6 10.9-2.1z"/>
		<path id="Layer" class="s23" d="m3500.8 2593.1l-1.1 15.4-1.4 15.2-2 15.1-2.3 15-2.5 15-3.1 14.7-3.4 14.7-3.9 14.6-5.6 18.6-6.1 18.4-6.8 18.3-7.5 18-5.8-0.6-33.5-4.2-33.3-5-33.4-5.9-33.2-6.6-33.1-7.5-33.1-8.3-33-9-32.9-9.9-6-2-5.7-2.4-5.5-2.6-5.1-2.9-4.9-3.2-4.5-3.5-4.2-3.8-3.8-4-3-3.4-2.7-3.7-2.5-3.9-2.3-3.9-2.1-4.3-1.9-4.3-3.2-9.3-18.9-134.6h53.2l50.2-0.2 47.3-0.5 44.6-0.9 41.7-1 38.7-1.4 35.9-1.7 33.1-1.9 6.8-0.2 6.5 0.2 6.2 0.8 5.7 1.1 5.4 1.7 5 2.1 4.6 2.5 4.3 2.9 0.3 0.3 2.3 2.2 1.5 2.5 0.9 2.8 0.3 3.2z"/>
		<path id="Layer" class="s23" d="m3244 2957.4l-16.2 14.2-16.5 13.5-17.8 13.7-18.1 13.1-18.5 12.5-19.1 11.9-19.4 11.3-20 10.9-20.3 10.2-20.8 9.8-10.1 4.2-10.5 3.9-11 3.5-11.4 3.2-2.6 0.2-2.3-0.3-2.1-1.3-1.8-2.1-2.4-3.9-2.3-4.1-3-6.8-2.3-7-1.6-7.3-1.2-7.7-0.9-6.8-1.4-6.7-2-6.9-2.4-7.2-3-7.3-3.6-7.6-10.3-20-1.7-3.2-2.7-5.7-2.4-6.2-2-6.7-2.5-9.2-2.8-10.8-2.5-7.8-3.1-6.9-3.6-6.4-3.2-4.4-1.5-2.3-1.2-2.3-0.6-2.3-0.4-2.4 0.2-3 0.7-3.1 1.8-3.7 2.6-3.8 3.4-4 4.2-4.1 11.2-2.8 10.7-3.6 10.9-4.6 10.4-5.2 10.6-6.3 10.8-7.3 10.6-8 11.5-9.6 12.6-11.2 17.8-16.5 3.3-3.1 6.9-3.2 3.1-0.9 1.4-0.1 1.4 0.2 2.4 1.2 2.3 2 16.2 18.8 17 18.6 17.8 18.4 19 18.1 19.7 17.9 20.7 17.6 21.4 17.6z"/>
		<path id="Layer" class="s23" d="m1517.6 2834.1l-0.1 1.6 0.3 1.6 0.7 0.9 1 0.7 1.3 0.7 1.6 0.5 6.4 16.2 5.7 16.9 5.2 17.6 4.9 18.7 4.2 19.3 4.1 21.1 3.9 23.4 5 32.2 7.6 47.1 3.4 22.4 3.1 24.4 2.8 27 3.3 36.9 3.5 38.5-450.3 46.8-74.4-191.6 3.4 1.6 3.3 1.4 3.4 1.1 3 0.6 3.1 0.4h2.9l3-0.3 2.7-0.6 2.5-0.9 2.6-1.3 2.3-1.6 2.3-1.8 2.1-2.3 2.1-2.5 4-6 7.1-12.7 12.5-22.8 10.5-18.3 10.2-16.7 9.8-15.5 9.7-14.6 9.3-13.1 9.1-11.9 8.9-10.7 8.8-9.5 8.5-8.3 8.3-7 8-5.7 7.7-4.4 3.8-1.8 3.8-1.4 3.7-1.1 3.5-0.7 3.6-0.5 3.5-0.2 7.3 0.5 7.5 1.5 7.7 2.3 7.9 3 8 4 8.2 4.8 8.6 5.8 8.4 6.5 9 7.6 8.8 8.3 9.1 9 8.9 9.9 9 10.6 8.7 11 8.3 11.4 7.6 11.2 6 8.7 4.5 5.7 4.6 5.7 5 5.3 5.1 5.3 5.5 5.1 5.6 4.8 5.9 4.8 6.1 4.5 13.7 9.3 13.8 9.1 14 8.5 14.1 8.3 14.4 7.8 14.4 7.4 14.7 7.1 14.8 6.6 3.6 1.5 1.7 0.6h1.6l1.6-0.3 1.5-0.6 1.3-1.1 1.1-1.2 0.7-1.4 0.5-1.6v-1.6l-1.7-15.2-2-15.4-2.5-15.5-2.9-15.4-3.4-15.7-3.8-15.8-4.2-15.8-4.7-16-0.9-3.9-0.3-4.1 0.2-3.2 0.6-3.4 0.9-5.1 0.1-4.7-0.6-4.5-1.3-4.1-2.4-4.3-3.3-3.8-1.8-2.1-1.4-2.2-1.3-2.9-0.6-3.3z"/>
		<path id="Layer" class="s23" d="m2375.4 3025.3l-4.8 18.6-5.2 18.7-5.4 18.4-5.7 18.3-6.2 18.1-6.5 18.2-6.7 17.9-7.1 17.7-8.7 20.5-9.2 20.3-9.6 20.2-9.9 20-4.4-1.6-10.3-3.3-10.4-2.9-10.5-2.6-10.4-2.3-10.8-2-10.8-1.7-10.9-1.4-11-1-1-0.3-0.7-0.4-0.6-1.4-0.3-0.7-0.2-0.4-0.6-0.5-1.1-0.4-14.9-1.8-16.1-0.9-17.3-0.1-23.5 0.7-17.4 0.7-12.9 0.1-11.8-0.1-10.8-0.5-54-4.1-52.2-4.8-18.7-2.6-42.9-7.1-15.3-2.1-15.6-1.3-15.7-0.8-16 0.1 8.7-80.5 15.5-10.1 14.8-10.2 14-10.4 13.3-10.3 8.1-6.4 8.7-6.1 9.2-6.1 9.6-5.8 13.3-8.1 12.4-8.3 11.8-8.6 11-8.6 10.2-9 9.6-9.2 8.7-9.5 8-9.5 9.9-12.6 19-24.3 14.3-17.1 6.9-7.7 6.8-7.1 6.5-6.5 6.5-6.2 6.8-5.8 6.8-5.5 6.8-5 6.9-4.6 6.9-4.2 6.9-3.9 7.3-3.6 7.1-3 5.8-1.9 5.8-1.2 3.9-0.2h3.8l4.1 0.2 4 0.8 3.9 0.9 4.1 1.2 4.1 1.7 4.1 1.9 4.2 2.3 4.1 2.7 8.6 6.1 8.7 7.5 8.8 8.7 8.9 9.9 9 11.1 9.2 12.3 9.4 13.8 9.5 14.8 9.8 16.3 10.3 17.7 12.5 22.7 10.6 19 2.2 3.3 2.5 3.2 3.1 3.2 3.3 3.1 3.6 2.7 3.7 2.3 3.7 1.9 3.7 1.4 0.8 0.3 2.5 0.3 2.7-0.2 2.5-0.7 2.3-1.2 2-1.7 1.7-1.9 1.1-2.3 0.8-2.6 0.7-3.9 1.1-3.9 1.2-3.4 1.4-3.3 1.7-3 1.9-2.8 2.1-2.4z"/>
		<path id="Layer" class="s23" d="m1625.7 2939.4l35.7 78.3 1.8 3.2 2.1 2.7 2 1.8 2.1 1.5 6.4 4.3 6.2 4.7 5.6 5 5.2 5.2 5.1 6.1 4.8 6.6 2.5 2.9 3.1 2.4 3.4 1.7 3.9 0.9h3.8l3.8-0.8 3.6-1.6 3.1-2.3 2-2.2 17.2-21.9 17.5-21.8 4.2-5.8 4.1-6.5 3.7-7.2 3.4-7.9 3.2-8.7 3-9.3 2.5-10 2.5-10.7 1 36.8-7.4 28.3-6.7 28.3-4.8 24.1-4.4 24.1-3.7 24.4-3.1 24.4-2.4 24.6-1.9 24.7-1.3 24.9-0.6 24.9-6.7-34.6-1-3-0.8-1.1-0.8-0.9-1.2-0.7-1.3-0.5-3.2-0.1-51 4-2.9 0.5-2.7 1-2.7 1.8-2.3 2.4-4.1 5.9-3.3 6.4-1.4 3.7-1.1 3.8-0.8 3.9-0.7 4.1-1.2-31.7-1.8-29.7-2.1-27.5-2.5-25.3-2.8-23.3-3.4-21-3.7-19.1-4.1-16.9-8.8-33.4-6.6-28.3-4.6-22.9-1.6-9.4z"/>
	</g>
	<g id="Layer">
		<path id="Layer" class="s24" d="m806.5 1808.4l109.8 45.2 65.7 70.8 4.6 9.1 3.9 8.9 3.2 9 2.3 8.8 1.6 8.7 0.9 8.7 0.3 8.5-0.7 8.6-1.2 8-1.8 8-2.7 7.9-3.2 7.9-4 7.7-4.6 7.6-5.2 7.7-6 7.6-8.8 10.1-9 9.3-9.1 8.5-9.2 7.8-9.3 7.2-9.5 6.5-9.4 5.6-9.7 5-11.8 5.4-11.9 4.9-12 4.3-12 4-12.2 3.4-12.1 3-12.3 2.5-12.2 2.2-13.5 1.6-13.6 1.3-13.7 0.7-13.7 0.1-13.8-0.5-13.9-1-14.1-1.6-14-2-18.2-3.3-17.8-4-17.6-4.5-17.3-5.1-17-5.7-16.7-6.3-16.4-6.8-16.1-7.4-9.3-6.8-8.7-7.1-7.9-7.6-7.2-7.8-6.5-8-5.6-8.3-5-8.7-4.2-9.1-3.7-9.8-3-10.4-2-10.5-1.2-11-0.2-6.2v-6.3l0.2-6.1 0.8-6.2 1.4-8.3 2.1-8.1 2.5-8.1 3.2-8.1 3.8-7.9 4.5-7.9 5-7.8 5.6-7.7 6-7.4 6.3-7 6.4-6.5 6.8-6.3 6.9-5.9 7-5.5 7.4-5.1 7.6-4.7 11.5-6.1 12-5.4 9.8-3.7 10.2-3.7 10.8-3.4 11.2-3.3 11.7-3 12.1-3 12.5-2.8 13.1-2.6 27.4-4.7 29.4-3.9 31.2-3.4z"/>
		<path id="Layer" class="s24" d="m2915.2 2060.3l-9.9 9.8-9.7 9.1-9.6 8.3-9.6 7.5-9.6 6.8-9.4 5.9-9.4 5.2-9.3 4.5-10.1 4.2-10 4-10.1 3.7-9.9 3.3-10.1 3.1-10 2.9-10.1 2.4-10 2.3-10.1 2-9.9 1.7-10 1.4-10.1 1.1-10 0.9-9.9 0.5-10 0.2h-10.1l-18.1-0.7-18.2-1.7-18-2.6-18.2-3.5-18.1-4.5-18-5.5-18.2-6.4-18-7.3-7.9-3.6-7.3-3.8-6.9-4-6.4-4.3-6-4.5-5.4-4.6-5-5-4.5-5.1-6.7-7.9-9.6-10.2-12.4-13.6-4.5-5.2-3.8-5.1-3.5-5.1-2.9-5.3-2.6-5.2-2.1-5.4-0.7-1.8-2.8-9.3-1.9-9.3-1.3-9.4-0.4-9.3 0.2-7.3 0.7-7.4 1.2-7.3 1.6-7.3 2.2-7.4 2.7-7.3 3.2-7.4 3.6-7.3 65.5-68.7 83.5-30.5 19.6-3.3 19.4-2.4 19.2-1.5 19-0.8 18.9 0.2 18.8 1.2 18.5 2 18.5 3 11.8 2.3 11.8 2.7 11.6 3.2 11.7 3.4 11.5 3.8 11.5 4.3 11.3 4.6 11.4 5 8.5 4 8.1 4.5 8.1 4.9 7.9 5.3 7.7 5.7 7.5 6 7.4 6.5 7.2 6.8 4.9 5 4.6 5.2 4.3 5.2 4 5.4 3.8 5.5 3.4 5.5 3.1 5.6 2.8 5.8 2.5 5.7 2.1 5.9 1.9 5.9 1.5 6 1.2 5.9 0.8 6 0.5 6 0.3 6-0.5 9.6-1.3 9.6-2.1 9.4-2.9 9.5-3.7 9.2-4.6 9.2-5.4 8.9z"/>
	</g>
	<g id="Layer">
		<path id="Layer" class="s25" d="m3242.7 327.3l4 12 3.6 11.8 3.2 11.5 2.9 11 2.3 10.8 2.1 10.5 1.6 10.2 1.3 9.9 7.4 71.8 6.7 72 0.7 11.5 0.5 11.7 0.3 12.2-0.1 12.4-0.5 12.6-0.8 13.1-1.2 13.3-1.4 13.5-1.6 13.8-2.2 14.2-2.3 14.4-2.8 14.7-6.4 30.5-7.7 31.5-24.4 27.4-24 26.1-23.4 24.8-22.9 23.5-3.8 3.7-4 3.3-3.8 2.9-4 2.6-3.8 2.2-4 1.6-3.9 1.4-4 0.9-5.4 0.8-5.5 0.3-5.8-0.3-6-0.6-6.2-1.2-6.6-1.6-7.2-2.2-9.6-3.2-12-4-8.6-2.3-128.4-153.4 0.9-5.1 1.3-4.8 1.9-4.5 2.4-4.1 3-3.8 3.4-3.6 4-3.1 4.6-2.8 5.1-2.4 5.6-2.1 6.1-1.6 6.7-1.4 6.9-1 6.8-0.7 6.6-0.4h6.7l6.6 0.3 6.4 0.5 6.5 1 6.3 1.2 10.3 2.7 10.1 3.5 9.9 4.5 9.7 5.2 6.2 3.2 3.1 1.2 3.1 0.8 2.9 0.5 2.8 0.2 2.8-0.1 2.7-0.4 4.2-1.4 4-2 3.8-2.8 3.7-3.8 2.2-3 1.3-3.6 0.4-3.8-0.5-3.7-1.8-5.7-2.2-5.5-2.8-5.8-3.3-5.8-3.7-5.4-4.3-5.3-4.7-5.1-5.2-5-5.6-4.9-6.2-4.6-6.5-4.5-6.9-4.2-7.7-4.2-8.2-4.2-8.5-4.1-9.7-4.2-25.1-10.1-1.4-0.5-2.2-1.2-1.9-1.5-1.4-2.1-1-2.1-0.5-2.5v-2.4l0.6-2.4 1-2.2 1.5-1.8 41.2-41.5 41.7-41.2 42.2-40.8 42.7-40.3 7.6-7.8 9.4-10.7 10.8-13.4 12.4-16.2 5.3-6.7 5.3-6.2 5.7-5.9 5.7-5.6 5.9-5.3 6.1-4.8 6.4-4.5z"/>
		<path id="Layer" class="s25" d="m509.6 723.9l-15.5 16.4-15 16.3-14.7 16.7-14.6 16.6-14.2 16.8-13.8 17-13.7 17-13.1 17.3-13.1 17.4-12.6 17.4-12.4 17.6-12 17.8-11.8 17.7-11.4 18.1-11.1 18-10.9 18.3-3 5.5-2.1 4.3-1.4 4-0.9 3.7-0.6 3-0.8 2.3-1 1.4-1.2 0.7-1.2-0.1-1.6-0.9-1.6-1.7-1.8-2.6-12.3-18.9-11.6-19.2-11.1-19.4-10.5-19.5-10-19.8-9.2-20.1-8.7-20.3-8.2-20.6-6.7-18.7-6.3-18.8-5.9-19-5.4-19.3-4.8-19.4-4.4-19.6-3.8-19.8-3.4-19.9-1.4-10.1-1.1-11.2-0.7-12.2-0.8-16.7-1.4-27.4-1-10.4-1.2-9.7-1.1-9.5-0.9-9.7-0.4-9.7v-10l1.3-34 2.1-33.8 3.2-33.6 4.3-33.7 3.1-21.9 3.8-21.9 4-21.9 4.5-21.7 4-4.6 4.1-3.6 2.1-1.4 2.2-1.1 2.3-0.8 2.3-0.5 3.1-0.4 3.1 0.1 3.1 0.6 3.4 1 3.4 1.5 3.5 1.9 3.6 2.5 3.5 2.8 2.8 2.9 3.2 4.7 3.6 6.4 4 8.1 2.9 5.9 3.5 5.3 3.5 5 4.1 4.5 138.7 142.1 3.9 4 11.2 10.8 11.8 10.4 12.1 10.1 12.5 9.6 2.3 2.2 1.7 2.5 1.1 2.8 0.4 3.1-0.2 3.1-1 2.8-1.6 2.7-2.2 2.1-2.5 1.7-23 10.9-15.4 7.1-10.9 5.4-9.5 5.2-8.6 5.3-8 5.5-7.3 5.7-6.7 6-6.2 6.5-4.5 5.5-4.3 5.8-4 6.1-3.7 6.4-1.3 2.8-0.9 3.1-0.4 3.2 0.2 3.1 0.5 3.1 1 3 1.4 2.8 1.9 2.6 3.2 3.3 3.5 2.7 3.5 1.9 3.8 1.3 2.3 0.3 2.4 0.2 2.5-0.2 2.6-0.3 5.4-1.6 5.5-2.7 7.1-3.8 7.2-3.6 6.9-3 6.9-2.9 6.8-2.4 6.5-2 6.5-1.7 6.4-1.4 6.4-0.9 6.1-0.6 6-0.3h6l5.9 0.5 5.6 0.8 5.7 1.1 5.4 1.6 6.6 2.4 6.2 2.8 6.2 3.3 6 4 5.7 4.4 5.8 4.9 5.3 5.4z"/>
		<path id="Layer" class="s25" d="m2112.2 1669.1l12.5 25.6 10.5 20.6 8.6 15.4 3.5 5.8 3.1 4.6 6 8.2 6.3 7.8 6.4 7.6 6.7 7.3 6.8 7.2 7.2 6.8 7.3 6.6 7.5 6.3 13 10.1 13.7 9.3 14.3 8.6 15 7.8 15.5 7 16.1 6.4 16.7 5.6 17.3 4.9 118.1 64.6-3.6 7.3-3.2 7.4-2.7 7.3-2.2 7.4-1.6 7.3-1.2 7.3-0.7 7.4-0.2 7.3 0.4 9.3 1.3 9.4 1.9 9.3 2.8 9.3 0.7 1.8 2.1 5.4 2.6 5.2 2.9 5.3 3.5 5.1 3.8 5.1 4.5 5.2 12.4 13.6 9.6 10.2 6.7 7.9 4.5 5.1 5 5 5.4 4.6 6 4.5 6.4 4.3 6.9 4 7.3 3.8 7.9 3.6 18 7.3 18.2 6.4 18 5.5 18.1 4.5 18.2 3.5 18 2.6 18.2 1.7 18.1 0.7h10.1l10-0.2 9.9-0.5 10-0.9 10.1-1.1 10-1.4 9.9-1.7 10.1-2 10-2.3 10.1-2.4 10-2.9 10.1-3.1 9.9-3.3 10.1-3.7 10-4 10.1-4.2 9.3-4.5 9.4-5.2 9.4-5.9 9.6-6.8 9.6-7.5 9.6-8.3 9.7-9.1 9.9-9.8-2.7 6.5-0.9 3-0.7 3.1-0.4 2.9v3l0.3 2.8 0.6 2.7 1.1 3-24.6 19-25 18.1-23.8 16.2-24.2 15.8-24.5 15.1-24.9 14.4-25.3 13.9-25.9 13.3-26.2 12.8-26.5 12.1-12.6 5.3-16.2 6.5-44.1 16.8-59.3 21.4-74.5 26.4-5.3-0.2-5.1 0.3-5.1 0.5-5.1 1-5.1 1.3-5 1.7-4.6 1.2-4.6 0.7h-3.5l-3.4-0.3-2.9-0.2-2.9 0.1-6 0.8-6.5 2-9.1 3.5-6.6 2.8-5 1.6-4.5 1.3-4.3 0.8-23.4 3-25.6 3.7-66.9 10.4-56.4 8.8-41.2 5.9-37.2 4.7-34.1 3.5-47.2 3.9-47.1 3.5-47.1 2.9-47 2.3-46.9 1.8-46.9 1.3-46.8 0.6-46.8 0.3-46.8-0.4-46.6-0.9-46.5-1.5-46.6-2.1-46.5-2.5-46.4-3.1-46.4-3.6-46.3-4.2-24.6-2.7-28-3.7-31.8-4.7-43.9-7-61.3-9.5-21.9-3.1-18.9-2.3-30.9-3.5-26.1-3.6-21.2-3.3-16.3-3.4-78.3-27.2-62-22.1-45.8-16.9-16.7-6.4-12.7-5.2-19.4-8.4-19.2-8.9-19-9-18.9-9.4-18.7-9.7-18.5-9.8-18.4-10.4-18.2-10.5-21.6-13.1-21.5-13.4-21-14.1-20.9-14.3-0.4-13.7 16.1 7.4 16.4 6.8 16.7 6.3 17 5.7 17.3 5.1 17.6 4.5 17.8 4 18.2 3.3 14 2 14.1 1.6 13.9 1 13.8 0.5 13.7-0.1 13.7-0.7 13.6-1.3 13.5-1.6 12.2-2.2 12.3-2.5 12.1-3 12.2-3.4 12-4 12-4.3 11.9-4.9 11.8-5.4 9.7-5 9.4-5.6 9.5-6.5 9.3-7.2 9.2-7.8 9.1-8.5 9-9.3 8.8-10.1 6-7.6 5.2-7.7 4.6-7.6 4-7.7 3.2-7.9 2.7-7.9 1.8-8 1.2-8 0.7-8.6-0.3-8.5-0.9-8.7-1.6-8.7-2.3-8.8-3.2-9-3.9-8.9-4.6-9.1 125.9-67.4 15.1-4.7 14.6-5.4 14.2-5.9 13.8-6.5 13.1-7 12.9-7.7 12.3-8.2 12-8.8 7.2-5.9 7-6 6.9-6.1 6.7-6.5 6.5-6.7 6.4-6.9 6.1-7.1 6-7.4 5.8-7.6 5.6-7.8 5.5-8 5.2-8.3 5.1-8.5 5-8.7 4.8-8.9 4.6-9.2 57.7-63.9 19.3-21.1 13.2-13.8 9.5-9.5 9.7-9.2 9.8-8.9 10-8.7 10.1-8.5 10.3-8 10.4-7.8 10.5-7.5 10.6-7.2 10.7-6.9 10.9-6.4 10.8-6.3 11-5.8 11.2-5.5 11.1-5.3 11.1-4.8 11.2-4.5 11.3-4.2 11.2-3.9 11.4-3.4 11.4-3.1 11.5-2.8 11.4-2.4 11.4-2.1 11.3-1.6 11.5-1.3 11.4-1 11.4-0.7 11.4-0.2 11.5 0.1 11.2 0.5 11.4 0.8 14.2 1.5 14.2 2.2 14 2.6 14.1 3.3 13.9 3.7 13.8 4.5 13.8 4.8 13.7 5.5 10.9 4.9 11.1 5.1 11.1 5.6 11.4 6.1 11.4 6.4 11.5 6.9 11.6 7.3 11.8 7.7 24.4 16.9 21.9 16.1 19.6 15.3 17.1 14.6 8 7.4 8.3 8.4 8.8 9.6 9.3 10.7 9.9 11.8 10.3 12.9 10.7 13.9z"/>
		<path id="Layer" class="s25" d="m1757.9 3239.5l0.9 10.7-0.1 10.6-0.9 10.3-2 10.1-1 2.7-1.6 1.9-2.2 1.3-2.8 0.3-69.4 1.2-1.6-0.1-1.5-0.4-1.4-0.8-1.2-1-1-1.2-0.7-1.4-0.6-1.5-0.1-1.5-0.8-44.6 0.7-4.1 0.8-3.9 1.1-3.8 1.4-3.7 3.3-6.4 4.1-5.9 2.3-2.4 2.7-1.8 2.7-1 2.9-0.5 51-4 3.2 0.1 1.3 0.5 1.2 0.7 0.8 0.9 0.8 1.1 1 3z"/>
		<path id="Layer" class="s25" d="m1585.5 3201.8l1.2 11.1 0.9 10.9 0.5 10.7 0.4 10.5v10.4l-0.4 10-0.6 9.9-0.9 9.7-1.1 9.5-1.6 9.3-1.9 9.1-2.2 8.9-2.4 8.7-2.8 8.6-3.1 8.3-3.3 8-3.2 6.3-4.2 6.6-5.1 6.8-6.2 7.2-7.1 7.3-8.2 7.6-9.1 8-10.1 8.1-6.9 5.1-7.1 4.5-7.4 4-7.6 3.6-7.5 2.8-7.8 2.4-7.9 1.9-8.2 1.4-8.3 0.9-8.6 0.5-8.8-0.1-9-0.5-3.5-0.8-1.6-0.7-1.4-1.1-1.1-1.1-0.9-1.3-1.4-3.4-1.6-6.3-1.2-6.3-0.9-6.4-0.7-6.2-0.5-6.4-0.1-6.4 0.2-6.5 0.4-6.4-0.1-2.8-0.4-1.2-0.6-1-0.8-0.9-1-0.6-2.8-0.9-3.6-0.5h-0.8l-0.6 0.1-0.5 0.5-0.4 0.8-14.6 58.4-1.1 3-0.9 1.3-1.1 1.2-1.2 0.9-1.6 0.6-1.6 0.5-1.9 0.3-11.4 0.2-11.5-0.4-8.1-0.7-8-1.2-8-1.5-7.9-1.9-8-2.3-7.8-2.6-8-3-7.6-3.4-7.8-3.7-7.6-4.1-7.5-4.4-7.4-4.8-7.4-5.2-7.3-5.4-7.2-5.9-7-6.1-7-6.6-6.9-6.8-6.7-7.3-6.5-7.4-6.5-7.8-6.2-8.1-6.1-8.3-5.7-8.4-5.7-8.8-5.3-9-5.1-9.2-4.9-9.2-4.6-9.4-4.3-9.6-4.1-9.6-3.7-9.7z"/>
		<path id="Layer" class="s25" d="m1841.3 3204.7l16-0.1 15.7 0.8 15.6 1.3 15.3 2.1 42.9 7.1 18.7 2.6 52.2 4.8 54 4.1 10.8 0.5 11.8 0.1 12.9-0.1 17.4-0.7 23.5-0.7 17.3 0.1 16.1 0.9 14.9 1.8 1.1 0.4 0.6 0.5 0.2 0.4 0.3 0.7 0.6 1.4 0.7 0.4 1 0.3 11 1 10.9 1.4 10.8 1.7 10.8 2 10.4 2.3 10.5 2.6 10.4 2.9 10.3 3.3 4.4 1.6-4.4 11.5-4.7 11.2-4.9 10.7-5.1 10.7-5.3 10.1-5.8 9.8-5.9 9.5-6.1 9-6.5 8.8-6.7 8.5-6.9 8-7.1 7.8-7.6 7.4-7.6 7.1-8 6.7-8.3 6.3-12 8.6-12.6 7.8-13.2 7-13.7 6.4-14.2 5.7-14.8 5-15.2 4.4-15.7 3.6-3-0.7-2.8-0.9-3.3-1.3-3.1-1.7-3-2.2-3-2.6-2.8-2.8-2.6-3.3-2.5-3.6-2.4-4-2.2-4.4-2.2-4.8-3.8-10.6-3.2-12.1-2.8-13.6-0.4-1.6-0.6-1.6-0.8-1.1-1-0.9-1.2-0.8-1.4-0.3-1.7-0.3-1.7 0.1-3 0.8-1.1 0.6-0.9 0.8-0.7 1-0.3 1.3-0.3 2.9 0.4 9.4-0.1 9.3-0.4 9.3-0.9 9.2-2.3 14.2-3.2 14.1h-8.3l-8.2-0.1-7.9-0.6-7.7-0.7-7.5-1-7.3-1.3-7.2-1.6-6.9-1.7-6.8-2.1-6.5-2.3-6.4-2.5-6.1-2.9-5.9-3-5.7-3.4-5.7-3.5-5.3-3.9-8.2-6.9-7.8-7.4-7.2-8.3-6.7-8.8-6.2-9.6-5.7-10.2-5.1-10.9-4.6-11.6-2.2-6.3-1.9-6.6-3.4-14-2.5-14.9-1.8-16.1-1.2-17-0.2-18.2 0.4-19.3z"/>
	</g>
	<g id="Layer">
		<path id="Layer" class="s26" d="m3478.3 2306.3l5.8 23.6 5.1 23.8 4.3 23.7 3.7 23.7 3 23.8 2.1 23.7 1.6 23.7 0.9 23.8 0.1 24.3-0.6 24.2-1.4 24.2-2.1 24.3 1.2-41.3-0.3-3.2-0.9-2.8-1.5-2.5-2.3-2.2-0.3-0.3-4.3-2.9-4.6-2.5-5-2.1-5.4-1.7-5.7-1.1-6.2-0.8-6.5-0.2-6.8 0.2-33.1 1.9-35.9 1.7-38.7 1.4-41.7 1-44.6 0.9-47.3 0.5-50.2 0.2h-53.2l-3.9-16.6-3.2-17-2.6-17.4-1.9-17.7-1.3-18.1-0.5-18.4 0.1-18.7 0.9-19.2 20.1 0.7 19.8 0.2 19.6-0.1 19.4-0.5 19.2-1 18.9-1.3 18.8-1.8 18.5-2 18.4-2.6 18.2-2.9 17.8-3.4 17.7-3.7 17.5-4.1 17.3-4.4 17.1-5 16.9-5.3 9.7-3.5 10.1-4.4 10.4-5.1 10.9-6 11.1-6.6 11.7-7.6 11.8-8.4z"/>
		<path id="Layer" class="s26" d="m3126.4 2671.9l3.2 9.3 1.9 4.3 2.1 4.3 2.3 3.9 2.5 3.9 2.7 3.7 3 3.4 3.8 4 4.2 3.8 4.5 3.5 4.9 3.2 5.1 2.9 5.5 2.6 5.7 2.4 6 2 32.9 9.9 33 9 33.1 8.3 33.1 7.5 33.2 6.6 33.4 5.9 33.3 5 33.5 4.2 5.8 0.6-7.3 17.8-7.8 17.4-8.2 17.1-8.7 16.8-9.2 16.4-9.6 16.1-10 15.9-10.4 15.5-8.6 11.8-8.8 11.7-9.1 11.6-9.5 11.3-9.5 11.1-10 11-10.2 10.7-10.5 10.5-7.6-9.7-7.5-8.8-7.8-8-7.9-6.9-8.1-5.8-8-5-8.3-4.1-8.5-3.1-22.5-17.2-21.4-17.6-20.7-17.6-19.7-17.9-19-18.1-17.8-18.4-17-18.6-16.2-18.8-2.3-2-2.4-1.2-1.4-0.2-1.4 0.1-3.1 0.9-6.9 3.2 8.1-8.4 7.3-9 5.3-7.9 4.9-8.4 4.3-8.9 3.8-9.2 5.6-16.6 4.8-16.6 4-16.9 3.2-17 1.7-11.6z"/>
		<path id="Layer" class="s23" d="m1522.4 2800.8v39.3l-1.6-0.5-1.3-0.7-1-0.7-0.7-0.9-0.3-1.6 0.1-1.6-2.2-5.7-1.1-5.2-0.3-5.1 0.8-4.7 1.1-3.4 1.7-3.2 2.2-3z"/>
		<path id="Layer" class="s23" d="m1806.6 2932l0.2 6.5-0.2 6.6-0.8 6.8-1.3 6.8-1.8 6.9-2.3 7-2.9 7-3.3 7.2-1-36.8 2-5.4 2.4-4.4 3.1-3.9 3.6-2.9z"/>
	</g>
	<g id="Layer">
		<path id="Layer" class="s27" d="m1642 205.9l3 19.6 2.7 20.2 2.2 21.3 1.8 22.7 1.4 23.8 1.1 26.8 2.1 76.2 1 45.6-0.1 6-1.1 5.4-1.5 4.6-2.4 4-2.2 2-1.3 0.8-1.1 0.4-1.4 0.1-1.3-0.1-2.9-1-10.5-5-10.8-4-10.7-3.1-11-2-8-0.8-8.1-0.4-3.3-0.2-3-0.7-2.6-1-2.3-1.5-2.1-1.8-1.7-2.3-1.4-2.6-1.1-3-10.1-35.3-3.2-208.7z"/>
		<path id="Layer" class="s27" d="m1785.5 205.6l91.4 6.7-7.7 231.6-0.4 3-0.6 2.7-1 2.7-1.3 2.3-2.3 3.1-3 2.7-3.5 2.1-4.2 1.9-4.9 1.6-5.6 1.3-6.4 1.1-8.8 1.2h-0.5l-4.8 0.7-4.8 1.2-5.1 1.5-7 2.4-8.3 2.8-6.2 1.7-6 1-5.8 0.4-5.6-0.1-5.8-0.9 2-24.7 1.6-24.8 1.4-24.9 1.2-24.9 0.9-24.9 0.6-25.1 0.4-25.1 0.1-25.1 0.2-6.7 0.5-7.4 1.9-17.1 3-20.5z"/>
		<path id="Layer" class="s27" d="m3252.3 778.2l-4.4 17-4.9 16.9-5.1 16.5-5.4 16.4-5.7 16.1-6 15.8-6.4 15.6-6.7 15.3-6.9 15.3-7.3 14.8-7.5 14.7-7.9 14.4-8.2 14.1-8.4 14-8.9 13.7-9 13.4-1.2 1.3-1.1 0.4-1.1-0.5-1.1-1.3-85.7-137.8 8.6 2.3 12 4 9.6 3.2 7.2 2.2 6.6 1.6 6.2 1.2 6 0.6 5.8 0.3 5.5-0.3 5.4-0.8 4-0.9 3.9-1.4 4-1.6 3.8-2.2 4-2.6 3.8-2.9 4-3.3 3.8-3.7 22.9-23.5 23.4-24.8 24-26.1z"/>
		<path id="Layer" class="s27" d="m2454.9 2314.4l-5.3 2-4.8 2.2-4.8 2.4-4.4 2.7-4.2 2.8-4 3.1-3.7 3.3-3.6 3.6-4.5 5.3-4.1 5.8-3.5 6.4-3.1 6.6-0.8 2.7-0.2 2.8 0.2 2.8 0.9 2.7 1.4 2.4 2 2.2 2.1 1.7 2.6 1.1 0.7 0.3 0.7 0.1 5 1.3 5.1 1 5.1 0.7 5.2 0.3 5.4 0.2 5.4-0.2 5.5-0.3 5.6-0.8 30.7-5.1 32.7-6.2 35-7.2 37.2-8.2 2.3-0.4h2.3l2.3 0.4 2.3 0.6 2.2 1 1.9 1.4 1.7 1.6 1.5 1.8 94.5 135.3-10.1 10.8-10.3 9.9-10.4 9.2-10.5 8.3-10.8 7.7-10.7 6.8-11 6.1-11.1 5.3-37.1 16.4-31.8 15.1-26.7 13.5-11.4 6.1-10.1 5.7-3.2 2.2-2.5 2.3-2.2 2.7-1.6 2.8-0.9 2.8-0.5 3.1v3.2l0.4 3.4 0.9 3.6 1.4 3.8 1.8 4 2.3 4.2-4-2-3.4-2.4-3.2-2.7-2.7-3.1-1.9-2.9-1.7-3.2-1.4-3.6-1-3.8-0.6-4-0.3-4.4 0.1-4.6 0.4-4.8 0.8-5.1 1-5.4 1.4-5.6 1.8-5.9 4.6-12.7 6-13.6 2.2-5.4 1.4-5.4 0.6-5.2v-5.1l-0.9-5.6-1.7-5.4-2.7-5.4-3.5-5.3-2.7-3.1-2.9-2.6-2.3-1.5-2.6-1.3-2.8-1-2.8-0.9-3.2-0.5-3.2-0.3-7.1 0.2-9.7 0.6-9.6 0.5-9.5 0.1-9.3-0.1-9.4-0.4-9.2-0.6-9-1-9-1.2-12.6-1.5-13.3-0.9-14.2-0.3-15.1 0.4-15.7 0.9-17.3 1.5-19 2.3-25.8 3.4-20.4 2.7-35.2 4.2-37.6 4.2-39.1 3.7-39.9 3.4-39.2 3.1-37.2 2.4-33.4 1.7-28.6 0.9-54.5 0.9-55.5 0.6-56.5 0.4-57.3 0.1-58.3-0.2-59.3-0.7-60.2-0.7-61.3-1.2-30.4-1-34.5-1.8-38.5-2.7-42.5-3.4-46.4-4.4-50.6-5.1-54.6-6-58.6-6.8-16.1-1.6-16.5-1-17.1-0.7-18-0.1-18.5 0.4-20.2 0.9-22.3 1.2-30.5 2.1-27.5 1.9-2.9 0.5-2.6 1.3-2.2 1.7-1.8 2.1-3.8 6.3-2.9 6.5-2.2 6.5-1.3 6.7-0.5 3.8-0.1 4 0.1 3.9 0.4 4 1.5 8.1 2.6 8.1 1.5 3.4 2 3 2.9 3 3.5 2.5 4.8 3.1 4.1 3.4 3.4 3.7 2.9 4.1 1.8 3.6 1.6 3.7 1 4.1 0.8 4.1 0.3 4.5-0.1 4.7-0.4 4.9-0.7 5.1-0.7 2.5-1.1 2.3-1.3 2.2-1.8 1.9-5.6 5.1-5.8 4.5-6.1 3.8-6.4 3.4-5 2.1-5.2 2-5.4 1.4-5.5 1.1-5.7 0.9-5.8 0.5-6 0.2-6.1-0.2 38.7-14.5 1.8-0.9 1.5-1.1 1.3-1.4 1-1.5 2.6-4.7 1.1-2.7 0.7-2.8 0.1-3-0.5-2.8-0.9-2.8-1.4-2.6-1.8-2.1-2.2-1.9-40.1-28.4-9.7-6.4-10.6-6-11.5-5.8-12.3-5.3-12.7-5.7-12-6-11.6-6.5-11.1-7-10.5-7.6-10.1-8-9.5-8.4-8.9-9.1-5.3-5.6-4.9-5.9-4.9-6-4.6-6.3 90.1-129.3 1.9-2.5 2.3-2 2.6-1.7 2.8-1.3 2.9-0.7 3.1-0.4h3.1l3 0.6 16.4 4.4 16.5 4.1 16.6 3.8 16.8 3.6 16.8 3.3 17 3.1 17 2.8 17.3 2.5 5.3 0.7 5.3 0.2h5.1l5.1-0.2 5-0.5 4.9-0.9 4.7-1.2 4.6-1.5 0.8-0.3 1.4-0.6 2.6-1.7 2.3-2.1 2-2.7 1.1-3 0.7-3.2-0.2-3.2-0.6-3-1.4-3-19.1-31.7 16.3 3.4 21.2 3.3 26.1 3.6 30.9 3.5 18.9 2.3 21.9 3.1 61.3 9.5 43.9 7 31.8 4.7 28 3.7 24.6 2.7 46.3 4.2 46.4 3.6 46.4 3.1 46.5 2.5 46.6 2.1 46.5 1.5 46.6 0.9 46.8 0.4 46.8-0.3 46.8-0.6 46.9-1.3 46.9-1.8 47-2.3 47.1-2.9 47.1-3.5 47.2-3.9 34.1-3.5 37.2-4.7 41.2-5.9 56.4-8.8 66.9-10.4 25.6-3.7 23.4-3 4.3-0.8 4.5-1.3 5-1.6 6.6-2.8 9.1-3.5 6.5-2 6-0.8 2.9-0.1 2.9 0.2 3.4 0.3h3.5l4.6-0.7 4.6-1.2 5-1.7 5.1-1.3 5.1-1 5.1-0.5 5.1-0.3z"/>
	</g>
	<g id="Layer">
		<path id="Layer" class="s28" d="m1785.5 205.6l-4.4 23.5-3 20.5-1.9 17.1-0.5 7.4-0.2 6.7-0.1 25.1-0.4 25.1-0.6 25.1-0.9 24.9-1.2 24.9-1.4 24.9-1.6 24.8-2 24.7-1.4 19-1.9 19-2.2 17.5-2.4 17.5-2.8 17.4-3.2 17.3-3.6 17.4-3.8 17.3-4.3 17.2-4.7 17.3-1.4 3.4-1.9 3.2-2.5 2.8-3.1 2.1-3.4 1.5-3.8 0.9-3.7 0.2-3.7-0.7-3.7-1.3-3.3-1.8-3.3-2.3-3.2-2.9-3-3.3-2.9-4-2.7-4.5-2.5-4.9-2.3-5.5-2.3-6-2.1-6.7-1.9-7-1.8-7.6-1.5-7.9-2.7-17.6-8.2-62.4-8.8-62.8-1-45.6-2.1-76.2-1.1-26.8-1.4-23.8-1.8-22.7-2.2-21.3-2.7-20.2-3-19.6z"/>
		<path id="Layer" class="s28" d="m1552.1 211.9l3.2 208.7-20.2 252.4-0.8 4.1-1.4 3.9-2 3.5-2.8 3.1-3.2 2.6-3.7 1.9-4 1.3-4.1 0.5-6-0.2-5.6-0.8-5.1-1.6-4.8-2.3-3.7-2.5-3.3-3-3.1-3.6-2.8-3.9-7-12.2-6.5-12.7-6.2-13.7-5.7-14.5-5.2-15.2-5.3-16.7-5.4-18.7-6.7-25.8-7.7-29-4.9-19.4-4.3-19.9-3.7-20.3-2.9-20.7-3.5-26.2-6.1-42.8-6.9-42.7-7.6-42.6-8.3-42.5z"/>
		<path id="Layer" class="s28" d="m1876.9 212.3l176.2 27.8-8.8 45.5-8 45.5-7.4 45.5-6.7 45.4-3.8 24.7-4.4 23.7-4.8 23.1-5.4 22.1-7.9 31.8-6.3 25.7-5 18.6-5 16.8-5.1 15.1-5.6 14.4-6 13.6-6.5 12.6-7 12.2-3.4 4.6-3.7 3.9-4.1 3.1-4.3 2.2-2.8 1-3 0.8-3 0.3h-3.2l-3.3-0.1-3.4-0.5-3.6-0.8-3.7-1.1-2.8-1.2-2.7-1.6-2.4-1.9-2-2.3-1.8-2.6-1.3-2.7-1-2.9-0.5-3.1-24.2-227.6z"/>
		<path id="Layer" class="s28" d="m1275 267.7l0.6 31.7 1 31.9 1.2 31.9 1.5 32.1 1.7 32.1 2 32.3 2.3 32.3 2.6 32.6 2 28.2 1.1 25.1v21.9l-0.3 9.8-0.6 9.1-2.3 23.3-3.2 23.2-4.2 23.2-5 23.1-0.7 2.2-0.9 1.9-2.3 3.3-2.9 2.7-3.5 1.9-3.8 1.2-4 0.2-3.9-0.7-3.7-1.6-3.2-2.3-6.9-6.6-6.8-6.9-6.4-7-6.1-7.5-6.8-8.8-6.5-9.1-6-9.4-5.8-9.9-5.3-10.1-4.9-10.3-4.6-10.6-4.2-11-1-3.1-10.6-30.1-7-22.5-2.8-10.4-2.4-10-1.9-9.3-1.4-8.9-5.9-37.2-6.9-38.2-7.9-39-9.1-40-0.9-3-1.4-2.5-1.8-2.2-2-1.9-5.8-4-6.1-3.3-6.9-2.8-7.3-2.2z"/>
		<path id="Layer" class="s28" d="m2155 269.1l167.6 65.4-7.3 21-6.8 21.3-6.1 21.3-5.8 21.6-4.8 20.1-4.4 20.3-3.9 20.4-3.5 20.5-3 17.8-3.4 16.5-3.8 15-4.1 13.8-1.4 4.4-9.2 27.7-6.9 19.7-6.9 17.3-6.9 15.4-7.4 14.5-8.1 13.5-4.3 6.4-4.4 6.1-4.6 5.9-4.8 5.9-5.4 6.1-5.9 6-6 5.9-6.4 5.7-1.4 1-1.4 0.7-1.6 0.6-1.7 0.3h-1.7l-1.6-0.2-1.6-0.4-1.5-0.8-4-2.7-3.3-3.2-2.2-2.9-1.7-3.3-1.5-3.6-1-4-4.3-24.2-3.5-24.6-2.5-24.8-1.7-25-0.8-25.3 0.2-25.6 1-25.8 1.9-26.1 5-59.2 4-59 2.9-58.8z"/>
		<path id="Layer" class="s28" d="m726.9 2492.4l4.6 6.3 4.9 6 4.9 5.9 5.3 5.6 8.9 9.1 9.5 8.4 10.1 8 10.5 7.6 11.1 7 11.6 6.5 12 6 12.7 5.7 12.3 5.3 11.5 5.8 10.6 6 9.7 6.4 40.1 28.4 2.2 1.9 1.8 2.1 1.4 2.6 0.9 2.8 0.5 2.8-0.1 3-0.7 2.8-1.1 2.7-2.6 4.7-1 1.5-1.3 1.4-1.5 1.1-1.8 0.9-38.7 14.5-173 0.9-5 0.1-4.8 0.6-4.6 0.7-4.4 1.2-4 1.4-3.9 1.6-3.7 2.1-3.4 2.3-3.2 2.7-3.1 3-2.8 3.2-2.6 3.7-2.3 3.9-2 4.2-1.8 4.6-1.7 4.9-2.3 7.9-1.2 5-0.9 4.6-0.6 4.3v4l0.4 3.7 0.9 3.3 1.2 2.9 1.8 2.9 2 2.3 2.6 2 3 1.7 3.4 1.4 3.9 1 4.2 0.8 4.8 0.3 5.1 0.2 72.1-1.1 78.5-0.8 18 0.7 41.4 2.7 8.7 0.4h8.3l8-0.4 7.7-0.6 7.3-1.2 7-1.4 6.7-1.9 6.2-2.2-0.6 29.9 0.1 29.9 0.9 29.7 1.7 29.5 2.4 29.4 3.2 29.3 4 29.1 4.7 29 4.5 23.7 5.1 23.8 5.5 23.5 6 23.5 6.5 23.3 7.2 23.4 7.5 23.1 8.2 23.1 8.5 23 9.2 22.9 9.8 22.9 10.2 22.7 10.7 22.7 11.3 22.5 11.7 22.5 12.3 22.3 0.6 1.6 0.3 1.6-0.1 1.7-0.5 1.6-0.9 1.4-1.2 1.3-1.4 0.9-1.5 0.5-2.2 0.2-21.7-2-21.1-2.3-20.5-2.8-20-3.2-19.5-3.5-19-4.1-18.7-4.6-18-5-17.8-5.4-17.2-5.9-17-6.5-16.6-6.8-16.3-7.4-15.8-7.8-15.7-8.4-15.2-8.8-12.2-7.4-11.9-8-11.7-8.1-11.7-8.6-11.2-8.8-11.3-9.2-11-9.5-10.8-10-10.6-10.4-10-10.9-9.3-11.1-8.7-11.7-5.1-7.6-5-7.8-4.6-8.1-4.5-8.2-4.2-8.5-4-8.6-3.8-8.9-3.6-9.1-3.3-9.5-3.2-9.8-2.9-10-2.9-10.3-5.1-22-4.6-23.9-2.3-14.5-1.8-14.4-1.4-14.2-1-14.2-0.6-14.2-0.3-13.9 0.3-13.9 0.6-13.8 2.1-30.2 2.4-28.9 2.8-27.5 3.1-26.2 3.5-24.8 3.9-23.4 4.3-22.1 4.6-20.8 3.3-13.4 3.8-13.3 4-13.3 4.4-13.3 4.6-13.2 5-13.3 5.3-13.1 5.7-13.2 6-13.2 6.4-13 6.6-13.2 6.9-13 7.3-13 7.7-12.9 7.9-13.1z"/>
		<path id="Layer" class="s28" d="m2703.4 2496.6l10.6 17.2 10.1 17.5 9.5 17.7 9.1 18.1 8.6 18.2 8 18.4 7.5 18.8 7 18.8 6.4 19.1 5.9 19.3 5.2 19.1 4.7 19.5 4.2 19.4 3.6 19.7 3 19.5 2.4 19.7 5 47.9 4.2 46.1 0.9 11.3 0.6 11.8 0.3 11.6 0.1 11.9-0.1 11.8-0.5 11.9-0.7 11.8-1 11.9-1.1 11.7-1.6 11.6-1.6 11.5-2.1 11.5-2.2 11.1-2.4 11-2.7 10.9-2.9 10.7-3.2 10.2-3.3 10.1-3.6 9.8-3.7 9.7-4 9.2-4.2 9-4.3 8.9-4.8 8.5-4.7 8.2-5 7.9-5.1 7.7-5.5 7.4-5.5 7-5.7 6.8-5.9 6.4-6.2 6.1-14 13.3-14.2 12.4-14.3 11.9-14.5 11.3-14.7 10.6-14.9 10-15 9.4-15.4 8.8-13.6 7.2-13.8 6.9-14 6.4-14.5 6.1-14.7 5.8-14.9 5.3-15.6 5-16 4.9-16.4 4.3-16.8 4.2-17.7 3.9-18.3 3.7-19.1 3.4-20.2 3.2-21.4 3.2-23.1 3.1h-2.1l-1.9-0.5-1.8-0.9-1.5-1.3-1.3-1.7-0.7-1.7-0.3-2.1 0.1-1.9 0.9-2.6 9.9-18.1 9.4-18.2 9.1-18.4 8.9-18.4 8.5-18.5 8.3-18.8 7.9-18.8 7.6-18.9 10.7-28.4 10.1-28.6 9.3-28.9 8.7-29.3 8.1-29.4 7.2-29.7 6.7-30 6-30.2 1.9-11.8 1.6-12.8 1.2-14.2 1.3-19.4 2.3-29.9 1.2-11.5 1.5-10.5 1.3-8.8 1-9.1 0.8-9.6 0.5-9.9 0.2-21.4-0.6-29.4-0.4-15.2 276.9-2.8 3.8-0.1 3.6-0.6 3.2-0.6 2.9-0.9 2.6-1 2.3-1.4 1.9-1.7 1.6-1.8 1.3-2 1-2.3 0.7-2.6 0.4-2.8v-3.1l-0.3-3.1-0.6-3.6-0.9-3.7-7.6-27-2.5-7.2-1.4-3.2-1.8-2.9-1.8-2.7-2.2-2.5-2.1-2.2-2.5-2.1-2.7-1.7-2.8-1.6-2.9-1.3-3.2-0.8-3.3-0.9-3.6-0.6-7.7-0.2-108.9 2.2-15.3-0.2-15.6-0.6-15.7-1.4-15.8-1.9-16.1-2.7-16.1-3.3-16.2-3.9-16.5-4.6-2.3-4.2-1.8-4-1.4-3.8-0.9-3.6-0.4-3.4v-3.2l0.5-3.1 0.9-2.8 1.6-2.8 2.2-2.7 2.5-2.3 3.2-2.2 10.1-5.7 11.4-6.1 26.7-13.5 31.8-15.1 37.1-16.4 11.1-5.3 11-6.1 10.7-6.8 10.8-7.7 10.5-8.3 10.4-9.2 10.3-9.9z"/>
		<path id="Layer" class="s28" d="m2951.8 2892.2l-4.2 4.1-3.4 4-2.6 3.8-1.8 3.7-0.7 3.1-0.2 3 0.4 2.4 0.6 2.3 1.2 2.3 1.5 2.3 3.2 4.4 3.6 6.4 3.1 6.9 2.5 7.8 2.8 10.8 2.5 9.2 2 6.7 2.4 6.2 2.7 5.7 1.7 3.2 10.3 20 3.6 7.6 3 7.3 2.4 7.2 2 6.9 1.4 6.7 0.9 6.8 1.2 7.7 1.6 7.3 2.3 7 3 6.8 2.3 4.1 2.4 3.9 1.8 2.1 2.1 1.3 2.3 0.3 2.6-0.2 11.4-3.2 11-3.5 10.5-3.9 10.1-4.2 20.8-9.8 20.3-10.2 20-10.9 19.4-11.3 19.1-11.9 18.5-12.5 18.1-13.1 17.8-13.7 16.5-13.5 16.2-14.2 8.5 3.1 8.3 4.1 8 5 8.1 5.8 7.9 6.9 7.8 8 7.5 8.8 7.6 9.7-12.5 11.4-12.7 11.1-12.8 10.6-12.9 10.2-13.2 9.9-13.1 9.5-13.4 9.1-13.5 8.7-13.6 8.2-13.8 7.9-14 7.6-14 7.1-14.2 6.7-14.5 6.4-14.4 5.8-14.7 5.5-12.3 4.4-12.4 4.1-12.5 3.7-12.5 3.6-12.7 3.2-12.8 2.9-12.9 2.7-13 2.4-13.1 2-13.1 2-13.3 1.5-13.4 1.4-13.5 1-13.5 0.8-13.7 0.5-13.8 0.3-3.1-0.3-2.8-1-2.6-1.6-2.2-2.1-1.7-2.5-1.1-2.8-0.4-3 0.1-3 0.8-2.5 6.1-16.5 5.8-16.4 5.3-16.3 5-16.4 4.5-16.2 4.2-16.3 3.7-16.2 3.3-16.1 3-16.1 2.5-16 2.2-16 1.7-15.9 1.4-16 0.9-15.9 0.5-15.8 0.1-15.7 0.4-3 1-2.4 1.9-1.9 2.8-1.3 5.9-1.7 6.4-1 6.9-0.8z"/>
	</g>
	<path id="Layer" class="s29" d="m3478.3 2306.3l-12.3 9.1-11.8 8.4-11.7 7.6-11.1 6.6-10.9 6-10.4 5.1-10.1 4.4-9.7 3.5-16.9 5.3-17.1 5-17.3 4.4-17.5 4.1-17.7 3.7-17.8 3.4-18.2 2.9-18.4 2.6-18.5 2-18.8 1.8-18.9 1.3-19.2 1-19.4 0.5-19.6 0.1-19.8-0.2-20.1-0.7-1.3-17.2-0.2-17 0.5-16.6 1.5-16.3 2.5-15.8 3.3-15.6 4.2-15.2 5.2-14.8 3.5-8.6 3.8-8.4 4.1-8.4 4.5-8.1 4.7-8.1 5-7.9 5.4-7.9 5.7-7.7 5-6.3 5-5.8 5.1-5.7 5.2-5.2 5.4-5 5.5-4.6 5.6-4.3 5.8-4.1 9.4-6 9.9-5.3 10.6-4.8 11.2-4.4 12.2-3.8 13.2-3.6 14.9-3.4 17.9-3.6 8.6-1.2 8.8-0.4 9.1 0.4 9.2 1.3 9.3 2.2 9.6 3 9.8 3.9 10 4.6 10.3 5.5 10 5.9 9.5 6.3 8.9 6.7 8.6 7.1 7.9 7.5 7.6 7.9 7 8.2 4.3 5.7 4.2 5.9 4.1 6.1 3.7 6.3 3.6 6.4 3.3 6.6 3.1 6.8 3 6.9 2.6 7.2 2.6 7.3 2.2 7.5 2 7.7 3.5 15.8z"/>
	<g id="Layer">
		<path id="Layer" class="s30" d="m198.8 284.5l13 8.5-1.3 3.6-0.6 3.5v3l0.5 3 1 2.1 1.8 2 2.6 1.9 3.3 1.8 7.3 3.4 7.1 3.7 6.9 4.1 6.7 4.2 177.5 119.3 19.8 13.5 19.6 14.1 19 14.3 18.8 14.7 18.4 15.2 18.2 15.5 17.6 15.8 17.4 16.3 16.9 16.5 16.5 17 16.2 17.2 15.8 17.7 1.6 1.9 1 1.8 0.4 1.5-0.2 1.3-0.7 1.1-1.3 0.9-1.9 0.8-2.4 0.5-2.2 0.1-2.2-0.1-2.2-0.5-2-0.8-2.9-1-3-0.1-3.1 0.7-2.9 1.7-105.2 77.7-5.4-6-5.3-5.4-5.8-4.9-5.7-4.4-6-4-6.2-3.3-6.2-2.8-6.6-2.4-5.4-1.6-5.7-1.1-5.6-0.8-5.9-0.5h-6l-6 0.3-6.1 0.6-6.4 0.9-6.4 1.4-6.5 1.7-6.5 2-6.8 2.4-6.9 2.9-6.9 3-7.2 3.6-7.1 3.8-5.5 2.7-5.4 1.6-2.6 0.3-2.5 0.2-2.4-0.2-2.3-0.3-3.8-1.3-3.5-1.9-3.5-2.7-3.2-3.3-1.9-2.6-1.4-2.8-1-3-0.5-3.1-0.2-3.1 0.4-3.2 0.9-3.1 1.3-2.8 3.7-6.4 4-6.1 4.3-5.8 4.5-5.5 6.2-6.5 6.7-6 7.3-5.7 8-5.5 8.6-5.3 9.5-5.2 10.9-5.4 15.4-7.1 23-10.9 2.5-1.7 2.2-2.1 1.6-2.7 1-2.8 0.2-3.1-0.4-3.1-1.1-2.8-1.7-2.5-2.3-2.2-12.5-9.6-12.1-10.1-11.8-10.4-11.2-10.8-3.9-4-138.7-142.1-4.1-4.5-3.5-5-3.5-5.3-2.9-5.9-4-8.1-3.6-6.4-3.2-4.7-2.8-2.9-3.5-2.8-3.6-2.5-3.5-1.9-3.4-1.5-3.4-1-3.1-0.6-3.1-0.1-3.1 0.4-2.3 0.5-2.3 0.8-2.2 1.1-2.1 1.4-4.1 3.6-4 4.6z"/>
		<path id="Layer" class="s30" d="m3229.8 286.5l5.8 12.8 4.1 11.1 1.4 4.9 0.9 4.5 0.6 3.9 0.1 3.6-6.5 4.2-6.4 4.5-6.1 4.8-5.9 5.3-5.7 5.6-5.7 5.9-5.3 6.2-5.3 6.7-12.4 16.2-10.8 13.4-9.4 10.7-7.6 7.8-42.7 40.3-42.2 40.8-41.7 41.2-41.2 41.5-1.5 1.8-1 2.2-0.6 2.4v2.4l0.5 2.5 1 2.1 1.4 2.1 1.9 1.5 2.2 1.2 1.4 0.5 25.1 10.1 9.7 4.2 8.5 4.1 8.2 4.2 7.7 4.2 6.9 4.2 6.5 4.5 6.2 4.6 5.6 4.9 5.2 5 4.7 5.1 4.3 5.3 3.7 5.4 3.3 5.8 2.8 5.8 2.2 5.5 1.8 5.7 0.5 3.7-0.4 3.8-1.3 3.6-2.2 3-3.7 3.8-3.8 2.8-4 2-4.2 1.4-2.7 0.4-2.8 0.1-2.8-0.2-2.9-0.5-3.1-0.8-3.1-1.2-6.2-3.2-9.7-5.2-9.9-4.5-10.1-3.5-10.3-2.7-6.3-1.2-6.5-1-6.4-0.5-6.6-0.3h-6.7l-6.6 0.4-6.8 0.7-6.9 1-6.7 1.4-6.1 1.6-5.6 2.1-5.1 2.4-4.6 2.8-4 3.1-3.4 3.6-3 3.8-2.4 4.1-1.9 4.5-1.3 4.8-0.9 5.1-12.8-12.2-13.3-11.9-13.5-11.3-14-10.7-13.4-9.7-13.8-9.3-14.2-8.9-14.4-8.3-3.1-1.3-3.1-0.7-3.2-0.1-3.3 0.6-2.7 0.5-2.5-0.3-2.6-0.8-2.3-1.6-0.2-0.1-1.3-1.4-0.9-1.5-0.6-1.8-0.4-2 0.1-1.7 0.5-2 0.8-1.6 1.1-1.6 22.7-23.6 22.3-22.5 22.4-21.5 22.4-20.4 22.1-19.3 22.1-18.3 22-17.1 21.8-16.1 46-32.2 49-33.4 51.8-34.3 54.7-35.2 14.5-9.8 14.7-10.4 14.9-11.3 14.8-12.1-2.6 1.4-0.7 0.2-0.5-0.2-0.3-0.9 0.5-1.7z"/>
		<path id="Layer" class="s22" d="m1906.5 2801.9l3.9 6 1.4 2.9 1 2.8 0.9 3 0.4 2.8 0.2 2.8-0.1 2.8-0.6 3.6-1.2 3.4-7.1 18.4-1.1 7.8-0.6 7.9-0.1 8.1 0.2 8.1 0.2 3.7-0.3 3.8-1 5.2-47.4 190.7 3.7-36.3 4.4-35.8 4.9-35.5 5.6-35 2.4-12.5 3.9-15.9 4.8-19.2 6.3-22.6 4.6-17.2 4.1-17.7 3.6-17.9z"/>
	</g>
	<g id="Layer">
		<path id="Layer" class="s22" d="m1085.2 1495.1c-43.1-44.8-49.7-108.4-14.6-142.2 35.1-33.7 98.4-24.8 141.6 20.1 43.1 44.9 49.7 108.4 14.6 142.2-35.1 33.8-98.4 24.8-141.6-20.1z"/>
		<path id="Layer" class="s22" d="m2215.5 1373.2c43.1-45 106.5-54.1 141.7-20.4 35.2 33.8 28.7 97.4-14.4 142.4-43.2 45-106.5 54.1-141.7 20.4-35.2-33.8-28.8-97.4 14.4-142.4z"/>
	</g>
	<g id="Layer">
		<path id="Layer" class="s27" d="m669.8 3078.1l-4.9-5.5-5.1-5.3-8.7-8.1-3.3-3.4-2.8-3.8-1.8-3.2-1.6-3.5-3.9-11.1-3.6-11.3-3.2-11.6-2.7-11.8-2.4-12.1-1.9-12.2-1.7-12.6-1.1-12.7-0.2-4v-3.6l0.4-3.4 0.7-3.2 0.9-3.1 1.2-2.7 1.4-2.5 1.7-2.3 2.3-2.3 2.4-1.9 2.8-1.7 3.2-1.5 3.5-1.2 3.8-0.9 4.1-0.5 4.5-0.4 19.2-1 18.8-1.4 18.1-1.9 17.8-2.3 17.4-2.7 16.7-3.2 16.4-3.5 15.8-4.1 15.5-4.3 14.9-4.9 14.6-5.2 13.9-5.7 13.7-6.2 13-6.5 12.8-7 12.3-7.4 2.3-1.2 2.4-0.5 2.6 0.1 2.5 0.7 2.2 1.2 1.8 1.8 1.4 2.2 0.8 2.4 0.2 1.9-0.1 2-4.6 29.6-1.9 14-1.4 13.5-1.3 13.2-0.9 12.9-0.6 12.6-0.3 12.3-0.1 12.1 0.4 11.9 0.5 11.9 0.9 11.6 1.1 11.6 1.6 11.2 1.7 11.1 2.1 11.3 6.4 32.8 6.2 34.3 6.1 35.5 5.7 36.8 0.3 3.2-0.2 3-0.4 2.8-0.8 2.6-1.3 2.6-1.7 2.4-1.9 2.2-2.4 2.1-2.7 1.7-3 1.4-2.3 0.7-2.4 0.4-2.5 0.1-2.7-0.3-14.7-2.1-14.6-2.7-14.4-3.2-14.5-3.8-14.4-4.5-14.3-5-14.2-5.5-14.2-6.1-14.1-6.8-14-7.3-14-7.8-13.9-8.4-13.8-9.1-13.7-9.6-13.7-10.1-13.6-10.7-3.2-2.7-2.8-2.8-2.7-3-2.2-2.9-2-3.1-1.7-3.2-1.4-3.2-1-3.3-0.9-4.1-0.5-4.1-0.4-2.5-0.7-2.4-1.2-2.6z"/>
		<path id="Layer" class="s27" d="m2717.3 3136.4l-20.8 14-19.7 12.7-18.4 11-17.3 9.5-16.1 8-14.8 6.4-7.1 2.6-6.6 2.3-6.4 1.8-6.1 1.6-18.2 4.2-17.9 4.7-17.5 5.3-17.4 5.6-3.3 0.7h-3.3l-3.5-0.5-3-1.2-2.8-2-2.5-2.3-1.9-2.9-1.1-3.1-0.3-0.7-2-10.3-1.1-9.8-0.3-10.1 0.3-10.2 1.3-10.2 5.8-35.3 6.4-35.9 6.7-36.6 7.3-37.2 1.8-9.8 1.5-9.6 1.1-9.5 0.7-9.3 0.3-9.1v-8.9l-0.5-8.7-0.8-8.5-2-19-1.8-19.3-1.4-19.4-1.2-19.8 0.1-3 0.9-2.7 1.4-2.5 2-2.1 2.4-1.6 2.7-1.1 2.8-0.5 2.9 0.3 3 1 13.3 6.1 13.3 5.8 13.5 5.4 13.4 5.1 13.7 4.8 13.7 4.5 13.8 4.1 13.8 3.8 15.7 4 15.7 3.4 16 3.1 16 2.7 16.1 2.3 16.2 1.8 16.3 1.5 16.4 1 4.9 0.4 4.6 0.8 4.2 1 4 1.3 3.6 1.5 3.2 1.9 3 2.2 2.6 2.6 2.3 2.8 2 3.2 1.7 3.3 1.4 3.8 1 4 0.8 4.5 0.4 4.6v5l-0.8 15.9-1.5 15.1-2.3 14.2-3.2 13.3-1.9 6.3-2.1 6-2.3 5.7-2.4 5.7-2.7 5.3-2.8 5.1-3.1 4.9-3.3 4.6-1.3 1.7-6.6 9.5-6.2 9.9-5.6 10.3-5.1 10.6-1.8 3.6-1.9 3.2-4.4 5.6-5.2 5.2-6.4 4.9-9.4 6.4z"/>
		<path id="Layer" class="s1" d="m1705.7 1821.9l-0.7 1.5-3.2 5.7-4.1 5.5-4.7 4.8-5.6 4.5-6.1 4.1-6.9 3.6-7.6 3.1-8.2 2.5-8.9 2.1-9.3 1.4-9.6 0.8-9.7 0.2-9.8-0.6-9.3-1-8.9-1.8-8.2-2.3-6.6-2.4-6.4-2.9-6.3-3.3-5.9-3.6-5.7-4-5.4-4.3-4.9-4.6-4.7-4.9-4.3-5.3-3.8-5.5-3.3-5.6-3-5.8-2.4-5.9-2.1-6.1-1.4-6.2-1.1-6.2-0.3-4.5-0.2-4.5 0.1-4.4 0.2-4.5 0.6-4.6 0.8-4.5 1-4.5 1.3-4.5 1.7-3.9 2.3-3.5 2-2.2 2.3-1.9 2.6-1.6 2.8-1.2 3.1-1 3.3-0.7 3.5-0.3h3.5l3.4 0.4 3.2 1.1 2.9 1.6 2.7 2.1 2.3 2.5 1.8 2.8 1.2 3.2 0.8 3.3 1.8 10.8 1.2 5.1 1.3 4.8 1.5 4.6 1.7 4.4 1.8 4.1 2 3.8 2.2 3.6 2.4 3.3 2.5 3.1 2.7 2.8 2.8 2.5 3 2.2 3 2 3.3 1.6 5.5 2.1 5.8 1.3 6 0.6 6.3-0.2 6.4-1 6.6-1.8 6.7-2.5 6.6-3.1 6.6-3.9 6.4-4.5 6.3-5 5.9-5.7 5.6-6.1 5.1-6.5 4.6-6.8 4.3-7.3 0.8-1.9 0.4-2 0.1-2.2-0.3-2.1-0.8-1.9-1.1-1.8-1.5-1.6-1.6-1.2-7.1-4.1-6.2-4.1-5.9-4-5.5-4.2-5-3.9-4.6-4.1-4.1-4.1-3.7-4-3.2-4-2.7-3.9-2.4-4.1-1.8-3.9-1.3-3.8-1-4-0.5-3.8v-4l0.3-2.8 0.6-3 0.8-2.8 1.1-2.9 3.6-7.2 4.2-6.8 4.8-5.9 5.4-5.5 3.8-3.2 4.1-2.8 4.2-2.7 4.5-2.3 4.7-2 5-1.8 5.1-1.4 5.3-1.1 5.6-0.8 5.4-0.5 5.9-0.3 5.7 0.3 5.9 0.4 5.9 0.8 5.9 1.1 5.8 1.4 6 1.7 5.9 2 5.7 2.4 5.3 2.6 5.1 2.8 4.8 3.1 4.5 3.3 4 3.5 3.5 3.5 3.2 3.7 2.7 3.7 2.1 4 1.6 3.8 1.2 3.8 0.5 4 0.1 3.8-0.2 3-0.5 2.9-0.9 2.9-1.2 2.8-1.4 2.8-1.8 2.8-2 2.8-2.3 2.7-9.6 10.2-10.3 10-10.9 9.6-11.5 9.4-1.1 1-0.8 1.2-0.8 1.4-0.4 1.4-0.3 1.4v1.5l0.3 1.5 0.5 1.4 6.7 13.8 5.9 11.1 5.9 9.7 5.9 8.4 3.1 3.7 3.1 3.4 3.1 3.2 3 2.8 3.1 2.4 3.2 2.2 3.1 1.8 3.2 1.5 0.6 0.2 4.2 1.5 4.3 1 4.6 0.6 4.5 0.2 4.7-0.3 4.6-0.8 4.7-1.2 4.6-1.5 4.7-2.1 4.3-2.4 4.2-2.8 3.9-3 3.7-3.4 3.1-3.8 2.9-3.8 2.5-4.1 3.2-6.3 2.8-6.4 2.5-6.5 2.1-6.6 1.6-6.2 1.3-6.2 1.1-6.4 0.6-6.4 0.8-3.4 1.3-3 2-2.5 2.5-2 3-1.4 3.2-0.7h3.1l3.2 0.8 2.9 1.4 3.9 2.9 3.5 3.1 3 3.4 2.6 3.7 2.1 3.9 1.7 4.4 1.2 4.6 0.7 4.9 0.4 6 0.2 5.8-0.2 5.7-0.4 5.7-0.7 5.6-0.8 5.4-1.2 5.4-1.6 5.2-1.6 5-2 4.9-2.3 4.7-2.4 4.5-2.7 4.3-3 4.3-3.2 3.8-3.4 3.8-3.4 3.3-3.7 3.2-3.8 3-4.1 2.7-4.2 2.5-4.4 2.5-4.5 2-4.9 1.9-10.5 3.5-10.3 2.6-10.1 2-9.9 1.1-9.7 0.3-9.4-0.5-9.2-1.2-9.1-2.1-8.2-2.5-8-3.4-7.8-4-7.7-4.6-7.4-5.3-7.3-6.1-7.1-6.6-6.9-7.5-1.4-1.4-1.3-1-1.2-0.5h-1.3l-1.1 0.4-0.9 0.9-1 1.2z"/>
	</g>
</svg>