<svg version="1.2" xmlns="http://www.w3.org/2000/svg" viewBox="0 0 3600 3600" width="3600" height="3600">
	<title>white1-svg</title>
	<style>
		.s0 { fill: #250c00 } 
		.s1 { fill: #2c0500 } 
		.s2 { fill: none;stroke: #e6dad1;stroke-width: 3.3 } 
		.s3 { fill: none;stroke: #e5c8ae;stroke-width: 3.3 } 
		.s4 { fill: none;stroke: #f8e0cb;stroke-width: 3.3 } 
		.s5 { fill: none;stroke: #f8ede4;stroke-width: 3.3 } 
		.s6 { fill: none;stroke: #ede7e2;stroke-width: 3.3 } 
		.s7 { fill: none;stroke: #fdddd8;stroke-width: 3.3 } 
		.s8 { fill: none;stroke: #968280;stroke-width: 3.3 } 
		.s9 { fill: none;stroke: #f6e9e2;stroke-width: 3.3 } 
		.s10 { fill: none;stroke: #f0ceb0;stroke-width: 3.3 } 
		.s11 { fill: none;stroke: #946059;stroke-width: 3.3 } 
		.s12 { fill: #ffffff } 
		.s13 { fill: #f0dbc8 } 
		.s14 { fill: #fbbbb1 } 
		.s15 { fill: #f0c197 } 
		.s16 { fill: #dacec5 } 
		.s17 { fill: #ffe5a9 } 
		.s18 { fill: #f1e5dc } 
		.s19 { fill: #ecd3c4 } 
	</style>
	<g id="Layer">
		<path id="Layer" class="s0" d="m3016.5 3078.1l-5.4 13-5.9 12.7-6.4 12.3-6.8 11.9-7.2 11.6-7.6 11.3-8.1 10.8-8.4 10.5-7.5 8.8-7.9 8.4-8.2 8.2-8.6 8-8.8 7.7-9.1 7.4-9.6 7.2-9.7 6.9-11.7 7.6-12 7.3-12.3 7-12.7 6.4-13.2 6.3-13.3 5.9-13.7 5.3-14.1 5.2-14.5 4.7-14.6 4.3-15.2 3.9-15.1 3.6-15.6 3.1-15.7 2.7-16 2.4-16.1 1.9-16.4 1.5-16.5 1.1-16.8 0.7-16.7 0.3-17-0.2-16.8-0.6-17-1-16.9-1.4-16.8-1.8-16.8-2.3-16.7-2.7-16.6-3-16.4-3.5-16.1-3.9-15.9-4.2-15.6-4.6-2.2-0.6-2.1-0.2h-2.1l-2 0.3-1.9 0.6-1.9 0.7-1.7 1.1-1.8 1.4-7.7 6.5-7.9 6.3-8 6-8 5.7-8.1 5.4-8.1 5.2-8.2 4.8-8.3 4.7-8.4 4.3-8.4 4-8.5 3.9-8.6 3.5-8.6 3.3-8.8 2.9-8.7 2.6-8.9 2.6-9.6 2.3-9.8 1.9-9.8 1.7-10 1.3-10 1.1-10 0.6-10.2 0.4-10.3 0.1-10.4-0.4-10.4-0.5-10.5-1-10.6-1.2-10.7-1.5-10.7-2-10.8-2.2-11-2.5-7-1.9-6.9-1.9-6.8-2.3-6.6-2.4-6.5-2.7-6.5-2.8-6.3-3.1-6.3-3.3-6.7-3.8-6.7-4.2-6.6-4.3-6.4-4.6-6.3-4.8-6.1-5.2-6-5.4-5.8-5.7-5.8-5.8-5.6-6.1-5.5-6.4-5.4-6.6-5.2-7-5.2-7.2-5-7.5-4.8-7.7-1.8-2.1-2.1-1.6-2.5-1-2.9-0.3-79.1 2.3-3.6 0.4-3.3 1.4-1.5 0.9-1.4 1.1-2.5 3-5.7 8.1-6.1 7.8-6.2 7.4-6.5 7.2-6.6 6.8-6.9 6.6-7.2 6.2-7.4 5.9-6.1 4.6-6.5 4.4-6.4 4.3-6.7 3.9-6.8 3.9-7 3.6-7.2 3.3-7.3 3.1-7.5 3.1-7.6 2.7-7.8 2.6-7.9 2.4-8.1 2.1-8.3 1.9-8.4 1.8-8.5 1.5-11.6 1.8-11.4 1.4-11.3 1.1-11.2 0.6-11 0.5h-10.9l-10.8-0.4-10.6-0.6-10.5-1.1-10.3-1.3-10.3-1.8-10.1-2.1-9.9-2.4-9.9-2.7-9.7-3.1-9.6-3.5-8.2-3.3-8.1-3.5-8-3.8-7.9-4-7.7-4.3-7.8-4.6-7.6-4.9-7.5-5.1-7.3-5.3-7.4-5.7-7.2-5.9-7.1-6.2-7-6.4-6.9-6.7-6.8-6.9-6.7-7.2-1.3-1.3-1.5-1.1-1.7-0.8-1.7-0.7-1.9-0.4-1.7-0.1-1.9 0.1-1.9 0.4-15 4.3-15.3 3.9-15.3 3.6-15.7 3.2-15.5 2.9-15.8 2.6-15.6 2.1-15.8 1.9-15.7 1.4-15.7 1.1-15.6 0.7-15.6 0.4-15.5-0.1-15.2-0.4-15.2-0.7-15-1.2-14.7-1.6-14.4-1.7-14.4-2.3-14-2.5-13.8-3-13.6-3.3-13.3-3.6-13-4.1-12.7-4.2-12.5-4.7-12.2-5-12-5.3-11.5-5.7-11.3-6-10.9-6.4-10.8-6.7-14.7-10.1-14.3-10.8-13.6-11.3-13-12-10.6-10.6-10.3-11.1-9.7-11.6-9.3-11.9-9-12.5-8.4-12.9-8.1-13.3-7.7-13.8-35.3-91.6-1.2-2.3-1.5-1.7-2.2-1.4-2.5-0.7-15-2.9-14.8-3.1-14.9-3.5-14.7-3.9-14.5-4-14.6-4.4-14.4-4.7-14.4-4.9-14.2-5.3-14.2-5.6-14.2-5.9-14-6.1-13.9-6.5-13.9-6.8-13.8-7.1-13.7-7.3-13.6-7.7-13.6-8-13.5-8.3-13.3-8.5-16.4-11.1-16.2-11.8-15.9-12.4-15.7-13.1-15.4-13.7-15-14.1-14.6-14.7-14.1-15.1-13.6-15.5-12.9-15.6-12.4-16.1-11.7-16.3-11.2-16.5-10.4-16.8-9.7-16.7-9-16.9-8.1-16.9-7.4-16.7-6.7-16.8-5.9-16.7-5.2-16.8-4.3-16.7-3.7-16.7-2.9-16.6-2.1-16.4-1.3-16.3-0.6-16.3 0.3-16.1 1.1-15.9 1.7-15.8 2.5-15.6 3.4-15.5 4-14.9 4.7-14.5 5.3-14.5 6.2-14.2 6.1-12.6 6.7-12.2 7.1-11.4 7.5-11 8.1-10.5 8.6-10 9-9.3 9.5-8.8 10.4-8.7 10.9-8 11.5-7.4 12.1-6.9 12.5-6.3 13.1-5.7 13.6-5.1 14.1-4.5 10.6-3 10.6-2.6 10.5-2.4 10.4-2 10.4-1.7 10.3-1.3 10.3-1.1 10.2-0.7 10.1-0.4 10.1-0.1 9.9 0.3 9.9 0.6 9.8 0.8 9.8 1.2 9.7 1.6 9.6 1.8 9.8 2.2 9.7 2.6 9.7 2.9 9.5 3.3 9.5 3.6 9.4 3.9 9.4 4.2 9.4 4.6 9.1 4.9 9.1 5.4 9.1 5.6 9 5.9 9 6.2 8.8 6.7 8.8 6.9 8.8 7.3 11.1 9.9 12.5 11.9 14.2 13.9 19.9 20.3 32.3 32.5 12.7 12.2 11.7 11 11.5 10.3 10.9 9.2 10.6 8.5 10.3 7.7 10.3 7.1 10.2 6.5 9.9 5.5 9.7 5 9.6 4.1 9.4 3.4 9.4 2.8 9 1.9 3.1 0.4 3.1-0.3 2.9-0.7 2.9-1.2 2.5-1.7 2.3-1.9 1.9-2.4 1.5-2.8 11.5-25.2 11.9-25 12.4-24.9 12.8-24.7 13.2-24.6 13.8-24.3 14.2-24.2 14.6-23.9 0.2-0.5 0.7-1.5 0.3-1.8v-1.7l-0.3-1.6-0.8-1.6-0.9-1.4-1.3-1.2-1.5-0.9-20.3-9.8-20-10.2-19.5-10.5-19.1-10.9-18.7-11.1-18.3-11.6-17.9-11.9-17.5-12.1-17.1-12.6-16.7-12.8-16.3-13.3-15.9-13.5-15.6-13.8-14.9-14.3-14.8-14.5-14.3-14.9-6.5-7.2-6.6-7.6-13.6-16.6-14.3-18.9-19-26.2-17-23.7-12.8-17.1-1.7-1.7-1.9-1.6-2.1-1.1-2.3-0.7-2.3-0.3h-2.4l-2.5 0.4-2.3 0.8-22.4 10.4-23 11.3-23.5 12.4-24.1 13.4-5.3 2.5-2.5 1-2.5 0.6-2.4 0.4-2.4 0.2-2.3-0.1-2.3-0.4-2.8-0.7-2.6-1-2.5-1.5-2.5-1.8-3.2-3.1-2.6-3.6-1.9-3.9-1.1-4.3-0.3-4.5 0.5-4.4 1.2-4.1 2.1-4 4-5.4 2.7-3.4 3.1-3.2 3.3-3.1 3.5-2.7 3.7-2.7 3.9-2.4 4.2-2.5 4.4-2 20.2-9.3 19.6-9.5 19.2-9.5 18.5-9.6 2.3-1.5 0.7-1 0.6-1 0.4-1.2 0.1-1.3-0.4-2.9-30-102.8-1-2.6-1.5-2.5-1.8-2.2-2.2-1.9-2.5-1.5-2.7-1-2.9-0.7-2.8-0.1-13.9 1-14.9 1.6-15.9 2-16.8 2.9-17.8 3.3-18.8 4-19.7 4.6-20.7 5.2-3.1 0.5-3-0.1-3.1-0.7-2.8-1.1-2.7-1.6-2.3-2.1-1.8-2.4-1.5-2.7-1.1-3-0.6-2.9-0.4-3-0.2-2.8 0.2-3.6 0.3-3.4 0.6-3.3 0.8-3.1 1.1-2.7 1.2-2.8 1.5-2.4 1.8-2.2 2-2 2-1.9 2.4-1.6 2.7-1.5 2.8-1.3 3.2-1.1 3.3-0.9 3.5-0.6 130.2-20.9 1.3-0.4 1.2-0.5 1-0.9 0.9-1 0.7-1.1 0.4-1.3 0.3-1.3v-1.3l-3.1-28.9-2.5-28.8-1.8-28.6-1.1-28.4-0.4-28.2 0.3-28 0.9-27.9 1.5-27.6 2.3-27.5 3-27.2 3.5-27.2 4.3-26.9 4.9-26.7 5.6-26.5 6.2-26.4 6.9-26.2 5.8-19.8 6.1-19.8 6.6-19.7 6.9-19.6 7.3-19.5 7.7-19.3 8.1-19.3 8.5-19.1 0.9-2.3 0.7-2.3 0.3-2.2 0.1-2.3-0.1-2.2-0.4-2.2-0.7-2.2-0.9-2.2-8.3-18.5-7.7-18.5-7.1-18.7-6.5-18.8-6.1-19-5.3-19-4.9-19.2-4.3-19.2-2.6-13.7-2.5-13.7-2-13.8-1.9-13.8-2.3-20.7-2-20.8-1.4-20.7-1.1-20.7-0.5-20.8-0.2-20.7 0.1-20.7 0.6-20.5 1.1-20.6 1.4-20.6 2-20.5 2.3-20.4 2.7-20.4 3.2-20.3 3.5-20.1 4.1-20.2 5.3-24.1 5.9-24.1 6.6-23.9 7.2-23.9 4.5-13.9 4.6-13 4.6-12.4 4.7-11.6 4.9-11 5-10.3 5-9.8 5.2-8.9 5.1-8.4 5.4-7.6 5.3-6.9 5.5-6.2 5.6-5.5 5.6-4.8 5.8-4.1 5.8-3.4 9-4.3 9.7-3.9 10.4-3.4 11.1-3.1 11.8-2.6 12.3-2.2 13-1.6 13.7-1.4 14.3-0.8 14.9-0.5 15.5 0.1 15.9 0.5 16.4 0.9 17 1.4 17 1.8 17.2 2.2 16.7 2.6 16.8 2.7 16.6 2.9 16.5 3.2 16.5 3.4 16.4 3.6 16.2 4 16.2 4 16.1 4.4 16 4.5 15.9 4.8 15.7 5 15.8 5.3 15.6 5.5 15.5 5.8 15.4 5.9 25.2 10.3 24.7 10.8 24.7 11.4 24.3 12.2 24.2 12.7 23.8 13.3 23.6 13.9 23.4 14.6 2.6 1.4 2.8 1.2 2.8 0.8 3 0.4 2.9 0.1 3-0.2 2.8-0.6 2.9-0.9 16.3-6.5 16.3-6.1 16.5-5.8 16.6-5.6 16.5-5.2 16.7-4.9 16.8-4.6 16.9-4.3 18.2-4.1 18.4-4 24.2-4.6 24.4-4.2 24.5-3.9 24.5-3.3 24.5-3 24.6-2.5 24.7-2.2 24.7-1.7 24.6-1.3 24.7-0.8 24.6-0.5h24.6l24.5 0.5 24.4 0.8 24.4 1.2 24.2 1.8 24.1 2.1 24.1 2.5 23.7 2.9 23.8 3.4 23.5 3.9 23.4 4.2 23.1 4.6 23.1 5.1 22.8 5.4 22.7 5.8 22.3 6.3 22.2 6.7 21.9 7.1 21.7 7.4 21.5 7.8 21.2 8.3 2.2 0.8 2.2 0.4 2.2 0.1h2.3l2.3-0.3 2.2-0.6 2-0.8 2-1.1 16.7-10.1 16.7-9.8 16.9-9.6 16.9-9.2 17-8.8 17.2-8.6 17.2-8.2 17.3-8 17.4-7.6 17.5-7.4 17.5-7 17.7-6.7 17.8-6.3 17.8-6 18-5.8 18-5.5 28.2-7.8 28.5-7.1 28.5-6.3 28.9-5.6 29.2-4.8 29.3-4.1 29.5-3.4 29.7-2.5 19-1.1 17.8-0.5 17 0.1 16.1 0.6 15.3 1.3 14.5 1.9 13.5 2.5 12.8 3.2 12 3.6 11.1 4.4 5.2 2.3 5 2.5 4.7 2.7 4.6 2.9 4.3 2.9 4.2 3.1 3.9 3.3 3.7 3.5 3.5 3.5 3.2 3.7 3.1 3.8 2.7 4.1 2.1 3.2 6.8 11.7 6.4 12.1 6.2 12.6 5.8 13.1 5.4 13.3 5.2 13.8 4.8 14.2 4.5 14.7 5.5 19.2 5 19.2 4.6 19.2 4.3 19.2 3.8 19.1 3.5 19.2 3.1 19 2.6 19.2 2.3 19 1.9 19.1 1.5 19.1 1.1 19.1 0.6 18.9 0.4 19.1v19l-0.6 19-0.8 19.9-1.4 19.8-1.8 19.8-2.2 19.7-2.6 19.9-3.1 19.7-3.5 19.8-4 19.7-4.3 19.7-4.7 19.7-5.3 19.7-5.6 19.7-6.1 19.6-6.5 19.7-7 19.6-7.3 19.6-0.9 3.1-0.3 2.9 0.3 3 0.8 2.8 9.5 27 8.9 25.9 8.2 25.2 7.6 24.5 7.2 24 6.5 23.5 6.1 23.1 5.5 22.9 5.1 22.7 4.6 22.5 4.1 22.4 3.8 22.1 3.2 22.2 2.8 22.1 2.4 22 2 22.1 1.4 22 1.1 22.2 0.1 8.8-0.1 9.8-0.6 10.4-0.7 11.3-1.2 12.1-1.6 12.8-3.9 28.2-1.7 11.4-1.5 11.7-1.2 11.7-1 11.8-1.5 23.7-0.6 24.2 0.3 2.2 0.8 1.8 1.7 1.2 2.2 0.8 131.1 22.2 3.3 0.6 3.2 0.9 2.9 1 2.7 1.2 2.5 1.4 2.3 1.6 2.1 1.7 1.7 2 1.7 2.2 1.5 2.3 1.2 2.5 1 2.6 0.7 2.9 0.6 3 0.4 3.3 0.1 3.4 0.2 1.9-0.2 1.8-0.1 1.2-0.6 3.8-1.6 3.5-2 3-2.8 2.7-3.3 2-3.5 1.3-3.7 0.6-3.8-0.2-25-4.2-25.3-4.7-25.7-5.4-25.9-5.9-2.3-0.5-5.2-0.9-5.1-0.6-5.3-0.4h-5.4l-5.3 0.4-5.5 0.5-5.6 0.9-5.6 1.2-2.8 1-2.3 1.5-1.9 2.1-1.3 2.7-4.7 12.7-4.4 12.8-4.1 12.9-3.9 13.1-3.7 13.1-3.4 13.3-3.2 13.3-2.8 13.5-0.2 1.6v1.6l0.2 1.4 0.6 1.3 0.6 1.2 1 1.1 1.2 1 1.5 0.8 43.3 21.4 42.9 21.8 3.4 1.8 3.1 2 2.8 2.1 2.6 2.3 2.4 2.4 2.2 2.4 1.9 2.8 1.6 2.7 2.2 4.9 1.5 5.4 0.9 5.7 0.1 6-0.2 2-0.5 1.7-1.2 2.3-1.8 2.1-2.4 1.7-3 1.7-3.3 1.3-4.1 1.1-4.7 1-5.2 0.6-3.2 0.1-3.3-0.4-3.3-0.9-3.1-1.3-87.9-46.3-3.5-1.4-3.6-0.8-3.7-0.1-3.7 0.7-3.5 1.2-3.3 1.9-2.9 2.5-2.3 2.9-14.2 21.5-14.6 20.8-14.9 20.1-15.1 19.5-15.3 18.9-15.7 18.3-15.8 17.7-16.2 16.9-10.5 10.4-10.9 10.2-11.5 10-12 9.9-12.5 9.8-13.1 9.6-13.7 9.6-14.4 9.6-14.6 9.3-15.4 9.3-16.2 9.4-17.3 9.7-18 9.8-19.8 10.5-52 26.5-1.6 1-1.4 1.3-1.1 1.5-0.7 1.8-0.4 1.8v1.9l0.3 1.9 0.7 1.7 11.4 22.4 11.3 22.7 11.1 22.9 10.9 23.1 10.7 23.3 10.6 23.6 10.4 23.6 10.2 24 6.9 16.8 6.2 16.6 5.6 16.2 5.1 15.8 4.4 15.6 3.9 15.2 3.3 14.9 2.6 14.6 5.6 35.2 5 35.7 4.7 36.4 4.3 36.7 1.2 7.6 2 7.1 2.7 6.7 1.6 3.1 1.8 3 3.1 4.2 3.3 3.8 3.8 3.7 4.1 3.4 12 8.9 21.3 16.1 15.2 12.1 6.8 6 6.3 5.6 5.8 5.6 5.3 5.6 5.2 5.8 4.8 5.7 4.3 5.8 3.8 5.7 3.6 5.9 3.2 5.8 2.8 6 2.4 6.1 4.5 12.7 4.7 14.9 4.2 15.1 3.5 15.3 3.1 15.5 2.4 15.8 1.8 15.9 1.3 16.1 0.7 16.3v9l-0.6 9.3-1.2 9.5-1.6 10.1-2.1 10.1-2.7 11.3-3.5 12.4-4.9 17z"/>
		<path id="Layer" class="s1" d="m105.2 643.1l8.8-4.4 8.2-4.5 7.9-4.4 7.3-4.6 7.1-4.7 6.7-4.8 6.5-4.9 6-4.9 5.7-5 5.4-5.3 5.2-5.4 4.8-5.5 4.5-5.6 4.3-5.8 3.8-5.9 3.7-6.2 5.1-9.8 4.4-10.2 3.8-10.7 3-11.1 8.7-37.9 8.2-39.8 0.9-3.1 1.5-2.6 2-2.3 2.5-2 3.6-2.1 3.7-1.5 3.7-1.1 3.9-0.7 2.6-0.2h2.6l5.5 0.8 5.5 1.6 5.6 2.6 2.5 1.6 2.3 2.1 1.7 2.5 1.5 2.7 5.1 12.4 5.1 11.7 5.2 11.1 5.4 10.6 5.3 10 5.5 9.5 5.6 9 5.8 8.5 5.9 8.1 6.1 7.8 6.3 7.3 6.4 6.8 6.7 6.6 6.8 6 7 5.7 7.2 5.2 7 4.6 7.4 4.6 8 4.5 8.6 4.5 9 4.4 10.1 4.7 26.8 11.5 18.4 7.9 13.1 5.9 2.3 1.3 2 1.7 1.6 2.1 1.3 2.3 0.8 2.5 0.4 2.6-0.2 2.7-0.5 2.5-1.7 4.3-1.9 4-2.2 3.9-2.5 3.5-4 4.5-4.5 4-5 3.6-5.6 3.2-23.3 11.9-16.8 9.2-14.5 8.8-6.5 4.3-6.1 4.2-6 4.5-5.6 4.6-5.4 4.7-5 4.7-4.8 5-4.5 5-4.3 5.1-3.9 5.4-6.1 9.1-5.4 9.5-4.7 10-4.3 10.6-14.4 40.2-14.1 41.3-1.8 4.4-2.2 4-2.8 3.3-3 2.6-2.4 1.4-2.7 1.2-2.7 0.9-3.1 0.5-3.1 0.3h-3.4l-3.7-0.4-3.8-0.5-2.9-0.9-2.7-1.5-2.3-2.2-1.7-2.5-4.2-8.2-4.2-9.1-10.3-23-6.8-15.7-5.2-11-4.9-9.8-4.9-8.7-5.3-8.2-5.5-7.7-5.6-7-6.3-6.7-5.8-5.5-6.2-5.2-6.7-4.9-7-4.8-5.2-3-5.3-2.9-5.9-2.8-6.3-2.7-13.9-5.4-19.6-6.7-13.2-4.4-9.8-3.5-8.7-3.4-7.7-3.3-4.9-2.6-4.3-3-3.8-3.5-3.1-4-2.4-4.4-1.6-4.5-0.8-4.4v-4.6l0.4-2.7 0.7-2.5 1-2.4 1.2-2.4 1.4-2.4 1.8-2.3 1.9-2.1 2.2-2.1 6.9-5.6 7.2-5 7.8-4.8z"/>
		<path id="Layer" class="s1" d="m3271.2 1016.4l17-1.9 15.7-2.5 14.2-3 13.3-3.7 6.3-2 6.1-2.2 5.8-2.4 5.7-2.7 5.5-2.7 5.2-3 5.2-3.1 5-3.4 8.8-6.6 8.3-7.3 7.9-8.2 7.6-8.9 7.4-9.9 7-10.7 6.9-11.7 6.7-12.7 1.9-3 2.7-2.5 3-1.7 3.4-1.1 4.6-0.8 4.3-0.3h4l3.8 0.3 3.5 0.7 3.1 0.9 2.9 1.5 2.6 1.7 2.4 2.2 2.2 2.5 1.9 2.9 1.5 3.2 1.2 3.6 1.1 4 0.7 4.3 0.4 4.7 0.7 8.7 0.9 8.6 1.2 8.5 1.5 8.3 1.7 8.2 1.9 7.9 2.3 7.8 2.4 7.7 2.7 7.3 3 7.4 3.2 7 3.5 7 3.7 6.6 3.9 6.6 4.3 6.4 4.5 6.2 6.3 8 6.8 7.7 7.1 7.2 7.7 6.9 8 6.7 8.5 6.3 9 5.9 9.3 5.6 2.5 1.8 2 2.1 1.4 2.3 1 2.7 0.8 3.6 0.2 3.4-0.3 3.3-0.7 3-1.5 3.9-2.4 3.5-3 3.1-3.7 2.9-4.2 2.4-4.8 2-5.1 1.4-5.3 0.8-4 0.3-21.1 2.1-14.7 1.8-13.2 2.3-11.6 2.7-11 3.2-5.3 1.9-4.9 2.1-4.7 2.2-4.7 2.4-4.5 2.6-4.4 2.8-7.7 5.6-7.3 6.4-6.9 7.1-6.5 7.8-3.7 4.8-7.8 10.7-7.4 11-7.2 11.2-6.9 11.4-2 3-2.4 2.7-2.7 2.3-3.1 2-3.3 1.4-3.4 1.1-3.5 0.6h-3.6l-3.4-0.4-3.3-0.4-3-0.7-2.9-1-2.6-1-2.5-1.4-2.4-1.4-2.1-1.7-2.5-2.6-2.1-2.7-2-3.2-1.5-3.4-1.3-3.8-1-4-0.8-4.5-0.4-4.7-0.7-12.1-1.5-26-0.9-10.5-1.1-9.6-1.3-9.1-1.6-8.5-1.8-7.9-2.1-7.3-2.3-6.9-2.6-6.4-2.7-5.8-3.2-5.1-3.3-4.7-3.6-4.1-4-3.6-4.1-2.9-13.5-8.9-13-9.4-12.6-9.8-12-10.1-3.1-3.3-2.4-3.8-1.1-2.6-0.8-2.7-0.5-2.9-0.1-2.8 0.2-2.9 0.6-2.8 0.9-2.7 1.2-2.6 1.6-2.4 1.8-2.2 2.1-1.9 2.3-1.8 2.5-1.4 2.6-1.1 2.8-0.8z"/>
		<path id="Layer" class="s1" d="m7 1686.5l12.9-13.3 11.1-12.2 9.6-11.7 8.3-11.5 3.9-5.6 3.5-5.7 3.1-5.7 3-5.7 2.7-5.6 2.5-5.8 2.2-5.7 2-5.8 2.8-9.5 2-9.8 1.7-10 1-10.4 0.4-10.8-0.1-11.1-0.7-11.6-1.2-12.1v-3.6l0.7-3.6 1.3-3.4 2.1-3.1 3.3-3.5 3.6-2.8 3.9-2.1 4.2-1.4 4.3-0.7h4.2l4.4 0.7 4.4 1.4 4 2.1 4 2.7 3.6 3.3 3.3 3.7 7.4 9.9 13 17.1 4.9 5.9 4.6 5.1 4.6 4.8 4.6 4.4 4.6 4.1 4.7 3.6 5.2 3.5 5.5 3.3 5.8 3 6.2 3 6.6 2.6 7.1 2.5 7.7 2.4 8.2 2.3 19.2 4.9 19.7 4.7 20.2 4.6 20.9 4.3 3.3 1.1 1.3 0.9 1.2 0.9 2 2.4 1.4 3.1 0.8 2.9 0.5 3 0.3 2.9-0.2 2.9-0.3 2.6-0.4 2.5-0.9 2.5-1 2.6-2.7 5.1-3.6 5-4.5 5.1-5.6 5.1-6.7 5.4-9.3 7.1-10.8 8.2-0.8 0.7-3.3 3-3 3.4-2.9 3.8-2.5 3.9-2.3 4.3-2.1 4.7-1.9 5-1.5 5.4-1.4 5.5-1.1 5.9-1 6.3-0.9 6.8-1.1 15.1-0.6 20.9-0.6 17.7-0.7 12.2-1.3 10.5-1.8 8.8-1.1 4-1.3 3.6-1.5 3.4-1.7 3.1-1.7 2.7-2.1 2.6-2.2 2-2.4 2-3.1 1.9-2.3 1.1-2.3 0.8-2.4 0.6-2.5 0.4-2.4 0.2h-2.5l-2.5-0.2-2.5-0.5-2.4-0.7-2.3-0.9-2.1-1-2.2-1.4-2-1.5-1.9-1.6-1.6-1.9-1.5-2-11-15-11.3-14.3-11.5-13.9-11.9-13.4-3.7-3.8-3.7-3.5-4-3.3-4-3.1-7.8-5-8.2-4.3-9-3.7-9.6-3-10.1-2.6-11.4-2.2-12.7-1.7-17.6-1.9-22.9-2.6-2.8-0.5-2.7-0.9-2.6-1.2-2.4-1.4-2.3-1.8-2-2-1.7-2.3-1.6-2.4-1.1-2.5-0.8-2.7-0.7-2.9-0.1-2.7 0.1-2.9 0.4-2.8 0.8-2.7 1.1-2.7 2.1-3.4z"/>
	</g>
	<g id="Layer">
		<path id="Layer" fill-rule="evenodd" class="s2" d="m1415.2 499.8l-0.4 2.7-0.6 2.3-1.1 2-1.3 1.5-1.2 0.9-1.4 0.5-1.4 0.2-1.6-0.1-43.7-8.2-40.3-8.3-10-2.4-10-3.1-10-4-10.1-4.6-10-5.2-10.1-6.1-10.1-6.7-10.1-7.5-4.4-3.3-4.7-3.1-5.3-3.1-5.5-2.7-5.6-2.6-5.8-2.2-2.3-0.4-1.7 0.2-1.5 0.6-1.5 1-1.2 1.2-0.7 1.5-0.6 1.6v1.8l0.3 1.6 1.8 4.5 2.3 4.6 2.7 4.6 4.2 6.3 4.5 6.6 2.9 5.3 2.3 5 1.8 5.1 0.6 2.8 0.4 3.1 0.1 3.1-0.2 3.3-1.2 7.4-2.6 9.8-1.8 7.2-1.1 5.3-0.6 2.5-1.4 3.9-2 3.7-2.5 3.4-3 3.3-3.5 3-4.1 2.9-4.6 2.7-5 2.3-1.8 1-1.5 1.3-1.1 1.4-0.9 1.7-0.6 1.2-0.8 1.1-1.4 1.2-1.8 0.8-2.1 0.7-2.4 0.3h-2.7l-3.1-0.2-3.4-0.6-3.8-0.9"/>
		<path id="Layer" fill-rule="evenodd" class="s3" d="m1570.7 667l-6.2-15.9-5.9-16-5.6-16-5.2-16.2-6.7-23.9-6.1-24.2-5.1-24.4-4.4-24.8-0.6-2.5-1-2.5-1.3-2.2-1.7-2.1-3.6-3.6-3.9-3.3-4.9-3.5-5.1-3.2-5.5-2.7-5.7-2.3"/>
		<path id="Layer" fill-rule="evenodd" class="s4" d="m1967.1 412.4l-1.9 12.5-1.4 12.4-1.2 12.4-0.8 12.1-0.4 12.1-0.1 11.9 0.2 11.7 0.5 11.7 0.9 11.6 1.2 11.5 1.5 11.3 1.9 11.3 2.2 11.1 2.6 11 2.9 10.9 3.2 10.8 3 8.3 3.4 7.8 3.7 7 4.1 6.3 4.5 5.7 4.9 5.2 5.2 4.3 5.6 3.8 3.3 1.7 3.4 1.7 3.5 1.3 3.6 1.2 3.7 1 4 0.7 8 1 8.5 0.2 9-0.6 9.4-1.5 10-2.1"/>
		<path id="Layer" fill-rule="evenodd" class="s5" d="m2079.2 651.7l7.2-0.3 7-0.6 6.7-1 6.5-1.4 6.3-1.9 6-2.2 5.8-2.6 5.6-3.1 4.7-2.8 4.5-3.3 4.3-3.5 4-3.8 3.9-4.2 3.9-4.5 3.6-4.7 3.4-5 3.2-5.4 3-5.6 3-6 2.6-6.2 2.5-6.5 2.4-6.9 2.2-7.1 2-7.5 1.8-7.4 1.5-8.1 1.5-8.8 1.4-9.5 2.3-21.1 2-23.9 0.6-2.5 0.4-1 0.8-0.8 0.8-0.5 1-0.3 2.6-0.1 2.7 0.6 2.1 1.1 1.9 1.7 1.7 2.1 1.5 2.7"/>
		<path id="Layer" fill-rule="evenodd" class="s4" d="m2210.1 479.8l-0.2 9.8v9.9l0.2 9.7 0.6 9.9 1 14.1 1.8 14.1 2.1 14.1 2.7 14.1 3.2 14 3.7 14 4.2 14 4.7 13.9"/>
		<path id="Layer" fill-rule="evenodd" class="s6" d="m2234.1 631.4l8 16.8 8.3 16.5 8.8 16.4 9.1 16.2 9.5 16.1 9.8 15.9 10.3 15.7 10.6 15.6 10.8 14.8 11.2 14.4 11.7 14.3 12.3 13.7 12.8 13.5 13.4 13.2 13.9 12.8 14.3 12.4 19.2 15.7 19.5 15.3 19.9 14.8 20.2 14.3 20.7 14 21.1 13.4 21.3 13 21.8 12.7 22.2 12.1 22.5 11.7 22.8 11.3 23.4 10.8 23.6 10.4 24 10 24.4 9.4 24.7 9.1 18.7 6.3 18.5 5.8 18.5 5.5 18.5 4.9 18.5 4.4 18.4 4.1 18.4 3.5 18.3 3 18.4 2.6 18.4 2 18.3 1.7 18.3 1.2 18.3 0.6 18.3 0.3 18.1-0.3 18.2-0.6 6.8-0.5"/>
		<path id="Layer" fill-rule="evenodd" class="s7" d="m2856 1696.8l-8.1-2.4-8.3-2.1-8.4-1.8-8.7-1.4-8.7-1-9-0.6-9.2-0.4h-9.2l-9.5 0.4-9.6 0.7-9.9 1.1-10 1.4-10.1 1.8-10.3 2.1-10.5 2.5-10.7 2.8"/>
		<path id="Layer" fill-rule="evenodd" class="s8" d="m2705.8 1699.9l8.6-12.7 7.6-11.9 6.6-10.9 5.8-10 4.7-9.2 3.8-8.2 2.9-7.3 1.9-6.5 6-23.5 4.5-17.9 3.1-13.1 2.7-11.9 1.9-10.6 1.6-10.2 1-9.6 0.4-9v-8.4l-0.4-8.3-0.7-8.1-1-8.3-1.2-8.1-1.8-9.8-2.2-9.6-2.7-9.5-2.9-9.5-3.4-9.3-3.7-9-4.2-9.1-4.5-8.9-4.9-8.8-5.3-8.5-5.4-8.3-6-8.1-6.1-7.8-6.6-7.7-6.7-7.3-7-7-7.4-6.8-7.6-6.5-7.9-6.2-8.1-5.8-8.2-5.5-8.6-5.2-8.6-4.8-8.9-4.5-9.1-4.1-9.2-3.7-9.2-3.3-9.4-2.9-9.5-2.7-9.5-2.2-9.7-1.7-9.7-1.3-7.2-0.8-7.3-0.5-14.4-0.5-7.3 0.1-7.3 0.4-14.4 1.3-11.3 1.4-10.9 1.7-10.5 1.8-10 2.1-9.9 2.2-9.4 2.5-9.1 2.5-8.6 2.9-9.8 3.7-6.6 2.8-6.3 3.2-6.2 3.4-6.2 3.7-6.1 4.1-5.8 4.2-5.8 4.5-5.6 4.8-5.5 5.2-5.3 5.4-5.2 5.6-5 5.8-4.8 6.3-4.7 6.3-4.6 6.7-4.4 6.9-4.3 7.2-4 7.4-4 7.6-3.6 7.9-3.6 8.1-3.3 8.2-3.1 8.6-2.9 8.5-2.7 8.9-2.5 8.8-2.3 9.1-2 9.1-1.9 9.3-1.5 9.3-1.5 9.4-1 9.5-1.5 17.3-0.3 8.4-0.1 8.2 0.1 8 0.3 7.9 0.6 7.6 0.9 7.6 0.9 7.3 1.3 7.3 1.6 6.9 1.6 6.9 2 6.5 2.2 6.6 2.5 6.2 2.6 6.2 3.5 7.4 3.9 7.2 3.8 7.1 4 6.8 4.3 6.8 4.4 6.5 4.6 6.3 4.7 6.2 4.9 6 5.1 5.8 5.2 5.5 5.4 5.4 5.6 5.2 5.7 5 5.9 4.7 5.9 4.6 8.4 5.9 8.7 5.6 8.8 5.1 9.2 4.8 9.4 4.4 9.7 3.9 9.8 3.5 10.1 3.2 10.3 2.8 10.5 2.3 10.7 2 11 1.6 11 1.1 11.3 0.8 11.5 0.4 11.6-0.1 8-0.4 8.1-0.8 8.6-1.3 8.8-1.8 9.1-2.1 10.1-2.8 26-8.2 24.6-7.7"/>
		<path id="Layer" fill-rule="evenodd" class="s7" d="m2628.8 1745l-7 11.4-3.1 5.7-2.9 5.6-2.6 5.7-2.3 5.6-2.1 5.6-1.7 5.6-1.5 5.5-1.4 5.5-1.1 5.5-0.7 5.6-0.5 5.3-0.3 5.5 0.1 5.5 0.2 5.3 0.9 7.9 1.5 7.8 2.5 8.4 3.2 8.4 3.9 7.9 4.7 7.8 5.3 7.6 6.2 7.2 6.9 7.1 7.5 6.8 8.3 6.5 8.9 6.1 9.6 5.7 10 5.4 10.6 4.9 10.9 4.2 11.1 3.9 11.4 3.3 14.7 3.4 14.6 2.6 14.3 1.8 14.2 1.1 14 0.4 14.1-0.6 13.8-1.3 13.6-2.1 11.6-2.4 11.6-2.9 11.4-3.6 11.4-4.2 11.2-4.8 11.2-5.3 10.9-6 10.9-6.5 7.3-4.8 6.7-5.2 6.2-5.6 5.9-6.1 5.8-7.1 5.4-7.5 4.8-8 4.3-8.5 3.8-9 3.2-9.5 2.6-10 2.2-10.4"/>
		<path id="Layer" fill-rule="evenodd" class="s9" d="m2939.2 1997.7l-7.6 2.2-8.6 3-9.1 3.7-10 4.5-10.9 5.2-11.6 6.1-12.2 6.6-13.2 7.6-5.9 3.3-6.5 3.4-15.1 7.2-17.9 7.6-20.6 7.9-23.3 8.5-26 8.8-28.7 9.2-31.5 9.8-56.9 17-46.6 13.1-21.7 5.8-20.8 5.3-20 4.8-19.6 4.5-19.3 4.1-18.8 3.7-18.3 3.4-18 3-17.5 2.6-17.3 2.3-16.7 1.8-16.6 1.5-38 3.4-38.4 4-38.6 4.8-39.1 5.3-12.4 1.6-13.6 1-15 0.7-20.5 0.4-18.2 0.5-13.3 0.5-12 0.8-10.9 1.1-23.7 2.5-24.1 2-24.2 1.3-24.5 0.9-24.6 0.2-24.9-0.2-25.2-0.9-25.3-1.4-23.5-1.5-25.5-1.2-66.8-2.6-47.3-1.6-34.8-1.6-31.8-1.8-29.2-2.1-32.1-3-32.1-3.5-31.8-4.1-31.9-4.7-23.2-3.9-23.2-4-23.1-4.3-23.1-4.5-22.9-4.7-23-4.8-22.7-5.1-22.8-5.4-22.7-5.6-22.6-5.7-22.6-6-22.4-6.1-22.5-6.5-22.3-6.7-22.3-6.8-22.2-7-32.4-10.7-32.3-11.3-32-11.6-32-12.1-31.8-12.5-31.6-13-31.5-13.6-31.3-13.9"/>
		<path id="Layer" fill-rule="evenodd" class="s7" d="m827.5 1817.9l3.2 12 2.8 10.4 2.2 7.4 2.3 6.6 2.3 5.9 2.6 5.6 2.8 5.2 3.2 4.8 3.4 4.3 5 5.9 5.3 5.4 5.7 5.3 5.8 5 6.1 4.9 6.4 4.5 6.6 4.4 6.7 4.1 7.2 3.8 7.3 3.6 7.5 3.3 7.7 3.1 8 2.7 8.1 2.5 8.4 2.2 8.5 2 8.7 1.6 8.9 1.4 9.1 1.1 9 0.8 9.3 0.5 9.2 0.2 9.4-0.2 9.3-0.4 9.4-0.6 9.2-1.1 9.4-1.4 9.2-1.5 9.1-2 9-2.2 8.7-2.4 8.7-2.7 10.2-3.8 10.1-4.5 10.2-5.4 9.8-5.9 9.4-6.3 8.7-6.9 8.1-7.3 7.4-7.5 6.4-7.7 5.7-7.9 5-8 4-8.1 3.2-8.2 2.3-8.3 1.4-8.3 0.7-8.4-0.3-7-1.1-11-1.6-10.4-2.3-10-3-9.4-3.6-8.8-4.1-8.5-4.8-7.9-5.4-7.4-4-4.6-4-4.3-1.2-1.5-0.4-1.5 0.3-1.7 1.2-1.6 1.7-1.3 2.3-1"/>
		<path id="Layer" fill-rule="evenodd" class="s8" d="m1180.5 1723.5l20.8 10.2 17.3 7.8 15.5 6.5 14.3 5.1 13.8 4.3 13.4 3.3 13 2.4 6.6 0.8 6.4 0.6 6.9 0.5 6.9 0.1 6.9-0.1 7-0.4 7.1-0.5 7.4-0.9 7.3-1.1 7.5-1.3 10-2.1 9.9-2.5 9.7-2.8 9.7-3.2 9.4-3.5 9.1-3.8 9-4.3 8.9-4.6 8.7-4.8 8.4-5.3 8.1-5.5 8-5.8 7.7-6.1 7.4-6.4 7.1-6.7 6.9-7 6.8-7.6 6.5-7.8 6.2-8.1 5.8-8.3 5.5-8.5 5.1-8.8 4.8-9 4.4-9.3 4.2-9.4 3.6-9.6 3.4-9.8 2.8-9.9 2.7-10.2 2.1-10.3 1.8-10.4 1.4-10.5 1-11.5 0.6-11.5v-11.5l-0.7-11.5-1.1-11.6-1.6-11.5-2.2-11.4-2.7-11.4-3.1-11.2-3.8-11.1-4.2-10.9-4.7-10.8-5.3-10.6-5.6-10.3-6.1-10.1-6.6-9.7-6.9-9.3-7.3-9.1-7.8-8.8-8.1-8.3-8.5-8-8.8-7.4-9.1-7.1-9.4-6.6-9.5-6.1-9.9-5.7-10-5.2-10.4-4.6-10.4-4.1-10.6-3.6-10.8-3.1-10.9-2.5-8-1.6-8.1-1.2-8.2-0.9-8.1-0.7-8.2-0.3-8.3-0.1-8.2 0.2-8.3 0.5-12.6 1.1-12.2 1.4-12 1.8-11.6 2-11.3 2.3-10.8 2.5-10.6 2.8-10.2 3.2-8.6 3.1-8.5 3.5-8.2 3.9-7.8 4.4-7.7 4.8-7.5 5.2-7.3 5.7-7 6-6.8 6.4-6.6 6.8-6.3 7.4-6 7.5-6 8.1-5.4 8.3-5.3 8.9-5 9-4.7 9.5-4.3 9.6-4.3 10.3-3.7 10.4-3.5 10.9-3.2 10.8-2.7 11.3-2.4 11.3-2.1 11.6-1.6 11.5-1.4 11.7-0.9 11.7-0.5 11.7-0.2 11.7 0.3 11.5 0.7 11.5 1 11.2 1.4 11 1.5 8.7 2 8.5 2.5 8.6 3 8.5 3.4 8.4 3.9 8.6 4.4 8.4 4.8 8.3 5.4 8.5 5.8 8.3 6.3 8.3 6.8 8.2 7.2 8.3 7.8 8.2 8.2 8.1 8.8 8.3"/>
		<path id="Layer" fill-rule="evenodd" class="s7" d="m1152.2 1708.2l-9.2-4.1-9.1-3.7-9.2-3.5-9.2-3.3-9.1-3-9.2-2.7-9.2-2.4-9.1-2.2-9.2-2-9.2-1.7-9-1.4-9.2-1.1-9.2-1-9.1-0.6-9.2-0.4-9.2-0.1-12.3 0.2-12.2 0.7-12.4 1.2-12.3 1.6"/>
		<path id="Layer" fill-rule="evenodd" class="s6" d="m813.3 998.4l5.7 1.5 5.9 1.4 6.2 1.1 6.2 0.9 6.6 0.7 6.7 0.3 6.9 0.2 7.2-0.1 7.2-0.3 7.6-0.6 15.6-1.7 16.6-2.8 17.3-3.7 29.4-7.2 29-7.7 28.6-8.1 28.1-8.6 27.6-9 27.3-9.5 26.8-10 26.3-10.4 25.9-10.8 25.4-11.4 25.1-11.7 24.5-12.3 24.1-12.7 23.8-13.1 23.2-13.6 22.7-14 28.3-18.1 28.1-18.6 28.1-19 28-19.6 28-20.1 27.8-20.4 27.8-21 27.8-21.4"/>
		<path id="Layer" fill-rule="evenodd" class="s4" d="m1570.7 667l12.6-3.7 14.4-4.9 6.5-2.6 6.2-3 5.7-3.7 5.1-4.1 4.1-4.1 3.8-4.4 3.4-4.8 3-5.1 2.8-5.6 2.3-5.9 2.1-6.4 1.6-6.6 3.8-18.5 3.1-16.9 2.4-16 1.9-15.1 1.2-14.7 0.7-14.3 0.3-13.9-0.5-13.8-0.5-13.8-0.1-13.8 0.2-16.6"/>
		<path id="Layer" fill-rule="evenodd" class="s10" d="m2215.7 448.7l-1.8 3-1.5 3.1-1.2 3.2-1 3.2-0.8 4.4-0.3 4.6 0.2 4.8 0.8 4.8"/>
		<path id="Layer" fill-rule="evenodd" class="s7" d="m2943 1726.2l14.5 40.1"/>
		<path id="Layer" fill-rule="evenodd" class="s3" d="m2318.9 482.6l-6 16.2-6.2 15.9-6.5 15.4-6.7 15.1-7 14.7-7.2 14.2-7.4 13.8-7.7 13.5-3.4 5.4-3.4 4.9-3.6 4.5-3.7 3.9-3.9 3.5-3.9 3.1-4.1 2.6-4.1 2.1"/>
		<path id="Layer" fill-rule="evenodd" class="s4" d="m1873.7 410.6l1.1 16.6 0.5 17.6 0.1 18.9-0.3 20-0.9 21-1.4 22.3-1.9 23.3-2.4 24.4-0.7 6.7-1.1 6.3-1.2 6.3-1.5 5.8-1.5 5.7-1.9 5.2-1.9 5-2.2 4.9-2.3 4.5-2.5 4.2-2.8 3.9-2.9 3.7-3.1 3.4-3.3 3-3.5 2.8-3.6 2.5-3.8 2.2-4.1 2-4 1.6-4.5 1.3-4.5 1.1-4.7 0.8-4.8 0.4-5.1 0.2-4.7-0.1-4.6-0.2-4.4-0.6-4.3-0.7-4.3-1-4.2-1.3-4-1.4-3.8-1.7-6.3-3.4-6-3.9-5.6-4.6-5.4-5.3-5-5.9-4.8-6.4-4.4-7.3-4.2-7.7-6-12.8-5.4-13-5.2-13-4.6-13.2-4.6-14.9-4-15.1-3.5-15.4-2.9-15.4-2.4-15.8-1.7-15.8-1.1-16.1-0.7-16.2"/>
		<path id="Layer" fill-rule="evenodd" class="s10" d="m2161.1 434.3l-6-1.1-2.6-0.1-2.6 0.1-2.3 0.4-2.3 0.5-2 0.9-2 1.1-1.7 1.3-1.6 1.6-1.5 1.9-1.3 2.2-1.1 2.4-1 2.7-0.7 3-0.6 3.2-4.5 28-5.1 27-5.7 26.2-6.2 25.2-6.9 24.1-7.5 23.2-3.9 11.3-4.2 11-4.3 10.7-4.3 10.6"/>
		<path id="Layer" fill-rule="evenodd" class="s11" d="m1180.5 1723.5l-28.3-15.3"/>
		<path id="Layer" fill-rule="evenodd" class="s7" d="m853.4 1755.3l17.5-39.9"/>
		<path id="Layer" fill-rule="evenodd" class="s11" d="m2705.8 1699.9l-11.7 9.2-12.1 8.6-12.5 7.9-12.9 7-13.7 6.6-14.1 5.8"/>
		<path id="Layer" fill-rule="evenodd" class="s2" d="m2690.9 560.1l-108.6-55.3-2.7-1.2-2.8-0.5-2.2-0.2-2.3 0.2-2.7 0.2-2.4-0.1-2.2-0.4-2-0.9-2.8-1.8-2.4-2.5-2-2.1-2.1-1.6-2.1-1-2.2-0.6-6.4-1.4-6.3-0.8-6.3-0.7-6.2-0.3-6.1-0.1-6 0.3-6.1 0.5-6 0.9-7.4 1.6-7.5 2-7.2 2.5-7.2 3.1-7.1 3.5-7.1 4-6.9 4.4-6.8 5-2.2 1.3-2.4 0.9-2.6 0.2-2.6-0.3-2.7-0.8-2.7-1-2.4-1.3-2.3-1.4-2.7-2.4"/>
		<path id="Layer" fill-rule="evenodd" class="s3" d="m1392.4 2292l-7.6 3.1-2.4 1.1-2.2 1.3-3.1 2.3-1.5 1.3-1 1.4-0.4 1.2-0.1 1.3 0.2 1.1 0.7 2.2 0.3 2-0.2 1.6-0.6 1.4-0.9 1.1-1.5 0.8-1.8 0.6-2.3 0.3-11 0.7-10.4 0.3-9.9 0.1-9.6-0.1-8.9-0.3-8.5-0.6-8.1-0.9-7.4-1.1-19.9-3.6-21-4.2-21.7-4.9-22.7-5.5-23.7-6.3-24.5-6.8-25.5-7.5-26.4-8.2"/>
		<path id="Layer" fill-rule="evenodd" class="s6" d="m2813.6 2699.7l-9.3-14.1-9-12.6-1.2-1.6-4-6.2-3.6-6.5-3-6.8-2.8-7.1-3-8.4-3.9-8.4-4.4-8.3-5-8.3-5.7-8.5-6.2-8.4-7-8.5-7.7-8.6-8.2-8.5-9-8.5-9.6-8.8-10.2-8.8-11.1-8.8-11.9-9.1-12.7-9.3-13.9-9.9-47.5-32.6-45.6-30.4-43.3-28.3-41.4-25.9-22.5-16.6-5.1-3.4-5.2-2.9-5.4-2.3-5.6-1.8-4.8-0.9-4.9-0.7-5.1-0.2-5.1 0.2-5.4 0.7-5.3 0.9-5.5 1.5-5.6 1.8-19.6 6.9-16.6 5.3-7.2 1.8-6.3 1.6-5.7 1.1-4.8 0.6-33 3.4-32.7 3.7-32.3 4.1-32 4.4-3.8 0.8-3.5 1.6-3.3 2.2-2.8 2.6-2.3 3.2-1.7 3.5-1.1 3.8-0.3 3.8-0.5 21.9-0.5 9.9-0.8 9.3-0.9 8.9-1.1 8.5-1.5 8.1-1.6 7.8-1.9 7.6-2 7.3-2.4 7.2-2.7 6.8-2.8 6.7-3.2 6.4-3.4 6.3-3.7 6-4.6 6.9-5 6.4-5.4 6.4-5.8 6.1-3.2 3-3.4 2.9-3.6 2.8-3.9 2.6-8.6 5.1-11.8 6.2-12 6.3-8.8 5.2-3.8 2.7-3.8 2.8-3.2 3-3.2 3.1-2 1.7-2.3 1.1-2.7 0.8-3 0.1-16.8-1.1-16.9-0.3-12.3 0.2-12.2 0.5-5.7 0.3-6-0.2-6.3-0.3-6.4-0.5-13.9-2-17.8-3.3-7.7-1.4-8-1-8.4-0.7-8.7-0.4-9.1-0.1-9.9 0.2-25.8 1.6-16.5 0.9-12.1 0.6-10.9 0.1-10-0.2-9.7-0.7-9.2-1.2-8.9-1.5-8.6-2-10.6-3.1-10-3.5-9.9-3.8-9.4-4.4-9.1-4.8-8.6-5.2-8.3-5.7-8-6.2-6.6-5.6-6.3-5.8-6-6.2-5.8-6.6-5.4-6.8-5.3-7.1-4.9-7.5-4.7-7.8-2.9-5.1-2.6-5.3-2.4-5.4-2.2-5.3-2.2-6.2-1.9-6.2-1.7-6.2-1.3-6.4-1.2-6.6-0.8-6.5-0.7-6.7-0.3-6.8-2.4-76.3-0.1-1.5-0.4-1.2-0.5-1.1-0.7-1-0.9-0.7-1.2-0.4-1.2-0.3-1.6-0.1-24.3-0.4-24.3-1-24.3-1.7-24.4-2.4-24.3-3.2-24.3-3.8-24.4-4.5-24.3-5.3-7.7-1.4-7.5-0.7-7.4 0.2-7.3 0.7-5.6 1.2-5.6 1.6-5.4 1.9-5.5 2.5-35.3 18-30.7 16.1-28.4 15.3-26.5 14.7-25.2 14.6-23.9 14.2-22.8 14.2-21.7 14.1-21.1 14.5-20.3 14.4-19.4 14.6-18.5 14.7-17.7 14.8-17 15-16.1 15.2-15.4 15.3-2.3 2.6-2.2 2.8-2 2.9-1.7 3.2-1.5 3.4-1.5 3.4-1.1 3.7-0.9 3.7-0.8 4-0.4 4-0.4 4.1v4.1l0.1 4.3 0.5 4.3 0.5 4.2 0.9 4.2 1 2.6 0.6 1.1 0.9 0.9 1 0.7 1.1 0.5 2.7 0.6 4.5 0.4 4.2 0.8 4 0.9 3.9 1.2 3.6 1.6 3.4 1.7 3 2 3 2.3 3.3 3.1 3 3.5 2.7 3.9 2.3 4.3"/>
		<path id="Layer" fill-rule="evenodd" class="s3" d="m2687.4 2296.4l-27.8 8.4-27.8 7.9-28 7.5-28.1 7-25.9 5.9-25.9 5.6-26.1 5.1-26.1 4.7-6.4 1-6 0.5-5.7 0.4h-5.4l-4.9-0.5-4.7-0.7-4.3-1-3.9-1.4-5.8-2.9-2.7-1.6-2.4-1.8-2.1-1.8-2-2.1-1.8-2.2-1.6-2.2-1.5-2.7-1.4-3-0.9-3.1-0.8-3.1-0.6-3.4-0.2-3.6v-3.8l0.2-3.8"/>
		<path id="Layer" fill-rule="evenodd" class="s9" d="m2935.7 3069.2l-0.4-12.5-0.8-11.8-1.2-11.4-1.5-10.9-1.9-10.3-2.3-9.7-2.6-9.4-2.9-8.7-3.4-8.2-3.8-7.7-4-7.1-4.5-6.7-4.8-6-5.3-5.6-5.4-5-6.1-4.5-0.8-0.7-5.7-3.7-5.9-3.4-6.2-3.3-6.2-3-6.5-2.9-6.7-2.5-6.8-2.4-7.1-2.2-7.2-2-7.2-1.6-7.6-1.5-7.5-1.2-7.8-1-7.9-0.8-8-0.5-8.1-0.4h-8.2l-8.3 0.1-8.3 0.5-8.4 0.6-8.5 0.9-8.3 1.2-8.4 1.3-8.3 1.7-8.4 1.8-8.3 2.1-8.1 2.3-8.1 2.4-7.9 2.8-7.8 2.9-7.5 3.1-7.4 3.3-37.1 16.8-34.4 15-32.1 13.4-29.5 11.6"/>
		<path id="Layer" fill-rule="evenodd" class="s9" d="m2525.3 2696.2l-1-2.7-1.5-2.3-1.1-1-1.4-1-1.6-0.6-1.7-0.6-4.1-0.5-4.8 0.1-14.3 1.5-14.4 1.8-2.4 0.5-2.2 1-2.1 1.6-1.7 2.3-0.2 0.5-3.6 6.1-3.2 6.4-2.9 6.5-2.5 6.9-2.2 7-1.8 7.1-1.6 7.5-1.2 7.6-2.9 20.3-3.6 19.5-4.1 18.5-4.6 17.7-5.2 19.1-5 19.4-4.7 19.6-4.3 19.9-5.5 24-6.5 24.3-7.4 24.7-8.5 25.1-9.3 25.3-10.3 25.7-11.2 26.2-12.3 26.3-4.3 8.7-4.3 8.2-4.5 7.8-4.5 7.3-4.7 7-4.8 6.6-5.1 6.2-5.1 5.8-5.3 5.5-5.2 5.2-5.6 4.7-5.7 4.3-5.8 4.1-6 3.6-6.1 3.3-6.3 2.9-7.8 3.1-7.9 2.5-8.3 2-8.3 1.5-11.2 1.6-10.6 1.1-10.2 0.7-9.7 0.6-9.3 0.1-9-0.2-8.9-0.5-8.3-0.9-8-1-7.9-1.6-7.5-1.8-7.4-2.2-7-2.5-6.7-3-6.6-3.2-6.4-3.6-8-5.1-7.5-5.8-7.3-6.5-6.9-7.1-6.6-7.8-6.4-8.3-6-9.1-5.7-9.7-3.2-6.5-2.6-7-2.1-7.5-1.6-8.1-1.1-8.6-0.7-9.2-0.1-9.7 0.5-10.3 0.5-14.3-0.2-14.7-1.1-14.8-1.7-14.9-2.7-14.8-3.1-17.3-2.5-15.9-1.5-14.2-0.6-12.7"/>
		<path id="Layer" fill-rule="evenodd" class="s9" d="m1985.3 2799.9l-5.3 8.7-4.6 8.8-3.9 9.1-3.1 9.3-1.9 7.6-2.4 9.4-2.8 8.6-3.4 7.9-3.8 7-8.1 13.7-7.4 13.3-2.5 4.1-2.9 3.7-3.2 3.3-3.5 2.9-3.2 2.2-3.5 1.8-3.8 1.7-3.9 1.2-2.7 0.4h-2.8l-2.5-0.5-2.5-1-8-4.1-7.8-4.3-7.6-4.4-7.5-4.7-7.2-4.9-7-5.1-6.9-5.4-6.7-5.6-5.9-5.2-5.7-5.5"/>
		<path id="Layer" fill-rule="evenodd" class="s9" d="m1781.5 2951.1l-3.4 4.9-3.2 5.1-2.9 5.1-2.9 5.4-2.5 5.4-2.3 5.7-2.1 5.9-1.8 6.1-1.7 6.1-1.5 6.4-1.2 6.5-1 6.7-0.8 6.9-0.6 7-0.4 7.1-0.1 7.4-0.4 46.9-0.3 12.9-0.6 6-1.3 5.1-1.6 5-2 5-2.1 4.9-2.4 4.8-2.7 4.7-3 4.7-3.2 4.6-3.4 4.4-3.7 4.4-3.9 4.1-4.1 4.2-4.4 3.9-4.6 3.9-4.7 3.6-5 3.5-5.1 3.4-5.4 3.2-5.6 2.9-5.6 2.9-5.8 2.5-5.8 2.3-5.9 2.1-6 1.8-5.9 1.7-6 1.3-6.1 1.1-5.9 0.8-5.9 0.6-5.8 0.3h-5.8l-5.7-0.2-9.1-0.8-9-1.3-8.9-1.7-8.7-2.3-9.8-3.1-9.6-3.6-9.4-4.4-9.2-4.8-8.8-5.4-8.7-6-8.4-6.5-8-7-7.8-7.5-7.3-8-7.1-8.5-6.6-9-6.2-9.3-5.7-9.8-5.4-9.9-4.8-10.4-7.8-18-7.3-17.6-6.9-17.2-6.6-16.8-6.1-16.4-5.7-16-5.3-15.5-4.9-15.2-22-71.5-5.4-18.6-4.6-18.1-3.9-17.8-3.3-17.3-4.7-25.9-5.4-26-6.2-26.3-6.9-26.6-2.7-8.8-3.1-8.3-3.4-7.8-3.8-7.4-1.8-2.5-2.4-2-2.7-1.3-3.1-0.6-10.7-0.6-10.5-0.2-10.3 0.2-9.9 0.5-9.6 1-9.4 1.3-9.1 1.7-8.8 2.1"/>
		<path id="Layer" fill-rule="evenodd" class="s9" d="m1252.1 2847.5l-30.3 69.8-1.4 2.5-1.8 2.1-1.7 1.3-2.1 1.1-6.2 2.3-6.3 1.4-6.1 0.7-6-0.3-4.6-0.6-4.6-1.2-4.6-1.7-4.5-2.2-9-4.7-9.6-4.6-10.3-4.6-10.6-4.5-10.9-4.1-11.1-4.1-11.2-3.6-11.2-3.5-11-3-11-2.8-10.8-2.4-10.6-2.1-10.5-1.7-10.3-1.4-10.1-1.1-9.8-0.7-9.2-0.4h-8.8l-8.7 0.3-8.3 0.6-8.1 1-7.7 1.2-7.5 1.7-7 2-6.7 2.3-6.6 2.6-6 2.8-5.8 3.3-5.5 3.5-5 4-4.8 4.1-4.4 4.5-2.4 2.7-4.6 6-4.3 6.3-3.9 6.7-3.5 7-3.2 7.3-2.8 7.7-2.4 8.1-2.1 8.4-1.7 8.8-1.3 9.1-1 9.5-0.5 9.8-0.2 10.2 0.2 10.5 0.5 10.9 0.9 11.2"/>
		<path id="Layer" fill-rule="evenodd" class="s9" d="m845.5 2470.9l-2.4 5.8-2.7 5.8-3.2 5.7-3.5 5.8-3.9 5.7-4.4 5.6-4.7 5.7-5.2 5.6-24.1 25.8-7.6 8.5-4.6 5.7-14.9 20.9-14.2 21.4-13.7 22-13.2 22.6-12.6 23.1-12 23.6-11.5 24.2-10.8 24.7-1.3 2.7-1.8 2.3-2.1 2-2.4 1.8-2.6 1.3-2.8 0.9-2.8 0.4h-3l-12-1.3-11.8-2-8.6-1.9-8.4-2.2-8.3-2.6-8.3-3.1-8.2-3.3-8.1-3.8-8.1-4.1-8-4.5-8.9-5.1-44.3-26.2-17.1-10.5-15.7-9.7-14.9-9.7-13.8-9.3-13-9.2-12.3-8.9-11.9-9.2-11-9.1-10.4-9-9.8-9-9.1-9-8.3-8.9-7.8-8.9-7-8.9-6.3-8.7-7.1-10.5-7.9-12.4-8.7-14-9.4-16-10.2-17.6-22.7-40.8"/>
	</g>
	<g id="Layer">
		<path id="Layer" class="s12" d="m1873.7 410.6l93.4 1.8-1.9 12.5-1.4 12.4-1.2 12.4-0.8 12.1-0.4 12.1-0.1 11.9 0.2 11.7 0.5 11.7 0.9 11.6 1.2 11.5 1.5 11.3 1.9 11.3 2.2 11.1 2.6 11 2.9 10.9 3.2 10.8 3 8.3 3.4 7.8 3.7 7 4.1 6.3 4.5 5.7 4.9 5.2 5.2 4.3 5.6 3.8 3.3 1.7 3.4 1.7 3.5 1.3 3.6 1.2 3.7 1 4 0.7 8 1 8.5 0.2 9-0.6 9.4-1.5 10-2.1 7.2-0.3 7-0.6 6.7-1 6.5-1.4 6.3-1.9 6-2.2 5.8-2.6 5.6-3.1 4.7-2.8 4.5-3.3 4.3-3.5 4-3.8 3.9-4.2 3.9-4.5 3.6-4.7 3.4-5 3.2-5.4 3-5.6 3-6 2.6-6.2 2.5-6.5 2.4-6.9 2.2-7.1 2-7.5 1.8-7.4 1.5-8.1 1.5-8.8 1.4-9.5 2.3-21.1 2-23.9 0.6-2.5 0.4-1 0.8-0.8 0.8-0.5 1-0.3 2.6-0.1 2.7 0.6 2.1 1.1 1.9 1.7 1.7 2.1 1.5 2.7-0.2 9.8v9.9l0.2 9.7 0.6 9.9 1 14.1 1.8 14.1 2.1 14.1 2.7 14.1 3.2 14 3.7 14 4.2 14 4.7 13.9 8 16.8 8.3 16.5 8.8 16.4 9.1 16.2 9.5 16.1 9.8 15.9 10.3 15.7 10.6 15.6 10.8 14.8 11.2 14.4 11.7 14.3 12.3 13.7 12.8 13.5 13.4 13.2 13.9 12.8 14.3 12.4 19.2 15.7 19.5 15.3 19.9 14.8 20.2 14.3 20.7 14 21.1 13.4 21.3 13 21.8 12.7 22.2 12.1 22.5 11.7 22.8 11.3 23.4 10.8 23.6 10.4 24 10 24.4 9.4 24.7 9.1 18.7 6.3 18.5 5.8 18.5 5.5 18.5 4.9 18.5 4.4 18.4 4.1 18.4 3.5 18.3 3 18.4 2.6 18.4 2 18.3 1.7 18.3 1.2 18.3 0.6 18.3 0.3 18.1-0.3 18.2-0.6 6.8-0.5 6.4 15.4 6 15.4 5.7 15.4 5.4 15.6 5.3 15.6 4.8 15.7 4.6 15.8 4.4 15.8 3.9 15.6 3.8 15.5 3.3 15.8 3.1 15.8 3 15.7 2.5 16 2.4 15.9 2 16.1 1.8 16.1 1.5 16.2 1.3 16.3 0.8 16.3 0.8 16.4 0.4 16.5 0.2 16.5-0.2 16.6-0.5 13.8-1.1 15.2-1.6 16.9-2.8 23.1-2.9 25.3-1.8 18.6-1.1 16.8-0.3 15.4-0.2 2.7-0.6 2.3-0.8 2.1-1.3 1.6-1.6 1.5-2 1-2.3 0.6-2.7 0.3-27.4 1.9-27.2 2.2-27.4 2.6-27.4 3.1-27.5 3.5-27.3 3.8-27.5 4.3-27.5 4.7-4.8 1-4.6 1.3-4.4 1.5-4 1.8-4 2.1-3.6 2.3-3.3 2.5-3.1 2.8-3.7 4-8.1-2.4-8.3-2.1-8.4-1.8-8.7-1.4-8.7-1-9-0.6-9.2-0.4h-9.2l-9.5 0.4-9.6 0.7-9.9 1.1-10 1.4-10.1 1.8-10.3 2.1-10.5 2.5-10.7 2.8 8.6-12.7 7.6-11.9 6.6-10.9 5.8-10 4.7-9.2 3.8-8.2 2.9-7.3 1.9-6.5 6-23.5 4.5-17.9 3.1-13.1 2.7-11.9 1.9-10.6 1.6-10.2 1-9.6 0.4-9v-8.4l-0.4-8.3-0.7-8.1-1-8.3-1.2-8.1-1.8-9.8-2.2-9.6-2.7-9.5-2.9-9.5-3.4-9.3-3.7-9-4.2-9.1-4.5-8.9-4.9-8.8-5.3-8.5-5.4-8.3-6-8.1-6.1-7.8-6.6-7.7-6.7-7.3-7-7-7.4-6.8-7.6-6.5-7.9-6.2-8.1-5.8-8.2-5.5-8.6-5.2-8.6-4.8-8.9-4.5-9.1-4.1-9.2-3.7-9.2-3.3-9.4-2.9-9.5-2.7-9.5-2.2-9.7-1.7-9.7-1.3-7.2-0.8-7.3-0.5-14.4-0.5-7.3 0.1-7.3 0.4-14.4 1.3-11.3 1.4-10.9 1.7-10.5 1.8-10 2.1-9.9 2.2-9.4 2.5-9.1 2.5-8.6 2.9-9.8 3.7-6.6 2.8-6.3 3.2-6.2 3.4-6.2 3.7-6.1 4.1-5.8 4.2-5.8 4.5-5.6 4.8-5.5 5.2-5.3 5.4-5.2 5.6-5 5.8-4.8 6.3-4.7 6.3-4.6 6.7-4.4 6.9-4.3 7.2-4 7.4-4 7.6-3.6 7.9-3.6 8.1-3.3 8.2-3.1 8.6-2.9 8.5-2.7 8.9-2.5 8.8-2.3 9.1-2 9.1-1.9 9.3-1.5 9.3-1.5 9.4-1 9.5-1.5 17.3-0.3 8.4-0.1 8.2 0.1 8 0.3 7.9 0.6 7.6 0.9 7.6 0.9 7.3 1.3 7.3 1.6 6.9 1.6 6.9 2 6.5 2.2 6.6 2.5 6.2 2.6 6.2 3.5 7.4 3.9 7.2 3.8 7.1 4 6.8 4.3 6.8 4.4 6.5 4.6 6.3 4.7 6.2 4.9 6 5.1 5.8 5.2 5.5 5.4 5.4 5.6 5.2 5.7 5 5.9 4.7 5.9 4.6 8.4 5.9 8.7 5.6 8.8 5.1 9.2 4.8 9.4 4.4 9.7 3.9 9.8 3.5 10.1 3.2 10.3 2.8 10.5 2.3 10.7 2 11 1.6 11 1.1 11.3 0.8 11.5 0.4 11.6-0.1 8-0.4 8.1-0.8 8.6-1.3 8.8-1.8 9.1-2.1 10.1-2.8 26-8.2 24.6-7.7-7 11.4-3.1 5.7-2.9 5.6-2.6 5.7-2.3 5.6-2.1 5.6-1.7 5.6-1.5 5.5-1.4 5.5-1.1 5.5-0.7 5.6-0.5 5.3-0.3 5.5 0.1 5.5 0.2 5.3 0.9 7.9 1.5 7.8 2.5 8.4 3.2 8.4 3.9 7.9 4.7 7.8 5.3 7.6 6.2 7.2 6.9 7.1 7.5 6.8 8.3 6.5 8.9 6.1 9.6 5.7 10 5.4 10.6 4.9 10.9 4.2 11.1 3.9 11.4 3.3 14.7 3.4 14.6 2.6 14.3 1.8 14.2 1.1 14 0.4 14.1-0.6 13.8-1.3 13.6-2.1 11.6-2.4 11.6-2.9 11.4-3.6 11.4-4.2 11.2-4.8 11.2-5.3 10.9-6 10.9-6.5 7.3-4.8 6.7-5.2 6.2-5.6 5.9-6.1 5.8-7.1 5.4-7.5 4.8-8 4.3-8.5 3.8-9 3.2-9.5 2.6-10 2.2-10.4 60.7 13 1.1 0.3 1.1 0.7 0.8 0.8 0.8 1 0.4 1.1 0.2 1v1.3l-0.3 1-0.3 0.8-5.5 10.1-5.7 9.9-5.8 9.8-6.1 9.7-6.4 9.7-6.4 9.5-6.7 9.4-6.9 9.3-7.1 9.2-7.4 9.1-7.5 9-7.8 8.8-7.9 8.8-8.2 8.8-8.3 8.5-8.6 8.4-7.6 2.2-8.6 3-9.1 3.7-10 4.5-10.9 5.2-11.6 6.1-12.2 6.6-13.2 7.6-5.9 3.3-6.5 3.4-15.1 7.2-17.9 7.6-20.6 7.9-23.3 8.5-26 8.8-28.7 9.2-31.5 9.8-56.9 17-46.6 13.1-21.7 5.8-20.8 5.3-20 4.8-19.6 4.5-19.3 4.1-18.8 3.7-18.3 3.4-18 3-17.5 2.6-17.3 2.3-16.7 1.8-16.6 1.5-38 3.4-38.4 4-38.6 4.8-39.1 5.3-12.4 1.6-13.6 1-15 0.7-20.5 0.4-18.2 0.5-13.3 0.5-12 0.8-10.9 1.1-23.7 2.5-24.1 2-24.2 1.3-24.5 0.9-24.6 0.2-24.9-0.2-25.2-0.9-25.3-1.4-23.5-1.5-25.5-1.2-66.8-2.6-47.3-1.6-34.8-1.6-31.8-1.8-29.2-2.1-32.1-3-32.1-3.5-31.8-4.1-31.9-4.7-23.2-3.9-23.2-4-23.1-4.3-23.1-4.5-22.9-4.7-23-4.8-22.7-5.1-22.8-5.4-22.7-5.6-22.6-5.7-22.6-6-22.4-6.1-22.5-6.5-22.3-6.7-22.3-6.8-22.2-7-32.4-10.7-32.3-11.3-32-11.6-32-12.1-31.8-12.5-31.6-13-31.5-13.6-31.3-13.9-10.7-9.3-10.3-9.7-9.9-9.7-9.6-10.1-9.4-10.2-9-10.5-8.8-10.7-8.4-10.9-11.6-16.4-11-16.7-10.3-17.2-9.6-17.7-0.1-0.4-0.6-1.3-0.1-1.4 0.1-1.4 0.4-1.3 0.6-1.4 0.9-1 1.1-0.9 1.3-0.7 11.2-4 11.2-3.4 9.7-2.3 9.8-1.8 9.9-1.2 10.1-0.7 3.2 12 2.8 10.4 2.2 7.4 2.3 6.6 2.3 5.9 2.6 5.6 2.8 5.2 3.2 4.8 3.4 4.3 5 5.9 5.3 5.4 5.7 5.3 5.8 5 6.1 4.9 6.4 4.5 6.6 4.4 6.7 4.1 7.2 3.8 7.3 3.6 7.5 3.3 7.7 3.1 8 2.7 8.1 2.5 8.4 2.2 8.5 2 8.7 1.6 8.9 1.4 9.1 1.1 9 0.8 9.3 0.5 9.2 0.2 9.4-0.2 9.3-0.4 9.4-0.6 9.2-1.1 9.4-1.4 9.2-1.5 9.1-2 9-2.2 8.7-2.4 8.7-2.7 10.2-3.8 10.1-4.5 10.2-5.4 9.8-5.9 9.4-6.3 8.7-6.9 8.1-7.3 7.4-7.5 6.4-7.7 5.7-7.9 5-8 4-8.1 3.2-8.2 2.3-8.3 1.4-8.3 0.7-8.4-0.3-7-1.1-11-1.6-10.4-2.3-10-3-9.4-3.6-8.8-4.1-8.5-4.8-7.9-5.4-7.4-4-4.6-4-4.3-1.2-1.5-0.4-1.5 0.3-1.7 1.2-1.6 1.7-1.3 2.3-1 20.8 10.2 17.3 7.8 15.5 6.5 14.3 5.1 13.8 4.3 13.4 3.3 13 2.4 6.6 0.8 6.4 0.6 6.9 0.5 6.9 0.1 6.9-0.1 7-0.4 7.1-0.5 7.4-0.9 7.3-1.1 7.5-1.3 10-2.1 9.9-2.5 9.7-2.8 9.7-3.2 9.4-3.5 9.1-3.8 9-4.3 8.9-4.6 8.7-4.8 8.4-5.3 8.1-5.5 8-5.8 7.7-6.1 7.4-6.4 7.1-6.7 6.9-7 6.8-7.6 6.5-7.8 6.2-8.1 5.8-8.3 5.5-8.5 5.1-8.8 4.8-9 4.4-9.3 4.2-9.4 3.6-9.6 3.4-9.8 2.8-9.9 2.7-10.2 2.1-10.3 1.8-10.4 1.4-10.5 1-11.5 0.6-11.5v-11.5l-0.7-11.5-1.1-11.6-1.6-11.5-2.2-11.4-2.7-11.4-3.1-11.2-3.8-11.1-4.2-10.9-4.7-10.8-5.3-10.6-5.6-10.3-6.1-10.1-6.6-9.7-6.9-9.3-7.3-9.1-7.8-8.8-8.1-8.3-8.5-8-8.8-7.4-9.1-7.1-9.4-6.6-9.5-6.1-9.9-5.7-10-5.2-10.4-4.6-10.4-4.1-10.6-3.6-10.8-3.1-10.9-2.5-8-1.6-8.1-1.2-8.2-0.9-8.1-0.7-8.2-0.3-8.3-0.1-8.2 0.2-8.3 0.5-12.6 1.1-12.2 1.4-12 1.8-11.6 2-11.3 2.3-10.8 2.5-10.6 2.8-10.2 3.2-8.6 3.1-8.5 3.5-8.2 3.9-7.8 4.4-7.7 4.8-7.5 5.2-7.3 5.7-7 6-6.8 6.4-6.6 6.8-6.3 7.4-6 7.5-6 8.1-5.4 8.3-5.3 8.9-5 9-4.7 9.5-4.3 9.6-4.3 10.3-3.7 10.4-3.5 10.9-3.2 10.8-2.7 11.3-2.4 11.3-2.1 11.6-1.6 11.5-1.4 11.7-0.9 11.7-0.5 11.7-0.2 11.7 0.3 11.5 0.7 11.5 1 11.2 1.4 11 1.5 8.7 2 8.5 2.5 8.6 3 8.5 3.4 8.4 3.9 8.6 4.4 8.4 4.8 8.3 5.4 8.5 5.8 8.3 6.3 8.3 6.8 8.2 7.2 8.3 7.8 8.2 8.2 8.1 8.8 8.3-9.2-4.1-9.1-3.7-9.2-3.5-9.2-3.3-9.1-3-9.2-2.7-9.2-2.4-9.1-2.2-9.2-2-9.2-1.7-9-1.4-9.2-1.1-9.2-1-9.1-0.6-9.2-0.4-9.2-0.1-12.3 0.2-12.2 0.7-12.4 1.2-12.3 1.6-17.6-4.6-17.7-4.4-17.8-4-17.8-3.7-17.9-3.6-17.8-3-18-3-17.9-2.5-29.2-3.6-29.5-2.9-29.4-1.9-29.7-1.3-1.2-0.3-1-0.5-0.7-0.9-0.3-1.2-3.3-30.5-2.5-30.6-1.7-30.4-1-30.4-0.1-30.3 0.6-30.3 1.5-30.1 2.2-30.1 2.8-26.7 3.3-26.7 4-26.6 4.5-26.6 5.3-26.5 5.9-26.4 6.4-26.4 7.1-26.4 2.5-8 2.7-8.5 6.8-18.4 8.3-20.2 10-22.1 11.3-23.8 13.1-25.9 14.5-27.6 16.2-29.4 5.7 1.5 5.9 1.4 6.2 1.1 6.2 0.9 6.6 0.7 6.7 0.3 6.9 0.2 7.2-0.1 7.2-0.3 7.6-0.6 15.6-1.7 16.6-2.8 17.3-3.7 29.4-7.2 29-7.7 28.6-8.1 28.1-8.6 27.6-9 27.3-9.5 26.8-10 26.3-10.4 25.9-10.8 25.4-11.4 25.1-11.7 24.5-12.3 24.1-12.7 23.8-13.1 23.2-13.6 22.7-14 28.3-18.1 28.1-18.6 28.1-19 28-19.6 28-20.1 27.8-20.4 27.8-21 27.8-21.4 12.6-3.7 14.4-4.9 6.5-2.6 6.2-3 5.7-3.7 5.1-4.1 4.1-4.1 3.8-4.4 3.4-4.8 3-5.1 2.8-5.6 2.3-5.9 2.1-6.4 1.6-6.6 3.8-18.5 3.1-16.9 2.4-16 1.9-15.1 1.2-14.7 0.7-14.3 0.3-13.9-0.5-13.8-0.5-13.8-0.1-13.8 0.2-16.6 22.1-4.7 0.7 16.2 1.1 16.1 1.7 15.8 2.4 15.8 2.9 15.4 3.5 15.4 4 15.1 4.6 14.9 4.6 13.2 5.2 13 5.4 13 6 12.8 4.2 7.7 4.4 7.3 4.8 6.4 5 5.9 5.4 5.3 5.6 4.6 6 3.9 6.3 3.4 3.8 1.7 4 1.4 4.2 1.3 4.3 1 4.3 0.7 4.4 0.6 4.6 0.2 4.7 0.1 5.1-0.2 4.8-0.4 4.7-0.8 4.5-1.1 4.5-1.3 4-1.6 4.1-2 3.8-2.2 3.6-2.5 3.5-2.8 3.3-3 3.1-3.4 2.9-3.7 2.8-3.9 2.5-4.2 2.3-4.5 2.2-4.9 1.9-5 1.9-5.2 1.5-5.7 1.5-5.8 1.2-6.3 1.1-6.3 0.7-6.7 2.4-24.4 1.9-23.3 1.4-22.3 0.9-21 0.3-20-0.1-18.9-0.5-17.6z"/>
		<path id="Layer" class="s12" d="m870.9 1715.4l-17.5 39.9-113.5 26-1.3 0.1-1.1-0.3-0.8-0.7-0.7-1.2-26.7-78.4-0.1-0.7 0.3-0.8 0.6-0.6 0.7-0.2h0.4z"/>
		<path id="Layer" class="s12" d="m2957.5 1766.3l-14.5-40.1 157.7-16.1 1.1 0.1 1 0.7 0.6 0.9 0.1 1.1-0.1 0.5-27.3 75.2-0.9 1.6-1.4 1.2-1.7 0.5-1.9-0.1z"/>
		<path id="Layer" class="s12" d="m845.5 2470.9l-2.4 5.8-2.7 5.8-3.2 5.7-3.5 5.8-3.9 5.7-4.4 5.6-4.7 5.7-5.2 5.6-24.1 25.8-7.6 8.5-4.6 5.7-14.9 20.9-14.2 21.4-13.7 22-13.2 22.6-12.6 23.1-12 23.6-11.5 24.2-10.8 24.7-1.3 2.7-1.8 2.3-2.1 2-2.4 1.8-2.6 1.3-2.8 0.9-2.8 0.4h-3l-12-1.3-11.8-2-8.6-1.9-8.4-2.2-8.3-2.6-8.3-3.1-8.2-3.3-8.1-3.8-8.1-4.1-8-4.5-8.9-5.1-44.3-26.2-17.1-10.5-15.7-9.7-14.9-9.7-13.8-9.3-13-9.2-12.3-8.9-11.9-9.2-11-9.1-10.4-9-9.8-9-9.1-9-8.3-8.9-7.8-8.9-7-8.9-6.3-8.7-7.1-10.5-7.9-12.4-8.7-14-9.4-16-10.2-17.6-22.7-40.8-0.2-10.4 0.4-10 0.5-9.9 1-9.6 1.2-9.4 1.5-9.1 1.9-8.9 2.3-8.6 2.5-8.5 2.9-8.1 3.1-8 3.5-7.5 3.9-7.5 4.1-7.1 4.5-7 4.8-6.6 6.2-7.6 6.7-7.4 7.1-6.9 7.5-6.5 8-6.3 8.4-5.8 9-5.6 9.4-5.1 10.3-4.9 10.8-4.3 11.5-3.7 11.9-3.2 12.5-2.5 12.7-2 12.9-1.2 13-0.5h12.9l13 0.7 12.8 1.5 12.3 2 12.1 2.7 11.5 3.2 11.1 4 10.6 4.5 15.2 7.4 14.5 7.8 13.7 8.1 12.9 8.3 12.2 8.6 11.3 8.9 10.6 9.2 9.7 9.4 22.4 22.6 22.1 21.6 21.9 20.5 21.8 19.6 21.5 18.8 21.4 17.6 21.1 16.7z"/>
		<path id="Layer" class="s12" d="m2813.6 2699.7l-8-0.8-8-0.7-7.8-0.4-7.8-0.2h-7.5l-7.6 0.4-7.3 0.5-7.3 0.9-7.2 1-7.1 1.3-7 1.4-6.8 1.8-6.8 2.1-6.6 2.1-6.6 2.6-6.4 2.7-10.4 4.9-10 5.7-6.5 4.2-5.7 4.1-4.9 4.2-4.2 4.2-3.5 4.1-2.6 4.3-2 4.1-1.1 4.3-1 6.7-0.2 5.4 0.5 3.9 0.5 1.4 0.7 1.1 2.8 2.9 3.2 2.3 3.7 1.8 4 1.2 4 0.7h4.3l4.1-0.7 4.1-1.3 10.7-4 10.5-3.5 10.5-3.2 10.3-2.7 10.2-2.3 10-1.9 9.9-1.4 9.8-1 9.7-0.6 9.4-0.1 9.5 0.2 9.3 0.8 9 1.2 9 1.5 8.9 2 8.8 2.5 6.9 2.3 6.8 2.6 6.8 2.8 6.8 3.2 6.6 3.4 6.6 3.7 6.4 3.9 6.4 4.3 6.2 4.5 6.3 4.9 6.1 5.1 6 5.3 5.9 5.7 5.9 6 5.7 6.2 5.7 6.5 3.4 4.2 3.1 4.5 2.9 4.7 2.8 4.8 2.5 5.2 2.3 5.3 2.2 5.7 1.8 5.8 1.7 6 1.4 6.3 1.3 6.5 1 6.6 0.9 7 0.5 7 0.5 7.4 0.1 7.4v7.8l-0.4 8-1.3 16.3-2.1 16.8-3 17.1-4 17.4-4.7 17.2-5.3 16.7-6.1 15.7-0.4-12.5-0.8-11.8-1.2-11.4-1.5-10.9-1.9-10.3-2.3-9.7-2.6-9.4-2.9-8.7-3.4-8.2-3.8-7.7-4-7.1-4.5-6.7-4.8-6-5.3-5.6-5.4-5-6.1-4.5-0.8-0.7-5.7-3.7-5.9-3.4-6.2-3.3-6.2-3-6.5-2.9-6.7-2.5-6.8-2.4-7.1-2.2-7.2-2-7.2-1.6-7.6-1.5-7.5-1.2-7.8-1-7.9-0.8-8-0.5-8.1-0.4h-8.2l-8.3 0.1-8.3 0.5-8.4 0.6-8.5 0.9-8.3 1.2-8.4 1.3-8.3 1.7-8.4 1.8-8.3 2.1-8.1 2.3-8.1 2.4-7.9 2.8-7.8 2.9-7.5 3.1-7.4 3.3-37.1 16.8-34.4 15-32.1 13.4-29.5 11.6 8.4-29.8 7.8-29.2 7.4-28.9 6.8-28.4 6.3-27.9 5.8-27.5 5.3-27 4.7-26.6 0.8-6.6 0.5-6.5 0.1-6.4-0.4-6.4-0.9-6.7-1.2-6.5-1.9-6.6-2.2-6.4-1.1-2.2-1.5-1.8-2.3-1.5-2.7-0.9-22.7-4.4-1-2.7-1.5-2.3-1.1-1-1.4-1-1.6-0.6-1.7-0.6-4.1-0.5-4.8 0.1-14.3 1.5-14.4 1.8-2.4 0.5-2.2 1-2.1 1.6-1.7 2.3-0.2 0.5-3.6 6.1-3.2 6.4-2.9 6.5-2.5 6.9-2.2 7-1.8 7.1-1.6 7.5-1.2 7.6-2.9 20.3-3.6 19.5-4.1 18.5-4.6 17.7-5.2 19.1-5 19.4-4.7 19.6-4.3 19.9-5.5 24-6.5 24.3-7.4 24.7-8.5 25.1-9.3 25.3-10.3 25.7-11.2 26.2-12.3 26.3-4.3 8.7-4.3 8.2-4.5 7.8-4.5 7.3-4.7 7-4.8 6.6-5.1 6.2-5.1 5.8-5.3 5.5-5.2 5.2-5.6 4.7-5.7 4.3-5.8 4.1-6 3.6-6.1 3.3-6.3 2.9-7.8 3.1-7.9 2.5-8.3 2-8.3 1.5-11.2 1.6-10.6 1.1-10.2 0.7-9.7 0.6-9.3 0.1-9-0.2-8.9-0.5-8.3-0.9-8-1-7.9-1.6-7.5-1.8-7.4-2.2-7-2.5-6.7-3-6.6-3.2-6.4-3.6-8-5.1-7.5-5.8-7.3-6.5-6.9-7.1-6.6-7.8-6.4-8.3-6-9.1-5.7-9.7-3.2-6.5-2.6-7-2.1-7.5-1.6-8.1-1.1-8.6-0.7-9.2-0.1-9.7 0.5-10.3 0.5-14.3-0.2-14.7-1.1-14.8-1.7-14.9-2.7-14.8-3.1-17.3-2.5-15.9-1.5-14.2-0.6-12.7 6.3-31.8 6.9-31.7 7.3-31.6 7.8-31.6 8.3-31.5 8.8-31.4 9.3-31.3 9.7-31.3 0.7-3 0.2-3.1-0.2-3-0.8-3-1.3-2.8-1.6-2.6-2.1-2.3-2.4-1.8-3-1.8-2.9-1.3-3.1-1-3.2-0.6-3-0.2-3.2 0.1-3 0.4-2.9 1-4.1 2-3.6 2.7-3.3 3.5-2.6 4.2-8.3 16.1-7.9 16.3-7.2 16.5-6.8 16.8-6.1 16.5-5.6 16.8-5.1 17-4.6 17.2-5.3 8.7-4.6 8.8-3.9 9.1-3.1 9.3-1.9 7.6-2.4 9.4-2.8 8.6-3.4 7.9-3.8 7-8.1 13.7-7.4 13.3-2.5 4.1-2.9 3.7-3.2 3.3-3.5 2.9-3.2 2.2-3.5 1.8-3.8 1.7-3.9 1.2-2.7 0.4h-2.8l-2.5-0.5-2.5-1-8-4.1-7.8-4.3-7.6-4.4-7.5-4.7-7.2-4.9-7-5.1-6.9-5.4-6.7-5.6-5.9-5.2-5.7-5.5-10.2-39.6-10.5-39.5-10.8-39.5-11.3-39.3-4.3-13.3-4.9-12.5-2.6-5.9-2.9-5.7-2.9-5.6-3.1-5.2-2.4-3.5-2.6-3.1-3.1-2.9-3.5-2.6-3.7-2.2-4.1-1.8-4.5-1.6-4.7-1.2-5.1-1-5.5-0.5h-1.6l-1.4 0.2-1.3 0.3-1 0.7-0.8 0.9-0.8 1.1-0.5 1.3-0.4 1.5-0.7 5.1-0.6 5-0.2 4.9-0.1 4.9 0.2 4.9 0.4 4.8 0.7 4.7 0.9 4.7 1.6 6.5 9.2 32.5 8.8 32.3 8.1 31.9 7.5 31.7 7 31.4 6.6 31.1 5.9 30.8 5.4 30.5-3.4 4.9-3.2 5.1-2.9 5.1-2.9 5.4-2.5 5.4-2.3 5.7-2.1 5.9-1.8 6.1-1.7 6.1-1.5 6.4-1.2 6.5-1 6.7-0.8 6.9-0.6 7-0.4 7.1-0.1 7.4-0.4 46.9-0.3 12.9-0.6 6-1.3 5.1-1.6 5-2 5-2.1 4.9-2.4 4.8-2.7 4.7-3 4.7-3.2 4.6-3.4 4.4-3.7 4.4-3.9 4.1-4.1 4.2-4.4 3.9-4.6 3.9-4.7 3.6-5 3.5-5.1 3.4-5.4 3.2-5.6 2.9-5.6 2.9-5.8 2.5-5.8 2.3-5.9 2.1-6 1.8-5.9 1.7-6 1.3-6.1 1.1-5.9 0.8-5.9 0.6-5.8 0.3h-5.8l-5.7-0.2-9.1-0.8-9-1.3-8.9-1.7-8.7-2.3-9.8-3.1-9.6-3.6-9.4-4.4-9.2-4.8-8.8-5.4-8.7-6-8.4-6.5-8-7-7.8-7.5-7.3-8-7.1-8.5-6.6-9-6.2-9.3-5.7-9.8-5.4-9.9-4.8-10.4-7.8-18-7.3-17.6-6.9-17.2-6.6-16.8-6.1-16.4-5.7-16-5.3-15.5-4.9-15.2-22-71.5-5.4-18.6-4.6-18.1-3.9-17.8-3.3-17.3-4.7-25.9-5.4-26-6.2-26.3-6.9-26.6-2.7-8.8-3.1-8.3-3.4-7.8-3.8-7.4-1.8-2.5-2.4-2-2.7-1.3-3.1-0.6-10.7-0.6-10.5-0.2-10.3 0.2-9.9 0.5-9.6 1-9.4 1.3-9.1 1.7-8.8 2.1-2.7 7.5-2.3 7.6-1.8 7.5-1.1 7.8-0.7 8.7v8.9l0.6 9 1.5 9 5.9 29.5 6 27 6 24.2 6.1 21.5-30.3 69.8-1.4 2.5-1.8 2.1-1.7 1.3-2.1 1.1-6.2 2.3-6.3 1.4-6.1 0.7-6-0.3-4.6-0.6-4.6-1.2-4.6-1.7-4.5-2.2-9-4.7-9.6-4.6-10.3-4.6-10.6-4.5-10.9-4.1-11.1-4.1-11.2-3.6-11.2-3.5-11-3-11-2.8-10.8-2.4-10.6-2.1-10.5-1.7-10.3-1.4-10.1-1.1-9.8-0.7-9.2-0.4h-8.8l-8.7 0.3-8.3 0.6-8.1 1-7.7 1.2-7.5 1.7-7 2-6.7 2.3-6.6 2.6-6 2.8-5.8 3.3-5.5 3.5-5 4-4.8 4.1-4.4 4.5-2.4 2.7-4.6 6-4.3 6.3-3.9 6.7-3.5 7-3.2 7.3-2.8 7.7-2.4 8.1-2.1 8.4-1.7 8.8-1.3 9.1-1 9.5-0.5 9.8-0.2 10.2 0.2 10.5 0.5 10.9 0.9 11.2-4.4-7.6-4.1-7.9-4-8-3.7-8.1-3.5-8.2-3.3-8.4-2.9-8.4-2.8-8.4-2.5-8.5-2.2-8.5-2-8.5-1.6-8.5-1.3-8.4-1.1-8.4-0.8-8.3-0.5-8.3-0.2-8.1 0.1-8 0.3-7.9 0.7-7.9 0.8-7.6 1.2-7.7 1.5-7.5 1.7-7.3 2.1-7.1 2.3-7 2.5-6.9 2.9-6.8 3-6.5 3.4-6.4 3.6-6.1 4-6.2 4.7-6.5 5-6.4 3.7-4.3 4.1-4.1 4.1-4.1 4.5-3.8 4.6-3.7 5-3.6 5-3.4 5.4-3.2 5.3-3.1 5.7-2.8 5.8-2.7 5.9-2.5 6.1-2.2 6.2-2 6.2-1.9 6.5-1.6 6.6-1.5 6.5-1.2 6.7-0.8 6.7-0.8 6.6-0.6 6.6-0.2h6.7l6.6 0.2 6.4 0.5 6.5 0.6 6.4 0.9 6.2 1.2 6.1 1.3 6 1.7 5.9 1.7 5.6 2.1 13.2 4.7 13 3.9 13 3.1 12.8 2.4 2.8 0.1 2.6-0.4 2.4-1.2 2.2-2 2.2-2.5 1.8-2.5 1.6-2.6 1.2-2.6 1-2.5 0.7-2.4 0.5-2.6 0.1-2.5-0.2-3.5-0.8-3.3-1.3-3.5-1.8-3.4-2.3-3.3-2.8-3.5-3.3-3.4-3.8-3.4-4.3-3.3-4.7-3.4-5.4-3.3-5.8-3.4-6.2-3.2-6.8-3.3-15.5-6.9-2.3-4.3-2.7-3.9-3-3.5-3.3-3.1-3-2.3-3-2-3.4-1.7-3.6-1.6-3.9-1.2-4-0.9-4.2-0.8-4.5-0.4-2.7-0.6-1.1-0.5-1-0.7-0.9-0.9-0.6-1.1-1-2.6-0.9-4.2-0.5-4.2-0.5-4.3-0.1-4.3v-4.1l0.4-4.1 0.4-4 0.8-4 0.9-3.7 1.1-3.7 1.5-3.4 1.5-3.4 1.7-3.2 2-2.9 2.2-2.8 2.3-2.6 15.4-15.3 16.1-15.2 17-15 17.7-14.8 18.5-14.7 19.4-14.6 20.3-14.4 21.1-14.5 21.7-14.1 22.8-14.2 23.9-14.2 25.2-14.6 26.5-14.7 28.4-15.3 30.7-16.1 35.3-18 5.5-2.5 5.4-1.9 5.6-1.6 5.6-1.2 7.3-0.7 7.4-0.2 7.5 0.7 7.7 1.4 24.3 5.3 24.4 4.5 24.3 3.8 24.3 3.2 24.4 2.4 24.3 1.7 24.3 1 24.3 0.4 1.6 0.1 1.2 0.3 1.2 0.4 0.9 0.7 0.7 1 0.5 1.1 0.4 1.2 0.1 1.5 2.4 76.3 0.3 6.8 0.7 6.7 0.8 6.5 1.2 6.6 1.3 6.4 1.7 6.2 1.9 6.2 2.2 6.2 2.2 5.3 2.4 5.4 2.6 5.3 2.9 5.1 4.7 7.8 4.9 7.5 5.3 7.1 5.4 6.8 5.8 6.6 6 6.2 6.3 5.8 6.6 5.6 8 6.2 8.3 5.7 8.6 5.2 9.1 4.8 9.4 4.4 9.9 3.8 10 3.5 10.6 3.1 8.6 2 8.9 1.5 9.2 1.2 9.7 0.7 10 0.2 10.9-0.1 12.1-0.6 16.5-0.9 25.8-1.6 9.9-0.2 9.1 0.1 8.7 0.4 8.4 0.7 8 1 7.7 1.4 17.8 3.3 13.9 2 6.4 0.5 6.3 0.3 6 0.2 5.7-0.3 12.2-0.5 12.3-0.2 16.9 0.3 16.8 1.1 3-0.1 2.7-0.8 2.3-1.1 2-1.7 3.2-3.1 3.2-3 3.8-2.8 3.8-2.7 8.8-5.2 12-6.3 11.8-6.2 8.6-5.1 3.9-2.6 3.6-2.8 3.4-2.9 3.2-3 5.8-6.1 5.4-6.4 5-6.4 4.6-6.9 3.7-6 3.4-6.3 3.2-6.4 2.8-6.7 2.7-6.8 2.4-7.2 2-7.3 1.9-7.6 1.6-7.8 1.5-8.1 1.1-8.5 0.9-8.9 0.8-9.3 0.5-9.9 0.5-21.9 0.3-3.8 1.1-3.8 1.7-3.5 2.3-3.2 2.8-2.6 3.3-2.2 3.5-1.6 3.8-0.8 32-4.4 32.3-4.1 32.7-3.7 33-3.4 4.8-0.6 5.7-1.1 6.3-1.6 7.2-1.8 16.6-5.3 19.6-6.9 5.6-1.8 5.5-1.5 5.3-0.9 5.4-0.7 5.1-0.2 5.1 0.2 4.9 0.7 4.8 0.9 5.6 1.8 5.4 2.3 5.2 2.9 5.1 3.4 22.5 16.6 41.4 25.9 43.3 28.3 45.6 30.4 47.5 32.6 13.9 9.9 12.7 9.3 11.9 9.1 11.1 8.8 10.2 8.8 9.6 8.8 9 8.5 8.2 8.5 7.7 8.6 7 8.5 6.2 8.4 5.7 8.5 5 8.3 4.4 8.3 3.9 8.4 3 8.4 2.8 7.1 3 6.8 3.6 6.5 4 6.2 1.2 1.6 9 12.6z"/>
	</g>
	<g id="Layer">
		<path id="Layer" class="s0" d="m1180.5 1723.5l-28.3-15.3-8.8-8.3-8.2-8.1-7.8-8.2-7.2-8.3-6.8-8.2-6.3-8.3-5.8-8.3-5.4-8.5-4.8-8.3-4.4-8.4-3.9-8.6-3.4-8.4-3-8.5-2.5-8.6-2-8.5-1.5-8.7-1.4-11-1-11.2-0.7-11.5-0.3-11.5 0.2-11.7 0.5-11.7 0.9-11.7 1.4-11.7 1.6-11.5 2.1-11.6 2.4-11.3 2.7-11.3 3.2-10.8 3.5-10.9 3.7-10.4 4.3-10.3 4.3-9.6 4.7-9.5 5-9 5.3-8.9 5.4-8.3 6-8.1 6-7.5 6.3-7.4 6.6-6.8 6.8-6.4 7-6 7.3-5.7 7.5-5.2 7.7-4.8 7.8-4.4 8.2-3.9 8.5-3.5 8.6-3.1 10.2-3.2 10.6-2.8 10.8-2.5 11.3-2.3 11.6-2 12-1.8 12.2-1.4 12.6-1.1 8.3-0.5 8.2-0.2 8.3 0.1 8.2 0.3 8.1 0.7 8.2 0.9 8.1 1.2 8 1.6 10.9 2.5 10.8 3.1 10.6 3.6 10.4 4.1 10.4 4.6 10 5.2 9.9 5.7 9.5 6.1 9.4 6.6 9.1 7.1 8.8 7.4 8.5 8 8.1 8.3 7.8 8.8 7.3 9.1 6.9 9.3 6.6 9.7 6.1 10.1 5.6 10.3 5.3 10.6 4.7 10.8 4.2 10.9 3.8 11.1 3.1 11.2 2.7 11.4 2.2 11.4 1.6 11.5 1.1 11.6 0.7 11.5v11.5l-0.6 11.5-1 11.5-1.4 10.5-1.8 10.4-2.1 10.3-2.7 10.2-2.8 9.9-3.4 9.8-3.6 9.6-4.2 9.4-4.4 9.3-4.8 9-5.1 8.8-5.5 8.5-5.8 8.3-6.2 8.1-6.5 7.8-6.8 7.6-6.9 7-7.1 6.7-7.4 6.4-7.7 6.1-8 5.8-8.1 5.5-8.4 5.3-8.7 4.8-8.9 4.6-9 4.3-9.1 3.8-9.4 3.5-9.7 3.2-9.7 2.8-9.9 2.5-10 2.1-7.5 1.3-7.3 1.1-7.4 0.9-7.1 0.5-7 0.4-6.9 0.1-6.9-0.1-6.9-0.5-6.4-0.6-6.6-0.8-13-2.4-13.4-3.3-13.8-4.3-14.3-5.1-15.5-6.5-17.3-7.8z"/>
		<path id="Layer" class="s0" d="m2705.8 1699.9l-11.7 9.2-12.1 8.6-12.5 7.9-12.9 7-13.7 6.6-14.1 5.8-24.6 7.7-26 8.2-10.1 2.8-9.1 2.1-8.8 1.8-8.6 1.3-8.1 0.8-8 0.4-11.6 0.1-11.5-0.4-11.3-0.8-11-1.1-11-1.6-10.7-2-10.5-2.3-10.3-2.8-10.1-3.2-9.8-3.5-9.7-3.9-9.4-4.4-9.2-4.8-8.8-5.1-8.7-5.6-8.4-5.9-5.9-4.6-5.9-4.7-5.7-5-5.6-5.2-5.4-5.4-5.2-5.5-5.1-5.8-4.9-6-4.7-6.2-4.6-6.3-4.4-6.5-4.3-6.8-4-6.8-3.8-7.1-3.9-7.2-3.5-7.4-2.6-6.2-2.5-6.2-2.2-6.6-2-6.5-1.6-6.9-1.6-6.9-1.3-7.3-0.9-7.3-0.9-7.6-0.6-7.6-0.3-7.9-0.1-8 0.1-8.2 0.3-8.4 1.5-17.3 1-9.5 1.5-9.4 1.5-9.3 1.9-9.3 2-9.1 2.3-9.1 2.5-8.8 2.7-8.9 2.9-8.5 3.1-8.6 3.3-8.2 3.6-8.1 3.6-7.9 4-7.6 4-7.4 4.3-7.2 4.4-6.9 4.6-6.7 4.7-6.3 4.8-6.3 5-5.8 5.2-5.6 5.3-5.4 5.5-5.2 5.6-4.8 5.8-4.5 5.8-4.2 6.1-4.1 6.2-3.7 6.2-3.4 6.3-3.2 6.6-2.8 9.8-3.7 8.6-2.9 9.1-2.5 9.4-2.5 9.9-2.2 10-2.1 10.5-1.8 10.9-1.7 11.3-1.4 14.4-1.3 7.3-0.4 7.3-0.1 14.4 0.5 7.3 0.5 7.2 0.8 9.7 1.3 9.7 1.7 9.5 2.2 9.5 2.7 9.4 2.9 9.2 3.3 9.2 3.7 9.1 4.1 8.9 4.5 8.6 4.8 8.6 5.2 8.2 5.5 8.1 5.8 7.9 6.2 7.6 6.5 7.4 6.8 7 7 6.7 7.3 6.6 7.7 6.1 7.8 6 8.1 5.4 8.3 5.3 8.5 4.9 8.8 4.5 8.9 4.2 9.1 3.7 9 3.4 9.3 2.9 9.5 2.7 9.5 2.2 9.6 1.8 9.8 1.2 8.1 1 8.3 0.7 8.1 0.4 8.3v8.4l-0.4 9-1 9.6-1.6 10.2-1.9 10.6-2.7 11.9-3.1 13.1-4.5 17.9-6 23.5-1.9 6.5-2.9 7.3-3.8 8.2-4.7 9.2-5.8 10-6.6 10.9-7.6 11.9z"/>
	</g>
	<path id="Layer" class="s13" d="m2161.1 434.3l54.6 14.4-1.8 3-1.5 3.1-1.2 3.2-1 3.2-0.8 4.4-0.3 4.6 0.2 4.8 0.8 4.8-1.5-2.7-1.7-2.1-1.9-1.7-2.1-1.1-2.7-0.6-2.6 0.1-1 0.3-0.8 0.5-0.8 0.8-0.4 1-0.6 2.5-2 23.9-2.3 21.1-1.4 9.5-1.5 8.8-1.5 8.1-1.8 7.4-2 7.5-2.2 7.1-2.4 6.9-2.5 6.5-2.6 6.2-3 6-3 5.6-3.2 5.4-3.4 5-3.6 4.7-3.9 4.5-3.9 4.2-4 3.8-4.3 3.5-4.5 3.3-4.7 2.8-5.6 3.1-5.8 2.6-6 2.2-6.3 1.9-6.5 1.4-6.7 1-7 0.6-7.2 0.3 4.3-10.6 4.3-10.7 4.2-11 3.9-11.3 7.5-23.2 6.9-24.1 6.2-25.2 5.7-26.2 5.1-27 4.5-28 0.6-3.2 0.7-3 1-2.7 1.1-2.4 1.3-2.2 1.5-1.9 1.6-1.6 1.7-1.3 2-1.1 2-0.9 2.3-0.5 2.3-0.4 2.6-0.1 2.6 0.1z"/>
	<g id="Layer">
		<path id="Layer" class="s14" d="m1086.4 590.5l-15.2 10-14.9 10.3-14.8 10.4-14.5 10.7-14.1 11-14 11.1-13.7 11.2-13.4 11.6-13.3 11.8-12.9 11.9-12.7 12.1-12.5 12.5-12.1 12.6-12.1 12.8-11.7 12.9-11.4 13.3-11.2 13.3-3.5 4.7-3.2 5.5-3.3 6.4-4.2 8.8-1.4 3.2-1.1 2.1-1 1.4-0.9 0.9-0.9 0.2-0.9-0.3-0.9-1-0.8-1.6-0.7-2.2-4.6-17.3-4.1-17.7-3.5-17.9-2.8-18.2-2.4-18.6-1.8-18.8-1.2-19.3-0.8-19.6-0.1-20 0.5-20.5 1-21 1.4-21.6 2.1-22.3 2.6-23 3.2-23.9 3.8-25.1 1.8-9.5 2.5-9.1 3-8.7 3.7-8.3 1.9-2.9 1.1-1.2 1.2-0.9 1.4-0.8 1.6-0.6 3.4-0.5h8.8l8.7 0.6 8.4 1.4 8.2 2.1 12.5 4 12.3 4.3 12.1 4.6 11.9 5.1 11.8 5.2 11.6 5.7 11.2 5.9 11.2 6.3 14.2 8.6 13.9 9.3 13.6 9.8 13.4 10.3 12.9 10.8 12.6 11.4 12.4 12 11.9 12.5 0.8 1.1 0.5 1.2 0.3 1.3v1.3l-0.2 1.4-0.4 1.2-0.8 1.1-1 0.8z"/>
		<path id="Layer" class="s14" d="m2982.9 476.6l2.4 4 2 4.3 1.8 4.4 1.3 4.6 3.5 15 3 15 2.9 14.9 2.5 14.9 2.1 14.9 1.7 14.7 1.6 14.8 1.1 14.8 0.7 14.7 0.6 14.6 0.1 14.6-0.2 14.6-0.6 14.5-0.8 14.5-1.3 14.4-1.6 14.5-3.2 23.1-4 23-4.9 22.9-5.8 22.7-1.1 3.2-1.1 2.4-1.4 1.4-1.3 0.7-1.4-0.3-1.5-1.2-1.7-2-1.7-3-3.1-5.3-3.4-5.3-3.6-5.1-3.8-5.1-11.3-13.7-11.4-13.3-11.7-13.3-11.9-13-20-21-20.5-20.4-21.2-19.9-21.8-19.3-22.3-18.8-22.9-18.3-23.5-17.6-24.1-17.2-0.2-0.1-0.5-0.7-0.2-0.7 0.2-0.8 0.5-0.7 15.5-14.3 13.8-12.4 12.8-11 12.3-10.2 11.8-9.3 11.7-8.8 11.4-7.9 11.3-7.4 11.4-6.9 11.4-6.5 11.2-5.6 11.4-5.4 11.5-4.7 11.5-4.3 11.6-3.6 11.7-3.2 12.9-2.9 12.9-2.3 4.2-0.5 4.1 0.2 3.7 0.8 3.5 1.4 2.6 1.6 2.6 1.9 2.2 2.4z"/>
		<path id="Layer" class="s14" d="m1152.2 1708.2l28.3 15.3-2.3 1-1.7 1.3-1.2 1.6-0.3 1.7 0.4 1.5 1.2 1.5 4 4.3 4 4.6 5.4 7.4 4.8 7.9 4.1 8.5 3.6 8.8 3 9.4 2.3 10 1.6 10.4 1.1 11 0.3 7-0.7 8.4-1.4 8.3-2.3 8.3-3.2 8.2-4 8.1-5 8-5.7 7.9-6.4 7.7-7.4 7.5-8.1 7.3-8.7 6.9-9.4 6.3-9.8 5.9-10.2 5.4-10.1 4.5-10.2 3.8-8.7 2.7-8.7 2.4-9 2.2-9.1 2-9.2 1.5-9.4 1.4-9.2 1.1-9.4 0.6-9.3 0.4-9.4 0.2-9.2-0.2-9.3-0.5-9-0.8-9.1-1.1-8.9-1.4-8.7-1.6-8.5-2-8.4-2.2-8.1-2.5-8-2.7-7.7-3.1-7.5-3.3-7.3-3.6-7.2-3.8-6.7-4.1-6.6-4.4-6.4-4.5-6.1-4.9-5.8-5-5.7-5.3-5.3-5.4-5-5.9-3.4-4.3-3.2-4.8-2.8-5.2-2.6-5.6-2.3-5.9-2.3-6.6-2.2-7.4-2.8-10.4-3.2-12 65.8-11.8 4-0.9 3.7-1.5 3.3-1.8 2.9-2.2 1.7-1.8 1.5-1.9 1.5-2.1 1.2-2.4 1-2.5 0.8-2.7 1.2-6 0.3-4.5-0.7-4.4-1.4-4.2-2.1-3.9-2.8-3.5-3.4-2.8-4-2.2-4.1-1.5-4.4-0.9-4.7-0.6-5.2-0.3-5.3 0.1-5.7 0.5-6.1 0.7-6.4 1.1-6.7 1.4 17.5-39.9 22.7 2.2 24.5 1.7 4.9 0.2 4.9-0.2 4.4-0.4 4.4-0.8 4.1-1.1 3.8-1.4 3.6-1.8 3.4-2 2-1.8 1.5-2.4 1.2-3.2 0.8-3.7 0.4-4.5v-5.1l-0.3-5.9-0.8-6.5 12.3-1.6 12.4-1.2 12.2-0.7 12.3-0.2 9.2 0.1 9.2 0.4 9.1 0.6 9.2 1 9.2 1.1 9 1.4 9.2 1.7 9.2 2 9.1 2.2 9.2 2.4 9.2 2.7 9.1 3 9.2 3.3 9.2 3.5 9.1 3.7z"/>
		<path id="Layer" class="s14" d="m2856 1696.8l-0.7 3.7-0.5 3.5-0.1 3.3 0.2 3 0.5 2.9 0.8 2.6 1 2.4 1.4 2.1 1.8 2.1 2.2 1.7 2.6 1.6 2.9 1.3 3.3 1 3.6 0.6 3.9 0.5 4.4 0.2 15.3-0.1 15.1-0.5 14.8-1.1 14.5-1.4 14.5 40.1-10-2-9.2-1.2-8.4-0.4-7.4 0.3-3.3 0.4-3.2 0.7-2.8 0.9-2.7 1.1-2.3 1.3-2.3 1.4-1.9 1.6-1.8 1.9-1.5 2.2-1.3 2.5-1.1 2.6-0.8 3-0.4 3.2-0.1 3.4v3.6l0.4 3.8 0.8 3.4 1.2 3.2 1.6 2.9 2.2 2.8 2.7 2.3 2.8 1.8 3.2 1.5 3.3 0.8 71.8 13.4-2.2 10.4-2.6 10-3.2 9.5-3.8 9-4.3 8.5-4.8 8-5.4 7.5-5.8 7.1-5.9 6.1-6.2 5.6-6.7 5.2-7.3 4.8-10.9 6.5-10.9 6-11.2 5.3-11.2 4.8-11.4 4.2-11.4 3.6-11.6 2.9-11.6 2.4-13.6 2.1-13.8 1.3-14.1 0.6-14-0.4-14.2-1.1-14.3-1.8-14.6-2.6-14.7-3.4-11.4-3.3-11.1-3.9-10.9-4.2-10.6-4.9-10-5.4-9.6-5.7-8.9-6.1-8.3-6.5-7.5-6.8-6.9-7.1-6.2-7.2-5.3-7.6-4.7-7.8-3.9-7.9-3.2-8.4-2.5-8.4-1.5-7.8-0.9-7.9-0.2-5.3-0.1-5.5 0.3-5.5 0.5-5.3 0.7-5.6 1.1-5.5 1.4-5.5 1.5-5.5 1.7-5.6 2.1-5.6 2.3-5.6 2.6-5.7 2.9-5.6 3.1-5.7 7-11.4 14.1-5.8 13.7-6.6 12.9-7 12.5-7.9 12.1-8.6 11.7-9.2 10.7-2.8 10.5-2.5 10.3-2.1 10.1-1.8 10-1.4 9.9-1.1 9.6-0.7 9.5-0.4h9.2l9.2 0.4 9 0.6 8.7 1 8.7 1.4 8.4 1.8 8.3 2.1z"/>
		<path id="Layer" class="s14" d="m1747.9 2502l-3-3.3-2.7-3.5-2.5-3.7-2.3-3.9-2.2-4.2-2-4.5-1.8-4.6-1.5-4.8-1.3-5.2-1.1-5.1-0.9-5.5-0.6-5.6-0.6-5.8-0.2-5.8 0.2-12.1 0.5-6.5 0.6-6.4 0.9-6.6 1.1-6.5 2.8-12.9 1.8-6.3 2-6.3 2.2-6.1 2.3-5.9 2.4-5.7 2.6-5.5 2.7-5.1 3-5 2.9-4.4 3.1-4.3 3.3-4.1 3.4-3.7 3.6-3.5 3.6-3.1 3.8-2.8 3.9-2.5 4.1-2.3 4.1-2 3.9-1.4 4.1-1.3 4.1-1 4.2-0.8 4.4-0.4 4.5-0.3h4.6l4.7 0.3 4.8 0.4 4.9 0.8 10.3 2.3 10.8 3.3 11.4 4.2 1.9 0.9 1.2 1 0.9 0.9 0.3 1-0.2 0.9-0.8 1-1.2 1-1.6 1.1-7.8 4.1-7.7 3.9-5.2 3.3-4.4 3.3-3.5 3.5-8.1 10.3-3.6 5.1-3.3 5-3.1 5.2-2.7 5-2.4 5.1-2.2 5-1.8 4.9-1.6 5.1-1.2 4.9-1 4.9-0.6 4.9-0.5 4.9-0.1 4.9 0.2 4.8 0.9 7.2 1.5 7.3 2.9 9.6 3.3 9.1 3.7 8.4 4.3 7.9 4.7 7.3 5.2 6.8 5.7 6.1 6.1 5.6 3.9 3.1 4 2.8 4.3 2.7 4.4 2.4 1.4 0.9 1 0.8 0.6 0.9 0.3 0.9-0.2 1-0.4 1-0.9 0.9-1.2 1.1-6.5 4.7-6.5 4.1-6.6 3.5-6.6 3-6.6 2.2-6.7 1.9-6.7 1.2-6.8 0.7h-6.9l-7-0.6-7-1.2-7.1-1.7-2.9-1.1-2.5-1.2-2.1-1.3-2.2-1.6-2.1-1.9-4.2-4.5-5.1-6.7-4.6-6z"/>
		<path id="Layer" class="s14" d="m2085.6 2479.1l-1.5 6.2-1.9 5.6-2.3 5.5-2.5 5.1-2.9 4.7-3.3 4.3-3.6 4.1-4 3.6-4.9 3.7-5.4 3.3-5.8 2.6-6 2.2-6.6 1.6-6.6 1.1-7.2 0.4-7.1-0.1-7.5-0.7-7.6-1.3-7.8-1.7-7.5-2.4-7.6-2.9-7.3-3.4-7.2-3.8-6.9-4.3-1.3-1-1-1-0.6-1.1-0.2-0.9 0.2-1 0.7-0.9 1-1 1.3-1 5.3-3.1 7.8-4.6 5.5-3.7 4.5-3.8 3.6-4 6.3-8.6 5.5-8.6 4.7-8.6 4-8.6 3-8.6 2.2-8.6 1.4-8.7 0.6-8.7v-4.9l-0.3-5-0.6-4.9-0.9-5-1.1-5-1.3-4.9-1.6-5-1.9-4.9-2.2-5.1-2.4-4.9-2.7-5-3-5.1-6.7-9.9-7.8-10.1-2.5-2.8-3-2.2-3-1.7-3.3-1.3-3.7-1.4-0.9-0.8-0.3-0.7 0.4-0.6 0.8-0.7 3.8-1.3 6.4-1.5 6.2-1.3 6.1-1 6-0.8 5.8-0.4 5.7-0.2h5.6l5.4 0.3 5.2 0.7 5 0.8 5 1.1 4.8 1.4 4.5 1.8 4.4 1.9 4.2 2.3 4.1 2.4 3.4 2.3 3 2.5 3.2 2.6 2.9 2.9 5.4 6.2 5 6.9 4.3 7.5 3.9 8.4 3.3 8.8 2.7 9.6 2.1 10.1 1.4 10.7 0.9 11 0.2 11.4-0.3 11.7-1.1 12-1.7 12z"/>
		<path id="Layer" class="s14" d="m1906.4 2462.2c-26.6 0-48.1-21.5-48.1-48.1 0-26.6 21.5-48.1 48.1-48.1 26.6 0 48.1 21.5 48.1 48.1 0 26.6-21.5 48.1-48.1 48.1z"/>
	</g>
	<g id="Layer">
		<path id="Layer" class="s15" d="m1873.7 410.6l1.1 16.6 0.5 17.6 0.1 18.9-0.3 20-0.9 21-1.4 22.3-1.9 23.3-2.4 24.4-0.7 6.7-1.1 6.3-1.2 6.3-1.5 5.8-1.5 5.7-1.9 5.2-1.9 5-2.2 4.9-2.3 4.5-2.5 4.2-2.8 3.9-2.9 3.7-3.1 3.4-3.3 3-3.5 2.8-3.6 2.5-3.8 2.2-4.1 2-4 1.6-4.5 1.3-4.5 1.1-4.7 0.8-4.8 0.4-5.1 0.2-4.7-0.1-4.6-0.2-4.4-0.6-4.3-0.7-4.3-1-4.2-1.3-4-1.4-3.8-1.7-6.3-3.4-6-3.9-5.6-4.6-5.4-5.3-5-5.9-4.8-6.4-4.4-7.3-4.2-7.7-6-12.8-5.4-13-5.2-13-4.6-13.2-4.6-14.9-4-15.1-3.5-15.4-2.9-15.4-2.4-15.8-1.7-15.8-1.1-16.1-0.7-16.2 22.8-4 23.2-3.5 23.6-3.2 24.1-2.6 24.6-2.2 25-1.7 25.5-1.3z"/>
		<path id="Layer" class="s15" d="m1967.1 412.4l18 0.6 18.1 0.9 17.9 1.2 18 1.5 30.6 3.2 30.6 3.9 30.4 4.9 30.4 5.7-6-1.1-2.6-0.1-2.6 0.1-2.3 0.4-2.3 0.5-2 0.9-2 1.1-1.7 1.3-1.6 1.6-1.5 1.9-1.3 2.2-1.1 2.4-1 2.7-0.7 3-0.6 3.2-4.5 28-5.1 27-5.7 26.2-6.2 25.2-6.9 24.1-7.5 23.2-3.9 11.3-4.2 11-4.3 10.7-4.3 10.6-10 2.1-9.4 1.5-9 0.6-8.5-0.2-8-1-4-0.7-3.7-1-3.6-1.2-3.5-1.3-3.4-1.7-3.3-1.7-5.6-3.8-5.2-4.3-4.9-5.2-4.5-5.7-4.1-6.3-3.7-7-3.4-7.8-3-8.3-3.2-10.8-2.9-10.9-2.6-11-2.2-11.1-1.9-11.3-1.5-11.3-1.2-11.5-0.9-11.6-0.5-11.7-0.2-11.7 0.1-11.9 0.4-12.1 0.8-12.1 1.2-12.4 1.4-12.4z"/>
		<path id="Layer" class="s15" d="m1656.8 434.7l-0.2 16.6 0.1 13.8 0.5 13.8 0.5 13.8-0.3 13.9-0.7 14.3-1.2 14.7-1.9 15.1-2.4 16-3.1 16.9-3.8 18.5-1.6 6.6-2.1 6.4-2.3 5.9-2.8 5.6-3 5.1-3.4 4.8-3.8 4.4-4.1 4.1-5.1 4.1-5.7 3.7-6.2 3-6.5 2.6-14.4 4.9-12.6 3.7-6.2-15.9-5.9-16-5.6-16-5.2-16.2-6.7-23.9-6.1-24.2-5.1-24.4-4.4-24.8-0.6-2.5-1-2.5-1.3-2.2-1.7-2.1-3.6-3.6-3.9-3.3-4.9-3.5-5.1-3.2-5.5-2.7-5.7-2.3z"/>
		<path id="Layer" class="s15" d="m2215.7 448.7l103.2 33.9-6 16.2-6.2 15.9-6.5 15.4-6.7 15.1-7 14.7-7.2 14.2-7.4 13.8-7.7 13.5-3.4 5.4-3.4 4.9-3.6 4.5-3.7 3.9-3.9 3.5-3.9 3.1-4.1 2.6-4.1 2.1-4.7-13.9-4.2-14-3.7-14-3.2-14-2.7-14.1-2.1-14.1-1.8-14.1-1-14.1-0.6-9.9-0.2-9.7v-9.9l0.2-9.8-0.8-4.8-0.2-4.8 0.3-4.6 0.8-4.4 1-3.2 1.2-3.2 1.5-3.1z"/>
		<path id="Layer" class="s15" d="m1392.4 2292l-7.6 3.1-2.4 1.1-2.2 1.3-3.1 2.3-1.5 1.3-1 1.4-0.4 1.2-0.1 1.3 0.2 1.1 0.7 2.2 0.3 2-0.2 1.6-0.6 1.4-0.9 1.1-1.5 0.8-1.8 0.6-2.3 0.3-11 0.7-10.4 0.3-9.9 0.1-9.6-0.1-8.9-0.3-8.5-0.6-8.1-0.9-7.4-1.1-19.9-3.6-21-4.2-21.7-4.9-22.7-5.5-23.7-6.3-24.5-6.8-25.5-7.5-26.4-8.2 22.4-38.7 1.5-2.1 2-1.2 2-0.4 2.5 0.3z"/>
		<path id="Layer" class="s15" d="m2687.4 2296.4l-27.8 8.4-27.8 7.9-28 7.5-28.1 7-25.9 5.9-25.9 5.6-26.1 5.1-26.1 4.7-6.4 1-6 0.5-5.7 0.4h-5.4l-4.9-0.5-4.7-0.7-4.3-1-3.9-1.4-5.8-2.9-2.7-1.6-2.4-1.8-2.1-1.8-2-2.1-1.8-2.2-1.6-2.2-1.5-2.7-1.4-3-0.9-3.1-0.8-3.1-0.6-3.4-0.2-3.6v-3.8l0.2-3.8 237.7-57.6 2.5-0.4 2.5-0.1 2.1 0.3 2.2 0.5 1.9 1 1.9 1.5 1.6 1.6 1.5 2.1z"/>
	</g>
	<g id="Layer">
		<path id="Layer" class="s16" d="m1415.2 499.8l4.8 2.6 2.2 0.9 2.2 0.7 2 0.3 2 0.1 1.9-0.2 1.7-0.5 0.7-0.3 29.9-13.1 29.6-12.6 5.7 2.3 5.5 2.7 5.1 3.2 4.9 3.5 3.9 3.3 3.6 3.6 1.7 2.1 1.3 2.2 1 2.5 0.6 2.5 4.4 24.8 5.1 24.4 6.1 24.2 6.7 23.9 5.2 16.2 5.6 16 5.9 16 6.2 15.9-27.8 21.4-27.8 21-27.8 20.4-28 20.1-28 19.6-28.1 19-28.1 18.6-28.3 18.1-22.7 14-23.2 13.6-23.8 13.1-24.1 12.7-24.5 12.3-25.1 11.7-25.4 11.4-25.9 10.8-26.3 10.4-26.8 10-27.3 9.5-27.6 9-28.1 8.6-28.6 8.1-29 7.7-29.4 7.2-17.3 3.7-16.6 2.8-15.6 1.7-7.6 0.6-7.2 0.3-7.2 0.1-6.9-0.2-6.7-0.3-6.6-0.7-6.2-0.9-6.2-1.1-5.9-1.4-5.7-1.5 11.3-22.6 11.7-22.1 12.5-21.8 12.9-21.3 13.9-21.3 14.5-21 15-20.3 15.7-20.2 16.4-19.8 17-19.4 17.7-18.9 18.3-18.7 18.9-18.2 19.6-18 20.2-17.5 21-17.2 21.5-16.8 22.4-16.7 22.8-16.1 23.7-15.8 2.6-1.9 4.8-4 4.5-4.5 4.1-5.1 3.6-5.6 1.2-2.5 0.4-2.5-0.2-2.5-0.8-2.7-1.2-2.5-1.4-2.3-1.7-2.3-2-2.2-2.2-2-2.5-2-5.6-3.6 3.8 0.9 3.4 0.6 3.1 0.2h2.7l2.4-0.3 2.1-0.7 1.8-0.8 1.4-1.2 0.8-1.1 0.6-1.2 0.9-1.7 1.1-1.4 1.5-1.3 1.8-1 5-2.3 4.6-2.7 4.1-2.9 3.5-3 3-3.3 2.5-3.4 2-3.7 1.4-3.9 0.6-2.5 1.1-5.3 1.8-7.2 2.6-9.8 1.2-7.4 0.2-3.3-0.1-3.1-0.4-3.1-0.6-2.8-1.8-5.1-2.3-5-2.9-5.3-4.5-6.6-4.2-6.3-2.7-4.6-2.3-4.6-1.8-4.5-0.3-1.6v-1.8l0.6-1.6 0.7-1.5 1.2-1.2 1.5-1 1.5-0.6 1.7-0.2 2.3 0.4 5.8 2.2 5.6 2.6 5.5 2.7 5.3 3.1 4.7 3.1 4.4 3.3 10.1 7.5 10.1 6.7 10.1 6.1 10 5.2 10.1 4.6 10 4 10 3.1 10 2.4 40.3 8.3 43.7 8.2 1.6 0.1 1.4-0.2 1.4-0.5 1.2-0.9 1.3-1.5 1.1-2 0.6-2.3z"/>
		<path id="Layer" class="s16" d="m2318.9 482.6l14.4 5.6 15.6 6.5 16.9 7.2 18.2 8.2 4.3 1.9 4.4 1.4 4.2 1.1 4 0.6 3.9 0.3 3.8-0.2 3.6-0.5 3.5-0.9 4.5-1.8 2.7 2.4 2.3 1.4 2.4 1.3 2.7 1 2.7 0.8 2.6 0.3 2.6-0.2 2.4-0.9 2.2-1.3 6.8-5 6.9-4.4 7.1-4 7.1-3.5 7.2-3.1 7.2-2.5 7.5-2 7.4-1.6 6-0.9 6.1-0.5 6-0.3 6.1 0.1 6.2 0.3 6.3 0.7 6.3 0.8 6.4 1.4 2.2 0.6 2.1 1 2.1 1.6 2 2.1 2.4 2.5 2.8 1.8 2 0.9 2.2 0.4 2.4 0.1 2.7-0.2 2.3-0.2 2.2 0.2 2.8 0.5 2.7 1.2 108.6 55.3-7.2 5.9-8.1 7.5-8.8 8.6-9.8 10.2-3.6 4.4-1.4 2.2-1 2.1-0.8 2-0.5 2.1-0.2 2 0.1 2 0.4 1.9 0.7 1.9 0.9 2 1.4 1.8 1.6 1.8 2 1.8 4.7 3.4 21 13.5 20.5 13.9 19.9 14.2 19.5 14.6 18.9 14.9 18.5 15.2 18 15.7 17.4 15.8 17 16.4 16.4 16.7 16 17 15.4 17.4 14.9 17.6 14.4 18.1 13.9 18.4 13.4 18.8 7.1 10.3 14.3 21.8 14.3 23.4 14.4 25.1 14.7 26.7 14.8 28.3 14.9 29.9 15 31.7 15.2 33.1-6.8 0.5-18.2 0.6-18.1 0.3-18.3-0.3-18.3-0.6-18.3-1.2-18.3-1.7-18.4-2-18.4-2.6-18.3-3-18.4-3.5-18.4-4.1-18.5-4.4-18.5-4.9-18.5-5.5-18.5-5.8-18.7-6.3-24.7-9.1-24.4-9.4-24-10-23.6-10.4-23.4-10.8-22.8-11.3-22.5-11.7-22.2-12.1-21.8-12.7-21.3-13-21.1-13.4-20.7-14-20.2-14.3-19.9-14.8-19.5-15.3-19.2-15.7-14.3-12.4-13.9-12.8-13.4-13.2-12.8-13.5-12.3-13.7-11.7-14.3-11.2-14.4-10.8-14.8-10.6-15.6-10.3-15.7-9.8-15.9-9.5-16.1-9.1-16.2-8.8-16.4-8.3-16.5-8-16.8 4.1-2.1 4.1-2.6 3.9-3.1 3.9-3.5 3.7-3.9 3.6-4.5 3.4-4.9 3.4-5.4 7.7-13.5 7.4-13.8 7.2-14.2 7-14.7 6.7-15.1 6.5-15.4 6.2-15.9z"/>
		<path id="Layer" class="s16" d="m1108.8 2267.2l26.4 8.2 25.5 7.5 24.5 6.8 23.7 6.3 22.7 5.5 21.7 4.9 21 4.2 19.9 3.6 7.4 1.1 8.1 0.9 8.5 0.6 8.9 0.3 9.6 0.1 9.9-0.1 10.4-0.3 11-0.7 2.3-0.3 1.8-0.6 1.5-0.8 0.9-1.1 0.6-1.4 0.2-1.6-0.3-2-0.7-2.2-0.2-1.1 0.1-1.3 0.4-1.2 1-1.4 1.5-1.3 3.1-2.3 2.2-1.3 2.4-1.1 7.6-3.1 57 8.3 57.2 7.8 57.3 7.1 57.6 6.7 6.9 0.7 7 0.3 7.2 0.1 7.1-0.1 7.2-0.4 7.2-0.7 7.4-1 7.4-1.2 1.5-0.2 1.3 0.1 1 0.3 0.7 0.6 0.4 0.7 0.1 1v1.2l-0.4 1.6-5.1 15.4-5.7 15-2.6 6.9-2 7.5-1.8 7.9-1.3 8.4-1 8.8-0.5 9.2-0.1 9.7 0.2 9.7 0.6 10.3 1.1 10.3 1.4 10.3 1.9 10.2 2.3 9.7 2.4 9.1 2.9 8.5 2.9 7.6 3.4 7.2 3.7 6.9 4.1 6.7 4.5 6.4 6.2 7.9 6.8 7.4 7.3 6.9 7.7 6.2 8.3 5.8 8.7 5.1 8.9 4.6 9.2 3.9 9.6 3.1 9.7 2.5 9.8 1.7 9.8 1 9.8 0.3 9.8-0.5 9.8-1.2 9.6-1.9 6.1-1.7 6.1-2 6.1-2.2 5.9-2.6 5.8-2.9 5.6-3.2 5.6-3.3 5.3-3.8 3.1-1.9 3.2-1.7 3.2-1.1 3.3-0.6 3.4-0.3 3.5 0.3 3.6 0.7 3.6 1.2 12.2 5.3 16.9 8.2 13.6 6.8 10.3 4.7 9.3 3.8 8.5 2.9 8.2 2.2 7.9 1.5 7.4 0.7 7.2-0.2 13.2-1.3 12.5-1.9 6-1.4 5.8-1.5 5.7-1.6 5.4-2 5.4-2.1 5.3-2.2 4.9-2.5 4.9-2.6 4.7-2.9 4.5-3 4.4-3.2 4.2-3.4 6.7-6.2 6.3-6.8 5.8-7.2 5.2-7.9 5-8.5 4.3-8.9 3.9-9.5 3.5-10 2.6-9 2.4-8.8 2-8.7 1.7-8.8 1.6-8.6 1.1-8.6 0.8-8.4 0.6-8.3 0.2-8.3-0.1-8.3-0.3-8.2-0.7-8-1-7.9-1.2-8-1.5-7.8-1.9-7.8-2.2-7.5-2.4-7.6-2.7-7.4-3-7.4-0.8-2.8 0.1-1 0.3-0.7 0.7-0.4 0.9-0.1 2.9 0.5 5.2 1.6 5.6 1.1 5.6 0.6 5.9 0.2 30.2-0.3 30.5-1 30.5-1.8 30.7-2.6 30.9-3.3 30.9-4.1 31.1-4.8 31.3-5.6-0.2 3.8v3.8l0.2 3.6 0.6 3.4 0.8 3.1 0.9 3.1 1.4 3 1.5 2.7 1.6 2.2 1.8 2.2 2 2.1 2.1 1.8 2.4 1.8 2.7 1.6 5.8 2.9 3.9 1.4 4.3 1 4.7 0.7 4.9 0.5h5.4l5.7-0.4 6-0.5 6.4-1 26.1-4.7 26.1-5.1 25.9-5.6 25.9-5.9 28.1-7 28-7.5 27.8-7.9 27.8-8.4 8 14.2 7.8 14.4 7.5 14.3 7.2 14.4 7 14.5 6.7 14.6 6.4 14.6 6.3 14.7 5.9 14.8 5.8 14.8 5.3 14.9 5.3 15 4.9 15 4.7 15.1 4.4 15.2 4.2 15.2 5.2 20.6 4.7 20.6 4.3 20.8 3.8 20.9 3.4 21 2.9 21.1 2.5 21.3 2 21.3-9.3-14.1-9-12.6-1.2-1.6-4-6.2-3.6-6.5-3-6.8-2.8-7.1-3-8.4-3.9-8.4-4.4-8.3-5-8.3-5.7-8.5-6.2-8.4-7-8.5-7.7-8.6-8.2-8.5-9-8.5-9.6-8.8-10.2-8.8-11.1-8.8-11.9-9.1-12.7-9.3-13.9-9.9-47.5-32.6-45.6-30.4-43.3-28.3-41.4-25.9-22.5-16.6-5.1-3.4-5.2-2.9-5.4-2.3-5.6-1.8-4.8-0.9-4.9-0.7-5.1-0.2-5.1 0.2-5.4 0.7-5.3 0.9-5.5 1.5-5.6 1.8-19.6 6.9-16.6 5.3-7.2 1.8-6.3 1.6-5.7 1.1-4.8 0.6-33 3.4-32.7 3.7-32.3 4.1-32 4.4-3.8 0.8-3.5 1.6-3.3 2.2-2.8 2.6-2.3 3.2-1.7 3.5-1.1 3.8-0.3 3.8-0.5 21.9-0.5 9.9-0.8 9.3-0.9 8.9-1.1 8.5-1.5 8.1-1.6 7.8-1.9 7.6-2 7.3-2.4 7.2-2.7 6.8-2.8 6.7-3.2 6.4-3.4 6.3-3.7 6-4.6 6.9-5 6.4-5.4 6.4-5.8 6.1-3.2 3-3.4 2.9-3.6 2.8-3.9 2.6-8.6 5.1-11.8 6.2-12 6.3-8.8 5.2-3.8 2.7-3.8 2.8-3.2 3-3.2 3.1-2 1.7-2.3 1.1-2.7 0.8-3 0.1-16.8-1.1-16.9-0.3-12.3 0.2-12.2 0.5-5.7 0.3-6-0.2-6.3-0.3-6.4-0.5-13.9-2-17.8-3.3-7.7-1.4-8-1-8.4-0.7-8.7-0.4-9.1-0.1-9.9 0.2-25.8 1.6-16.5 0.9-12.1 0.6-10.9 0.1-10-0.2-9.7-0.7-9.2-1.2-8.9-1.5-8.6-2-10.6-3.1-10-3.5-9.9-3.8-9.4-4.4-9.1-4.8-8.6-5.2-8.3-5.7-8-6.2-6.6-5.6-6.3-5.8-6-6.2-5.8-6.6-5.4-6.8-5.3-7.1-4.9-7.5-4.7-7.8-2.9-5.1-2.6-5.3-2.4-5.4-2.2-5.3-2.2-6.2-1.9-6.2-1.7-6.2-1.3-6.4-1.2-6.6-0.8-6.5-0.7-6.7-0.3-6.8-2.4-76.3-0.1-1.5-0.4-1.2-0.5-1.1-0.7-1-0.9-0.7-1.2-0.4-1.2-0.3-1.6-0.1-24.3-0.4-24.3-1-24.3-1.7-24.4-2.4-24.3-3.2-24.3-3.8-24.4-4.5-24.3-5.3-7.7-1.4-7.5-0.7-7.4 0.2-7.3 0.7-5.6 1.2-5.6 1.6-5.4 1.9-5.5 2.5-35.3 18-30.7 16.1-28.4 15.3-26.5 14.7-25.2 14.6-23.9 14.2-22.8 14.2-21.7 14.1-21.1 14.5-20.3 14.4-19.4 14.6-18.5 14.7-17.7 14.8-17 15-16.1 15.2-15.4 15.3-2.3 2.6-2.2 2.8-2 2.9-1.7 3.2-1.5 3.4-1.5 3.4-1.1 3.7-0.9 3.7-0.8 4-0.4 4-0.4 4.1v4.1l0.1 4.3 0.5 4.3 0.5 4.2 0.9 4.2 1 2.6 0.6 1.1 0.9 0.9 1 0.7 1.1 0.5 2.7 0.6 4.5 0.4 4.2 0.8 4 0.9 3.9 1.2 3.6 1.6 3.4 1.7 3 2 3 2.3 3.3 3.1 3 3.5 2.7 3.9 2.3 4.3-7.9-2.8-8-2.3-8-2-7.9-1.8-8-1.4-8-1.1-8.1-0.9-8-0.4-11.5-0.1-11.5 0.4-2.3-0.1-0.8-0.3-0.7-0.6-0.5-0.7-0.3-0.9-0.1-2.4 3.5-23.9 4.3-24 5-24.1 5.8-24 6.5-24.1 7.2-24.2 8.1-24.4 8.8-24.5 9.5-24.5 10.3-24.7 11.2-24.9 11.8-24.9 12.7-25.4 13.5-25.4 14.3-26z"/>
	</g>
	<g id="Layer">
		<path id="Layer" class="s17" d="m413.8 654.7l-9 4.8-8.8 5-8.4 5.1-8.1 5.3-7.7 5.4-7.3 5.7-6.9 5.8-6.7 5.9-6.3 6.3-5.9 6.2-5.4 6.6-5.2 6.7-4.8 6.8-4.5 7-4 7.2-3.8 7.3-3.1 7-2.9 7.2-2.5 7.2-2.2 7.3-2 7.6-1.5 7.6-1.3 7.9-1 8-0.4 3.1-0.6 2.3-0.7 1.4-1 0.7-1.1-0.3-1.2-1.1-1.5-1.8-1.5-2.8-7.2-13.5-7.5-13.3-7.5-13-7.7-12.8-6.2-9.2-6.8-8.7-4.2-4.6-4.2-4.3-4.5-4.3-4.9-4.2-5-3.9-5.3-3.8-5.6-3.7-5.8-3.6-6-3.4-6.4-3.2-14-6.7-15.9-6.6-20.7-7.9-1.5-0.9-0.9-0.9-0.6-1.1-0.4-1.2v-1.4l0.2-1.2 0.6-1.2 0.9-0.9 1-0.8 13.5-8.1 13.3-8.3 12.7-8.7 12.3-9 6.1-4.7 5.6-4.7 5.3-4.8 5.1-4.9 4.7-5.1 4.3-5.1 4.2-5.3 3.8-5.3 5.3-8.3 4.7-8.8 4.4-9.3 3.8-10 3.6-10.7 3.2-11.7 3.2-13.2 3.1-15.3 0.6-2.2 0.5-1.5 0.8-1 0.9-0.5 0.9 0.2 0.9 0.6 1.2 1.2 1.3 1.9 6.7 11.5 8.7 15.3 7.1 12.6 5.4 9.1 4.9 7.9 4.8 7 5.1 6.7 5.2 6.1 5.3 5.7 5.7 5.3 7.5 6.2 8.2 5.7 7.8 4.8 7.9 4.5 8.2 4.3 8.4 4 8.7 3.7 8.8 3.4 9.1 3.2 9.3 2.9 1.6 0.6 1.3 0.9 1.3 1.4 1 1.6 0.4 2v2l-0.4 1.9-0.9 1.7-1.3 1.4z"/>
		<path id="Layer" class="s17" d="m3514.2 1110.6l-6.1 0.5-14.2 1.3-5.4 0.9-4.9 0.9-4.7 1.1-4.5 1.4-4.4 1.5-4 1.8-3.2 1.6-10.7 6-10.1 6.6-9.5 6.8-9 7.3-8.4 7.7-7.9 8.1-7.2 8.5-6.7 8.9-1.8 2.5-1.3 1.9-1.2 1.2-1.1 0.6-0.8 0.1-0.7-0.5-0.7-1.1-0.4-1.6-0.2-2.2-2.1-23.7-1.1-9.2-1.2-8.3-1.3-8-1.6-7.4-1.8-7-2-6.7-2.3-6.5-2.4-6-2.8-5.8-3.1-5.5-3.3-5.1-3.5-4.7-3.9-4.6-4.1-4.2-1.1-1-9.7-8.7-10.2-8.5-1.6-1.5-1.2-1.3-0.6-1.1v-1.1l0.6-0.9 1.1-0.6 1.6-0.6 2.2-0.4 10.1-1.5 9.7-2 9.5-2.5 9.2-3 8.9-3.4 8.5-3.9 8.2-4.4 7.9-4.8 5.6-3.9 5.5-4 5.2-4.4 5.1-4.6 4.9-4.8 4.8-5 4.6-5.4 4.4-5.6 1.4-1.6 1.3-1.1 1.1-0.6 1.1-0.1 1 0.6 0.9 1 0.8 1.4 0.6 2.1 4.6 16.7 4.3 14 4.4 12.6 4.4 11.2 5.1 10.6 5.3 10 5.8 9.3 6.5 8.7 5.8 7.1 6.4 6.8 6.7 6.6 7.3 6.2 1.4 1.5 1 1.6 0.5 2 0.1 2.1-0.2 1.2-0.5 0.6-0.8 0.2-1.2-0.4-1.6-0.5z"/>
		<path id="Layer" class="s17" d="m125.8 1568.3l3.6 5 4.1 4.7 4.4 4.6 5 4.2 5.4 4.2 6 3.9 6.3 3.8 6.9 3.6 7.3 3.4 7.8 3.2 8.2 2.9 8.8 2.7 9.2 2.7 9.7 2.5 10.2 2.2 11.1 2.2 1.9 0.4 1.6 0.7 1 0.8 0.5 0.9 0.1 1.1-0.3 1.3-0.8 1.4-1.3 1.6-5.4 6.1-5 6.1-4.6 6.2-4.2 6.2-3.8 6.4-3.5 6.3-3.2 6.6-2.7 6.6-3 8.2-2.4 8.3-1.9 8.7-1.5 8.9-1.1 9.2-0.5 9.6-0.1 10 0.3 10.4v3l-0.2 2.2-0.4 1.5-0.8 0.6-1.1-0.1-1.2-0.7-1.5-1.7-1.9-2.4-9.3-12.8-8.7-10.9-8.5-9.5-4.3-4.3-4.1-4-4.3-3.6-4.4-3.5-4.4-3.2-4.3-2.9-4.5-2.7-4.6-2.4-4.6-2-4.7-2-5-1.7-4.9-1.4-5-1.2-5.3-1-5.2-0.6-5.4-0.5-5.5-0.2h-5.7l-4-0.1-3.2-0.4-2.1-1-0.7-0.7-0.5-0.6-0.2-0.9v-1l0.8-2.2 1.6-2.6 2.6-3.1 6.7-7.4 6.2-7.7 5.4-7.8 5-8.1 4-7.8 3.7-8.1 3.3-8.5 2.9-8.8 2.5-9.3 2.1-10 1.8-10.7 1.7-11.5 0.3-2 0.4-1.5 0.7-0.9 0.6-0.4h0.9l0.9 0.6 1.1 1.1z"/>
	</g>
	<g id="Layer">
		<path id="Layer" class="s18" d="m1415.2 499.8l-0.4 2.7-0.6 2.3-1.1 2-1.3 1.5-1.2 0.9-1.4 0.5-1.4 0.2-1.6-0.1-43.7-8.2-40.3-8.3-10-2.4-10-3.1-10-4-10.1-4.6-10-5.2-10.1-6.1-10.1-6.7-10.1-7.5-4.4-3.3-4.7-3.1-5.3-3.1-5.5-2.7-5.6-2.6-5.8-2.2-2.3-0.4-1.7 0.2-1.5 0.6-1.5 1-1.2 1.2-0.7 1.5-0.6 1.6v1.8l0.3 1.6 1.8 4.5 2.3 4.6 2.7 4.6 4.2 6.3 4.5 6.6 2.9 5.3 2.3 5 1.8 5.1 0.6 2.8 0.4 3.1 0.1 3.1-0.2 3.3-1.2 7.4-2.6 9.8-1.8 7.2-1.1 5.3-0.6 2.5-1.4 3.9-2 3.7-2.5 3.4-3 3.3-3.5 3-4.1 2.9-4.6 2.7-5 2.3-1.8 1-1.5 1.3-1.1 1.4-0.9 1.7-0.6 1.2-0.8 1.1-1.4 1.2-1.8 0.8-2.1 0.7-2.4 0.3h-2.7l-3.1-0.2-3.4-0.6-3.8-0.9-8.1-6.9-29.9-25.3-22.3-18.4-20.6-16.2-19.3-14.5-18.9-13.3-18.3-11.9-17.8-10.8-17.5-9.5-8.9-4.4-8.8-4.1-8.9-4-8.7-3.5-8.8-3.4-8.6-2.9-8.7-2.7-8.6-2.4-8.6-2.2-8.6-1.7-8.4-1.5-8.7-1.4-8.4-0.9-8.6-0.7-8.5-0.4-8.5-0.1-4.4 0.2-4.1 0.5-4 1-3.9 1.3-3.7 1.7-3.6 2-3.4 2.4-3.2 2.8-3.1 3.3-2.9 3.4-2.7 3.8-2.6 4.3-2.5 4.6-2.4 4.9-2 5.2-1.9 5.6-1.8 5.9-1.5 6.2-1.4 6.4-1.1 6.7-4.2 27.8-3.6 25.7-2.9 24.5-2.4 23.2-2 22.4-1.5 21.7-1 21-0.5 20.5-0.1 20.2 0.5 20 0.9 19.6 1.5 19.2 1.9 19.1 2.4 18.9 3 18.7 3.4 18.7 4.7 21.6 5.4 21.6 0.5 2.7 0.2 2.8-0.1 2.8-0.4 2.8-0.7 2.6-1.1 2.6-1.3 2.4-1.6 2.3-6 7.7-5.8 7.8-5.4 7.9-5 8-4.9 8.3-4.3 8.2-4.1 8.4-3.7 8.5-2 4.3-2 3.1-1.8 1.8-0.9 0.4-0.9 0.1-0.7-0.3-0.9-0.5-1.5-2-1.6-3.3-1.4-4.6-5.9-23.3-5.3-23.3-4.7-23.3-4.1-23.4-3.6-23.5-3.1-23.5-2.5-23.5-1.9-23.6-1.2-19.3-0.8-19.2-0.3-19.3-0.1-19.4 0.4-19.2 0.7-19.4 1.1-19.5 1.5-19.4 1.8-19.5 2.3-19.5 2.5-19.4 2.9-19.5 3.4-19.6 3.8-19.6 4-19.6 4.5-19.6 3.1-12.1 3.1-11.6 3.5-11.1 3.8-10.7 3.8-9.8 4.1-9.4 4.2-8.8 4.5-8.2 4.6-7.4 4.7-6.9 4.9-6.3 5.1-5.6 5.2-4.9 5.3-4.3 5.6-3.7 5.7-2.9 6.4-2.8 6.7-2.4 6.9-2 7.1-1.7 7.5-1.3 7.5-1 7.9-0.6 8.1-0.3h13.6l13.4 0.1 13.6 0.6 13.5 0.6 13.7 1 13.5 1.2 13.6 1.4 13.6 1.8 13.8 2 13.6 2.3 13.8 2.4 13.6 2.7 13.8 3.1 13.8 3.2 13.9 3.5 13.8 3.8 14.1 4 13.9 4.3 13.9 4.5 14.1 4.8 14.1 5.1 14.2 5.3 14.3 5.5 14.3 5.9 29 12.5 29.4 13.7 29.6 14.6 30.4 16 13.9 7.7 13.2 7.8 12.8 7.8 12.3 7.9 11.7 7.9 11.2 8 10.6 8.1z"/>
		<path id="Layer" class="s18" d="m2690.9 560.1l-108.6-55.3-2.7-1.2-2.8-0.5-2.2-0.2-2.3 0.2-2.7 0.2-2.4-0.1-2.2-0.4-2-0.9-2.8-1.8-2.4-2.5-2-2.1-2.1-1.6-2.1-1-2.2-0.6-6.4-1.4-6.3-0.8-6.3-0.7-6.2-0.3-6.1-0.1-6 0.3-6.1 0.5-6 0.9-7.4 1.6-7.5 2-7.2 2.5-7.2 3.1-7.1 3.5-7.1 4-6.9 4.4-6.8 5-2.2 1.3-2.4 0.9-2.6 0.2-2.6-0.3-2.7-0.8-2.7-1-2.4-1.3-2.3-1.4-2.7-2.4 6.2-8.9 6.1-7.2 5.8-5.9 2.7-2.3 2.7-2 15.1-9.8 15.3-9.5 15.2-9.2 15.4-8.9 15.5-8.5 15.5-8.3 15.7-7.9 15.7-7.7 15.9-7.4 16-7 16-6.7 16.2-6.4 16.2-6.2 16.3-5.9 16.4-5.5 16.4-5.2 14-4.2 14.1-3.9 14.1-3.7 14.1-3.5 14.2-3.3 14.3-3.1 14.4-2.8 14.4-2.7 14.5-2.4 14.6-2.2 14.5-1.9 14.7-1.9 14.8-1.5 14.8-1.3 14.9-1.3 15-0.8 17.9-0.7 16 0.2 7.3 0.5 7 0.5 6.6 0.8 6.4 1.1 6 1.2 5.7 1.4 5.5 1.8 5.2 1.8 5 2.2 4.8 2.4 4.5 2.6 4.5 3 3.9 2.9 3.6 3 3.6 3.4 3.4 3.6 3.4 3.9 3.2 4 3 4.4 3 4.6 2.8 4.9 2.9 5.2 5.2 11.2 4.8 12.5 4.8 14 7.3 25.2 6.7 25.4 5.8 25.4 4.9 25.6 4.2 25.3 3.5 25.4 2.6 25.4 1.8 25.7 1.3 25.8 0.4 25.9-0.3 26.3-1.1 26.4-1.8 26.5-2.6 26.8-3.3 27-4 27.3-4.9 27.5-5.5 27.8-6.3 28-7.1 28.4-1.5 4.8-1.7 3.5-0.9 1.2-0.8 1-1 0.5-1.1 0.4h-1.1l-1.1-0.4-1.1-0.6-1.2-1-2.5-3-2.8-4.1-30.3-52.8-2.5-5-2.1-5.2-1.5-5.3-1-5.5-0.4-5.6 0.1-5.6 0.5-5.5 1.2-5.4 6.8-27.3 3-13.4 2.7-13.2 2.5-13 2.2-12.9 1.9-12.7 1.6-12.5 1.4-12.5 1.1-12.3 0.9-12 0.7-11.9 0.3-11.8v-11.6l-0.2-11.4-0.5-11.2-1.5-24.7-2.2-24.7-2.7-25-3.3-25.1-3.8-25.4-4.4-25.6-5.1-25.7-5.5-25.8-1.3-5-1.6-4.5-1.7-4.2-2.1-3.8-2.3-3.4-2.5-3.2-2.8-2.7-3-2.3-4.1-2.5-4.4-1.7-4.8-1.3-5.1-0.8-7.6-0.5-7.5-0.1-7.8 0.1-7.9 0.5-8.1 0.8-8.1 1.2-8.3 1.4-8.3 1.8-8.6 2-8.8 2.6-8.8 2.7-9 3.2-9 3.4-9.3 3.7-9.2 4-9.4 4.4-9.5 4.7-9.7 5.2-9.8 5.3-9.8 5.7-10 6-10 6.3-20.2 13.5-20.4 14.6-20.5 15.7-20.4 16.7z"/>
	</g>
	<g id="Layer">
		<path id="Layer" class="s19" d="m880.6 1990.2l31.3 13.9 31.5 13.6 31.6 13 31.8 12.5 32 12.1 32 11.6 32.3 11.3 32.4 10.7 22.2 7 22.3 6.8 22.3 6.7 22.5 6.5 22.4 6.1 22.6 6 22.6 5.7 22.7 5.6 22.8 5.4 22.7 5.1 23 4.8 22.9 4.7 23.1 4.5 23.1 4.3 23.2 4 23.2 3.9 31.9 4.7 31.8 4.1 32.1 3.5 32.1 3 29.2 2.1 31.8 1.8 34.8 1.6 47.3 1.6 66.8 2.6 25.5 1.2 23.5 1.5 25.3 1.4 25.2 0.9 24.9 0.2 24.6-0.2 24.5-0.9 24.2-1.3 24.1-2 23.7-2.5 10.9-1.1 12-0.8 13.3-0.5 18.2-0.5 20.5-0.4 15-0.7 13.6-1 12.4-1.6 39.1-5.3 38.6-4.8 38.4-4 38-3.4 16.6-1.5 16.7-1.8 17.3-2.3 17.5-2.6 18-3 18.3-3.4 18.8-3.7 19.3-4.1 19.6-4.5 20-4.8 20.8-5.3 21.7-5.8 46.6-13.1 56.9-17 31.5-9.8 28.7-9.2 26-8.8 23.3-8.5 20.6-7.9 17.9-7.6 15.1-7.2 6.5-3.4 5.9-3.3 13.2-7.6 12.2-6.6 11.6-6.1 10.9-5.2 10-4.5 9.1-3.7 8.6-3 7.6-2.2-11 10.8-11.4 10.5-11.6 10.2-11.9 9.9-12.3 9.8-12.4 9.4-12.8 9.2-13 8.9-13.3 8.7-13.5 8.4-13.9 8.2-14.2 7.9-14.3 7.7-14.7 7.4-15 7.1-15.2 6.9-19 8.3-18.9 7.8-18.8 7.7-18.7 7.2-18.6 6.9-18.5 6.6-18.4 6.2-18.4 5.9-18.2 5.6-18.2 5.3-18 4.9-17.9 4.6-17.8 4.3-17.8 3.8-17.7 3.6-17.5 3.3-33.9 5.8-36.2 5.9-38.1 5.9-40.2 6.1-42.2 6.1-44.4 6.1-94.9 12.4-4.5 0.3-4.3-0.3-4.4-1.1-4.4-1.6-11-4.5-10.9-3.8-11.2-2.9-11.2-2.2-10.9-1.2-10.9-0.6-11.1 0.2-11.2 0.8-11.2 1.7-11.4 2.3-11.5 3-11.6 3.8-5.2 1.5-5.4 1-5.6 0.5-5.6-0.1-5.8-0.5-5.8-1.2-5.7-1.7-5.5-2.1-15.3-6.4-15.4-5.7-15.4-5.2-15.3-4.4-7.3-1.9-7.3-1.4-7.2-1.1-7.1-0.7-7.1-0.4h-7.1l-7 0.4-7 0.8-7.4 1.2-7.3 1.5-7.2 2.1-7.2 2.4-7.2 2.9-7 3.2-7 3.8-7 4-25.3 0.6-67.1-8.2-119.7-15.4-31.7-4.4-31.1-4.6-30.3-5-29.7-5.4-28.9-5.6-28.3-6.1-27.4-6.3-26.9-6.7-23.9-6.5-23.7-6.9-23.3-7.3-23.1-7.8-22.8-8.1-22.5-8.6-22.3-9-21.9-9.5-21.6-9.9-21.5-10.3-21-10.7-20.9-11-20.5-11.7-20.2-11.9-20.1-12.5-19.7-12.8-0.1-0.1-7.4-5.1-7.4-5.6-7.3-6-7.3-6.5-7.3-6.9-7.2-7.4-7.2-7.8z"/>
		<path id="Layer" class="s19" d="m280.1 2441.1l22.7 40.8 10.2 17.6 9.4 16 8.7 14 7.9 12.4 7.1 10.5 6.3 8.7 7 8.9 7.8 8.9 8.3 8.9 9.1 9 9.8 9 10.4 9 11 9.1 11.9 9.2 12.3 8.9 13 9.2 13.8 9.3 14.9 9.7 15.7 9.7 17.1 10.5 44.3 26.2 8.9 5.1 8 4.5 8.1 4.1 8.1 3.8 8.2 3.3 8.3 3.1 8.3 2.6 8.4 2.2 8.6 1.9 11.8 2 12 1.3h3l2.8-0.4 2.8-0.9 2.6-1.3 2.4-1.8 2.1-2 1.8-2.3 1.3-2.7 10.8-24.7 11.5-24.2 12-23.6 12.6-23.1 13.2-22.6 13.7-22 14.2-21.4 14.9-20.9 4.6-5.7 7.6-8.5 24.1-25.8 5.2-5.6 4.7-5.7 4.4-5.6 3.9-5.7 3.5-5.8 3.2-5.7 2.7-5.8 2.4-5.8 63.6 25.6 2.2 1.3 1.4 1.8 0.6 2.1-0.1 2.5-32.3 156.9-1 3.9-1.4 3.7-1.7 3.7-2 3.5-2.5 3.1-2.7 3.1-2.9 2.6-3.2 2.4-11.5 8.1-11 8.6-10.4 8.8-9.7 9.2-9.2 9.7-8.7 10-8.1 10.3-7.4 10.9-4.3 6.8-4.1 6.9-3.9 7.1-3.6 7.2-3.5 7.3-3.2 7.5-3 7.6-2.8 7.8-2.6 8-2.3 8-2.2 8.2-1.8 8.4-1.8 8.5-1.5 8.6-1.2 8.8-1.1 9-0.3 1.7-0.6 1.5-0.8 1.3-0.8 0.8-1.2 0.6-1.4 0.3h-1.5l-1.7-0.3-19.5-4.8-19.5-5.3-19.2-5.8-19-6.3-18.7-6.8-18.5-7.3-18.2-7.7-18-8.2-17.5-8.7-17.3-9.2-16.7-9.5-16.6-10-16-10.3-15.5-10.8-15.1-11.1-14.7-11.6-14-11.7-13.7-12.1-13.1-12.6-12.5-12.7-12-13.2-11.5-13.3-11-13.8-10.4-14-9.8-14.3-9.2-14.4-8.7-14.8-8.1-15-7.5-15.3-6.9-15.5-6.4-15.6-5.7-15.9-3.7-11.4-2.6-9.1-2.3-9.4-2-9.9-1.6-10.3-1.4-10.8-1.1-11.1-0.6-11.5z"/>
		<path id="Layer" class="s19" d="m1781.5 2951.1l4.4 20.9 3.8 20.7 3.2 20.3 2.6 19.9 2 19.6 1.4 19.1 0.8 19 0.2 18.5-0.2 8.7-0.5 8.7-0.9 8.4-1.1 8.3-1.4 8.1-1.6 7.9-2.1 7.7-2.3 7.5-2.6 7.4-3 7.1-3.2 6.9-3.5 6.7-3.8 6.5-4.2 6.3-4.3 6-4.6 5.7-5.8 6.6-6.3 6.1-6.5 5.9-7 5.4-7.3 5.1-7.6 4.8-8 4.4-8.3 4.1-8.7 3.6-8.9 3.3-9.2 2.9-9.5 2.5-9.8 2.1-10.1 1.8-10.3 1.3-10.6 1-9.4 0.5-9.3 0.2-9.1-0.1-8.9-0.4-8.8-0.7-8.5-1-8.4-1.3-8.2-1.6-8.1-2-7.9-2.2-7.7-2.5-7.5-2.8-7.4-3.2-7.1-3.4-7-3.7-6.8-4.1-6.6-4.4-6.3-4.6-6.2-4.9-6.1-5.2-5.7-5.5-5.7-5.8-5.3-6.2-5.3-6.3-5-6.7-4.8-7-4.6-7.2-4.5-7.6-4.3-7.7-3.9-8.1-4-8.5-3.6-8.7-7.5-19.3-7.5-19.6-7.3-19.9-7.2-20.3-7.2-20.7-6.9-21.1-13.9-44.2-13.5-45.7-14-50.3-15.3-56.5-20.5-79.2-14.8-57.1-1.1-3.4-1.4-3.2-1.8-2.9-2-2.6-3-2.8-3.5-2.4-4.1-1.9-4.5-1.5-5-1-5.5-0.6-6-0.1-6.6 0.4 8.8-2.1 9.1-1.7 9.4-1.3 9.6-1 9.9-0.5 10.3-0.2 10.5 0.2 10.7 0.6 3.1 0.6 2.7 1.3 2.4 2 1.8 2.5 3.8 7.4 3.4 7.8 3.1 8.3 2.7 8.8 6.9 26.6 6.2 26.3 5.4 26 4.7 25.9 3.3 17.3 3.9 17.8 4.6 18.1 5.4 18.6 22 71.5 4.9 15.2 5.3 15.5 5.7 16 6.1 16.4 6.6 16.8 6.9 17.2 7.3 17.6 7.8 18 4.8 10.4 5.4 9.9 5.7 9.8 6.2 9.3 6.6 9 7.1 8.5 7.3 8 7.8 7.5 8 7 8.4 6.5 8.7 6 8.8 5.4 9.2 4.8 9.4 4.4 9.6 3.6 9.8 3.1 8.7 2.3 8.9 1.7 9 1.3 9.1 0.8 5.7 0.2h5.8l5.8-0.3 5.9-0.6 5.9-0.8 6.1-1.1 6-1.3 5.9-1.7 6-1.8 5.9-2.1 5.8-2.3 5.8-2.5 5.6-2.9 5.6-2.9 5.4-3.2 5.1-3.4 5-3.5 4.7-3.6 4.6-3.9 4.4-3.9 4.1-4.2 3.9-4.1 3.7-4.4 3.4-4.4 3.2-4.6 3-4.7 2.7-4.7 2.4-4.8 2.1-4.9 2-5 1.6-5 1.3-5.1 0.6-6 0.3-12.9 0.4-46.9 0.1-7.4 0.4-7.1 0.6-7 0.8-6.9 1-6.7 1.2-6.5 1.5-6.4 1.7-6.1 1.8-6.1 2.1-5.9 2.3-5.7 2.5-5.4 2.9-5.4 2.9-5.1 3.2-5.1z"/>
		<path id="Layer" class="s19" d="m2525.3 2696.2l-3.1-0.2-2.9 0.2-2.6 0.7-2.3 1.1-1.8 1.2-1.6 1.4-1.5 1.8-1.2 1.9-1.1 2.3-0.9 2.5-1.5 6-5.1 28.2-6.3 30.1-7.3 32.1-8.5 34.4-9.4 35.8-11 39.3-12.5 43.4-17.3 58.4-2.5 8.4-5.7 18.5-6 18.5-6.6 18.6-6.9 18.8-7.2 18.7-7.8 18.7-8.1 18.8-8.5 18.9-6.6 13.2-7.1 12.5-7.7 11.7-4 5.6-4.2 5.3-4.2 5.2-4.5 4.9-4.6 4.8-4.7 4.6-4.9 4.4-4.9 4.3-5.1 4-5.3 3.9-10.1 6.4-10.4 5.9-11 5.3-11.4 4.6-11.8 3.9-12.4 3.3-12.8 2.6-13.3 2-14.5 1.4-14.4 0.9-14.2 0.1-13.8-0.6-13.4-1.2-13.1-2-12.7-2.6-12-3.3-11.5-3.9-11-4.5-10.4-5.2-9.7-5.8-9.2-6.3-8.4-6.9-4.1-3.8-3.8-3.9-7.1-8.1-6.4-8.3-5.6-8.9-4.9-9.4-4.4-9.9-3.6-10.4-2.9-10.7-2.5-11.3-1.6-11.7-1.2-12.5-0.8-12.7-0.4-12.9-0.1-13.1 0.3-13.4 0.7-13.6 1.1-13.6 1.4-14.1 1.7-14.2 2.2-14.3 2.7-14.7 2.8-14.8 3.4-15 3.6-15.3 4.1-15.4 4.5-15.7 0.6 12.7 1.5 14.2 2.5 15.9 3.1 17.3 2.7 14.8 1.7 14.9 1.1 14.8 0.2 14.7-0.5 14.3-0.5 10.3 0.1 9.7 0.7 9.2 1.1 8.6 1.6 8.1 2.1 7.5 2.6 7 3.2 6.5 5.7 9.7 6 9.1 6.4 8.3 6.6 7.8 6.9 7.1 7.3 6.5 7.5 5.8 8 5.1 6.4 3.6 6.6 3.2 6.7 3 7 2.5 7.4 2.2 7.5 1.8 7.9 1.6 8 1 8.3 0.9 8.9 0.5 9 0.2 9.3-0.1 9.7-0.6 10.2-0.7 10.6-1.1 11.2-1.6 8.3-1.5 8.3-2 7.9-2.5 7.8-3.1 6.3-2.9 6.1-3.3 6-3.6 5.8-4.1 5.7-4.3 5.6-4.7 5.2-5.2 5.3-5.5 5.1-5.8 5.1-6.2 4.8-6.6 4.7-7 4.5-7.3 4.5-7.8 4.3-8.2 4.3-8.7 12.3-26.3 11.2-26.2 10.3-25.7 9.3-25.3 8.5-25.1 7.4-24.7 6.5-24.3 5.5-24 4.3-19.9 4.7-19.6 5-19.4 5.2-19.1 4.6-17.7 4.1-18.5 3.6-19.5 2.9-20.3 1.2-7.6 1.6-7.5 1.8-7.1 2.2-7 2.5-6.9 2.9-6.5 3.2-6.4 3.6-6.1 0.2-0.5 1.7-2.3 2.1-1.6 2.2-1 2.4-0.5 14.4-1.8 14.3-1.5 4.8-0.1 4.1 0.5 1.7 0.6 1.6 0.6 1.4 1 1.1 1 1.5 2.3z"/>
		<path id="Layer" class="s19" d="m1985.3 2799.9l-6.6 22.9-6.4 22.9-6.1 23-5.8 22.9-5.6 23-5.3 23.2-5 23.1-4.7 23.3-5.2 27-4.7 27-4.3 27.2-4.1 27.3-1.5 13.6-0.9 15.8-0.4 17.9 0.1 20-0.1 1.5-0.5 1.4-0.7 1.5-0.9 1.2-1.2 1-1.3 0.6-1.6 0.6-1.5 0.1-35.1 0.1-2-0.1-1.7-0.5-1.4-0.6-1.1-0.9-1-1.1-0.6-1.4-0.5-1.7-0.1-1.9-0.3-17.9-0.6-17.7-0.9-17.9-1.1-17.8-1.3-17.8-1.7-17.9-1.8-17.8-2.2-17.9-2.4-17.8-2.7-17.9-2.8-17.9-3.2-17.9-3.4-17.9-3.7-17.9-3.9-17.9-4.2-18 5.7 5.5 5.9 5.2 6.7 5.6 6.9 5.4 7 5.1 7.2 4.9 7.5 4.7 7.6 4.4 7.8 4.3 8 4.1 2.5 1 2.5 0.5h2.8l2.7-0.4 3.9-1.2 3.8-1.7 3.5-1.8 3.2-2.2 3.5-2.9 3.2-3.3 2.9-3.7 2.5-4.1 7.4-13.3 8.1-13.7 3.8-7 3.4-7.9 2.8-8.6 2.4-9.4 1.9-7.6 3.1-9.3 3.9-9.1 4.6-8.8z"/>
		<path id="Layer" class="s19" d="m1252.1 2847.5l9.6 41.4 10 41.4 10.8 41.5 11.4 41.4 12 41.4 12.7 41.3 13.2 41.4 13.9 41.4 0.5 2.3-0.1 1-0.4 1-0.5 0.7-0.8 0.7-2.2 1.1-13.5 4-13.6 3.9-13.5 3.4-13.4 2.9-13.5 2.8-13.4 2.3-13.3 1.8-13.3 1.7-13.2 1.2-13.3 0.8-13.1 0.5-13.1 0.2-13.2-0.2-13-0.7-13-0.8-13.1-1.4-12.4-1.6-12.6-1.9-12.4-2.3-12.5-2.6-12.4-2.9-12.3-3.3-12.4-3.8-12.3-3.9-16.4-6-15.9-6.7-7.6-3.6-7.5-3.7-7.4-4-7.1-4.1-7.1-4.3-6.8-4.4-6.8-4.6-6.6-4.8-6.3-4.9-6.3-5.1-6.1-5.2-5.9-5.5-8-7.8-7.6-8.1-7.3-8.4-7.1-8.8-6.7-8.9-6.5-9.4-6.1-9.8-5.8-10-0.9-11.2-0.5-10.9-0.2-10.5 0.2-10.2 0.5-9.8 1-9.5 1.3-9.1 1.7-8.8 2.1-8.4 2.4-8.1 2.8-7.7 3.2-7.3 3.5-7 3.9-6.7 4.3-6.3 4.6-6 2.4-2.7 4.4-4.5 4.8-4.1 5-4 5.5-3.5 5.8-3.3 6-2.8 6.6-2.6 6.7-2.3 7-2 7.5-1.7 7.7-1.2 8.1-1 8.3-0.6 8.7-0.3h8.8l9.2 0.4 9.8 0.7 10.1 1.1 10.3 1.4 10.5 1.7 10.6 2.1 10.8 2.4 11 2.8 11 3 11.2 3.5 11.2 3.6 11.1 4.1 10.9 4.1 10.6 4.5 10.3 4.6 9.6 4.6 9 4.7 4.5 2.2 4.6 1.7 4.6 1.2 4.6 0.6 6 0.3 6.1-0.7 6.3-1.4 6.2-2.3 2.1-1.1 1.7-1.3 1.8-2.1 1.4-2.5z"/>
		<path id="Layer" class="s19" d="m2935.7 3069.2l-3.9 7.6-4.3 7.4-4.3 7.4-4.6 7.1-4.9 6.9-4.9 6.7-5.2 6.5-5.4 6.5-5.8 6.4-6 6.3-6.3 6.1-6.4 5.9-6.6 5.7-6.9 5.5-7.1 5.4-7.3 5.1-7.5 5-7.8 4.7-8 4.6-8.1 4.5-8.4 4.2-8.5 4-8.9 3.9-9 3.7-20.3 7.6-20.4 6.5-20.4 5.8-20.4 4.8-10.3 2.1-10.2 1.9-10.3 1.6-10.3 1.4-10.3 1.4-10.3 0.9-10.3 0.8-10.3 0.5-10.6 0.3-10.7 0.1-10.7-0.1-10.7-0.5-10.7-0.5-10.7-0.9-10.7-1.1-10.9-1.3-10.7-1.6-10.7-1.8-10.9-2.1-10.7-2.3-10.8-2.5-10.8-2.7-10.8-3-10.9-3.3-2.3-0.9-2-1.5-1.8-1.7-1.4-2.1-0.9-2.4-0.5-2.4 0.1-2.5 0.5-2.6v-0.1l72.8-217.7 29.5-11.6 32.1-13.4 34.4-15 37.1-16.8 7.4-3.3 7.5-3.1 7.8-2.9 7.9-2.8 8.1-2.4 8.1-2.3 8.3-2.1 8.4-1.8 8.3-1.7 8.4-1.3 8.3-1.2 8.5-0.9 8.4-0.6 8.3-0.5 8.3-0.1h8.2l8.1 0.4 8 0.5 7.9 0.8 7.8 1 7.5 1.2 7.6 1.5 7.2 1.6 7.2 2 7.1 2.2 6.8 2.4 6.7 2.5 6.5 2.9 6.2 3 6.2 3.3 5.9 3.4 5.7 3.7 0.8 0.7 6.1 4.5 5.4 5 5.3 5.6 4.8 6 4.5 6.7 4 7.1 3.8 7.7 3.4 8.2 2.9 8.7 2.6 9.4 2.3 9.7 1.9 10.3 1.5 10.9 1.2 11.4 0.8 11.8z"/>
	</g>
	<g id="Layer">
		<path id="Layer" class="s12" d="m1284.6 1431.3c-33.6 26.5-78.9 24.9-101.4-3.6-22.5-28.5-13.6-73 20-99.5 33.6-26.6 79-25 101.5 3.5 22.5 28.5 13.5 73-20.1 99.6z"/>
		<path id="Layer" class="s12" d="m2488.8 1442.3c-33.6 26.4-78.9 24.8-101.4-3.8-22.5-28.5-13.4-73 20.2-99.5 33.6-26.4 79-24.8 101.5 3.8 22.4 28.5 13.4 73-20.3 99.5z"/>
	</g>
	<path id="Layer" class="s0" d="m1872.1 1622l-4.5-3.7-6.6-4.6-6.8-4.7-4.5-3.8-3.5-3.9-1.4-2.1-1.2-2.2-1.5-3.4-0.9-4-0.5-3.6 0.1-3.5 0.6-3.8 0.8-3.5 1.5-3.7 1.7-3.6 2.2-3.6 2.6-3.4 3-3.4 3.3-3.2 3.6-2.9 3.7-2.7 4-2.3 3.9-1.9 3.9-1.4 3.9-1 7-1.2 7.1-1 7-0.5 6.9-0.2 6.8 0.1 6.6 0.6 6.3 0.9 6.1 1.2 5.8 1.5 5.5 1.9 5.3 2.1 4.8 2.6 4.6 2.8 4.3 3.2 3.8 3.4 3.6 3.8 2.7 3.4 2.3 3.7 1.6 4 0.7 4.2v4.4l-0.7 4.3-1.6 3.9-2.2 3.7-2.8 3.3-30.9 29.5-1.4 1.5-1.1 1.7-0.9 1.6-0.5 1.8-0.2 1.6 0.1 1.9 0.3 1.8 0.5 1.9 1.9 4.6 2.1 4.2 2.3 4.2 2.4 3.9 2.6 3.8 2.8 3.5 2.9 3.1 3.1 3.1 3.2 2.6 3.2 2.5 3.5 2.1 3.5 1.9 3.7 1.5 3.7 1.2 3.7 1 3.7 0.6 5.6 0.3 5.7-0.4 5.6-1.1 5.7-1.8 5.5-2.3 5.5-3 5.5-3.8 5.5-4.4 2.4-2.5 1.9-2.9 1.6-3.6 1.9-5.3 2.5-6.8 1.2-2.3 1.6-2.1 1.4-1.3 1.6-1.2 1.6-1 1.8-0.7 1.7-0.6 1.9-0.3 2-0.1 1.8 0.1 1.9 0.4 1.8 0.6 1.8 0.7 1.6 1 1.5 1.1 1.4 1.4 1.2 1.5 1 1.6 2.4 4.7 2 4.6 1.5 4.5 1.1 4.3 0.7 4.2 0.4 4.2-0.1 4.1-0.6 3.9-1.4 5.5-2.3 5.3-3.2 5.4-4 5.4-4.8 5.2-6 5.4-7.1 5.9-9.7 7.4-2.3 2.1-1.8 2.5-1.1 2.7-0.5 3-2.4 28.4-1.3 11.5-1.5 10.6-1.5 10.1-1.7 9.4-1.9 8.9-2.2 8.4-2.4 8.2-2.6 7.8-2.9 7.5-3.2 7.1-3.5 7.1-3.7 6.5-3.9 6.4-4.4 6.1-4.7 5.9-5 5.7-5.3 5.5-5.7 5.3-6 5.1-6.4 4.9-6.7 4.7-7.2 4.5-5.4 3.1-5.5 2.5-5.7 2.1-5.8 1.7-7 1.4-7.1 0.8-7.4 0.1-7.2-0.5-7.4-1.1-7.4-1.8-7.3-2.4-7.1-3-7.1-3.7-6.8-4-6.6-4.8-6.2-5.2-6-5.7-5.4-6-5-6.3-4.4-6.7-4.2-7.1-3.9-7.4-4.9-10.4-4.2-10.6-3.9-11.3-3.2-11.8-2.8-12.2-2.5-13.5-2.3-15.1-2.7-20.9-3.9-28.1-0.7-3.2-1.2-3.2-2-3.2-2.6-2.8-4.1-3.8-4.3-3.5-4.4-3.3-4.6-3.1-3.1-2.3-2.7-2.7-2.2-2.5-1.8-2.7-1.6-3-1.3-3.1-1-3.5-0.8-3.5-0.5-3.9-0.2-3.8 0.2-4.2 0.3-4.1 0.6-4.3 1-4.3 1.2-4.2 1.6-4.2 1.6-4.1 2-3.7 1.6-2.3 2.2-2.2 2.7-1.6 3.1-1 3.1-0.2 3.2 0.3 2.9 1.1 2.7 1.8 2.2 2.2 4.3 5.4 4.1 5.8 3.7 5.9 3.6 6.3 1.5 2.6 1.8 2.3 1.9 2.2 2.1 1.9 2.9 2 3.1 1.8 3.4 1.3 3.7 1 3.9 0.6 4.3 0.4h4.3l4.6-0.5 5.1-0.7 5.1-1.1 5.3-1.6 5.5-1.8 5.4-2.2 5.5-2.5 5.1-2.7 4.9-2.8 2.8-2.1 2.2-1.9 2-2.2 1.6-2.4 1.5-2.7 1.1-2.7 0.9-2.7 0.6-3 0.3-3-0.1-2.9-0.3-3-0.7-2.8-1-2.9-1.3-2.7-1.5-2.5-1.8-2.3z"/>
	<path id="Layer" class="s14" d="m1847.9 1736.4l5.4-3.8 5.4-3.8 5.6-3.3 5.5-3.2 5.7-3 5.8-2.6 5.8-2.4 5.9-2.3 9.6-3 2.9-0.5h3l2.9 0.4 2.8 1 59.4 26.3 2.8 1.7 2.1 2.3 1.6 2.9 0.7 3 1 11.8 0.4 11.2-0.4 11.1-1.1 10.7-1.8 10.4-2.4 10.1-3.3 9.8-3.8 9.5-3 5.9-3.2 5.9-3.5 5.7-3.7 5.6-4.2 5.3-4.3 5.4-4.8 5.1-4.9 5.1-4.5 4.1-4.5 3.5-4.4 3-4.5 2.3-4.4 1.9-4.4 1.2-4.3 0.6h-4.3l-4.6-0.5-4.5-1.3-4.5-1.9-4.5-2.6-4.5-3.2-4.4-4-4.4-4.5-4.2-5.3-4.4-5.9-4.2-6-3.8-6.2-3.5-6.2-3.3-6.2-2.9-6.5-2.7-6.5-2.4-6.6-2.2-7.2-1.9-7.3-1.6-7.3-1.3-7.5-0.9-7.6-0.6-7.7-0.2-7.9v-7.9l0.2-2.3 0.3-2.1 0.6-1.9 0.8-1.9 1.6-2.4 2.1-2.3 2.7-2.2 4-2.8z"/>
</svg>