<svg version="1.2" xmlns="http://www.w3.org/2000/svg" viewBox="0 0 3600 3600" width="3600" height="3600">
	<title>yellow1-svg</title>
	<style>
		.s0 { fill: #250c00 } 
		.s1 { fill: none;stroke: #f7b28c;stroke-width: 3.3 } 
		.s2 { fill: none;stroke: #feebd2;stroke-width: 3.3 } 
		.s3 { fill: none;stroke: #fec2b7;stroke-width: 3.3 } 
		.s4 { fill: none;stroke: #956d53;stroke-width: 3.3 } 
		.s5 { fill: none;stroke: #fccc94;stroke-width: 3.3 } 
		.s6 { fill: none;stroke: #f7b885;stroke-width: 3.3 } 
		.s7 { fill: none;stroke: #965965;stroke-width: 3.3 } 
		.s8 { fill: none;stroke: #968180;stroke-width: 3.3 } 
		.s9 { fill: none;stroke: #ffd7e4;stroke-width: 3.3 } 
		.s10 { fill: none;stroke: #fdebdd;stroke-width: 3.3 } 
		.s11 { fill: none;stroke: #f6b297;stroke-width: 3.3 } 
		.s12 { fill: none;stroke: #f6ae74;stroke-width: 3.3 } 
		.s13 { fill: none;stroke: #fce8d3;stroke-width: 3.3 } 
		.s14 { fill: #ffffff } 
		.s15 { fill: #2d0301 } 
		.s16 { fill: #fdd6a5 } 
		.s17 { fill: #fcbdb4 } 
		.s18 { fill: #f19a65 } 
		.s19 { fill: #fef9eb } 
		.s20 { fill: #fad7ba } 
		.s21 { fill: #f18d73 } 
		.s22 { fill: #fbc182 } 
	</style>
	<path id="Layer" class="s0" d="m2856.5 3092.4l-12.9 27.8-10.9 22.2-8.6 16.3-3.6 6-3.1 4.6-8.7 11.9-9.7 12.2-10.5 12.5-11.2 12.5-11.6 12.2-11.9 11.9-12.1 11.3-12.2 10.8-11.9 9.8-11.7 9.1-11.6 8.5-11.5 7.5-11.2 6.8-11 6.1-10.6 5-10.4 4.2-16.1 6.3-21.9 9.2-26.8 11.2-10.4 4.1-9.5 3.4-9.3 3-9 2.6-8.6 2.3-8.6 1.7-135 25.1-3.2 0.4-3.1-0.2-3.4-0.6-3.5-1.1-5.9-2-5.7-1.1h-5.5l-2.7 0.3-2.5 0.6-4.8 1.7-4.6 2.7-4.2 3.7-4 4.6-19 23.8-8.2 9.7-8.1 9-7.8 8.5-7.6 7.7-7.6 7.3-7.5 6.8-7.7 6.5-7.6 6-7.8 5.5-7.8 5.2-7.9 4.7-7.9 4.3-8.3 3.9-8.3 3.5-8.1 3.1-8.2 2.7-8.3 2.4-8.7 1.9-18.3 3.5-19 2.7-19.8 2-20.5 1.2-21.4 0.5-22.1-0.1-22.9-1-23.7-1.7-12.8-1.4-12.1-1.9-11.6-2.4-11.1-3.1-10.7-3.5-10.2-4.2-9.9-4.7-9.4-5.1-6.2-4-6.1-4.2-5.9-4.5-5.7-4.7-5.7-5.1-5.5-5.4-5.5-5.8-5.2-5.9-5.3-6.4-5.1-6.8-5-7.1-5.1-7.5-10-16.3-10.1-18.5-1-1.6-1-1.2-1.3-1-1.3-0.9-1.4-0.5-1.6-0.2-1.7 0.1-1.9 0.3-9 1.9-9 1.8-9.1 1.5-9 0.9-8.9 0.9-9 0.5-9 0.1-8.9-0.1-11.9-0.6-11.9-1.2-11.7-1.8-11.9-2.2-2.8-0.4-2.7 0.3-2.9 0.6-2.5 1.1-2.3 1.5-2.1 2-1.6 2.3-1.3 2.5-2.9 7.4-3.1 7.1-3.5 7-3.7 6.7-3.9 6.6-4.2 6.4-4.5 6.1-4.7 5.8-7.4 8.3-7.9 7.8-8.4 7.3-9.1 6.9-9.5 6.3-10 6-10.5 5.3-11 4.8-11.5 4.3-12 3.9-12.2 3.3-12.8 2.7-13.2 2.3-13.5 1.7-13.7 1-14.1 0.6-20.8 0.1-19.7-0.5-19-1.1-18.3-1.7-17.4-2.5-16.7-3-15.9-3.7-15.4-4.3-14.6-4.9-13.8-5.7-13.1-6.2-12.5-7.1-11.9-7.5-11-8.3-10.3-8.9-9.7-9.5-7.8-8.7-10.2-12.8-10.8-13.7-8.5-9.8-8.2-8.3-3.9-3.4-3.8-3-3.9-2.9-3.8-2.3-3.9-2-3.9-1.7-3.7-1.3-3.9-0.9-3.8-0.5-3.8-0.2-3.6 0.2-7.9 0.5-8-0.2-10.7-0.8-10.8-2-30.7-7.4-27.9-7.7-13.1-4.1-12.7-4.1-12.1-4.2-11.9-4.3-11.5-4.6-11.1-4.7-10.8-4.8-10.4-5-10.1-5.2-9.8-5.4-9.6-5.5-9.2-5.8-14.7-10-14.2-10.6-13.5-10.8-12.8-11.4-12.3-11.9-11.6-12.3-11-12.8-10.4-13.3-6.5-8.9-6.2-9.3-5.9-9.3-5.7-9.6-5.5-9.8-5.2-10-4.8-10.1-4.6-10.5-4.3-10.6-4.1-10.8-3.8-11-3.5-11.2-3.2-11.3-2.9-11.7-2.8-11.8-2.4-12-3-14.9-2.5-14.7-2.2-14.8-1.9-14.8-1.4-14.9-1.1-14.8-0.9-14.7-0.4-14.9-0.1-22.1 0.9-22 1.4-22.1 2.4-22.2 0.6-5.7 0.3-6v-15.5-11.6l0.2-8.5 0.9-7.7 1.3-7.3 24.6-102.2 3.6-14.1 4.2-14.6 4.6-15.1 5.3-16.1 5.7-16.3 6.6-17.8 17.8-46.6 12.1-31.4 0.5-1.9 0.2-1.7-0.1-1.5-0.4-1.5-0.7-1.2-1.1-1.2-1.4-1-1.7-0.9-26.9-11.6-26-11.5-25.3-11.5-24.4-11.4-23.7-11.2-22.7-11.3-22-11.1-21.3-11-23-12.5-22.6-13.1-22-13.6-21.8-14.2-21.1-14.6-20.7-15.2-20.1-15.6-19.8-16.2-19.2-16.6-18.6-17.1-18.2-17.6-17.7-18.2-17-18.4-16.6-18.9-16-19.4-15.4-19.9-11.5-15.6-11.1-15.8-6.6-9.7-6.4-10.1-12.9-21.4-12.5-22.7-12.6-24.8-12.3-26.1-12.6-28.5-13.5-32-16.3-40.5-0.8-1.3-1-1.3-1.2-1.1-1.4-0.7-1.5-0.5-1.6-0.1-1.6 0.1-1.4 0.4-12 4.7-11.8 4.8-11.5 5-11.2 5.4-10.9 5.4-10.5 5.7-10.4 5.8-10 6.1-5.7 3-2.7 1-2.8 0.9-2.5 0.5-2.5 0.1-2.5-0.1-2.3-0.5-2.3-0.7-2.2-1-2.1-1.4-2.1-1.7-2-1.9-1.8-2.3-3.6-5.5-2.7-4.7-2.1-4.4-1.4-4.3-0.4-4.1 0.4-4 1.2-3.8 2.1-3.6 2.9-3.5 3.8-3.2 10.9-7.8 11.5-7.5 12-7.2 12.7-6.8 13.3-6.5 13.7-6.2 14.4-5.9 15-5.6 2.6-1.2 2.5-1.6 1.9-2.1 1.7-2.4 1.2-2.7 0.6-2.7 0.3-3-0.4-2.8-3.8-19-3.3-19-2.8-19.3-2.4-19.5-1.9-19.7-1.4-19.9-1-20-0.5-20.3-0.1-1.7-0.4-1.6-0.6-1.3-0.9-1-1.1-0.7-1.3-0.5-1.5-0.1h-1.9l-120.5 11.6-2.4 0.1-4.4-0.5-4.2-1.4-4-2.4-3.3-3-2.6-3.7-1.7-4.2-0.9-4.3v-4.6l0.5-2.8 0.6-2.7 1.5-4 2-3.7 2.6-3.6 2.9-3.3 3.5-3.2 4.1-3.1 4.4-2.8 5.1-2.7 5.6-2.4 5.9-2.4 6.6-2 6.8-1.8 7.2-1.6 7.6-1.3 7.5-1 7.4-0.6 32.6-2.3 32-3.1 2.3-0.6 1.9-1.5 1.3-2 0.5-2.4 1.9-31.2 2.7-31.4 3.7-31.6 4.5-31.5 5.4-31.8 6.3-31.7 7.3-31.9 8.1-32.1 3-11.6 12.7-46.3 5.1-17.8 5.1-16.1 5.1-15.5 5.2-14.3 5.2-13.6 5.4-12.7 19.2-42.7 19.4-41.2 19.5-39.7 19.6-38.3 1.1-2.8 0.3-2.7-0.2-3.1-1.2-3.1-8.7-17-8.3-16.7-7.7-16.6-7-16.4-6.7-16.3-6.2-16.1-5.5-15.9-5.1-15.8-5.2-17.2-4.8-17.2-4.6-17.3-4.2-17.2-3.9-17.3-3.7-17.2-3.4-17.3-3-17.2-2.7-17.3-2.4-17.3-2.1-17.3-1.9-17.3-1.5-17.2-1.2-17.3-0.9-17.5-0.6-17.3-0.3-22.5 0.2-22.5 0.7-22.5 1.1-22.5 1.8-22.6 2.2-22.5 2.8-22.6 3.2-22.5 3.9-22.6 4.2-22.7 4.8-22.6 5.3-22.6 5.8-22.8 6.3-22.6 7-22.6 7.2-22.8 5.5-14.7 6-14 6.7-13.3 7.4-12.5 8.1-11.7 8.6-11 4.7-5.2 4.7-5.1 5-4.8 5-4.7 5.9-4.8 5.9-4.7 6.2-4.5 6.3-4.2 6.7-4 6.6-3.8 7-3.6 7.1-3.2 7.4-3.1 7.6-2.9 7.8-2.6 7.9-2.5 8.1-2.2 8.3-1.9 8.6-1.8 8.7-1.5 14.9-2.3 14.6-1.8 13.9-1.5 13.8-1 12.8-0.6 12.4-0.2 11.7 0.1 11 0.6 35.4 3.1 35.2 3.9 35 4.9 34.9 5.7 27.8 5.1 27.7 5.9 27.7 6.4 27.6 6.9 27.4 7.5 27.4 8.2 27.5 8.7 27.3 9.2 27.3 9.9 27.5 10.5 27.3 11.2 27.3 11.6 27.5 12.3 27.4 13 27.5 13.5 27.5 14.2 3.1 1.3 3.1 0.3 3.2-0.2 3.1-1.1 18.9-8.8 19.7-8.7 20.2-8.2 20.9-8.2 21.3-7.8 22.2-7.5 22.7-7.5 23.4-7 27.4-7.8 27.6-7.4 27.5-6.8 27.4-6.3 27.4-5.8 27.5-5.3 27.6-4.7 27.4-4.4 27.5-3.7 27.4-3.3 27.6-2.7 27.4-2.3 27.5-1.7 27.4-1.2 27.5-0.8 27.4-0.2 26.6 0.2 26.4 0.8 26.5 1.2 26.5 1.7 26.4 2.1 26.5 2.8 26.4 3.1 26.5 3.5 26.6 4.1 26.4 4.5 26.5 5 26.5 5.5 26.4 5.9 26.5 6.4 26.4 6.8 26.5 7.5 17.9 5.4 18.3 5.9 18.9 6.7 19.4 7.2 19.9 7.9 20.4 8.5 21.1 9.1 21.3 9.7 2.8 1 2.7 0.3 2.7-0.5 2.8-1.2 19.6-10.3 19.5-10.2 19.7-9.9 19.8-9.5 19.9-9.1 19.9-8.8 20-8.7 20-8.1 20.3-7.9 20.2-7.7 20.4-7.3 20.4-6.9 20.5-6.7 20.6-6.3 20.7-6.1 20.7-5.7 18.8-4.8 18.8-4.7 18.8-4.3 18.9-4.1 19.1-3.8 19-3.6 19.2-3.3 19.1-3.1 19.3-2.9 19.4-2.6 19.5-2.2 19.4-2.1 19.5-1.8 19.7-1.5 19.6-1.4 19.8-1 8.9-0.4h13l13 0.4 13.1 1 12.9 1.4 12.5 1.7 12 1.9 11.3 2.1 10.7 2.3 10.4 2.7 9.8 2.7 9.6 3.3 9.1 3.3 8.6 3.6 8.3 3.9 8 4.2 7.7 4.5 7.3 4.8 6.9 5.1 6.7 5.4 6.3 5.7 7.8 7.8 7.3 8.5 6.8 8.9 6.4 9.7 5.8 10 5.5 10.7 4.8 11.4 4.6 12 10 30.2 9 30.4 8 30.7 7.2 30.7 4.1 19.9 3.7 20 3.3 19.9 3 20.1 2.5 20.2 2.2 20.1 1.7 20.4 1.4 20.4 1.1 20.4 0.6 20.7 0.1 20.6-0.1 20.7-0.5 20.8-1 20.9-1.2 21.1-1.7 21-2 20-2.6 19.9-3 19.8-3.4 19.8-3.4 16.8-3.7 16.7-3.9 16.5-4.5 16.6-4.7 16.6-5.1 16.4-5.4 16.3-5.7 16.4-6.2 16.2-6.4 16.2-6.8 16-7.2 16.1-7.4 16-7.9 15.9-8.2 15.8-8.5 15.9-1 2.4-0.4 2.5 0.4 2.5 1 2.4 16.7 31 15.6 30.5 14.6 30.3 13.4 29.8 12.5 29.5 11.4 29.1 10.3 28.8 9.2 28.4 10.4 33 10.5 33.7 7.4 24.6 6.5 22.2 5.5 20.5 4.9 19.9 4.2 19 3.3 18.1 2.8 17.7 4.5 32.3 4 31.5 3.3 30.9 2.8 30.3 0.3 1.7 0.5 1.7 0.7 1.2 0.9 1.1 1.1 0.9 1.2 0.7 1.6 0.4 1.8 0.2 10.1 0.6 16.3 0.9 13.5 1 12.5 1.2 11.5 1.4 10.9 1.7 10.2 2 9.3 2.2 8.5 2.5 7.7 2.8 6.9 3 6.1 3.4 5.2 3.4 4.4 3.8 3.5 4.1 2.7 4.4 1.9 4.5 0.7 2.9 0.4 2.9 0.1 2.9-0.2 3.1-1 5.5-1.8 4.7-1 2-1.3 1.9-1.4 1.6-1.6 1.3-1.7 1.1-1.9 0.9-2.1 0.8-2.2 0.4-4.9 0.3-5.6-0.5-13.9-2.1-14.2-1.9-14.4-1.7-14.7-1.5-30.6-2.2-31.8-1.4-1.8 0.3-1.5 1-1.1 1.5-0.4 1.8-0.4 19.9-0.9 19.9-1.4 19.6-2 19.5-2.3 19.3-3 19.3-3.3 18.9-4 18.9-0.5 3.3v3.1l0.5 2.8 1 2.5 1.5 2.3 2 2.1 2.6 1.7 2.9 1.5 12.5 5.3 12.4 5.6 12.5 5.9 12.4 6.2 12.4 6.4 12.5 6.8 12.4 7.1 12.5 7.3 3 1.9 2.8 2 2.3 2.1 2.1 2.2 1.7 2.3 1.4 2.3 1 2.4 0.7 2.4 0.4 2.6v2.6l-0.4 2.8-0.6 2.7-1.1 2.8-1.4 2.9-1.6 2.9-2.1 3.1-2.8 3.8-2.6 3-3.1 2.5-3.5 2-3.7 1.2-3.9 0.6h-4l-3.8-0.7-3.7-1.5-92.6-45.4-1.8-0.6-1.8-0.2h-1.7l-1.9 0.5-1.6 0.7-1.5 1.1-1.1 1.5-1 1.5-0.1 0.5-7.9 20.9-7.9 19.9-7.8 19-7.9 18.3-8 17.7-8 17-8.1 16.6-8.3 16.1-8.4 15.7-8.7 15.2-8.9 15-9 14.4-9.4 14.4-9.5 13.8-9.9 13.9-10 13.3-9.6 12-9.6 11.9-10 11.6-10.3 11.6-16.1 17.4-16.1 16.6-16.2 15.8-16.4 15-16.3 14.2-16.4 13.5-16.5 12.6-16.5 11.9-26.7 18-26.9 17.3-27 16.5-27.1 15.8-27.3 15-27.5 14.2-27.7 13.3-27.7 12.8-1.6 0.8-1.4 1-0.8 1.1-0.6 1.3-0.3 1.2 0.1 1.5 0.4 1.5 0.8 1.7 13.3 26 12.4 26.1 11.3 26.3 10.4 26.3 4.9 13.4 4.5 13.2 4.4 13.4 4 13.4 3.9 13.4 3.6 13.5 3.3 13.4 3.1 13.6 0.5 1.8 0.6 1.3 0.9 1.1 0.9 0.8 1.3 0.5 1.3 0.1 1.5-0.1 1.8-0.5 11.3-3.9 33.9-11.4 12.7-4.7 11.4-4.6 10.9-4.6 10.3-4.6 9.4-4.8 8.9-4.8 8.6-5.2 8.2-5.4 7.5-5.7 7.2-5.8 6.7-6.2 6.1-6.3 6-6.7 5.3-7.1 3.7-5.1 3.5-5.6 3.3-5.6 3.1-5.8 2.7-5.9 2.7-6.2 2.4-6.3 2.2-6.6 7.9-23.9 7.2-20.1 7.2-17.9 7.3-16.2 7.7-15.1 8.3-14.2 8.8-13.2 9.5-12.6 9.5-11 10.2-10.7 11-10.2 11.7-9.8 9.1-6.7 9.6-6.2 10.1-5.6 10.7-5.4 11.2-4.7 11.8-4.2 12.3-3.8 12.8-3.2 13.3-2.7 13.9-2.4 14.2-1.7 14.6-1.1 15.1-0.8 15.2-0.1 15.5 0.4 15.6 1 10.5 1 10.2 1.4 10.1 2 9.9 2.4 9.8 2.8 9.5 3.2 9.4 3.6 9.1 4.1 9.4 4.7 9.1 5.2 8.9 5.5 8.5 6.1 8.4 6.6 8.2 6.9 7.7 7.4 7.6 7.7 7.3 8.2 6.9 8.6 6.7 8.9 6.3 9.3 6 9.7 5.7 10 5.3 10.4 5 10.5 4.6 11.2 4.3 11.2 3.8 11.5 3.5 11.7 3 11.9 2.5 12.1 2.3 12.1 1.7 12.3 1.2 12.4 0.9 12.3 0.5 12.5-0.1 12.4-0.4 12.3-1 12.3-1.3 12-1.8 12-2.4 13.1-2.8 12.8-3.2 12.9-3.6 12.7-5.2 16.2-5.8 16-6.5 15.8-7.1 15.4-7.8 15.4-8.2 15.1-9.1 14.8-9.5 14.5-10.1 14.3-10.8 13.8-11.4 13.8-11.8 13.3-12.5 13-13 12.6-13.6 12.2-14 11.9-14.7 11.6-15.1 11.2-15.5 10.7-16.1 10.3-16.5 9.9-16.8 9.2-17.2 8.9-17.4 8.3-17.9 7.8-18.1 7.3-18.3 6.8-18.6 6.2-18.7 5.6-18.9 5-18.9 4.5-19.1 3.8-25.1 4.5-23.5 3.8-21.8 3.1-20.4 2.5-19 1.8-17.4 1.1-15.8 0.4-14.2-0.2-29.6-1.7-30-2.4-30.4-3.1-31-3.9h-2.8l-2.3 0.9-1.9 1.6-1.4 2.5-2.4 6.5-1.9 6.6-1.2 6.3z"/>
	<g id="Layer">
		<path id="Layer" fill-rule="evenodd" class="s1" d="m2973 162.4l21.3 4.7 21.3 3.9 21.2 3.3 21.6 2.4 3 0.4 3 0.6 2.9 1.1 1.6 1.3 1.4 1.3 1.3 2 1.6 2.5 2 2 2.4 1.7 2.9 1.1 4.3 1.4 4.3 1.7 4.2 1.8 4.2 2.3 4.1 2.6 4 2.7 3.9 3.1 3.9 3.3 3.2 3.4 2.3 3.4 1.8 3.6 0.7 3.6 0.1 4.1-0.8 4-1.3 3-1.6 3-2 2.7-2.6 2.8-2.9 2.6-3.4 2.6-3.8 2.5-4.3 2.4"/>
		<path id="Layer" fill-rule="evenodd" class="s2" d="m3208.6 1865.7l-8.2 10.6-8.3 12.2-8.4 13.8-10.7 19-9.9 17.6-7.4 12.2-7.2 10.5-6.9 8.9-10.3 11.8-10.5 10.6-10.4 9.8-10.6 8.6-23.8 17.9-24.6 17.5-25.6 17.6-26.4 17.3-27.5 17-28.4 17.1-29.3 16.8-30.2 16.7"/>
		<path id="Layer" fill-rule="evenodd" class="s3" d="m2884 2149.2l13.3-10.4 12.4-10.7 11.7-11.2 11-11.6 10.1-12 9.5-12.5 8.7-12.8 7.9-13.4 4.8-9 2.9-5.8 2.4-6 2.1-5.9 1.9-6 1.4-5.9 1.2-5.6 0.9-6 0.6-5.8 0.2-6 0.1-6.1-0.2-6.2-0.5-6-0.7-6.3-1.2-6.2-1.2-6.3-1.6-6.2-1.9-6.4-2.2-6.4-5-12.7-6.2-12.8-7.2-12.7-8.2-12.6-9.1-12.2-9.9-11.8-10.6-11.1-11.3-10.5-11.6-9.6-9.3-6.6-11.5-7-13.7-7.7-15.1-7.7-16.2-7.6-16.5-7.2-16.1-6.4-15.2-5.5-12.6-4.4-12.4-4.7-12.1-5.1-12-5.4"/>
		<path id="Layer" fill-rule="evenodd" class="s4" d="m2735.8 1755.2l6.9-10.8 6.4-10.9 6.1-10.7 5.7-10.9 5.3-10.9 4.8-10.7 4.4-11 4-10.9 3.5-10.9 3.2-11 2.7-10.9 2.4-11 2-11 1.4-11 1.2-11 0.6-11 0.2-15.2-0.6-15.3-1.2-15.2-2.1-15.4-3-15.3-3.6-15.3-4.6-15.4-5.2-15.4-6-15.5-6.9-15.2-7.8-15.1-8.6-14.6-9.2-14.2-9.9-13.7-10.7-13.1-11.1-12.6-11.6-11.8-12.2-11.2-12.7-10.3-13.1-9.6-13.4-8.8-13.8-7.8-13.9-7-14.2-6.1-11.9-4.4-11.9-4.1-11.9-3.7-11.7-3.4-11.6-2.8-11.6-2.6-11.7-2.1-11.5-1.6-11.3-1.4-11.4-0.8-11.4-0.5-11.2-0.2-11.2 0.4-11.1 0.6-11.1 1.1-11 1.5-10.3 1.8-10.1 2.1-10 2.4-10.2 2.9-9.9 3.1-10 3.6-9.9 3.8-9.7 4.2-9.8 4.4-9.8 5-9.6 5.2-9.7 5.5-9.6 6-9.4 6.3-9.5 6.7-9.4 6.9"/>
		<path id="Layer" fill-rule="evenodd" class="s2" d="m2260.8 1317.4l-9.3-7.8-11-8.5-12.5-9.3-14.2-9.9-15.9-10.8-17.5-11.5-19.1-12.1-20.8-13-20.3-12.9-24.5-16.6-28.5-20-32.7-23.5-36.7-27.1-40.8-30.5-45-34-49.1-37.6-8.1-6.4-8.1-6.8-8.4-7.5-8.5-7.8-18.1-17.6-23.9-24.8-5.5-5.5-4.1-3.7-4.3-3-4.3-2-4.5-1.1-3.8-0.4-3.8 0.4-4 0.8-3.9 1.4-4.1 2-4.2 2.5-4.4 3.1-4.3 3.7-27.1 23.8-27.7 23.5-28.1 23.4-28.7 23-29.2 22.9-29.8 22.5-30.4 22.2-30.8 22-31.4 21.8-32 21.5-32.4 21.1-33 20.9-33.7 20.8-34 20.4-34.7 20.2-35.1 19.9"/>
		<path id="Layer" fill-rule="evenodd" class="s4" d="m1234.5 1309.5l-12.9-8.4-12.9-7.8-13.2-7.2-13.2-6.7-13.5-6-13.4-5.6-13.8-4.8-13.6-4.3-13.9-3.8-13.9-3-13.9-2.5-14-1.9-14.1-1.3-14.1-0.6-14.1-0.2-14 0.6-14.3 1.2-14.4 1.8-14.2 2.5-13.9 3.1-14.1 3.7-13.8 4.3-13.7 5.1-13.3 5.4-13.3 6.2-12.9 6.8-12.8 7.3-12.2 7.8-12.1 8.4-11.5 8.9-11.3 9.4-10.7 9.9-10.4 10.2-9.8 10.7-9.4 11.1-8.9 11.5-8.3 11.9-7.8 12.2-7.1 12.5-6.7 12.7-5.9 12.9-5.5 13.2-4.7 13.4-4.1 13.6-3.4 13.6-2.9 13.8-2.2 13.9-1.5 14.1-0.8 13.8-0.3 14 0.4 14 1.1 13.9 1.7 14 2.4 14 2.9 13.8 3.6 14 4.4 13.6 4.9 13.7 5.4 13.6 6.2 13.6 6.8 13.2 7.4 13.4 8.1 13.1 8.5 13"/>
		<path id="Layer" fill-rule="evenodd" class="s3" d="m771.6 1757.8l-16.3 4.1-16.6 4.7-16.8 5.6-16.9 6.5-17.3 7.3-17.6 8-17.7 8.8-18 9.6-14.2 8.4-13.3 8.9-6.3 4.7-6 4.8-5.9 5-5.6 5.1-5.4 5.2-5 5.3-5 5.5-4.7 5.6-4.4 5.8-4.2 5.8-4 6.1-3.7 6.2-5.4 9.7-4.8 10.2-4.3 10.5-3.7 10.7-3.1 11.2-2.5 11.3-2 11.8-1.5 12.1-0.5 7.5v6.6l0.5 6.7 0.9 6.6 1.2 6.7 1.7 6.8 2.1 6.8 2.6 6.8 3 6.9 3.3 7 3.7 6.9 4.2 7.2 4.6 7.4 10.8 15.4 15.3 20.4 12.2 16.1 8.1 11.4"/>
		<path id="Layer" fill-rule="evenodd" class="s2" d="m593.1 2135.5l-22.3-13.5-22.2-13.7-21.9-14-21.9-14.2-21.6-14.5-21.4-14.6-21.3-14.9-21.1-15.1-1-0.8-8.8-6.5-8.4-6.9-8.2-7.1-7.8-7.4-7.5-7.5-7.2-7.8-6.9-8.1-6.5-8.2-6.2-8.3-5.8-8.7-5.6-8.8-5.2-9-4.9-9.3-4.6-9.5-4.3-9.7-4.1-9.9-1.9-4.2-2.2-3.6-2.7-3.2-3-2.6-2.5-1.6-2.6-1.4-2.8-1.1-3-0.9-3.2-0.5-3.4-0.3h-3.6l-3.9 0.2"/>
		<path id="Layer" fill-rule="evenodd" class="s5" d="m1017.9 413.9l14 2.4 2.7 0.8 2.1 1.3 1.7 2.1 1.1 2.6 4.8 14.7 5.5 14.1 6 13.8 6.6 13.1 7.2 12.7 7.8 12.1 8.4 11.6 8.9 11.3 7.6 8.6 8.1 8.3 8.4 7.9 8.7 7.7 9.2 7.4 9.5 7 10 6.7 10.3 6.4 7.2 3.9 6.9 3.3 6.8 2.8 6.5 2.1 6.5 1.5 6.3 0.7 6 0.2 5.8-0.3 5.1-0.9 4.8-1.5 4.4-2 3.9-2.4 4.1-3.6 3.5-4.2 3.1-5 2.4-5.5 2.1-6.3 1.5-7 1-7.6 0.5-8.4"/>
		<path id="Layer" fill-rule="evenodd" class="s6" d="m1254.9 546.3l7.4-30.3 6.8-30.6 6.3-30.6 5.8-31 5.2-31.3 4.7-31.6 4.1-31.7 3.6-32.1"/>
		<path id="Layer" fill-rule="evenodd" class="s6" d="m1342.3 280.3l4 2 3.5 2.1 3.3 2.2 2.7 2.4 2.2 2.5 1.9 2.6 1.3 2.6 1 2.8 0.4 1.6 10.5 55.6 11.2 55.4 11.9 55 12.6 54.8 13.4 54.4 14.1 54.2 14.8 53.8 15.5 53.5 1.6 4.9 2.1 4.5 2.3 4.2 2.7 3.8 2.9 3.4 2.5 2.1 2.2 1.1 1 0.2 0.8-0.1 0.9-0.4 0.7-0.7 1.3-2.1 0.8-3.2 0.7-4.4 2.1-20.6 2.8-22.4 3.7-24.6 5.6-33.5 7.6-47.3 2.6-18.3 2.1-16.7 1.9-16.1 8.4-78.1 7.4-78.3 6.7-78.3 5.8-78.5"/>
		<path id="Layer" fill-rule="evenodd" class="s6" d="m1650.6 225.4l6.6 31.6 5.1 25.2 3.3 18.9 1.9 12.6 4.7 38.8 5 38.7 5.6 38.5 6.1 38.2 6.3 37.9 6.8 37.8 7.3 37.4 7.6 37.4 2.6 11.1 3.1 12.1 3.8 13.1 5.5 17.8 7.3 24 4.9 17.9 1.4 4.2 1.7 4.1 2.1 3.7 2.5 3.3 2.6 2.8 3.1 2.3 3.1 1.7 3.4 1.3 2.9 0.6 3.1 0.1 2.9-0.1 3.2-0.6 3.5-1.4 3.1-2.1 2.5-2.8 1.6-3.4 6.9-21.5 6.3-21.5 5.2-19.5 4.7-19.7 4.2-19.9 3.8-19.9 3.4-20.4 2.9-20.5 2.5-20.9 2.1-21.3 2.2-23.6 2.8-25.7 7.9-67.4 8.4-71.1 2.8-27.2 2.2-24.9 1.6-15 2.3-14.6 2.8-14.2 3.5-13.7"/>
		<path id="Layer" fill-rule="evenodd" class="s6" d="m1950.7 235.3l7.2 38.4 6.5 38.4 6.2 38.5 5.6 38.7 4.9 38.7 4.6 38.9 4 38.9 3.4 39.1 1.1 12.6 1.4 12.4 1.6 11.9 1.9 11.5 1.9 11.1 2.3 10.7 2.4 10.4 2.6 10 2.7 10.4 2.4 10.4 2 10.5 1.7 10.7 1.2 10.7 1.2 10.9 0.6 11 0.3 11 0.3 8.4 0.4 7.3 0.6 6.2 0.8 5.2 1.2 4 1.2 3 1.5 2 0.7 0.6 0.9 0.3h0.8l1-0.3 2.1-1.2 2.3-2.4 2.4-3.3 2.8-4.5 2.8-5.5 3.1-6.7 3.3-7.7 6.5-16 6.1-16.5 6-17 5.8-17.6 5.5-18.1 5.4-18.4 5-19 5-19.5 8-34.5 7.2-34.4 6.5-34.3 5.7-34.1 5-34 4.2-33.9 3.3-33.8 2.6-33.7 0.4-2.4 0.5-2.5 0.8-2.5 1.2-2.2 1.3-2.2 1.5-2 1.9-1.9 1.9-1.6 2.1-1.3 2.3-1.3 2.3-0.8 2.5-0.7 2.5-0.4h2.5l2.5 0.1 2.6 0.5 3.6 1.1 5.7 2.6 5.4 2.7 5.2 3.1 4.8 3.2 4.5 3.6 4.3 3.7 4 4 3.7 4.2 4.2 5.6 3.7 6 3.2 6.4 2.9 6.8 2.3 7.2 2 7.4 1.3 7.9 1 8.3 1.8 17.7 2.2 18.4 2.6 19 3.2 19.8 3.6 20.3 3.9 21 4.6 21.7 5 22.3"/>
		<path id="Layer" fill-rule="evenodd" class="s5" d="m2253.9 534.5l0.2 2.5 0.9 2.6 1.3 2.7 2.1 2.7 2.5 2.8 3.2 2.8 3.7 2.8 4.4 3 5 2.7 5.7 2.3 6.1 1.6 6.7 1 6.9 0.3 7.5-0.2 8.1-0.8 8.2-1.4 9.1-2.1 9.1-2.8 9.3-3.3 9.3-3.8 9-4.4 8.6-4.5 7.8-4.9 6.7-4.8 4.8-4.2 5.1-5.1 5.2-6 5.4-6.9 5.6-7.8 5.8-8.8 5.9-9.8 6.2-10.6 9.8-16.7 10.4-15.9 10.7-15.1 11.3-14.4"/>
		<path id="Layer" fill-rule="evenodd" class="s7" d="m2735.8 1755.2l-11.3 14.1-11.7 13.2-12.1 12.6-12.6 11.8-13 11-13.5 10.2-14 9.5-14.3 8.7-9.6 5.3-9.9 5.1-10.2 4.7-10.2 4.3-10.5 4-10.8 3.7-10.9 3.3-11 3-14.8 3.4-14.7 2.8-14.7 2.1-14.8 1.4-14.4 0.9-14.6 0.1-14.4-0.5-14.4-1.1-11.6-1.5-11.7-1.8-11.5-2.2-11.6-2.8-11.5-3.2-11.4-3.6-11.3-3.9-11.4-4.5"/>
		<path id="Layer" fill-rule="evenodd" class="s8" d="m2260.8 1317.4l-10.8 9.9-10.1 9.9-9.8 10.1-9.2 10.3-8.7 10.4-8.2 10.3-7.8 10.7-7.1 10.7-6.7 10.9-6.3 11-5.7 11.1-5.2 11.2-4.7 11.3-4.2 11.5-3.7 11.7-3.2 11.7-2.2 9.5-1.9 9.8-1.6 9.8-1.2 9.7-1 9.9-0.5 10-0.3 10.2v10.1l0.4 10.3 0.8 10.2 1.1 10.4 1.3 10.5 1.8 10.7 1.9 10.6 2.4 10.7 2.7 10.8 4.1 14.5 4.7 14.1 5.3 13.7 5.8 13.2 6.4 13 7 12.4 7.4 12.1 8.1 11.6 6.3 8.4 6.7 8.2 7.1 8 7.3 7.7 7.6 7.5 7.9 7.3 8.3 7 8.6 6.8 8.9 6.7 9.1 6.3 9.5 6.2 9.8 5.9 10.1 5.7 10.5 5.5 10.8 5.2 11 5"/>
		<path id="Layer" fill-rule="evenodd" class="s9" d="m2341.4 1865.3l-5.3 6.7-5 6.6-4.5 6.6-4.4 6.7-3.9 6.7-3.6 6.7-3.3 6.6-3 6.7-2.7 6.7-2.4 6.8-2 6.7-1.7 6.8-1.4 6.6-0.9 6.8-0.8 6.8-0.4 6.8-0.1 7.2 0.4 7.3 0.6 7.3 1.1 7.3 1.4 7.3 1.7 7.3 2.2 7.3 2.5 7.3 4.2 10.5 4.7 10.3 5.3 10 6 9.6 6.3 9.4 6.9 9.2 7.5 8.9 8.1 8.6 8.6 8.3 9.2 8.2 9.6 7.7 10.2 7.5 10.7 7.1 11.3 6.8 11.7 6.6 12 6.2 12.6 5.8 13.4 5.5 13.7 5.4 14.1 4.8 14.4 4.3 14.9 4.1 15.2 3.6 15.3 3.1 15.5 2.7 15.8 2.3 16 1.9 15.8 1.3 15.9 0.9 15.9 0.4 15.4-0.1 15.3-0.7 14.9-0.9 18.6-2 18.5-2.7 18-3.4 17.8-3.9 17.4-4.7 17.2-5.5 17-6 16.5-6.8 13-5.8 12.8-6.4 12.6-6.6 12.3-7.2"/>
		<path id="Layer" fill-rule="evenodd" class="s10" d="m2553.4 2439.7l-35.8 7.6-35.6 7.2-35.1 6.8-34.8 6.5-34.4 6.1-34 5.8-33.6 5.3-33.2 5.1-32.9 4.5-32.5 4.4-32.1 3.9-31.7 3.6-31.3 3.2-31.1 2.9-30.5 2.6-30.2 2.1-36.1 2.2-36.6 1.8-37 1.5-37.4 1.1-37.8 0.9-38.3 0.5-38.7 0.1-39.1-0.2-39.6-0.5-39.9-0.9-40.3-1.2-40.8-1.5-41.3-2-41.5-2.2-42.1-2.5-42.5-2.9-22.3-2-26.8-2.9-31.5-4.1-36.1-4.9-40.8-6.1-45.4-6.9-49.9-8.1-54.7-9.1-14.6-1.9-16.4-1.3-18.3-0.6-20.2 0.1"/>
		<path id="Layer" fill-rule="evenodd" class="s9" d="m593.1 2135.5l14.1 8.3 13.9 7.6 14.1 7.4 14.3 6.8 14 6.3 14.3 6 14.2 5.4 14.2 5 14.3 4.5 14.4 4.1 14.3 3.5 14.4 3.2 14.4 2.6 14.5 2.2 14.5 1.8 14.6 1.2 15 0.7 15.1 0.4 15.2-0.2 15.2-0.8 15.4-1.1 15.3-1.7 15.3-2.3 15.4-2.7 15.3-3.2 15.4-3.7 15.5-4.2 15.6-4.8 15.4-5.2 15.6-5.7 15.6-6.3 15.7-6.7 14.9-7.2 14.5-8 14.1-8.9 13.4-9.5 12.7-10.3 11.9-10.9 5.5-5.4 5.3-5.7 5.1-5.8 4.8-5.9 4.6-5.8 4.3-6.1 4-6.1 3.7-6.1 3.5-6.2 3.2-6.2 2.8-6.3 2.6-6.3 2.4-6.4 2.1-6.5 1.7-6.4 1.5-6.4 1.1-6.5 0.9-6.5 0.6-6.4 0.3-6.6v-7.2l-0.3-7.3-0.8-7.1-1.1-7.3-1.7-6.3-3.6-10-5.6-13.6-7.5-17.2-2.7-6.7-2.1-6.6-1.6-6.4-1.1-6.3-0.7-6.2v-5.9l0.7-5.9 0.9-5.9 0.5-1.9"/>
		<path id="Layer" fill-rule="evenodd" class="s8" d="m1182.4 1857.7l12.7-7.1 12.1-7.1 11.7-7.5 11.3-7.8 10.7-7.9 10.3-8.1 9.9-8.4 9.5-8.7 8.9-8.9 8.5-9.1 8.1-9.4 7.6-9.6 7.2-9.8 6.7-10.1 6.3-10.3 5.8-10.6 4.7-9.4 4.3-9.5 4-9.7 3.7-10.1 3.2-10 3-10.4 2.7-10.5 2.2-10.6 2-10.8 1.6-11.1 1.2-11.1 0.9-11.4 0.5-11.6 0.2-11.7-0.1-11.9-0.5-12.1-1.1-14.5-1.6-14.3-2.3-14-2.9-13.7-3.5-13.5-4-13.2-4.6-12.9-5.3-12.7-4.1-8.9-4.6-8.9-4.7-8.7-5-8.5-5.5-8.6-5.7-8.2-5.9-8.2-6.3-7.9-6.7-7.9-6.9-7.8-7.3-7.6-7.5-7.5-7.8-7.3-8.2-7.2-8.5-7-8.8-6.9"/>
		<path id="Layer" fill-rule="evenodd" class="s11" d="m3154.8 289.6l-207 223.7-0.8 1.1-0.5 1.2-0.3 1.4v1.3l0.4 1.4 0.6 1.2 0.7 1 1.2 0.9 1 0.5 11.4 5.2 11.5 5.7 11.2 6.4 11.1 7 10.9 7.7 10.9 8.3 10.5 8.9 10.5 9.5 3.8 4.2 3.2 4.7 1.8 3.2 1.3 3.5 1 3.6 0.7 3.8 0.5 4v4.2l-0.1 4.3-0.5 4.4-0.6 2.9-0.7 2.3-1 2.4-1.4 2.2-1.5 2.1-1.7 1.9-1.9 1.7-2.1 1.5-2.2 1.2-2.3 1-2.4 0.9-2.6 0.5-2.4 0.2h-2.6l-2.5-0.4-2.5-0.5-2.5-0.8-11.6-4.2-11.6-3.5-11.4-2.6-11.2-1.8-11-1-11-0.2-10.9 0.7-10.7 1.3-10.8 2.3-10.7 3-10.3 4-10.4 4.8"/>
		<path id="Layer" fill-rule="evenodd" class="s12" d="m2331.5 343.3l-6.8 24.3-5.8 23.9-3.2 13.1-3.7 12.2-4.1 11.3-4.6 10.2-11.1 22.8-11.9 23.6-12.8 24.5-13.6 25.3"/>
		<path id="Layer" fill-rule="evenodd" class="s12" d="m1254.9 546.3l-0.3-0.1-0.8-0.4-1.3 0.2-1.4 0.6-1.9 1.2-1.6 0.9-1.5 0.5-1.2 0.2-1-0.3-0.9-0.7-0.6-1.1-0.4-1.5-0.2-1.9-1.6-28.4-0.8-3.7-1.6-3.5-100.4-151.9"/>
		<path id="Layer" fill-rule="evenodd" class="s7" d="m1182.4 1857.7l-15.2 6.3-15.3 5.5-15.3 4.9-15.5 4.3-15.4 3.4-15.4 2.9-15.5 2.2-15.5 1.4-15.3 0.8h-15.5l-15.2-0.6-15.2-1.3-15-2-14.8-2.7-14.7-3.5-14.6-4.1-12-3.9-11.9-4.5-11.6-4.9-11.5-5.5-11.3-5.8-11.1-6.2-11-6.8-10.6-7.1-10.5-7.7-10.3-8-9.8-8.6-9.7-8.7-9.4-9.4-9.3-9.7-8.7-10.1-8.7-10.5"/>
		<path id="Layer" fill-rule="evenodd" class="s13" d="m2524.6 2791.7l3.9 2.4 3.5 2.5 3.5 2.7 3.2 2.9 2.9 3 2.7 3.3 2.5 3.4 2.3 3.6 2.1 3.8 2 4.1 1.7 4.1 1.5 4.4 1.2 4.6 1 4.9 0.6 5.3 0.4 6v6.2l-0.2 6.8-0.7 7.1-0.8 7.6-6.2 49.3-5.3 48-2.2 19.3-2.4 19.4-2.7 19.3-3 19.2-2.9 21.1-2 21-1.1 21.1-0.2 20.9 0.3 11.3 0.2 2.4 0.5 1.9 0.9 1.6 1.1 1 1.5 0.6 1.7 0.1 2-0.3 2.3-0.8 4.5-1.6 4.6-1.5 4.8-1 4.9-0.7 5.4-0.5 5.6-0.1 15.1 0.2 14.6 0.3 10.8-0.5 5-0.6 4.7-1 4.6-1.1 4.5-1.5 9.9-3.9 9.8-4.3 9.8-4.8 9.5-5.1 9.2-5.5 8.6-5.7 8.6-6.2 7.9-6.4 7.5-6.6 7.1-6.8 6.5-7.2 6.1-7.1 5.5-7.4 5-7.6 4.4-7.9 4-7.8 6.1-12.8 6.3-12.7 6.6-12.4 7.1-12.5 3.2-6.5 2.8-7.5 2.6-8.8 2.1-9.5 1.6-10.4 1.2-10.6 0.5-10.4-0.3-9.5-1.6-29-1.4-29.4-1.1-30.1-0.7-30.8-0.8-15.6-1.6-15.6-2.4-15.7-3.3-15.8-7.7-32.4-8.2-32.4-1-3.3-1.2-3-1.6-2.5-1.8-2.2-3.8-3.3-4.6-2.8-2.3-1.3-1.9-1.7-1.5-2-1.1-2.3-21.9-56.1-0.8-1.8-1-1.6-1.2-1.3-1.4-1.1-1.5-0.9-1.6-0.5-3.7-0.4h-9.3l-15.6 0.1-11.3 0.5-10.2 0.8-9.2 1.5-38.5 7.6-38.1 7-37.8 6.7-37.5 6.3-37.1 5.8-36.8 5.4-36.3 5.1-36.3 4.7-35.7 4.3-35.5 3.9-35.2 3.4-34.8 3.1-34.5 2.7-34.1 2.3-33.9 1.8-33.5 1.5-39.8 1.4-40.2 1.1-40.4 1-40.9 0.6-41.4 0.4-41.8 0.1-42.4-0.1-42.8-0.4-87.5-1.6-90.7-2.5-94.3-3.6-99.1-4.6-42.8-2.6-46-3.5-50.2-4.7-68.4-7.1-25.2-2.7-23.4-2.1-25.4-1.6-28.2-1.1-38.5-1-51.9-1.4-19.9-1-18.3-1.1-6.4-0.1-6 0.5-5.3 1.2-4.8 2-2.5 1.5-2.4 1.6-4.6 4-4.6 5.1-5.8 8-5.4 7.3-4.4 5.4-1.8 2.5-1.6 2.7-1.4 3-1 3-8.3 31.9-8.7 32.4-2.3 8.6-3.2 14.2-2.7 14.2-2.1 14.5-1.6 14.6-3.1 37.8-2.4 36.1-1.7 34.6-1 32.9 0.3 13 1.1 13.3 2 13.5 2.9 13.7 4 14 4.7 14.2 5.7 14.4 6.6 14.7 1.7 2.7 1.8 2.5 2.1 2.2 2.5 2 6.7 4.8 6.4 5.2 5.9 5.4 5.8 5.7 7.2 8.2 6.7 8.7 4.1 5.2 4.3 4.7 5.1 4.6 5.6 4.2 6.5 4.2 9.4 5.3 10.1 5.8 2.5 1.3 2.6 0.6 2.4 0.2 2.5-0.1 2.4-0.5 2.2-0.7 2-1 2-1.1 2.8-2.6 2.3-3.3 0.8-1 0.9-0.8 1.6-0.5 3.4-0.7 3-1.1 2.3-1.6 1.8-1.9 1.2-2.5 0.5-2.9v-3.4l-0.7-3.8-0.9-4-0.4-3.9 0.1-5.8 1-15.6 0.4-15.5-0.4-15.2-1-14.9-1.6-14.7-2.2-14.5-2.8-14.3-3.6-14.1-2.9-12.4-2.2-13.6-1.6-15-1.4-20.5-0.4-8-0.7-6.7-1.1-6.8-1.5-6.9-2.1-6.9-1.1-3.9-0.6-3.7-0.2-3.7v-3.7l0.5-3.7 0.9-3.7 1.3-3.7 1.7-3.6 1.9-4.7 0.8-3.8 0.3-4 0.1-4.3 0.4-4 0.7-3.8 0.9-3.7 1.2-3.4 1.5-3.2 1.7-2.9 2-2.8 3.7-3.8 4.3-3.3"/>
		<path id="Layer" fill-rule="evenodd" class="s13" d="m2309.3 3269.3l-79.4 73.8-2.6 2-2.7 1.6-2.6 1-2.8 0.6-6.8 1.1-7.1 1.7-7.8 2.1-10.4 3-12.9 3.8-9.6 2.3-8.9 1.7-8.5 0.9-16.5 0.9-15.9 0.2-15.7-0.1-15.2-0.8-5.7-0.2-6 0.1-6.3 0.5-6.5 0.8-7.1 1.1-7.3 1.5-15.5 3.8-9.3 2.3-9.4 1.6-9.3 1.3-9.4 0.6h-10.6l-10.8-0.7-10.6-1.5-10.7-2.2-10.8-3-10.8-3.6-10.7-4.5-10.9-5"/>
		<path id="Layer" fill-rule="evenodd" class="s13" d="m1866.8 2996.7l-5.2 6.4-4.9 6.7-4.4 6.7-4.2 6.7-4 6.9-3.7 7.2-7.5 14.1-3.5 6-3.3 5.2-3.4 4.6-3 3.7-2.9 3.1-2.8 2.3-6.1 4-6 3.1-6.2 2.3-6.3 1.6-6.5 0.9-6.5 0.1-6.9-0.6-7.2-1.5-7.3-2.1-7.9-2.8-8.9-3.7-12-5.6-10.9-5.1-8-3.4-7.2-2.7-6.8-2.3-3.2-1.2-2.6-2-2-2.5-1.5-3-3.1-8.2-3.7-7.8-4.3-7.4-4.8-6.9-3.5-4.4-3.6-4-3.9-4-4.2-3.8"/>
		<path id="Layer" fill-rule="evenodd" class="s13" d="m1626.3 3319l-7.3 8.6-7.7 7.8-7.8 7-8 6.6-8.4 5.8-8.5 5-8.9 4.5-9.1 3.7-10.6 3.6-11 2.6-11.2 1.7-11.7 0.9h-11.8l-12.3-0.9-12.6-1.7-12.8-2.6-13.6-3-13.3-2.5-12.8-1.9-12.4-1.5-26.8-2.4-27.7-1.5-6.8-0.6-7.2-1-7.4-1.6-7.9-2.2-8.3-2.6-8.7-3.2-9-3.7-9.4-4.2-15.1-6.8-15.4-6.8-16-6.4-16.3-6.5"/>
		<path id="Layer" fill-rule="evenodd" class="s11" d="m584.3 695l2-6.8 1.2-6.5 0.5-6.5-0.2-6-1-5.8-1.9-5.5-2.5-5.1-3.2-4.5-3.9-4.1-4.6-3.5-5.2-2.8-5.8-2.1-6.1-1.4-6.5-0.6-6.8 0.3-7.1 0.8-29.3 5.8-28.6 6.5-2 0.3h-2l-3.6-0.5-3.2-1.2-3-2-2.4-2.6-1.8-3.1-1-3.4-0.2-3.6 0.6-3.5 2.5-7.1 3.3-6.6 3-4.4 3.3-4.3 3.7-3.9 4.2-3.7 21.2-16.6 21.4-15.3 21.4-14.5 21.5-13.2 1.2-0.9 2.4-2.1 1.7-2.4 1.2-2.9 0.8-3.1-0.2-3.1-0.6-3.1-1.2-2.8-1.9-2.5-31.9-35.3-30.9-35.2-30.1-34.8-29.2-34.6-9.3-10.3-13.5-13.4-10.2-10-7.3-7.6-6.2-7.1-5.4-6.9-0.3-0.4-4.2-5.2-4.6-4.8-5.2-4.6-5.7-4-2.7-1.4-1.3-0.2-1.3 0.1-1.2 0.3-1.1 0.7-1.1 1-1.1 1.3-1.8 2.1-2 1.9-1.9 1.2-2.3 1-1.8 0.5-2 0.1"/>
		<path id="Layer" fill-rule="evenodd" class="s12" d="m3499.6 2640.5l-4.2 8.8-4 8.8-3.5 8.6-3.3 8.8-3.8 9.7-4.2 8.6-4.8 7.6-2.6 3.4-2.7 3.2-13.3 14-6 5.9-5.7 5.2-5.2 4.4-4.8 3.5-4.5 3-4 2.1-7.5 2.9-3.5 0.9-3.6 0.8-3.6 0.5-3.5 0.1-3.4-0.1-3.5-0.4-3.5-0.7-3.3-1-3.5-1.3-3.3-1.6-3.2-1.9-3.4-2.1-3.2-2.5-3.1-2.9-18.5-17.3-18.8-17-19-16.7-19.2-16.6-19.4-16.2-19.7-15.9-19.8-15.6-20.1-15.5-29.7-22-30.1-21.5"/>
		<path id="Layer" fill-rule="evenodd" class="s12" d="m3023.1 2713.3l0.4 9.1 0.7 9 1.9 13.8 2.8 13.8 3.9 13.6 4.7 13.6 12 30.6 12.6 31.4 13.1 31.8 13.7 32.5 2.2 4.2 3.1 3.7 3.6 3.2 4.2 2.4 4.6 1.6 4.7 0.9 4.8-0.2 4.7-0.9 132.9-40 0.5-0.1 3.3-1.5 3.1-2.2 2.6-2.7 2-3.2 1.2-3.5 0.7-3.7-0.3-3.8-0.9-3.6-7.9-20.7-8.8-20.5-9.6-20.2-10.5-19.7-11.4-19.7-12.2-19.3-13.1-19-14-18.8-5.6-7.9-5.6-9.4-5.9-10.8-5.8-12.3-3.1-6.5-3.3-5.9-3.5-5.4-3.5-4.9-4-4.4-4.1-3.9-4.2-3.3-4.4-2.8"/>
	</g>
	<path id="Layer" class="s14" d="m2260.8 1317.4l-10.8 9.9-10.1 9.9-9.8 10.1-9.2 10.3-8.7 10.4-8.2 10.3-7.8 10.7-7.1 10.7-6.7 10.9-6.3 11-5.7 11.1-5.2 11.2-4.7 11.3-4.2 11.5-3.7 11.7-3.2 11.7-2.2 9.5-1.9 9.8-1.6 9.8-1.2 9.7-1 9.9-0.5 10-0.3 10.2v10.1l0.4 10.3 0.8 10.2 1.1 10.4 1.3 10.5 1.8 10.7 1.9 10.6 2.4 10.7 2.7 10.8 4.1 14.5 4.7 14.1 5.3 13.7 5.8 13.2 6.4 13 7 12.4 7.4 12.1 8.1 11.6 6.3 8.4 6.7 8.2 7.1 8 7.3 7.7 7.6 7.5 7.9 7.3 8.3 7 8.6 6.8 8.9 6.7 9.1 6.3 9.5 6.2 9.8 5.9 10.1 5.7 10.5 5.5 10.8 5.2 11 5-5.3 6.7-5 6.6-4.5 6.6-4.4 6.7-3.9 6.7-3.6 6.7-3.3 6.6-3 6.7-2.7 6.7-2.4 6.8-2 6.7-1.7 6.8-1.4 6.6-0.9 6.8-0.8 6.8-0.4 6.8-0.1 7.2 0.4 7.3 0.6 7.3 1.1 7.3 1.4 7.3 1.7 7.3 2.2 7.3 2.5 7.3 4.2 10.5 4.7 10.3 5.3 10 6 9.6 6.3 9.4 6.9 9.2 7.5 8.9 8.1 8.6 8.6 8.3 9.2 8.2 9.6 7.7 10.2 7.5 10.7 7.1 11.3 6.8 11.7 6.6 12 6.2 12.6 5.8 13.4 5.5 13.7 5.4 14.1 4.8 14.4 4.3 14.9 4.1 15.2 3.6 15.3 3.1 15.5 2.7 15.8 2.3 16 1.9 15.8 1.3 15.9 0.9 15.9 0.4 15.4-0.1 15.3-0.7 14.9-0.9 18.6-2 18.5-2.7 18-3.4 17.8-3.9 17.4-4.7 17.2-5.5 17-6 16.5-6.8 13-5.8 12.8-6.4 12.6-6.6 12.3-7.2 30.2-16.7 29.3-16.8 28.4-17.1 27.5-17 26.4-17.3 25.6-17.6 24.6-17.5 23.8-17.9 10.6-8.6 10.4-9.8 10.5-10.6 10.3-11.8 6.9-8.9 7.2-10.5 7.4-12.2 9.9-17.6 10.7-19 8.4-13.8 8.3-12.2 8.2-10.6 10.6 1 2.7 0.6 1 0.6 0.8 0.8 0.5 1 0.1 1.1-0.3 2.8-5.4 20.9-6.3 20.5-6.9 20.1-7.7 19.5-8.4 19.2-9.2 18.6-9.9 18.2-10.6 17.7-11.4 17.3-12.1 16.9-12.7 16.4-13.6 15.9-19.7 21.8-19.4 20.9-19.1 19.7-19.1 19-18.9 17.9-18.5 16.9-18.5 16.1-18.3 14.9-16.4 12.7-17.8 12.7-19.1 12.6-20.4 12.6-21.6 12.6-22.9 12.6-24.2 12.5-25.6 12.6-29.2 13.8-29.4 13.2-29.4 12.8-29.6 12.3-29.6 11.9-29.8 11.5-29.8 10.8-30.1 10.5-35.8 7.6-35.6 7.2-35.1 6.8-34.8 6.5-34.4 6.1-34 5.8-33.6 5.3-33.2 5.1-32.9 4.5-32.5 4.4-32.1 3.9-31.7 3.6-31.3 3.2-31.1 2.9-30.5 2.6-30.2 2.1-36.1 2.2-36.6 1.8-37 1.5-37.4 1.1-37.8 0.9-38.3 0.5-38.7 0.1-39.1-0.2-39.6-0.5-39.9-0.9-40.3-1.2-40.8-1.5-41.3-2-41.5-2.2-42.1-2.5-42.5-2.9-22.3-2-26.8-2.9-31.5-4.1-36.1-4.9-40.8-6.1-45.4-6.9-49.9-8.1-54.7-9.1-14.6-1.9-16.4-1.3-18.3-0.6-20.2 0.1-64-21.6-54.5-18.8-45.2-16-35.4-13.1-28.1-11.1-27.6-11.9-27.2-12.4-26.6-13.3-26.1-13.9-25.7-14.8-25.2-15.3-24.7-16.2-15.7-10.7-15.6-11.2-15.2-11.3-15.2-11.7-15-11.9-14.7-12.4-14.4-12.6-14.4-12.9-14.1-13.2-14-13.5-13.7-13.7-13.5-14.1-13.3-14.5-13.1-14.6-12.9-14.9-12.7-15.3-12.9-16.4-12-16.5-11.1-17-10.4-17.2-9.5-17.4-8.8-17.8-8-18-7.2-18.3-5.8-17.1-5.2-17.4-4.4-17.6-3.9-17.8 3.9-0.2h3.6l3.4 0.3 3.2 0.5 3 0.9 2.8 1.1 2.6 1.4 2.5 1.6 3 2.6 2.7 3.2 2.2 3.6 1.9 4.2 4.1 9.9 4.3 9.7 4.6 9.5 4.9 9.3 5.2 9 5.6 8.8 5.8 8.7 6.2 8.3 6.5 8.2 6.9 8.1 7.2 7.8 7.5 7.5 7.8 7.4 8.2 7.1 8.4 6.9 8.8 6.5 1 0.8 21.1 15.1 21.3 14.9 21.4 14.6 21.6 14.5 21.9 14.2 21.9 14 22.2 13.7 22.3 13.5 14.1 8.3 13.9 7.6 14.1 7.4 14.3 6.8 14 6.3 14.3 6 14.2 5.4 14.2 5 14.3 4.5 14.4 4.1 14.3 3.5 14.4 3.2 14.4 2.6 14.5 2.2 14.5 1.8 14.6 1.2 15 0.7 15.1 0.4 15.2-0.2 15.2-0.8 15.4-1.1 15.3-1.7 15.3-2.3 15.4-2.7 15.3-3.2 15.4-3.7 15.5-4.2 15.6-4.8 15.4-5.2 15.6-5.7 15.6-6.3 15.7-6.7 14.9-7.2 14.5-8 14.1-8.9 13.4-9.5 12.7-10.3 11.9-10.9 5.5-5.4 5.3-5.7 5.1-5.8 4.8-5.9 4.6-5.8 4.3-6.1 4-6.1 3.7-6.1 3.5-6.2 3.2-6.2 2.8-6.3 2.6-6.3 2.4-6.4 2.1-6.5 1.7-6.4 1.5-6.4 1.1-6.5 0.9-6.5 0.6-6.4 0.3-6.6v-7.2l-0.3-7.3-0.8-7.1-1.1-7.3-1.7-6.3-3.6-10-5.6-13.6-7.5-17.2-2.7-6.7-2.1-6.6-1.6-6.4-1.1-6.3-0.7-6.2v-5.9l0.7-5.9 0.9-5.9 0.5-1.9 12.7-7.1 12.1-7.1 11.7-7.5 11.3-7.8 10.7-7.9 10.3-8.1 9.9-8.4 9.5-8.7 8.9-8.9 8.5-9.1 8.1-9.4 7.6-9.6 7.2-9.8 6.7-10.1 6.3-10.3 5.8-10.6 4.7-9.4 4.3-9.5 4-9.7 3.7-10.1 3.2-10 3-10.4 2.7-10.5 2.2-10.6 2-10.8 1.6-11.1 1.2-11.1 0.9-11.4 0.5-11.6 0.2-11.7-0.1-11.9-0.5-12.1-1.1-14.5-1.6-14.3-2.3-14-2.9-13.7-3.5-13.5-4-13.2-4.6-12.9-5.3-12.7-4.1-8.9-4.6-8.9-4.7-8.7-5-8.5-5.5-8.6-5.7-8.2-5.9-8.2-6.3-7.9-6.7-7.9-6.9-7.8-7.3-7.6-7.5-7.5-7.8-7.3-8.2-7.2-8.5-7-8.8-6.9 35.1-19.9 34.7-20.2 34-20.4 33.7-20.8 33-20.9 32.4-21.1 32-21.5 31.4-21.8 30.8-22 30.4-22.2 29.8-22.5 29.2-22.9 28.7-23 28.1-23.4 27.7-23.5 27.1-23.8 4.3-3.7 4.4-3.1 4.2-2.5 4.1-2 3.9-1.4 4-0.8 3.8-0.4 3.8 0.4 4.5 1.1 4.3 2 4.3 3 4.1 3.7 5.5 5.5 23.9 24.8 18.1 17.6 8.5 7.8 8.4 7.5 8.1 6.8 8.1 6.4 49.1 37.6 45 34 40.8 30.5 36.7 27.1 32.7 23.5 28.5 20 24.5 16.6 20.3 12.9 20.8 13 19.1 12.1 17.5 11.5 15.9 10.8 14.2 9.9 12.5 9.3 11 8.5z"/>
	<g id="Layer">
		<path id="Layer" class="s15" d="m1234.5 1309.5l8.8 6.9 8.5 7 8.2 7.2 7.8 7.3 7.5 7.5 7.3 7.6 6.9 7.8 6.7 7.9 6.3 7.9 5.9 8.2 5.7 8.2 5.5 8.6 5 8.5 4.7 8.7 4.6 8.9 4.1 8.9 5.3 12.7 4.6 12.9 4 13.2 3.5 13.5 2.9 13.7 2.3 14 1.6 14.3 1.1 14.5 0.5 12.1 0.1 11.9-0.2 11.7-0.5 11.6-0.9 11.4-1.2 11.1-1.6 11.1-2 10.8-2.2 10.6-2.7 10.5-3 10.4-3.2 10-3.7 10.1-4 9.7-4.3 9.5-4.7 9.4-5.8 10.6-6.3 10.3-6.7 10.1-7.2 9.8-7.6 9.6-8.1 9.4-8.5 9.1-8.9 8.9-9.5 8.7-9.9 8.4-10.3 8.1-10.7 7.9-11.3 7.8-11.7 7.5-12.1 7.1-12.7 7.1-15.2 6.3-15.3 5.5-15.3 4.9-15.5 4.3-15.4 3.4-15.4 2.9-15.5 2.2-15.5 1.4-15.3 0.8h-15.5l-15.2-0.6-15.2-1.3-15-2-14.8-2.7-14.7-3.5-14.6-4.1-12-3.9-11.9-4.5-11.6-4.9-11.5-5.5-11.3-5.8-11.1-6.2-11-6.8-10.6-7.1-10.5-7.7-10.3-8-9.8-8.6-9.7-8.7-9.4-9.4-9.3-9.7-8.7-10.1-8.7-10.5-8.5-13-8.1-13.1-7.4-13.4-6.8-13.2-6.2-13.6-5.4-13.6-4.9-13.7-4.4-13.6-3.6-14-2.9-13.8-2.4-14-1.7-14-1.1-13.9-0.4-14 0.3-14 0.8-13.8 1.5-14.1 2.2-13.9 2.9-13.8 3.4-13.6 4.1-13.6 4.7-13.4 5.5-13.2 5.9-12.9 6.7-12.7 7.1-12.5 7.8-12.2 8.3-11.9 8.9-11.5 9.4-11.1 9.8-10.7 10.4-10.2 10.7-9.9 11.3-9.4 11.5-8.9 12.1-8.4 12.2-7.8 12.8-7.3 12.9-6.8 13.3-6.2 13.3-5.4 13.7-5.1 13.8-4.3 14.1-3.7 13.9-3.1 14.2-2.5 14.4-1.8 14.3-1.2 14-0.6 14.1 0.2 14.1 0.6 14.1 1.3 14 1.9 13.9 2.5 13.9 3 13.9 3.8 13.6 4.3 13.8 4.8 13.4 5.6 13.5 6 13.2 6.7 13.2 7.2 12.9 7.8z"/>
		<path id="Layer" class="s15" d="m2735.8 1755.2l-11.3 14.1-11.7 13.2-12.1 12.6-12.6 11.8-13 11-13.5 10.2-14 9.5-14.3 8.7-9.6 5.3-9.9 5.1-10.2 4.7-10.2 4.3-10.5 4-10.8 3.7-10.9 3.3-11 3-14.8 3.4-14.7 2.8-14.7 2.1-14.8 1.4-14.4 0.9-14.6 0.1-14.4-0.5-14.4-1.1-11.6-1.5-11.7-1.8-11.5-2.2-11.6-2.8-11.5-3.2-11.4-3.6-11.3-3.9-11.4-4.5-11-5-10.8-5.2-10.5-5.5-10.1-5.7-9.8-5.9-9.5-6.2-9.1-6.3-8.9-6.7-8.6-6.8-8.3-7-7.9-7.3-7.6-7.5-7.3-7.7-7.1-8-6.7-8.2-6.3-8.4-8.1-11.6-7.4-12.1-7-12.4-6.4-13-5.8-13.2-5.3-13.7-4.7-14.1-4.1-14.5-2.7-10.8-2.4-10.7-1.9-10.6-1.8-10.7-1.3-10.5-1.1-10.4-0.8-10.2-0.4-10.3v-10.1l0.3-10.2 0.5-10 1-9.9 1.2-9.7 1.6-9.8 1.9-9.8 2.2-9.5 3.2-11.7 3.7-11.7 4.2-11.5 4.7-11.3 5.2-11.2 5.7-11.1 6.3-11 6.7-10.9 7.1-10.7 7.8-10.7 8.2-10.3 8.7-10.4 9.2-10.3 9.8-10.1 10.1-9.9 10.8-9.9 9.4-6.9 9.5-6.7 9.4-6.3 9.6-6 9.7-5.5 9.6-5.2 9.8-5 9.8-4.4 9.7-4.2 9.9-3.8 10-3.6 9.9-3.1 10.2-2.9 10-2.4 10.1-2.1 10.3-1.8 11-1.5 11.1-1.1 11.1-0.6 11.2-0.4 11.2 0.2 11.4 0.5 11.4 0.8 11.3 1.4 11.5 1.6 11.7 2.1 11.6 2.6 11.6 2.8 11.7 3.4 11.9 3.7 11.9 4.1 11.9 4.4 14.2 6.1 13.9 7 13.8 7.8 13.4 8.8 13.1 9.6 12.7 10.3 12.2 11.2 11.6 11.8 11.1 12.6 10.7 13.1 9.9 13.7 9.2 14.2 8.6 14.6 7.8 15.1 6.9 15.2 6 15.5 5.2 15.4 4.6 15.4 3.6 15.3 3 15.3 2.1 15.4 1.2 15.2 0.6 15.3-0.2 15.2-0.6 11-1.2 11-1.4 11-2 11-2.4 11-2.7 10.9-3.2 11-3.5 10.9-4 10.9-4.4 11-4.8 10.7-5.3 10.9-5.7 10.9-6.1 10.7-6.4 10.9z"/>
	</g>
	<path id="Layer" class="s16" d="m2973 162.4l21.3 4.7 21.3 3.9 21.2 3.3 21.6 2.4 3 0.4 3 0.6 2.9 1.1 1.6 1.3 1.4 1.3 1.3 2 1.6 2.5 2 2 2.4 1.7 2.9 1.1 4.3 1.4 4.3 1.7 4.2 1.8 4.2 2.3 4.1 2.6 4 2.7 3.9 3.1 3.9 3.3 3.2 3.4 2.3 3.4 1.8 3.6 0.7 3.6 0.1 4.1-0.8 4-1.3 3-1.6 3-2 2.7-2.6 2.8-2.9 2.6-3.4 2.6-3.8 2.5-4.3 2.4-25.7 11.7-25.3 12.4-24.7 13.1-24.2 13.8-23.6 14.5-23 15.1-22.6 15.8-22.1 16.6-11.7 9.2-11.5 9.4-11.4 9.7-11.2 9.9-11 10-10.9 10.2-10.8 10.4-10.6 10.7-10.4 10.8-10.4 11-10 11.3-10 11.4-9.8 11.7-9.7 11.8-18.8 24.3-1.4 2.1-1.2 2.2-1 2.5-0.7 2.5-0.5 2.6-0.2 2.6v2.6l0.4 2.6 0.6 2.6 0.9 2.4 1.2 2.4 1.4 2.2 1.6 2.1 1.8 1.9 2 1.7 2.1 1.5 2.4 1.2 4.1 2.1 3.9 2.2 3.8 2.6 3.6 2.8 3.9 3.2 3.4 3.4 3.5 3.9 3.1 3.9 0.7 0.9 2.9 3.3 3.3 3 3.8 2.7 5.6 3.5 5.6 3.4 3.8 2.8 3.2 2.9 2.6 3.2 1.1 1.5 15.1 22.9 15.2 22.5 15.2 22.3 15.5 21.8 15.4 21.6 15.7 21.2 15.7 20.9 15.8 20.5 15.4 20.2 15.2 21 14.9 22 15 22.8 36.9 58.1 14.9 24.1 13.6 22.5 13 21.7 12 20.9 11.2 20.2 10.7 19.8 10.1 19.5 9.6 19.2 9 18.8 8.4 18.5 7.7 18.2 7.2 17.9 6.7 17.7 6.2 17.4 19.4 55.9 19.6 54.9 5.5 15.6 5.2 15.7 7.4 24.8 6.5 25.4 5.9 25.8 5 26.8 4.5 27.6 3.8 29.3 3.5 31.8 3.2 35.6v2.2l-0.5 2.1-0.9 2-1.3 1.9-1.5 1.4-1.9 1.3-2.1 0.7-2.2 0.4-17.2 1.2-16.9 1.6-16.8 1.9-16.7 2.1-16.6 2.5-16.3 2.6-16.3 2.9-16 3.4-15.9 3.4-15.7 3.9-15.7 4-15.4 4.4-15.3 4.7-15.1 4.9-14.9 5.2-14.9 5.4-6.3 2.9-2.7 1.7-2.3 1.7-2.2 2-1.8 2-1.5 2.2-1.1 2.4-0.9 2.1-0.5 2.2-0.5 4.7 0.5 5.2 1.4 5.6 1.2 2.7 1.9 2.2 2.3 1.9 2.8 1.1 4.5 1.1 4.7 0.8 4.9 0.5 5 0.4 5.1-0.1 5.3-0.3 5.3-0.6 5.6-0.8 57.7-10.6 56.4-10.6 54.8-10.6 53.3-10.5 2.8-0.3 2.8 0.5 2.6 1.3 2.3 1.7 1.7 2.2 1.2 2.6 0.5 2.9-0.2 2.8-2.6 14.7-1.9 14.5-1.1 14.4-0.2 14.4-0.2 8.1-0.4 8.3-1 8.6-1.4 8.9-1.9 9.2-2.2 9.8-2.8 10.9-3.7 13-0.8 1.9-0.8 1.6-1.1 1.3-1.3 1-1.5 0.7-1.7 0.4h-1.9l-2.1-0.3-20.1-3.9-20-3.5-20.2-2.6-20-2.1-20-1.5-20.1-0.7-19.9-0.1-19.9 0.5-20.6 1.2-20.6 1.9-3.4 0.6-3 1-2.5 1.4-1.9 1.9-1.4 2.2-0.9 2.7-0.3 3.1 0.1 3.6 0.5 2.2 0.4 0.9 2.1 4.6 2.6 3.8 2.9 3.2 3.4 2.6 2.6 1.4 2.8 1 3.1 0.7 3.2 0.4 21 1.5 21.2 2 21 2.4 21 3.1 21 3.5 21 4.1 21.1 4.5 21 5.1-8.2 10.6-8.3 12.2-8.4 13.8-10.7 19-9.9 17.6-7.4 12.2-7.2 10.5-6.9 8.9-10.3 11.8-10.5 10.6-10.4 9.8-10.6 8.6-23.8 17.9-24.6 17.5-25.6 17.6-26.4 17.3-27.5 17-28.4 17.1-29.3 16.8-30.2 16.7 13.3-10.4 12.4-10.7 11.7-11.2 11-11.6 10.1-12 9.5-12.5 8.7-12.8 7.9-13.4 4.8-9 2.9-5.8 2.4-6 2.1-5.9 1.9-6 1.4-5.9 1.2-5.6 0.9-6 0.6-5.8 0.2-6 0.1-6.1-0.2-6.2-0.5-6-0.7-6.3-1.2-6.2-1.2-6.3-1.6-6.2-1.9-6.4-2.2-6.4-5-12.7-6.2-12.8-7.2-12.7-8.2-12.6-9.1-12.2-9.9-11.8-10.6-11.1-11.3-10.5-11.6-9.6-9.3-6.6-11.5-7-13.7-7.7-15.1-7.7-16.2-7.6-16.5-7.2-16.1-6.4-15.2-5.5-12.6-4.4-12.4-4.7-12.1-5.1-12-5.4 6.9-10.8 6.4-10.9 6.1-10.7 5.7-10.9 5.3-10.9 4.8-10.7 4.4-11 4-10.9 3.5-10.9 3.2-11 2.7-10.9 2.4-11 2-11 1.4-11 1.2-11 0.6-11 0.2-15.2-0.6-15.3-1.2-15.2-2.1-15.4-3-15.3-3.6-15.3-4.6-15.4-5.2-15.4-6-15.5-6.9-15.2-7.8-15.1-8.6-14.6-9.2-14.2-9.9-13.7-10.7-13.1-11.1-12.6-11.6-11.8-12.2-11.2-12.7-10.3-13.1-9.6-13.4-8.8-13.8-7.8-13.9-7-14.2-6.1-11.9-4.4-11.9-4.1-11.9-3.7-11.7-3.4-11.6-2.8-11.6-2.6-11.7-2.1-11.5-1.6-11.3-1.4-11.4-0.8-11.4-0.5-11.2-0.2-11.2 0.4-11.1 0.6-11.1 1.1-11 1.5-10.3 1.8-10.1 2.1-10 2.4-10.2 2.9-9.9 3.1-10 3.6-9.9 3.8-9.7 4.2-9.8 4.4-9.8 5-9.6 5.2-9.7 5.5-9.6 6-9.4 6.3-9.5 6.7-9.4 6.9-9.3-7.8-11-8.5-12.5-9.3-14.2-9.9-15.9-10.8-17.5-11.5-19.1-12.1-20.8-13-20.3-12.9-24.5-16.6-28.5-20-32.7-23.5-36.7-27.1-40.8-30.5-45-34-49.1-37.6-8.1-6.4-8.1-6.8-8.4-7.5-8.5-7.8-18.1-17.6-23.9-24.8-5.5-5.5-4.1-3.7-4.3-3-4.3-2-4.5-1.1-3.8-0.4-3.8 0.4-4 0.8-3.9 1.4-4.1 2-4.2 2.5-4.4 3.1-4.3 3.7-27.1 23.8-27.7 23.5-28.1 23.4-28.7 23-29.2 22.9-29.8 22.5-30.4 22.2-30.8 22-31.4 21.8-32 21.5-32.4 21.1-33 20.9-33.7 20.8-34 20.4-34.7 20.2-35.1 19.9-12.9-8.4-12.9-7.8-13.2-7.2-13.2-6.7-13.5-6-13.4-5.6-13.8-4.8-13.6-4.3-13.9-3.8-13.9-3-13.9-2.5-14-1.9-14.1-1.3-14.1-0.6-14.1-0.2-14 0.6-14.3 1.2-14.4 1.8-14.2 2.5-13.9 3.1-14.1 3.7-13.8 4.3-13.7 5.1-13.3 5.4-13.3 6.2-12.9 6.8-12.8 7.3-12.2 7.8-12.1 8.4-11.5 8.9-11.3 9.4-10.7 9.9-10.4 10.2-9.8 10.7-9.4 11.1-8.9 11.5-8.3 11.9-7.8 12.2-7.1 12.5-6.7 12.7-5.9 12.9-5.5 13.2-4.7 13.4-4.1 13.6-3.4 13.6-2.9 13.8-2.2 13.9-1.5 14.1-0.8 13.8-0.3 14 0.4 14 1.1 13.9 1.7 14 2.4 14 2.9 13.8 3.6 14 4.4 13.6 4.9 13.7 5.4 13.6 6.2 13.6 6.8 13.2 7.4 13.4 8.1 13.1 8.5 13-16.3 4.1-16.6 4.7-16.8 5.6-16.9 6.5-17.3 7.3-17.6 8-17.7 8.8-18 9.6-14.2 8.4-13.3 8.9-6.3 4.7-6 4.8-5.9 5-5.6 5.1-5.4 5.2-5 5.3-5 5.5-4.7 5.6-4.4 5.8-4.2 5.8-4 6.1-3.7 6.2-5.4 9.7-4.8 10.2-4.3 10.5-3.7 10.7-3.1 11.2-2.5 11.3-2 11.8-1.5 12.1-0.5 7.5v6.6l0.5 6.7 0.9 6.6 1.2 6.7 1.7 6.8 2.1 6.8 2.6 6.8 3 6.9 3.3 7 3.7 6.9 4.2 7.2 4.6 7.4 10.8 15.4 15.3 20.4 12.2 16.1 8.1 11.4-22.3-13.5-22.2-13.7-21.9-14-21.9-14.2-21.6-14.5-21.4-14.6-21.3-14.9-21.1-15.1-1-0.8-8.8-6.5-8.4-6.9-8.2-7.1-7.8-7.4-7.5-7.5-7.2-7.8-6.9-8.1-6.5-8.2-6.2-8.3-5.8-8.7-5.6-8.8-5.2-9-4.9-9.3-4.6-9.5-4.3-9.7-4.1-9.9-1.9-4.2-2.2-3.6-2.7-3.2-3-2.6-2.5-1.6-2.6-1.4-2.8-1.1-3-0.9-3.2-0.5-3.4-0.3h-3.6l-3.9 0.2 24.9-5.7 24.3-5.1 23.7-4.3 22.8-3.7 22.4-3 21.6-2.3 21.1-1.7 20.4-1 4.4-0.4 4.1-1 3.6-1.5 3.3-2.1 2.9-2.6 2.3-3.2 2-3.8 1.6-4.3 1.1-3.6 0.8-3.4 0.1-2.8-0.5-2.6-1-2.1-1.6-1.9-2.1-1.3-2.7-1.1-3.3-0.7-11.4-1.4-11.7-1.3-11.8-1-12-0.6-12.4-0.4-12.4-0.1-12.7 0.3-12.7 0.5-13 0.7-13.1 1.1-13.4 1.4-13.3 1.6-13.7 1.8-13.8 2.3-13.7 2.4-14 2.8-1.7 0.2h-1.6l-1.5-0.4-1.2-0.5-1.1-0.8-1-1.1-0.9-1.4-0.6-1.6-3.1-10-2.7-10.4-2.4-10.6-1.9-11-1.8-11.4-1.5-12.4-2.9-32.1-1.9-22.3-1.7-16.5-0.1-2.1 0.5-2.8 0.9-2.6 1.7-2.3 1.9-1.9 2.4-1.4 2.6-0.9 2.8-0.3 2.7 0.3 59.1 12.8 59.1 11.9 58.9 11.1 58.8 10.2 5.6 0.6 5.3-0.1 5-0.9 4.7-1.5 2.8-1.5 2.7-1.6 2.6-1.9 2.5-2.4 2.5-3.2 1.8-3.6 0.9-4 0.1-4-0.7-4-1.6-3.8-2.5-3.2-3-2.8-2.3-1.4-12-6-12.5-5.5-13.2-5.5-13.6-5-14.4-4.7-14.8-4.6-15.5-4.2-16-4-16.7-3.6-17.2-3.3-17.9-3.1-18.7-3-19.3-2.6-20.3-2.3-21.2-2.2-22.8-2-2.3-0.4-2.3-1-2.1-1.2-1.7-1.7-1.4-2-0.9-2.2-0.5-2.4v-2.3l2.1-23.2 2.6-22.8 2.8-22.9 3.2-22.6 3.6-22.7 4-22.3 4.3-22.3 4.7-22.1 4.9-22 5.5-21.9 5.8-21.8 6.2-21.6 6.4-21.5 6.9-21.3 7.2-21.2 7.5-21.1 7.6-19.6 7.6-19.6 8.2-19.2 8.4-19.3 8.7-19.2 9-19 9.4-18.9 9.6-18.8 14.1-26.5 14.5-26 14.7-25.6 15-25.2 15.2-24.7 15.5-24.4 15.9-23.9 16.2-23.5 16.4-23 16.7-22.8 16.9-22.2 17.3-21.8 17.6-21.5 17.9-20.9 18.2-20.6 18.4-20.2 17.3-18.2 18.4-18.4 19.3-18.8 20.4-19 12.5-12.3 12.3-11.8 4.8-4.4 4.7-3.7 4.8-3.3 4.8-2.9 4.8-2.4 4.9-2 4.1-1.4 2.3-0.8 2.2-1.1 2.1-1.3 1.9-1.6 1.8-1.7 1.5-2 1.4-2.1 1.1-2.2 0.9-2.4 0.5-2.3 0.3-2.5v-2.5l-0.2-2.4-0.5-2.4-0.8-2.5-0.9-2.2-2.3-3.4-15.2-19.1-15.6-18.5-16.3-18.3-16.7-17.8-17.4-17.3-17.8-17.1-18.4-16.6-18.9-16.2-19.6-15.8-20-15.3-20.5-15-21-14.6-21.8-14.1-22.1-13.7-22.8-13.3-23.2-13-12.4-6.3-9.5-4.5-9.7-4.2-9.7-3.7-10-3.6-10.1-3.2-10.2-2.8-10.4-2.6-10.5-2.4-3.1-0.7-2.8-1.3-2.9-1.3-2.6-1.9-2.3-2-2.1-2.3-2-2.5-1.5-2.7-1.2-2.8-1-3.1-0.6-3.1-0.2-3.1 0.2-3.1 0.5-3.2 0.7-3 1.2-3 1.6-2.8 1.9-2.7 2.1-2.6 3.5-3.8 3.7-3.8 3.9-3.5 4.1-3.4 4.3-3.2 4.5-3.1 9.5-5.5 10.4-5 11.1-4.2 12-3.6 12.7-2.9 13.5-2.3 14.2-1.5 15.1-0.8 15.8-0.3 16.7 0.4 17.8 1.1 19 1.6 20.6 2.5 24.5 3.3 24.3 3.9 24.1 4 23.8 4.5 23.6 4.7 23.4 5.2 23.1 5.4 22.9 6 22.6 6.1 22.4 6.6 22.1 6.9 22 7.2 21.6 7.7 21.5 7.9 21.2 8.3 21 8.6 14 6.2 13.6 6.4 13.3 6.9 13 7.2 12.7 7.7 12.5 8 12.1 8.3 11.9 8.8 1.4 1.2 0.8 1.1 0.7 1.3 0.2 1.1-0.2 1.2-0.5 1.2-1 1.2-1.3 1.2-34.6 28.1-33.4 27.4-3.4 3.2-2.9 3.5-2.4 3.6-1.9 3.8-1.6 5.2-0.2 2.8 0.2 1 0.6 0.8 0.8 0.5 1.1 0.2 2.8-0.4 32.3-8.7 14 2.4 2.7 0.8 2.1 1.3 1.7 2.1 1.1 2.6 4.8 14.7 5.5 14.1 6 13.8 6.6 13.1 7.2 12.7 7.8 12.1 8.4 11.6 8.9 11.3 7.6 8.6 8.1 8.3 8.4 7.9 8.7 7.7 9.2 7.4 9.5 7 10 6.7 10.3 6.4 7.2 3.9 6.9 3.3 6.8 2.8 6.5 2.1 6.5 1.5 6.3 0.7 6 0.2 5.8-0.3 5.1-0.9 4.8-1.5 4.4-2 3.9-2.4 4.1-3.6 3.5-4.2 3.1-5 2.4-5.5 2.1-6.3 1.5-7 1-7.6 0.5-8.4 7.4-30.3 6.8-30.6 6.3-30.6 5.8-31 5.2-31.3 4.7-31.6 4.1-31.7 3.6-32.1 43.5-16.8 4 2 3.5 2.1 3.3 2.2 2.7 2.4 2.2 2.5 1.9 2.6 1.3 2.6 1 2.8 0.4 1.6 10.5 55.6 11.2 55.4 11.9 55 12.6 54.8 13.4 54.4 14.1 54.2 14.8 53.8 15.5 53.5 1.6 4.9 2.1 4.5 2.3 4.2 2.7 3.8 2.9 3.4 2.5 2.1 2.2 1.1 1 0.2 0.8-0.1 0.9-0.4 0.7-0.7 1.3-2.1 0.8-3.2 0.7-4.4 2.1-20.6 2.8-22.4 3.7-24.6 5.6-33.5 7.6-47.3 2.6-18.3 2.1-16.7 1.9-16.1 8.4-78.1 7.4-78.3 6.7-78.3 5.8-78.5 104.8-13 6.6 31.6 5.1 25.2 3.3 18.9 1.9 12.6 4.7 38.8 5 38.7 5.6 38.5 6.1 38.2 6.3 37.9 6.8 37.8 7.3 37.4 7.6 37.4 2.6 11.1 3.1 12.1 3.8 13.1 5.5 17.8 7.3 24 4.9 17.9 1.4 4.2 1.7 4.1 2.1 3.7 2.5 3.3 2.6 2.8 3.1 2.3 3.1 1.7 3.4 1.3 2.9 0.6 3.1 0.1 2.9-0.1 3.2-0.6 3.5-1.4 3.1-2.1 2.5-2.8 1.6-3.4 6.9-21.5 6.3-21.5 5.2-19.5 4.7-19.7 4.2-19.9 3.8-19.9 3.4-20.4 2.9-20.5 2.5-20.9 2.1-21.3 2.2-23.6 2.8-25.7 7.9-67.4 8.4-71.1 2.8-27.2 2.2-24.9 1.6-15 2.3-14.6 2.8-14.2 3.5-13.7 85.4 9.7 7.2 38.4 6.5 38.4 6.2 38.5 5.6 38.7 4.9 38.7 4.6 38.9 4 38.9 3.4 39.1 1.1 12.6 1.4 12.4 1.6 11.9 1.9 11.5 1.9 11.1 2.3 10.7 2.4 10.4 2.6 10 2.7 10.4 2.4 10.4 2 10.5 1.7 10.7 1.2 10.7 1.2 10.9 0.6 11 0.3 11 0.3 8.4 0.4 7.3 0.6 6.2 0.8 5.2 1.2 4 1.2 3 1.5 2 0.7 0.6 0.9 0.3h0.8l1-0.3 2.1-1.2 2.3-2.4 2.4-3.3 2.8-4.5 2.8-5.5 3.1-6.7 3.3-7.7 6.5-16 6.1-16.5 6-17 5.8-17.6 5.5-18.1 5.4-18.4 5-19 5-19.5 8-34.5 7.2-34.4 6.5-34.3 5.7-34.1 5-34 4.2-33.9 3.3-33.8 2.6-33.7 0.4-2.4 0.5-2.5 0.8-2.5 1.2-2.2 1.3-2.2 1.5-2 1.9-1.9 1.9-1.6 2.1-1.3 2.3-1.3 2.3-0.8 2.5-0.7 2.5-0.4h2.5l2.5 0.1 2.6 0.5 3.6 1.1 5.7 2.6 5.4 2.7 5.2 3.1 4.8 3.2 4.5 3.6 4.3 3.7 4 4 3.7 4.2 4.2 5.6 3.7 6 3.2 6.4 2.9 6.8 2.3 7.2 2 7.4 1.3 7.9 1 8.3 1.8 17.7 2.2 18.4 2.6 19 3.2 19.8 3.6 20.3 3.9 21 4.6 21.7 5 22.3 0.2 2.5 0.9 2.6 1.3 2.7 2.1 2.7 2.5 2.8 3.2 2.8 3.7 2.8 4.4 3 5 2.7 5.7 2.3 6.1 1.6 6.7 1 6.9 0.3 7.5-0.2 8.1-0.8 8.2-1.4 9.1-2.1 9.1-2.8 9.3-3.3 9.3-3.8 9-4.4 8.6-4.5 7.8-4.9 6.7-4.8 4.8-4.2 5.1-5.1 5.2-6 5.4-6.9 5.6-7.8 5.8-8.8 5.9-9.8 6.2-10.6 9.8-16.7 10.4-15.9 10.7-15.1 11.3-14.4 11.1-6.4 1.2-0.9 1-1.1 0.8-1.2 0.5-1.5 0.3-1.5-0.1-1.5-0.2-1.4-0.7-1.4-2.6-4.6-2.9-4.4-3.2-4.4-3.5-4.3-3.7-4.1-4.1-4-4.3-3.9-4.6-3.8-4.8-3.7-5.2-3.6-11-6.8-12.2-6.3-13.4-5.9-3.2-1.5-2.2-1.5-1.4-1.6-0.5-1.6 0.4-1.6 1.2-1.8 2.2-1.7 3.1-1.7 18.1-9.7 24.1-13.9 21.9-12.8 16.2-8.8 15.2-7.4 14.3-6 24.3-9.2 24.2-8.8 24.2-8.4 24.4-7.9 24.3-7.6 24.4-7.2 24.5-6.8 24.4-6.4 24.5-6 24.5-5.7 24.6-5.2 24.6-4.9 24.6-4.5 24.6-4 24.7-3.6 24.8-3.4 8.5-0.6 11.5-0.1 14.6 0.2z"/>
	<g id="Layer">
		<path id="Layer" class="s17" d="m2735.8 1755.2l12 5.4 12.1 5.1 12.4 4.7 12.6 4.4 15.2 5.5 16.1 6.4 16.5 7.2 16.2 7.6 15.1 7.7 13.7 7.7 11.5 7 9.3 6.6 11.6 9.6 11.3 10.5 10.6 11.1 9.9 11.8 9.1 12.2 8.2 12.6 7.2 12.7 6.2 12.8 5 12.7 2.2 6.4 1.9 6.4 1.6 6.2 1.2 6.3 1.2 6.2 0.7 6.3 0.5 6 0.2 6.2-0.1 6.1-0.2 6-0.6 5.8-0.9 6-1.2 5.6-1.4 5.9-1.9 6-2.1 5.9-2.4 6-2.9 5.8-4.8 9-7.9 13.4-8.7 12.8-9.5 12.5-10.1 12-11 11.6-11.7 11.2-12.4 10.7-13.3 10.4-12.3 7.2-12.6 6.6-12.8 6.4-13 5.8-16.5 6.8-17 6-17.2 5.5-17.4 4.7-17.8 3.9-18 3.4-18.5 2.7-18.6 2-14.9 0.9-15.3 0.7-15.4 0.1-15.9-0.4-15.9-0.9-15.8-1.3-16-1.9-15.8-2.3-15.5-2.7-15.3-3.1-15.2-3.6-14.9-4.1-14.4-4.3-14.1-4.8-13.7-5.4-13.4-5.5-12.6-5.8-12-6.2-11.7-6.6-11.3-6.8-10.7-7.1-10.2-7.5-9.6-7.7-9.2-8.2-8.6-8.3-8.1-8.6-7.5-8.9-6.9-9.2-6.3-9.4-6-9.6-5.3-10-4.7-10.3-4.2-10.5-2.5-7.3-2.2-7.3-1.7-7.3-1.4-7.3-1.1-7.3-0.6-7.3-0.4-7.3 0.1-7.2 0.4-6.8 0.8-6.8 0.9-6.8 1.4-6.6 1.7-6.8 2-6.7 2.4-6.8 2.7-6.7 3-6.7 3.3-6.6 3.6-6.7 3.9-6.7 4.4-6.7 4.5-6.6 5-6.6 5.3-6.7 11.4 4.5 11.3 3.9 11.4 3.6 11.5 3.2 11.6 2.8 11.5 2.2 11.7 1.8 11.6 1.5 14.4 1.1 14.4 0.5 14.6-0.1 14.4-0.9 14.8-1.4 14.7-2.1 14.7-2.8 14.8-3.4 11-3 10.9-3.3 10.8-3.7 10.5-4 10.2-4.3 10.2-4.7 9.9-5.1 9.6-5.3 14.3-8.7 14-9.5 13.5-10.2 13-11 12.6-11.8 12.1-12.6 11.7-13.2z"/>
		<path id="Layer" class="s17" d="m771.6 1757.8l8.7 10.5 8.7 10.1 9.3 9.7 9.4 9.4 9.7 8.7 9.8 8.6 10.3 8 10.5 7.7 10.6 7.1 11 6.8 11.1 6.2 11.3 5.8 11.5 5.5 11.6 4.9 11.9 4.5 12 3.9 14.6 4.1 14.7 3.5 14.8 2.7 15 2 15.2 1.3 15.2 0.6h15.5l15.3-0.8 15.5-1.4 15.5-2.2 15.4-2.9 15.4-3.4 15.5-4.3 15.3-4.9 15.3-5.5 15.2-6.3-0.5 1.9-0.9 5.9-0.7 5.9v5.9l0.7 6.2 1.1 6.3 1.6 6.4 2.1 6.6 2.7 6.7 7.5 17.2 5.6 13.6 3.6 10 1.7 6.3 1.1 7.3 0.8 7.1 0.3 7.3v7.2l-0.3 6.6-0.6 6.4-0.9 6.5-1.1 6.5-1.5 6.4-1.7 6.4-2.1 6.5-2.4 6.4-2.6 6.3-2.8 6.3-3.2 6.2-3.5 6.2-3.7 6.1-4 6.1-4.3 6.1-4.6 5.8-4.8 5.9-5.1 5.8-5.3 5.7-5.5 5.4-11.9 10.9-12.7 10.3-13.4 9.5-14.1 8.9-14.5 8-14.9 7.2-15.7 6.7-15.6 6.3-15.6 5.7-15.4 5.2-15.6 4.8-15.5 4.2-15.4 3.7-15.3 3.2-15.4 2.7-15.3 2.3-15.3 1.7-15.4 1.1-15.2 0.8-15.2 0.2-15.1-0.4-15-0.7-14.6-1.2-14.5-1.8-14.5-2.2-14.4-2.6-14.4-3.2-14.3-3.5-14.4-4.1-14.3-4.5-14.2-5-14.2-5.4-14.3-6-14-6.3-14.3-6.8-14.1-7.4-13.9-7.6-14.1-8.3-8.1-11.4-12.2-16.1-15.3-20.4-10.8-15.4-4.6-7.4-4.2-7.2-3.7-6.9-3.3-7-3-6.9-2.6-6.8-2.1-6.8-1.7-6.8-1.2-6.7-0.9-6.6-0.5-6.7v-6.6l0.5-7.5 1.5-12.1 2-11.8 2.5-11.3 3.1-11.2 3.7-10.7 4.3-10.5 4.8-10.2 5.4-9.7 3.7-6.2 4-6.1 4.2-5.8 4.4-5.8 4.7-5.6 5-5.5 5-5.3 5.4-5.2 5.6-5.1 5.9-5 6-4.8 6.3-4.7 13.3-8.9 14.2-8.4 18-9.6 17.7-8.8 17.6-8 17.3-7.3 16.9-6.5 16.8-5.6 16.6-4.7z"/>
	</g>
	<g id="Layer">
		<path id="Layer" class="s18" d="m1865.3 225.6l-3.5 13.7-2.8 14.2-2.3 14.6-1.6 15-2.2 24.9-2.8 27.2-8.4 71.1-7.9 67.4-2.8 25.7-2.2 23.6-2.1 21.3-2.5 20.9-2.9 20.5-3.4 20.4-3.8 19.9-4.2 19.9-4.7 19.7-5.2 19.5-6.3 21.5-6.9 21.5-1.6 3.4-2.5 2.8-3.1 2.1-3.5 1.4-3.2 0.6-2.9 0.1-3.1-0.1-2.9-0.6-3.4-1.3-3.1-1.7-3.1-2.3-2.6-2.8-2.5-3.3-2.1-3.7-1.7-4.1-1.4-4.2-4.9-17.9-7.3-24-5.5-17.8-3.8-13.1-3.1-12.1-2.6-11.1-7.6-37.4-7.3-37.4-6.8-37.8-6.3-37.9-6.1-38.2-5.6-38.5-5-38.7-4.7-38.8-1.9-12.6-3.3-18.9-5.1-25.2-6.6-31.6 28-1.9 27.6-1.4 27.2-0.7 27-0.3 26.6 0.3 26.5 0.8 26.1 1.4z"/>
		<path id="Layer" class="s18" d="m1950.7 235.3l37.5 4.5 17.9 2.5 17.6 2.6 17 2.8 16.7 3.1 16.1 3.2 15.7 3.3 15.2 3.6 14.7 3.9 14.3 3.9 13.8 4.2 13.3 4.3 12.9 4.5 12.3 4.7 12 4.9 34.8 14.5 33.9 13.6 33 12.4 32.1 11.5-6.8 24.3-5.8 23.9-3.2 13.1-3.7 12.2-4.1 11.3-4.6 10.2-11.1 22.8-11.9 23.6-12.8 24.5-13.6 25.3-5-22.3-4.6-21.7-3.9-21-3.6-20.3-3.2-19.8-2.6-19-2.2-18.4-1.8-17.7-1-8.3-1.3-7.9-2-7.4-2.3-7.2-2.9-6.8-3.2-6.4-3.7-6-4.2-5.6-3.7-4.2-4-4-4.3-3.7-4.5-3.6-4.8-3.2-5.2-3.1-5.4-2.7-5.7-2.6-3.6-1.1-2.6-0.5-2.5-0.1h-2.5l-2.5 0.4-2.5 0.7-2.3 0.8-2.3 1.3-2.1 1.3-1.9 1.6-1.9 1.9-1.5 2-1.3 2.2-1.2 2.2-0.8 2.5-0.5 2.5-0.4 2.4-2.6 33.7-3.3 33.8-4.2 33.9-5 34-5.7 34.1-6.5 34.3-7.2 34.4-8 34.5-5 19.5-5 19-5.4 18.4-5.5 18.1-5.8 17.6-6 17-6.1 16.5-6.5 16-3.3 7.7-3.1 6.7-2.8 5.5-2.8 4.5-2.4 3.3-2.3 2.4-2.1 1.2-1 0.3h-0.8l-0.9-0.3-0.7-0.6-1.5-2-1.2-3-1.2-4-0.8-5.2-0.6-6.2-0.4-7.3-0.3-8.4-0.3-11-0.6-11-1.2-10.9-1.2-10.7-1.7-10.7-2-10.5-2.4-10.4-2.7-10.4-2.6-10-2.4-10.4-2.3-10.7-1.9-11.1-1.9-11.5-1.6-11.9-1.4-12.4-1.1-12.6-3.4-39.1-4-38.9-4.6-38.9-4.9-38.7-5.6-38.7-6.2-38.5-6.5-38.4z"/>
		<path id="Layer" class="s18" d="m1545.8 238.4l-5.8 78.5-6.7 78.3-7.4 78.3-8.4 78.1-1.9 16.1-2.1 16.7-2.6 18.3-7.6 47.3-5.6 33.5-3.7 24.6-2.8 22.4-2.1 20.6-0.7 4.4-0.8 3.2-1.3 2.1-0.7 0.7-0.9 0.4-0.8 0.1-1-0.2-2.2-1.1-2.5-2.1-2.9-3.4-2.7-3.8-2.3-4.2-2.1-4.5-1.6-4.9-15.5-53.5-14.8-53.8-14.1-54.2-13.4-54.4-12.6-54.8-11.9-55-11.2-55.4-10.5-55.6-0.4-1.6-1-2.8-1.3-2.6-1.9-2.6-2.2-2.5-2.7-2.4-3.3-2.2-3.5-2.1-4-2 25.8-7.3 25.8-6.6 25.6-6.2 25.4-5.5 25.4-4.9 25.3-4.5 25.1-3.7z"/>
		<path id="Layer" class="s18" d="m1298.8 297.1l-3.6 32.1-4.1 31.7-4.7 31.6-5.2 31.3-5.8 31-6.3 30.6-6.8 30.6-7.4 30.3-0.3-0.1-0.8-0.4-1.3 0.2-1.4 0.6-1.9 1.2-1.6 0.9-1.5 0.5-1.2 0.2-1-0.3-0.9-0.7-0.6-1.1-0.4-1.5-0.2-1.9-1.6-28.4-0.8-3.7-1.6-3.5-100.4-151.9z"/>
		<path id="Layer" class="s18" d="m3153.6 2562.5l30.1 21.5 29.7 22 20.1 15.5 19.8 15.6 19.7 15.9 19.4 16.2 19.2 16.6 19 16.7 18.8 17 18.5 17.3 3.1 2.9 3.2 2.5 3.4 2.1 3.2 1.9 3.3 1.6 3.5 1.3 3.3 1 3.5 0.7 3.5 0.4 3.4 0.1 3.5-0.1 3.6-0.5 3.6-0.8 3.5-0.9 7.5-2.9 4-2.1 4.5-3 4.8-3.5 5.2-4.4 5.7-5.2 6-5.9 13.3-14 2.7-3.2 2.6-3.4 4.8-7.6 4.2-8.6 3.8-9.7 3.3-8.8 3.5-8.6 4-8.8 4.2-8.8-0.1 17.3-0.5 7.6-0.6 7-0.9 6.2-1.1 5.6-1.2 4.8-1.6 4.2-5.6 12.1-5.9 11.9-6.2 11.6-6.5 11.4-6.9 11.1-7 11-7.4 10.6-7.8 10.4-7.6 9.5-7.6 9.3-8.1 9-8.3 8.9-8.5 8.7-8.9 8.4-9 8.3-9.4 8-17.9 14.4-18.2 13.6-18.7 12.6-18.8 11.8-19.3 11-19.5 10.2-19.9 9.4-20.3 8.5-14.1 5.3-14.2 5-14.3 4.4-14.6 4.2-14.6 3.7-14.9 3.4-15 2.9-15.1 2.6-15.3 2.3-15.6 1.7-15.6 1.4-15.8 0.9-16 0.7-16.1 0.1-16.1-0.1-16.5-0.7-20.3-1.2-19.4-1.6-18.2-2.2-17.3-2.6-3.2-1-1.3-0.7-1.1-1-0.9-1.2-0.8-1.3-0.8-3.2-1.8-12.8-1.2-12.3-1-12-0.5-11.5-0.1-11.3 0.3-10.7 0.7-10.5 1-10 2.1-13.8 1.3-9.1 1-9.2 0.7-9.9 0.1-10-0.5-10-0.9-10-1.3-10.1-1.9-10.2-2.3-10.1-2.9-10.3-0.4-1.7-0.1-1.5 0.1-1.2 0.5-1.1 0.9-1 1-0.8 1.3-0.6 1.8-0.4 14.7-2.9 14.5-3.4 14.2-3.8 14.1-4.2 13.7-4.8 13.6-5.2 13.3-5.6 13.1-6.2 10.9-5.4 1.5-0.6 1.5-0.4 1.7-0.1 1.9 0.2 3.3 1.1 0.4 9.1 0.7 9 1.9 13.8 2.8 13.8 3.9 13.6 4.7 13.6 12 30.6 12.6 31.4 13.1 31.8 13.7 32.5 2.2 4.2 3.1 3.7 3.6 3.2 4.2 2.4 4.6 1.6 4.7 0.9 4.8-0.2 4.7-0.9 132.9-40 0.5-0.1 3.3-1.5 3.1-2.2 2.6-2.7 2-3.2 1.2-3.5 0.7-3.7-0.3-3.8-0.9-3.6-7.9-20.7-8.8-20.5-9.6-20.2-10.5-19.7-11.4-19.7-12.2-19.3-13.1-19-14-18.8-5.6-7.9-5.6-9.4-5.9-10.8-5.8-12.3-3.1-6.5-3.3-5.9-3.5-5.4-3.5-4.9-4-4.4-4.1-3.9-4.2-3.3-4.4-2.8z"/>
	</g>
	<path id="Layer" class="s19" d="m2524.6 2791.7l-7 0.8-6.3 1-5.7 1.4-5 1.8-4.3 2.2-3.6 2.5-2.9 2.9-2.3 3.4-1.3 3.2-21.7 63.3-21.8 63.2-22.5 63-22.8 63-9.9 26.4-10.2 26.3-10.6 26.1-10.8 25.9-11.2 25.6-11.5 25.4-11.8 25.3-12.1 24.9-79.4 73.8-2.6 2-2.7 1.6-2.6 1-2.8 0.6-6.8 1.1-7.1 1.7-7.8 2.1-10.4 3-12.9 3.8-9.6 2.3-8.9 1.7-8.5 0.9-16.5 0.9-15.9 0.2-15.7-0.1-15.2-0.8-5.7-0.2-6 0.1-6.3 0.5-6.5 0.8-7.1 1.1-7.3 1.5-15.5 3.8-9.3 2.3-9.4 1.6-9.3 1.3-9.4 0.6h-10.6l-10.8-0.7-10.6-1.5-10.7-2.2-10.8-3-10.8-3.6-10.7-4.5-10.9-5-3.8-11.8-3.2-11.5-2.5-11.5-2-11.2-1.2-11.1-0.8-10.9v-10.9l0.6-10.6 2.5-29.2 3.8-43.4 3.4-31.8 3.7-28.3 4.3-25.6 5.6-28.9 5.7-28.5 5.9-27.9 6.1-27.6 6.3-26.9 6.4-26.6 6.7-26 6.8-25.6 0.5-3v-3.3l-0.5-3.1-1.3-2.9-1.6-2.6-2.1-2.4-2.4-1.9-2.9-1.4-5.5-1.9-5.2-0.8-5 0.1-4.7 1-2.5 1-2.4 1.3-2.4 1.6-2.2 2-2.1 2.4-2.1 2.6-1.9 2.9-1.8 3.3-6.8 13.6-6.6 13.6-6.2 13.7-5.9 13.6-5.5 13.7-5.2 13.8-4.9 13.8-4.5 13.8-5.2 6.4-4.9 6.7-4.4 6.7-4.2 6.7-4 6.9-3.7 7.2-7.5 14.1-3.5 6-3.3 5.2-3.4 4.6-3 3.7-2.9 3.1-2.8 2.3-6.1 4-6 3.1-6.2 2.3-6.3 1.6-6.5 0.9-6.5 0.1-6.9-0.6-7.2-1.5-7.3-2.1-7.9-2.8-8.9-3.7-12-5.6-10.9-5.1-8-3.4-7.2-2.7-6.8-2.3-3.2-1.2-2.6-2-2-2.5-1.5-3-3.1-8.2-3.7-7.8-4.3-7.4-4.8-6.9-3.5-4.4-3.6-4-3.9-4-4.2-3.8-6.6-18.8-7.1-18.6-7.8-18.3-8.3-18.1-9-18.1-9.7-17.7-10.1-17.5-10.9-17.5-2.1-2.6-2.7-1.9-3.1-1.3-3.4-0.6h-3.7l-3.3 0.6-3 1-2.4 1.6-2.1 2-1.8 2.4-1.3 2.9-1 3.4-0.9 5-0.4 5.3 0.2 5.5 0.7 5.7 1.1 5.9 1.6 6.4 2.1 7 3.2 9.5 3.6 10.5 2.2 7.7 6.4 24.2 6 24.2 5.7 24.1 5.3 24.3 5 24.1 4.5 24.1 4.2 24 4 24.1 3.5 24 3.2 23.9 2.8 24 2.5 23.9 2.1 23.8 1.7 24 1.4 23.8 1.1 23.8-7.3 8.6-7.7 7.8-7.8 7-8 6.6-8.4 5.8-8.5 5-8.9 4.5-9.1 3.7-10.6 3.6-11 2.6-11.2 1.7-11.7 0.9h-11.8l-12.3-0.9-12.6-1.7-12.8-2.6-13.6-3-13.3-2.5-12.8-1.9-12.4-1.5-26.8-2.4-27.7-1.5-6.8-0.6-7.2-1-7.4-1.6-7.9-2.2-8.3-2.6-8.7-3.2-9-3.7-9.4-4.2-15.1-6.8-15.4-6.8-16-6.4-16.3-6.5-14.1-22.1-13.5-22.9-12.9-23.5-12.3-24.1-11.6-25-11-25.5-10.4-26.3-9.8-26.9-24.3-71.3-23.7-71.8-23-71.9-22.3-72.2-1.7-4.2-3-5.6-4.2-6.9-5.6-8.3-1.9-2.5-2.4-1.8-2.6-1.1-3-0.8-5.5-0.3-6.1 0.5-6.3 1.4-6.7 2.3-4.3 3.3-3.7 3.8-2 2.8-1.7 2.9-1.5 3.2-1.2 3.4-0.9 3.7-0.7 3.8-0.4 4-0.1 4.3-0.3 4-0.8 3.8-1.9 4.7-1.7 3.6-1.3 3.7-0.9 3.7-0.5 3.7v3.7l0.2 3.7 0.6 3.7 1.1 3.9 2.1 6.9 1.5 6.9 1.1 6.8 0.7 6.7 0.4 8 1.4 20.5 1.6 15 2.2 13.6 2.9 12.4 3.6 14.1 2.8 14.3 2.2 14.5 1.6 14.7 1 14.9 0.4 15.2-0.4 15.5-1 15.6-0.1 5.8 0.4 3.9 0.9 4 0.7 3.8v3.4l-0.5 2.9-1.2 2.5-1.8 1.9-2.3 1.6-3 1.1-3.4 0.7-1.6 0.5-0.9 0.8-0.8 1-2.3 3.3-2.8 2.6-2 1.1-2 1-2.2 0.7-2.4 0.5-2.5 0.1-2.4-0.2-2.6-0.6-2.5-1.3-10.1-5.8-9.4-5.3-6.5-4.2-5.6-4.2-5.1-4.6-4.3-4.7-4.1-5.2-6.7-8.7-7.2-8.2-5.8-5.7-5.9-5.4-6.4-5.2-6.7-4.8-2.5-2-2.1-2.2-1.8-2.5-1.7-2.7-6.6-14.7-5.7-14.4-4.7-14.2-4-14-2.9-13.7-2-13.5-1.1-13.3-0.3-13 1-32.9 1.7-34.6 2.4-36.1 3.1-37.8 1.6-14.6 2.1-14.5 2.7-14.2 3.2-14.2 2.3-8.6 8.7-32.4 8.3-31.9 1-3 1.4-3 1.6-2.7 1.8-2.5 4.4-5.4 5.4-7.3 5.8-8 4.6-5.1 4.6-4 2.4-1.6 2.5-1.5 4.8-2 5.3-1.2 6-0.5 6.4 0.1 18.3 1.1 19.9 1 51.9 1.4 38.5 1 28.2 1.1 25.4 1.6 23.4 2.1 25.2 2.7 68.4 7.1 50.2 4.7 46 3.5 42.8 2.6 99.1 4.6 94.3 3.6 90.7 2.5 87.5 1.6 42.8 0.4 42.4 0.1 41.8-0.1 41.4-0.4 40.9-0.6 40.4-1 40.2-1.1 39.8-1.4 33.5-1.5 33.9-1.8 34.1-2.3 34.5-2.7 34.8-3.1 35.2-3.4 35.5-3.9 35.7-4.3 36.3-4.7 36.3-5.1 36.8-5.4 37.1-5.8 37.5-6.3 37.8-6.7 38.1-7 38.5-7.6 9.2-1.5 10.2-0.8 11.3-0.5 15.6-0.1h9.3l3.7 0.4 1.6 0.5 1.5 0.9 1.4 1.1 1.2 1.3 1 1.6 0.8 1.8 21.9 56.1 1.1 2.3 1.5 2 1.9 1.7 2.3 1.3 4.6 2.8 3.8 3.3 1.8 2.2 1.6 2.5 1.2 3 1 3.3 8.2 32.4 7.7 32.4 3.3 15.8 2.4 15.7 1.6 15.6 0.8 15.6 0.7 30.8 1.1 30.1 1.4 29.4 1.6 29 0.3 9.5-0.5 10.4-1.2 10.6-1.6 10.4-2.1 9.5-2.6 8.8-2.8 7.5-3.2 6.5-7.1 12.5-6.6 12.4-6.3 12.7-6.1 12.8-4 7.8-4.4 7.9-5 7.6-5.5 7.4-6.1 7.1-6.5 7.2-7.1 6.8-7.5 6.6-7.9 6.4-8.6 6.2-8.6 5.7-9.2 5.5-9.5 5.1-9.8 4.8-9.8 4.3-9.9 3.9-4.5 1.5-4.6 1.1-4.7 1-5 0.6-10.8 0.5-14.6-0.3-15.1-0.2-5.6 0.1-5.4 0.5-4.9 0.7-4.8 1-4.6 1.5-4.5 1.6-2.3 0.8-2 0.3-1.7-0.1-1.5-0.6-1.1-1-0.9-1.6-0.5-1.9-0.2-2.4-0.3-11.3 0.2-20.9 1.1-21.1 2-21 2.9-21.1 3-19.2 2.7-19.3 2.4-19.4 2.2-19.3 5.3-48 6.2-49.3 0.8-7.6 0.7-7.1 0.2-6.8v-6.2l-0.4-6-0.6-5.3-1-4.9-1.2-4.6-1.5-4.4-1.7-4.1-2-4.1-2.1-3.8-2.3-3.6-2.5-3.4-2.7-3.3-2.9-3-3.2-2.9-3.5-2.7-3.5-2.5z"/>
	<g id="Layer">
		<path id="Layer" class="s20" d="m3154.8 289.6l7.2 23.1 6.4 23.8 5.7 24.7 5 26.1 4.5 27.1 4.1 29.3 3.7 32.2 3.9 39.3 0.9 10.8 0.6 10.5 0.4 10.1 0.1 9.9-0.2 9.6-0.5 9.1-0.8 8.9-1.1 8.5-1.2 9.9-1 10.9-1.6 27.9-0.9 17.2-0.8 12.9-1.2 11.6-1.4 10.8-3.2 19.9-3.6 19.6-4 19.7-4.2 19.5-4.4 19.4-4.9 19.3-5 19.3-5.5 19.1-5.7 17.6-6 16.1-6.9 16-7.6 15.5-8.4 15.4-0.9 0.9-1.7 1.2-2.1 0.1-2-0.9-1.3-1.6-8.9-16.7-9.3-16.5-9.9-16.6-10.4-16.3-10.9-16.5-11.3-16.3-12.2-16.6-12.7-16.5-13.1-16.3-13.7-16.7-14.7-17.1-15.9-17.9-16.5-18.3-18.4-19.7-46-48.1 10.4-4.8 10.3-4 10.7-3 10.8-2.3 10.7-1.3 10.9-0.7 11 0.2 11 1 11.2 1.8 11.4 2.6 11.6 3.5 11.6 4.2 2.5 0.8 2.5 0.5 2.5 0.4h2.6l2.4-0.2 2.6-0.5 2.4-0.9 2.3-1 2.2-1.2 2.1-1.5 1.9-1.7 1.7-1.9 1.5-2.1 1.4-2.2 1-2.4 0.7-2.3 0.6-2.9 0.5-4.4 0.1-4.3v-4.2l-0.5-4-0.7-3.8-1-3.6-1.3-3.5-1.8-3.2-3.2-4.7-3.8-4.2-10.5-9.5-10.5-8.9-10.9-8.3-10.9-7.7-11.1-7-11.2-6.4-11.5-5.7-11.4-5.2-1-0.5-1.2-0.9-0.7-1-0.6-1.2-0.4-1.4v-1.3l0.3-1.4 0.5-1.2 0.8-1.1z"/>
		<path id="Layer" class="s20" d="m584.3 695l-13 12.1-13.2 12.1-13.5 11.9-13.8 11.8-13.6 11.9-12.8 12.5-11.8 12.9-10.9 13.3-24.5 30.6-15.2 18.8-10.9 13.7-9.5 12.7-8.4 11.8-7.8 11.7-7.2 11.5-6.4 11.4-5.8 11.2-1 1.8-1 1.2-0.9 0.8-0.9 0.2-0.9-0.4-1-0.7-0.9-1.4-0.8-1.7-12.6-30.4-11.4-29.7-5.1-14.6-4.8-14.3-4.6-14.2-4.1-14-3.9-13.7-3.5-13.6-3.2-13.5-2.8-13.2-2.5-13-2.2-12.9-1.9-12.6-1.5-12.5-1.5-18.6-1.3-28.5-1.1-37.9-1.1-47.6-0.2-20.6 0.4-20.4 0.9-20.4 1.5-20.1 1.9-20.2 2.5-20 3.1-19.9 3.5-19.9 5.4-25.5 6.3-25.3 7.2-25.1 8-25 2-0.1 1.8-0.5 2.3-1 1.9-1.2 2-1.9 1.8-2.1 1.1-1.3 1.1-1 1.1-0.7 1.2-0.3 1.3-0.1 1.3 0.2 2.7 1.4 5.7 4 5.2 4.6 4.6 4.8 4.2 5.2 0.3 0.4 5.4 6.9 6.2 7.1 7.3 7.6 10.2 10 13.5 13.4 9.3 10.3 29.2 34.6 30.1 34.8 30.9 35.2 31.9 35.3 1.9 2.5 1.2 2.8 0.6 3.1 0.2 3.1-0.8 3.1-1.2 2.9-1.7 2.4-2.4 2.1-1.2 0.9-21.5 13.2-21.4 14.5-21.4 15.3-21.2 16.6-4.2 3.7-3.7 3.9-3.3 4.3-3 4.4-3.3 6.6-2.5 7.1-0.6 3.5 0.2 3.6 1 3.4 1.8 3.1 2.4 2.6 3 2 3.2 1.2 3.6 0.5h2l2-0.3 28.6-6.5 29.3-5.8 7.1-0.8 6.8-0.3 6.5 0.6 6.1 1.4 5.8 2.1 5.2 2.8 4.6 3.5 3.9 4.1 3.2 4.5 2.5 5.1 1.9 5.5 1 5.8 0.2 6-0.5 6.5-1.2 6.5z"/>
		<path id="Layer" class="s20" d="m2553.4 2439.7l-8.7 2.8-8 3.3-6.8 3.7-5.8 4.2-4.3 4.2-1.7 2.4-1.5 2.2-1.2 2.3-0.9 2.4-0.6 2.5-0.4 2.4v3.4l0.5 3.2 1.1 3.3 1.5 3.2 2.1 3.3 2.5 2.9 2.8 2.9 3.3 2.6 3.6 2.2 3.9 2 3.9 1.4 4.1 1.2 4 0.6 4 0.2 4-0.1 3.8-0.6 12.5-2.6 12.5-2.4 12.4-2.1 12.3-1.7 12.3-1.5 12.1-1.2 12.1-0.9 12-0.6 3.9-0.4 4.4-0.6 4.3-0.9 4.2-1.2 4-1.2 3.3-1.5 3.1-1.6 2.3-1.6 1.8-1.3 1.7-0.7 1.6-0.4 1.6 0.2 1.5 0.3 1.4 0.9 1.2 1.3 1.2 1.7 10.2 16.6 9.7 17.4 9.3 18.4 8.8 19 8.3 19.9 7.9 20.5 7.4 21.6 6.9 22 6.5 23 5.9 23.5 5.3 24.2 4.9 24.7 4.4 25.5 3.8 25.7 3.2 26.2 2.6 26.3 0.5 7.7v8.2l-0.5 8.9-0.8 12.1-1.2 16.7-0.2 6.4 0.1 6.1 0.4 5.8 0.6 5.5 0.9 5.4 1.2 5.1 0.6 3.3 0.2 3.3-0.4 3.6-1 3.6-3.5 10.4-3.1 11.6-2.9 12.7-3.6 17.6-4.3 20.5-3.6 14.9-4.1 13.4-4.6 12-8.9 19.9-9.4 18.8-9.6 17.5-10.2 16.4-5.2 7.6-5.3 7.5-5.3 7-5.5 6.8-5.6 6.4-5.7 6.2-5.8 5.9-5.8 5.6-8.6 7.5-8.5 7.3-8.8 7.2-8.9 6.8-9.1 6.6-9.2 6.3-9.4 6-9.5 5.7-12.2 6.9-12.4 6.6-12.7 6.1-12.9 5.6-13.1 5.4-13.3 4.9-13.6 4.5-13.9 4-14.1 3.7-14.2 3.4-14.6 2.8-14.8 2.5-15 2.1-15.2 1.7-15.6 1.3-15.7 0.8-1.6-0.1-1.5-0.5-1.3-0.7-1.2-1.1-0.9-1.4-0.5-1.5-0.3-1.5 0.2-1.6 0.5-1.5 7.4-15.8 10.4-21.1 12.2-25.1 8.5-18.7 7.1-17.4 5.8-16.5 7.2-22.8 6.9-22.9 6.7-23.1 6.4-23.2 6.1-23.2 5.9-23.4 5.5-23.5 5.4-23.6 5-23.6 4.9-23.8 4.5-23.9 4.4-24 3.9-24.2 3.8-24.1 3.5-24.4 3.2-24.5 3.9 2.4 3.5 2.5 3.5 2.7 3.2 2.9 2.9 3 2.7 3.3 2.5 3.4 2.3 3.6 2.1 3.8 2 4.1 1.7 4.1 1.5 4.4 1.2 4.6 1 4.9 0.6 5.3 0.4 6v6.2l-0.2 6.8-0.7 7.1-0.8 7.6-6.2 49.3-5.3 48-2.2 19.3-2.4 19.4-2.7 19.3-3 19.2-2.9 21.1-2 21-1.1 21.1-0.2 20.9 0.3 11.3 0.2 2.4 0.5 1.9 0.9 1.6 1.1 1 1.5 0.6 1.7 0.1 2-0.3 2.3-0.8 4.5-1.6 4.6-1.5 4.8-1 4.9-0.7 5.4-0.5 5.6-0.1 15.1 0.2 14.6 0.3 10.8-0.5 5-0.6 4.7-1 4.6-1.1 4.5-1.5 9.9-3.9 9.8-4.3 9.8-4.8 9.5-5.1 9.2-5.5 8.6-5.7 8.6-6.2 7.9-6.4 7.5-6.6 7.1-6.8 6.5-7.2 6.1-7.1 5.5-7.4 5-7.6 4.4-7.9 4-7.8 6.1-12.8 6.3-12.7 6.6-12.4 7.1-12.5 3.2-6.5 2.8-7.5 2.6-8.8 2.1-9.5 1.6-10.4 1.2-10.6 0.5-10.4-0.3-9.5-1.6-29-1.4-29.4-1.1-30.1-0.7-30.8-0.8-15.6-1.6-15.6-2.4-15.7-3.3-15.8-7.7-32.4-8.2-32.4-1-3.3-1.2-3-1.6-2.5-1.8-2.2-3.8-3.3-4.6-2.8-2.3-1.3-1.9-1.7-1.5-2-1.1-2.3-21.9-56.1-0.8-1.8-1-1.6-1.2-1.3-1.4-1.1-1.5-0.9-1.6-0.5-3.7-0.4h-9.3l-15.6 0.1-11.3 0.5-10.2 0.8-9.2 1.5-38.5 7.6-38.1 7-37.8 6.7-37.5 6.3-37.1 5.8-36.8 5.4-36.3 5.1-36.3 4.7-35.7 4.3-35.5 3.9-35.2 3.4-34.8 3.1-34.5 2.7-34.1 2.3-33.9 1.8-33.5 1.5-39.8 1.4-40.2 1.1-40.4 1-40.9 0.6-41.4 0.4-41.8 0.1-42.4-0.1-42.8-0.4-87.5-1.6-90.7-2.5-94.3-3.6-99.1-4.6-42.8-2.6-46-3.5-50.2-4.7-68.4-7.1-25.2-2.7-23.4-2.1-25.4-1.6-28.2-1.1-38.5-1-51.9-1.4-19.9-1-18.3-1.1-6.4-0.1-6 0.5-5.3 1.2-4.8 2-2.5 1.5-2.4 1.6-4.6 4-4.6 5.1-5.8 8-5.4 7.3-4.4 5.4-1.8 2.5-1.6 2.7-1.4 3-1 3-8.3 31.9-8.7 32.4-2.3 8.6-3.2 14.2-2.7 14.2-2.1 14.5-1.6 14.6-3.1 37.8-2.4 36.1-1.7 34.6-1 32.9 0.3 13 1.1 13.3 2 13.5 2.9 13.7 4 14 4.7 14.2 5.7 14.4 6.6 14.7 1.7 2.7 1.8 2.5 2.1 2.2 2.5 2 6.7 4.8 6.4 5.2 5.9 5.4 5.8 5.7 7.2 8.2 6.7 8.7 4.1 5.2 4.3 4.7 5.1 4.6 5.6 4.2 6.5 4.2 9.4 5.3 10.1 5.8 2.5 1.3 2.6 0.6 2.4 0.2 2.5-0.1 2.4-0.5 2.2-0.7 2-1 2-1.1 2.8-2.6 2.3-3.3 0.8-1 0.9-0.8 1.6-0.5 3.4-0.7 3-1.1 2.3-1.6 1.8-1.9 1.2-2.5 0.5-2.9v-3.4l-0.7-3.8-0.9-4-0.4-3.9 0.1-5.8 1-15.6 0.4-15.5-0.4-15.2-1-14.9-1.6-14.7-2.2-14.5-2.8-14.3-3.6-14.1-2.9-12.4-2.2-13.6-1.6-15-1.4-20.5-0.4-8-0.7-6.7-1.1-6.8-1.5-6.9-2.1-6.9-1.1-3.9-0.6-3.7-0.2-3.7v-3.7l0.5-3.7 0.9-3.7 1.3-3.7 1.7-3.6 1.9-4.7 0.8-3.8 0.3-4 0.1-4.3 0.4-4 0.7-3.8 0.9-3.7 1.2-3.4 1.5-3.2 1.7-2.9 2-2.8 3.7-3.8 4.3-3.3 5.5 36.9 5.4 35.9 1.6 13.7 1.4 12.5 0.9 12.1 0.4 11.6 0.2 11.2-0.4 10.7-0.1 5.6 0.3 5.7 0.7 5.9 1 6.3 1.3 6.3 1.7 6.8 5.6 17.8 5.7 18.4 1.7 7.1 1.5 6.7 6.1 29.3 6.6 28 7.5 27.5 8.1 26.7 5.8 17.3 6.2 17.3 6.7 17.2 7 17.4 7.7 17.6 8 17.9 8.8 18.4 9.4 19.1 1 2.1 0.4 1.7 0.1 1.5-0.5 1-0.9 0.7-1.3 0.4-1.9 0.1-2.3-0.4-15.7-3.3-15.2-3.7-14.7-4.1-14.4-4.6-13.8-4.9-13.5-5.3-12.9-5.8-12.6-6.2-12-6.6-11.6-6.9-11.1-7.4-10.7-7.8-10.2-8.2-9.8-8.6-9.3-9-8.7-9.4-6.1-7-5.7-7-5.5-7.4-5.4-7.5-5-7.7-4.8-8-4.6-8.1-4.5-8.3-5.7-11.6-5.4-11.6-5.1-11.7-4.7-11.6-4.4-11.6-4.1-11.8-3.8-11.7-3.4-11.6-3.2-11.8-2.7-11.8-2.6-11.8-2.1-11.7-1.9-11.9-1.4-11.9-1.3-11.8-0.8-11.9-0.8-20 0.3-20.1 0.6-15.8 0.8-15.7 1.3-15.6 1.3-15.5 1.8-15.5 2-15.3 2.1-15.4 2.4-15.2 2.7-15 3-15.1 3.4-15 3.4-14.8 3.7-14.9 4.1-14.7 4.2-14.6 4.6-14.6 5.9-17.8 6.4-17.5 6.7-17.6 7.2-17.4 7.5-17.3 7.9-17.2 8.3-16.9 8.8-17 1.2-1.8 1.5-1.5 1.8-1.2 1.9-0.9 2.1-0.6 2.3-0.2 2.1 0.4 2.1 0.6 12.6 5.2 12.2 4.5 12.1 3.7 11.8 3.1 2.2 0.5 4.7 0.6 4.8 0.2 4.8-0.2 4.7-0.6 4.7-1.1 4.6-1.5 4.3-2 4.2-2.3 3.8-2.6 3.3-3 3.1-3.2 2.5-3.5 2.1-3.6 1.6-3.7 1-3.8 0.5-4-0.2-4.7-1-4.8-1.7-4.8-2.5-4.6-3.2-4.6-3.9-4.3-4.7-4.2-5.5-4.1 20.2-0.1 18.3 0.6 16.4 1.3 14.6 1.9 54.7 9.1 49.9 8.1 45.4 6.9 40.8 6.1 36.1 4.9 31.5 4.1 26.8 2.9 22.3 2 42.5 2.9 42.1 2.5 41.5 2.2 41.3 2 40.8 1.5 40.3 1.2 39.9 0.9 39.6 0.5 39.1 0.2 38.7-0.1 38.3-0.5 37.8-0.9 37.4-1.1 37-1.5 36.6-1.8 36.1-2.2 30.2-2.1 30.5-2.6 31.1-2.9 31.3-3.2 31.7-3.6 32.1-3.9 32.5-4.4 32.9-4.5 33.2-5.1 33.6-5.3 34-5.8 34.4-6.1 34.8-6.5 35.1-6.8 35.6-7.2z"/>
		<path id="Layer" class="s20" d="m1866.8 2996.7l-33.2 106.7-1.9 6.9-2 7.7-3.7 17.8-3.4 20.9-3.2 24-3 27.2-2.7 30.3-2.4 33.4-2.3 36.4-0.3 1.5-0.8 1.1-1.1 0.6-1.5 0.2-92.8-2.4-1.4-0.2-1.1-0.8-0.7-1.1-0.4-1.3-2.4-23.8-2.6-23.6-2.8-23.5-3.2-23.4-4.5-31.9-3.8-32-1.4-10.9-1.8-10.7-2.1-10.6-2.5-10.7-2.7-9.7-3-9.8-6.3-20.2-5.9-20.4-5.7-20.5-5.3-20.6 4.2 3.8 3.9 4 3.6 4 3.5 4.4 4.8 6.9 4.3 7.4 3.7 7.8 3.1 8.2 1.5 3 2 2.5 2.6 2 3.2 1.2 6.8 2.3 7.2 2.7 8 3.4 10.9 5.1 12 5.6 8.9 3.7 7.9 2.8 7.3 2.1 7.2 1.5 6.9 0.6 6.5-0.1 6.5-0.9 6.3-1.6 6.2-2.3 6-3.1 6.1-4 2.8-2.3 2.9-3.1 3-3.7 3.4-4.6 3.3-5.2 3.5-6 7.5-14.1 3.7-7.2 4-6.9 4.2-6.7 4.4-6.7 4.9-6.7z"/>
		<path id="Layer" class="s20" d="m2309.3 3269.3l-9.2 18.1-8.4 15.8-7.9 14.3-7.8 13.3-7.4 12.2-7.6 11.4-7.4 10.6-7.4 9.9-7.7 9.4-7.8 8.9-7.9 8.2-8 7.5-8.3 7.2-8.5 6.5-8.8 6.2-8.9 5.6-6.4 3.6-6.7 3.4-6.8 3.2-6.9 3-7.1 2.7-7.3 2.5-7.4 2.4-7.7 2.1-5.3 1.1-5 0.2-4.9-0.4-4.5-1.1-3.2-1.3-3.3-1.8-2.9-2.1-2.9-2.6-2.7-2.8-2.6-3.3-2.3-3.7-2.4-4.3-0.6-0.6-0.7-0.3-0.9 0.1-0.6 0.5-0.4 0.6-1.7 5.2-2.1 4.9-2.5 4.6-2.9 4.3-1.9 2.3-2.4 1.7-2.7 1-3.1 0.5h-10.4l-10.4-0.5-10.1-1-10-1.5-9.7-2-9.4-2.4-9.1-3-8.8-3.5-8.3-3.8-8-4.3-7.5-4.7-7.2-5.2-6.7-5.5-6.3-5.9-5.7-6.3-5.3-6.8-3.5-5.1-3.2-5.3-2.9-5.3-2.8-5.7-2.3-5.8-2.2-5.9-1.9-6.2-1.6-6.3 10.9 5 10.7 4.5 10.8 3.6 10.8 3 10.7 2.2 10.6 1.5 10.8 0.7h10.6l9.4-0.6 9.3-1.3 9.4-1.6 9.3-2.3 15.5-3.8 7.3-1.5 7.1-1.1 6.5-0.8 6.3-0.5 6-0.1 5.7 0.2 15.2 0.8 15.7 0.1 15.9-0.2 16.5-0.9 8.5-0.9 8.9-1.7 9.6-2.3 12.9-3.8 10.4-3 7.8-2.1 7.1-1.7 6.8-1.1 2.8-0.6 2.6-1 2.7-1.6 2.6-2z"/>
		<path id="Layer" class="s20" d="m1626.3 3319l-18.6 51-3.2 8.1-3.4 7.7-3.7 7.2-4 6.6-4.3 6.3-4.7 5.9-5 5.4-5.2 4.9-4.3 3.6-4.3 3.4-4.7 3.1-5 2.8-5.1 2.7-5.4 2.6-5.5 2.2-6.1 2.3-12.6 3.7-14.2 3.3-16.5 2.9-19.9 2.7-3.8 0.2-3.6-0.2-3.4-0.8-3.1-1.1-3.2-1.8-2.9-2.4-2.6-2.8-2.3-3.5-2-2.8-2-2.1-2.1-1.4-2.2-0.6-2.1 0.2-2.4 0.9-2.3 1.7-2.4 2.5-3.6 3.7-3.8 3.1-3.9 2.2-4.2 1.6-3.8 0.8-3.8 0.2-3.9-0.3-4.1-0.8-9.9-2.6-9.7-3.1-9.4-3.3-9.2-3.7-8.9-4.1-8.8-4.4-8.5-4.9-8.3-5-7.1-4.9-6.9-5-6.7-5.3-6.5-5.7-6.5-5.8-6.1-6.2-6-6.5-5.8-6.6-5.7-7.1-5.4-7.3-5.3-7.4-5.2-7.9-5-8-4.7-8.3-4.5-8.7-4.5-8.9 16.3 6.5 16 6.4 15.4 6.8 15.1 6.8 9.4 4.2 9 3.7 8.7 3.2 8.3 2.6 7.9 2.2 7.4 1.6 7.2 1 6.8 0.6 27.7 1.5 26.8 2.4 12.4 1.5 12.8 1.9 13.3 2.5 13.6 3 12.8 2.6 12.6 1.7 12.3 0.9h11.8l11.7-0.9 11.2-1.7 11-2.6 10.6-3.6 9.1-3.7 8.9-4.5 8.5-5 8.4-5.8 8-6.6 7.8-7 7.7-7.8z"/>
	</g>
	<g id="Layer">
		<path id="Layer" class="s21" d="m2973 162.4l12.7-1 12.6-0.4 12.3 0.2 12.1 0.7 11.5 1.1 11.1 1.7 10.5 2.3 9.9 2.7 9.2 3.2 8.6 3.7 8 4.2 7.2 4.6 6.6 5.2 6 5.4 5.3 6.1 4.6 6.4 2.6 4.2 2.2 4.5 9 19.7 7.8 18.7 6.6 17.6 5.4 16.4-207 223.7-0.8 1.1-0.5 1.2-0.3 1.4v1.3l0.4 1.4 0.6 1.2 0.7 1 1.2 0.9 1 0.5 11.4 5.2 11.5 5.7 11.2 6.4 11.1 7 10.9 7.7 10.9 8.3 10.5 8.9 10.5 9.5 3.8 4.2 3.2 4.7 1.8 3.2 1.3 3.5 1 3.6 0.7 3.8 0.5 4v4.2l-0.1 4.3-0.5 4.4-0.6 2.9-0.7 2.3-1 2.4-1.4 2.2-1.5 2.1-1.7 1.9-1.9 1.7-2.1 1.5-2.2 1.2-2.3 1-2.4 0.9-2.6 0.5-2.4 0.2h-2.6l-2.5-0.4-2.5-0.5-2.5-0.8-11.6-4.2-11.6-3.5-11.4-2.6-11.2-1.8-11-1-11-0.2-10.9 0.7-10.7 1.3-10.8 2.3-10.7 3-10.3 4-10.4 4.8-7.2-5.5-7.8-6.7-8.2-7.9-8.7-9.2-9.6-9.7-9-8.7-9.1-7.7-9.3-7-7.8-5.2-8.1-5-8.6-4.6-9.4-4.6-1.7-1.1-1.6-1.4-1.2-1.7-0.8-1.9-0.5-2v-2.1l0.4-1.9 0.9-2 0.3-0.6 5.5-7.6 3.4-4.2 3.6-3.9 4-3.9 4-3.7 79.7-68.1 76-64.4 19.2-15.6 20.2-15.2 21.2-15.2 22.2-14.8 22.5-14.9 22.4-15.1 22.4-15.3 22.1-15.7 1.9-1.5 1.5-1.6 1-1.7 0.3-1.7 0.1-1.5-0.3-1.6-0.6-1.6-1-1.8-1.8-2.1-2.1-1.5-2.6-0.8-2.9-0.3-21.4 1.3 4.3-2.4 3.8-2.5 3.4-2.6 2.9-2.6 2.6-2.8 2-2.7 1.6-3 1.3-3 0.8-4-0.1-4.1-0.7-3.6-1.8-3.6-2.3-3.4-3.2-3.4-3.9-3.3-3.9-3.1-4-2.7-4.1-2.6-4.2-2.3-4.2-1.8-4.3-1.7-4.3-1.4-2.9-1.1-2.4-1.7-2-2-1.6-2.5-1.3-2-1.4-1.3-1.6-1.3-2.9-1.1-3-0.6-3-0.4-21.6-2.4-21.2-3.3-21.3-3.9z"/>
		<path id="Layer" class="s21" d="m584.3 695l2-6.8 1.2-6.5 0.5-6.5-0.2-6-1-5.8-1.9-5.5-2.5-5.1-3.2-4.5-3.9-4.1-4.6-3.5-5.2-2.8-5.8-2.1-6.1-1.4-6.5-0.6-6.8 0.3-7.1 0.8-29.3 5.8-28.6 6.5-2 0.3h-2l-3.6-0.5-3.2-1.2-3-2-2.4-2.6-1.8-3.1-1-3.4-0.2-3.6 0.6-3.5 2.5-7.1 3.3-6.6 3-4.4 3.3-4.3 3.7-3.9 4.2-3.7 21.2-16.6 21.4-15.3 21.4-14.5 21.5-13.2 1.2-0.9 2.4-2.1 1.7-2.4 1.2-2.9 0.8-3.1-0.2-3.1-0.6-3.1-1.2-2.8-1.9-2.5-31.9-35.3-30.9-35.2-30.1-34.8-29.2-34.6-9.3-10.3-13.5-13.4-10.2-10-7.3-7.6-6.2-7.1-5.4-6.9-0.3-0.4-4.2-5.2-4.6-4.8-5.2-4.6-5.7-4-2.7-1.4-1.3-0.2-1.3 0.1-1.2 0.3-1.1 0.7-1.1 1-1.1 1.3-1.8 2.1-2 1.9-1.9 1.2-2.3 1-1.8 0.5-2 0.1 1.2-9 0.4-2.7 0.9-2.6 1-2 1.1-1.7 1.3-1.8 1.7-1.5 1.7-1.2 1.8-1.1 2-0.9 2.1-0.6 2.1-0.4 2.2-0.1 2.3 0.1 2.1 0.4 2.2 0.6 2 0.9 2 1.1 1.7 1.2 7.9 6 8.2 5.4 8.5 4.8 8.6 4.1 19.2 8.7 19 9.5 19.3 10.5 19.3 11.3 19.3 12.2 19.5 13 19.7 14.1 19.8 14.9 20 15.9 20.2 16.8 20.6 17.8 21 19.1 21.5 20.2 22.3 21.6 23.2 23.3 24.6 25.3 1.6 2 1 2.3 0.7 2.5v2.6l-0.5 2.5-1 2.3-1.5 2-1.9 1.7-1.5 0.9-17.4 9.4-17.2 9.9-16.2 10-15.9 10.6-15.6 11-15.3 11.5-15.1 12-14.8 12.6-14.4 13z"/>
	</g>
	<g id="Layer">
		<path id="Layer" class="s22" d="m2331.5 343.3l15.7 5.2 15.5 5.5 15.3 6 15.1 6.1 15.1 6.5 14.8 6.9 14.8 7.2 14.7 7.4 14.5 7.8 14.5 8.1-11.3 14.4-10.7 15.1-10.4 15.9-9.8 16.7-6.2 10.6-5.9 9.8-5.8 8.8-5.6 7.8-5.4 6.9-5.2 6-5.1 5.1-4.8 4.2-6.7 4.8-7.8 4.9-8.6 4.5-9 4.4-9.3 3.8-9.3 3.3-9.1 2.8-9.1 2.1-8.2 1.4-8.1 0.8-7.5 0.2-6.9-0.3-6.7-1-6.1-1.6-5.7-2.3-5-2.7-4.4-3-3.7-2.8-3.2-2.8-2.5-2.8-2.1-2.7-1.3-2.7-0.9-2.6-0.2-2.5 13.6-25.3 12.8-24.5 11.9-23.6 11.1-22.8 4.6-10.2 4.1-11.3 3.7-12.2 3.2-13.1 5.8-23.9z"/>
		<path id="Layer" class="s22" d="m1137.4 356.4l100.4 151.9 1.6 3.5 0.8 3.7 1.6 28.4 0.2 1.9 0.4 1.5 0.6 1.1 0.9 0.7 1 0.3 1.2-0.2 1.5-0.5 1.6-0.9 1.9-1.2 1.4-0.6 1.3-0.2 0.8 0.4 0.3 0.1-0.5 8.4-1 7.6-1.5 7-2.1 6.3-2.4 5.5-3.1 5-3.5 4.2-4.1 3.6-3.9 2.4-4.4 2-4.8 1.5-5.1 0.9-5.8 0.3-6-0.2-6.3-0.7-6.5-1.5-6.5-2.1-6.8-2.8-6.9-3.3-7.2-3.9-10.3-6.4-10-6.7-9.5-7-9.2-7.4-8.7-7.7-8.4-7.9-8.1-8.3-7.6-8.6-8.9-11.3-8.4-11.6-7.8-12.1-7.2-12.7-6.6-13.1-6-13.8-5.5-14.1-4.8-14.7-1.1-2.6-1.7-2.1-2.1-1.3-2.7-0.8-14-2.4z"/>
		<path id="Layer" class="s22" d="m3499.6 2640.5l-4.2 8.8-4 8.8-3.5 8.6-3.3 8.8-3.8 9.7-4.2 8.6-4.8 7.6-2.6 3.4-2.7 3.2-13.3 14-6 5.9-5.7 5.2-5.2 4.4-4.8 3.5-4.5 3-4 2.1-7.5 2.9-3.5 0.9-3.6 0.8-3.6 0.5-3.5 0.1-3.4-0.1-3.5-0.4-3.5-0.7-3.3-1-3.5-1.3-3.3-1.6-3.2-1.9-3.4-2.1-3.2-2.5-3.1-2.9-18.5-17.3-18.8-17-19-16.7-19.2-16.6-19.4-16.2-19.7-15.9-19.8-15.6-20.1-15.5-29.7-22-30.1-21.5 4.5-15.1 5.7-15.3 6.3-15.2 7.1-14.8 7.5-14 8-13.4 8.5-12.3 8.6-11.4 8.9-10 9-9 9.3-8 4.7-3.5 4.8-3.3 4.8-2.9 4.9-2.7 4.8-2.5 4.9-2.1 5-1.9 4.9-1.5 5-1.2 5-1 12.9-1.7 13-1.1 13-0.4 12.7 0.1 12.6 0.9 12.3 1.5 11.8 2.1 11.4 2.7 10.9 3.3 10.2 3.9 9.7 4.4 9 5.1 8.5 5.4 7.9 6.1 7.3 6.7 6.6 7.1 7.7 9.6 7.1 9.7 6.5 9.9 5.8 10 5.2 10.3 4.5 10.4 4 10.5 3.2 10.7 3.2 13.1 2.2 13.4 1.4 13.6 0.4 14-0.4 14.1-1.4 14.3-2.2 14.6z"/>
		<path id="Layer" class="s22" d="m3125.4 2627.7l4.4 2.8 4.2 3.3 4.1 3.9 4 4.4 3.5 4.9 3.5 5.4 3.3 5.9 3.1 6.5 5.8 12.3 5.9 10.8 5.6 9.4 5.6 7.9 14 18.8 13.1 19 12.2 19.3 11.4 19.7 10.5 19.7 9.6 20.2 8.8 20.5 7.9 20.7 0.9 3.6 0.3 3.8-0.7 3.7-1.2 3.5-2 3.2-2.6 2.7-3.1 2.2-3.3 1.5-0.5 0.1-132.9 40-4.7 0.9-4.8 0.2-4.7-0.9-4.6-1.6-4.2-2.4-3.6-3.2-3.1-3.7-2.2-4.2-13.7-32.5-13.1-31.8-12.6-31.4-12-30.6-4.7-13.6-3.9-13.6-2.8-13.8-1.9-13.8-0.7-9-0.4-9.1 0.8-2.6 0.7-1.2 1.1-1.2 1.4-1 1.6-0.9 10-4.9 9.8-5.2 9.4-5.7 9.1-6.2 8.2-5.9 7.9-6.2 7.5-6.7 7.4-6.9 7.2-7.2 7.1-7.6 6.6-7.9z"/>
	</g>
	<g id="Layer">
		<path id="Layer" class="s14" d="m1198.5 1535.5l-11.6 1.3-11.6 0.4-11.5-0.6-11.5-1.5-11.4-2.5-10.9-3.4-10.7-4.4-10.2-5.1-9.7-6.1-9.3-6.8-8.5-7.7-8-8.3-7-8.7-3.2-4.7-3.1-4.9-2.7-4.9-2.6-4.9-2.5-5.2-2.1-5.4-2.3-6.8-2.1-7-1.7-7-1.2-7.2-0.7-7.3-0.5-7.3v-7.4l0.3-7.4 0.8-6.3 1.1-5.9 1.5-5.6 1.8-5.2 2.4-5 2.7-4.4 3.2-4.2 3.5-3.7 3.7-3.3 4.1-2.8 4.3-2.5 4.7-2.1 4.9-1.7 5.4-1.4 5.4-0.8 5.7-0.5h5.9l6.1 0.3 6.3 0.8 6.2 1.1 6.3 1.6 6.3 2 6 2.3 6.1 2.7 9.4 4.9 9.3 5 9 5.5 8.8 5.8 8.4 5.9 7.9 6.2 7.6 6.4 7.2 6.6 6.7 6.7 6.1 6.8 5.8 7 5 7.1 4.7 7.1 4.1 7.1 3.7 7.4 3.1 7.3 1.9 5.4 1.3 5.5 1 5.3 0.5 5.2v5.2l-0.5 4.9-0.9 5-1.4 4.8-1.5 3.8-1.9 3.7-2.1 3.7-2.4 3.5-2.8 3.3-3.1 3.1-3.2 3-3.6 2.8-3.8 2.6-4.1 2.4-4.2 2.1-4.4 2-4.7 1.7-4.8 1.4-5 1.2z"/>
		<path id="Layer" class="s14" d="m2259.3 1436.2l6.8-9.9 7.4-9.8 8.2-9.6 8.6-9.2 9.1-8.7 9.2-8.2 9.6-7.5 9.6-6.8 9.6-6.1 9.7-5.3 9.6-4.6 9.7-3.7 9.5-3 9.4-2.1 9.4-1.3 9.1-0.6 6.3 0.1 6 0.5 5.5 0.8 5.4 1.4 4.8 1.7 4.5 2.1 4.3 2.5 3.7 3 3.7 3.7 3.3 4.1 2.9 4.5 2.4 5.1 2.1 5.5 1.6 6 1.3 6.4 0.8 7 0.7 11.6-0.2 11-0.8 10.7-1.6 10.2-2.4 9.7-3.1 9.3-3.9 8.8-4.6 8.3-3.4 5.2-3.7 4.8-3.9 4.8-4.2 4.5-4.6 4.4-4.9 4.1-5.2 4-5.5 3.8-11.2 6.8-11.2 5.9-11.1 5-11.1 3.9-11.1 3-11 2.1-11 1.1-11 0.1-7.7-0.5-7.5-1-7.7-1.3-7.6-1.9-4.4-1.3-4.2-1.8-4.2-1.8-3.8-2.2-3.6-2.5-3.5-2.6-3.2-3-3-3.2-3.1-3.8-2.7-4.2-2.5-4.5-1.9-4.7-1.8-4.8-1.1-4.9-0.8-5.2-0.4-5.1v-5.3l0.5-5.2 0.8-5.3 1.3-5.2 1.6-5.1 2.1-5.1 2.5-4.9z"/>
	</g>
	<g id="Layer">
		<path id="Layer" class="s15" d="m1130.5 1083.1c-47.5 0-86-32.5-86-72.7 0-40.2 38.5-72.7 86-72.7 47.6 0 86 32.5 86 72.7 0 40.2-38.4 72.7-86 72.7z"/>
		<path id="Layer" class="s15" d="m2361.7 1084.9c-47.9 0-86.7-33-86.7-73.8 0-40.7 38.8-73.7 86.7-73.7 47.9 0 86.6 33 86.6 73.7 0 40.8-38.7 73.8-86.6 73.8z"/>
		<path id="Layer" class="s15" d="m1718 1617.7l-6.9-5.2-10.5-7.3-12.2-8.5-8.8-6.7-7.3-6.3-5.9-6.1-5-6.3-2-3.1-1.7-3.2-1.4-3.1-1.1-3.2-0.7-3.1-0.5-3.3-0.3-3.2 0.2-3.5 0.3-3.3 0.7-3.5 1.1-3.4 1.2-3.6 1.6-3.6 2-3.7 2.3-3.9 2.6-3.4 5-5.8 5.8-5.2 6.3-4.6 7-4 7.7-3.4 8.4-2.7 8.9-2.3 9.4-1.4 10.3-0.9 10.5-0.1 10.9 0.5 11 1.2 11 1.8 10.7 2.5 10.4 3.2 9.4 3.6 3.6 1.6 3.2 1.9 3.2 2.1 2.9 2.3 2.7 2.5 2.5 2.6 2.2 2.8 2 3 1.8 3.5 1.5 3.7 1.2 3.7 0.9 3.8 0.6 4 0.3 3.9-0.2 4-0.5 4.1-0.7 3.9-1.2 4-1.4 3.8-1.8 3.9-2.1 3.5-2.4 3.6-2.6 3.4-3 3.1-6.5 6.3-6.8 5.9-7.1 5.6-7.1 5.3-4.7 3.2-2.5 2.1-2.1 2.5-1.5 2.8-0.9 3.1-0.2 3.1 0.4 3.2 1 3.1 1.4 2.8 0.3 0.3 5.8 7.2 6.7 6.9 7.4 6.5 8 6 8.7 5.4 8.9 4.7 9.1 4.1 9.3 3.1 8.9 2.3 8.8 1.4 8.4 0.5 8-0.4 7.7-1.4 6.9-2.1 3.4-1.3 3.2-1.7 2.9-1.8 2.9-2.1 5.1-4.4 4.3-5.2 3.8-6.1 3.1-6.5 2.6-7.5 1.9-7.9 1.1-8.7 0.6-9.3 0.5-4.8 1.1-4.1 1.6-3.4 1.1-1.3 1.3-1.1 2.9-1.8 3.6-0.8 4.1-0.3 4.8 0.6 4.7 1 4.7 1.3 4.1 1.7 3.6 2.2 2.8 2.9 2.2 3.2 1.8 3.7 1.1 4.3 0.5 4.7 0.1 12.6-0.6 11.9-1.5 11.3-2.4 10.5-1.6 5-1.6 4.9-1.9 4.5-2.1 4.5-2.4 4.3-2.5 4.2-2.8 4-3 3.7-5.4 6-6.2 5.6-6.8 4.9-7.3 4.6-8 4-8.6 3.6-9.2 2.9-9.8 2.5-2.7 0.9-2.5 1.2-2.1 1.7-2 2.1-1.5 2.4-0.9 2.6-0.7 2.7-0.1 2.8 0.3 14.4-0.4 14.7-1 14.6-1.7 14.6-2.4 14.1-2.9 13.6-3.6 13.1-4.1 12.3-4.6 11.5-5.2 10.8-5.5 9.9-6.1 9.1-6.7 8.4-7 7.6-7.4 6.7-8 5.8-5.6 3.6-5.7 3.2-6 2.9-5.8 2.8-5.9 2.2-5.9 2-6.1 1.7-6.1 1.2-6.1 1.1-6.1 0.7-6.1 0.2h-6l-6-0.4-5.9-0.7-5.9-1-5.8-1.4-6.8-2.1-6.6-2.4-6.5-3-6.2-3.5-6.1-3.8-5.8-4.2-5.6-4.7-5.3-4.9-5-5.5-4.7-5.8-4.5-6.1-4.1-6.4-3.7-6.7-3.3-7-3.1-7.2-2.7-7.5-5.2-17.1-4.3-17.2-3.6-17.3-2.6-17.4-1.3-9.9-0.8-9.8-0.6-9.9-0.4-9.8-0.3-3-0.7-3-1-2.8-1.4-2.7-1.7-2.5-2.1-2.2-2.2-2-2.6-1.6-8.4-4.4-12.4-5.4-10.4-4.6-7.5-3.7-6.4-3.4-5.7-3.6-5.1-3.7-4.4-4.1-3.8-4.1-3.2-4.4-2.8-4.9-2.7-4.9-2.4-4.8-2.1-5.1-1.8-4.9-1.6-5.1-1.3-5.2-1.1-5.1-0.9-5.7-0.5-5.8-0.2-5.7 0.1-5.9 0.4-5.8 0.7-5.9 1-6.1 1.4-6.1 0.6-1.9 1-2 1.1-1.7 1.5-1.5 1.6-1.4 1.7-1.1 2-0.9 2-0.6 5.7-0.9 5.4-0.1 4.8 0.8 4.5 1.6 3.7 2.2 3.3 2.8 3.2 3.8 2.9 4.3 2.5 5 2.3 6 2.4 6.8 2.6 9.5 2.3 8.3 1.9 5.5 1.2 2.9 1.7 2.6 2 2.5 2.2 1.9 2.6 1.9 2.9 1.4 2.8 0.9 3.1 0.7 9.9 1 9.5 0.3 9.4-0.2 8.9-0.9 8.8-1.5 8.4-2 8.2-2.7 7.7-3.3 5.9-3 5.5-3.2 5.5-3.6 5.2-3.9 5-4.4 5-4.7 4.7-5 4.5-5.3v-0.2l0.9-1.1 0.5-1.3 0.3-1.4v-1.5l-0.3-1.3-0.6-1.4-0.9-1.1z"/>
	</g>
	<path id="Layer" class="s21" d="m1675.3 1738l72.4-52.7 2.1-1.1 2-0.4 2 0.7 1.9 1.3 12.6 11.5 13.2 10.9 8.5 6.7 8.6 6.4 8.9 6.2 9.1 5.9 3.8 2.9 3.3 3.4 3 4.1 2.5 4.6 2.2 5.3 1.6 5.7 1.4 6.3 0.8 6.5 0.4 7.3-0.1 7.6-0.5 7.9-1 8-1.4 8.4-1.8 8.4-2.4 8.6-2.6 8.4-2.9 8-3.4 7.9-3.4 7.6-4 7.3-3.9 6.8-4.4 6.3-4.4 5.8-4.6 5.2-4.7 4.7-4.7 4-4.8 3.4-5 2.8-4.8 2.3-5 1.4-4.9 1-5 0.3-6.3-0.4-6.1-0.9-5.9-1.3-5.7-2-3.7-1.6-3.6-1.9-3.6-2.2-3.5-2.3-3.2-2.6-3.2-2.9-6.1-6.4-5.6-7.3-5.2-8.4-4.9-9.3-4.2-10-3.9-11.2-3.2-12.2-2.9-12.7-2.1-13.3-1.6-14.1-0.8-14.3-0.3-14.2 0.4-13.6 0.3-2.5 1-2.3 1.4-2z"/>
</svg>