<svg version="1.2" xmlns="http://www.w3.org/2000/svg" viewBox="0 0 3600 3600" width="3600" height="3600">
	<title>yelowhead-svg</title>
	<style>
		.s0 { fill: #2c0200 } 
		.s1 { fill: none;stroke: #f8c596;stroke-width: 3.3 } 
		.s2 { fill: none;stroke: #febe9c;stroke-width: 3.3 } 
		.s3 { fill: none;stroke: #f7ac8b;stroke-width: 3.3 } 
		.s4 { fill: none;stroke: #edac76;stroke-width: 3.3 } 
		.s5 { fill: none;stroke: #ffebd3;stroke-width: 3.3 } 
		.s6 { fill: none;stroke: #ffc3b8;stroke-width: 3.3 } 
		.s7 { fill: none;stroke: #956d54;stroke-width: 3.3 } 
		.s8 { fill: none;stroke: #fde4c1;stroke-width: 3.3 } 
		.s9 { fill: none;stroke: #955449;stroke-width: 3.3 } 
		.s10 { fill: none;stroke: #e69a65;stroke-width: 3.3 } 
		.s11 { fill: none;stroke: #968180;stroke-width: 3.3 } 
		.s12 { fill: none;stroke: #965865;stroke-width: 3.3 } 
		.s13 { fill: none;stroke: #ffd7e4;stroke-width: 3.3 } 
		.s14 { fill: none;stroke: #fccbb6;stroke-width: 3.3 } 
		.s15 { fill: #ffffff } 
		.s16 { fill: #fed7a7 } 
		.s17 { fill: #fda591 } 
		.s18 { fill: #ffaec9 } 
		.s19 { fill: #db8045 } 
		.s20 { fill: #f1b385 } 
		.s21 { fill: #fbf1da } 
	</style>
	<g id="Layer">
	</g>
	<path id="Layer" class="s0" d="m2410.2 3025.6l-453 44.7-324.9-1.4-206.8-14.9-13.9-1.4-18.1-1.9-48.3-6.7-64.6-9.9-81-13.3-77.8-21.8-80.3-21.8-33.9-9.5-33.5-9.8-33.2-10.6-32.7-10.9-32.3-11.4-32-12.1-31.5-12.5-31.3-13-30.8-13.5-30.3-14.1-30-14.6-29.7-15.1-29.2-15.7-28.9-16.1-28.4-16.6-28.1-17.2-23-14.7-21.1-14.4-19.6-14.2-17.8-14-16.5-14.1-15.1-14.2-13.8-14-6.3-7.1-6-7.1-31.5-38.7-24.5-31.3-21.6-28.9-19.2-27.2-9.1-13.5-8.6-13.5-8.2-13.2-7.7-13.2-7.5-13.1-7-13.2-6.7-13.1-6.3-13-0.9-1.5-1.1-1.2-1.3-1-1.5-0.7-1.5-0.4h-1.7l-1.6 0.3-1.6 0.5-10.9 5.4-10.7 5.7-10.5 5.9-10.2 6.2-12.9 8.4-12.6 8.8-12.4 9.3-12.1 9.7-0.2 0.2-5.3 3.7-2.9 1.4-2.9 1.3-3.1 1.1-3.2 0.6-3.1 0.6-3.2 0.1h-3.2l-3.1-0.3-3.2-0.6-3-0.8-2.9-1.1-2.7-1.4-2.7-1.6-2.5-1.7-2.9-2.8-2.7-3-1.9-2.9-1.3-3.3-0.6-3.4v-3.4l0.6-4.2 0.8-4.1 1.2-3.9 1.4-3.8 1.8-3.9 1.9-3.5 2.3-3.6 2.5-3.4 2.7-3.3 3.2-3.1 3.3-3.2 3.6-2.9 23-17.3 23.3-17.1 23.5-17 23.8-16.5 1.7-1.3 1.4-1.6 1.1-1.9 0.8-1.8 0.6-2.1 0.2-2.1-0.1-2.1-0.5-2.1-6.5-21.3-6.2-21.4-5.6-21.6-5.4-21.7-4.9-21.9-4.4-22-4.2-22.2-3.7-22.3-0.9-2.7-0.7-1-0.8-0.7-0.9-0.5-1.2-0.3-2.8 0.3-16.5 3.8-16.3 4.1-15.9 4.3-15.7 4.5-15.3 4.6-15 4.8-14.6 5-14.3 5.3-4.5 1.4-4.4 0.7-4.2 0.1-4-0.4-4.6-1.4-4.5-2.4-4.2-3.1-4.1-4.1-3-4.1-2.1-4.6-1.1-5-0.1-5 0.8-5 2-4.7 2.7-4.2 3.6-3.7 0.9-0.6 6.2-4.5 6.8-4.6 6.8-4.3 7.1-4.1 7.4-4 7.5-3.5 7.9-3.6 8-3.3 8.3-3.1 17.3-5.5 19.1-5.3 21.3-4.9 26.8-5.2 1.8-0.5 1.8-0.7 1.3-0.9 1.2-1.2 0.7-1.3 0.7-1.5 0.4-1.7 0.1-1.9 0.2-23.3 0.7-23.1 1.1-23 1.6-23 2.1-22.9 2.5-22.9 3-22.7 3.5-22.8 5.7-32.2 6.8-32.1 7.7-31.9 8.6-31.8 9.6-31.6 10.5-31.5 11.5-31.3 12.5-31.2 1-3.8 0.2-3.6-0.8-3.5-1.7-3.3-8.8-14-8.7-14.2-8.3-14.5-8.2-14.6-7.7-14.8-7.6-14.9-7.4-15.2-7.1-15.3-7-15.5-6.5-15.6-6.3-15.8-6.2-16-5.9-16.2-5.7-16.4-5.4-16.6-5.1-16.7-1.3-5.1-1.1-5.5-1.7-14.9-1-10.4-1.2-7.3-1.6-6.6-2-5.8-2.3-6.4-1.7-6.7-1.4-7.8-2.5-24.2-2.1-24-1.7-24.1-1.2-23.9-0.7-23.8-0.3-23.8v-23.7l0.7-23.5 0.9-23.5 1.4-23.4 2-23.3 2.2-23.3 2.9-23 3.2-23.1 3.7-22.9 4-22.9 4-18.2 4.8-18.3 6.1-18.8 7-19.1 8-19.3 9.2-20.4 10.6-21.3 12.2-23.1 3.2-5.4 3.3-5.2 3.7-5.2 3.8-5 4.2-5 4.5-4.7 4.7-4.7 4.9-4.5 5.2-4.3 5.4-4.4 11.7-8 12.7-7.6 13.7-7.1 14.7-6.6 15.8-5.9 16.7-5.5 17.5-4.7 18.5-4.4 19.4-3.5 19.8-3.1 20.5-2.3 22-2 21.7-1.6 21.8-1.2 21.7-0.7 21.5-0.4h21.6l21.4 0.4 21.3 0.6 21.3 1.2 21.3 1.4 21.2 2 21 2.2 21 2.7 20.9 3 20.9 3.4 20.8 3.8 20.6 4.2 20.5 4.6 20.4 4.9 20.4 5.3 20.2 5.7 20.3 6.1 20.2 6.4 20 6.9 20 7.1 20 7.6 19.8 7.9 19.9 8.4 19.7 8.7 19.6 9 19.6 9.5 19.4 9.9 4.2 1.7 4.2 0.6h2.3l2.2-0.2 4.6-1.5 20-9.1 27.3-13 22.4-10.6 16.3-7.5 14.8-6.4 13.6-5.4 23.9-9 23.9-8.5 24.1-8.2 24-7.9 24.1-7.3 24.2-7 24.2-6.7 24.3-6.2 24.3-5.9 24.3-5.5 24.3-5 24.5-4.7 24.4-4.4 24.6-3.9 24.6-3.6 24.6-3.1 27.6-3 27.7-2.7 27.6-2.1 27.9-1.6 27.7-1.1 28-0.7 27.9-0.1 28 0.2 28.1 0.8 28.2 1.3 28.1 1.9 28.3 2.2 28.2 2.8 28.4 3.1 28.4 3.7 28.5 4.2 3.4 0.2 1.5-0.3 1.4-0.7 2.4-1.7 2-2.7 9.3-16.9 9.9-16.3 10.1-15.7 10.5-15.3 10.9-14.7 11.3-14.3 11.6-13.7 12.1-13.2 9.8-10.7 9.5-11.2 9.1-11.6 8.7-12.1 10.2-14.2 10.4-13.5 10.4-12.8 10.8-12.2 10.9-11.4 11-10.9 11.2-10.2 11.3-9.4 11.4-8.8 11.7-8.2 11.9-7.5 11.9-6.7 12.2-6.1 12.3-5.4 12.6-4.9 12.6-4.1 10.9-2.7 11.2-1.9 11.3-0.9h11.7l11.7 0.9 11.8 1.7 11.7 2.8 11.7 3.5 11.6 4.4 11.2 5.2 11 6.1 10.5 6.7 10 7.5 9.5 8.1 8.8 8.6 8 9.2 10.3 13 9.7 13.4 9.2 13.9 8.8 14.5 8.3 14.7 7.9 15.4 7.3 15.8 7 16.4 6.4 16.8 6.2 17.4 5.7 18.1 5.4 18.8 4.8 19.5 4.8 20.3 4.3 21.3 4.1 22.7 0.4 1.5 0.7 1.3 1.1 1.2 1.3 1 1.5 0.5 1.5 0.2h1.6l1.5-0.5 1.4-0.8 15.5-11 20-13.3 20.2-12.9 20.8-12.1 21.2-11.7 21.5-10.9 22-10.5 22.3-9.9 22.8-9.2 20.2-7.7 20.1-7.2 20-7 19.9-6.5 19.4-5.9 19.3-5.4 19-5 18.6-4.6 18.2-3.9 17.9-3.5 17.4-3.1 17.1-2.5 16.9-1.9 16.3-1.6 15.9-0.9 15.5-0.6h15.1l14.6 0.4 14.2 1.1 13.7 1.4 13.2 2 12.9 2.5 12.5 3 12.1 3.4 11.6 4 11 4.5 10.7 4.9 10.2 5.4 9.7 6 9.4 6.4 8.8 6.8 8.4 7.4 7.1 7.1 6.8 7.5 6.5 7.7 6.1 8.5 5.7 8.5 5.2 9.1 5 9.3 4.6 9.9 9.1 21.5 8.6 21.8 7.8 22.4 7.4 22.5 6.7 23.1 6.1 23.1 5.5 23.7 4.7 23.8 4.2 24.2 3.7 24.2 2.9 24.5 2.4 24.6 1.5 24.7 1.1 24.9 0.3 25-0.3 24.9-0.9 25.1-1.6 25-2.2 24.9-2.9 24.9-3.6 24.6-4.2 24.6-4.7 24.5-5.4 24.1-6.1 24-6.7 23.8-7.2 23.2-7.9 23.2-8.4 22.6-8.9 22.3-9.6 22-10.2 21.5-5.7 11.5-6.2 11.1-6.5 11.2-6.8 11.1-7.2 10.9-7.6 10.8-7.9 10.6-8.3 10.5-2 2.9-1.6 3-1 3.3-0.7 3.4-0.1 3.5 0.4 3.5 0.8 3.3 1.3 3.3 9.9 20.6 9.4 20.5 9.1 20.5 8.7 20.5 8.1 20.4 7.8 20.4 7.3 20.4 7 20.2 6.4 20.2 6.1 20.2 5.6 20.1 5.3 20.1 4.9 20.1 4.3 20 3.9 20 3.6 19.8 4.2 27 3.7 28.9 3.4 30.6 3 32.6 2.6 34.6 2.3 36.4 2 38.2 1.4 40.1 0.5 3.5 0.7 1.3 0.8 1.3 1 0.9 1.2 0.9 3.2 1.2 21 4.9 25.6 6 18.4 4.8 16.5 4.8 14.7 5.3 13.9 5.9 13 6.4 12.1 7.3 11.6 8 4.9 3.8 3.1 3.1 2.5 3.6 2 4.1 1 4.2 0.3 4.4-0.5 4.5-1.2 4.2-2.1 4-2.8 3.8-3.1 3.4-3.6 2.9-3.9 2.4-4 1.7-4 1-4.1 0.5-4.1-0.2-2.7-0.7-2.9-0.9-14.5-5.5-14.9-5.4-15.1-5-15.5-4.7-15.8-4.5-16-4.1-16.4-3.9-16.7-3.6-1.7-0.2-1.6 0.1-1.3 0.4-1.1 0.5-0.9 0.9-0.7 1.1-0.9 2.9-3.3 20.9-3.8 20.9-4.2 21.1-4.7 21.2-5.1 21.2-5.6 21.4-6 21.4-6.6 21.6-0.6 3.1-0.3 3.3 0.4 3.3 0.8 3 1.4 3.1 1.9 2.6 2.1 2.4 2.6 1.9 13.8 9 13.5 9 13.1 9.2 12.7 9.2 12.2 9.4 11.9 9.4 11.5 9.5 11.1 9.6 2.6 2.6 2.2 2.9 1.7 3.2 1.5 3.4 2 6.7 1.4 6 0.9 5.6 0.3 5-0.4 4.3-0.9 3.8-1.5 3.3-1.9 2.8-2.1 1.7-5.8 3.5-5.7 2.5-5.6 1.5-2.9 0.2-2.8 0.2-5.6-0.7-5.7-1.8-5.5-2.8-5.5-3.8-10.7-8.2-11-8-11.2-7.7-11.4-7.5-11.9-7.4-11.9-7.1-12.2-6.8-12.5-6.6-2.5-1.1-2.4-0.6h-2.2l-2 0.4-1.8 0.9-1.8 1.4-1.4 1.9-1.3 2.5-6.1 12.9-6.3 13-6.9 13.1-7.3 13.2-7.7 13.3-8 13.2-8.7 13.6-9.2 13.6-9.5 13.7-10 14.1-21.8 29-25 31.4-30.7 37.4-9.6 10.9-10.3 10.9-10.9 10.8-11.7 10.8-12.5 10.6-13 10.5-13.8 10.4-14.6 10.4-20.8 14.1-21.6 14-22.5 14-23.4 13.8-24.3 13.8-25.2 13.6-26 13.6-26.9 13.5-27.9 13.6-28.7 13.2-29.5 13.4-30.7 13.3-31.6 13.3-32.8 13.4-33.8 13.4-35.1 13.4-14.5 5-19.2 5.5-23.7 6.3-28.3 6.9-32.8 7.5-37.5 8.1-42.1 8.7z"/>
	<g id="Layer">
		<path id="Layer" fill-rule="evenodd" class="s1" d="m3352.3 951.5l0.3 11.2-0.4 11.4-1 12-1.6 12.3-2.1 12.9-2.9 13.1-3.4 13.7-4 14.1-1.4 4.3-1.7 4-1.9 3.6-1.9 3.3-2.3 2.9-2.5 2.6-2.6 2.3-2.9 1.8-3.9 2-4.2 1.3-3.5 0.4-3.4-0.5-3.3-1.3-2.7-2.1-5.7-5.3-6-4.9-8.2-5.5-8.5-4.9-3.4-1.8-3.3-2.1-3.2-2.4-2.9-2.6-2.7-2.8-2.7-3-2.5-3.3-2.3-3.5-4.1-7.8-4.1-9.7-3.7-10.1-3-10.8-2.5-11.3-2-12-1.4-12.3-0.8-13-0.4-13.6"/>
		<path id="Layer" fill-rule="evenodd" class="s2" d="m3225.6 934.1l-0.6-10.8 0.1-4.7 0.3-4.3 0.5-4 0.8-3.5 1-3 1.3-2.7 4.5-7.6 10-17.6 6.7-12.9 5.5-12 4.1-10.9 1.6-5.5 1.4-5.4 1.1-5.2 0.6-5.3 0.6-5.1 0.1-5.1-0.1-5-0.4-5-1.6-8.8-1.2-3.9-1.4-3.2-2-2.5-2.4-1.7-2.7-1.2-3.2-0.6-3.5 0.3-4 0.9-13.5 4.5-13.3 4.9-12.9 5.4-12.6 5.7-12.2 6.3-11.9 6.9-11.5 7.2-11.3 7.8-10.3 7.6-10 8.1-3.4 2.4-3.8 1.6-4.1 0.8h-4.2l-3.2-0.2-3.1 0.4-4.1 1.5"/>
		<path id="Layer" fill-rule="evenodd" class="s3" d="m3225.6 934.1l-6.9 71.3"/>
		<path id="Layer" fill-rule="evenodd" class="s4" d="m1937.8 729.3l-62.1 1.2-2.6 0.3-2.5 0.8-2.4 1.3-2.1 1.5-1.8 2-1.3 2.4-1 2.5-0.3 2.6-1.2 20.1-0.4 22 0.1 24.3 0.7 33.4 0.8 33.6 0.1 24.8-0.4 22.3-1.2 20.5-3 36.9-3.4 35-4 33-4.2 31.2-4.6 29.3-5 27.2-5.4 25.4-5.8 23.5-1.7 5.5-1.9 5.3-2.4 5.1-2.8 4.9-2.5 4-2.9 4-3.1 3.8-3.4 3.5-3.7 3.6-3.9 3.3-4.3 3-4.4 3-3.7 1.9-3.8 0.9-3.8 0.1-3.8-0.6-4.4-1.5-4.2-1.8-4.2-2.3-4.1-2.7-4-3.2-4-3.5-3.8-4.1-3.7-4.5-3.7-4.8-3.4-5.3-3.5-5.8-3.3-6-3.2-6.6-3.1-7.1-6.1-15.2-5.5-16.9-5.1-18.6-4.9-20.2-4.3-21.9-4.1-23.3-3.5-24.9-3.3-26.7-3.6-32.4-1.3-13-0.7-7.9-0.3-9.2-0.3-22.7 0.5-28.3 1.3-33.9 0.6-17.5v-17.3l-0.8-17.4-1.3-17.2-2-17.4-2.6-17.2-3.3-17.2-4-17.2"/>
		<path id="Layer" fill-rule="evenodd" class="s4" d="m1954.2 734.7l2.2 13.7 1.6 13.9 1.1 14 0.4 14.1-0.3 14.4-0.9 14.4-1.6 14.8-2.1 14.7-2.9 19.6-2.4 20-1.8 20.3-1.2 20.9-0.6 21.5-0.3 21.6 0.4 22.4 0.9 22.9 1.4 23.2 2.2 24 2.4 24.5 3.2 25.1 3.6 25.9 4.3 26.9 4.7 27.7 5.5 29 0.4 1.5 1.1 2.4 1.6 2.1 1.9 1.7 2.3 1.3 2.5 0.6 2.6 0.3 2.5-0.3 2.5-0.9 7.2-3.9 6.7-4.6 4.2-3.6 4.1-3.9 3.7-4.2 3.5-4.6 3.2-4.9 3-5.1 2.8-5.5 2.5-5.9 8.1-21.3 7.8-22 7.3-22.3 7-23 6.7-23.6 6.3-24 5.9-24.6 5.7-25.1"/>
		<path id="Layer" fill-rule="evenodd" class="s1" d="m2087.1 1000.8l17.3 7.1 17 7.9 11.3 5.6 11.2 6.1 10.9 6.3 10.8 6.5 10.8 7 10.5 7.4 10.2 7.6 10.3 7.9 5 4.3 4.6 4.4 4 4.3 3.6 4.3 3 4.5 2.5 4.5 2.1 4.4 1.6 4.6 1.8 7.4 1.5 7.8 1.2 8.4 0.8 9 0.5 9.5 0.2 10.4-0.3 27.6-0.4 21.4 0.2 15.3 0.8 7.7 0.8 3.6 1 3.3 1.4 3.1 1.4 2.9 1.7 2.6 2 2.5 2.2 2.4 2.5 2 2.7 1.8 2.8 1.7 3.2 1.5 3.4 1.2 7.5 1.8 5.1 0.4 3.5-0.1 3.5-0.7 5.4-1.7 4.7-2.2 4.2-2.8 3.4-3.4 2.8-4 2.2-4.4 1.5-5 0.9-5.5 1.2-16 0.1-15.5-0.9-15.1-1.8-14.6-0.4-4.7 0.1-4.3 0.8-4.1 1.6-3.7 1.8-2.9 2.2-2.6 3.9-3.2 4.2-2.1 3.9-1.2 4.2-0.4 4.6 0.4 4.7 1.1 25.4 7.7 24.9 8.1 24 8.2 23.5 8.6 8.3 2.9 8.7 2.9 19.2 5.2 21.6 4.9 29.8 5.9 32.7 6.6 12.5 2.7 11.1 2.8 3.4 1.1 3.3 1.3 3.1 1.7 3 2 2.9 2.1 2.7 2.3 2.3 2.6 2.1 2.9 17.1 25.5 16.6 25.4 15.6 25.5 15.1 25.5 0.8 1.2 3.1 4.5 3.5 4.2 4.1 3.8 4.6 3.5 5.5 4.1 5.9 5 15.1 13.9 11.2 10.3 7.6 6.3 10.4 7.4 10.5 6.9 10.7 6.5 10.8 6.2 10.9 5.7 11.1 5.3 11.2 5 11.5 4.5 13.4 4.8 13.6 4.2 14 3.7 14 3.2 14.2 2.6 14.5 2.1 14.7 1.4 14.9 1.1 7.5 0.1 7.5-0.2 7.3-0.8 7.4-1.2 9.6-2.2 11-2.7 10.9-1.7 10.7-0.6 10.6 0.4 3.3-0.2 2.8-1 1.3-0.8 1-1.2 1.7-2.9 2.1-4.3 2.3-4.1 2.5-3.8 2.6-3.6 2.8-3.2 3-3.1 3.1-2.6 3.5-2.4 3.3-2.1 3.5-1.7 3.7-1.6 3.8-1.1 4.1-1.1 4-0.8 8.9-0.8 9.4 0.3 10.1 1.2 10.8 2.2 11.5 3.2 0.9 0.5 0.8 0.8 0.4 1 0.1 1.1v1.8l0.3 1.6 0.5 1.2 0.8 0.9 0.9 0.7 1 0.2 2.9-0.1 2.1-0.3h2l1.8 0.4 1.6 0.7 1.5 0.9 1.2 1.3 1.1 1.6 1 2 1.7 3.3 2.2 2.8 2.5 2 2.9 1.5 3.3 1.1 3.7 0.7"/>
		<path id="Layer" fill-rule="evenodd" class="s5" d="m3062.7 2634l0.2-7.7-0.4-6.8-0.8-6.2-1.5-5.5-1.7-5-2.3-4.1-2.8-3.5-3.3-2.9-2.2-1.3-2.4-1.2-2.6-0.9-2.8-0.7"/>
		<path id="Layer" fill-rule="evenodd" class="s6" d="m3040.1 2588.2l2.9-10.2 3.3-10.7 3.8-10.8 4.2-11 3.2-8.8 2.4-8.8 1.7-9 0.9-8.9 0.2-9.9-0.5-10-1.4-9.9-2.4-10-3.1-9.9-4-9.9-4.9-9.5-5.5-9.6-6.4-9.4-7.2-9.2-7.9-8.8-8.6-8.3-9.2-8-9.6-7.5-10.1-6.8-10.5-6.3-28.1-15.3-12.8-6.4-11.7-5.8-10.8-4.9-9.8-4.2-9-3.3-8-2.6-17.6-4.7-18.9-4-20-3.4-21.2-2.7-22.5-2.1-23.6-1.5-24.7-0.9-26.1-0.1"/>
		<path id="Layer" fill-rule="evenodd" class="s7" d="m2706.6 2305.1l12.7-8.3 12.1-8.4 11.5-8.7 11.1-8.8 10.5-9.1 10.1-9.3 9.6-9.5 9.1-9.7 8.5-9.9 8-10.1 7.7-10.4 6.9-10.5 6.6-10.8 6-10.9 5.7-11.2 5-11.4 5-12.9 4.5-13.1 3.8-13.6 3.1-13.6 2.5-14 2-14.3 1.3-14.5 0.7-14.7v-15l-0.6-15.2-1.1-15.7-1.9-15.7-2.5-16.1-3-16.3-3.7-16.5-4.3-16.9-2.3-7.6-2.7-8.1-3.3-8.2-3.6-7.9-3.8-7.9-4.3-7.7-4.6-7.6-5-7.7-5.4-7.3-8.3-10.7-8.5-10.4-8.7-9.8-8.8-9.5-9.1-9-9-8.7-9.4-8.3-9.4-7.8-9.8-7.5-9.7-6.9-10-6.7-10.2-6.2-10.3-5.8-10.5-5.5-10.5-5-10.9-4.6-10.8-4.1-11.1-3.8-11.1-3.3-11.3-3-11.5-2.5-11.7-2.1-11.7-1.8-11.9-1.4-12.1-0.9-12.4-0.6-12.5-0.2-12.5 0.3-12.7 0.7-13 0.9-13 1.4-13.3 1.9-9.7 1.5-9.6 2-9.6 2.1-9.5 2.4-9.2 2.6-9.1 2.9-9 3.2-8.9 3.4-8.8 3.7-8.5 3.9-8.5 4.2-8.3 4.5-8.2 4.6-7.9 4.8-7.9 5.3-7.6 5.3-10.4 8-10 8.3-9.6 8.6-9.3 9.2-8.9 9.6-8.6 10-8.1 10.5-7.8 10.7-7.2 11.2-7 11.4-6.4 11.8-5.9 12.2-5.5 12.4-5.2 12.6-4.4 12.9-4.1 13.2-3.7 13.4-3 13.5-2.7 13.7-1.9 13.8-1.6 13.9-1.1 14.1-0.5 14v14.2l0.5 14.1 1.1 14.2 1.6 14.1 1.9 14 2.7 14.1 3 13.9 3.7 13.8 4.1 13.7"/>
		<path id="Layer" fill-rule="evenodd" class="s5" d="m2218.2 2150.6l-4.9-0.7-4.7-1-4.5-1.2-4.3-1.4-4.3-1.7-3.9-2-3.7-2.1-3.5-2.5-4.6-3.7-4.1-4.2-3.8-4.6-3.6-5-22.8-35.5-20.8-30.6-9.1-13.3-9.4-14.6-10.2-16.3-13.4-22.3-14.3-23.6-10.7-17.1-9.9-15.2-9.5-13.5-9.6-13.1-9.9-12.1-9.8-11.3-10.1-10.5-8.5-8.1-8.4-7.8-8.5-7.3-8.7-7-8.8-6.6-8.8-6.2-8.8-5.7-9.1-5.6-9.1-5-9.2-4.7-9.2-4.3-9.3-3.8-9.5-3.6-9.4-3.1-9.6-2.8-9.7-2.5-8.6-1.7-8.8-1.6-8.7-1.2-8.9-0.9-8.8-0.5-9.1-0.4h-8.9l-9.2 0.2-9.2 0.7-9.2 0.9-9.4 1.2-9.3 1.5-9.5 1.8-9.6 2-9.6 2.5-9.5 2.6-16.6 5.4-15.9 6.2-15.5 7.1-14.9 7.8-12.5 7.7-12.1 8.3-11.8 8.9-11.4 9.7-11.2 10.4-10.8 11-10.8 12-10.4 12.8-9.9 13.1-9.9 14.1-9.9 15.1-10.1 16.3-10 17.2-10.6 19.1-11.5 21.4-15.3 29.4-18.7 35.8-13.9 25.8-4 6.3-4.3 5.6-4.9 4.9-5.4 4.2-3.7 2.5-3.8 2.1-4.2 1.8-4.2 1.5-4.4 1.3-4.8 0.9-4.8 0.8-5.2 0.4"/>
		<path id="Layer" fill-rule="evenodd" class="s7" d="m1380.5 2141.4l4.1-13.4 3.7-13.3 3.3-13.1 2.7-13.2 2.4-13 2-12.9 1.4-12.7 1.1-12.8 0.6-12.6 0.2-12.5-0.3-12.3-0.7-12.4-1.1-12.2-1.6-12.1-2-12-2.5-11.9-3.5-14.1-4.1-14.1-4.9-13.8-5.4-13.6-6-13.7-6.6-13.4-7.4-13.3-7.8-13.1-5.2-7.9-5.4-7.8-5.6-7.6-5.8-7.4-6-7.2-6.2-7-6.5-6.8-6.5-6.6-10.9-10-11.2-9.4-11.8-9-12.1-8.4-12.7-7.9-13-7.2-13.4-6.7-13.5-6.1-14.2-5.5-14.3-4.8-14.6-4.4-14.9-3.5-15-3-15.1-2.3-15.4-1.7-15.4-1-15.5-0.3-15.5 0.3-15.5 1-15.4 1.6-15.4 2.4-15.3 3-15 3.5-14.9 4.4-14.6 4.8-14.3 5.5-14.1 6.1-13.8 6.7-13.2 7.2-13.1 7.9-12.4 8.4-12.3 9-12.5 10-11.8 10.5-11 10.8-10.5 11.3-9.9 11.5-9.1 12-8.5 12.3-7.8 12.8-7.7 14.5-7 14.8-6.2 15.4-5.4 15.8-4.6 16.3-3.8 16.7-2.9 17.2-2.2 17.6-1.4 19.3-0.6 18.9 0.6 18.7 1.4 18.3 2.4 18 3.3 17.6 4.3 17.4 5.4 16.9 6.2 16.6 7.1 16.2 8.1 15.7 9.1 15.5 10 15.3 11 14.8 11.8 14.6 12.9 14.2 2.4 2.5 6.2 5.8 6.5 5.7 6.7 5.2 7.1 5 14.1 10.1 15.1 12"/>
		<path id="Layer" fill-rule="evenodd" class="s6" d="m881.9 2286l-37 4.7-36.3 5.3-35.5 5.6-34.7 6.1-14.9 3.3-6.9 1.9-6.7 2.2-6.5 2.3-6.2 2.6-5.8 2.8-5.6 2.9-14.2 7.5-19.7 9.5-16.6 7.8-11.9 6.2-10.6 5.9-9 6-8.6 6.3-7.6 6.7-6.8 7.1-6.2 7.5-6.1 8.5-5.6 8.9-5.1 9.2-4.8 9.2-4 9.4-3.6 9.2-2.9 9.2-2.2 8.9-1.7 8.7-1 8.4-0.3 8.4 0.2 7.9 0.8 7.9 1.6 7.4 2.1 7.2 2.7 6.8 6 13.6 4.7 11.5 3.3 9.6 2 7.7"/>
		<path id="Layer" fill-rule="evenodd" class="s5" d="m560.7 2573.8l-5.2 1.5-4.4 2.3-4 2.6-3.1 3.1-2.4 3.5-1.7 3.6-1.3 4.3-0.8 4.6-0.3 5.1 0.3 5.4 0.8 5.9 1.3 6.3"/>
		<path id="Layer" fill-rule="evenodd" class="s2" d="m618.5 1285.2l7.4-0.2 6.8-0.8 6.2-1.2 5.8-1.7 5.1-2.2 4.4-2.7 4.1-3 3.4-3.5 2.3-3.1 1.8-3.1 1.6-3.6 1.3-3.8 0.9-3.9 0.7-4.4 0.4-4.4v-4.9l0.2-2.9 0.8-2.7 1.3-2.5 2-2.3 2.3-1.7 2.6-1.2 2.9-0.6h2.9l1.7 0.2 11.5 2.4 4.9 0.7 4.2 0.4 3.7-0.2 2.9-0.2 2.4-0.7 1.7-1.1"/>
		<path id="Layer" fill-rule="evenodd" class="s7" d="m718.7 1226.3l5.7-1.4 4.6-2.1 1.9-1.3 1.6-1.3 1.4-1.6 1.1-1.7 0.7-1.9 0.6-2.1 0.1-1.7-0.1-1.8-1.1-4.1-2.2-4.3-3.3-4.9-14.6-18.3-15.1-17.8-15.7-17.5-16.3-17.2-16.8-16.9-17.5-16.5-18.1-16.5-18.7-16-19.3-15.8-20.1-15.5-20.8-15.4-21.4-15.1-22.3-15-23.2-14.8-23.9-14.9-25-14.7-7-3.8-12.7-6.5-13.3-5.6-13.5-4.9-14.1-4.2-4.8-1.2-4.8-0.6-4.5-0.4h-4.2l-3.9 0.4-3.8 0.9-3.7 1.2-3.3 1.6-2.5 1.4-2.3 1.9-4.2 4-3.9 5.2-3.2 6"/>
		<path id="Layer" fill-rule="evenodd" class="s2" d="m311.2 933.6l-1.6-2.9-0.8-0.6-0.8-0.3-1.1 0.5-1.1 1.6-1.1 2.6-1 3.6-2.1 10.2-2 14.5"/>
		<path id="Layer" fill-rule="evenodd" class="s8" d="m299.6 962.8l-3.6-10.3-2.1-4.8-2.3-4.5-2.5-4.3-2.7-4.1-2.9-3.8-3-3.6-2.6-2.3-3-1.8-3.1-0.9-3.2-0.4-4.4 0.3-3.8 0.8-3.4 1.4-2.8 2-1.4 1.4-1.3 1.9-1.2 1.8-0.9 2.3-1.2 5-0.5 5.7-0.3 1.2-0.9 0.9-1.2 0.6-1.2-0.2-0.8-0.4h-0.1l-0.8-0.9-0.8-1-0.8-2.8-0.2-3.8 0.5-4.7"/>
		<path id="Layer" fill-rule="evenodd" class="s1" d="m1172.4 858.3l5.3 0.5 4.1 1.2 3.1 1.7 1.2 1.2 0.8 1.2 0.7 1.5 0.4 1.9v2l-0.4 2.1-0.6 1-1 0.5-3.3 1.1-0.8 0.4-0.3 0.5v0.7l0.6 0.8 3 3.8 2.4 4 1.8 4.1 1.3 4.4 8.3 33.9 7.5 33.4 6.8 32.8 6.1 32.2 5.2 31.8 4.6 31.2 3.8 30.8 3.1 30.1 0.9 7.6 1.3 8.5 1.7 9.1 2.1 9.2 2.4 9.3 2.7 9.1 2.9 8.9 3.2 8.5 3.1 7.8 3.3 7.4 3.4 6.8 3.6 6.5 3.7 5.8 3.7 5.2 3.8 4.6 3.8 4.1 1.3 1 1.4 0.6 1.5 0.2 1.4-0.1 1.5-0.4 1.3-0.6 1-1.1 0.8-1.2 0.6-1.4 5.2-22.5 4.7-22.6 4.4-22.9 3.9-22.9 3.3-23.1 2.9-23.1 2.5-23.4 2-23.6 1.4-16.5 2.1-17.9 2.7-19.3 3.8-26.2 4.7-31.4 1.6-14.2 1.2-18.7 0.9-23.2 0.6-27.6 1-21.6 1.8-21.6 1.6-12.4 1.8-12.5 2.2-12.4 2.7-12.3"/>
		<path id="Layer" fill-rule="evenodd" class="s4" d="m1409.6 776.9l4.2 10.5 3.8 10.8 3.4 11.2 3 11.4 2.5 11.8 2 12.3 1.7 12.5 1.2 12.7 5.3 62.6 2.1 19.8 1.5 12 8.7 45.1 4 18.9 4 17.4 4.1 16.7 4.3 15.7 4.5 15.1 4.6 14.5 5 14.1 5.3 13.5 5.4 12.9 5.7 12.5 6.1 11.9 6.3 11.6 6.6 11.1 6.8 10.5 2.5 3.3 2.6 3 2.8 2.6 3.2 2.4 3.4 2.3 3.8 2 4.1 1.6 4.2 1.3 0.5 0.1 2.6 0.3 2.6-0.1 2.7-0.8 2.3-1.3 2-1.7 1.7-2 1.2-2.4 0.8-2.6 4.7-29.6 4.1-30.1 3.2-30.6 2.5-31 1.7-31.6 0.9-32.1 0.2-32.6-0.6-33-1.3-50.4-1.1-48-0.5-45.6-0.3-43 0.2-5.9 0.5-5.4 0.9-5.1 1.3-4.6 1.7-4.3 2.1-3.6 2.5-3.3 2.8-2.9 3.9-3 4.6-2.3"/>
		<path id="Layer" fill-rule="evenodd" class="s9" d="m718.7 1226.3l-9.2-3.6-9.5-4.9-9.7-5.9-9.9-7-10.2-8.1-10.4-9.2-10.5-10.3-11-11.3-10.9-11-15-13.7-19-16.6-23.2-19.2-27.2-21.9-31.2-24.7-35.3-27.5-39.4-30.2-8-6.3-9.1-7.7-24.1-21.3-19.7-17.4-14.4-12.4-2.7-2-2.7-1.7-4.5-2-4.9-1.4-5.1-0.8-5.5-0.1-5.8 0.4-6.2 1.2-6.4 1.5-6.8 2.4"/>
		<path id="Layer" fill-rule="evenodd" class="s10" d="m2101.2 945.8l-2.8 2.1-2.5 2.4-2.2 2.5-2 2.6-2.6 4.4-2 4.7-1.3 5.1-0.9 5.4-0.3 5.9 0.3 6.2 0.7 6.7 1.5 7"/>
		<path id="Layer" fill-rule="evenodd" class="s11" d="m1380.5 2141.4l-6.8 14.3-7.2 13.8-8.1 13.4-8.5 12.9-9.2 12.5-9.7 11.8-10.3 11.5-10.8 10.9-13.1 11.7-13.5 11-14.4 10.3-14.8 9.3-15.5 8.7-16.1 7.9-16.4 6.9-17 6.1-17.3 5.3-17.6 4.3-18.2 3.4-18.4 2.5-18.6 1.7-19 0.8-18.9-0.3-19.2-1"/>
		<path id="Layer" fill-rule="evenodd" class="s12" d="m1041.9 2331.1l-160-45.1"/>
		<path id="Layer" fill-rule="evenodd" class="s13" d="m2560.9 2345.9l-9.9 6-9.3 6-9 6.2-8.5 6-8 6.3-7.7 6.2-7.1 6.5-6.7 6.3-6.3 6.4-5.8 6.6-5.3 6.6-4.9 6.7-4.5 6.7-4.1 6.7-3.5 6.8-3.2 7-3.1 8-2.6 8-2.1 8.2-1.8 7.8-1.1 8.2-0.8 8-0.3 8 0.3 7.9 0.5 6.2 0.8 5.9 1.2 6.2 1.3 5.9 1.7 6.1 1.8 5.9 2.3 5.9 2.5 5.8 2.7 5.8 3 5.6 6.9 11.4 7.9 11.1 8.9 10.8 10 10.5 11 10.1 11.7 9.5 12.7 8.9 13.2 8.4 14 7.6 14.3 6.9 14.6 6 14.6 5.3 14.8 4.7 15.2 4.2 15.1 3.8 15.5 3.3 15.5 2.8 15.6 2.2 15.8 1.7 15.8 1.2 15.8 0.7 15.7 0.1 15.7-0.4 15.5-0.9 15.5-1.5 15.3-1.9 15.1-2.5 14.8-3.1 14.7-3.4 14.4-4 14.2-4.5 13.8-5 13.5-5.4 13.3-5.9 12.9-6.5 12.6-6.8 12.2-7.2 11.8-7.8 11.6-8.3 11.1-8.5 10.7-9.1 10.3-9.3 10-10 3.1-3.3"/>
		<path id="Layer" fill-rule="evenodd" class="s13" d="m560.7 2573.8l6.9 7.6 7 7.3 7.1 7.1 7.2 6.9 7.4 6.4 7.3 6.2 7.5 5.9 7.7 5.5 7.6 5.4 7.9 5 7.9 4.6 7.8 4.5 8.2 4.1 8.1 3.9 8.2 3.4 8.4 3.3 13.9 4.9 14.1 4.4 14.1 4.1 14.2 3.6 14 3 14.4 2.7 14.2 2.3 14.3 1.7 11.8 1 11.8 1 11.9 0.4 11.9 0.2 12-0.1 12-0.4 11.9-0.7 12.1-1 12-1.3 12.1-1.6 12.2-2 12.1-2.2 12.2-2.5 12.2-2.9 12.3-3.2 12.3-3.4 8.7-2.6 8.5-3 8.6-3.3 8.4-3.6 8.4-3.8 8.2-4 8.1-4.4 7.9-4.6 7.6-4.9 7.5-4.9 7.3-5.3 7.1-5.5 6.7-5.7 6.5-5.8 6.1-5.9 5.9-6.2 5.5-6.1 5.1-6.3 4.9-6.4 4.5-6.4 4-6.6 3.9-6.7 3.4-6.5 3-6.9 2.8-6.7 2.2-6.8 2-6.9 1.5-6.9 1.2-6.9 0.8-6.9 0.4-6.9v-6.8l-0.6-11-1.8-10.8-2.6-11.1-3.5-10.6-4.6-10.8-5.4-10.5-6.5-10.5-7.3-10.4-3.8-4.7-4.2-4.8-4.9-4.8-5.1-4.9-5.8-4.9-6.2-5-13.9-10.1-10.3-7.5-9.6-7.9-9.1-8.4-8.5-8.9"/>
		<path id="Layer" fill-rule="evenodd" class="s12" d="m2706.6 2305.1l-145.7 40.8"/>
		<path id="Layer" fill-rule="evenodd" class="s11" d="m2560.9 2345.9l-14.9 0.6-14.7 0.1-14.3-0.3-14-0.8-13.8-1-13.4-1.4-13-2-12.9-2.3-12.5-2.7-12.2-3.2-11.8-3.5-11.7-4-11.3-4.3-11-4.7-10.7-5.2-10.4-5.5-10.5-6.2-10.3-6.5-10-6.7-9.6-7.3-9.3-7.3-8.9-7.8-8.7-8-8.4-8.4-9.8-10.5-9.2-10.9-8.6-11.5-8.3-11.9-7.9-12.4-7.4-12.7-6.8-13.3-6.4-13.7"/>
		<path id="Layer" fill-rule="evenodd" class="s14" d="m299.6 962.8l8.4 13.1 8.8 13.3 9.5 13.4 9.8 13.4 10.4 13.7 10.8 13.7 11.6 13.9 11.9 14.1 12.4 14 12.9 14.4 28.4 30.2 32 32.9 44.5 44.3 20.1 19.9 3.3 3.9 2.6 4.4 2.2 5.1 1.7 6 1.2 6.5 0.7 7.3 0.1 7.9-0.4 8.6"/>
	</g>
	<path id="Layer" class="s15" d="m2218.2 2150.6l6.4 13.7 6.8 13.3 7.4 12.7 7.9 12.4 8.3 11.9 8.6 11.5 9.2 10.9 9.8 10.5 8.4 8.4 8.7 8 8.9 7.8 9.3 7.3 9.6 7.3 10 6.7 10.3 6.5 10.5 6.2 10.4 5.5 10.7 5.2 11 4.7 11.3 4.3 11.7 4 11.8 3.5 12.2 3.2 12.5 2.7 12.9 2.3 13 2 13.4 1.4 13.8 1 14 0.8 14.3 0.3 14.7-0.1 14.9-0.6-9.9 6-9.3 6-9 6.2-8.5 6-8 6.3-7.7 6.2-7.1 6.5-6.7 6.3-6.3 6.4-5.8 6.6-5.3 6.6-4.9 6.7-4.5 6.7-4.1 6.7-3.5 6.8-3.2 7-3.1 8-2.6 8-2.1 8.2-1.8 7.8-1.1 8.2-0.8 8-0.3 8 0.3 7.9 0.5 6.2 0.8 5.9 1.2 6.2 1.3 5.9 1.7 6.1 1.8 5.9 2.3 5.9 2.5 5.8 2.7 5.8 3 5.6 6.9 11.4 7.9 11.1 8.9 10.8 10 10.5 11 10.1 11.7 9.5 12.7 8.9 13.2 8.4 14 7.6 14.3 6.9 14.6 6 14.6 5.3 14.8 4.7 15.2 4.2 15.1 3.8 15.5 3.3 15.5 2.8 15.6 2.2 15.8 1.7 15.8 1.2 15.8 0.7 15.7 0.1 15.7-0.4 15.5-0.9 15.5-1.5 15.3-1.9 15.1-2.5 14.8-3.1 14.7-3.4 14.4-4 14.2-4.5 13.8-5 13.5-5.4 13.3-5.9 12.9-6.5 12.6-6.8 12.2-7.2 11.8-7.8 11.6-8.3 11.1-8.5 10.7-9.1 10.3-9.3 10-10 3.1-3.3 2.8 0.7 2.6 0.9 2.4 1.2 2.2 1.3 3.3 2.9 2.8 3.5 2.3 4.1 1.7 5 1.5 5.5 0.8 6.2 0.4 6.8-0.2 7.7-19.7 16-20.1 15.5-16 12-16.3 11.7-16.6 11.3-16.7 11-16.9 10.8-17.1 10.5-17.4 10.3-17.6 10-17.9 9.6-18 9.3-18.3 9.1-18.4 8.8-18.6 8.5-19 8.2-19 8-19.3 7.6-30.3 11.4-30.1 10.8-30.2 10.4-30.2 9.9-30.3 9.2-30.3 8.8-30.3 8.3-30.3 7.7-30.4 7.1-30.2 6.7-30.4 6.2-30.5 5.6-30.4 5-30.5 4.6-30.3 4.1-30.5 3.6-44.3 4.4-44.2 4.1-44 3.7-44.1 3.1-43.9 2.8-43.8 2.4-43.7 1.8-43.5 1.5-43.7 0.9-43.4 0.5h-43.2l-43.3-0.4-43.1-0.8-43.1-1.3-42.8-1.7-42.9-2.1-26.7-1.6-26.7-2-26.4-2.2-26.4-2.4-26.2-2.7-26.1-3.2-25.9-3.3-25.8-3.5-25.8-4-25.5-4-25.5-4.5-25.2-4.7-25.2-5-25-5.3-25-5.6-24.8-5.8-24.6-6.2-24.6-6.3-24.3-6.7-24.3-7-24.1-7.3-24.1-7.5-23.9-7.8-23.6-8.1-23.7-8.5-23.5-8.5-23.3-8.9-23.3-9.2-23.1-9.6-22.9-9.8-22.9-10.1-22.7-10.2-21.4-10.2-12.5-6-12.5-6.4-25.1-14-25.4-15.1-25.6-16.4-25.8-17.8-25.9-19-26.1-20.4-26.3-21.7-1.3-6.3-0.8-5.9-0.3-5.4 0.3-5.1 0.8-4.6 1.3-4.3 1.7-3.6 2.4-3.5 3.1-3.1 4-2.6 4.4-2.3 5.2-1.5 6.9 7.6 7 7.3 7.1 7.1 7.2 6.9 7.4 6.4 7.3 6.2 7.5 5.9 7.7 5.5 7.6 5.4 7.9 5 7.9 4.6 7.8 4.5 8.2 4.1 8.1 3.9 8.2 3.4 8.4 3.3 13.9 4.9 14.1 4.4 14.1 4.1 14.2 3.6 14 3 14.4 2.7 14.2 2.3 14.3 1.7 11.8 1 11.8 1 11.9 0.4 11.9 0.2 12-0.1 12-0.4 11.9-0.7 12.1-1 12-1.3 12.1-1.6 12.2-2 12.1-2.2 12.2-2.5 12.2-2.9 12.3-3.2 12.3-3.4 8.7-2.6 8.5-3 8.6-3.3 8.4-3.6 8.4-3.8 8.2-4 8.1-4.4 7.9-4.6 7.6-4.9 7.5-4.9 7.3-5.3 7.1-5.5 6.7-5.7 6.5-5.8 6.1-5.9 5.9-6.2 5.5-6.1 5.1-6.3 4.9-6.4 4.5-6.4 4-6.6 3.9-6.7 3.4-6.5 3-6.9 2.8-6.7 2.2-6.8 2-6.9 1.5-6.9 1.2-6.9 0.8-6.9 0.4-6.9v-6.8l-0.6-11-1.8-10.8-2.6-11.1-3.5-10.6-4.6-10.8-5.4-10.5-6.5-10.5-7.3-10.4-3.8-4.7-4.2-4.8-4.9-4.8-5.1-4.9-5.8-4.9-6.2-5-13.9-10.1-10.3-7.5-9.6-7.9-9.1-8.4-8.5-8.9 19.2 1 18.9 0.3 19-0.8 18.6-1.7 18.4-2.5 18.2-3.4 17.6-4.3 17.3-5.3 17-6.1 16.4-6.9 16.1-7.9 15.5-8.7 14.8-9.3 14.4-10.3 13.5-11 13.1-11.7 10.8-10.9 10.3-11.5 9.7-11.8 9.2-12.5 8.5-12.9 8.1-13.4 7.2-13.8 6.8-14.3 5.2-0.4 4.8-0.8 4.8-0.9 4.4-1.3 4.2-1.5 4.2-1.8 3.8-2.1 3.7-2.5 5.4-4.2 4.9-4.9 4.3-5.6 4-6.3 13.9-25.8 18.7-35.8 15.3-29.4 11.5-21.4 10.6-19.1 10-17.2 10.1-16.3 9.9-15.1 9.9-14.1 9.9-13.1 10.4-12.8 10.8-12 10.8-11 11.2-10.4 11.4-9.7 11.8-8.9 12.1-8.3 12.5-7.7 14.9-7.8 15.5-7.1 15.9-6.2 16.6-5.4 9.5-2.6 9.6-2.5 9.6-2 9.5-1.8 9.3-1.5 9.4-1.2 9.2-0.9 9.2-0.7 9.2-0.2h8.9l9.1 0.4 8.8 0.5 8.9 0.9 8.7 1.2 8.8 1.6 8.6 1.7 9.7 2.5 9.6 2.8 9.4 3.1 9.5 3.6 9.3 3.8 9.2 4.3 9.2 4.7 9.1 5 9.1 5.6 8.8 5.7 8.8 6.2 8.8 6.6 8.7 7 8.5 7.3 8.4 7.8 8.5 8.1 10.1 10.5 9.8 11.3 9.9 12.1 9.6 13.1 9.5 13.5 9.9 15.2 10.7 17.1 14.3 23.6 13.4 22.3 10.2 16.3 9.4 14.6 9.1 13.3 20.8 30.6 22.8 35.5 3.6 5 3.8 4.6 4.1 4.2 4.6 3.7 3.5 2.5 3.7 2.1 3.9 2 4.3 1.7 4.3 1.4 4.5 1.2 4.7 1z"/>
	<g id="Layer">
		<path id="Layer" class="s0" d="m718.7 1226.3l-9.2-3.6-9.5-4.9-9.7-5.9-9.9-7-10.2-8.1-10.4-9.2-10.5-10.3-11-11.3-10.9-11-15-13.7-19-16.6-23.2-19.2-27.2-21.9-31.2-24.7-35.3-27.5-39.4-30.2-8-6.3-9.1-7.7-24.1-21.3-19.7-17.4-14.4-12.4-2.7-2-2.7-1.7-4.5-2-4.9-1.4-5.1-0.8-5.5-0.1-5.8 0.4-6.2 1.2-6.4 1.5-6.8 2.4 3.2-6 3.9-5.2 4.2-4 2.3-1.9 2.5-1.4 3.3-1.6 3.7-1.2 3.8-0.9 3.9-0.4h4.2l4.5 0.4 4.8 0.6 4.8 1.2 14.1 4.2 13.5 4.9 13.3 5.6 12.7 6.5 7 3.8 25 14.7 23.9 14.9 23.2 14.8 22.3 15 21.4 15.1 20.8 15.4 20.1 15.5 19.3 15.8 18.7 16 18.1 16.5 17.5 16.5 16.8 16.9 16.3 17.2 15.7 17.5 15.1 17.8 14.6 18.3 3.3 4.9 2.2 4.3 1.1 4.1 0.1 1.8-0.1 1.7-0.6 2.1-0.7 1.9-1.1 1.7-1.4 1.6-1.6 1.3-1.9 1.3-4.6 2.1z"/>
		<path id="Layer" class="s0" d="m1380.5 2141.4l-6.8 14.3-7.2 13.8-8.1 13.4-8.5 12.9-9.2 12.5-9.7 11.8-10.3 11.5-10.8 10.9-13.1 11.7-13.5 11-14.4 10.3-14.8 9.3-15.5 8.7-16.1 7.9-16.4 6.9-17 6.1-17.3 5.3-17.6 4.3-18.2 3.4-18.4 2.5-18.6 1.7-19 0.8-18.9-0.3-19.2-1-160-45.1-15.1-12-14.1-10.1-7.1-5-6.7-5.2-6.5-5.7-6.2-5.8-2.4-2.5-12.9-14.2-11.8-14.6-11-14.8-10-15.3-9.1-15.5-8.1-15.7-7.1-16.2-6.2-16.6-5.4-16.9-4.3-17.4-3.3-17.6-2.4-18-1.4-18.3-0.6-18.7 0.6-18.9 1.4-19.3 2.2-17.6 2.9-17.2 3.8-16.7 4.6-16.3 5.4-15.8 6.2-15.4 7-14.8 7.7-14.5 7.8-12.8 8.5-12.3 9.1-12 9.9-11.5 10.5-11.3 11-10.8 11.8-10.5 12.5-10 12.3-9 12.4-8.4 13.1-7.9 13.2-7.2 13.8-6.7 14.1-6.1 14.3-5.5 14.6-4.8 14.9-4.4 15-3.5 15.3-3 15.4-2.4 15.4-1.6 15.5-1 15.5-0.3 15.5 0.3 15.4 1 15.4 1.7 15.1 2.3 15 3 14.9 3.5 14.6 4.4 14.3 4.8 14.2 5.5 13.5 6.1 13.4 6.7 13 7.2 12.7 7.9 12.1 8.4 11.8 9 11.2 9.4 10.9 10 6.5 6.6 6.5 6.8 6.2 7 6 7.2 5.8 7.4 5.6 7.6 5.4 7.8 5.2 7.9 7.8 13.1 7.4 13.3 6.6 13.4 6 13.7 5.4 13.6 4.9 13.8 4.1 14.1 3.5 14.1 2.5 11.9 2 12 1.6 12.1 1.1 12.2 0.7 12.4 0.3 12.3-0.2 12.5-0.6 12.6-1.1 12.8-1.4 12.7-2 12.9-2.4 13-2.7 13.2-3.3 13.1-3.7 13.3z"/>
		<path id="Layer" class="s0" d="m2706.6 2305.1l-145.7 40.8-14.9 0.6-14.7 0.1-14.3-0.3-14-0.8-13.8-1-13.4-1.4-13-2-12.9-2.3-12.5-2.7-12.2-3.2-11.8-3.5-11.7-4-11.3-4.3-11-4.7-10.7-5.2-10.4-5.5-10.5-6.2-10.3-6.5-10-6.7-9.6-7.3-9.3-7.3-8.9-7.8-8.7-8-8.4-8.4-9.8-10.5-9.2-10.9-8.6-11.5-8.3-11.9-7.9-12.4-7.4-12.7-6.8-13.3-6.4-13.7-4.1-13.7-3.7-13.8-3-13.9-2.7-14.1-1.9-14-1.6-14.1-1.1-14.2-0.5-14.1v-14.2l0.5-14 1.1-14.1 1.6-13.9 1.9-13.8 2.7-13.7 3-13.5 3.7-13.4 4.1-13.2 4.4-12.9 5.2-12.6 5.5-12.4 5.9-12.2 6.4-11.8 7-11.4 7.2-11.2 7.8-10.7 8.1-10.5 8.6-10 8.9-9.6 9.3-9.2 9.6-8.6 10-8.3 10.4-8 7.6-5.3 7.9-5.3 7.9-4.8 8.2-4.6 8.3-4.5 8.5-4.2 8.5-3.9 8.8-3.7 8.9-3.4 9-3.2 9.1-2.9 9.2-2.6 9.5-2.4 9.6-2.1 9.6-2 9.7-1.5 13.3-1.9 13-1.4 13-0.9 12.7-0.7 12.5-0.3 12.5 0.2 12.4 0.6 12.1 0.9 11.9 1.4 11.7 1.8 11.7 2.1 11.5 2.5 11.3 3 11.1 3.3 11.1 3.8 10.8 4.1 10.9 4.6 10.5 5 10.5 5.5 10.3 5.8 10.2 6.2 10 6.7 9.7 6.9 9.8 7.5 9.4 7.8 9.4 8.3 9 8.7 9.1 9 8.8 9.5 8.7 9.8 8.5 10.4 8.3 10.7 5.4 7.3 5 7.7 4.6 7.6 4.3 7.7 3.8 7.9 3.6 7.9 3.3 8.2 2.7 8.1 2.3 7.6 4.3 16.9 3.7 16.5 3 16.3 2.5 16.1 1.9 15.7 1.1 15.7 0.6 15.2v15l-0.7 14.7-1.3 14.5-2 14.3-2.5 14-3.1 13.6-3.8 13.6-4.5 13.1-5 12.9-5 11.4-5.7 11.2-6 10.9-6.6 10.8-6.9 10.5-7.7 10.4-8 10.1-8.5 9.9-9.1 9.7-9.6 9.5-10.1 9.3-10.5 9.1-11.1 8.8-11.5 8.7-12.1 8.4z"/>
	</g>
	<g id="Layer">
		<path id="Layer" class="s16" d="m3352.3 951.5l0.3 11.2-0.4 11.4-1 12-1.6 12.3-2.1 12.9-2.9 13.1-3.4 13.7-4 14.1-1.4 4.3-1.7 4-1.9 3.6-1.9 3.3-2.3 2.9-2.5 2.6-2.6 2.3-2.9 1.8-3.9 2-4.2 1.3-3.5 0.4-3.4-0.5-3.3-1.3-2.7-2.1-5.7-5.3-6-4.9-8.2-5.5-8.5-4.9-3.4-1.8-3.3-2.1-3.2-2.4-2.9-2.6-2.7-2.8-2.7-3-2.5-3.3-2.3-3.5-4.1-7.8-4.1-9.7-3.7-10.1-3-10.8-2.5-11.3-2-12-1.4-12.3-0.8-13-0.4-13.6-0.6-10.8 0.1-4.7 0.3-4.3 0.5-4 0.8-3.5 1-3 1.3-2.7 4.5-7.6 10-17.6 6.7-12.9 5.5-12 4.1-10.9 1.6-5.5 1.4-5.4 1.1-5.2 0.6-5.3 0.6-5.1 0.1-5.1-0.1-5-0.4-5-1.6-8.8-1.2-3.9-1.4-3.2-2-2.5-2.4-1.7-2.7-1.2-3.2-0.6-3.5 0.3-4 0.9-13.5 4.5-13.3 4.9-12.9 5.4-12.6 5.7-12.2 6.3-11.9 6.9-11.5 7.2-11.3 7.8-10.3 7.6-10 8.1-3.4 2.4-3.8 1.6-4.1 0.8h-4.2l-3.2-0.2-3.1 0.4-4.1 1.5h-2.2l-2.1 0.6h-0.1l-0.3-0.4-1.1-1.7-1.4-1.5-1.7-1.5-2.1-1.3-2.3-1.1-2.7-0.9-6.2-1.3-15.5-2-15.4-1.7-15.5-1.2-15.4-0.6-15.2-0.3-15.4 0.2-15.3 0.5-15.2 1-22.6 2.3-22.5 3.3-11.8 2.2-11.6 2.8-11.2 3-11 3.7-10.8 3.9-10.5 4.5-10.3 4.8-9.9 5.3-1.4 0.5-1.4 0.4h-1.5l-1.4-0.1-1.3-0.5-1.3-0.7-1.1-0.9-0.9-1.2-10.9-16.6-11.6-15.9-7.6-9.7-7.9-9.5-8.1-9.2-8.6-9-8.7-8.8-9-8.7-9.4-8.4-9.6-8.2-3.2-3-2.3-3-1.3-3.1-0.4-2.8 0.7-2.8 1.5-2.9 2.7-2.8 3.7-2.6 16.8-10.6 16.9-10.4 17.1-10 17.1-9.6 17.4-9.3 17.3-9 17.4-8.5 17.6-8.3 17.6-7.9 17.7-7.5 17.9-7.2 17.9-6.9 18.1-6.5 18.2-6.2 18.3-5.8 18.2-5.5 16.3-4.6 16.5-4.3 16.5-4 16.6-3.8 11.3-2.2 11.3-2 11.3-1.5 11.2-1 11.3-0.7 11.2-0.2h11.1l11.1 0.5 9.2 0.8 9.2 0.9 9.2 1.2 9 1.6 8.3 1.8 8 2.4 7.5 2.9 7.4 3.3 7.2 4 6.9 4.4 6.8 5.1 6.6 5.5 6.4 6.2 6.1 6.7 6 7.1 5.9 7.9 5.5 8.3 5.6 8.8 5.1 9.3 5.1 10 4.8 10.4 4.6 10.9 4.4 11.6 4.2 12.1 4.1 12.6 3.8 13 3.6 13.7 3.4 14 3.1 14.6 2.9 15 2.8 15.6 2.5 16.1 2.4 16.3 1.9 16.9 1.9 17.3 1.5 17.7z"/>
		<path id="Layer" class="s16" d="m1665.5 725l4 17.2 3.3 17.2 2.6 17.2 2 17.4 1.3 17.2 0.8 17.4v17.3l-0.6 17.5-1.3 33.9-0.5 28.3 0.3 22.7 0.3 9.2 0.7 7.9 1.3 13 3.6 32.4 3.3 26.7 3.5 24.9 4.1 23.3 4.3 21.8 4.9 20.3 5.1 18.5 5.5 16.8 6.1 15.3 3.1 7.1 3.2 6.5 3.3 6.2 3.4 5.7 3.5 5.4 3.7 4.8 3.7 4.5 3.8 4.1 4 3.5 4 3.2 4 2.7 4.3 2.3 4.2 1.8 4.4 1.5 3.8 0.6 3.8-0.1 3.8-0.9 3.7-1.9 4.4-3 4.3-3 3.9-3.3 3.7-3.6 3.4-3.5 3.1-3.8 2.9-4 2.5-4 2.8-4.9 2.4-5.1 1.9-5.3 1.7-5.5 5.8-23.5 5.4-25.4 5-27.2 4.6-29.3 4.2-31.2 4-33 3.4-35 3-36.9 1.2-20.5 0.4-22.3-0.1-24.8-0.8-33.6-0.7-33.4-0.1-24.3 0.4-22 1.2-20.1 0.3-2.6 1-2.5 1.3-2.4 1.8-2 2.1-1.5 2.4-1.3 2.5-0.8 2.6-0.3 62.1-1.2 16.4 5.4 2.2 13.7 1.6 13.9 1.1 14 0.4 14.1-0.3 14.4-0.9 14.4-1.6 14.8-2.1 14.7-2.9 19.6-2.4 20-1.8 20.3-1.2 20.9-0.6 21.5-0.3 21.6 0.4 22.4 0.9 22.9 1.4 23.2 2.2 24 2.4 24.5 3.2 25.1 3.6 25.9 4.3 26.9 4.7 27.7 5.5 29 0.4 1.5 1.1 2.4 1.6 2.1 1.9 1.7 2.3 1.3 2.5 0.6 2.6 0.3 2.5-0.3 2.5-0.9 7.2-3.9 6.7-4.6 4.2-3.6 4.1-3.9 3.7-4.2 3.5-4.6 3.2-4.9 3-5.1 2.8-5.5 2.5-5.9 8.1-21.3 7.8-22 7.3-22.3 7-23 6.7-23.6 6.3-24 5.9-24.6 5.7-25.1 17.3 7.1 17 7.9 11.3 5.6 11.2 6.1 10.9 6.3 10.8 6.5 10.8 7 10.5 7.4 10.2 7.6 10.3 7.9 5 4.3 4.6 4.4 4 4.3 3.6 4.3 3 4.5 2.5 4.5 2.1 4.4 1.6 4.6 1.8 7.4 1.5 7.8 1.2 8.4 0.8 9 0.5 9.5 0.2 10.4-0.3 27.6-0.4 21.4 0.2 15.3 0.8 7.7 0.8 3.6 1 3.3 1.4 3.1 1.4 2.9 1.7 2.6 2 2.5 2.2 2.4 2.5 2 2.7 1.8 2.8 1.7 3.2 1.5 3.4 1.2 7.5 1.8 5.1 0.4 3.5-0.1 3.5-0.7 5.4-1.7 4.7-2.2 4.2-2.8 3.4-3.4 2.8-4 2.2-4.4 1.5-5 0.9-5.5 1.2-16 0.1-15.5-0.9-15.1-1.8-14.6-0.4-4.7 0.1-4.3 0.8-4.1 1.6-3.7 1.8-2.9 2.2-2.6 3.9-3.2 4.2-2.1 3.9-1.2 4.2-0.4 4.6 0.4 4.7 1.1 25.4 7.7 24.9 8.1 24 8.2 23.5 8.6 8.3 2.9 8.7 2.9 19.2 5.2 21.6 4.9 29.8 5.9 32.7 6.6 12.5 2.7 11.1 2.8 3.4 1.1 3.3 1.3 3.1 1.7 3 2 2.9 2.1 2.7 2.3 2.3 2.6 2.1 2.9 17.1 25.5 16.6 25.4 15.6 25.5 15.1 25.5 0.8 1.2 3.1 4.5 3.5 4.2 4.1 3.8 4.6 3.5 5.5 4.1 5.9 5 15.1 13.9 11.2 10.3 7.6 6.3 10.4 7.4 10.5 6.9 10.7 6.5 10.8 6.2 10.9 5.7 11.1 5.3 11.2 5 11.5 4.5 13.4 4.8 13.6 4.2 14 3.7 14 3.2 14.2 2.6 14.5 2.1 14.7 1.4 14.9 1.1 7.5 0.1 7.5-0.2 7.3-0.8 7.4-1.2 9.6-2.2 11-2.7 10.9-1.7 10.7-0.6 10.6 0.4 3.3-0.2 2.8-1 1.3-0.8 1-1.2 1.7-2.9 2.1-4.3 2.3-4.1 2.5-3.8 2.6-3.6 2.8-3.2 3-3.1 3.1-2.6 3.5-2.4 3.3-2.1 3.5-1.7 3.7-1.6 3.8-1.1 4.1-1.1 4-0.8 8.9-0.8 9.4 0.3 10.1 1.2 10.8 2.2 11.5 3.2 0.9 0.5 0.8 0.8 0.4 1 0.1 1.1v1.8l0.3 1.6 0.5 1.2 0.8 0.9 0.9 0.7 1 0.2 2.9-0.1 2.1-0.3h2l1.8 0.4 1.6 0.7 1.5 0.9 1.2 1.3 1.1 1.6 1 2 1.7 3.3 2.2 2.8 2.5 2 2.9 1.5 3.3 1.1 3.7 0.7 10.2 16.8 10 17.1 9.6 17.2 9.3 17.5 9.2 17.9 8.7 18 8.5 18.4 8.2 18.4 8 18.8 7.6 19.1 7.3 19.2 6.9 19.3 6.9 19.7 6.3 19.9 6.2 20.1 5.6 20.2 5.5 20.7 5.3 20.6 4.9 20.9 4.4 21 4.2 21.3 4 21.4 3.7 21.7 3.2 21.7 2.9 22 2.7 21.9 2.3 22.2 2 22.3 1.7 22.4 1.3 22.5 1.1 22.8 0.6 22.6-0.1 2.2-0.7 2.2-0.9 2.1-1.4 1.8-1.7 1.5-2 1.2-2.2 0.8-2.3 0.3-45.2 2.3-44.2 3.2-43.1 4.1-42 5.1-6.7 1-6.7 1.4-6.8 1.7-6.5 1.8-6.6 2.2-6.4 2.5-6.5 2.8-6.3 3-6.3 3.3-6.2 3.7-2.5 1.8-3 3.2-2.2 3.7-1.5 4-0.5 4.4 0.4 4.3 1.4 4.1 2.3 3.8 2.9 3.2 4.8 3.6 5.4 2.9 4.9 1.7 5.2 1.2 5.6 0.4 5.7-0.1 52.5-4.6 51.8-5 51-5.3 50.3-5.6 3.1 0.1 1.1 0.3 1.1 0.6 0.9 1 0.7 1 0.9 2.9 1 9.7 0.2 9.5-0.7 9.3-1.7 9.1-2.4 8.5-8.6 27.8-7.9 28-7 28.5-6.2 28.9-0.5 1.9-0.6 1.4-0.8 1.2-1.2 0.8-1.2 0.5-1.4 0.1-1.8-0.1-1.8-0.5-17.5-6.1-17.7-5.8-17.8-5.2-17.9-5.1-18.1-4.6-18.3-4.4-18.2-4.1-18.6-3.6-18.6-3.3-18.8-3-19-2.7-18.9-2.2-19.3-2-19.3-1.6-19.5-1.3-19.6-0.9h-3.4l-3.3 0.3-4.3 0.8-4.2 1.1-4.1 1.7-4.1 2.2-4.1 2.6-3.9 3-3.9 3.6-3.9 3.9-1.4 1.8-0.9 2-0.7 3.2-0.1 4 0.5 3.7 1.2 3.2 1.6 2.6 2.2 2.4 2.9 1.8 3.4 1.3 4 0.9 54.6 8.2 49.5 7.2 36.5 6.1 32.5 6.2 14.8 3.1 14.2 3.3 14 3.5 13.2 3.9 12.5 3.8 12.1 3.9 11.5 4.3 10.9 4.4 10.2 4.6 9.8 4.7 2.6 2 0.9 1 0.5 1.2 0.4 1.3-0.1 1.5-0.9 3.1-9.4 19-9.8 18.6-10.4 18.2-10.8 17.6-11.4 17.3-12 16.9-12.3 16.3-12.9 16-12 13.8-12.3 13.6-12.9 13.2-13.2 12.8-13.5 12.5-14.1 12.2-14.3 11.8-14.9 11.5 0.2-7.7-0.4-6.8-0.8-6.2-1.5-5.5-1.7-5-2.3-4.1-2.8-3.5-3.3-2.9-2.2-1.3-2.4-1.2-2.6-0.9-2.8-0.7 2.9-10.2 3.3-10.7 3.8-10.8 4.2-11 3.2-8.8 2.4-8.8 1.7-9 0.9-8.9 0.2-9.9-0.5-10-1.4-9.9-2.4-10-3.1-9.9-4-9.9-4.9-9.5-5.5-9.6-6.4-9.4-7.2-9.2-7.9-8.8-8.6-8.3-9.2-8-9.6-7.5-10.1-6.8-10.5-6.3-28.1-15.3-12.8-6.4-11.7-5.8-10.8-4.9-9.8-4.2-9-3.3-8-2.6-17.6-4.7-18.9-4-20-3.4-21.2-2.7-22.5-2.1-23.6-1.5-24.7-0.9-26.1-0.1 12.7-8.3 12.1-8.4 11.5-8.7 11.1-8.8 10.5-9.1 10.1-9.3 9.6-9.5 9.1-9.7 8.5-9.9 8-10.1 7.7-10.4 6.9-10.5 6.6-10.8 6-10.9 5.7-11.2 5-11.4 5-12.9 4.5-13.1 3.8-13.6 3.1-13.6 2.5-14 2-14.3 1.3-14.5 0.7-14.7v-15l-0.6-15.2-1.1-15.7-1.9-15.7-2.5-16.1-3-16.3-3.7-16.5-4.3-16.9-2.3-7.6-2.7-8.1-3.3-8.2-3.6-7.9-3.8-7.9-4.3-7.7-4.6-7.6-5-7.7-5.4-7.3-8.3-10.7-8.5-10.4-8.7-9.8-8.8-9.5-9.1-9-9-8.7-9.4-8.3-9.4-7.8-9.8-7.5-9.7-6.9-10-6.7-10.2-6.2-10.3-5.8-10.5-5.5-10.5-5-10.9-4.6-10.8-4.1-11.1-3.8-11.1-3.3-11.3-3-11.5-2.5-11.7-2.1-11.7-1.8-11.9-1.4-12.1-0.9-12.4-0.6-12.5-0.2-12.5 0.3-12.7 0.7-13 0.9-13 1.4-13.3 1.9-9.7 1.5-9.6 2-9.6 2.1-9.5 2.4-9.2 2.6-9.1 2.9-9 3.2-8.9 3.4-8.8 3.7-8.5 3.9-8.5 4.2-8.3 4.5-8.2 4.6-7.9 4.8-7.9 5.3-7.6 5.3-10.4 8-10 8.3-9.6 8.6-9.3 9.2-8.9 9.6-8.6 10-8.1 10.5-7.8 10.7-7.2 11.2-7 11.4-6.4 11.8-5.9 12.2-5.5 12.4-5.2 12.6-4.4 12.9-4.1 13.2-3.7 13.4-3 13.5-2.7 13.7-1.9 13.8-1.6 13.9-1.1 14.1-0.5 14v14.2l0.5 14.1 1.1 14.2 1.6 14.1 1.9 14 2.7 14.1 3 13.9 3.7 13.8 4.1 13.7-4.9-0.7-4.7-1-4.5-1.2-4.3-1.4-4.3-1.7-3.9-2-3.7-2.1-3.5-2.5-4.6-3.7-4.1-4.2-3.8-4.6-3.6-5-22.8-35.5-20.8-30.6-9.1-13.3-9.4-14.6-10.2-16.3-13.4-22.3-14.3-23.6-10.7-17.1-9.9-15.2-9.5-13.5-9.6-13.1-9.9-12.1-9.8-11.3-10.1-10.5-8.5-8.1-8.4-7.8-8.5-7.3-8.7-7-8.8-6.6-8.8-6.2-8.8-5.7-9.1-5.6-9.1-5-9.2-4.7-9.2-4.3-9.3-3.8-9.5-3.6-9.4-3.1-9.6-2.8-9.7-2.5-8.6-1.7-8.8-1.6-8.7-1.2-8.9-0.9-8.8-0.5-9.1-0.4h-8.9l-9.2 0.2-9.2 0.7-9.2 0.9-9.4 1.2-9.3 1.5-9.5 1.8-9.6 2-9.6 2.5-9.5 2.6-16.6 5.4-15.9 6.2-15.5 7.1-14.9 7.8-12.5 7.7-12.1 8.3-11.8 8.9-11.4 9.7-11.2 10.4-10.8 11-10.8 12-10.4 12.8-9.9 13.1-9.9 14.1-9.9 15.1-10.1 16.3-10 17.2-10.6 19.1-11.5 21.4-15.3 29.4-18.7 35.8-13.9 25.8-4 6.3-4.3 5.6-4.9 4.9-5.4 4.2-3.7 2.5-3.8 2.1-4.2 1.8-4.2 1.5-4.4 1.3-4.8 0.9-4.8 0.8-5.2 0.4 4.1-13.4 3.7-13.3 3.3-13.1 2.7-13.2 2.4-13 2-12.9 1.4-12.7 1.1-12.8 0.6-12.6 0.2-12.5-0.3-12.3-0.7-12.4-1.1-12.2-1.6-12.1-2-12-2.5-11.9-3.5-14.1-4.1-14.1-4.9-13.8-5.4-13.6-6-13.7-6.6-13.4-7.4-13.3-7.8-13.1-5.2-7.9-5.4-7.8-5.6-7.6-5.8-7.4-6-7.2-6.2-7-6.5-6.8-6.5-6.6-10.9-10-11.2-9.4-11.8-9-12.1-8.4-12.7-7.9-13-7.2-13.4-6.7-13.5-6.1-14.2-5.5-14.3-4.8-14.6-4.4-14.9-3.5-15-3-15.1-2.3-15.4-1.7-15.4-1-15.5-0.3-15.5 0.3-15.5 1-15.4 1.6-15.4 2.4-15.3 3-15 3.5-14.9 4.4-14.6 4.8-14.3 5.5-14.1 6.1-13.8 6.7-13.2 7.2-13.1 7.9-12.4 8.4-12.3 9-12.5 10-11.8 10.5-11 10.8-10.5 11.3-9.9 11.5-9.1 12-8.5 12.3-7.8 12.8-7.7 14.5-7 14.8-6.2 15.4-5.4 15.8-4.6 16.3-3.8 16.7-2.9 17.2-2.2 17.6-1.4 19.3-0.6 18.9 0.6 18.7 1.4 18.3 2.4 18 3.3 17.6 4.3 17.4 5.4 16.9 6.2 16.6 7.1 16.2 8.1 15.7 9.1 15.5 10 15.3 11 14.8 11.8 14.6 12.9 14.2 2.4 2.5 6.2 5.8 6.5 5.7 6.7 5.2 7.1 5 14.1 10.1 15.1 12-37 4.7-36.3 5.3-35.5 5.6-34.7 6.1-14.9 3.3-6.9 1.9-6.7 2.2-6.5 2.3-6.2 2.6-5.8 2.8-5.6 2.9-14.2 7.5-19.7 9.5-16.6 7.8-11.9 6.2-10.6 5.9-9 6-8.6 6.3-7.6 6.7-6.8 7.1-6.2 7.5-6.1 8.5-5.6 8.9-5.1 9.2-4.8 9.2-4 9.4-3.6 9.2-2.9 9.2-2.2 8.9-1.7 8.7-1 8.4-0.3 8.4 0.2 7.9 0.8 7.9 1.6 7.4 2.1 7.2 2.7 6.8 6 13.6 4.7 11.5 3.3 9.6 2 7.7-5.2 1.5-4.4 2.3-4 2.6-3.1 3.1-2.4 3.5-1.7 3.6-1.3 4.3-0.8 4.6-0.3 5.1 0.3 5.4 0.8 5.9 1.3 6.3-15-10.8-14.6-11.3-14.1-11.7-13.5-11.9-13.1-12.5-12.7-12.8-12.1-13.3-11.5-13.6-13.2-16.5-12.3-17.1-11.7-17.6-11.1-18.1-20.7-35-21.2-34.6-1.6-3-0.9-2.7-0.4-2.7 0.4-2.5 1-2.1 1.8-1.9 2.3-1.9 3-1.6 15.7-6.4 15.9-6 16.2-5.6 16.7-5 16.8-4.6 17.2-4.2 17.5-3.6 17.9-3.3 80.9-13.3 81.5-12.6 2.4-0.6 2.1-0.9 2-1.3 1.8-1.6 1.5-1.8 1-2.1 0.8-2.2 0.4-2.4v-3l-0.3-2.8-0.6-2.6-0.9-2.5-1.3-2.3-1.6-2.1-5.5-5.6-5.8-4.6-6.1-3.6-6.4-2.6-4.1-1-4.2-0.7-4.2-0.4h-4.5l-26.4 1.6-26.2 2.2-26.1 2.9-26.2 3.6-24.2 3.8-24.2 4.4-23.9 5.2-24 5.6-23.8 6.2-23.8 6.7-23.7 7.4-23.6 7.8-1.9 0.6-1.6 0.1-1.4-0.1-1.2-0.6-1-0.9-0.8-1.2-0.6-1.5-0.2-2-1.2-11.2-1.7-11.2-2.2-11.4-2.5-11.4-3.1-11.5-3.5-11.7-4-11.7-4.3-11.8-2.1-5.9-1.8-5.8-1.7-6-1.2-6.1-1.6-10-0.8-10.2-0.1-10.3 0.8-10.5 0.4-2.5 0.6-2 1.1-1.7 1.3-1.3 1.6-0.9 1.8-0.5 2.1-0.3 2.4 0.1 51.8 6.3 51.5 5.6 51.1 4.7 50.9 4.1 4.9 0.1 4.6-0.5 4.3-1.1 4.1-1.6 2.9-1.4 2.7-1.8 2.5-2.3 2.5-2.3 2.6-3.6 1.9-3.9 0.9-4.2v-4.4l-0.8-4.3-1.7-4-2.5-3.5-3.1-2.9-1.7-1.2-8.1-4.6-8.1-4.2-8.4-3.7-8.4-3.3-9.4-3-9.6-2.3-9.7-2-9.9-1.5-43.3-4.7-42.5-3.9-41.7-3.1-40.6-2.3-2-0.3-1.9-0.7-1.7-1-1.6-1.3-1.2-1.6-0.9-1.8-0.7-2-0.1-2 0.5-28.6 1.3-28.8 2.1-28.9 2.9-29 3.8-28.8 4.5-28.6 5.4-28.5 6-28.3 6.7-27.9 7.7-27.4 8.3-27.1 8.9-26.6 9.7-26.1 10.3-25.4 11-25 11.7-24.3 16.4-32.1 16.7-31.3 17.3-30.5 17.6-29.8 17.9-29.2 18.2-28.2 18.8-27.6 19.1-27 13.3-17.6 13.4-16.6 13.5-15.4 13.5-14.3 13.7-13.1 13.8-12 14-10.9 13.9-9.9 7.4-0.2 6.8-0.8 6.2-1.2 5.8-1.7 5.1-2.2 4.4-2.7 4.1-3 3.4-3.5 2.3-3.1 1.8-3.1 1.6-3.6 1.3-3.8 0.9-3.9 0.7-4.4 0.4-4.4v-4.9l0.2-2.9 0.8-2.7 1.3-2.5 2-2.3 2.3-1.7 2.6-1.2 2.9-0.6h2.9l1.7 0.2 11.5 2.4 4.9 0.7 4.2 0.4 3.7-0.2 2.9-0.2 2.4-0.7 1.7-1.1 5.7-1.4 4.6-2.1 1.9-1.3 1.6-1.3 1.4-1.6 1.1-1.7 0.7-1.9 0.6-2.1 0.1-1.7-0.1-1.8-1.1-4.1-2.2-4.3-3.3-4.9-14.6-18.3-15.1-17.8-15.7-17.5-16.3-17.2-16.8-16.9-17.5-16.5-18.1-16.5-18.7-16-19.3-15.8-20.1-15.5-20.8-15.4-21.4-15.1-22.3-15-23.2-14.8-23.9-14.9-25-14.7-7-3.8-12.7-6.5-13.3-5.6-13.5-4.9-14.1-4.2-4.8-1.2-4.8-0.6-4.5-0.4h-4.2l-3.9 0.4-3.8 0.9-3.7 1.2-3.3 1.6-2.5 1.4-2.3 1.9-4.2 4-3.9 5.2-3.2 6-1.6-2.9-0.8-0.6-0.8-0.3-1.1 0.5-1.1 1.6-1.1 2.6-1 3.6-2.1 10.2-2 14.5-3.6-10.3-2.1-4.8-2.3-4.5-2.5-4.3-2.7-4.1-2.9-3.8-3-3.6-2.6-2.3-3-1.8-3.1-0.9-3.2-0.4-4.4 0.3-3.8 0.8-3.4 1.4-2.8 2-1.4 1.4-1.3 1.9-1.2 1.8-0.9 2.3-1.2 5-0.5 5.7-0.3 1.2-0.9 0.9-1.2 0.6-1.2-0.2-0.8-0.4h-0.1l-0.8-0.9-0.8-1-0.8-2.8-0.2-3.8 0.5-4.7 2.2-7.8 8.8-30.6 6.9-21.4 3.4-9.5 3.5-8.9 3.6-8.3 3.5-7.8 4-7.6 4-7.1 4.4-6.7 4.5-6.3 4.7-6.1 5-5.5 5.1-5.1 5.5-5 7.5-5.9 7.9-5.3 8.6-4.8 8.8-4.4 9.4-3.8 10-3.4 10.5-2.9 11.3-2.5 15.7-2.9 15.9-2.4 16-2.2 16.2-1.8 16.4-1.5 16.6-1.2 16.8-0.8 17-0.5 17.2-0.2 17.2 0.2 17.5 0.4 17.6 0.9 17.8 1.2 17.8 1.5 18 1.8 18.1 2.1 18.2 2.5 18.6 2.9 18.4 3 18.6 3.6 18.6 3.8 18.8 4.1 18.6 4.4 18.8 4.8 18.7 5.1 18.9 5.4 18.7 5.6 18.7 5.9 18.8 6.4 18.5 6.5 18.5 6.9 18.3 7.1 9.1 3.8 8.9 4.2 8.7 4.7 8.5 5 8.4 5.4 8.2 5.9 8 6.3 7.8 6.6 7.6 7.1 1.3 1.4 0.8 1.4 0.5 1.3 0.2 1.3-0.4 1.2-0.7 1.3-1.1 1.2-1.5 1.1-17.1 11.9-16.7 12.9-16.2 13.6-15.6 14.6-2.4 3-1.6 3.3-0.5 2.9 0.1 3.2 0.4 1.9 1 1.9 1.1 1.6 1.6 1.1 1.9 1 1.8 0.5 2.1 0.1 2-0.4 1.4-0.6 201.1-102.8 5.3 0.5 4.1 1.2 3.1 1.7 1.2 1.2 0.8 1.2 0.7 1.5 0.4 1.9v2l-0.4 2.1-0.6 1-1 0.5-3.3 1.1-0.8 0.4-0.3 0.5v0.7l0.6 0.8 3 3.8 2.4 4 1.8 4.1 1.3 4.4 8.3 33.9 7.5 33.4 6.8 32.8 6.1 32.2 5.2 31.8 4.6 31.2 3.8 30.8 3.1 30.1 0.9 7.6 1.3 8.5 1.7 9.1 2.1 9.2 2.4 9.3 2.7 9.1 2.9 8.9 3.2 8.5 3.1 7.8 3.3 7.4 3.4 6.8 3.6 6.5 3.7 5.8 3.7 5.2 3.8 4.6 3.8 4.1 1.3 1 1.4 0.6 1.5 0.2 1.4-0.1 1.5-0.4 1.3-0.6 1-1.1 0.8-1.2 0.6-1.4 5.2-22.5 4.7-22.6 4.4-22.9 3.9-22.9 3.3-23.1 2.9-23.1 2.5-23.4 2-23.6 1.4-16.5 2.1-17.9 2.7-19.3 3.8-26.2 4.7-31.4 1.6-14.2 1.2-18.7 0.9-23.2 0.6-27.6 1-21.6 1.8-21.6 1.6-12.4 1.8-12.5 2.2-12.4 2.7-12.3 58.1-15.7 4.2 10.5 3.8 10.8 3.4 11.2 3 11.4 2.5 11.8 2 12.3 1.7 12.5 1.2 12.7 5.3 62.6 2.1 19.8 1.5 12 8.7 45.1 4 18.9 4 17.4 4.1 16.7 4.3 15.7 4.5 15.1 4.6 14.5 5 14.1 5.3 13.5 5.4 12.9 5.7 12.5 6.1 11.9 6.3 11.6 6.6 11.1 6.8 10.5 2.5 3.3 2.6 3 2.8 2.6 3.2 2.4 3.4 2.3 3.8 2 4.1 1.6 4.2 1.3 0.5 0.1 2.6 0.3 2.6-0.1 2.7-0.8 2.3-1.3 2-1.7 1.7-2 1.2-2.4 0.8-2.6 4.7-29.6 4.1-30.1 3.2-30.6 2.5-31 1.7-31.6 0.9-32.1 0.2-32.6-0.6-33-1.3-50.4-1.1-48-0.5-45.6-0.3-43 0.2-5.9 0.5-5.4 0.9-5.1 1.3-4.6 1.7-4.3 2.1-3.6 2.5-3.3 2.8-2.9 3.9-3 4.6-2.3z"/>
	</g>
	<g id="Layer">
		<path id="Layer" class="s17" d="m2576.1 673.7l-0.8 10.1-0.2 15.7-0.4 17.3-0.8 12.8-1.3 11-2.1 9.4-1.4 4.3-1.4 3.9-1.7 3.6-2 3.4-2 2.9-2.3 2.6-2.5 2.4-2.7 2-4 2.2-4.5 1.7-4.9 1.1-5.4 0.5-77.4-71.9-3-2.3-3.3-1.4-3.7-0.8-3.6-0.1-4.4 0.6-3.7 1.2-3 1.9-2.5 2.2-1.4 2-1.1 2.3-1 3.6-0.6 3.5v3.3l0.4 3.3 1.1 3 1.4 2.9 2 2.8 2.5 2.6 8.7 8.6 8.3 8.9 9 10.6 8.7 11 8.2 11.4 7.6 11.8 1.2 2.3 0.9 2.3 0.6 2.5 0.4 2.5 0.2 2.5-0.3 2.5-0.5 2.5-0.8 2.5-1.1 2.2-1.4 2.3-1.6 1.9-1.7 1.8-2.1 1.5-2.1 1.4-2.4 1-2.3 0.8-3.3 0.5-3.3 0.1-4.7-0.5-5-0.8-5-1.3-5.2-1.6-5-1.8-4.8-2.2-4.5-2.4-4.2-2.6-8.1-5.2-8.3-4.4-8.6-4-8.8-3.3-6.4-1.9-6.6-1.7-6.7-1.3-6.8-1.1-7-0.8-7-0.4-7.2-0.1-7.2 0.2-1.5 0.3-1.3 0.4-1.2 0.8-1 0.9-0.9 1.2-0.6 1.3-0.4 1.3v1.5 0.1l0.8 5 1.2 4.7 1.7 4.5 2.3 4.1 1.9 3 2.4 2.8 2.6 2.6 2.9 2.4 3.2 2.3 3.4 2 3.8 2 4.1 1.7 23 9.3 22.2 9.7 21.7 10.3 20.9 10.8 2.7 1.9 1.1 1.2 0.8 1.3 0.5 1.4 0.3 1.5-0.2 3.3-9.9 57.6-0.4 1.6-0.7 1.4-0.9 1.2-1.1 1.2-1.3 0.9-1.4 0.8-1.5 0.4-1.6 0.2-22.8 0.7h-22.1l-21.3-0.9-20.6-1.7-19.9-2.4-19.2-3.3-18.4-3.9-17.6-4.9-2.5-1-2.4-1.7-1.9-1.6-2.1-1.2-2.2-0.8-2.2-0.4-8.7-1.2-8.5-1.4-8.3-1.7-8.1-2.3-8.1-2.5-7.7-2.7-7.6-3.2-7.5-3.5-8-4.2-7.9-4.6-7.7-5.2-7.3-5.3-7.3-6-6.9-6.1-6.9-6.7-6.5-7.1-6.3-7.8-5.6-8.3-3.4-6-2.9-6.1-2.6-6.4-2.1-6.5-1.8-6.8-1.5-7-1.2-7.3-0.6-7.4-0.4-7.6 0.1-7.8 0.4-8.1 0.8-8 1.2-8.4 1.4-8.6 2-8.7 2.2-8.9 2.7-9.2 3.1-9.6 3.4-9.5 3.8-9.7 4.3-9.7 4.6-9.8 4.8-9.9 5.3-10 5.5-10.2 5.9-9.9 6.2-10 6.4-9.8 6.6-9.6 6.7-9.3 7-9.1 6.8-8.5 18.1-21.7 18.1-20.9 17.8-20.1 17.7-19.3 17.6-18.7 17.3-17.7 17.2-17.1 17.1-16.3 7.5-6.6 7.6-5.8 7.7-5.1 7.7-4.4 7.8-3.5 8-2.9 8-2.1 8.2-1.4 5.8-0.6 5.9-0.1 5.9 0.3 5.9 0.5 6 1 6.1 1.4 6 1.7 6.2 2.1 3.8 1.5 3.8 2 3.9 2.4 3.8 2.6 3.8 3 3.9 3.4 7.6 8.1 7.8 9.3 7.9 10.9 7.7 12.2 7.9 13.8 5.9 11.1 5.6 11.2 5.4 11.3 5 11.3 4.7 11.4 4.6 11.6 4.2 11.5 3.9 11.7 4.1 13.2 3.8 13.3 3.4 13.4 3.1 13.5 2.7 13.7 2.4 13.6 2.1 14z"/>
		<path id="Layer" class="s17" d="m3225.6 934.1l-6.9 71.3-2.7-15.5-3.5-14.8-4.2-14.2-5.2-13.5-5.7-12.9-6.7-12.2-7.5-11.6-8.2-10.9-5.2-6.2-5.4-5.7-5.7-5.7-6-5.4-6.2-5.2-6.6-4.9-6.7-4.9-7.1-4.4-3.5-1.9-4-1.6-4.2-1.1-6.2-1.5-6.3-1.3-4.6-1.3 4.1-1.5 3.1-0.4 3.2 0.2h4.2l4.1-0.8 3.8-1.6 3.4-2.4 10-8.1 10.3-7.6 11.3-7.8 11.5-7.2 11.9-6.9 12.2-6.3 12.6-5.7 12.9-5.4 13.3-4.9 13.5-4.5 4-0.9 3.5-0.3 3.2 0.6 2.7 1.2 2.4 1.7 2 2.5 1.4 3.2 1.2 3.9 1.6 8.8 0.4 5 0.1 5-0.1 5.1-0.6 5.1-0.6 5.3-1.1 5.2-1.4 5.4-1.6 5.5-4.1 10.9-5.5 12-6.7 12.9-10 17.6-4.5 7.6-1.3 2.7-1 3-0.8 3.5-0.5 4-0.3 4.3-0.1 4.7z"/>
		<path id="Layer" class="s17" d="m2557.6 845.4c35.3-39.2 95.6-42.3 134.8-7.1l12.1 11c39.2 35.2 42.3 95.6 7.1 134.7l-22.9 25.4c-35.3 39.2-95.6 42.4-134.8 7.1l-12.1-10.9c-39.2-35.3-42.3-95.6-7-134.8z"/>
		<path id="Layer" class="s17" d="m2865.7 1067.6l-8-1.8-8.2-2.5-8.1-3.5-8.4-4.3-8.4-5.4-8.5-6.3-8.6-7.3-8.7-8.1-3-3.3-2.8-3.4-2.2-3.7-2-3.7-1.3-3.4-1.1-3.6-0.9-3.8-0.4-3.6-0.2-4.1v-4.1l0.3-4.2 0.6-4.5 2.1-9.2 3.1-9.7 4.5-10.8 5.9-12.6 1.3-2.5 1.7-2.2 1.9-2.1 2-2 2.2-1.7 2.4-1.6 2.6-1.2 2.6-1 21.4-6.6 22.5-5.7 22.9-4.8 22.9-3.8 22.3-2.8 22.1-1.6 10.8-0.5 10.4-0.1 10.5 0.1 10.1 0.4 9.7 0.7 9.5 0.9 9.5 1.2 8.9 1.4 8.8 1.7 8.5 2 8.3 2.1 8.2 2.5 7.7 2.7 7.7 2.9 7.2 3.3 7.1 3.4 6.6 3.9 6.4 3.9 6.2 4.2 5.9 4.5 4.1 3.5 5 5.3 4.3 5.8 3.8 6.3 3.3 6.9 2.6 7.4 2.1 7.9 1.5 8.5 1 9.1 0.4 9.6-0.2 10.1-0.8 10.5-1.5 10.8-2.1 11.2-2.5 11.3-3.1 11.3-3.6 10.9-9.7 27.2-9.6 25.5-9.5 24-9.3 22.3-9.2 20.8-9.2 19.2-8.9 17.4-8.9 16-4 6.3-4.9 6.1-5.6 6.4-6.5 6.1-7.2 6.1-8 6-9 6.1-9.6 6-8.1 4.6-8.2 4-8.2 3.4-8.3 2.9-8.3 2.2-8.2 1.7-8.4 1.2-8.4 0.7-5.8 0.1-5.8-0.1-11.5-1.2-11.6-2.1-11.6-3.3-11.7-4.2-11.5-5.4-11.6-6.3-11.4-7.4-12.7-9.1-12-9.4-11.6-9.9-11.2-10.2-10.5-10.5-10.1-11.1-9.5-11.3-9.1-11.7-9.3-13.4-8.8-13.7-8-14.2-7.5-14.7-6.8-15.1-6.4-15.7-5.6-16-5-16.4-0.5-3.2 0.1-3 0.9-3.2 1.9-3 21.5-28.1 1.6-1.7 1.8-1.3 2-1.1 2.2-0.6 2.3-0.2 2.3 0.2 2.1 0.6 2.2 0.9 8.5 5 18.7 10.8 14.3 7.8 13.1 6.4 11.9 5.1 11.3 4 10.5 2.7 4.9 1 4.8 0.5 4.5 0.2h4.5l3.2-0.2 3.1-0.8 2.7-1.1 2.7-1.4 2.6-2.1 2.3-2.8 1.9-3 1.3-3.1 0.8-2.7 0.4-2.6 0.1-2.9-0.2-2.9-0.6-2-0.9-1.5-1.6-1.1z"/>
		<path id="Layer" class="s17" d="m311.2 933.6l6.8-2.4 6.4-1.5 6.2-1.2 5.8-0.4 5.5 0.1 5.1 0.8 4.9 1.4 4.5 2 2.7 1.7 2.7 2 14.4 12.4 19.7 17.4 24.1 21.3 9.1 7.7 8 6.3 39.4 30.2 35.3 27.5 31.2 24.7 27.2 21.9 23.2 19.2 19 16.6 15 13.7 10.9 11 11 11.3 10.5 10.3 10.4 9.2 10.2 8.1 9.9 7 9.7 5.9 9.5 4.9 9.2 3.6-1.7 1.1-2.4 0.7-2.9 0.2-3.7 0.2-4.2-0.4-4.9-0.7-11.5-2.4-1.7-0.2h-2.9l-2.9 0.6-2.6 1.2-2.3 1.7-2 2.3-1.3 2.5-0.8 2.7-0.2 2.9v4.9l-0.4 4.4-0.7 4.4-0.9 3.9-1.3 3.8-1.6 3.6-1.8 3.1-2.3 3.1-3.4 3.5-4.1 3-4.4 2.7-5.1 2.2-5.8 1.7-6.2 1.2-6.8 0.8-7.4 0.2 15.6-9.8 6.5-4.5 5.5-4.1 4.6-3.8 3.7-3.5 2.6-3.3 1.8-2.9 2-4.6 1.6-4.2 1-4 0.6-3.5 0.1-3.3-0.3-2.9-0.7-2.5-1.4-2.2-1.4-1.7-1.8-1.5-2.2-1-2.4-0.9-2.9-0.7-3.2-0.4h-7.5l-2.1 0.3-2 0.4-1.8 0.8-1.8 0.9-90.1 54.5 0.4-8.6-0.1-7.9-0.7-7.3-1.2-6.5-1.7-6-2.2-5.1-2.6-4.4-3.3-3.9-20.1-19.9-44.5-44.3-32-32.9-28.4-30.2-12.9-14.4-12.4-14-11.9-14.1-11.6-13.9-10.8-13.7-10.4-13.7-9.8-13.4-9.5-13.4-8.8-13.3-8.4-13.1 2-14.5 2.1-10.2 1-3.6 1.1-2.6 1.1-1.6 1.1-0.5 0.8 0.3 0.8 0.6z"/>
	</g>
	<g id="Layer">
		<path id="Layer" class="s18" d="m881.9 2286l160 45.1 8.5 8.9 9.1 8.4 9.6 7.9 10.3 7.5 13.9 10.1 6.2 5 5.8 4.9 5.1 4.9 4.9 4.8 4.2 4.8 3.8 4.7 7.3 10.4 6.5 10.5 5.4 10.5 4.6 10.8 3.5 10.6 2.6 11.1 1.8 10.8 0.6 11v6.8l-0.4 6.9-0.8 6.9-1.2 6.9-1.5 6.9-2 6.9-2.2 6.8-2.8 6.7-3 6.9-3.4 6.5-3.9 6.7-4 6.6-4.5 6.4-4.9 6.4-5.1 6.3-5.5 6.1-5.9 6.2-6.1 5.9-6.5 5.8-6.7 5.7-7.1 5.5-7.3 5.3-7.5 4.9-7.6 4.9-7.9 4.6-8.1 4.4-8.2 4-8.4 3.8-8.4 3.6-8.6 3.3-8.5 3-8.7 2.6-12.3 3.4-12.3 3.2-12.2 2.9-12.2 2.5-12.1 2.2-12.2 2-12.1 1.6-12 1.3-12.1 1-11.9 0.7-12 0.4-12 0.1-11.9-0.2-11.9-0.4-11.8-1-11.8-1-14.3-1.7-14.2-2.3-14.4-2.7-14-3-14.2-3.6-14.1-4.1-14.1-4.4-13.9-4.9-8.4-3.3-8.2-3.4-8.1-3.9-8.2-4.1-7.8-4.5-7.9-4.6-7.9-5-7.6-5.4-7.7-5.5-7.5-5.9-7.3-6.2-7.4-6.4-7.2-6.9-7.1-7.1-7-7.3-6.9-7.6-2-7.7-3.3-9.6-4.7-11.5-6-13.6-2.7-6.8-2.1-7.2-1.6-7.4-0.8-7.9-0.2-7.9 0.3-8.4 1-8.4 1.7-8.7 2.2-8.9 2.9-9.2 3.6-9.2 4-9.4 4.8-9.2 5.1-9.2 5.6-8.9 6.1-8.5 6.2-7.5 6.8-7.1 7.6-6.7 8.6-6.3 9-6 10.6-5.9 11.9-6.2 16.6-7.8 19.7-9.5 14.2-7.5 5.6-2.9 5.8-2.8 6.2-2.6 6.5-2.3 6.7-2.2 6.9-1.9 14.9-3.3 34.7-6.1 35.5-5.6 36.3-5.3z"/>
		<path id="Layer" class="s18" d="m2706.6 2305.1l26.1 0.1 24.7 0.9 23.6 1.5 22.5 2.1 21.2 2.7 20 3.4 18.9 4 17.6 4.7 8 2.6 9 3.3 9.8 4.2 10.8 4.9 11.7 5.8 12.8 6.4 28.1 15.3 10.5 6.3 10.1 6.8 9.6 7.5 9.2 8 8.6 8.3 7.9 8.8 7.2 9.2 6.4 9.4 5.5 9.6 4.9 9.5 4 9.9 3.1 9.9 2.4 10 1.4 9.9 0.5 10-0.2 9.9-0.9 8.9-1.7 9-2.4 8.8-3.2 8.8-4.2 11-3.8 10.8-3.3 10.7-2.9 10.2-3.1 3.3-10 10-10.3 9.3-10.7 9.1-11.1 8.5-11.6 8.3-11.8 7.8-12.2 7.2-12.6 6.8-12.9 6.5-13.3 5.9-13.5 5.4-13.8 5-14.2 4.5-14.4 4-14.7 3.4-14.8 3.1-15.1 2.5-15.3 1.9-15.5 1.5-15.5 0.9-15.7 0.4-15.7-0.1-15.8-0.7-15.8-1.2-15.8-1.7-15.6-2.2-15.5-2.8-15.5-3.3-15.1-3.8-15.2-4.2-14.8-4.7-14.6-5.3-14.6-6-14.3-6.9-14-7.6-13.2-8.4-12.7-8.9-11.7-9.5-11-10.1-10-10.5-8.9-10.8-7.9-11.1-6.9-11.4-3-5.6-2.7-5.8-2.5-5.8-2.3-5.9-1.8-5.9-1.7-6.1-1.3-5.9-1.2-6.2-0.8-5.9-0.5-6.2-0.3-7.9 0.3-8 0.8-8 1.1-8.2 1.8-7.8 2.1-8.2 2.6-8 3.1-8 3.2-7 3.5-6.8 4.1-6.7 4.5-6.7 4.9-6.7 5.3-6.6 5.8-6.6 6.3-6.4 6.7-6.3 7.1-6.5 7.7-6.2 8-6.3 8.5-6 9-6.2 9.3-6 9.9-6z"/>
	</g>
	<g id="Layer">
		<path id="Layer" class="s19" d="m1937.8 729.3l-62.1 1.2-2.6 0.3-2.5 0.8-2.4 1.3-2.1 1.5-1.8 2-1.3 2.4-1 2.5-0.3 2.6-1.2 20.1-0.4 22 0.1 24.3 0.7 33.4 0.8 33.6 0.1 24.8-0.4 22.3-1.2 20.5-3 36.9-3.4 35-4 33-4.2 31.2-4.6 29.3-5 27.2-5.4 25.4-5.8 23.5-1.7 5.5-1.9 5.3-2.4 5.1-2.8 4.9-2.5 4-2.9 4-3.1 3.8-3.4 3.5-3.7 3.6-3.9 3.3-4.3 3-4.4 3-3.7 1.9-3.8 0.9-3.8 0.1-3.8-0.6-4.4-1.5-4.2-1.8-4.2-2.3-4.1-2.7-4-3.2-4-3.5-3.8-4.1-3.7-4.5-3.7-4.8-3.4-5.3-3.5-5.8-3.3-6-3.2-6.6-3.1-7.1-6.1-15.2-5.5-16.9-5.1-18.6-4.9-20.2-4.3-21.9-4.1-23.3-3.5-24.9-3.3-26.7-3.6-32.4-1.3-13-0.7-7.9-0.3-9.2-0.3-22.7 0.5-28.3 1.3-33.9 0.6-17.5v-17.3l-0.8-17.4-1.3-17.2-2-17.4-2.6-17.2-3.3-17.2-4-17.2 62.2-3.4 49.7-2 20.2-0.4h17.1l14 0.3 10.9 0.6 7.5 1.1 9.8 2.1 8.6 1.8 6.4 1.1 6.2 0.6 6.2 0.3 8-0.5 9.4-0.7h9l9.1 0.5 8.9 1.2z"/>
		<path id="Layer" class="s19" d="m1954.2 734.7l8.1 2 8.2 1.4 8.1 1.2 8.1 0.8 7.9 0.3h8l7.9-0.4 7.7-0.8 3.4-0.3 3.1 0.4 2.3 0.8 1.9 1.3 1.3 1.9 0.8 2.5 0.1 2.8-0.3 3.6-1.5 11.2-1.2 10.9-0.8 10.8-0.4 10.3 0.1 10.2 0.4 9.8 0.8 9.6 1.3 9.4 1.6 9 2.1 8.8 2.4 8.6 2.9 8.3 3.2 8 3.7 7.7 4.1 7.5 4.5 7.3 4.6 6.5 5 6.5 5.4 6.1 5.6 6 6.1 5.6 6.4 5.4 6.8 5.1 7.3 5-2.8 2.1-2.5 2.4-2.2 2.5-2 2.6-2.6 4.4-2 4.7-1.3 5.1-0.9 5.4-0.3 5.9 0.3 6.2 0.7 6.7 1.5 7-5.7 25.1-5.9 24.6-6.3 24-6.7 23.6-7 23-7.3 22.3-7.8 22-8.1 21.3-2.5 5.9-2.8 5.5-3 5.1-3.2 4.9-3.5 4.6-3.7 4.2-4.1 3.9-4.2 3.6-6.7 4.6-7.2 3.9-2.5 0.9-2.5 0.3-2.6-0.3-2.5-0.6-2.3-1.3-1.9-1.7-1.6-2.1-1.1-2.4-0.4-1.5-5.5-29-4.7-27.7-4.3-26.9-3.6-25.9-3.2-25.1-2.4-24.5-2.2-24-1.4-23.2-0.9-22.9-0.4-22.4 0.3-21.6 0.6-21.5 1.2-20.9 1.8-20.3 2.4-20 2.9-19.6 2.1-14.7 1.6-14.8 0.9-14.4 0.3-14.4-0.4-14.1-1.1-14-1.6-13.9z"/>
		<path id="Layer" class="s19" d="m1598.7 736l-4.6 2.3-3.9 3-2.8 2.9-2.5 3.3-2.1 3.6-1.7 4.3-1.3 4.6-0.9 5.1-0.5 5.4-0.2 5.9 0.3 43 0.5 45.6 1.1 48 1.3 50.4 0.6 33-0.2 32.6-0.9 32.1-1.7 31.6-2.5 31-3.2 30.6-4.1 30.1-4.7 29.6-0.8 2.6-1.2 2.4-1.7 2-2 1.7-2.3 1.3-2.7 0.8-2.6 0.1-2.6-0.3-0.5-0.1-4.2-1.3-4.1-1.6-3.8-2-3.4-2.3-3.2-2.4-2.8-2.6-2.6-3-2.5-3.3-6.8-10.5-6.6-11.1-6.3-11.6-6.1-11.9-5.7-12.5-5.4-12.9-5.3-13.5-5-14.1-4.6-14.5-4.5-15.1-4.3-15.7-4.1-16.7-4-17.4-4-18.9-8.7-45.1-1.5-12-2.1-19.8-5.3-62.6-1.2-12.7-1.7-12.5-2-12.3-2.5-11.8-3-11.4-3.4-11.2-3.8-10.8-4.2-10.5 21.4-7 22.1-6.4 22.7-5.9 23.3-5.4 24.1-4.9 24.5-4.2 25.1-3.8z"/>
	</g>
	<g id="Layer">
		<path id="Layer" class="s20" d="m1351.5 792.6l-2.7 12.3-2.2 12.4-1.8 12.5-1.6 12.4-1.8 21.6-1 21.6-0.6 27.6-0.9 23.2-1.2 18.7-1.6 14.2-4.7 31.4-3.8 26.2-2.7 19.3-2.1 17.9-1.4 16.5-2 23.6-2.5 23.4-2.9 23.1-3.3 23.1-3.9 22.9-4.4 22.9-4.7 22.6-5.2 22.5-0.6 1.4-0.8 1.2-1 1.1-1.3 0.6-1.5 0.4-1.4 0.1-1.5-0.2-1.4-0.6-1.3-1-3.8-4.1-3.8-4.6-3.7-5.2-3.7-5.8-3.6-6.5-3.4-6.8-3.3-7.4-3.1-7.8-3.2-8.5-2.9-8.9-2.7-9.1-2.4-9.3-2.1-9.2-1.7-9.1-1.3-8.5-0.9-7.6-3.1-30.1-3.8-30.8-4.6-31.2-5.2-31.8-6.1-32.2-6.8-32.8-7.5-33.4-8.3-33.9-1.3-4.4-1.8-4.1-2.4-4-3-3.8-0.6-0.8v-0.7l0.3-0.5 0.8-0.4 3.3-1.1 1-0.5 0.6-1 0.4-2.1v-2l-0.4-1.9-0.7-1.5-0.8-1.2-1.2-1.2-3.1-1.7-4.1-1.2-5.3-0.5z"/>
		<path id="Layer" class="s20" d="m3225.6 934.1l0.4 13.6 0.8 13 1.4 12.3 2 12 2.5 11.3 3 10.8 3.7 10.1 4.1 9.7 4.1 7.8 2.3 3.5 2.5 3.3 2.7 3 2.7 2.8 2.9 2.6 3.2 2.4 3.3 2.1 3.4 1.8 8.5 4.9 8.2 5.5 6 4.9 5.7 5.3 2.7 2.1 3.3 1.3 3.4 0.5 3.5-0.4 4.2-1.3 3.9-2 2.9-1.8 2.6-2.3 2.5-2.6 2.3-2.9 1.9-3.3 1.9-3.6 1.7-4 1.4-4.3 4-14.1 3.4-13.7 2.9-13.1 2.1-12.9 1.6-12.3 1-12 0.4-11.4-0.3-11.2 1 15.6 0.7 15.4 0.3 15.5 0.1 15.3-0.2 15.3-0.5 15.2-0.8 15.1-1.2 15.1-1.5 14.8-1.7 14.9-1.9 14.9-2.4 14.7-2.6 14.6-3.1 14.6-3.1 14.6-3.6 14.3-3.6 13.7-4 13.4-4.2 13.5-4.5 13.3-4.6 13.4-5 13.1-5.4 13.2-5.5 13.1-5.8 13-6 13.1-6.3 12.8-6.7 12.8-6.9 12.7-7.2 12.8-7.3 12.6-7.8 12.5-1.1 1.3-1.3 0.9-1.5 0.7-1.6 0.1-1.6-0.1-1.6-0.7-1.3-0.9-1-1.3-10.7-17.2-11-17-15.9-23-16.5-22.5-17.2-22.1-17.9-21.5-1.8-2.8-1.2-2.9-0.4-3.1 0.4-3.2 1.3-5.5 1.7-5.5 4.4-11.6 5.5-12.2 8.3-16 7.2-13.8 5-10.4 12.4-28.4 10.7-27.2 9.5-26.1 8-24.7 2.8-10 2.1-10 1.7-9.9 1-10.2 0.6-9.4v-9.6l-0.4-9.6-0.9-9.6z"/>
		<path id="Layer" class="s20" d="m2101.2 945.8l22.3 13.6 22.6 12.5 22.5 11.3 22.7 10.3 22.5 9.1 11.2 4.2 11.3 3.8 11 3.6 11.2 3.3 11.1 2.9 11 2.7 10.9 2.4 11 2.1 10.8 1.7 10.8 1.6 10.7 1 10.7 0.9 10.6 0.7 10.5 0.3h10.4l10.3-0.3 10.4-0.7 10.3-0.9 10-1.2 10.1-1.4 10-1.8 9.8-2.1 3.6-0.4 3.1 0.6 2.7 1.2 2.3 1.8 12 11.3 11.8 10.4 11.5 9.5 11.1 8.7 11.1 7.9 10.8 7.1 10.5 6.1 10.4 5.4 10 4.5 9.8 3.7 9.5 2.7 9.2 2 9 1.2 8.7 0.3 8.4-0.7 8.2-1.4 2.4-0.4h2.1l1.8 0.2 1.7 0.8 1.5 1.1 1.3 1.4 1 1.8 0.8 2.3 6.1 18.4 6.7 18.4 7.3 18.7 8.2 18.6 8.9 18.8 9.6 18.9 10.4 19 11 19.2 4.6 7.3 5.2 7.4 5.3 7.2 5.7 7.1 6.2 7 6.4 6.8 7 6.7 7.2 6.7 7.5 6.5 8 6.4 8.3 6.3 8.7 6.2 9.1 6.1 9.4 6 9.9 5.8 10.1 5.8 12.5 6.4 12.6 5.7 12.8 5 12.7 4.2 13 3.5 13 2.6 13.3 2.1 13.2 1.2 10.3 0.4h10.6l10.5-0.5 10.5-0.9 10.5-1.6 10.5-1.8 10.4-2.4 10.4-2.9 10.4-3.3 10.4-3.8 10.2-4.2 10.3-4.6 10.1-5.1 10-5.6 10-6 9.8-6.4 2.5-1.4 2.8-0.9 2.8-0.2 2.8 0.2 2.7 0.9 2.5 1.4 2.1 1.8 1.8 2.2 0.3 0.6 46.3 80.8-3.7-0.7-3.3-1.1-2.9-1.5-2.5-2-2.2-2.8-1.7-3.3-1-2-1.1-1.6-1.2-1.3-1.5-0.9-1.6-0.7-1.8-0.4h-2l-2.1 0.3-2.9 0.1-1-0.2-0.9-0.7-0.8-0.9-0.5-1.2-0.3-1.6v-1.8l-0.1-1.1-0.4-1-0.8-0.8-0.9-0.5-11.5-3.2-10.8-2.2-10.1-1.2-9.4-0.3-8.9 0.8-4 0.8-4.1 1.1-3.8 1.1-3.7 1.6-3.5 1.7-3.3 2.1-3.5 2.4-3.1 2.6-3 3.1-2.8 3.2-2.6 3.6-2.5 3.8-2.3 4.1-2.1 4.3-1.7 2.9-1 1.2-1.3 0.8-2.8 1-3.3 0.2-10.6-0.4-10.7 0.6-10.9 1.7-11 2.7-9.6 2.2-7.4 1.2-7.3 0.8-7.5 0.2-7.5-0.1-14.9-1.1-14.7-1.4-14.5-2.1-14.2-2.6-14-3.2-14-3.7-13.6-4.2-13.4-4.8-11.5-4.5-11.2-5-11.1-5.3-10.9-5.7-10.8-6.2-10.7-6.5-10.5-6.9-10.4-7.4-7.6-6.3-11.2-10.3-15.1-13.9-5.9-5-5.5-4.1-4.6-3.5-4.1-3.8-3.5-4.2-3.1-4.5-0.8-1.2-15.1-25.5-15.6-25.5-16.6-25.4-17.1-25.5-2.1-2.9-2.3-2.6-2.7-2.3-2.9-2.1-3-2-3.1-1.7-3.3-1.3-3.4-1.1-11.1-2.8-12.5-2.7-32.7-6.6-29.8-5.9-21.6-4.9-19.2-5.2-8.7-2.9-8.3-2.9-23.5-8.6-24-8.2-24.9-8.1-25.4-7.7-4.7-1.1-4.6-0.4-4.2 0.4-3.9 1.2-4.2 2.1-3.9 3.2-2.2 2.6-1.8 2.9-1.6 3.7-0.8 4.1-0.1 4.3 0.4 4.7 1.8 14.6 0.9 15.1-0.1 15.5-1.2 16-0.9 5.5-1.5 5-2.2 4.4-2.8 4-3.4 3.4-4.2 2.8-4.7 2.2-5.4 1.7-3.5 0.7-3.5 0.1-5.1-0.4-7.5-1.8-3.4-1.2-3.2-1.5-2.8-1.7-2.7-1.8-2.5-2-2.2-2.4-2-2.5-1.7-2.6-1.4-2.9-1.4-3.1-1-3.3-0.8-3.6-0.8-7.7-0.2-15.3 0.4-21.4 0.3-27.6-0.2-10.4-0.5-9.5-0.8-9-1.2-8.4-1.5-7.8-1.8-7.4-1.6-4.6-2.1-4.4-2.5-4.5-3-4.5-3.6-4.3-4-4.3-4.6-4.4-5-4.3-10.3-7.9-10.2-7.6-10.5-7.4-10.8-7-10.8-6.5-10.9-6.3-11.2-6.1-11.3-5.6-17-7.9-17.3-7.1-1.5-7-0.7-6.7-0.3-6.2 0.3-5.9 0.9-5.4 1.3-5.1 2-4.7 2.6-4.4 2-2.6 2.2-2.5 2.5-2.4z"/>
	</g>
	<path id="Layer" class="s21" d="m299.6 962.8l8.4 13.1 8.8 13.3 9.5 13.4 9.8 13.4 10.4 13.7 10.8 13.7 11.6 13.9 11.9 14.1 12.4 14 12.9 14.4 28.4 30.2 32 32.9 44.5 44.3 20.1 19.9 3.3 3.9 2.6 4.4 2.2 5.1 1.7 6 1.2 6.5 0.7 7.3 0.1 7.9-0.4 8.6-25.8 24.3-43.5 41.2-16.3 15.8-14.7 14.7-14.2 14.4-13 14-12.2 13.4-11.6 13.3-11.2 13.5-10.6 13.3-10 13.3-9.3 13.2-8.8 13.2-8.3 13.3-7.8 13.2-7.2 13.3-0.8 1.1-0.9 0.8-1.2 0.3-1.2 0.3-1.2-0.3-1.2-0.3-0.9-0.8-0.8-1.1-9.8-19.2-9.4-19.2-8.8-19.4-8.4-19.5-8-19.7-7.5-19.8-7.1-19.9-6.6-20.1-4.6-15.3-4-15.3-3.7-15.5-3.3-16-2.9-16-2.5-16.2-2-16.4-1.5-16.7-2.9-40-1.7-33.6-0.4-15.6-0.2-15.2 0.2-14.6 0.4-14 0.6-14 1.1-13.5 1.3-13.3 1.6-12.9 1.8-12.7 2.2-12.4 2.5-12.3 2.8-12.1 2.9-8.2 2.4-8.4 1.9-8.3 1.6-8.4 1.2-10.1 0.5-10.1-0.1-10.3-0.7-10.4 2.4-6.1-0.5 4.7 0.2 3.8 0.8 2.8 0.8 1 0.8 0.9h0.1l0.8 0.4 1.2 0.2 1.2-0.6 0.9-0.9 0.3-1.2 0.5-5.7 1.2-5 0.9-2.3 1.2-1.8 1.3-1.9 1.4-1.4 2.8-2 3.4-1.4 3.8-0.8 4.4-0.3 3.2 0.4 3.1 0.9 3 1.8 2.6 2.3 3 3.6 2.9 3.8 2.7 4.1 2.5 4.3 2.3 4.5 2.1 4.8z"/>
	<g id="Layer">
		<path id="Layer" class="s15" d="m991.6 2017c-68.2 0-123.2-55-123.2-123.1 0-68.1 55-123.2 123.2-123.2 68.1 0 123.1 55.1 123.1 123.2 0 68.1-55 123.1-123.1 123.1z"/>
		<path id="Layer" class="s15" d="m2450.8 2030.1c-68.1 0-123.1-55.1-123.1-123.2 0-68.1 55-123.2 123.1-123.2 68.1 0 123.2 55.1 123.2 123.2 0 68.1-55.1 123.2-123.2 123.2z"/>
	</g>
	<g id="Layer">
		<path id="Layer" class="s0" d="m2397.3 1480.6c-51.7 0-93.4-35.9-93.4-80.3 0-44.4 41.7-80.3 93.4-80.3 51.7 0 93.5 35.9 93.5 80.3 0 44.4-41.8 80.3-93.5 80.3z"/>
		<path id="Layer" class="s0" d="m1167.6 1476.5c-47.2 0-85.3-33.3-85.3-74.5 0-41.3 38.1-74.6 85.3-74.6 47.1 0 85.3 33.3 85.3 74.6 0 41.2-38.2 74.5-85.3 74.5z"/>
		<path id="Layer" class="s0" d="m1790.4 2243.8l-1.7-1.3-1.7-0.8-1.6-0.5-1.6 0.1-1.4 0.4-1.5 0.9-1.3 1.3-1.2 1.7-4.2 6.2-4.7 5.8-5.3 5.5-5.7 5-6.3 4.8-6.9 4.3-7.2 3.9-7.6 3.6-8.2 3.1-8.3 2.7-8.8 2.1-8.9 1.7-9.2 1.2-9.4 0.6-9.3 0.2-9.3-0.3-9.4-0.9-9.3-1.3-8.9-1.9-8.8-2.2-8.6-2.8-8.1-3.3-7.8-3.5-7.5-4.1-6.8-4.5-6.6-4.7-5.9-5.1-5.5-5.5-4.9-5.8-4.3-6.1-3.7-6.4-3.3-6.6-2.6-6.7-2-7-1.4-7.2-1-7.5-0.2-7.5 0.2-7.7 0.8-7.9 1.5-8.2 1-4 1.3-3.9 1.6-3.6 2-3.4 2.1-3.1 2.4-2.7 2.3-2.1 3.6-2.3 3.9-1.4 4.2-0.4 4.2 0.4 4 1.3 3.7 2.1 3.1 2.9 2.4 3.4 23.6 44.3 1.9 3.4 2.1 3.2 2.4 3 2.5 2.8 3.6 3.5 4 3 4.4 2.9 4.6 2.4 5 2 5.2 1.7 5.5 1.2 5.5 0.7 5.9 0.4h6.1l6-0.4 6.1-0.9 6-1.2 5.8-1.7 5.8-2.1 5.4-2.3 3.1-1.6 8-4.5 7.8-5.2 7.4-5.8 7.1-6.5 6.7-6.9 6.4-7.7 6.2-8.2 5.8-8.8 1.4-2.9 1.1-3.2 0.5-3.1v-3.3l-0.5-3.2-1-3.1-1.4-3.1-1.8-2.6-4.1-4.7-5-5-14.7-13.4-11.1-10-7.7-7.5-6.5-7-5.1-6.7-4.2-6.7-3-6.7-2-6.6-0.5-3.3-0.4-3.2v-3.7l0.2-3.7 0.7-3.7 0.9-3.8 1.3-3.7 1.6-3.9 2-3.7 2.2-3.9 2.1-3.2 2.4-3 2.7-3 2.9-2.8 3.2-2.5 3.3-2.5 7.5-4.3 8.4-3.8 9.2-3.2 10.1-2.5 10.8-1.8 12.2-1.1 12.5-0.3 12.9 0.6 12.7 1.3 12.4 2.1 11.4 2.7 10.2 3.5 4.4 1.9 4 2 6.7 4.1 5.9 4.7 5.2 5.3 4.2 5.5 3.6 6 2.4 6.4 1.5 6.5 0.6 6.6-0.4 6.2-1.3 6.2-2.3 5.7-3 5.7-3.7 5.4-4.5 5-5.2 4.6-5.9 4.2-9.8 6.6-9.3 7.2-5.5 4.6-5.4 5-3.3 3.7-2.7 4-2.1 4.6-1.4 4.8-0.5 4.8 0.1 5 1 4.9 1.7 4.6 4.3 9.1 4.7 8.2 5 7.7 5.6 6.9 5.7 6.3 6.2 5.7 6.6 4.9 7 4.2 8.4 3.9 8.8 3.2 9.4 2.2 9.9 1.3 10.3 0.4 10.9-0.5 11.3-1.5 11.8-2.2 3.8-1 4.2-1.6 4.1-2 3.8-2.4 3.7-2.7 3.7-3.3 3.4-3.6 3.3-3.9 3.1-4.5 3.1-4.7 2.8-5.3 2.8-5.6 2.5-6.1 2.4-6.4 2.2-6.7 2-7.1 1.8-7.2 1.1-2.9 1.7-2.3 1-0.7 1.5-0.7 3.1-0.8 4.8-0.1 4.3 0.4 4.1 0.9 3.8 1.6 2.6 1.4 2.4 1.7 2.4 2 2.1 2.4 2.1 2.6 1.8 2.7 1.6 3.2 1.4 3.4 2.5 7.5 1.6 8.4 0.7 8.8-0.2 9-0.9 7.5-1.6 7.6-2.3 7.5-2.9 7.3-3.7 7-4.2 7-4.9 6.7-5.5 6.4-6.1 5.9-6.7 5.8-7.1 5.4-7.4 4.9-7.9 4.3-8.3 4-8.4 3.2-8.6 2.7-8.5 2.1-11.3 2-11.1 1.4-11 0.8-10.8 0.2-10.6-0.3-10.6-1.1-10.3-1.6-10.3-2.2-10.6-2.9-10.7-3.7-10.4-4.5-10.1-4.9-10.1-5.7-9.9-6.4-9.7-7.1z"/>
	</g>
</svg>